0, 0, Header, 1, 18, 240
1, 0, Start_track
1, 0, Sequencer_specific, 10, 0, 0, 91, 35, 1, 0, 5, 6, 42, 0
1, 0, Title_t, "Ludwig van Beethoven - Symphony No. 7 in A Major, Op.92"
1, 0, Instrument_name_t, "Conductor Track"
1, 0, SMPTE_offset, 96, 0, 3, 0, 0
1, 0, MIDI_port, 0
1, 0, Marker_t, "Originally Sequenced 21 Sep 2000"
1, 0, Key_signature, -1, "major"
1, 0, Tempo, 303030
1, 0, Time_signature, 1, 3, 12, 8
1, 120, Time_signature, 3, 3, 12, 8
1, 106680, Time_signature, 3, 2, 24, 8
1, 106680, Key_signature, 2, "major"
1, 106680, Tempo, 238095
1, 199560, Time_signature, 5, 3, 12, 8
1, 200040, Key_signature, -1, "major"
1, 200040, Tempo, 303030
1, 200160, Time_signature, 3, 3, 12, 8
1, 262080, Time_signature, 3, 2, 24, 8
1, 262080, Tempo, 238095
1, 262080, Key_signature, 2, "major"
1, 354960, Time_signature, 5, 3, 12, 8
1, 355440, Key_signature, -1, "major"
1, 355440, Tempo, 303030
1, 355560, Time_signature, 3, 3, 12, 8
1, 408840, Time_signature, 3, 2, 24, 8
1, 408840, Tempo, 238095
1, 411720, Time_signature, 3, 3, 12, 8
1, 411720, Tempo, 303030
1, 413280, Tempo, 3000000
1, 413760, Tempo, 416666
1, 413760, End_track
2, 0, Start_track
2, 0, Title_t, "3rd Movement - Presto"
2, 0, MIDI_port, 0
2, 0, End_track
3, 0, Start_track
3, 0, Title_t, "Sequenced by D. L. Viens 4 Oct 2000"
3, 0, MIDI_port, 0
3, 0, End_track
4, 0, Start_track
4, 0, Title_t, "dlviens@empire.net"
4, 0, MIDI_port, 0
4, 0, End_track
5, 0, Start_track
5, 0, MIDI_port, 0
5, 0, End_track
6, 0, Start_track
6, 0, Title_t, "Flute"
6, 0, MIDI_port, 0
6, 0, Program_c, 1, 73
6, 0, Control_c, 1, 7, 72
6, 0, Control_c, 1, 10, 60
6, 0, Control_c, 1, 11, 127
6, 0, Note_on_c, 1, 77, 76
6, 71, Note_on_c, 1, 77, 0
6, 80, Note_on_c, 1, 77, 76
6, 119, Note_on_c, 1, 77, 0
6, 120, Note_on_c, 1, 81, 76
6, 239, Note_on_c, 1, 81, 0
6, 240, Note_on_c, 1, 77, 76
6, 299, Note_on_c, 1, 77, 0
6, 360, Note_on_c, 1, 81, 76
6, 360, Note_on_c, 1, 77, 76
6, 431, Note_on_c, 1, 81, 0
6, 431, Note_on_c, 1, 77, 0
6, 440, Note_on_c, 1, 77, 76
6, 440, Note_on_c, 1, 81, 76
6, 479, Note_on_c, 1, 77, 0
6, 479, Note_on_c, 1, 81, 0
6, 480, Note_on_c, 1, 84, 76
6, 480, Note_on_c, 1, 81, 76
6, 599, Note_on_c, 1, 84, 0
6, 599, Note_on_c, 1, 81, 0
6, 600, Note_on_c, 1, 77, 76
6, 600, Note_on_c, 1, 81, 76
6, 659, Note_on_c, 1, 77, 0
6, 659, Note_on_c, 1, 81, 0
6, 720, Note_on_c, 1, 84, 76
6, 720, Note_on_c, 1, 81, 76
6, 824, Note_on_c, 1, 84, 0
6, 824, Note_on_c, 1, 81, 0
6, 840, Note_on_c, 1, 89, 52
6, 840, Note_on_c, 1, 81, 52
6, 929, Note_on_c, 1, 89, 0
6, 929, Note_on_c, 1, 81, 0
6, 960, Note_on_c, 1, 81, 52
6, 960, Note_on_c, 1, 89, 52
6, 1049, Note_on_c, 1, 81, 0
6, 1049, Note_on_c, 1, 89, 0
6, 1080, Note_on_c, 1, 88, 52
6, 1080, Note_on_c, 1, 84, 52
6, 1169, Note_on_c, 1, 88, 0
6, 1169, Note_on_c, 1, 84, 0
6, 1200, Note_on_c, 1, 82, 52
6, 1200, Note_on_c, 1, 86, 52
6, 1289, Note_on_c, 1, 82, 0
6, 1289, Note_on_c, 1, 86, 0
6, 1320, Note_on_c, 1, 82, 52
6, 1320, Note_on_c, 1, 86, 52
6, 1409, Note_on_c, 1, 82, 0
6, 1409, Note_on_c, 1, 86, 0
6, 1440, Note_on_c, 1, 81, 52
6, 1440, Note_on_c, 1, 84, 52
6, 1529, Note_on_c, 1, 81, 0
6, 1529, Note_on_c, 1, 84, 0
6, 1560, Note_on_c, 1, 79, 52
6, 1560, Note_on_c, 1, 82, 52
6, 1649, Note_on_c, 1, 79, 0
6, 1649, Note_on_c, 1, 82, 0
6, 1680, Note_on_c, 1, 79, 52
6, 1680, Note_on_c, 1, 82, 52
6, 1769, Note_on_c, 1, 79, 0
6, 1769, Note_on_c, 1, 82, 0
6, 1800, Note_on_c, 1, 81, 52
6, 1800, Note_on_c, 1, 77, 52
6, 1889, Note_on_c, 1, 81, 0
6, 1889, Note_on_c, 1, 77, 0
6, 1920, Note_on_c, 1, 76, 52
6, 1920, Note_on_c, 1, 79, 52
6, 2264, Note_on_c, 1, 76, 0
6, 2264, Note_on_c, 1, 79, 0
6, 2280, Note_on_c, 1, 88, 52
6, 2280, Note_on_c, 1, 91, 52
6, 2369, Note_on_c, 1, 88, 0
6, 2369, Note_on_c, 1, 91, 0
6, 2400, Note_on_c, 1, 88, 52
6, 2400, Note_on_c, 1, 91, 52
6, 2489, Note_on_c, 1, 88, 0
6, 2489, Note_on_c, 1, 91, 0
6, 2520, Note_on_c, 1, 89, 52
6, 2520, Note_on_c, 1, 86, 52
6, 2609, Note_on_c, 1, 89, 0
6, 2609, Note_on_c, 1, 86, 0
6, 2640, Note_on_c, 1, 84, 52
6, 2640, Note_on_c, 1, 88, 52
6, 2729, Note_on_c, 1, 84, 0
6, 2729, Note_on_c, 1, 88, 0
6, 2760, Note_on_c, 1, 88, 52
6, 2760, Note_on_c, 1, 84, 52
6, 2849, Note_on_c, 1, 88, 0
6, 2849, Note_on_c, 1, 84, 0
6, 2880, Note_on_c, 1, 82, 52
6, 2880, Note_on_c, 1, 86, 52
6, 2969, Note_on_c, 1, 82, 0
6, 2969, Note_on_c, 1, 86, 0
6, 3000, Note_on_c, 1, 84, 52
6, 3000, Note_on_c, 1, 81, 52
6, 3089, Note_on_c, 1, 84, 0
6, 3089, Note_on_c, 1, 81, 0
6, 3120, Note_on_c, 1, 84, 52
6, 3120, Note_on_c, 1, 81, 52
6, 3209, Note_on_c, 1, 84, 0
6, 3209, Note_on_c, 1, 81, 0
6, 3240, Note_on_c, 1, 79, 52
6, 3240, Note_on_c, 1, 82, 52
6, 3329, Note_on_c, 1, 79, 0
6, 3329, Note_on_c, 1, 82, 0
6, 3360, Note_on_c, 1, 81, 52
6, 3360, Note_on_c, 1, 77, 52
6, 3719, Note_on_c, 1, 81, 0
6, 3719, Note_on_c, 1, 77, 0
6, 4440, Note_on_c, 1, 79, 52
6, 4529, Note_on_c, 1, 79, 0
6, 4560, Note_on_c, 1, 79, 60
6, 4649, Note_on_c, 1, 79, 0
6, 4680, Note_on_c, 1, 77, 68
6, 4769, Note_on_c, 1, 77, 0
6, 4800, Note_on_c, 1, 82, 76
6, 5039, Note_on_c, 1, 82, 0
6, 5040, Note_on_c, 1, 81, 76
6, 5144, Note_on_c, 1, 81, 0
6, 5160, Note_on_c, 1, 86, 84
6, 5399, Note_on_c, 1, 86, 0
6, 5400, Note_on_c, 1, 85, 76
6, 5504, Note_on_c, 1, 85, 0
6, 5520, Note_on_c, 1, 89, 84
6, 5759, Note_on_c, 1, 89, 0
6, 5760, Note_on_c, 1, 88, 76
6, 5864, Note_on_c, 1, 88, 0
6, 5880, Note_on_c, 1, 88, 76
6, 6224, Note_on_c, 1, 88, 0
6, 6240, Note_on_c, 1, 88, 76
6, 6359, Note_on_c, 1, 88, 0
6, 6600, Note_on_c, 1, 88, 76
6, 6944, Note_on_c, 1, 88, 0
6, 6960, Note_on_c, 1, 88, 76
6, 7079, Note_on_c, 1, 88, 0
6, 7320, Note_on_c, 1, 88, 76
6, 7440, Note_on_c, 1, 90, 76
6, 7559, Note_on_c, 1, 90, 0
6, 7560, Note_on_c, 1, 92, 76
6, 7664, Note_on_c, 1, 92, 0
6, 7680, Note_on_c, 1, 93, 76
6, 7769, Note_on_c, 1, 93, 0
6, 7784, Note_on_c, 1, 88, 0
6, 7800, Note_on_c, 1, 88, 76
6, 7889, Note_on_c, 1, 88, 0
6, 7920, Note_on_c, 1, 85, 76
6, 8009, Note_on_c, 1, 85, 0
6, 8040, Note_on_c, 1, 81, 76
6, 8129, Note_on_c, 1, 81, 0
6, 8160, Note_on_c, 1, 76, 76
6, 8249, Note_on_c, 1, 76, 0
6, 8280, Note_on_c, 1, 73, 76
6, 8369, Note_on_c, 1, 73, 0
6, 8400, Note_on_c, 1, 69, 76
6, 8489, Note_on_c, 1, 69, 0
6, 8640, Note_on_c, 1, 77, 76
6, 8711, Note_on_c, 1, 77, 0
6, 8720, Note_on_c, 1, 77, 76
6, 8759, Note_on_c, 1, 77, 0
6, 8760, Note_on_c, 1, 81, 76
6, 8879, Note_on_c, 1, 81, 0
6, 8880, Note_on_c, 1, 77, 76
6, 8939, Note_on_c, 1, 77, 0
6, 9000, Note_on_c, 1, 81, 76
6, 9000, Note_on_c, 1, 77, 76
6, 9071, Note_on_c, 1, 81, 0
6, 9071, Note_on_c, 1, 77, 0
6, 9080, Note_on_c, 1, 77, 76
6, 9080, Note_on_c, 1, 81, 76
6, 9119, Note_on_c, 1, 77, 0
6, 9119, Note_on_c, 1, 81, 0
6, 9120, Note_on_c, 1, 81, 76
6, 9120, Note_on_c, 1, 84, 76
6, 9239, Note_on_c, 1, 81, 0
6, 9239, Note_on_c, 1, 84, 0
6, 9240, Note_on_c, 1, 77, 76
6, 9240, Note_on_c, 1, 81, 76
6, 9299, Note_on_c, 1, 77, 0
6, 9299, Note_on_c, 1, 81, 0
6, 9360, Note_on_c, 1, 81, 76
6, 9360, Note_on_c, 1, 84, 76
6, 9464, Note_on_c, 1, 81, 0
6, 9464, Note_on_c, 1, 84, 0
6, 9480, Note_on_c, 1, 81, 52
6, 9480, Note_on_c, 1, 89, 52
6, 9569, Note_on_c, 1, 81, 0
6, 9569, Note_on_c, 1, 89, 0
6, 9600, Note_on_c, 1, 81, 52
6, 9600, Note_on_c, 1, 89, 52
6, 9689, Note_on_c, 1, 81, 0
6, 9689, Note_on_c, 1, 89, 0
6, 9720, Note_on_c, 1, 88, 52
6, 9720, Note_on_c, 1, 84, 52
6, 9809, Note_on_c, 1, 88, 0
6, 9809, Note_on_c, 1, 84, 0
6, 9840, Note_on_c, 1, 82, 52
6, 9840, Note_on_c, 1, 86, 52
6, 9929, Note_on_c, 1, 82, 0
6, 9929, Note_on_c, 1, 86, 0
6, 9960, Note_on_c, 1, 86, 52
6, 9960, Note_on_c, 1, 82, 52
6, 10049, Note_on_c, 1, 86, 0
6, 10049, Note_on_c, 1, 82, 0
6, 10080, Note_on_c, 1, 84, 52
6, 10080, Note_on_c, 1, 81, 52
6, 10169, Note_on_c, 1, 84, 0
6, 10169, Note_on_c, 1, 81, 0
6, 10200, Note_on_c, 1, 82, 52
6, 10200, Note_on_c, 1, 79, 52
6, 10289, Note_on_c, 1, 82, 0
6, 10289, Note_on_c, 1, 79, 0
6, 10320, Note_on_c, 1, 79, 52
6, 10320, Note_on_c, 1, 82, 52
6, 10409, Note_on_c, 1, 79, 0
6, 10409, Note_on_c, 1, 82, 0
6, 10440, Note_on_c, 1, 81, 52
6, 10440, Note_on_c, 1, 77, 52
6, 10529, Note_on_c, 1, 81, 0
6, 10529, Note_on_c, 1, 77, 0
6, 10560, Note_on_c, 1, 79, 52
6, 10560, Note_on_c, 1, 76, 52
6, 10904, Note_on_c, 1, 79, 0
6, 10904, Note_on_c, 1, 76, 0
6, 10920, Note_on_c, 1, 91, 52
6, 10920, Note_on_c, 1, 88, 52
6, 11009, Note_on_c, 1, 91, 0
6, 11009, Note_on_c, 1, 88, 0
6, 11040, Note_on_c, 1, 91, 52
6, 11040, Note_on_c, 1, 88, 52
6, 11129, Note_on_c, 1, 91, 0
6, 11129, Note_on_c, 1, 88, 0
6, 11160, Note_on_c, 1, 89, 52
6, 11160, Note_on_c, 1, 86, 52
6, 11249, Note_on_c, 1, 89, 0
6, 11249, Note_on_c, 1, 86, 0
6, 11280, Note_on_c, 1, 88, 52
6, 11280, Note_on_c, 1, 84, 52
6, 11369, Note_on_c, 1, 88, 0
6, 11369, Note_on_c, 1, 84, 0
6, 11400, Note_on_c, 1, 88, 52
6, 11400, Note_on_c, 1, 84, 52
6, 11489, Note_on_c, 1, 88, 0
6, 11489, Note_on_c, 1, 84, 0
6, 11520, Note_on_c, 1, 86, 52
6, 11520, Note_on_c, 1, 82, 52
6, 11609, Note_on_c, 1, 86, 0
6, 11609, Note_on_c, 1, 82, 0
6, 11640, Note_on_c, 1, 84, 52
6, 11640, Note_on_c, 1, 81, 52
6, 11729, Note_on_c, 1, 84, 0
6, 11729, Note_on_c, 1, 81, 0
6, 11760, Note_on_c, 1, 84, 52
6, 11760, Note_on_c, 1, 81, 52
6, 11849, Note_on_c, 1, 84, 0
6, 11849, Note_on_c, 1, 81, 0
6, 11880, Note_on_c, 1, 79, 52
6, 11880, Note_on_c, 1, 82, 52
6, 11969, Note_on_c, 1, 79, 0
6, 11969, Note_on_c, 1, 82, 0
6, 12000, Note_on_c, 1, 77, 52
6, 12000, Note_on_c, 1, 81, 52
6, 12359, Note_on_c, 1, 77, 0
6, 12359, Note_on_c, 1, 81, 0
6, 13080, Note_on_c, 1, 79, 52
6, 13169, Note_on_c, 1, 79, 0
6, 13200, Note_on_c, 1, 79, 60
6, 13289, Note_on_c, 1, 79, 0
6, 13320, Note_on_c, 1, 77, 68
6, 13409, Note_on_c, 1, 77, 0
6, 13440, Note_on_c, 1, 82, 76
6, 13679, Note_on_c, 1, 82, 0
6, 13680, Note_on_c, 1, 81, 76
6, 13784, Note_on_c, 1, 81, 0
6, 13800, Note_on_c, 1, 86, 84
6, 14039, Note_on_c, 1, 86, 0
6, 14040, Note_on_c, 1, 85, 76
6, 14144, Note_on_c, 1, 85, 0
6, 14160, Note_on_c, 1, 89, 84
6, 14399, Note_on_c, 1, 89, 0
6, 14400, Note_on_c, 1, 88, 76
6, 14504, Note_on_c, 1, 88, 0
6, 14520, Note_on_c, 1, 88, 76
6, 14864, Note_on_c, 1, 88, 0
6, 14880, Note_on_c, 1, 88, 76
6, 14999, Note_on_c, 1, 88, 0
6, 15240, Note_on_c, 1, 88, 76
6, 15584, Note_on_c, 1, 88, 0
6, 15600, Note_on_c, 1, 88, 76
6, 15719, Note_on_c, 1, 88, 0
6, 15960, Note_on_c, 1, 88, 76
6, 16080, Note_on_c, 1, 90, 76
6, 16199, Note_on_c, 1, 90, 0
6, 16200, Note_on_c, 1, 92, 76
6, 16304, Note_on_c, 1, 92, 0
6, 16320, Note_on_c, 1, 93, 76
6, 16409, Note_on_c, 1, 93, 0
6, 16424, Note_on_c, 1, 88, 0
6, 16440, Note_on_c, 1, 88, 76
6, 16529, Note_on_c, 1, 88, 0
6, 16560, Note_on_c, 1, 85, 76
6, 16649, Note_on_c, 1, 85, 0
6, 16680, Note_on_c, 1, 81, 76
6, 16769, Note_on_c, 1, 81, 0
6, 16800, Note_on_c, 1, 76, 76
6, 16889, Note_on_c, 1, 76, 0
6, 16920, Note_on_c, 1, 73, 76
6, 17009, Note_on_c, 1, 73, 0
6, 17040, Note_on_c, 1, 69, 76
6, 17129, Note_on_c, 1, 69, 0
6, 18720, Note_on_c, 1, 81, 52
6, 18809, Note_on_c, 1, 81, 0
6, 18840, Note_on_c, 1, 83, 52
6, 18929, Note_on_c, 1, 83, 0
6, 18960, Note_on_c, 1, 83, 52
6, 19049, Note_on_c, 1, 83, 0
6, 19080, Note_on_c, 1, 81, 52
6, 19169, Note_on_c, 1, 81, 0
6, 19200, Note_on_c, 1, 86, 52
6, 19439, Note_on_c, 1, 86, 0
6, 19440, Note_on_c, 1, 85, 52
6, 19544, Note_on_c, 1, 85, 0
6, 19560, Note_on_c, 1, 83, 52
6, 19649, Note_on_c, 1, 83, 0
6, 19680, Note_on_c, 1, 83, 52
6, 19769, Note_on_c, 1, 83, 0
6, 19800, Note_on_c, 1, 81, 52
6, 19889, Note_on_c, 1, 81, 0
6, 19920, Note_on_c, 1, 86, 52
6, 20159, Note_on_c, 1, 86, 0
6, 20160, Note_on_c, 1, 85, 52
6, 20264, Note_on_c, 1, 85, 0
6, 20280, Note_on_c, 1, 86, 44
6, 20519, Note_on_c, 1, 86, 0
6, 20520, Note_on_c, 1, 85, 44
6, 20624, Note_on_c, 1, 85, 0
6, 20640, Note_on_c, 1, 86, 44
6, 20879, Note_on_c, 1, 86, 0
6, 20880, Note_on_c, 1, 85, 44
6, 20984, Note_on_c, 1, 85, 0
6, 21000, Note_on_c, 1, 86, 44
6, 21239, Note_on_c, 1, 86, 0
6, 21240, Note_on_c, 1, 85, 44
6, 21344, Note_on_c, 1, 85, 0
6, 21360, Note_on_c, 1, 86, 44
6, 21599, Note_on_c, 1, 86, 0
6, 21600, Note_on_c, 1, 85, 44
6, 21719, Note_on_c, 1, 85, 0
6, 24120, Note_on_c, 1, 86, 84
6, 24120, Note_on_c, 1, 89, 84
6, 24224, Note_on_c, 1, 86, 0
6, 24224, Note_on_c, 1, 89, 0
6, 24240, Note_on_c, 1, 86, 84
6, 24240, Note_on_c, 1, 89, 84
6, 24359, Note_on_c, 1, 86, 0
6, 24359, Note_on_c, 1, 89, 0
6, 24480, Note_on_c, 1, 84, 52
6, 24569, Note_on_c, 1, 84, 0
6, 24600, Note_on_c, 1, 86, 52
6, 24689, Note_on_c, 1, 86, 0
6, 24720, Note_on_c, 1, 86, 52
6, 24809, Note_on_c, 1, 86, 0
6, 24840, Note_on_c, 1, 84, 52
6, 24929, Note_on_c, 1, 84, 0
6, 24960, Note_on_c, 1, 89, 52
6, 25199, Note_on_c, 1, 89, 0
6, 25200, Note_on_c, 1, 88, 52
6, 25304, Note_on_c, 1, 88, 0
6, 25320, Note_on_c, 1, 86, 52
6, 25409, Note_on_c, 1, 86, 0
6, 25440, Note_on_c, 1, 86, 52
6, 25529, Note_on_c, 1, 86, 0
6, 25560, Note_on_c, 1, 84, 52
6, 25649, Note_on_c, 1, 84, 0
6, 25680, Note_on_c, 1, 89, 52
6, 25919, Note_on_c, 1, 89, 0
6, 25920, Note_on_c, 1, 88, 52
6, 26024, Note_on_c, 1, 88, 0
6, 26040, Note_on_c, 1, 89, 44
6, 26279, Note_on_c, 1, 89, 0
6, 26280, Note_on_c, 1, 88, 44
6, 26384, Note_on_c, 1, 88, 0
6, 26400, Note_on_c, 1, 89, 44
6, 26639, Note_on_c, 1, 89, 0
6, 26640, Note_on_c, 1, 88, 44
6, 26744, Note_on_c, 1, 88, 0
6, 26760, Note_on_c, 1, 89, 44
6, 26999, Note_on_c, 1, 89, 0
6, 27000, Note_on_c, 1, 88, 44
6, 27104, Note_on_c, 1, 88, 0
6, 27120, Note_on_c, 1, 89, 44
6, 27359, Note_on_c, 1, 89, 0
6, 27360, Note_on_c, 1, 88, 44
6, 27479, Note_on_c, 1, 88, 0
6, 35040, Note_on_c, 1, 82, 52
6, 35129, Note_on_c, 1, 82, 0
6, 35160, Note_on_c, 1, 82, 52
6, 35249, Note_on_c, 1, 82, 0
6, 35280, Note_on_c, 1, 81, 53
6, 35369, Note_on_c, 1, 81, 0
6, 35400, Note_on_c, 1, 79, 53
6, 35489, Note_on_c, 1, 79, 0
6, 35520, Note_on_c, 1, 79, 54
6, 35609, Note_on_c, 1, 79, 0
6, 35640, Note_on_c, 1, 77, 54
6, 35729, Note_on_c, 1, 77, 0
6, 35760, Note_on_c, 1, 75, 55
6, 35849, Note_on_c, 1, 75, 0
6, 35880, Note_on_c, 1, 75, 56
6, 35969, Note_on_c, 1, 75, 0
6, 36000, Note_on_c, 1, 74, 56
6, 36089, Note_on_c, 1, 74, 0
6, 36120, Note_on_c, 1, 72, 57
6, 36209, Note_on_c, 1, 72, 0
6, 36480, Note_on_c, 1, 84, 58
6, 36569, Note_on_c, 1, 84, 0
6, 36600, Note_on_c, 1, 84, 59
6, 36689, Note_on_c, 1, 84, 0
6, 36720, Note_on_c, 1, 82, 60
6, 36809, Note_on_c, 1, 82, 0
6, 36840, Note_on_c, 1, 81, 60
6, 36929, Note_on_c, 1, 81, 0
6, 36960, Note_on_c, 1, 81, 61
6, 37049, Note_on_c, 1, 81, 0
6, 37080, Note_on_c, 1, 79, 61
6, 37169, Note_on_c, 1, 79, 0
6, 37200, Note_on_c, 1, 77, 62
6, 37289, Note_on_c, 1, 77, 0
6, 37320, Note_on_c, 1, 77, 62
6, 37409, Note_on_c, 1, 77, 0
6, 37440, Note_on_c, 1, 75, 63
6, 37529, Note_on_c, 1, 75, 0
6, 37560, Note_on_c, 1, 74, 64
6, 37679, Note_on_c, 1, 74, 0
6, 40320, Note_on_c, 1, 89, 76
6, 40320, Note_on_c, 1, 77, 76
6, 40391, Note_on_c, 1, 89, 0
6, 40391, Note_on_c, 1, 77, 0
6, 40400, Note_on_c, 1, 77, 76
6, 40400, Note_on_c, 1, 89, 76
6, 40439, Note_on_c, 1, 77, 0
6, 40439, Note_on_c, 1, 89, 0
6, 40440, Note_on_c, 1, 93, 76
6, 40440, Note_on_c, 1, 81, 76
6, 40559, Note_on_c, 1, 93, 0
6, 40559, Note_on_c, 1, 81, 0
6, 40560, Note_on_c, 1, 89, 76
6, 40560, Note_on_c, 1, 77, 76
6, 40619, Note_on_c, 1, 89, 0
6, 40619, Note_on_c, 1, 77, 0
6, 40680, Note_on_c, 1, 81, 76
6, 40680, Note_on_c, 1, 77, 76
6, 40751, Note_on_c, 1, 81, 0
6, 40751, Note_on_c, 1, 77, 0
6, 40760, Note_on_c, 1, 81, 76
6, 40760, Note_on_c, 1, 77, 76
6, 40799, Note_on_c, 1, 81, 0
6, 40799, Note_on_c, 1, 77, 0
6, 40800, Note_on_c, 1, 84, 76
6, 40800, Note_on_c, 1, 81, 76
6, 40919, Note_on_c, 1, 84, 0
6, 40919, Note_on_c, 1, 81, 0
6, 40920, Note_on_c, 1, 81, 76
6, 40920, Note_on_c, 1, 77, 76
6, 40979, Note_on_c, 1, 81, 0
6, 40979, Note_on_c, 1, 77, 0
6, 41040, Note_on_c, 1, 81, 76
6, 41040, Note_on_c, 1, 84, 76
6, 41144, Note_on_c, 1, 81, 0
6, 41144, Note_on_c, 1, 84, 0
6, 41160, Note_on_c, 1, 89, 84
6, 41160, Note_on_c, 1, 77, 84
6, 42359, Note_on_c, 1, 89, 0
6, 42359, Note_on_c, 1, 77, 0
6, 42360, Note_on_c, 1, 79, 84
6, 42360, Note_on_c, 1, 91, 84
6, 42464, Note_on_c, 1, 79, 0
6, 42464, Note_on_c, 1, 91, 0
6, 42480, Note_on_c, 1, 79, 84
6, 42480, Note_on_c, 1, 91, 84
6, 42569, Note_on_c, 1, 79, 0
6, 42569, Note_on_c, 1, 91, 0
6, 42600, Note_on_c, 1, 91, 84
6, 42600, Note_on_c, 1, 79, 84
6, 43799, Note_on_c, 1, 91, 0
6, 43799, Note_on_c, 1, 79, 0
6, 43800, Note_on_c, 1, 93, 84
6, 43800, Note_on_c, 1, 81, 84
6, 43904, Note_on_c, 1, 93, 0
6, 43904, Note_on_c, 1, 81, 0
6, 43920, Note_on_c, 1, 81, 84
6, 43920, Note_on_c, 1, 93, 84
6, 44009, Note_on_c, 1, 81, 0
6, 44009, Note_on_c, 1, 93, 0
6, 44160, Note_on_c, 1, 81, 52
6, 44249, Note_on_c, 1, 81, 0
6, 44280, Note_on_c, 1, 82, 52
6, 44369, Note_on_c, 1, 82, 0
6, 44400, Note_on_c, 1, 84, 52
6, 44489, Note_on_c, 1, 84, 0
6, 44520, Note_on_c, 1, 84, 52
6, 44609, Note_on_c, 1, 84, 0
6, 44640, Note_on_c, 1, 86, 52
6, 44729, Note_on_c, 1, 86, 0
6, 44760, Note_on_c, 1, 88, 52
6, 44849, Note_on_c, 1, 88, 0
6, 44880, Note_on_c, 1, 88, 52
6, 44969, Note_on_c, 1, 88, 0
6, 45000, Note_on_c, 1, 89, 52
6, 45089, Note_on_c, 1, 89, 0
6, 45120, Note_on_c, 1, 91, 52
6, 45209, Note_on_c, 1, 91, 0
6, 45600, Note_on_c, 1, 82, 52
6, 45689, Note_on_c, 1, 82, 0
6, 45720, Note_on_c, 1, 84, 52
6, 45809, Note_on_c, 1, 84, 0
6, 45840, Note_on_c, 1, 86, 52
6, 45929, Note_on_c, 1, 86, 0
6, 45960, Note_on_c, 1, 86, 52
6, 46049, Note_on_c, 1, 86, 0
6, 46080, Note_on_c, 1, 88, 52
6, 46169, Note_on_c, 1, 88, 0
6, 46200, Note_on_c, 1, 89, 52
6, 46289, Note_on_c, 1, 89, 0
6, 46320, Note_on_c, 1, 89, 52
6, 46409, Note_on_c, 1, 89, 0
6, 46440, Note_on_c, 1, 91, 52
6, 46529, Note_on_c, 1, 91, 0
6, 46560, Note_on_c, 1, 93, 52
6, 46679, Note_on_c, 1, 93, 0
6, 50880, Note_on_c, 1, 84, 52
6, 50880, Note_on_c, 1, 79, 52
6, 50984, Note_on_c, 1, 84, 0
6, 50984, Note_on_c, 1, 79, 0
6, 51000, Note_on_c, 1, 79, 52
6, 51000, Note_on_c, 1, 84, 52
6, 51104, Note_on_c, 1, 79, 0
6, 51104, Note_on_c, 1, 84, 0
6, 51120, Note_on_c, 1, 79, 52
6, 51120, Note_on_c, 1, 84, 52
6, 51239, Note_on_c, 1, 79, 0
6, 51239, Note_on_c, 1, 84, 0
6, 51600, Note_on_c, 1, 79, 52
6, 51600, Note_on_c, 1, 84, 52
6, 51704, Note_on_c, 1, 79, 0
6, 51704, Note_on_c, 1, 84, 0
6, 51720, Note_on_c, 1, 84, 52
6, 51720, Note_on_c, 1, 79, 52
6, 51824, Note_on_c, 1, 84, 0
6, 51824, Note_on_c, 1, 79, 0
6, 51840, Note_on_c, 1, 84, 52
6, 51840, Note_on_c, 1, 79, 52
6, 51959, Note_on_c, 1, 84, 0
6, 51959, Note_on_c, 1, 79, 0
6, 52320, Note_on_c, 1, 84, 52
6, 52320, Note_on_c, 1, 79, 52
6, 52424, Note_on_c, 1, 84, 0
6, 52424, Note_on_c, 1, 79, 0
6, 52440, Note_on_c, 1, 79, 52
6, 52440, Note_on_c, 1, 84, 52
6, 52544, Note_on_c, 1, 79, 0
6, 52544, Note_on_c, 1, 84, 0
6, 52560, Note_on_c, 1, 79, 52
6, 52560, Note_on_c, 1, 84, 52
6, 52679, Note_on_c, 1, 79, 0
6, 52679, Note_on_c, 1, 84, 0
6, 53040, Note_on_c, 1, 79, 52
6, 53040, Note_on_c, 1, 84, 52
6, 53144, Note_on_c, 1, 79, 0
6, 53144, Note_on_c, 1, 84, 0
6, 53160, Note_on_c, 1, 84, 52
6, 53160, Note_on_c, 1, 79, 52
6, 53264, Note_on_c, 1, 84, 0
6, 53264, Note_on_c, 1, 79, 0
6, 53280, Note_on_c, 1, 79, 52
6, 53280, Note_on_c, 1, 84, 52
6, 53384, Note_on_c, 1, 79, 0
6, 53384, Note_on_c, 1, 84, 0
6, 53400, Note_on_c, 1, 88, 84
6, 53444, Note_on_c, 1, 88, 0
6, 53445, Note_on_c, 1, 89, 84
6, 53489, Note_on_c, 1, 89, 0
6, 53490, Note_on_c, 1, 88, 84
6, 53520, Note_on_c, 1, 79, 84
6, 53534, Note_on_c, 1, 88, 0
6, 53535, Note_on_c, 1, 89, 84
6, 53579, Note_on_c, 1, 89, 0
6, 53580, Note_on_c, 1, 88, 84
6, 53624, Note_on_c, 1, 79, 0
6, 53624, Note_on_c, 1, 88, 0
6, 53625, Note_on_c, 1, 89, 84
6, 53640, Note_on_c, 1, 79, 84
6, 53669, Note_on_c, 1, 89, 0
6, 53670, Note_on_c, 1, 86, 84
6, 53714, Note_on_c, 1, 86, 0
6, 53715, Note_on_c, 1, 88, 84
6, 53744, Note_on_c, 1, 79, 0
6, 53759, Note_on_c, 1, 88, 0
6, 53760, Note_on_c, 1, 81, 84
6, 53760, Note_on_c, 1, 89, 84
6, 53864, Note_on_c, 1, 81, 0
6, 53864, Note_on_c, 1, 89, 0
6, 53880, Note_on_c, 1, 81, 84
6, 53880, Note_on_c, 1, 84, 84
6, 53984, Note_on_c, 1, 81, 0
6, 53984, Note_on_c, 1, 84, 0
6, 54000, Note_on_c, 1, 77, 84
6, 54000, Note_on_c, 1, 81, 84
6, 54104, Note_on_c, 1, 77, 0
6, 54104, Note_on_c, 1, 81, 0
6, 54120, Note_on_c, 1, 82, 84
6, 54164, Note_on_c, 1, 82, 0
6, 54165, Note_on_c, 1, 84, 84
6, 54209, Note_on_c, 1, 84, 0
6, 54210, Note_on_c, 1, 82, 84
6, 54240, Note_on_c, 1, 76, 84
6, 54254, Note_on_c, 1, 82, 0
6, 54255, Note_on_c, 1, 84, 84
6, 54299, Note_on_c, 1, 84, 0
6, 54300, Note_on_c, 1, 82, 84
6, 54344, Note_on_c, 1, 76, 0
6, 54344, Note_on_c, 1, 82, 0
6, 54345, Note_on_c, 1, 84, 84
6, 54360, Note_on_c, 1, 76, 84
6, 54389, Note_on_c, 1, 84, 0
6, 54390, Note_on_c, 1, 81, 84
6, 54434, Note_on_c, 1, 81, 0
6, 54435, Note_on_c, 1, 82, 84
6, 54464, Note_on_c, 1, 76, 0
6, 54479, Note_on_c, 1, 82, 0
6, 54480, Note_on_c, 1, 77, 84
6, 54480, Note_on_c, 1, 81, 84
6, 54584, Note_on_c, 1, 77, 0
6, 54584, Note_on_c, 1, 81, 0
6, 54600, Note_on_c, 1, 84, 84
6, 54600, Note_on_c, 1, 81, 84
6, 54704, Note_on_c, 1, 84, 0
6, 54704, Note_on_c, 1, 81, 0
6, 54720, Note_on_c, 1, 81, 84
6, 54720, Note_on_c, 1, 89, 84
6, 54824, Note_on_c, 1, 81, 0
6, 54824, Note_on_c, 1, 89, 0
6, 54840, Note_on_c, 1, 88, 84
6, 54884, Note_on_c, 1, 88, 0
6, 54885, Note_on_c, 1, 89, 84
6, 54929, Note_on_c, 1, 89, 0
6, 54930, Note_on_c, 1, 88, 84
6, 54960, Note_on_c, 1, 79, 84
6, 54974, Note_on_c, 1, 88, 0
6, 54975, Note_on_c, 1, 89, 84
6, 55019, Note_on_c, 1, 89, 0
6, 55020, Note_on_c, 1, 88, 84
6, 55064, Note_on_c, 1, 79, 0
6, 55064, Note_on_c, 1, 88, 0
6, 55065, Note_on_c, 1, 89, 84
6, 55080, Note_on_c, 1, 79, 84
6, 55109, Note_on_c, 1, 89, 0
6, 55110, Note_on_c, 1, 86, 84
6, 55154, Note_on_c, 1, 86, 0
6, 55155, Note_on_c, 1, 88, 84
6, 55184, Note_on_c, 1, 79, 0
6, 55199, Note_on_c, 1, 88, 0
6, 55200, Note_on_c, 1, 89, 84
6, 55200, Note_on_c, 1, 81, 84
6, 55304, Note_on_c, 1, 89, 0
6, 55304, Note_on_c, 1, 81, 0
6, 55320, Note_on_c, 1, 84, 84
6, 55320, Note_on_c, 1, 81, 84
6, 55424, Note_on_c, 1, 84, 0
6, 55424, Note_on_c, 1, 81, 0
6, 55440, Note_on_c, 1, 77, 84
6, 55440, Note_on_c, 1, 81, 84
6, 55544, Note_on_c, 1, 77, 0
6, 55544, Note_on_c, 1, 81, 0
6, 55560, Note_on_c, 1, 88, 84
6, 55604, Note_on_c, 1, 88, 0
6, 55605, Note_on_c, 1, 89, 84
6, 55649, Note_on_c, 1, 89, 0
6, 55650, Note_on_c, 1, 88, 84
6, 55680, Note_on_c, 1, 79, 84
6, 55694, Note_on_c, 1, 88, 0
6, 55695, Note_on_c, 1, 89, 84
6, 55739, Note_on_c, 1, 89, 0
6, 55740, Note_on_c, 1, 88, 84
6, 55784, Note_on_c, 1, 79, 0
6, 55784, Note_on_c, 1, 88, 0
6, 55785, Note_on_c, 1, 89, 84
6, 55800, Note_on_c, 1, 79, 84
6, 55829, Note_on_c, 1, 89, 0
6, 55830, Note_on_c, 1, 86, 84
6, 55874, Note_on_c, 1, 86, 0
6, 55875, Note_on_c, 1, 88, 84
6, 55904, Note_on_c, 1, 79, 0
6, 55919, Note_on_c, 1, 88, 0
6, 55920, Note_on_c, 1, 89, 84
6, 55920, Note_on_c, 1, 81, 84
6, 56024, Note_on_c, 1, 89, 0
6, 56024, Note_on_c, 1, 81, 0
6, 56040, Note_on_c, 1, 84, 84
6, 56040, Note_on_c, 1, 81, 84
6, 56144, Note_on_c, 1, 84, 0
6, 56144, Note_on_c, 1, 81, 0
6, 56160, Note_on_c, 1, 77, 84
6, 56160, Note_on_c, 1, 81, 84
6, 56264, Note_on_c, 1, 77, 0
6, 56264, Note_on_c, 1, 81, 0
6, 56280, Note_on_c, 1, 88, 84
6, 56324, Note_on_c, 1, 88, 0
6, 56325, Note_on_c, 1, 89, 84
6, 56369, Note_on_c, 1, 89, 0
6, 56370, Note_on_c, 1, 88, 84
6, 56400, Note_on_c, 1, 79, 84
6, 56414, Note_on_c, 1, 88, 0
6, 56415, Note_on_c, 1, 89, 84
6, 56459, Note_on_c, 1, 89, 0
6, 56460, Note_on_c, 1, 88, 84
6, 56504, Note_on_c, 1, 79, 0
6, 56504, Note_on_c, 1, 88, 0
6, 56505, Note_on_c, 1, 89, 84
6, 56520, Note_on_c, 1, 79, 84
6, 56549, Note_on_c, 1, 89, 0
6, 56550, Note_on_c, 1, 86, 84
6, 56594, Note_on_c, 1, 86, 0
6, 56595, Note_on_c, 1, 88, 84
6, 56624, Note_on_c, 1, 79, 0
6, 56639, Note_on_c, 1, 88, 0
6, 56640, Note_on_c, 1, 81, 84
6, 56640, Note_on_c, 1, 89, 84
6, 56744, Note_on_c, 1, 81, 0
6, 56744, Note_on_c, 1, 89, 0
6, 56760, Note_on_c, 1, 84, 84
6, 56864, Note_on_c, 1, 84, 0
6, 56880, Note_on_c, 1, 81, 84
6, 56984, Note_on_c, 1, 81, 0
6, 57000, Note_on_c, 1, 77, 84
6, 57104, Note_on_c, 1, 77, 0
6, 57120, Note_on_c, 1, 72, 84
6, 57224, Note_on_c, 1, 72, 0
6, 57240, Note_on_c, 1, 69, 84
6, 57344, Note_on_c, 1, 69, 0
6, 57360, Note_on_c, 1, 77, 84
6, 57479, Note_on_c, 1, 77, 0
6, 59040, Note_on_c, 1, 77, 84
6, 59040, Note_on_c, 1, 89, 84
6, 59111, Note_on_c, 1, 77, 0
6, 59111, Note_on_c, 1, 89, 0
6, 59120, Note_on_c, 1, 89, 84
6, 59120, Note_on_c, 1, 77, 84
6, 59159, Note_on_c, 1, 89, 0
6, 59159, Note_on_c, 1, 77, 0
6, 59160, Note_on_c, 1, 81, 92
6, 59160, Note_on_c, 1, 93, 92
6, 59279, Note_on_c, 1, 81, 0
6, 59279, Note_on_c, 1, 93, 0
6, 59280, Note_on_c, 1, 77, 84
6, 59280, Note_on_c, 1, 89, 84
6, 59339, Note_on_c, 1, 77, 0
6, 59339, Note_on_c, 1, 89, 0
6, 59400, Note_on_c, 1, 77, 84
6, 59400, Note_on_c, 1, 89, 84
6, 59471, Note_on_c, 1, 77, 0
6, 59471, Note_on_c, 1, 89, 0
6, 59480, Note_on_c, 1, 89, 84
6, 59480, Note_on_c, 1, 77, 84
6, 59519, Note_on_c, 1, 89, 0
6, 59519, Note_on_c, 1, 77, 0
6, 59520, Note_on_c, 1, 81, 92
6, 59520, Note_on_c, 1, 93, 92
6, 59639, Note_on_c, 1, 81, 0
6, 59639, Note_on_c, 1, 93, 0
6, 59640, Note_on_c, 1, 77, 84
6, 59640, Note_on_c, 1, 89, 84
6, 59744, Note_on_c, 1, 77, 0
6, 59744, Note_on_c, 1, 89, 0
6, 59760, Note_on_c, 1, 77, 84
6, 59760, Note_on_c, 1, 89, 84
6, 59831, Note_on_c, 1, 77, 0
6, 59831, Note_on_c, 1, 89, 0
6, 59840, Note_on_c, 1, 77, 84
6, 59840, Note_on_c, 1, 89, 84
6, 59879, Note_on_c, 1, 77, 0
6, 59879, Note_on_c, 1, 89, 0
6, 59880, Note_on_c, 1, 81, 92
6, 59880, Note_on_c, 1, 93, 92
6, 59999, Note_on_c, 1, 81, 0
6, 59999, Note_on_c, 1, 93, 0
6, 60000, Note_on_c, 1, 77, 84
6, 60000, Note_on_c, 1, 89, 84
6, 60104, Note_on_c, 1, 77, 0
6, 60104, Note_on_c, 1, 89, 0
6, 60120, Note_on_c, 1, 89, 84
6, 60120, Note_on_c, 1, 77, 84
6, 60191, Note_on_c, 1, 89, 0
6, 60191, Note_on_c, 1, 77, 0
6, 60200, Note_on_c, 1, 77, 84
6, 60200, Note_on_c, 1, 89, 84
6, 60239, Note_on_c, 1, 77, 0
6, 60239, Note_on_c, 1, 89, 0
6, 60240, Note_on_c, 1, 93, 92
6, 60240, Note_on_c, 1, 81, 92
6, 60359, Note_on_c, 1, 93, 0
6, 60359, Note_on_c, 1, 81, 0
6, 60360, Note_on_c, 1, 77, 84
6, 60360, Note_on_c, 1, 89, 84
6, 60464, Note_on_c, 1, 77, 0
6, 60464, Note_on_c, 1, 89, 0
6, 60480, Note_on_c, 1, 77, 84
6, 60480, Note_on_c, 1, 89, 84
6, 60569, Note_on_c, 1, 77, 0
6, 60569, Note_on_c, 1, 89, 0
6, 60600, Note_on_c, 1, 81, 84
6, 60600, Note_on_c, 1, 93, 84
6, 61904, Note_on_c, 1, 81, 0
6, 61904, Note_on_c, 1, 93, 0
6, 63360, Note_on_c, 1, 81, 52
6, 63449, Note_on_c, 1, 81, 0
6, 63480, Note_on_c, 1, 83, 52
6, 63569, Note_on_c, 1, 83, 0
6, 63600, Note_on_c, 1, 83, 52
6, 63689, Note_on_c, 1, 83, 0
6, 63720, Note_on_c, 1, 81, 52
6, 63809, Note_on_c, 1, 81, 0
6, 63840, Note_on_c, 1, 86, 52
6, 64079, Note_on_c, 1, 86, 0
6, 64080, Note_on_c, 1, 85, 52
6, 64184, Note_on_c, 1, 85, 0
6, 64200, Note_on_c, 1, 83, 52
6, 64289, Note_on_c, 1, 83, 0
6, 64320, Note_on_c, 1, 83, 52
6, 64409, Note_on_c, 1, 83, 0
6, 64440, Note_on_c, 1, 81, 52
6, 64529, Note_on_c, 1, 81, 0
6, 64560, Note_on_c, 1, 86, 52
6, 64799, Note_on_c, 1, 86, 0
6, 64800, Note_on_c, 1, 85, 52
6, 64904, Note_on_c, 1, 85, 0
6, 64920, Note_on_c, 1, 86, 44
6, 65159, Note_on_c, 1, 86, 0
6, 65160, Note_on_c, 1, 85, 44
6, 65264, Note_on_c, 1, 85, 0
6, 65280, Note_on_c, 1, 86, 44
6, 65519, Note_on_c, 1, 86, 0
6, 65520, Note_on_c, 1, 85, 44
6, 65624, Note_on_c, 1, 85, 0
6, 65640, Note_on_c, 1, 86, 44
6, 65879, Note_on_c, 1, 86, 0
6, 65880, Note_on_c, 1, 85, 44
6, 65984, Note_on_c, 1, 85, 0
6, 66000, Note_on_c, 1, 86, 44
6, 66239, Note_on_c, 1, 86, 0
6, 66240, Note_on_c, 1, 85, 44
6, 66359, Note_on_c, 1, 85, 0
6, 68760, Note_on_c, 1, 86, 84
6, 68760, Note_on_c, 1, 89, 84
6, 68864, Note_on_c, 1, 86, 0
6, 68864, Note_on_c, 1, 89, 0
6, 68880, Note_on_c, 1, 89, 84
6, 68880, Note_on_c, 1, 86, 84
6, 68999, Note_on_c, 1, 89, 0
6, 68999, Note_on_c, 1, 86, 0
6, 69120, Note_on_c, 1, 84, 52
6, 69209, Note_on_c, 1, 84, 0
6, 69240, Note_on_c, 1, 86, 52
6, 69329, Note_on_c, 1, 86, 0
6, 69360, Note_on_c, 1, 86, 52
6, 69449, Note_on_c, 1, 86, 0
6, 69480, Note_on_c, 1, 84, 52
6, 69569, Note_on_c, 1, 84, 0
6, 69600, Note_on_c, 1, 89, 52
6, 69839, Note_on_c, 1, 89, 0
6, 69840, Note_on_c, 1, 88, 52
6, 69944, Note_on_c, 1, 88, 0
6, 69960, Note_on_c, 1, 86, 52
6, 70049, Note_on_c, 1, 86, 0
6, 70080, Note_on_c, 1, 86, 52
6, 70169, Note_on_c, 1, 86, 0
6, 70200, Note_on_c, 1, 84, 52
6, 70289, Note_on_c, 1, 84, 0
6, 70320, Note_on_c, 1, 89, 52
6, 70559, Note_on_c, 1, 89, 0
6, 70560, Note_on_c, 1, 88, 52
6, 70664, Note_on_c, 1, 88, 0
6, 70680, Note_on_c, 1, 89, 44
6, 70919, Note_on_c, 1, 89, 0
6, 70920, Note_on_c, 1, 88, 44
6, 71024, Note_on_c, 1, 88, 0
6, 71040, Note_on_c, 1, 89, 44
6, 71279, Note_on_c, 1, 89, 0
6, 71280, Note_on_c, 1, 88, 44
6, 71384, Note_on_c, 1, 88, 0
6, 71400, Note_on_c, 1, 89, 44
6, 71639, Note_on_c, 1, 89, 0
6, 71640, Note_on_c, 1, 88, 44
6, 71744, Note_on_c, 1, 88, 0
6, 71760, Note_on_c, 1, 89, 44
6, 71999, Note_on_c, 1, 89, 0
6, 72000, Note_on_c, 1, 88, 44
6, 72119, Note_on_c, 1, 88, 0
6, 79680, Note_on_c, 1, 82, 52
6, 79769, Note_on_c, 1, 82, 0
6, 79800, Note_on_c, 1, 82, 52
6, 79889, Note_on_c, 1, 82, 0
6, 79920, Note_on_c, 1, 81, 53
6, 80009, Note_on_c, 1, 81, 0
6, 80040, Note_on_c, 1, 79, 53
6, 80129, Note_on_c, 1, 79, 0
6, 80160, Note_on_c, 1, 79, 54
6, 80249, Note_on_c, 1, 79, 0
6, 80280, Note_on_c, 1, 77, 54
6, 80369, Note_on_c, 1, 77, 0
6, 80400, Note_on_c, 1, 75, 55
6, 80489, Note_on_c, 1, 75, 0
6, 80520, Note_on_c, 1, 75, 56
6, 80609, Note_on_c, 1, 75, 0
6, 80640, Note_on_c, 1, 74, 56
6, 80729, Note_on_c, 1, 74, 0
6, 80760, Note_on_c, 1, 72, 57
6, 80849, Note_on_c, 1, 72, 0
6, 81120, Note_on_c, 1, 84, 58
6, 81209, Note_on_c, 1, 84, 0
6, 81240, Note_on_c, 1, 84, 59
6, 81329, Note_on_c, 1, 84, 0
6, 81360, Note_on_c, 1, 82, 60
6, 81449, Note_on_c, 1, 82, 0
6, 81480, Note_on_c, 1, 81, 60
6, 81569, Note_on_c, 1, 81, 0
6, 81600, Note_on_c, 1, 81, 61
6, 81689, Note_on_c, 1, 81, 0
6, 81720, Note_on_c, 1, 79, 61
6, 81809, Note_on_c, 1, 79, 0
6, 81840, Note_on_c, 1, 77, 62
6, 81929, Note_on_c, 1, 77, 0
6, 81960, Note_on_c, 1, 77, 62
6, 82049, Note_on_c, 1, 77, 0
6, 82080, Note_on_c, 1, 75, 63
6, 82169, Note_on_c, 1, 75, 0
6, 82200, Note_on_c, 1, 74, 64
6, 82319, Note_on_c, 1, 74, 0
6, 84960, Note_on_c, 1, 89, 76
6, 84960, Note_on_c, 1, 77, 76
6, 85031, Note_on_c, 1, 89, 0
6, 85031, Note_on_c, 1, 77, 0
6, 85040, Note_on_c, 1, 77, 76
6, 85040, Note_on_c, 1, 89, 76
6, 85079, Note_on_c, 1, 77, 0
6, 85079, Note_on_c, 1, 89, 0
6, 85080, Note_on_c, 1, 93, 76
6, 85080, Note_on_c, 1, 81, 76
6, 85199, Note_on_c, 1, 93, 0
6, 85199, Note_on_c, 1, 81, 0
6, 85200, Note_on_c, 1, 89, 76
6, 85200, Note_on_c, 1, 77, 76
6, 85259, Note_on_c, 1, 89, 0
6, 85259, Note_on_c, 1, 77, 0
6, 85320, Note_on_c, 1, 77, 76
6, 85320, Note_on_c, 1, 81, 76
6, 85391, Note_on_c, 1, 77, 0
6, 85391, Note_on_c, 1, 81, 0
6, 85400, Note_on_c, 1, 81, 76
6, 85400, Note_on_c, 1, 77, 76
6, 85439, Note_on_c, 1, 81, 0
6, 85439, Note_on_c, 1, 77, 0
6, 85440, Note_on_c, 1, 81, 76
6, 85440, Note_on_c, 1, 84, 76
6, 85559, Note_on_c, 1, 81, 0
6, 85559, Note_on_c, 1, 84, 0
6, 85560, Note_on_c, 1, 77, 76
6, 85560, Note_on_c, 1, 81, 76
6, 85619, Note_on_c, 1, 77, 0
6, 85619, Note_on_c, 1, 81, 0
6, 85680, Note_on_c, 1, 84, 76
6, 85680, Note_on_c, 1, 81, 76
6, 85784, Note_on_c, 1, 84, 0
6, 85784, Note_on_c, 1, 81, 0
6, 85800, Note_on_c, 1, 89, 84
6, 85800, Note_on_c, 1, 77, 84
6, 86999, Note_on_c, 1, 89, 0
6, 86999, Note_on_c, 1, 77, 0
6, 87000, Note_on_c, 1, 79, 84
6, 87000, Note_on_c, 1, 91, 84
6, 87104, Note_on_c, 1, 79, 0
6, 87104, Note_on_c, 1, 91, 0
6, 87120, Note_on_c, 1, 91, 84
6, 87120, Note_on_c, 1, 79, 84
6, 87209, Note_on_c, 1, 91, 0
6, 87209, Note_on_c, 1, 79, 0
6, 87240, Note_on_c, 1, 79, 84
6, 87240, Note_on_c, 1, 91, 84
6, 88439, Note_on_c, 1, 79, 0
6, 88439, Note_on_c, 1, 91, 0
6, 88440, Note_on_c, 1, 81, 84
6, 88440, Note_on_c, 1, 93, 84
6, 88544, Note_on_c, 1, 81, 0
6, 88544, Note_on_c, 1, 93, 0
6, 88560, Note_on_c, 1, 81, 84
6, 88560, Note_on_c, 1, 93, 84
6, 88649, Note_on_c, 1, 81, 0
6, 88649, Note_on_c, 1, 93, 0
6, 88800, Note_on_c, 1, 81, 52
6, 88889, Note_on_c, 1, 81, 0
6, 88920, Note_on_c, 1, 82, 52
6, 89009, Note_on_c, 1, 82, 0
6, 89040, Note_on_c, 1, 84, 52
6, 89129, Note_on_c, 1, 84, 0
6, 89160, Note_on_c, 1, 84, 52
6, 89249, Note_on_c, 1, 84, 0
6, 89280, Note_on_c, 1, 86, 52
6, 89369, Note_on_c, 1, 86, 0
6, 89400, Note_on_c, 1, 88, 52
6, 89489, Note_on_c, 1, 88, 0
6, 89520, Note_on_c, 1, 88, 52
6, 89609, Note_on_c, 1, 88, 0
6, 89640, Note_on_c, 1, 89, 52
6, 89729, Note_on_c, 1, 89, 0
6, 89760, Note_on_c, 1, 91, 52
6, 89849, Note_on_c, 1, 91, 0
6, 90240, Note_on_c, 1, 82, 52
6, 90329, Note_on_c, 1, 82, 0
6, 90360, Note_on_c, 1, 84, 52
6, 90449, Note_on_c, 1, 84, 0
6, 90480, Note_on_c, 1, 86, 52
6, 90569, Note_on_c, 1, 86, 0
6, 90600, Note_on_c, 1, 86, 52
6, 90689, Note_on_c, 1, 86, 0
6, 90720, Note_on_c, 1, 88, 52
6, 90809, Note_on_c, 1, 88, 0
6, 90840, Note_on_c, 1, 89, 52
6, 90929, Note_on_c, 1, 89, 0
6, 90960, Note_on_c, 1, 89, 52
6, 91049, Note_on_c, 1, 89, 0
6, 91080, Note_on_c, 1, 91, 52
6, 91169, Note_on_c, 1, 91, 0
6, 91200, Note_on_c, 1, 93, 52
6, 91319, Note_on_c, 1, 93, 0
6, 95520, Note_on_c, 1, 79, 52
6, 95520, Note_on_c, 1, 84, 52
6, 95624, Note_on_c, 1, 79, 0
6, 95624, Note_on_c, 1, 84, 0
6, 95640, Note_on_c, 1, 84, 52
6, 95640, Note_on_c, 1, 79, 52
6, 95744, Note_on_c, 1, 84, 0
6, 95744, Note_on_c, 1, 79, 0
6, 95760, Note_on_c, 1, 84, 52
6, 95760, Note_on_c, 1, 79, 52
6, 95879, Note_on_c, 1, 84, 0
6, 95879, Note_on_c, 1, 79, 0
6, 96240, Note_on_c, 1, 84, 52
6, 96240, Note_on_c, 1, 79, 52
6, 96344, Note_on_c, 1, 84, 0
6, 96344, Note_on_c, 1, 79, 0
6, 96360, Note_on_c, 1, 84, 52
6, 96360, Note_on_c, 1, 79, 52
6, 96464, Note_on_c, 1, 84, 0
6, 96464, Note_on_c, 1, 79, 0
6, 96480, Note_on_c, 1, 84, 52
6, 96480, Note_on_c, 1, 79, 52
6, 96599, Note_on_c, 1, 84, 0
6, 96599, Note_on_c, 1, 79, 0
6, 96960, Note_on_c, 1, 79, 52
6, 96960, Note_on_c, 1, 84, 52
6, 97064, Note_on_c, 1, 79, 0
6, 97064, Note_on_c, 1, 84, 0
6, 97080, Note_on_c, 1, 84, 52
6, 97080, Note_on_c, 1, 79, 52
6, 97184, Note_on_c, 1, 84, 0
6, 97184, Note_on_c, 1, 79, 0
6, 97200, Note_on_c, 1, 84, 52
6, 97200, Note_on_c, 1, 79, 52
6, 97319, Note_on_c, 1, 84, 0
6, 97319, Note_on_c, 1, 79, 0
6, 97680, Note_on_c, 1, 79, 52
6, 97680, Note_on_c, 1, 84, 52
6, 97784, Note_on_c, 1, 79, 0
6, 97784, Note_on_c, 1, 84, 0
6, 97800, Note_on_c, 1, 79, 52
6, 97800, Note_on_c, 1, 84, 52
6, 97904, Note_on_c, 1, 79, 0
6, 97904, Note_on_c, 1, 84, 0
6, 97920, Note_on_c, 1, 84, 52
6, 97920, Note_on_c, 1, 79, 52
6, 98024, Note_on_c, 1, 84, 0
6, 98024, Note_on_c, 1, 79, 0
6, 98040, Note_on_c, 1, 88, 84
6, 98084, Note_on_c, 1, 88, 0
6, 98085, Note_on_c, 1, 89, 84
6, 98129, Note_on_c, 1, 89, 0
6, 98130, Note_on_c, 1, 88, 84
6, 98160, Note_on_c, 1, 79, 84
6, 98174, Note_on_c, 1, 88, 0
6, 98175, Note_on_c, 1, 89, 84
6, 98219, Note_on_c, 1, 89, 0
6, 98220, Note_on_c, 1, 88, 84
6, 98264, Note_on_c, 1, 79, 0
6, 98264, Note_on_c, 1, 88, 0
6, 98265, Note_on_c, 1, 89, 84
6, 98280, Note_on_c, 1, 79, 84
6, 98309, Note_on_c, 1, 89, 0
6, 98310, Note_on_c, 1, 86, 84
6, 98354, Note_on_c, 1, 86, 0
6, 98355, Note_on_c, 1, 88, 84
6, 98384, Note_on_c, 1, 79, 0
6, 98399, Note_on_c, 1, 88, 0
6, 98400, Note_on_c, 1, 81, 84
6, 98400, Note_on_c, 1, 89, 84
6, 98504, Note_on_c, 1, 81, 0
6, 98504, Note_on_c, 1, 89, 0
6, 98520, Note_on_c, 1, 81, 84
6, 98520, Note_on_c, 1, 84, 84
6, 98624, Note_on_c, 1, 81, 0
6, 98624, Note_on_c, 1, 84, 0
6, 98640, Note_on_c, 1, 81, 84
6, 98640, Note_on_c, 1, 77, 84
6, 98744, Note_on_c, 1, 81, 0
6, 98744, Note_on_c, 1, 77, 0
6, 98760, Note_on_c, 1, 82, 84
6, 98804, Note_on_c, 1, 82, 0
6, 98805, Note_on_c, 1, 84, 84
6, 98849, Note_on_c, 1, 84, 0
6, 98850, Note_on_c, 1, 82, 84
6, 98880, Note_on_c, 1, 76, 84
6, 98894, Note_on_c, 1, 82, 0
6, 98895, Note_on_c, 1, 84, 84
6, 98939, Note_on_c, 1, 84, 0
6, 98940, Note_on_c, 1, 82, 84
6, 98984, Note_on_c, 1, 76, 0
6, 98984, Note_on_c, 1, 82, 0
6, 98985, Note_on_c, 1, 84, 84
6, 99000, Note_on_c, 1, 76, 84
6, 99029, Note_on_c, 1, 84, 0
6, 99030, Note_on_c, 1, 81, 84
6, 99074, Note_on_c, 1, 81, 0
6, 99075, Note_on_c, 1, 82, 84
6, 99104, Note_on_c, 1, 76, 0
6, 99119, Note_on_c, 1, 82, 0
6, 99120, Note_on_c, 1, 77, 84
6, 99120, Note_on_c, 1, 81, 84
6, 99224, Note_on_c, 1, 77, 0
6, 99224, Note_on_c, 1, 81, 0
6, 99240, Note_on_c, 1, 84, 84
6, 99240, Note_on_c, 1, 81, 84
6, 99344, Note_on_c, 1, 84, 0
6, 99344, Note_on_c, 1, 81, 0
6, 99360, Note_on_c, 1, 89, 84
6, 99360, Note_on_c, 1, 81, 84
6, 99464, Note_on_c, 1, 89, 0
6, 99464, Note_on_c, 1, 81, 0
6, 99480, Note_on_c, 1, 88, 84
6, 99524, Note_on_c, 1, 88, 0
6, 99525, Note_on_c, 1, 89, 84
6, 99569, Note_on_c, 1, 89, 0
6, 99570, Note_on_c, 1, 88, 84
6, 99600, Note_on_c, 1, 79, 84
6, 99614, Note_on_c, 1, 88, 0
6, 99615, Note_on_c, 1, 89, 84
6, 99659, Note_on_c, 1, 89, 0
6, 99660, Note_on_c, 1, 88, 84
6, 99704, Note_on_c, 1, 79, 0
6, 99704, Note_on_c, 1, 88, 0
6, 99705, Note_on_c, 1, 89, 84
6, 99720, Note_on_c, 1, 79, 84
6, 99749, Note_on_c, 1, 89, 0
6, 99750, Note_on_c, 1, 86, 84
6, 99794, Note_on_c, 1, 86, 0
6, 99795, Note_on_c, 1, 88, 84
6, 99824, Note_on_c, 1, 79, 0
6, 99839, Note_on_c, 1, 88, 0
6, 99840, Note_on_c, 1, 89, 84
6, 99840, Note_on_c, 1, 81, 84
6, 99944, Note_on_c, 1, 89, 0
6, 99944, Note_on_c, 1, 81, 0
6, 99960, Note_on_c, 1, 84, 84
6, 99960, Note_on_c, 1, 81, 84
6, 100064, Note_on_c, 1, 84, 0
6, 100064, Note_on_c, 1, 81, 0
6, 100080, Note_on_c, 1, 81, 84
6, 100080, Note_on_c, 1, 77, 84
6, 100184, Note_on_c, 1, 81, 0
6, 100184, Note_on_c, 1, 77, 0
6, 100200, Note_on_c, 1, 88, 84
6, 100244, Note_on_c, 1, 88, 0
6, 100245, Note_on_c, 1, 89, 84
6, 100289, Note_on_c, 1, 89, 0
6, 100290, Note_on_c, 1, 88, 84
6, 100320, Note_on_c, 1, 79, 84
6, 100334, Note_on_c, 1, 88, 0
6, 100335, Note_on_c, 1, 89, 84
6, 100379, Note_on_c, 1, 89, 0
6, 100380, Note_on_c, 1, 88, 84
6, 100424, Note_on_c, 1, 79, 0
6, 100424, Note_on_c, 1, 88, 0
6, 100425, Note_on_c, 1, 89, 84
6, 100440, Note_on_c, 1, 79, 84
6, 100469, Note_on_c, 1, 89, 0
6, 100470, Note_on_c, 1, 86, 84
6, 100514, Note_on_c, 1, 86, 0
6, 100515, Note_on_c, 1, 88, 84
6, 100544, Note_on_c, 1, 79, 0
6, 100559, Note_on_c, 1, 88, 0
6, 100560, Note_on_c, 1, 81, 84
6, 100560, Note_on_c, 1, 89, 84
6, 100664, Note_on_c, 1, 81, 0
6, 100664, Note_on_c, 1, 89, 0
6, 100680, Note_on_c, 1, 84, 84
6, 100680, Note_on_c, 1, 81, 84
6, 100784, Note_on_c, 1, 84, 0
6, 100784, Note_on_c, 1, 81, 0
6, 100800, Note_on_c, 1, 81, 84
6, 100800, Note_on_c, 1, 77, 84
6, 100904, Note_on_c, 1, 81, 0
6, 100904, Note_on_c, 1, 77, 0
6, 100920, Note_on_c, 1, 88, 84
6, 100964, Note_on_c, 1, 88, 0
6, 100965, Note_on_c, 1, 89, 84
6, 101009, Note_on_c, 1, 89, 0
6, 101010, Note_on_c, 1, 88, 84
6, 101040, Note_on_c, 1, 79, 84
6, 101054, Note_on_c, 1, 88, 0
6, 101055, Note_on_c, 1, 89, 84
6, 101099, Note_on_c, 1, 89, 0
6, 101100, Note_on_c, 1, 88, 84
6, 101144, Note_on_c, 1, 79, 0
6, 101144, Note_on_c, 1, 88, 0
6, 101145, Note_on_c, 1, 89, 84
6, 101160, Note_on_c, 1, 79, 84
6, 101189, Note_on_c, 1, 89, 0
6, 101190, Note_on_c, 1, 86, 84
6, 101234, Note_on_c, 1, 86, 0
6, 101235, Note_on_c, 1, 88, 84
6, 101264, Note_on_c, 1, 79, 0
6, 101279, Note_on_c, 1, 88, 0
6, 101280, Note_on_c, 1, 81, 84
6, 101280, Note_on_c, 1, 89, 84
6, 101384, Note_on_c, 1, 81, 0
6, 101384, Note_on_c, 1, 89, 0
6, 101400, Note_on_c, 1, 84, 84
6, 101504, Note_on_c, 1, 84, 0
6, 101520, Note_on_c, 1, 81, 84
6, 101624, Note_on_c, 1, 81, 0
6, 101640, Note_on_c, 1, 77, 84
6, 101744, Note_on_c, 1, 77, 0
6, 101760, Note_on_c, 1, 72, 84
6, 101864, Note_on_c, 1, 72, 0
6, 101880, Note_on_c, 1, 69, 84
6, 101984, Note_on_c, 1, 69, 0
6, 102000, Note_on_c, 1, 77, 84
6, 102119, Note_on_c, 1, 77, 0
6, 103680, Note_on_c, 1, 77, 84
6, 103680, Note_on_c, 1, 89, 84
6, 103751, Note_on_c, 1, 77, 0
6, 103751, Note_on_c, 1, 89, 0
6, 103760, Note_on_c, 1, 89, 84
6, 103760, Note_on_c, 1, 77, 84
6, 103799, Note_on_c, 1, 89, 0
6, 103799, Note_on_c, 1, 77, 0
6, 103800, Note_on_c, 1, 81, 92
6, 103800, Note_on_c, 1, 93, 92
6, 103919, Note_on_c, 1, 81, 0
6, 103919, Note_on_c, 1, 93, 0
6, 103920, Note_on_c, 1, 77, 84
6, 103920, Note_on_c, 1, 89, 84
6, 103979, Note_on_c, 1, 77, 0
6, 103979, Note_on_c, 1, 89, 0
6, 104040, Note_on_c, 1, 89, 84
6, 104040, Note_on_c, 1, 77, 84
6, 104111, Note_on_c, 1, 89, 0
6, 104111, Note_on_c, 1, 77, 0
6, 104120, Note_on_c, 1, 89, 84
6, 104120, Note_on_c, 1, 77, 84
6, 104159, Note_on_c, 1, 89, 0
6, 104159, Note_on_c, 1, 77, 0
6, 104160, Note_on_c, 1, 93, 92
6, 104160, Note_on_c, 1, 81, 92
6, 104279, Note_on_c, 1, 93, 0
6, 104279, Note_on_c, 1, 81, 0
6, 104280, Note_on_c, 1, 77, 84
6, 104280, Note_on_c, 1, 89, 84
6, 104384, Note_on_c, 1, 77, 0
6, 104384, Note_on_c, 1, 89, 0
6, 104400, Note_on_c, 1, 77, 84
6, 104400, Note_on_c, 1, 89, 84
6, 104471, Note_on_c, 1, 77, 0
6, 104471, Note_on_c, 1, 89, 0
6, 104480, Note_on_c, 1, 77, 84
6, 104480, Note_on_c, 1, 89, 84
6, 104519, Note_on_c, 1, 77, 0
6, 104519, Note_on_c, 1, 89, 0
6, 104520, Note_on_c, 1, 81, 92
6, 104520, Note_on_c, 1, 93, 92
6, 104639, Note_on_c, 1, 81, 0
6, 104639, Note_on_c, 1, 93, 0
6, 104640, Note_on_c, 1, 89, 84
6, 104640, Note_on_c, 1, 77, 84
6, 104744, Note_on_c, 1, 89, 0
6, 104744, Note_on_c, 1, 77, 0
6, 104760, Note_on_c, 1, 77, 84
6, 104760, Note_on_c, 1, 89, 84
6, 104831, Note_on_c, 1, 77, 0
6, 104831, Note_on_c, 1, 89, 0
6, 104840, Note_on_c, 1, 77, 84
6, 104840, Note_on_c, 1, 89, 84
6, 104879, Note_on_c, 1, 77, 0
6, 104879, Note_on_c, 1, 89, 0
6, 104880, Note_on_c, 1, 93, 92
6, 104880, Note_on_c, 1, 81, 92
6, 104999, Note_on_c, 1, 93, 0
6, 104999, Note_on_c, 1, 81, 0
6, 105000, Note_on_c, 1, 89, 84
6, 105000, Note_on_c, 1, 77, 84
6, 105104, Note_on_c, 1, 89, 0
6, 105104, Note_on_c, 1, 77, 0
6, 105120, Note_on_c, 1, 77, 84
6, 105120, Note_on_c, 1, 89, 84
6, 105209, Note_on_c, 1, 77, 0
6, 105209, Note_on_c, 1, 89, 0
6, 105240, Control_c, 1, 11, 127
6, 105240, Note_on_c, 1, 93, 84
6, 105240, Note_on_c, 1, 81, 84
6, 105280, Control_c, 1, 11, 125
6, 105320, Control_c, 1, 11, 124
6, 105360, Control_c, 1, 11, 122
6, 105400, Control_c, 1, 11, 120
6, 105440, Control_c, 1, 11, 118
6, 105480, Control_c, 1, 11, 117
6, 105520, Control_c, 1, 11, 115
6, 105560, Control_c, 1, 11, 113
6, 105600, Control_c, 1, 11, 111
6, 105640, Control_c, 1, 11, 110
6, 105680, Control_c, 1, 11, 108
6, 105720, Control_c, 1, 11, 106
6, 105760, Control_c, 1, 11, 104
6, 105800, Control_c, 1, 11, 103
6, 105840, Control_c, 1, 11, 101
6, 105880, Control_c, 1, 11, 99
6, 105920, Control_c, 1, 11, 97
6, 105960, Control_c, 1, 11, 96
6, 106000, Control_c, 1, 11, 94
6, 106040, Control_c, 1, 11, 92
6, 106080, Control_c, 1, 11, 90
6, 106120, Control_c, 1, 11, 89
6, 106160, Control_c, 1, 11, 87
6, 106200, Control_c, 1, 11, 85
6, 106240, Control_c, 1, 11, 83
6, 106280, Control_c, 1, 11, 82
6, 106320, Control_c, 1, 11, 80
6, 106360, Control_c, 1, 11, 78
6, 106400, Control_c, 1, 11, 76
6, 106440, Control_c, 1, 11, 75
6, 106480, Control_c, 1, 11, 73
6, 106520, Control_c, 1, 11, 71
6, 106560, Control_c, 1, 11, 69
6, 106600, Control_c, 1, 11, 68
6, 106640, Control_c, 1, 11, 64
6, 106664, Note_on_c, 1, 93, 0
6, 106664, Note_on_c, 1, 81, 0
6, 106680, Note_on_c, 1, 86, 84
6, 106680, Note_on_c, 1, 74, 84
6, 106919, Note_on_c, 1, 86, 0
6, 106919, Note_on_c, 1, 74, 0
6, 118200, Control_c, 1, 11, 96
6, 118920, Note_on_c, 1, 86, 68
6, 118920, Control_c, 1, 11, 96
6, 118920, Note_on_c, 1, 74, 68
6, 118973, Control_c, 1, 11, 99
6, 119027, Control_c, 1, 11, 103
6, 119080, Control_c, 1, 11, 106
6, 119133, Control_c, 1, 11, 110
6, 119187, Control_c, 1, 11, 113
6, 119240, Control_c, 1, 11, 117
6, 119293, Control_c, 1, 11, 120
6, 119347, Control_c, 1, 11, 124
6, 119400, Control_c, 1, 11, 127
6, 119453, Control_c, 1, 11, 124
6, 119507, Control_c, 1, 11, 120
6, 119519, Note_on_c, 1, 86, 0
6, 119519, Note_on_c, 1, 74, 0
6, 119520, Note_on_c, 1, 85, 68
6, 119520, Note_on_c, 1, 73, 68
6, 119560, Control_c, 1, 11, 117
6, 119613, Control_c, 1, 11, 113
6, 119639, Note_on_c, 1, 85, 0
6, 119639, Note_on_c, 1, 73, 0
6, 119640, Note_on_c, 1, 86, 68
6, 119640, Note_on_c, 1, 74, 68
6, 119667, Control_c, 1, 11, 110
6, 119720, Control_c, 1, 11, 106
6, 119773, Control_c, 1, 11, 103
6, 119827, Control_c, 1, 11, 99
6, 119879, Note_on_c, 1, 86, 0
6, 119879, Note_on_c, 1, 74, 0
6, 119880, Control_c, 1, 11, 96
6, 120360, Note_on_c, 1, 74, 68
6, 120360, Note_on_c, 1, 86, 68
6, 120360, Control_c, 1, 11, 96
6, 120413, Control_c, 1, 11, 99
6, 120467, Control_c, 1, 11, 103
6, 120520, Control_c, 1, 11, 106
6, 120573, Control_c, 1, 11, 110
6, 120627, Control_c, 1, 11, 113
6, 120680, Control_c, 1, 11, 117
6, 120733, Control_c, 1, 11, 120
6, 120787, Control_c, 1, 11, 124
6, 120840, Control_c, 1, 11, 127
6, 120893, Control_c, 1, 11, 124
6, 120947, Control_c, 1, 11, 120
6, 120959, Note_on_c, 1, 74, 0
6, 120959, Note_on_c, 1, 86, 0
6, 120960, Note_on_c, 1, 73, 68
6, 120960, Note_on_c, 1, 85, 68
6, 121000, Control_c, 1, 11, 117
6, 121053, Control_c, 1, 11, 113
6, 121079, Note_on_c, 1, 73, 0
6, 121079, Note_on_c, 1, 85, 0
6, 121080, Note_on_c, 1, 74, 68
6, 121080, Note_on_c, 1, 86, 68
6, 121107, Control_c, 1, 11, 110
6, 121160, Control_c, 1, 11, 106
6, 121213, Control_c, 1, 11, 103
6, 121267, Control_c, 1, 11, 99
6, 121319, Note_on_c, 1, 74, 0
6, 121319, Note_on_c, 1, 86, 0
6, 121320, Control_c, 1, 11, 96
6, 124680, Note_on_c, 1, 88, 68
6, 124680, Control_c, 1, 11, 96
6, 124680, Note_on_c, 1, 76, 68
6, 124733, Control_c, 1, 11, 99
6, 124787, Control_c, 1, 11, 103
6, 124840, Control_c, 1, 11, 106
6, 124893, Control_c, 1, 11, 110
6, 124947, Control_c, 1, 11, 113
6, 125000, Control_c, 1, 11, 117
6, 125053, Control_c, 1, 11, 120
6, 125107, Control_c, 1, 11, 124
6, 125160, Control_c, 1, 11, 127
6, 125213, Control_c, 1, 11, 124
6, 125267, Control_c, 1, 11, 120
6, 125279, Note_on_c, 1, 88, 0
6, 125279, Note_on_c, 1, 76, 0
6, 125280, Note_on_c, 1, 75, 68
6, 125280, Note_on_c, 1, 87, 68
6, 125320, Control_c, 1, 11, 117
6, 125373, Control_c, 1, 11, 113
6, 125399, Note_on_c, 1, 75, 0
6, 125399, Note_on_c, 1, 87, 0
6, 125400, Note_on_c, 1, 76, 68
6, 125400, Note_on_c, 1, 88, 68
6, 125427, Control_c, 1, 11, 110
6, 125480, Control_c, 1, 11, 106
6, 125533, Control_c, 1, 11, 103
6, 125587, Control_c, 1, 11, 99
6, 125639, Note_on_c, 1, 76, 0
6, 125639, Note_on_c, 1, 88, 0
6, 125640, Control_c, 1, 11, 96
6, 126120, Note_on_c, 1, 76, 68
6, 126120, Note_on_c, 1, 88, 68
6, 126120, Control_c, 1, 11, 96
6, 126173, Control_c, 1, 11, 99
6, 126227, Control_c, 1, 11, 103
6, 126280, Control_c, 1, 11, 106
6, 126333, Control_c, 1, 11, 110
6, 126387, Control_c, 1, 11, 113
6, 126440, Control_c, 1, 11, 117
6, 126493, Control_c, 1, 11, 120
6, 126547, Control_c, 1, 11, 124
6, 126600, Control_c, 1, 11, 127
6, 126653, Control_c, 1, 11, 124
6, 126707, Control_c, 1, 11, 120
6, 126719, Note_on_c, 1, 76, 0
6, 126719, Note_on_c, 1, 88, 0
6, 126720, Note_on_c, 1, 75, 68
6, 126720, Note_on_c, 1, 87, 68
6, 126760, Control_c, 1, 11, 117
6, 126813, Control_c, 1, 11, 113
6, 126839, Note_on_c, 1, 75, 0
6, 126839, Note_on_c, 1, 87, 0
6, 126840, Note_on_c, 1, 76, 68
6, 126840, Note_on_c, 1, 88, 68
6, 126867, Control_c, 1, 11, 110
6, 126920, Control_c, 1, 11, 106
6, 126973, Control_c, 1, 11, 103
6, 127027, Control_c, 1, 11, 99
6, 127079, Note_on_c, 1, 76, 0
6, 127079, Note_on_c, 1, 88, 0
6, 127080, Control_c, 1, 11, 96
6, 129480, Control_c, 1, 11, 127
6, 129720, Note_on_c, 1, 81, 48
6, 130919, Note_on_c, 1, 81, 0
6, 130920, Note_on_c, 1, 83, 48
6, 131139, Note_on_c, 1, 83, 0
6, 131160, Note_on_c, 1, 79, 48
6, 132359, Note_on_c, 1, 79, 0
6, 132360, Note_on_c, 1, 81, 48
6, 132579, Note_on_c, 1, 81, 0
6, 132600, Note_on_c, 1, 78, 48
6, 133119, Note_on_c, 1, 78, 0
6, 133140, Note_on_c, 1, 79, 48
6, 133199, Note_on_c, 1, 79, 0
6, 133200, Note_on_c, 1, 78, 48
6, 133259, Note_on_c, 1, 78, 0
6, 133260, Note_on_c, 1, 76, 48
6, 133319, Note_on_c, 1, 76, 0
6, 133320, Note_on_c, 1, 78, 48
6, 133559, Note_on_c, 1, 78, 0
6, 133560, Note_on_c, 1, 81, 48
6, 133799, Note_on_c, 1, 81, 0
6, 133800, Note_on_c, 1, 79, 48
6, 134019, Note_on_c, 1, 79, 0
6, 134040, Note_on_c, 1, 78, 48
6, 134759, Note_on_c, 1, 78, 0
6, 134760, Note_on_c, 1, 76, 48
6, 134999, Note_on_c, 1, 76, 0
6, 135480, Note_on_c, 1, 81, 48
6, 135999, Note_on_c, 1, 81, 0
6, 136020, Note_on_c, 1, 83, 48
6, 136079, Note_on_c, 1, 83, 0
6, 136080, Note_on_c, 1, 81, 48
6, 136139, Note_on_c, 1, 81, 0
6, 136140, Note_on_c, 1, 80, 48
6, 136199, Note_on_c, 1, 80, 0
6, 136200, Note_on_c, 1, 81, 48
6, 136439, Note_on_c, 1, 81, 0
6, 136440, Note_on_c, 1, 85, 48
6, 136679, Note_on_c, 1, 85, 0
6, 136680, Note_on_c, 1, 83, 48
6, 136899, Note_on_c, 1, 83, 0
6, 136920, Note_on_c, 1, 81, 48
6, 137399, Note_on_c, 1, 81, 0
6, 137400, Note_on_c, 1, 79, 48
6, 137879, Note_on_c, 1, 79, 0
6, 137880, Note_on_c, 1, 83, 48
6, 138119, Note_on_c, 1, 83, 0
6, 138120, Note_on_c, 1, 81, 48
6, 138339, Note_on_c, 1, 81, 0
6, 138358, Control_c, 1, 11, 96
6, 138360, Note_on_c, 1, 79, 64
6, 138420, Control_c, 1, 11, 99
6, 138480, Control_c, 1, 11, 101
6, 138540, Control_c, 1, 11, 104
6, 138599, Note_on_c, 1, 79, 0
6, 138600, Note_on_c, 1, 78, 64
6, 138600, Control_c, 1, 11, 106
6, 138660, Control_c, 1, 11, 109
6, 138720, Control_c, 1, 11, 112
6, 138780, Control_c, 1, 11, 114
6, 138839, Note_on_c, 1, 78, 0
6, 138840, Control_c, 1, 11, 117
6, 138840, Note_on_c, 1, 81, 64
6, 138900, Control_c, 1, 11, 119
6, 138960, Control_c, 1, 11, 122
6, 139020, Control_c, 1, 11, 124
6, 139079, Note_on_c, 1, 81, 0
6, 139080, Control_c, 1, 11, 127
6, 139080, Note_on_c, 1, 86, 64
6, 139140, Control_c, 1, 11, 124
6, 139200, Control_c, 1, 11, 122
6, 139260, Control_c, 1, 11, 119
6, 139319, Note_on_c, 1, 86, 0
6, 139320, Note_on_c, 1, 81, 64
6, 139320, Control_c, 1, 11, 117
6, 139380, Control_c, 1, 11, 114
6, 139440, Control_c, 1, 11, 112
6, 139500, Control_c, 1, 11, 109
6, 139559, Note_on_c, 1, 81, 0
6, 139560, Control_c, 1, 11, 106
6, 139560, Note_on_c, 1, 78, 64
6, 139620, Control_c, 1, 11, 104
6, 139680, Control_c, 1, 11, 101
6, 139740, Control_c, 1, 11, 99
6, 139779, Note_on_c, 1, 78, 0
6, 139800, Control_c, 1, 11, 96
6, 139800, Note_on_c, 1, 76, 64
6, 140520, Control_c, 1, 11, 96
6, 140580, Control_c, 1, 11, 101
6, 140640, Control_c, 1, 11, 106
6, 140700, Control_c, 1, 11, 112
6, 140759, Note_on_c, 1, 76, 0
6, 140760, Note_on_c, 1, 81, 64
6, 140760, Control_c, 1, 11, 117
6, 140820, Control_c, 1, 11, 122
6, 140880, Control_c, 1, 11, 127
6, 140940, Control_c, 1, 11, 122
6, 140999, Note_on_c, 1, 81, 0
6, 141000, Note_on_c, 1, 78, 64
6, 141000, Control_c, 1, 11, 117
6, 141060, Control_c, 1, 11, 112
6, 141120, Control_c, 1, 11, 106
6, 141180, Control_c, 1, 11, 101
6, 141219, Note_on_c, 1, 78, 0
6, 141240, Control_c, 1, 11, 96
6, 141240, Note_on_c, 1, 76, 64
6, 141960, Control_c, 1, 11, 96
6, 142020, Control_c, 1, 11, 101
6, 142080, Control_c, 1, 11, 106
6, 142140, Control_c, 1, 11, 112
6, 142199, Note_on_c, 1, 76, 0
6, 142200, Control_c, 1, 11, 117
6, 142200, Note_on_c, 1, 81, 64
6, 142260, Control_c, 1, 11, 122
6, 142320, Control_c, 1, 11, 127
6, 142380, Control_c, 1, 11, 122
6, 142439, Note_on_c, 1, 81, 0
6, 142440, Note_on_c, 1, 78, 64
6, 142440, Control_c, 1, 11, 117
6, 142500, Control_c, 1, 11, 112
6, 142560, Control_c, 1, 11, 106
6, 142620, Control_c, 1, 11, 101
6, 142659, Note_on_c, 1, 78, 0
6, 142680, Control_c, 1, 11, 96
6, 142680, Note_on_c, 1, 76, 64
6, 142919, Note_on_c, 1, 76, 0
6, 147206, Control_c, 1, 11, 109
6, 147240, Note_on_c, 1, 88, 84
6, 147240, Note_on_c, 1, 91, 84
6, 147274, Control_c, 1, 11, 110
6, 147343, Control_c, 1, 11, 111
6, 147411, Control_c, 1, 11, 112
6, 147480, Control_c, 1, 11, 113
6, 147549, Control_c, 1, 11, 114
6, 147617, Control_c, 1, 11, 115
6, 147686, Control_c, 1, 11, 116
6, 147699, Note_on_c, 1, 88, 0
6, 147699, Note_on_c, 1, 91, 0
6, 147720, Note_on_c, 1, 91, 84
6, 147720, Note_on_c, 1, 88, 84
6, 147754, Control_c, 1, 11, 117
6, 147823, Control_c, 1, 11, 118
6, 147891, Control_c, 1, 11, 119
6, 147960, Control_c, 1, 11, 120
6, 148029, Control_c, 1, 11, 121
6, 148097, Control_c, 1, 11, 122
6, 148166, Control_c, 1, 11, 123
6, 148179, Note_on_c, 1, 91, 0
6, 148179, Note_on_c, 1, 88, 0
6, 148200, Note_on_c, 1, 88, 84
6, 148200, Note_on_c, 1, 91, 84
6, 148234, Control_c, 1, 11, 124
6, 148303, Control_c, 1, 11, 125
6, 148371, Control_c, 1, 11, 127
6, 148419, Note_on_c, 1, 88, 0
6, 148419, Note_on_c, 1, 91, 0
6, 148440, Note_on_c, 1, 86, 84
6, 148440, Note_on_c, 1, 90, 84
6, 149039, Note_on_c, 1, 86, 0
6, 149039, Note_on_c, 1, 90, 0
6, 149040, Note_on_c, 1, 91, 84
6, 149040, Note_on_c, 1, 88, 84
6, 149159, Note_on_c, 1, 91, 0
6, 149159, Note_on_c, 1, 88, 0
6, 149160, Note_on_c, 1, 86, 84
6, 149160, Note_on_c, 1, 90, 84
6, 149399, Note_on_c, 1, 86, 0
6, 149399, Note_on_c, 1, 90, 0
6, 149880, Note_on_c, 1, 90, 84
6, 149880, Note_on_c, 1, 86, 84
6, 150479, Note_on_c, 1, 90, 0
6, 150479, Note_on_c, 1, 86, 0
6, 150480, Note_on_c, 1, 88, 84
6, 150480, Note_on_c, 1, 91, 84
6, 150599, Note_on_c, 1, 88, 0
6, 150599, Note_on_c, 1, 91, 0
6, 150600, Note_on_c, 1, 90, 84
6, 150600, Note_on_c, 1, 86, 84
6, 150839, Note_on_c, 1, 90, 0
6, 150839, Note_on_c, 1, 86, 0
6, 151320, Note_on_c, 1, 90, 84
6, 151320, Note_on_c, 1, 86, 84
6, 151799, Note_on_c, 1, 90, 0
6, 151799, Note_on_c, 1, 86, 0
6, 151800, Note_on_c, 1, 88, 84
6, 151800, Note_on_c, 1, 85, 84
6, 152039, Note_on_c, 1, 88, 0
6, 152039, Note_on_c, 1, 85, 0
6, 152040, Note_on_c, 1, 90, 84
6, 152040, Note_on_c, 1, 86, 84
6, 152279, Note_on_c, 1, 90, 0
6, 152279, Note_on_c, 1, 86, 0
6, 152280, Note_on_c, 1, 88, 84
6, 152280, Note_on_c, 1, 91, 84
6, 152499, Note_on_c, 1, 88, 0
6, 152499, Note_on_c, 1, 91, 0
6, 152520, Note_on_c, 1, 86, 84
6, 152520, Note_on_c, 1, 90, 84
6, 152699, Note_on_c, 1, 86, 0
6, 152699, Note_on_c, 1, 90, 0
6, 152760, Note_on_c, 1, 85, 84
6, 152760, Note_on_c, 1, 88, 84
6, 152999, Note_on_c, 1, 85, 0
6, 152999, Note_on_c, 1, 88, 0
6, 154200, Note_on_c, 1, 88, 84
6, 154200, Note_on_c, 1, 85, 84
6, 154799, Note_on_c, 1, 88, 0
6, 154799, Note_on_c, 1, 85, 0
6, 154800, Note_on_c, 1, 84, 84
6, 154800, Note_on_c, 1, 87, 84
6, 154919, Note_on_c, 1, 84, 0
6, 154919, Note_on_c, 1, 87, 0
6, 154920, Note_on_c, 1, 88, 84
6, 154920, Note_on_c, 1, 85, 84
6, 155159, Note_on_c, 1, 88, 0
6, 155159, Note_on_c, 1, 85, 0
6, 155640, Note_on_c, 1, 85, 84
6, 155640, Note_on_c, 1, 88, 84
6, 156239, Note_on_c, 1, 85, 0
6, 156239, Note_on_c, 1, 88, 0
6, 156240, Note_on_c, 1, 87, 84
6, 156240, Note_on_c, 1, 84, 84
6, 156359, Note_on_c, 1, 87, 0
6, 156359, Note_on_c, 1, 84, 0
6, 156360, Note_on_c, 1, 85, 84
6, 156360, Note_on_c, 1, 88, 84
6, 156599, Note_on_c, 1, 85, 0
6, 156599, Note_on_c, 1, 88, 0
6, 157080, Note_on_c, 1, 85, 84
6, 157080, Note_on_c, 1, 88, 84
6, 157559, Note_on_c, 1, 85, 0
6, 157559, Note_on_c, 1, 88, 0
6, 157560, Note_on_c, 1, 90, 84
6, 157560, Note_on_c, 1, 86, 84
6, 157799, Note_on_c, 1, 90, 0
6, 157799, Note_on_c, 1, 86, 0
6, 157800, Note_on_c, 1, 90, 84
6, 157800, Note_on_c, 1, 93, 84
6, 158039, Note_on_c, 1, 90, 0
6, 158039, Note_on_c, 1, 93, 0
6, 158040, Note_on_c, 1, 91, 84
6, 158040, Note_on_c, 1, 88, 84
6, 158259, Note_on_c, 1, 91, 0
6, 158259, Note_on_c, 1, 88, 0
6, 158280, Note_on_c, 1, 88, 84
6, 158280, Note_on_c, 1, 85, 84
6, 158459, Note_on_c, 1, 88, 0
6, 158459, Note_on_c, 1, 85, 0
6, 158520, Note_on_c, 1, 86, 84
6, 158759, Note_on_c, 1, 86, 0
6, 159960, Note_on_c, 1, 81, 48
6, 161159, Note_on_c, 1, 81, 0
6, 161160, Note_on_c, 1, 83, 48
6, 161379, Note_on_c, 1, 83, 0
6, 161400, Note_on_c, 1, 79, 48
6, 162599, Note_on_c, 1, 79, 0
6, 162600, Note_on_c, 1, 81, 48
6, 162819, Note_on_c, 1, 81, 0
6, 162840, Note_on_c, 1, 78, 48
6, 163359, Note_on_c, 1, 78, 0
6, 163380, Note_on_c, 1, 79, 48
6, 163439, Note_on_c, 1, 79, 0
6, 163440, Note_on_c, 1, 78, 48
6, 163499, Note_on_c, 1, 78, 0
6, 163500, Note_on_c, 1, 76, 48
6, 163559, Note_on_c, 1, 76, 0
6, 163560, Note_on_c, 1, 78, 48
6, 163799, Note_on_c, 1, 78, 0
6, 163800, Note_on_c, 1, 81, 48
6, 164039, Note_on_c, 1, 81, 0
6, 164040, Note_on_c, 1, 79, 48
6, 164259, Note_on_c, 1, 79, 0
6, 164280, Note_on_c, 1, 78, 48
6, 164999, Note_on_c, 1, 78, 0
6, 165000, Note_on_c, 1, 76, 48
6, 165239, Note_on_c, 1, 76, 0
6, 165720, Note_on_c, 1, 81, 48
6, 166239, Note_on_c, 1, 81, 0
6, 166260, Note_on_c, 1, 83, 48
6, 166319, Note_on_c, 1, 83, 0
6, 166320, Note_on_c, 1, 81, 48
6, 166379, Note_on_c, 1, 81, 0
6, 166380, Note_on_c, 1, 80, 48
6, 166439, Note_on_c, 1, 80, 0
6, 166440, Note_on_c, 1, 81, 48
6, 166679, Note_on_c, 1, 81, 0
6, 166680, Note_on_c, 1, 85, 48
6, 166919, Note_on_c, 1, 85, 0
6, 166920, Note_on_c, 1, 83, 48
6, 167139, Note_on_c, 1, 83, 0
6, 167160, Note_on_c, 1, 81, 48
6, 167639, Note_on_c, 1, 81, 0
6, 167640, Note_on_c, 1, 79, 48
6, 168119, Note_on_c, 1, 79, 0
6, 168120, Note_on_c, 1, 83, 48
6, 168359, Note_on_c, 1, 83, 0
6, 168360, Note_on_c, 1, 81, 48
6, 168579, Note_on_c, 1, 81, 0
6, 168598, Control_c, 1, 11, 96
6, 168600, Note_on_c, 1, 79, 64
6, 168660, Control_c, 1, 11, 99
6, 168720, Control_c, 1, 11, 101
6, 168780, Control_c, 1, 11, 104
6, 168839, Note_on_c, 1, 79, 0
6, 168840, Note_on_c, 1, 78, 64
6, 168840, Control_c, 1, 11, 106
6, 168900, Control_c, 1, 11, 109
6, 168960, Control_c, 1, 11, 112
6, 169020, Control_c, 1, 11, 114
6, 169079, Note_on_c, 1, 78, 0
6, 169080, Note_on_c, 1, 81, 64
6, 169080, Control_c, 1, 11, 117
6, 169140, Control_c, 1, 11, 119
6, 169200, Control_c, 1, 11, 122
6, 169260, Control_c, 1, 11, 124
6, 169319, Note_on_c, 1, 81, 0
6, 169320, Note_on_c, 1, 86, 64
6, 169320, Control_c, 1, 11, 127
6, 169380, Control_c, 1, 11, 124
6, 169440, Control_c, 1, 11, 122
6, 169500, Control_c, 1, 11, 119
6, 169559, Note_on_c, 1, 86, 0
6, 169560, Note_on_c, 1, 81, 64
6, 169560, Control_c, 1, 11, 117
6, 169620, Control_c, 1, 11, 114
6, 169680, Control_c, 1, 11, 112
6, 169740, Control_c, 1, 11, 109
6, 169799, Note_on_c, 1, 81, 0
6, 169800, Control_c, 1, 11, 106
6, 169800, Note_on_c, 1, 78, 64
6, 169860, Control_c, 1, 11, 104
6, 169920, Control_c, 1, 11, 101
6, 169980, Control_c, 1, 11, 99
6, 170019, Note_on_c, 1, 78, 0
6, 170040, Note_on_c, 1, 76, 64
6, 170040, Control_c, 1, 11, 96
6, 170760, Control_c, 1, 11, 96
6, 170820, Control_c, 1, 11, 101
6, 170880, Control_c, 1, 11, 106
6, 170940, Control_c, 1, 11, 112
6, 170999, Note_on_c, 1, 76, 0
6, 171000, Control_c, 1, 11, 117
6, 171000, Note_on_c, 1, 81, 64
6, 171060, Control_c, 1, 11, 122
6, 171120, Control_c, 1, 11, 127
6, 171180, Control_c, 1, 11, 122
6, 171239, Note_on_c, 1, 81, 0
6, 171240, Note_on_c, 1, 78, 64
6, 171240, Control_c, 1, 11, 117
6, 171300, Control_c, 1, 11, 112
6, 171360, Control_c, 1, 11, 106
6, 171420, Control_c, 1, 11, 101
6, 171459, Note_on_c, 1, 78, 0
6, 171480, Note_on_c, 1, 76, 64
6, 171480, Control_c, 1, 11, 96
6, 172200, Control_c, 1, 11, 96
6, 172260, Control_c, 1, 11, 101
6, 172320, Control_c, 1, 11, 106
6, 172380, Control_c, 1, 11, 112
6, 172439, Note_on_c, 1, 76, 0
6, 172440, Note_on_c, 1, 81, 64
6, 172440, Control_c, 1, 11, 117
6, 172500, Control_c, 1, 11, 122
6, 172560, Control_c, 1, 11, 127
6, 172620, Control_c, 1, 11, 122
6, 172679, Note_on_c, 1, 81, 0
6, 172680, Note_on_c, 1, 78, 64
6, 172680, Control_c, 1, 11, 117
6, 172740, Control_c, 1, 11, 112
6, 172800, Control_c, 1, 11, 106
6, 172860, Control_c, 1, 11, 101
6, 172899, Note_on_c, 1, 78, 0
6, 172920, Control_c, 1, 11, 96
6, 172920, Note_on_c, 1, 76, 64
6, 173159, Note_on_c, 1, 76, 0
6, 177446, Control_c, 1, 11, 109
6, 177480, Note_on_c, 1, 88, 84
6, 177480, Note_on_c, 1, 91, 84
6, 177514, Control_c, 1, 11, 110
6, 177583, Control_c, 1, 11, 111
6, 177651, Control_c, 1, 11, 112
6, 177720, Control_c, 1, 11, 113
6, 177789, Control_c, 1, 11, 114
6, 177857, Control_c, 1, 11, 115
6, 177926, Control_c, 1, 11, 116
6, 177939, Note_on_c, 1, 88, 0
6, 177939, Note_on_c, 1, 91, 0
6, 177960, Note_on_c, 1, 91, 84
6, 177960, Note_on_c, 1, 88, 84
6, 177994, Control_c, 1, 11, 117
6, 178063, Control_c, 1, 11, 118
6, 178131, Control_c, 1, 11, 119
6, 178200, Control_c, 1, 11, 120
6, 178269, Control_c, 1, 11, 121
6, 178337, Control_c, 1, 11, 122
6, 178406, Control_c, 1, 11, 123
6, 178419, Note_on_c, 1, 91, 0
6, 178419, Note_on_c, 1, 88, 0
6, 178440, Note_on_c, 1, 91, 84
6, 178440, Note_on_c, 1, 88, 84
6, 178474, Control_c, 1, 11, 124
6, 178543, Control_c, 1, 11, 125
6, 178611, Control_c, 1, 11, 127
6, 178659, Note_on_c, 1, 91, 0
6, 178659, Note_on_c, 1, 88, 0
6, 178680, Note_on_c, 1, 86, 84
6, 178680, Note_on_c, 1, 90, 84
6, 179279, Note_on_c, 1, 86, 0
6, 179279, Note_on_c, 1, 90, 0
6, 179280, Note_on_c, 1, 88, 84
6, 179280, Note_on_c, 1, 91, 84
6, 179399, Note_on_c, 1, 88, 0
6, 179399, Note_on_c, 1, 91, 0
6, 179400, Note_on_c, 1, 90, 84
6, 179400, Note_on_c, 1, 86, 84
6, 179639, Note_on_c, 1, 90, 0
6, 179639, Note_on_c, 1, 86, 0
6, 180120, Note_on_c, 1, 86, 84
6, 180120, Note_on_c, 1, 90, 84
6, 180719, Note_on_c, 1, 86, 0
6, 180719, Note_on_c, 1, 90, 0
6, 180720, Note_on_c, 1, 88, 84
6, 180720, Note_on_c, 1, 91, 84
6, 180839, Note_on_c, 1, 88, 0
6, 180839, Note_on_c, 1, 91, 0
6, 180840, Note_on_c, 1, 86, 84
6, 180840, Note_on_c, 1, 90, 84
6, 181079, Note_on_c, 1, 86, 0
6, 181079, Note_on_c, 1, 90, 0
6, 181560, Note_on_c, 1, 90, 84
6, 181560, Note_on_c, 1, 86, 84
6, 182039, Note_on_c, 1, 90, 0
6, 182039, Note_on_c, 1, 86, 0
6, 182040, Note_on_c, 1, 85, 84
6, 182040, Note_on_c, 1, 88, 84
6, 182279, Note_on_c, 1, 85, 0
6, 182279, Note_on_c, 1, 88, 0
6, 182280, Note_on_c, 1, 86, 84
6, 182280, Note_on_c, 1, 90, 84
6, 182519, Note_on_c, 1, 86, 0
6, 182519, Note_on_c, 1, 90, 0
6, 182520, Note_on_c, 1, 88, 84
6, 182520, Note_on_c, 1, 91, 84
6, 182739, Note_on_c, 1, 88, 0
6, 182739, Note_on_c, 1, 91, 0
6, 182760, Note_on_c, 1, 86, 84
6, 182760, Note_on_c, 1, 90, 84
6, 182939, Note_on_c, 1, 86, 0
6, 182939, Note_on_c, 1, 90, 0
6, 183000, Note_on_c, 1, 88, 84
6, 183000, Note_on_c, 1, 85, 84
6, 183239, Note_on_c, 1, 88, 0
6, 183239, Note_on_c, 1, 85, 0
6, 184440, Note_on_c, 1, 88, 84
6, 184440, Note_on_c, 1, 85, 84
6, 185039, Note_on_c, 1, 88, 0
6, 185039, Note_on_c, 1, 85, 0
6, 185040, Note_on_c, 1, 87, 84
6, 185040, Note_on_c, 1, 84, 84
6, 185159, Note_on_c, 1, 87, 0
6, 185159, Note_on_c, 1, 84, 0
6, 185160, Note_on_c, 1, 85, 84
6, 185160, Note_on_c, 1, 88, 84
6, 185399, Note_on_c, 1, 85, 0
6, 185399, Note_on_c, 1, 88, 0
6, 185880, Note_on_c, 1, 85, 84
6, 185880, Note_on_c, 1, 88, 84
6, 186479, Note_on_c, 1, 85, 0
6, 186479, Note_on_c, 1, 88, 0
6, 186480, Note_on_c, 1, 87, 84
6, 186480, Note_on_c, 1, 84, 84
6, 186599, Note_on_c, 1, 87, 0
6, 186599, Note_on_c, 1, 84, 0
6, 186600, Note_on_c, 1, 85, 84
6, 186600, Note_on_c, 1, 88, 84
6, 186839, Note_on_c, 1, 85, 0
6, 186839, Note_on_c, 1, 88, 0
6, 187320, Note_on_c, 1, 85, 84
6, 187320, Note_on_c, 1, 88, 84
6, 187799, Note_on_c, 1, 85, 0
6, 187799, Note_on_c, 1, 88, 0
6, 187800, Note_on_c, 1, 86, 84
6, 187800, Note_on_c, 1, 90, 84
6, 188039, Note_on_c, 1, 86, 0
6, 188039, Note_on_c, 1, 90, 0
6, 188040, Note_on_c, 1, 90, 84
6, 188040, Note_on_c, 1, 93, 84
6, 188279, Note_on_c, 1, 90, 0
6, 188279, Note_on_c, 1, 93, 0
6, 188280, Note_on_c, 1, 88, 84
6, 188280, Note_on_c, 1, 91, 84
6, 188499, Note_on_c, 1, 88, 0
6, 188499, Note_on_c, 1, 91, 0
6, 188520, Note_on_c, 1, 88, 84
6, 188520, Note_on_c, 1, 85, 84
6, 188699, Note_on_c, 1, 88, 0
6, 188699, Note_on_c, 1, 85, 0
6, 188760, Note_on_c, 1, 86, 84
6, 188999, Note_on_c, 1, 86, 0
6, 200040, Note_on_c, 1, 77, 76
6, 200111, Note_on_c, 1, 77, 0
6, 200120, Note_on_c, 1, 77, 76
6, 200159, Note_on_c, 1, 77, 0
6, 200160, Note_on_c, 1, 81, 76
6, 200279, Note_on_c, 1, 81, 0
6, 200280, Note_on_c, 1, 77, 76
6, 200339, Note_on_c, 1, 77, 0
6, 200400, Note_on_c, 1, 81, 76
6, 200400, Note_on_c, 1, 77, 76
6, 200471, Note_on_c, 1, 81, 0
6, 200471, Note_on_c, 1, 77, 0
6, 200480, Note_on_c, 1, 81, 76
6, 200480, Note_on_c, 1, 77, 76
6, 200519, Note_on_c, 1, 81, 0
6, 200519, Note_on_c, 1, 77, 0
6, 200520, Note_on_c, 1, 81, 76
6, 200520, Note_on_c, 1, 84, 76
6, 200639, Note_on_c, 1, 81, 0
6, 200639, Note_on_c, 1, 84, 0
6, 200640, Note_on_c, 1, 81, 76
6, 200640, Note_on_c, 1, 77, 76
6, 200699, Note_on_c, 1, 81, 0
6, 200699, Note_on_c, 1, 77, 0
6, 200760, Note_on_c, 1, 81, 76
6, 200760, Note_on_c, 1, 84, 76
6, 200864, Note_on_c, 1, 81, 0
6, 200864, Note_on_c, 1, 84, 0
6, 200880, Note_on_c, 1, 81, 52
6, 200880, Note_on_c, 1, 89, 52
6, 200969, Note_on_c, 1, 81, 0
6, 200969, Note_on_c, 1, 89, 0
6, 201000, Note_on_c, 1, 81, 52
6, 201000, Note_on_c, 1, 89, 52
6, 201089, Note_on_c, 1, 81, 0
6, 201089, Note_on_c, 1, 89, 0
6, 201120, Note_on_c, 1, 88, 52
6, 201120, Note_on_c, 1, 84, 52
6, 201209, Note_on_c, 1, 88, 0
6, 201209, Note_on_c, 1, 84, 0
6, 201240, Note_on_c, 1, 82, 52
6, 201240, Note_on_c, 1, 86, 52
6, 201329, Note_on_c, 1, 82, 0
6, 201329, Note_on_c, 1, 86, 0
6, 201360, Note_on_c, 1, 82, 52
6, 201360, Note_on_c, 1, 86, 52
6, 201449, Note_on_c, 1, 82, 0
6, 201449, Note_on_c, 1, 86, 0
6, 201480, Note_on_c, 1, 84, 52
6, 201480, Note_on_c, 1, 81, 52
6, 201569, Note_on_c, 1, 84, 0
6, 201569, Note_on_c, 1, 81, 0
6, 201600, Note_on_c, 1, 82, 52
6, 201600, Note_on_c, 1, 79, 52
6, 201689, Note_on_c, 1, 82, 0
6, 201689, Note_on_c, 1, 79, 0
6, 201720, Note_on_c, 1, 82, 52
6, 201720, Note_on_c, 1, 79, 52
6, 201809, Note_on_c, 1, 82, 0
6, 201809, Note_on_c, 1, 79, 0
6, 201840, Note_on_c, 1, 77, 52
6, 201840, Note_on_c, 1, 81, 52
6, 201929, Note_on_c, 1, 77, 0
6, 201929, Note_on_c, 1, 81, 0
6, 201960, Note_on_c, 1, 76, 52
6, 201960, Note_on_c, 1, 79, 52
6, 202304, Note_on_c, 1, 76, 0
6, 202304, Note_on_c, 1, 79, 0
6, 202320, Note_on_c, 1, 88, 52
6, 202320, Note_on_c, 1, 91, 52
6, 202409, Note_on_c, 1, 88, 0
6, 202409, Note_on_c, 1, 91, 0
6, 202440, Note_on_c, 1, 91, 52
6, 202440, Note_on_c, 1, 88, 52
6, 202529, Note_on_c, 1, 91, 0
6, 202529, Note_on_c, 1, 88, 0
6, 202560, Note_on_c, 1, 89, 52
6, 202560, Note_on_c, 1, 86, 52
6, 202649, Note_on_c, 1, 89, 0
6, 202649, Note_on_c, 1, 86, 0
6, 202680, Note_on_c, 1, 88, 52
6, 202680, Note_on_c, 1, 84, 52
6, 202769, Note_on_c, 1, 88, 0
6, 202769, Note_on_c, 1, 84, 0
6, 202800, Note_on_c, 1, 88, 52
6, 202800, Note_on_c, 1, 84, 52
6, 202889, Note_on_c, 1, 88, 0
6, 202889, Note_on_c, 1, 84, 0
6, 202920, Note_on_c, 1, 82, 52
6, 202920, Note_on_c, 1, 86, 52
6, 203009, Note_on_c, 1, 82, 0
6, 203009, Note_on_c, 1, 86, 0
6, 203040, Note_on_c, 1, 84, 52
6, 203040, Note_on_c, 1, 81, 52
6, 203129, Note_on_c, 1, 84, 0
6, 203129, Note_on_c, 1, 81, 0
6, 203160, Note_on_c, 1, 84, 52
6, 203160, Note_on_c, 1, 81, 52
6, 203249, Note_on_c, 1, 84, 0
6, 203249, Note_on_c, 1, 81, 0
6, 203280, Note_on_c, 1, 79, 52
6, 203280, Note_on_c, 1, 82, 52
6, 203369, Note_on_c, 1, 79, 0
6, 203369, Note_on_c, 1, 82, 0
6, 203400, Note_on_c, 1, 77, 52
6, 203400, Note_on_c, 1, 81, 52
6, 203759, Note_on_c, 1, 77, 0
6, 203759, Note_on_c, 1, 81, 0
6, 204480, Note_on_c, 1, 79, 52
6, 204569, Note_on_c, 1, 79, 0
6, 204600, Note_on_c, 1, 79, 60
6, 204689, Note_on_c, 1, 79, 0
6, 204720, Note_on_c, 1, 77, 68
6, 204809, Note_on_c, 1, 77, 0
6, 204840, Note_on_c, 1, 82, 76
6, 205079, Note_on_c, 1, 82, 0
6, 205080, Note_on_c, 1, 81, 76
6, 205184, Note_on_c, 1, 81, 0
6, 205200, Note_on_c, 1, 86, 84
6, 205439, Note_on_c, 1, 86, 0
6, 205440, Note_on_c, 1, 85, 76
6, 205544, Note_on_c, 1, 85, 0
6, 205560, Note_on_c, 1, 89, 84
6, 205799, Note_on_c, 1, 89, 0
6, 205800, Note_on_c, 1, 88, 76
6, 205904, Note_on_c, 1, 88, 0
6, 205920, Note_on_c, 1, 88, 76
6, 206264, Note_on_c, 1, 88, 0
6, 206280, Note_on_c, 1, 88, 76
6, 206399, Note_on_c, 1, 88, 0
6, 206640, Note_on_c, 1, 88, 76
6, 206984, Note_on_c, 1, 88, 0
6, 207000, Note_on_c, 1, 88, 76
6, 207119, Note_on_c, 1, 88, 0
6, 207360, Note_on_c, 1, 88, 76
6, 207480, Note_on_c, 1, 90, 76
6, 207599, Note_on_c, 1, 90, 0
6, 207600, Note_on_c, 1, 92, 76
6, 207704, Note_on_c, 1, 92, 0
6, 207720, Note_on_c, 1, 93, 76
6, 207809, Note_on_c, 1, 93, 0
6, 207824, Note_on_c, 1, 88, 0
6, 207840, Note_on_c, 1, 88, 76
6, 207929, Note_on_c, 1, 88, 0
6, 207960, Note_on_c, 1, 85, 76
6, 208049, Note_on_c, 1, 85, 0
6, 208080, Note_on_c, 1, 81, 76
6, 208169, Note_on_c, 1, 81, 0
6, 208200, Note_on_c, 1, 76, 76
6, 208289, Note_on_c, 1, 76, 0
6, 208320, Note_on_c, 1, 73, 76
6, 208409, Note_on_c, 1, 73, 0
6, 208440, Note_on_c, 1, 69, 76
6, 208529, Note_on_c, 1, 69, 0
6, 208680, Note_on_c, 1, 77, 52
6, 208751, Note_on_c, 1, 77, 0
6, 208760, Note_on_c, 1, 77, 52
6, 208799, Note_on_c, 1, 77, 0
6, 208800, Note_on_c, 1, 81, 52
6, 208919, Note_on_c, 1, 81, 0
6, 208920, Note_on_c, 1, 77, 52
6, 208979, Note_on_c, 1, 77, 0
6, 209040, Note_on_c, 1, 81, 52
6, 209040, Note_on_c, 1, 77, 52
6, 209111, Note_on_c, 1, 81, 0
6, 209111, Note_on_c, 1, 77, 0
6, 209120, Note_on_c, 1, 81, 52
6, 209120, Note_on_c, 1, 77, 52
6, 209159, Note_on_c, 1, 81, 0
6, 209159, Note_on_c, 1, 77, 0
6, 209160, Note_on_c, 1, 81, 52
6, 209160, Note_on_c, 1, 84, 52
6, 209279, Note_on_c, 1, 81, 0
6, 209279, Note_on_c, 1, 84, 0
6, 209280, Note_on_c, 1, 77, 52
6, 209280, Note_on_c, 1, 81, 52
6, 209339, Note_on_c, 1, 77, 0
6, 209339, Note_on_c, 1, 81, 0
6, 209400, Note_on_c, 1, 81, 52
6, 209400, Note_on_c, 1, 84, 52
6, 209504, Note_on_c, 1, 81, 0
6, 209504, Note_on_c, 1, 84, 0
6, 209520, Note_on_c, 1, 89, 52
6, 209520, Note_on_c, 1, 81, 52
6, 209609, Note_on_c, 1, 89, 0
6, 209609, Note_on_c, 1, 81, 0
6, 209640, Note_on_c, 1, 89, 52
6, 209640, Note_on_c, 1, 81, 52
6, 209729, Note_on_c, 1, 89, 0
6, 209729, Note_on_c, 1, 81, 0
6, 209760, Note_on_c, 1, 84, 52
6, 209760, Note_on_c, 1, 88, 52
6, 209849, Note_on_c, 1, 84, 0
6, 209849, Note_on_c, 1, 88, 0
6, 209880, Note_on_c, 1, 82, 52
6, 209880, Note_on_c, 1, 86, 52
6, 209969, Note_on_c, 1, 82, 0
6, 209969, Note_on_c, 1, 86, 0
6, 210000, Note_on_c, 1, 82, 52
6, 210000, Note_on_c, 1, 86, 52
6, 210089, Note_on_c, 1, 82, 0
6, 210089, Note_on_c, 1, 86, 0
6, 210120, Note_on_c, 1, 84, 52
6, 210120, Note_on_c, 1, 81, 52
6, 210209, Note_on_c, 1, 84, 0
6, 210209, Note_on_c, 1, 81, 0
6, 210240, Note_on_c, 1, 79, 52
6, 210240, Note_on_c, 1, 82, 52
6, 210329, Note_on_c, 1, 79, 0
6, 210329, Note_on_c, 1, 82, 0
6, 210360, Note_on_c, 1, 82, 52
6, 210360, Note_on_c, 1, 79, 52
6, 210449, Note_on_c, 1, 82, 0
6, 210449, Note_on_c, 1, 79, 0
6, 210480, Note_on_c, 1, 81, 52
6, 210480, Note_on_c, 1, 77, 52
6, 210569, Note_on_c, 1, 81, 0
6, 210569, Note_on_c, 1, 77, 0
6, 210600, Note_on_c, 1, 79, 52
6, 210600, Note_on_c, 1, 76, 52
6, 210944, Note_on_c, 1, 79, 0
6, 210944, Note_on_c, 1, 76, 0
6, 210960, Note_on_c, 1, 88, 52
6, 210960, Note_on_c, 1, 91, 52
6, 211049, Note_on_c, 1, 88, 0
6, 211049, Note_on_c, 1, 91, 0
6, 211080, Note_on_c, 1, 88, 52
6, 211080, Note_on_c, 1, 91, 52
6, 211169, Note_on_c, 1, 88, 0
6, 211169, Note_on_c, 1, 91, 0
6, 211200, Note_on_c, 1, 86, 52
6, 211200, Note_on_c, 1, 89, 52
6, 211289, Note_on_c, 1, 86, 0
6, 211289, Note_on_c, 1, 89, 0
6, 211320, Note_on_c, 1, 88, 52
6, 211320, Note_on_c, 1, 84, 52
6, 211409, Note_on_c, 1, 88, 0
6, 211409, Note_on_c, 1, 84, 0
6, 211440, Note_on_c, 1, 84, 52
6, 211440, Note_on_c, 1, 88, 52
6, 211529, Note_on_c, 1, 84, 0
6, 211529, Note_on_c, 1, 88, 0
6, 211560, Note_on_c, 1, 82, 52
6, 211560, Note_on_c, 1, 86, 52
6, 211649, Note_on_c, 1, 82, 0
6, 211649, Note_on_c, 1, 86, 0
6, 211680, Note_on_c, 1, 81, 52
6, 211680, Note_on_c, 1, 84, 52
6, 211769, Note_on_c, 1, 81, 0
6, 211769, Note_on_c, 1, 84, 0
6, 211800, Note_on_c, 1, 84, 52
6, 211800, Note_on_c, 1, 81, 52
6, 211889, Note_on_c, 1, 84, 0
6, 211889, Note_on_c, 1, 81, 0
6, 211920, Note_on_c, 1, 79, 52
6, 211920, Note_on_c, 1, 82, 52
6, 212009, Note_on_c, 1, 79, 0
6, 212009, Note_on_c, 1, 82, 0
6, 212040, Note_on_c, 1, 81, 52
6, 212040, Note_on_c, 1, 77, 52
6, 212399, Note_on_c, 1, 81, 0
6, 212399, Note_on_c, 1, 77, 0
6, 213120, Note_on_c, 1, 79, 52
6, 213209, Note_on_c, 1, 79, 0
6, 213240, Note_on_c, 1, 79, 52
6, 213329, Note_on_c, 1, 79, 0
6, 213360, Note_on_c, 1, 77, 52
6, 213449, Note_on_c, 1, 77, 0
6, 213480, Note_on_c, 1, 82, 52
6, 213719, Note_on_c, 1, 82, 0
6, 213720, Note_on_c, 1, 81, 52
6, 213824, Note_on_c, 1, 81, 0
6, 213840, Note_on_c, 1, 86, 52
6, 214079, Note_on_c, 1, 86, 0
6, 214080, Note_on_c, 1, 85, 52
6, 214184, Note_on_c, 1, 85, 0
6, 214200, Note_on_c, 1, 89, 52
6, 214439, Note_on_c, 1, 89, 0
6, 214440, Note_on_c, 1, 88, 52
6, 214544, Note_on_c, 1, 88, 0
6, 214560, Note_on_c, 1, 88, 52
6, 214904, Note_on_c, 1, 88, 0
6, 214920, Note_on_c, 1, 88, 52
6, 215039, Note_on_c, 1, 88, 0
6, 215280, Note_on_c, 1, 88, 52
6, 215624, Note_on_c, 1, 88, 0
6, 215640, Note_on_c, 1, 88, 52
6, 215759, Note_on_c, 1, 88, 0
6, 216000, Note_on_c, 1, 88, 52
6, 216120, Note_on_c, 1, 90, 52
6, 216239, Note_on_c, 1, 90, 0
6, 216240, Note_on_c, 1, 92, 52
6, 216344, Note_on_c, 1, 92, 0
6, 216360, Note_on_c, 1, 93, 52
6, 216449, Note_on_c, 1, 93, 0
6, 216464, Note_on_c, 1, 88, 0
6, 216480, Note_on_c, 1, 88, 52
6, 216569, Note_on_c, 1, 88, 0
6, 216600, Note_on_c, 1, 85, 52
6, 216689, Note_on_c, 1, 85, 0
6, 216720, Note_on_c, 1, 81, 52
6, 216809, Note_on_c, 1, 81, 0
6, 216840, Note_on_c, 1, 76, 52
6, 216929, Note_on_c, 1, 76, 0
6, 216960, Note_on_c, 1, 73, 52
6, 217049, Note_on_c, 1, 73, 0
6, 217080, Note_on_c, 1, 69, 52
6, 217169, Note_on_c, 1, 69, 0
6, 218760, Note_on_c, 1, 81, 52
6, 218849, Note_on_c, 1, 81, 0
6, 218880, Note_on_c, 1, 83, 52
6, 218969, Note_on_c, 1, 83, 0
6, 219000, Note_on_c, 1, 83, 52
6, 219089, Note_on_c, 1, 83, 0
6, 219120, Note_on_c, 1, 81, 52
6, 219209, Note_on_c, 1, 81, 0
6, 219240, Note_on_c, 1, 86, 52
6, 219479, Note_on_c, 1, 86, 0
6, 219480, Note_on_c, 1, 85, 52
6, 219584, Note_on_c, 1, 85, 0
6, 219600, Note_on_c, 1, 83, 52
6, 219689, Note_on_c, 1, 83, 0
6, 219720, Note_on_c, 1, 83, 52
6, 219809, Note_on_c, 1, 83, 0
6, 219840, Note_on_c, 1, 81, 52
6, 219929, Note_on_c, 1, 81, 0
6, 219960, Note_on_c, 1, 86, 52
6, 220199, Note_on_c, 1, 86, 0
6, 220200, Note_on_c, 1, 85, 52
6, 220304, Note_on_c, 1, 85, 0
6, 220320, Note_on_c, 1, 86, 44
6, 220559, Note_on_c, 1, 86, 0
6, 220560, Note_on_c, 1, 85, 44
6, 220664, Note_on_c, 1, 85, 0
6, 220680, Note_on_c, 1, 86, 44
6, 220919, Note_on_c, 1, 86, 0
6, 220920, Note_on_c, 1, 85, 44
6, 221024, Note_on_c, 1, 85, 0
6, 221040, Note_on_c, 1, 86, 44
6, 221279, Note_on_c, 1, 86, 0
6, 221280, Note_on_c, 1, 85, 44
6, 221384, Note_on_c, 1, 85, 0
6, 221400, Note_on_c, 1, 86, 44
6, 221639, Note_on_c, 1, 86, 0
6, 221640, Note_on_c, 1, 85, 44
6, 221759, Note_on_c, 1, 85, 0
6, 224160, Note_on_c, 1, 86, 44
6, 224160, Note_on_c, 1, 89, 44
6, 224264, Note_on_c, 1, 86, 0
6, 224264, Note_on_c, 1, 89, 0
6, 224280, Note_on_c, 1, 89, 44
6, 224280, Note_on_c, 1, 86, 44
6, 224399, Note_on_c, 1, 89, 0
6, 224399, Note_on_c, 1, 86, 0
6, 224520, Note_on_c, 1, 84, 44
6, 224609, Note_on_c, 1, 84, 0
6, 224640, Note_on_c, 1, 86, 44
6, 224729, Note_on_c, 1, 86, 0
6, 224760, Note_on_c, 1, 86, 44
6, 224849, Note_on_c, 1, 86, 0
6, 224880, Note_on_c, 1, 84, 44
6, 224969, Note_on_c, 1, 84, 0
6, 225000, Note_on_c, 1, 89, 44
6, 225239, Note_on_c, 1, 89, 0
6, 225240, Note_on_c, 1, 88, 44
6, 225344, Note_on_c, 1, 88, 0
6, 225360, Note_on_c, 1, 86, 44
6, 225449, Note_on_c, 1, 86, 0
6, 225480, Note_on_c, 1, 86, 44
6, 225569, Note_on_c, 1, 86, 0
6, 225600, Note_on_c, 1, 84, 44
6, 225689, Note_on_c, 1, 84, 0
6, 225720, Note_on_c, 1, 89, 44
6, 225959, Note_on_c, 1, 89, 0
6, 225960, Note_on_c, 1, 88, 44
6, 226064, Note_on_c, 1, 88, 0
6, 226080, Note_on_c, 1, 89, 44
6, 226319, Note_on_c, 1, 89, 0
6, 226320, Note_on_c, 1, 88, 44
6, 226424, Note_on_c, 1, 88, 0
6, 226440, Note_on_c, 1, 89, 44
6, 226679, Note_on_c, 1, 89, 0
6, 226680, Note_on_c, 1, 88, 44
6, 226784, Note_on_c, 1, 88, 0
6, 226800, Note_on_c, 1, 89, 44
6, 227039, Note_on_c, 1, 89, 0
6, 227040, Note_on_c, 1, 88, 44
6, 227144, Note_on_c, 1, 88, 0
6, 227160, Note_on_c, 1, 89, 44
6, 227399, Note_on_c, 1, 89, 0
6, 227400, Note_on_c, 1, 88, 44
6, 227519, Note_on_c, 1, 88, 0
6, 235080, Note_on_c, 1, 82, 52
6, 235169, Note_on_c, 1, 82, 0
6, 235200, Note_on_c, 1, 82, 52
6, 235289, Note_on_c, 1, 82, 0
6, 235320, Note_on_c, 1, 81, 53
6, 235409, Note_on_c, 1, 81, 0
6, 235440, Note_on_c, 1, 79, 53
6, 235529, Note_on_c, 1, 79, 0
6, 235560, Note_on_c, 1, 79, 54
6, 235649, Note_on_c, 1, 79, 0
6, 235680, Note_on_c, 1, 77, 54
6, 235769, Note_on_c, 1, 77, 0
6, 235800, Note_on_c, 1, 75, 55
6, 235889, Note_on_c, 1, 75, 0
6, 235920, Note_on_c, 1, 75, 56
6, 236009, Note_on_c, 1, 75, 0
6, 236040, Note_on_c, 1, 74, 56
6, 236129, Note_on_c, 1, 74, 0
6, 236160, Note_on_c, 1, 72, 57
6, 236249, Note_on_c, 1, 72, 0
6, 236520, Note_on_c, 1, 84, 58
6, 236609, Note_on_c, 1, 84, 0
6, 236640, Note_on_c, 1, 84, 59
6, 236729, Note_on_c, 1, 84, 0
6, 236760, Note_on_c, 1, 82, 60
6, 236849, Note_on_c, 1, 82, 0
6, 236880, Note_on_c, 1, 81, 60
6, 236969, Note_on_c, 1, 81, 0
6, 237000, Note_on_c, 1, 81, 61
6, 237089, Note_on_c, 1, 81, 0
6, 237120, Note_on_c, 1, 79, 61
6, 237209, Note_on_c, 1, 79, 0
6, 237240, Note_on_c, 1, 77, 62
6, 237329, Note_on_c, 1, 77, 0
6, 237360, Note_on_c, 1, 77, 62
6, 237449, Note_on_c, 1, 77, 0
6, 237480, Note_on_c, 1, 75, 63
6, 237569, Note_on_c, 1, 75, 0
6, 237600, Note_on_c, 1, 74, 64
6, 237719, Note_on_c, 1, 74, 0
6, 240360, Note_on_c, 1, 89, 76
6, 240360, Note_on_c, 1, 77, 76
6, 240431, Note_on_c, 1, 89, 0
6, 240431, Note_on_c, 1, 77, 0
6, 240440, Note_on_c, 1, 77, 76
6, 240440, Note_on_c, 1, 89, 76
6, 240479, Note_on_c, 1, 77, 0
6, 240479, Note_on_c, 1, 89, 0
6, 240480, Note_on_c, 1, 81, 76
6, 240480, Note_on_c, 1, 93, 76
6, 240599, Note_on_c, 1, 81, 0
6, 240599, Note_on_c, 1, 93, 0
6, 240600, Note_on_c, 1, 89, 76
6, 240600, Note_on_c, 1, 77, 76
6, 240659, Note_on_c, 1, 89, 0
6, 240659, Note_on_c, 1, 77, 0
6, 240720, Note_on_c, 1, 77, 76
6, 240720, Note_on_c, 1, 81, 76
6, 240791, Note_on_c, 1, 77, 0
6, 240791, Note_on_c, 1, 81, 0
6, 240800, Note_on_c, 1, 77, 76
6, 240800, Note_on_c, 1, 81, 76
6, 240839, Note_on_c, 1, 77, 0
6, 240839, Note_on_c, 1, 81, 0
6, 240840, Note_on_c, 1, 84, 76
6, 240840, Note_on_c, 1, 81, 76
6, 240959, Note_on_c, 1, 84, 0
6, 240959, Note_on_c, 1, 81, 0
6, 240960, Note_on_c, 1, 77, 76
6, 240960, Note_on_c, 1, 81, 76
6, 241019, Note_on_c, 1, 77, 0
6, 241019, Note_on_c, 1, 81, 0
6, 241080, Note_on_c, 1, 84, 76
6, 241080, Note_on_c, 1, 81, 76
6, 241184, Note_on_c, 1, 84, 0
6, 241184, Note_on_c, 1, 81, 0
6, 241200, Note_on_c, 1, 77, 84
6, 241200, Note_on_c, 1, 89, 84
6, 242399, Note_on_c, 1, 77, 0
6, 242399, Note_on_c, 1, 89, 0
6, 242400, Note_on_c, 1, 91, 84
6, 242400, Note_on_c, 1, 79, 84
6, 242504, Note_on_c, 1, 91, 0
6, 242504, Note_on_c, 1, 79, 0
6, 242520, Note_on_c, 1, 91, 84
6, 242520, Note_on_c, 1, 79, 84
6, 242609, Note_on_c, 1, 91, 0
6, 242609, Note_on_c, 1, 79, 0
6, 242640, Note_on_c, 1, 79, 84
6, 242640, Note_on_c, 1, 91, 84
6, 243839, Note_on_c, 1, 79, 0
6, 243839, Note_on_c, 1, 91, 0
6, 243840, Note_on_c, 1, 93, 84
6, 243840, Note_on_c, 1, 81, 84
6, 243944, Note_on_c, 1, 93, 0
6, 243944, Note_on_c, 1, 81, 0
6, 243960, Note_on_c, 1, 93, 84
6, 243960, Note_on_c, 1, 81, 84
6, 244049, Note_on_c, 1, 93, 0
6, 244049, Note_on_c, 1, 81, 0
6, 244200, Note_on_c, 1, 81, 52
6, 244289, Note_on_c, 1, 81, 0
6, 244320, Note_on_c, 1, 82, 52
6, 244409, Note_on_c, 1, 82, 0
6, 244440, Note_on_c, 1, 84, 52
6, 244529, Note_on_c, 1, 84, 0
6, 244560, Note_on_c, 1, 84, 52
6, 244649, Note_on_c, 1, 84, 0
6, 244680, Note_on_c, 1, 86, 52
6, 244769, Note_on_c, 1, 86, 0
6, 244800, Note_on_c, 1, 88, 52
6, 244889, Note_on_c, 1, 88, 0
6, 244920, Note_on_c, 1, 88, 52
6, 245009, Note_on_c, 1, 88, 0
6, 245040, Note_on_c, 1, 89, 52
6, 245129, Note_on_c, 1, 89, 0
6, 245160, Note_on_c, 1, 91, 52
6, 245249, Note_on_c, 1, 91, 0
6, 245640, Note_on_c, 1, 82, 52
6, 245729, Note_on_c, 1, 82, 0
6, 245760, Note_on_c, 1, 84, 52
6, 245849, Note_on_c, 1, 84, 0
6, 245880, Note_on_c, 1, 86, 52
6, 245969, Note_on_c, 1, 86, 0
6, 246000, Note_on_c, 1, 86, 52
6, 246089, Note_on_c, 1, 86, 0
6, 246120, Note_on_c, 1, 88, 52
6, 246209, Note_on_c, 1, 88, 0
6, 246240, Note_on_c, 1, 89, 52
6, 246329, Note_on_c, 1, 89, 0
6, 246360, Note_on_c, 1, 89, 52
6, 246449, Note_on_c, 1, 89, 0
6, 246480, Note_on_c, 1, 91, 52
6, 246569, Note_on_c, 1, 91, 0
6, 246600, Note_on_c, 1, 93, 52
6, 246719, Note_on_c, 1, 93, 0
6, 250920, Note_on_c, 1, 79, 52
6, 250920, Note_on_c, 1, 84, 52
6, 251024, Note_on_c, 1, 79, 0
6, 251024, Note_on_c, 1, 84, 0
6, 251040, Note_on_c, 1, 79, 52
6, 251040, Note_on_c, 1, 84, 52
6, 251144, Note_on_c, 1, 79, 0
6, 251144, Note_on_c, 1, 84, 0
6, 251160, Note_on_c, 1, 79, 52
6, 251160, Note_on_c, 1, 84, 52
6, 251279, Note_on_c, 1, 79, 0
6, 251279, Note_on_c, 1, 84, 0
6, 251640, Note_on_c, 1, 84, 52
6, 251640, Note_on_c, 1, 79, 52
6, 251744, Note_on_c, 1, 84, 0
6, 251744, Note_on_c, 1, 79, 0
6, 251760, Note_on_c, 1, 79, 52
6, 251760, Note_on_c, 1, 84, 52
6, 251864, Note_on_c, 1, 79, 0
6, 251864, Note_on_c, 1, 84, 0
6, 251880, Note_on_c, 1, 79, 52
6, 251880, Note_on_c, 1, 84, 52
6, 251999, Note_on_c, 1, 79, 0
6, 251999, Note_on_c, 1, 84, 0
6, 252360, Note_on_c, 1, 79, 52
6, 252360, Note_on_c, 1, 84, 52
6, 252464, Note_on_c, 1, 79, 0
6, 252464, Note_on_c, 1, 84, 0
6, 252480, Note_on_c, 1, 79, 52
6, 252480, Note_on_c, 1, 84, 52
6, 252584, Note_on_c, 1, 79, 0
6, 252584, Note_on_c, 1, 84, 0
6, 252600, Note_on_c, 1, 79, 52
6, 252600, Note_on_c, 1, 84, 52
6, 252719, Note_on_c, 1, 79, 0
6, 252719, Note_on_c, 1, 84, 0
6, 253080, Note_on_c, 1, 79, 52
6, 253080, Note_on_c, 1, 84, 52
6, 253184, Note_on_c, 1, 79, 0
6, 253184, Note_on_c, 1, 84, 0
6, 253200, Note_on_c, 1, 84, 52
6, 253200, Note_on_c, 1, 79, 52
6, 253304, Note_on_c, 1, 84, 0
6, 253304, Note_on_c, 1, 79, 0
6, 253320, Note_on_c, 1, 84, 52
6, 253320, Note_on_c, 1, 79, 52
6, 253424, Note_on_c, 1, 84, 0
6, 253424, Note_on_c, 1, 79, 0
6, 253440, Note_on_c, 1, 88, 84
6, 253484, Note_on_c, 1, 88, 0
6, 253485, Note_on_c, 1, 89, 84
6, 253529, Note_on_c, 1, 89, 0
6, 253530, Note_on_c, 1, 88, 84
6, 253560, Note_on_c, 1, 79, 84
6, 253574, Note_on_c, 1, 88, 0
6, 253575, Note_on_c, 1, 89, 84
6, 253619, Note_on_c, 1, 89, 0
6, 253620, Note_on_c, 1, 88, 84
6, 253664, Note_on_c, 1, 79, 0
6, 253664, Note_on_c, 1, 88, 0
6, 253665, Note_on_c, 1, 89, 84
6, 253680, Note_on_c, 1, 79, 84
6, 253709, Note_on_c, 1, 89, 0
6, 253710, Note_on_c, 1, 86, 84
6, 253754, Note_on_c, 1, 86, 0
6, 253755, Note_on_c, 1, 88, 84
6, 253784, Note_on_c, 1, 79, 0
6, 253799, Note_on_c, 1, 88, 0
6, 253800, Note_on_c, 1, 81, 84
6, 253800, Note_on_c, 1, 89, 84
6, 253904, Note_on_c, 1, 81, 0
6, 253904, Note_on_c, 1, 89, 0
6, 253920, Note_on_c, 1, 81, 84
6, 253920, Note_on_c, 1, 84, 84
6, 254024, Note_on_c, 1, 81, 0
6, 254024, Note_on_c, 1, 84, 0
6, 254040, Note_on_c, 1, 77, 84
6, 254040, Note_on_c, 1, 81, 84
6, 254144, Note_on_c, 1, 77, 0
6, 254144, Note_on_c, 1, 81, 0
6, 254160, Note_on_c, 1, 82, 84
6, 254204, Note_on_c, 1, 82, 0
6, 254205, Note_on_c, 1, 84, 84
6, 254249, Note_on_c, 1, 84, 0
6, 254250, Note_on_c, 1, 82, 84
6, 254280, Note_on_c, 1, 76, 84
6, 254294, Note_on_c, 1, 82, 0
6, 254295, Note_on_c, 1, 84, 84
6, 254339, Note_on_c, 1, 84, 0
6, 254340, Note_on_c, 1, 82, 84
6, 254384, Note_on_c, 1, 76, 0
6, 254384, Note_on_c, 1, 82, 0
6, 254385, Note_on_c, 1, 84, 84
6, 254400, Note_on_c, 1, 76, 84
6, 254429, Note_on_c, 1, 84, 0
6, 254430, Note_on_c, 1, 81, 84
6, 254474, Note_on_c, 1, 81, 0
6, 254475, Note_on_c, 1, 82, 84
6, 254504, Note_on_c, 1, 76, 0
6, 254519, Note_on_c, 1, 82, 0
6, 254520, Note_on_c, 1, 81, 84
6, 254520, Note_on_c, 1, 77, 84
6, 254624, Note_on_c, 1, 81, 0
6, 254624, Note_on_c, 1, 77, 0
6, 254640, Note_on_c, 1, 81, 84
6, 254640, Note_on_c, 1, 84, 84
6, 254744, Note_on_c, 1, 81, 0
6, 254744, Note_on_c, 1, 84, 0
6, 254760, Note_on_c, 1, 89, 84
6, 254760, Note_on_c, 1, 81, 84
6, 254864, Note_on_c, 1, 89, 0
6, 254864, Note_on_c, 1, 81, 0
6, 254880, Note_on_c, 1, 88, 84
6, 254924, Note_on_c, 1, 88, 0
6, 254925, Note_on_c, 1, 89, 84
6, 254969, Note_on_c, 1, 89, 0
6, 254970, Note_on_c, 1, 88, 84
6, 255000, Note_on_c, 1, 79, 84
6, 255014, Note_on_c, 1, 88, 0
6, 255015, Note_on_c, 1, 89, 84
6, 255059, Note_on_c, 1, 89, 0
6, 255060, Note_on_c, 1, 88, 84
6, 255104, Note_on_c, 1, 79, 0
6, 255104, Note_on_c, 1, 88, 0
6, 255105, Note_on_c, 1, 89, 84
6, 255120, Note_on_c, 1, 79, 84
6, 255149, Note_on_c, 1, 89, 0
6, 255150, Note_on_c, 1, 86, 84
6, 255194, Note_on_c, 1, 86, 0
6, 255195, Note_on_c, 1, 88, 84
6, 255224, Note_on_c, 1, 79, 0
6, 255239, Note_on_c, 1, 88, 0
6, 255240, Note_on_c, 1, 81, 84
6, 255240, Note_on_c, 1, 89, 84
6, 255344, Note_on_c, 1, 81, 0
6, 255344, Note_on_c, 1, 89, 0
6, 255360, Note_on_c, 1, 84, 84
6, 255360, Note_on_c, 1, 81, 84
6, 255464, Note_on_c, 1, 84, 0
6, 255464, Note_on_c, 1, 81, 0
6, 255480, Note_on_c, 1, 81, 84
6, 255480, Note_on_c, 1, 77, 84
6, 255584, Note_on_c, 1, 81, 0
6, 255584, Note_on_c, 1, 77, 0
6, 255600, Note_on_c, 1, 88, 84
6, 255644, Note_on_c, 1, 88, 0
6, 255645, Note_on_c, 1, 89, 84
6, 255689, Note_on_c, 1, 89, 0
6, 255690, Note_on_c, 1, 88, 84
6, 255720, Note_on_c, 1, 79, 84
6, 255734, Note_on_c, 1, 88, 0
6, 255735, Note_on_c, 1, 89, 84
6, 255779, Note_on_c, 1, 89, 0
6, 255780, Note_on_c, 1, 88, 84
6, 255824, Note_on_c, 1, 79, 0
6, 255824, Note_on_c, 1, 88, 0
6, 255825, Note_on_c, 1, 89, 84
6, 255840, Note_on_c, 1, 79, 84
6, 255869, Note_on_c, 1, 89, 0
6, 255870, Note_on_c, 1, 86, 84
6, 255914, Note_on_c, 1, 86, 0
6, 255915, Note_on_c, 1, 88, 84
6, 255944, Note_on_c, 1, 79, 0
6, 255959, Note_on_c, 1, 88, 0
6, 255960, Note_on_c, 1, 89, 84
6, 255960, Note_on_c, 1, 81, 84
6, 256064, Note_on_c, 1, 89, 0
6, 256064, Note_on_c, 1, 81, 0
6, 256080, Note_on_c, 1, 81, 84
6, 256080, Note_on_c, 1, 84, 84
6, 256184, Note_on_c, 1, 81, 0
6, 256184, Note_on_c, 1, 84, 0
6, 256200, Note_on_c, 1, 81, 84
6, 256200, Note_on_c, 1, 77, 84
6, 256304, Note_on_c, 1, 81, 0
6, 256304, Note_on_c, 1, 77, 0
6, 256320, Note_on_c, 1, 88, 84
6, 256364, Note_on_c, 1, 88, 0
6, 256365, Note_on_c, 1, 89, 84
6, 256409, Note_on_c, 1, 89, 0
6, 256410, Note_on_c, 1, 88, 84
6, 256440, Note_on_c, 1, 79, 84
6, 256454, Note_on_c, 1, 88, 0
6, 256455, Note_on_c, 1, 89, 84
6, 256499, Note_on_c, 1, 89, 0
6, 256500, Note_on_c, 1, 88, 84
6, 256544, Note_on_c, 1, 79, 0
6, 256544, Note_on_c, 1, 88, 0
6, 256545, Note_on_c, 1, 89, 84
6, 256560, Note_on_c, 1, 79, 84
6, 256589, Note_on_c, 1, 89, 0
6, 256590, Note_on_c, 1, 86, 84
6, 256634, Note_on_c, 1, 86, 0
6, 256635, Note_on_c, 1, 88, 84
6, 256664, Note_on_c, 1, 79, 0
6, 256679, Note_on_c, 1, 88, 0
6, 256680, Note_on_c, 1, 81, 84
6, 256680, Note_on_c, 1, 89, 84
6, 256784, Note_on_c, 1, 81, 0
6, 256784, Note_on_c, 1, 89, 0
6, 256800, Note_on_c, 1, 84, 84
6, 256904, Note_on_c, 1, 84, 0
6, 256920, Note_on_c, 1, 81, 84
6, 257024, Note_on_c, 1, 81, 0
6, 257040, Note_on_c, 1, 77, 84
6, 257144, Note_on_c, 1, 77, 0
6, 257160, Note_on_c, 1, 72, 84
6, 257264, Note_on_c, 1, 72, 0
6, 257280, Note_on_c, 1, 69, 84
6, 257384, Note_on_c, 1, 69, 0
6, 257400, Note_on_c, 1, 77, 84
6, 257519, Note_on_c, 1, 77, 0
6, 259080, Note_on_c, 1, 89, 84
6, 259080, Note_on_c, 1, 77, 84
6, 259151, Note_on_c, 1, 89, 0
6, 259151, Note_on_c, 1, 77, 0
6, 259160, Note_on_c, 1, 77, 84
6, 259160, Note_on_c, 1, 89, 84
6, 259199, Note_on_c, 1, 77, 0
6, 259199, Note_on_c, 1, 89, 0
6, 259200, Note_on_c, 1, 93, 92
6, 259200, Note_on_c, 1, 81, 92
6, 259319, Note_on_c, 1, 93, 0
6, 259319, Note_on_c, 1, 81, 0
6, 259320, Note_on_c, 1, 77, 84
6, 259320, Note_on_c, 1, 89, 84
6, 259379, Note_on_c, 1, 77, 0
6, 259379, Note_on_c, 1, 89, 0
6, 259440, Note_on_c, 1, 89, 84
6, 259440, Note_on_c, 1, 77, 84
6, 259511, Note_on_c, 1, 89, 0
6, 259511, Note_on_c, 1, 77, 0
6, 259520, Note_on_c, 1, 77, 84
6, 259520, Note_on_c, 1, 89, 84
6, 259559, Note_on_c, 1, 77, 0
6, 259559, Note_on_c, 1, 89, 0
6, 259560, Note_on_c, 1, 93, 92
6, 259560, Note_on_c, 1, 81, 92
6, 259679, Note_on_c, 1, 93, 0
6, 259679, Note_on_c, 1, 81, 0
6, 259680, Note_on_c, 1, 89, 84
6, 259680, Note_on_c, 1, 77, 84
6, 259784, Note_on_c, 1, 89, 0
6, 259784, Note_on_c, 1, 77, 0
6, 259800, Note_on_c, 1, 77, 84
6, 259800, Note_on_c, 1, 89, 84
6, 259871, Note_on_c, 1, 77, 0
6, 259871, Note_on_c, 1, 89, 0
6, 259880, Note_on_c, 1, 77, 84
6, 259880, Note_on_c, 1, 89, 84
6, 259919, Note_on_c, 1, 77, 0
6, 259919, Note_on_c, 1, 89, 0
6, 259920, Note_on_c, 1, 81, 92
6, 259920, Note_on_c, 1, 93, 92
6, 260039, Note_on_c, 1, 81, 0
6, 260039, Note_on_c, 1, 93, 0
6, 260040, Note_on_c, 1, 89, 84
6, 260040, Note_on_c, 1, 77, 84
6, 260144, Note_on_c, 1, 89, 0
6, 260144, Note_on_c, 1, 77, 0
6, 260160, Note_on_c, 1, 89, 84
6, 260160, Note_on_c, 1, 77, 84
6, 260231, Note_on_c, 1, 89, 0
6, 260231, Note_on_c, 1, 77, 0
6, 260240, Note_on_c, 1, 77, 84
6, 260240, Note_on_c, 1, 89, 84
6, 260279, Note_on_c, 1, 77, 0
6, 260279, Note_on_c, 1, 89, 0
6, 260280, Note_on_c, 1, 93, 92
6, 260280, Note_on_c, 1, 81, 92
6, 260399, Note_on_c, 1, 93, 0
6, 260399, Note_on_c, 1, 81, 0
6, 260400, Note_on_c, 1, 89, 84
6, 260400, Note_on_c, 1, 77, 84
6, 260504, Note_on_c, 1, 89, 0
6, 260504, Note_on_c, 1, 77, 0
6, 260520, Note_on_c, 1, 89, 84
6, 260520, Note_on_c, 1, 77, 84
6, 260609, Note_on_c, 1, 89, 0
6, 260609, Note_on_c, 1, 77, 0
6, 260640, Note_on_c, 1, 81, 84
6, 260640, Control_c, 1, 11, 127
6, 260640, Note_on_c, 1, 93, 84
6, 260680, Control_c, 1, 11, 125
6, 260720, Control_c, 1, 11, 124
6, 260760, Control_c, 1, 11, 122
6, 260800, Control_c, 1, 11, 120
6, 260840, Control_c, 1, 11, 118
6, 260880, Control_c, 1, 11, 117
6, 260920, Control_c, 1, 11, 115
6, 260960, Control_c, 1, 11, 113
6, 261000, Control_c, 1, 11, 111
6, 261040, Control_c, 1, 11, 110
6, 261080, Control_c, 1, 11, 108
6, 261120, Control_c, 1, 11, 106
6, 261160, Control_c, 1, 11, 104
6, 261200, Control_c, 1, 11, 103
6, 261240, Control_c, 1, 11, 101
6, 261280, Control_c, 1, 11, 99
6, 261320, Control_c, 1, 11, 97
6, 261360, Control_c, 1, 11, 96
6, 261400, Control_c, 1, 11, 94
6, 261440, Control_c, 1, 11, 92
6, 261480, Control_c, 1, 11, 90
6, 261520, Control_c, 1, 11, 89
6, 261560, Control_c, 1, 11, 87
6, 261600, Control_c, 1, 11, 85
6, 261640, Control_c, 1, 11, 83
6, 261680, Control_c, 1, 11, 82
6, 261720, Control_c, 1, 11, 80
6, 261760, Control_c, 1, 11, 78
6, 261800, Control_c, 1, 11, 76
6, 261840, Control_c, 1, 11, 75
6, 261880, Control_c, 1, 11, 73
6, 261920, Control_c, 1, 11, 71
6, 261960, Control_c, 1, 11, 69
6, 262000, Control_c, 1, 11, 68
6, 262040, Control_c, 1, 11, 64
6, 262064, Note_on_c, 1, 81, 0
6, 262064, Note_on_c, 1, 93, 0
6, 262080, Note_on_c, 1, 86, 84
6, 262080, Note_on_c, 1, 74, 84
6, 262319, Note_on_c, 1, 86, 0
6, 262319, Note_on_c, 1, 74, 0
6, 273600, Control_c, 1, 11, 96
6, 274320, Note_on_c, 1, 86, 68
6, 274320, Note_on_c, 1, 74, 68
6, 274320, Control_c, 1, 11, 96
6, 274373, Control_c, 1, 11, 99
6, 274427, Control_c, 1, 11, 103
6, 274480, Control_c, 1, 11, 106
6, 274533, Control_c, 1, 11, 110
6, 274587, Control_c, 1, 11, 113
6, 274640, Control_c, 1, 11, 117
6, 274693, Control_c, 1, 11, 120
6, 274747, Control_c, 1, 11, 124
6, 274800, Control_c, 1, 11, 127
6, 274853, Control_c, 1, 11, 124
6, 274907, Control_c, 1, 11, 120
6, 274919, Note_on_c, 1, 86, 0
6, 274919, Note_on_c, 1, 74, 0
6, 274920, Note_on_c, 1, 73, 68
6, 274920, Note_on_c, 1, 85, 68
6, 274960, Control_c, 1, 11, 117
6, 275013, Control_c, 1, 11, 113
6, 275039, Note_on_c, 1, 73, 0
6, 275039, Note_on_c, 1, 85, 0
6, 275040, Note_on_c, 1, 74, 68
6, 275040, Note_on_c, 1, 86, 68
6, 275067, Control_c, 1, 11, 110
6, 275120, Control_c, 1, 11, 106
6, 275173, Control_c, 1, 11, 103
6, 275227, Control_c, 1, 11, 99
6, 275279, Note_on_c, 1, 74, 0
6, 275279, Note_on_c, 1, 86, 0
6, 275280, Control_c, 1, 11, 96
6, 275760, Note_on_c, 1, 74, 68
6, 275760, Control_c, 1, 11, 96
6, 275760, Note_on_c, 1, 86, 68
6, 275813, Control_c, 1, 11, 99
6, 275867, Control_c, 1, 11, 103
6, 275920, Control_c, 1, 11, 106
6, 275973, Control_c, 1, 11, 110
6, 276027, Control_c, 1, 11, 113
6, 276080, Control_c, 1, 11, 117
6, 276133, Control_c, 1, 11, 120
6, 276187, Control_c, 1, 11, 124
6, 276240, Control_c, 1, 11, 127
6, 276293, Control_c, 1, 11, 124
6, 276347, Control_c, 1, 11, 120
6, 276359, Note_on_c, 1, 74, 0
6, 276359, Note_on_c, 1, 86, 0
6, 276360, Note_on_c, 1, 73, 68
6, 276360, Note_on_c, 1, 85, 68
6, 276400, Control_c, 1, 11, 117
6, 276453, Control_c, 1, 11, 113
6, 276479, Note_on_c, 1, 73, 0
6, 276479, Note_on_c, 1, 85, 0
6, 276480, Note_on_c, 1, 74, 68
6, 276480, Note_on_c, 1, 86, 68
6, 276507, Control_c, 1, 11, 110
6, 276560, Control_c, 1, 11, 106
6, 276613, Control_c, 1, 11, 103
6, 276667, Control_c, 1, 11, 99
6, 276719, Note_on_c, 1, 74, 0
6, 276719, Note_on_c, 1, 86, 0
6, 276720, Control_c, 1, 11, 96
6, 280080, Control_c, 1, 11, 96
6, 280080, Note_on_c, 1, 76, 68
6, 280080, Note_on_c, 1, 88, 68
6, 280133, Control_c, 1, 11, 99
6, 280187, Control_c, 1, 11, 103
6, 280240, Control_c, 1, 11, 106
6, 280293, Control_c, 1, 11, 110
6, 280347, Control_c, 1, 11, 113
6, 280400, Control_c, 1, 11, 117
6, 280453, Control_c, 1, 11, 120
6, 280507, Control_c, 1, 11, 124
6, 280560, Control_c, 1, 11, 127
6, 280613, Control_c, 1, 11, 124
6, 280667, Control_c, 1, 11, 120
6, 280679, Note_on_c, 1, 76, 0
6, 280679, Note_on_c, 1, 88, 0
6, 280680, Note_on_c, 1, 87, 68
6, 280680, Note_on_c, 1, 75, 68
6, 280720, Control_c, 1, 11, 117
6, 280773, Control_c, 1, 11, 113
6, 280799, Note_on_c, 1, 87, 0
6, 280799, Note_on_c, 1, 75, 0
6, 280800, Note_on_c, 1, 76, 68
6, 280800, Note_on_c, 1, 88, 68
6, 280827, Control_c, 1, 11, 110
6, 280880, Control_c, 1, 11, 106
6, 280933, Control_c, 1, 11, 103
6, 280987, Control_c, 1, 11, 99
6, 281039, Note_on_c, 1, 76, 0
6, 281039, Note_on_c, 1, 88, 0
6, 281040, Control_c, 1, 11, 96
6, 281520, Control_c, 1, 11, 96
6, 281520, Note_on_c, 1, 76, 68
6, 281520, Note_on_c, 1, 88, 68
6, 281573, Control_c, 1, 11, 99
6, 281627, Control_c, 1, 11, 103
6, 281680, Control_c, 1, 11, 106
6, 281733, Control_c, 1, 11, 110
6, 281787, Control_c, 1, 11, 113
6, 281840, Control_c, 1, 11, 117
6, 281893, Control_c, 1, 11, 120
6, 281947, Control_c, 1, 11, 124
6, 282000, Control_c, 1, 11, 127
6, 282053, Control_c, 1, 11, 124
6, 282107, Control_c, 1, 11, 120
6, 282119, Note_on_c, 1, 76, 0
6, 282119, Note_on_c, 1, 88, 0
6, 282120, Note_on_c, 1, 87, 68
6, 282120, Note_on_c, 1, 75, 68
6, 282160, Control_c, 1, 11, 117
6, 282213, Control_c, 1, 11, 113
6, 282239, Note_on_c, 1, 87, 0
6, 282239, Note_on_c, 1, 75, 0
6, 282240, Note_on_c, 1, 88, 68
6, 282240, Note_on_c, 1, 76, 68
6, 282267, Control_c, 1, 11, 110
6, 282320, Control_c, 1, 11, 106
6, 282373, Control_c, 1, 11, 103
6, 282427, Control_c, 1, 11, 99
6, 282479, Note_on_c, 1, 88, 0
6, 282479, Note_on_c, 1, 76, 0
6, 282480, Control_c, 1, 11, 96
6, 284880, Control_c, 1, 11, 127
6, 285120, Note_on_c, 1, 81, 48
6, 286319, Note_on_c, 1, 81, 0
6, 286320, Note_on_c, 1, 83, 48
6, 286539, Note_on_c, 1, 83, 0
6, 286560, Note_on_c, 1, 79, 48
6, 287759, Note_on_c, 1, 79, 0
6, 287760, Note_on_c, 1, 81, 48
6, 287979, Note_on_c, 1, 81, 0
6, 288000, Note_on_c, 1, 78, 48
6, 288519, Note_on_c, 1, 78, 0
6, 288540, Note_on_c, 1, 79, 48
6, 288599, Note_on_c, 1, 79, 0
6, 288600, Note_on_c, 1, 78, 48
6, 288659, Note_on_c, 1, 78, 0
6, 288660, Note_on_c, 1, 76, 48
6, 288719, Note_on_c, 1, 76, 0
6, 288720, Note_on_c, 1, 78, 48
6, 288959, Note_on_c, 1, 78, 0
6, 288960, Note_on_c, 1, 81, 48
6, 289199, Note_on_c, 1, 81, 0
6, 289200, Note_on_c, 1, 79, 48
6, 289419, Note_on_c, 1, 79, 0
6, 289440, Note_on_c, 1, 78, 48
6, 290159, Note_on_c, 1, 78, 0
6, 290160, Note_on_c, 1, 76, 48
6, 290399, Note_on_c, 1, 76, 0
6, 290880, Note_on_c, 1, 81, 48
6, 291399, Note_on_c, 1, 81, 0
6, 291420, Note_on_c, 1, 83, 48
6, 291479, Note_on_c, 1, 83, 0
6, 291480, Note_on_c, 1, 81, 48
6, 291539, Note_on_c, 1, 81, 0
6, 291540, Note_on_c, 1, 80, 48
6, 291599, Note_on_c, 1, 80, 0
6, 291600, Note_on_c, 1, 81, 48
6, 291839, Note_on_c, 1, 81, 0
6, 291840, Note_on_c, 1, 85, 48
6, 292079, Note_on_c, 1, 85, 0
6, 292080, Note_on_c, 1, 83, 48
6, 292299, Note_on_c, 1, 83, 0
6, 292320, Note_on_c, 1, 81, 48
6, 292799, Note_on_c, 1, 81, 0
6, 292800, Note_on_c, 1, 79, 48
6, 293279, Note_on_c, 1, 79, 0
6, 293280, Note_on_c, 1, 83, 48
6, 293519, Note_on_c, 1, 83, 0
6, 293520, Note_on_c, 1, 81, 48
6, 293739, Note_on_c, 1, 81, 0
6, 293758, Control_c, 1, 11, 96
6, 293760, Note_on_c, 1, 79, 64
6, 293820, Control_c, 1, 11, 99
6, 293880, Control_c, 1, 11, 101
6, 293940, Control_c, 1, 11, 104
6, 293999, Note_on_c, 1, 79, 0
6, 294000, Note_on_c, 1, 78, 64
6, 294000, Control_c, 1, 11, 106
6, 294060, Control_c, 1, 11, 109
6, 294120, Control_c, 1, 11, 112
6, 294180, Control_c, 1, 11, 114
6, 294239, Note_on_c, 1, 78, 0
6, 294240, Control_c, 1, 11, 117
6, 294240, Note_on_c, 1, 81, 64
6, 294300, Control_c, 1, 11, 119
6, 294360, Control_c, 1, 11, 122
6, 294420, Control_c, 1, 11, 124
6, 294479, Note_on_c, 1, 81, 0
6, 294480, Control_c, 1, 11, 127
6, 294480, Note_on_c, 1, 86, 64
6, 294540, Control_c, 1, 11, 124
6, 294600, Control_c, 1, 11, 122
6, 294660, Control_c, 1, 11, 119
6, 294719, Note_on_c, 1, 86, 0
6, 294720, Control_c, 1, 11, 117
6, 294720, Note_on_c, 1, 81, 64
6, 294780, Control_c, 1, 11, 114
6, 294840, Control_c, 1, 11, 112
6, 294900, Control_c, 1, 11, 109
6, 294959, Note_on_c, 1, 81, 0
6, 294960, Note_on_c, 1, 78, 64
6, 294960, Control_c, 1, 11, 106
6, 295020, Control_c, 1, 11, 104
6, 295080, Control_c, 1, 11, 101
6, 295140, Control_c, 1, 11, 99
6, 295179, Note_on_c, 1, 78, 0
6, 295200, Control_c, 1, 11, 96
6, 295200, Note_on_c, 1, 76, 64
6, 295920, Control_c, 1, 11, 96
6, 295980, Control_c, 1, 11, 101
6, 296040, Control_c, 1, 11, 106
6, 296100, Control_c, 1, 11, 112
6, 296159, Note_on_c, 1, 76, 0
6, 296160, Control_c, 1, 11, 117
6, 296160, Note_on_c, 1, 81, 64
6, 296220, Control_c, 1, 11, 122
6, 296280, Control_c, 1, 11, 127
6, 296340, Control_c, 1, 11, 122
6, 296399, Note_on_c, 1, 81, 0
6, 296400, Control_c, 1, 11, 117
6, 296400, Note_on_c, 1, 78, 64
6, 296460, Control_c, 1, 11, 112
6, 296520, Control_c, 1, 11, 106
6, 296580, Control_c, 1, 11, 101
6, 296619, Note_on_c, 1, 78, 0
6, 296640, Control_c, 1, 11, 96
6, 296640, Note_on_c, 1, 76, 64
6, 297360, Control_c, 1, 11, 96
6, 297420, Control_c, 1, 11, 101
6, 297480, Control_c, 1, 11, 106
6, 297540, Control_c, 1, 11, 112
6, 297599, Note_on_c, 1, 76, 0
6, 297600, Note_on_c, 1, 81, 64
6, 297600, Control_c, 1, 11, 117
6, 297660, Control_c, 1, 11, 122
6, 297720, Control_c, 1, 11, 127
6, 297780, Control_c, 1, 11, 122
6, 297839, Note_on_c, 1, 81, 0
6, 297840, Note_on_c, 1, 78, 64
6, 297840, Control_c, 1, 11, 117
6, 297900, Control_c, 1, 11, 112
6, 297960, Control_c, 1, 11, 106
6, 298020, Control_c, 1, 11, 101
6, 298059, Note_on_c, 1, 78, 0
6, 298080, Control_c, 1, 11, 96
6, 298080, Note_on_c, 1, 76, 64
6, 298319, Note_on_c, 1, 76, 0
6, 302606, Control_c, 1, 11, 109
6, 302640, Note_on_c, 1, 88, 84
6, 302640, Note_on_c, 1, 91, 84
6, 302674, Control_c, 1, 11, 110
6, 302743, Control_c, 1, 11, 111
6, 302811, Control_c, 1, 11, 112
6, 302880, Control_c, 1, 11, 113
6, 302949, Control_c, 1, 11, 114
6, 303017, Control_c, 1, 11, 115
6, 303086, Control_c, 1, 11, 116
6, 303099, Note_on_c, 1, 88, 0
6, 303099, Note_on_c, 1, 91, 0
6, 303120, Note_on_c, 1, 88, 84
6, 303120, Note_on_c, 1, 91, 84
6, 303154, Control_c, 1, 11, 117
6, 303223, Control_c, 1, 11, 118
6, 303291, Control_c, 1, 11, 119
6, 303360, Control_c, 1, 11, 120
6, 303429, Control_c, 1, 11, 121
6, 303497, Control_c, 1, 11, 122
6, 303566, Control_c, 1, 11, 123
6, 303579, Note_on_c, 1, 88, 0
6, 303579, Note_on_c, 1, 91, 0
6, 303600, Note_on_c, 1, 91, 84
6, 303600, Note_on_c, 1, 88, 84
6, 303634, Control_c, 1, 11, 124
6, 303703, Control_c, 1, 11, 125
6, 303771, Control_c, 1, 11, 127
6, 303819, Note_on_c, 1, 91, 0
6, 303819, Note_on_c, 1, 88, 0
6, 303840, Note_on_c, 1, 86, 84
6, 303840, Note_on_c, 1, 90, 84
6, 304439, Note_on_c, 1, 86, 0
6, 304439, Note_on_c, 1, 90, 0
6, 304440, Note_on_c, 1, 91, 84
6, 304440, Note_on_c, 1, 88, 84
6, 304559, Note_on_c, 1, 91, 0
6, 304559, Note_on_c, 1, 88, 0
6, 304560, Note_on_c, 1, 90, 84
6, 304560, Note_on_c, 1, 86, 84
6, 304799, Note_on_c, 1, 90, 0
6, 304799, Note_on_c, 1, 86, 0
6, 305280, Note_on_c, 1, 86, 84
6, 305280, Note_on_c, 1, 90, 84
6, 305879, Note_on_c, 1, 86, 0
6, 305879, Note_on_c, 1, 90, 0
6, 305880, Note_on_c, 1, 91, 84
6, 305880, Note_on_c, 1, 88, 84
6, 305999, Note_on_c, 1, 91, 0
6, 305999, Note_on_c, 1, 88, 0
6, 306000, Note_on_c, 1, 86, 84
6, 306000, Note_on_c, 1, 90, 84
6, 306239, Note_on_c, 1, 86, 0
6, 306239, Note_on_c, 1, 90, 0
6, 306720, Note_on_c, 1, 86, 84
6, 306720, Note_on_c, 1, 90, 84
6, 307199, Note_on_c, 1, 86, 0
6, 307199, Note_on_c, 1, 90, 0
6, 307200, Note_on_c, 1, 88, 84
6, 307200, Note_on_c, 1, 85, 84
6, 307439, Note_on_c, 1, 88, 0
6, 307439, Note_on_c, 1, 85, 0
6, 307440, Note_on_c, 1, 86, 84
6, 307440, Note_on_c, 1, 90, 84
6, 307679, Note_on_c, 1, 86, 0
6, 307679, Note_on_c, 1, 90, 0
6, 307680, Note_on_c, 1, 88, 84
6, 307680, Note_on_c, 1, 91, 84
6, 307899, Note_on_c, 1, 88, 0
6, 307899, Note_on_c, 1, 91, 0
6, 307920, Note_on_c, 1, 86, 84
6, 307920, Note_on_c, 1, 90, 84
6, 308099, Note_on_c, 1, 86, 0
6, 308099, Note_on_c, 1, 90, 0
6, 308160, Note_on_c, 1, 88, 84
6, 308160, Note_on_c, 1, 85, 84
6, 308399, Note_on_c, 1, 88, 0
6, 308399, Note_on_c, 1, 85, 0
6, 309600, Note_on_c, 1, 85, 84
6, 309600, Note_on_c, 1, 88, 84
6, 310199, Note_on_c, 1, 85, 0
6, 310199, Note_on_c, 1, 88, 0
6, 310200, Note_on_c, 1, 84, 84
6, 310200, Note_on_c, 1, 87, 84
6, 310319, Note_on_c, 1, 84, 0
6, 310319, Note_on_c, 1, 87, 0
6, 310320, Note_on_c, 1, 85, 84
6, 310320, Note_on_c, 1, 88, 84
6, 310559, Note_on_c, 1, 85, 0
6, 310559, Note_on_c, 1, 88, 0
6, 311040, Note_on_c, 1, 88, 84
6, 311040, Note_on_c, 1, 85, 84
6, 311639, Note_on_c, 1, 88, 0
6, 311639, Note_on_c, 1, 85, 0
6, 311640, Note_on_c, 1, 87, 84
6, 311640, Note_on_c, 1, 84, 84
6, 311759, Note_on_c, 1, 87, 0
6, 311759, Note_on_c, 1, 84, 0
6, 311760, Note_on_c, 1, 85, 84
6, 311760, Note_on_c, 1, 88, 84
6, 311999, Note_on_c, 1, 85, 0
6, 311999, Note_on_c, 1, 88, 0
6, 312480, Note_on_c, 1, 88, 84
6, 312480, Note_on_c, 1, 85, 84
6, 312959, Note_on_c, 1, 88, 0
6, 312959, Note_on_c, 1, 85, 0
6, 312960, Note_on_c, 1, 90, 84
6, 312960, Note_on_c, 1, 86, 84
6, 313199, Note_on_c, 1, 90, 0
6, 313199, Note_on_c, 1, 86, 0
6, 313200, Note_on_c, 1, 90, 84
6, 313200, Note_on_c, 1, 93, 84
6, 313439, Note_on_c, 1, 90, 0
6, 313439, Note_on_c, 1, 93, 0
6, 313440, Note_on_c, 1, 91, 84
6, 313440, Note_on_c, 1, 88, 84
6, 313659, Note_on_c, 1, 91, 0
6, 313659, Note_on_c, 1, 88, 0
6, 313680, Note_on_c, 1, 85, 84
6, 313680, Note_on_c, 1, 88, 84
6, 313859, Note_on_c, 1, 85, 0
6, 313859, Note_on_c, 1, 88, 0
6, 313920, Note_on_c, 1, 86, 84
6, 314159, Note_on_c, 1, 86, 0
6, 315360, Note_on_c, 1, 81, 48
6, 316559, Note_on_c, 1, 81, 0
6, 316560, Note_on_c, 1, 83, 48
6, 316779, Note_on_c, 1, 83, 0
6, 316800, Note_on_c, 1, 79, 48
6, 317999, Note_on_c, 1, 79, 0
6, 318000, Note_on_c, 1, 81, 48
6, 318219, Note_on_c, 1, 81, 0
6, 318240, Note_on_c, 1, 78, 48
6, 318759, Note_on_c, 1, 78, 0
6, 318780, Note_on_c, 1, 79, 48
6, 318839, Note_on_c, 1, 79, 0
6, 318840, Note_on_c, 1, 78, 48
6, 318899, Note_on_c, 1, 78, 0
6, 318900, Note_on_c, 1, 76, 48
6, 318959, Note_on_c, 1, 76, 0
6, 318960, Note_on_c, 1, 78, 48
6, 319199, Note_on_c, 1, 78, 0
6, 319200, Note_on_c, 1, 81, 48
6, 319439, Note_on_c, 1, 81, 0
6, 319440, Note_on_c, 1, 79, 48
6, 319659, Note_on_c, 1, 79, 0
6, 319680, Note_on_c, 1, 78, 48
6, 320399, Note_on_c, 1, 78, 0
6, 320400, Note_on_c, 1, 76, 48
6, 320639, Note_on_c, 1, 76, 0
6, 321120, Note_on_c, 1, 81, 48
6, 321639, Note_on_c, 1, 81, 0
6, 321660, Note_on_c, 1, 83, 48
6, 321719, Note_on_c, 1, 83, 0
6, 321720, Note_on_c, 1, 81, 48
6, 321779, Note_on_c, 1, 81, 0
6, 321780, Note_on_c, 1, 80, 48
6, 321839, Note_on_c, 1, 80, 0
6, 321840, Note_on_c, 1, 81, 48
6, 322079, Note_on_c, 1, 81, 0
6, 322080, Note_on_c, 1, 85, 48
6, 322319, Note_on_c, 1, 85, 0
6, 322320, Note_on_c, 1, 83, 48
6, 322539, Note_on_c, 1, 83, 0
6, 322560, Note_on_c, 1, 81, 48
6, 323039, Note_on_c, 1, 81, 0
6, 323040, Note_on_c, 1, 79, 48
6, 323519, Note_on_c, 1, 79, 0
6, 323520, Note_on_c, 1, 83, 48
6, 323759, Note_on_c, 1, 83, 0
6, 323760, Note_on_c, 1, 81, 48
6, 323979, Note_on_c, 1, 81, 0
6, 323998, Control_c, 1, 11, 96
6, 324000, Note_on_c, 1, 79, 64
6, 324060, Control_c, 1, 11, 99
6, 324120, Control_c, 1, 11, 101
6, 324180, Control_c, 1, 11, 104
6, 324239, Note_on_c, 1, 79, 0
6, 324240, Control_c, 1, 11, 106
6, 324240, Note_on_c, 1, 78, 64
6, 324300, Control_c, 1, 11, 109
6, 324360, Control_c, 1, 11, 112
6, 324420, Control_c, 1, 11, 114
6, 324479, Note_on_c, 1, 78, 0
6, 324480, Control_c, 1, 11, 117
6, 324480, Note_on_c, 1, 81, 64
6, 324540, Control_c, 1, 11, 119
6, 324600, Control_c, 1, 11, 122
6, 324660, Control_c, 1, 11, 124
6, 324719, Note_on_c, 1, 81, 0
6, 324720, Control_c, 1, 11, 127
6, 324720, Note_on_c, 1, 86, 64
6, 324780, Control_c, 1, 11, 124
6, 324840, Control_c, 1, 11, 122
6, 324900, Control_c, 1, 11, 119
6, 324959, Note_on_c, 1, 86, 0
6, 324960, Control_c, 1, 11, 117
6, 324960, Note_on_c, 1, 81, 64
6, 325020, Control_c, 1, 11, 114
6, 325080, Control_c, 1, 11, 112
6, 325140, Control_c, 1, 11, 109
6, 325199, Note_on_c, 1, 81, 0
6, 325200, Control_c, 1, 11, 106
6, 325200, Note_on_c, 1, 78, 64
6, 325260, Control_c, 1, 11, 104
6, 325320, Control_c, 1, 11, 101
6, 325380, Control_c, 1, 11, 99
6, 325419, Note_on_c, 1, 78, 0
6, 325440, Note_on_c, 1, 76, 64
6, 325440, Control_c, 1, 11, 96
6, 326160, Control_c, 1, 11, 96
6, 326220, Control_c, 1, 11, 101
6, 326280, Control_c, 1, 11, 106
6, 326340, Control_c, 1, 11, 112
6, 326399, Note_on_c, 1, 76, 0
6, 326400, Control_c, 1, 11, 117
6, 326400, Note_on_c, 1, 81, 64
6, 326460, Control_c, 1, 11, 122
6, 326520, Control_c, 1, 11, 127
6, 326580, Control_c, 1, 11, 122
6, 326639, Note_on_c, 1, 81, 0
6, 326640, Control_c, 1, 11, 117
6, 326640, Note_on_c, 1, 78, 64
6, 326700, Control_c, 1, 11, 112
6, 326760, Control_c, 1, 11, 106
6, 326820, Control_c, 1, 11, 101
6, 326859, Note_on_c, 1, 78, 0
6, 326880, Control_c, 1, 11, 96
6, 326880, Note_on_c, 1, 76, 64
6, 327600, Control_c, 1, 11, 96
6, 327660, Control_c, 1, 11, 101
6, 327720, Control_c, 1, 11, 106
6, 327780, Control_c, 1, 11, 112
6, 327839, Note_on_c, 1, 76, 0
6, 327840, Control_c, 1, 11, 117
6, 327840, Note_on_c, 1, 81, 64
6, 327900, Control_c, 1, 11, 122
6, 327960, Control_c, 1, 11, 127
6, 328020, Control_c, 1, 11, 122
6, 328079, Note_on_c, 1, 81, 0
6, 328080, Note_on_c, 1, 78, 64
6, 328080, Control_c, 1, 11, 117
6, 328140, Control_c, 1, 11, 112
6, 328200, Control_c, 1, 11, 106
6, 328260, Control_c, 1, 11, 101
6, 328299, Note_on_c, 1, 78, 0
6, 328320, Note_on_c, 1, 76, 64
6, 328320, Control_c, 1, 11, 96
6, 328559, Note_on_c, 1, 76, 0
6, 332846, Control_c, 1, 11, 109
6, 332880, Note_on_c, 1, 88, 84
6, 332880, Note_on_c, 1, 91, 84
6, 332914, Control_c, 1, 11, 110
6, 332983, Control_c, 1, 11, 111
6, 333051, Control_c, 1, 11, 112
6, 333120, Control_c, 1, 11, 113
6, 333189, Control_c, 1, 11, 114
6, 333257, Control_c, 1, 11, 115
6, 333326, Control_c, 1, 11, 116
6, 333339, Note_on_c, 1, 88, 0
6, 333339, Note_on_c, 1, 91, 0
6, 333360, Note_on_c, 1, 88, 84
6, 333360, Note_on_c, 1, 91, 84
6, 333394, Control_c, 1, 11, 117
6, 333463, Control_c, 1, 11, 118
6, 333531, Control_c, 1, 11, 119
6, 333600, Control_c, 1, 11, 120
6, 333669, Control_c, 1, 11, 121
6, 333737, Control_c, 1, 11, 122
6, 333806, Control_c, 1, 11, 123
6, 333819, Note_on_c, 1, 88, 0
6, 333819, Note_on_c, 1, 91, 0
6, 333840, Note_on_c, 1, 88, 84
6, 333840, Note_on_c, 1, 91, 84
6, 333874, Control_c, 1, 11, 124
6, 333943, Control_c, 1, 11, 125
6, 334011, Control_c, 1, 11, 127
6, 334059, Note_on_c, 1, 88, 0
6, 334059, Note_on_c, 1, 91, 0
6, 334080, Note_on_c, 1, 86, 84
6, 334080, Note_on_c, 1, 90, 84
6, 334679, Note_on_c, 1, 86, 0
6, 334679, Note_on_c, 1, 90, 0
6, 334680, Note_on_c, 1, 88, 84
6, 334680, Note_on_c, 1, 91, 84
6, 334799, Note_on_c, 1, 88, 0
6, 334799, Note_on_c, 1, 91, 0
6, 334800, Note_on_c, 1, 90, 84
6, 334800, Note_on_c, 1, 86, 84
6, 335039, Note_on_c, 1, 90, 0
6, 335039, Note_on_c, 1, 86, 0
6, 335520, Note_on_c, 1, 86, 84
6, 335520, Note_on_c, 1, 90, 84
6, 336119, Note_on_c, 1, 86, 0
6, 336119, Note_on_c, 1, 90, 0
6, 336120, Note_on_c, 1, 88, 84
6, 336120, Note_on_c, 1, 91, 84
6, 336239, Note_on_c, 1, 88, 0
6, 336239, Note_on_c, 1, 91, 0
6, 336240, Note_on_c, 1, 86, 84
6, 336240, Note_on_c, 1, 90, 84
6, 336479, Note_on_c, 1, 86, 0
6, 336479, Note_on_c, 1, 90, 0
6, 336960, Note_on_c, 1, 86, 84
6, 336960, Note_on_c, 1, 90, 84
6, 337439, Note_on_c, 1, 86, 0
6, 337439, Note_on_c, 1, 90, 0
6, 337440, Note_on_c, 1, 88, 84
6, 337440, Note_on_c, 1, 85, 84
6, 337679, Note_on_c, 1, 88, 0
6, 337679, Note_on_c, 1, 85, 0
6, 337680, Note_on_c, 1, 90, 84
6, 337680, Note_on_c, 1, 86, 84
6, 337919, Note_on_c, 1, 90, 0
6, 337919, Note_on_c, 1, 86, 0
6, 337920, Note_on_c, 1, 88, 84
6, 337920, Note_on_c, 1, 91, 84
6, 338139, Note_on_c, 1, 88, 0
6, 338139, Note_on_c, 1, 91, 0
6, 338160, Note_on_c, 1, 86, 84
6, 338160, Note_on_c, 1, 90, 84
6, 338339, Note_on_c, 1, 86, 0
6, 338339, Note_on_c, 1, 90, 0
6, 338400, Note_on_c, 1, 88, 84
6, 338400, Note_on_c, 1, 85, 84
6, 338639, Note_on_c, 1, 88, 0
6, 338639, Note_on_c, 1, 85, 0
6, 339840, Note_on_c, 1, 88, 84
6, 339840, Note_on_c, 1, 85, 84
6, 340439, Note_on_c, 1, 88, 0
6, 340439, Note_on_c, 1, 85, 0
6, 340440, Note_on_c, 1, 87, 84
6, 340440, Note_on_c, 1, 84, 84
6, 340559, Note_on_c, 1, 87, 0
6, 340559, Note_on_c, 1, 84, 0
6, 340560, Note_on_c, 1, 85, 84
6, 340560, Note_on_c, 1, 88, 84
6, 340799, Note_on_c, 1, 85, 0
6, 340799, Note_on_c, 1, 88, 0
6, 341280, Note_on_c, 1, 85, 84
6, 341280, Note_on_c, 1, 88, 84
6, 341879, Note_on_c, 1, 85, 0
6, 341879, Note_on_c, 1, 88, 0
6, 341880, Note_on_c, 1, 87, 84
6, 341880, Note_on_c, 1, 84, 84
6, 341999, Note_on_c, 1, 87, 0
6, 341999, Note_on_c, 1, 84, 0
6, 342000, Note_on_c, 1, 88, 84
6, 342000, Note_on_c, 1, 85, 84
6, 342239, Note_on_c, 1, 88, 0
6, 342239, Note_on_c, 1, 85, 0
6, 342720, Note_on_c, 1, 85, 84
6, 342720, Note_on_c, 1, 88, 84
6, 343199, Note_on_c, 1, 85, 0
6, 343199, Note_on_c, 1, 88, 0
6, 343200, Note_on_c, 1, 86, 84
6, 343200, Note_on_c, 1, 90, 84
6, 343439, Note_on_c, 1, 86, 0
6, 343439, Note_on_c, 1, 90, 0
6, 343440, Note_on_c, 1, 90, 84
6, 343440, Note_on_c, 1, 93, 84
6, 343679, Note_on_c, 1, 90, 0
6, 343679, Note_on_c, 1, 93, 0
6, 343680, Note_on_c, 1, 91, 84
6, 343680, Note_on_c, 1, 88, 84
6, 343899, Note_on_c, 1, 91, 0
6, 343899, Note_on_c, 1, 88, 0
6, 343920, Note_on_c, 1, 85, 84
6, 343920, Note_on_c, 1, 88, 84
6, 344099, Note_on_c, 1, 85, 0
6, 344099, Note_on_c, 1, 88, 0
6, 344160, Note_on_c, 1, 86, 84
6, 344399, Note_on_c, 1, 86, 0
6, 355440, Note_on_c, 1, 77, 76
6, 355511, Note_on_c, 1, 77, 0
6, 355520, Note_on_c, 1, 77, 76
6, 355559, Note_on_c, 1, 77, 0
6, 355560, Note_on_c, 1, 81, 76
6, 355679, Note_on_c, 1, 81, 0
6, 355680, Note_on_c, 1, 77, 76
6, 355739, Note_on_c, 1, 77, 0
6, 355800, Note_on_c, 1, 81, 76
6, 355800, Note_on_c, 1, 77, 76
6, 355871, Note_on_c, 1, 81, 0
6, 355871, Note_on_c, 1, 77, 0
6, 355880, Note_on_c, 1, 77, 76
6, 355880, Note_on_c, 1, 81, 76
6, 355919, Note_on_c, 1, 77, 0
6, 355919, Note_on_c, 1, 81, 0
6, 355920, Note_on_c, 1, 84, 76
6, 355920, Note_on_c, 1, 81, 76
6, 356039, Note_on_c, 1, 84, 0
6, 356039, Note_on_c, 1, 81, 0
6, 356040, Note_on_c, 1, 81, 76
6, 356040, Note_on_c, 1, 77, 76
6, 356099, Note_on_c, 1, 81, 0
6, 356099, Note_on_c, 1, 77, 0
6, 356160, Note_on_c, 1, 84, 76
6, 356160, Note_on_c, 1, 81, 76
6, 356264, Note_on_c, 1, 84, 0
6, 356264, Note_on_c, 1, 81, 0
6, 356280, Note_on_c, 1, 81, 52
6, 356280, Note_on_c, 1, 89, 52
6, 356369, Note_on_c, 1, 81, 0
6, 356369, Note_on_c, 1, 89, 0
6, 356400, Note_on_c, 1, 81, 52
6, 356400, Note_on_c, 1, 89, 52
6, 356489, Note_on_c, 1, 81, 0
6, 356489, Note_on_c, 1, 89, 0
6, 356520, Note_on_c, 1, 84, 52
6, 356520, Note_on_c, 1, 88, 52
6, 356609, Note_on_c, 1, 84, 0
6, 356609, Note_on_c, 1, 88, 0
6, 356640, Note_on_c, 1, 82, 52
6, 356640, Note_on_c, 1, 86, 52
6, 356729, Note_on_c, 1, 82, 0
6, 356729, Note_on_c, 1, 86, 0
6, 356760, Note_on_c, 1, 82, 52
6, 356760, Note_on_c, 1, 86, 52
6, 356849, Note_on_c, 1, 82, 0
6, 356849, Note_on_c, 1, 86, 0
6, 356880, Note_on_c, 1, 81, 52
6, 356880, Note_on_c, 1, 84, 52
6, 356969, Note_on_c, 1, 81, 0
6, 356969, Note_on_c, 1, 84, 0
6, 357000, Note_on_c, 1, 82, 52
6, 357000, Note_on_c, 1, 79, 52
6, 357089, Note_on_c, 1, 82, 0
6, 357089, Note_on_c, 1, 79, 0
6, 357120, Note_on_c, 1, 82, 52
6, 357120, Note_on_c, 1, 79, 52
6, 357209, Note_on_c, 1, 82, 0
6, 357209, Note_on_c, 1, 79, 0
6, 357240, Note_on_c, 1, 81, 52
6, 357240, Note_on_c, 1, 77, 52
6, 357329, Note_on_c, 1, 81, 0
6, 357329, Note_on_c, 1, 77, 0
6, 357360, Note_on_c, 1, 76, 52
6, 357360, Note_on_c, 1, 79, 52
6, 357704, Note_on_c, 1, 76, 0
6, 357704, Note_on_c, 1, 79, 0
6, 357720, Note_on_c, 1, 91, 52
6, 357720, Note_on_c, 1, 88, 52
6, 357809, Note_on_c, 1, 91, 0
6, 357809, Note_on_c, 1, 88, 0
6, 357840, Note_on_c, 1, 91, 52
6, 357840, Note_on_c, 1, 88, 52
6, 357929, Note_on_c, 1, 91, 0
6, 357929, Note_on_c, 1, 88, 0
6, 357960, Note_on_c, 1, 86, 52
6, 357960, Note_on_c, 1, 89, 52
6, 358049, Note_on_c, 1, 86, 0
6, 358049, Note_on_c, 1, 89, 0
6, 358080, Note_on_c, 1, 88, 52
6, 358080, Note_on_c, 1, 84, 52
6, 358169, Note_on_c, 1, 88, 0
6, 358169, Note_on_c, 1, 84, 0
6, 358200, Note_on_c, 1, 88, 52
6, 358200, Note_on_c, 1, 84, 52
6, 358289, Note_on_c, 1, 88, 0
6, 358289, Note_on_c, 1, 84, 0
6, 358320, Note_on_c, 1, 86, 52
6, 358320, Note_on_c, 1, 82, 52
6, 358409, Note_on_c, 1, 86, 0
6, 358409, Note_on_c, 1, 82, 0
6, 358440, Note_on_c, 1, 81, 52
6, 358440, Note_on_c, 1, 84, 52
6, 358529, Note_on_c, 1, 81, 0
6, 358529, Note_on_c, 1, 84, 0
6, 358560, Note_on_c, 1, 81, 52
6, 358560, Note_on_c, 1, 84, 52
6, 358649, Note_on_c, 1, 81, 0
6, 358649, Note_on_c, 1, 84, 0
6, 358680, Note_on_c, 1, 79, 52
6, 358680, Note_on_c, 1, 82, 52
6, 358769, Note_on_c, 1, 79, 0
6, 358769, Note_on_c, 1, 82, 0
6, 358800, Note_on_c, 1, 81, 52
6, 358800, Note_on_c, 1, 77, 52
6, 359159, Note_on_c, 1, 81, 0
6, 359159, Note_on_c, 1, 77, 0
6, 359880, Note_on_c, 1, 79, 52
6, 359969, Note_on_c, 1, 79, 0
6, 360000, Note_on_c, 1, 79, 60
6, 360089, Note_on_c, 1, 79, 0
6, 360120, Note_on_c, 1, 77, 68
6, 360209, Note_on_c, 1, 77, 0
6, 360240, Note_on_c, 1, 82, 76
6, 360479, Note_on_c, 1, 82, 0
6, 360480, Note_on_c, 1, 81, 76
6, 360584, Note_on_c, 1, 81, 0
6, 360600, Note_on_c, 1, 86, 84
6, 360839, Note_on_c, 1, 86, 0
6, 360840, Note_on_c, 1, 85, 76
6, 360944, Note_on_c, 1, 85, 0
6, 360960, Note_on_c, 1, 89, 84
6, 361199, Note_on_c, 1, 89, 0
6, 361200, Note_on_c, 1, 88, 76
6, 361304, Note_on_c, 1, 88, 0
6, 361320, Note_on_c, 1, 88, 76
6, 361664, Note_on_c, 1, 88, 0
6, 361680, Note_on_c, 1, 88, 76
6, 361799, Note_on_c, 1, 88, 0
6, 362040, Note_on_c, 1, 88, 76
6, 362384, Note_on_c, 1, 88, 0
6, 362400, Note_on_c, 1, 88, 76
6, 362519, Note_on_c, 1, 88, 0
6, 362760, Note_on_c, 1, 88, 76
6, 362880, Note_on_c, 1, 90, 76
6, 362999, Note_on_c, 1, 90, 0
6, 363000, Note_on_c, 1, 92, 76
6, 363104, Note_on_c, 1, 92, 0
6, 363120, Note_on_c, 1, 93, 76
6, 363209, Note_on_c, 1, 93, 0
6, 363224, Note_on_c, 1, 88, 0
6, 363240, Note_on_c, 1, 88, 76
6, 363329, Note_on_c, 1, 88, 0
6, 363360, Note_on_c, 1, 85, 76
6, 363449, Note_on_c, 1, 85, 0
6, 363480, Note_on_c, 1, 81, 76
6, 363569, Note_on_c, 1, 81, 0
6, 363600, Note_on_c, 1, 76, 76
6, 363689, Note_on_c, 1, 76, 0
6, 363720, Note_on_c, 1, 73, 76
6, 363809, Note_on_c, 1, 73, 0
6, 363840, Note_on_c, 1, 69, 76
6, 363929, Note_on_c, 1, 69, 0
6, 365520, Note_on_c, 1, 81, 52
6, 365609, Note_on_c, 1, 81, 0
6, 365640, Note_on_c, 1, 83, 52
6, 365729, Note_on_c, 1, 83, 0
6, 365760, Note_on_c, 1, 83, 52
6, 365849, Note_on_c, 1, 83, 0
6, 365880, Note_on_c, 1, 81, 52
6, 365969, Note_on_c, 1, 81, 0
6, 366000, Note_on_c, 1, 86, 52
6, 366239, Note_on_c, 1, 86, 0
6, 366240, Note_on_c, 1, 85, 52
6, 366344, Note_on_c, 1, 85, 0
6, 366360, Note_on_c, 1, 83, 52
6, 366449, Note_on_c, 1, 83, 0
6, 366480, Note_on_c, 1, 83, 52
6, 366569, Note_on_c, 1, 83, 0
6, 366600, Note_on_c, 1, 81, 52
6, 366689, Note_on_c, 1, 81, 0
6, 366720, Note_on_c, 1, 86, 52
6, 366959, Note_on_c, 1, 86, 0
6, 366960, Note_on_c, 1, 85, 52
6, 367064, Note_on_c, 1, 85, 0
6, 367080, Note_on_c, 1, 86, 44
6, 367319, Note_on_c, 1, 86, 0
6, 367320, Note_on_c, 1, 85, 44
6, 367424, Note_on_c, 1, 85, 0
6, 367440, Note_on_c, 1, 86, 44
6, 367679, Note_on_c, 1, 86, 0
6, 367680, Note_on_c, 1, 85, 44
6, 367784, Note_on_c, 1, 85, 0
6, 367800, Note_on_c, 1, 86, 44
6, 368039, Note_on_c, 1, 86, 0
6, 368040, Note_on_c, 1, 85, 44
6, 368144, Note_on_c, 1, 85, 0
6, 368160, Note_on_c, 1, 86, 44
6, 368399, Note_on_c, 1, 86, 0
6, 368400, Note_on_c, 1, 85, 44
6, 368519, Note_on_c, 1, 85, 0
6, 370920, Note_on_c, 1, 86, 84
6, 370920, Note_on_c, 1, 89, 84
6, 371024, Note_on_c, 1, 86, 0
6, 371024, Note_on_c, 1, 89, 0
6, 371040, Note_on_c, 1, 89, 84
6, 371040, Note_on_c, 1, 86, 84
6, 371159, Note_on_c, 1, 89, 0
6, 371159, Note_on_c, 1, 86, 0
6, 371280, Note_on_c, 1, 84, 52
6, 371369, Note_on_c, 1, 84, 0
6, 371400, Note_on_c, 1, 86, 52
6, 371489, Note_on_c, 1, 86, 0
6, 371520, Note_on_c, 1, 86, 52
6, 371609, Note_on_c, 1, 86, 0
6, 371640, Note_on_c, 1, 84, 52
6, 371729, Note_on_c, 1, 84, 0
6, 371760, Note_on_c, 1, 89, 52
6, 371999, Note_on_c, 1, 89, 0
6, 372000, Note_on_c, 1, 88, 52
6, 372104, Note_on_c, 1, 88, 0
6, 372120, Note_on_c, 1, 86, 52
6, 372209, Note_on_c, 1, 86, 0
6, 372240, Note_on_c, 1, 86, 52
6, 372329, Note_on_c, 1, 86, 0
6, 372360, Note_on_c, 1, 84, 52
6, 372449, Note_on_c, 1, 84, 0
6, 372480, Note_on_c, 1, 89, 52
6, 372719, Note_on_c, 1, 89, 0
6, 372720, Note_on_c, 1, 88, 52
6, 372824, Note_on_c, 1, 88, 0
6, 372840, Note_on_c, 1, 89, 44
6, 373079, Note_on_c, 1, 89, 0
6, 373080, Note_on_c, 1, 88, 44
6, 373184, Note_on_c, 1, 88, 0
6, 373200, Note_on_c, 1, 89, 44
6, 373439, Note_on_c, 1, 89, 0
6, 373440, Note_on_c, 1, 88, 44
6, 373544, Note_on_c, 1, 88, 0
6, 373560, Note_on_c, 1, 89, 44
6, 373799, Note_on_c, 1, 89, 0
6, 373800, Note_on_c, 1, 88, 44
6, 373904, Note_on_c, 1, 88, 0
6, 373920, Note_on_c, 1, 89, 44
6, 374159, Note_on_c, 1, 89, 0
6, 374160, Note_on_c, 1, 88, 44
6, 374279, Note_on_c, 1, 88, 0
6, 381840, Note_on_c, 1, 82, 52
6, 381929, Note_on_c, 1, 82, 0
6, 381960, Note_on_c, 1, 82, 52
6, 382049, Note_on_c, 1, 82, 0
6, 382080, Note_on_c, 1, 81, 53
6, 382169, Note_on_c, 1, 81, 0
6, 382200, Note_on_c, 1, 79, 53
6, 382289, Note_on_c, 1, 79, 0
6, 382320, Note_on_c, 1, 79, 54
6, 382409, Note_on_c, 1, 79, 0
6, 382440, Note_on_c, 1, 77, 54
6, 382529, Note_on_c, 1, 77, 0
6, 382560, Note_on_c, 1, 75, 55
6, 382649, Note_on_c, 1, 75, 0
6, 382680, Note_on_c, 1, 75, 56
6, 382769, Note_on_c, 1, 75, 0
6, 382800, Note_on_c, 1, 74, 56
6, 382889, Note_on_c, 1, 74, 0
6, 382920, Note_on_c, 1, 72, 57
6, 383009, Note_on_c, 1, 72, 0
6, 383280, Note_on_c, 1, 84, 58
6, 383369, Note_on_c, 1, 84, 0
6, 383400, Note_on_c, 1, 84, 59
6, 383489, Note_on_c, 1, 84, 0
6, 383520, Note_on_c, 1, 82, 60
6, 383609, Note_on_c, 1, 82, 0
6, 383640, Note_on_c, 1, 81, 60
6, 383729, Note_on_c, 1, 81, 0
6, 383760, Note_on_c, 1, 81, 61
6, 383849, Note_on_c, 1, 81, 0
6, 383880, Note_on_c, 1, 79, 61
6, 383969, Note_on_c, 1, 79, 0
6, 384000, Note_on_c, 1, 77, 62
6, 384089, Note_on_c, 1, 77, 0
6, 384120, Note_on_c, 1, 77, 62
6, 384209, Note_on_c, 1, 77, 0
6, 384240, Note_on_c, 1, 75, 63
6, 384329, Note_on_c, 1, 75, 0
6, 384360, Note_on_c, 1, 74, 64
6, 384479, Note_on_c, 1, 74, 0
6, 387120, Note_on_c, 1, 89, 76
6, 387120, Note_on_c, 1, 77, 76
6, 387191, Note_on_c, 1, 89, 0
6, 387191, Note_on_c, 1, 77, 0
6, 387200, Note_on_c, 1, 89, 76
6, 387200, Note_on_c, 1, 77, 76
6, 387239, Note_on_c, 1, 89, 0
6, 387239, Note_on_c, 1, 77, 0
6, 387240, Note_on_c, 1, 93, 76
6, 387240, Note_on_c, 1, 81, 76
6, 387359, Note_on_c, 1, 93, 0
6, 387359, Note_on_c, 1, 81, 0
6, 387360, Note_on_c, 1, 77, 76
6, 387360, Note_on_c, 1, 89, 76
6, 387419, Note_on_c, 1, 77, 0
6, 387419, Note_on_c, 1, 89, 0
6, 387480, Note_on_c, 1, 77, 76
6, 387480, Note_on_c, 1, 81, 76
6, 387551, Note_on_c, 1, 77, 0
6, 387551, Note_on_c, 1, 81, 0
6, 387560, Note_on_c, 1, 81, 76
6, 387560, Note_on_c, 1, 77, 76
6, 387599, Note_on_c, 1, 81, 0
6, 387599, Note_on_c, 1, 77, 0
6, 387600, Note_on_c, 1, 81, 76
6, 387600, Note_on_c, 1, 84, 76
6, 387719, Note_on_c, 1, 81, 0
6, 387719, Note_on_c, 1, 84, 0
6, 387720, Note_on_c, 1, 77, 76
6, 387720, Note_on_c, 1, 81, 76
6, 387779, Note_on_c, 1, 77, 0
6, 387779, Note_on_c, 1, 81, 0
6, 387840, Note_on_c, 1, 81, 76
6, 387840, Note_on_c, 1, 84, 76
6, 387944, Note_on_c, 1, 81, 0
6, 387944, Note_on_c, 1, 84, 0
6, 387960, Note_on_c, 1, 89, 84
6, 387960, Note_on_c, 1, 77, 84
6, 389159, Note_on_c, 1, 89, 0
6, 389159, Note_on_c, 1, 77, 0
6, 389160, Note_on_c, 1, 91, 84
6, 389160, Note_on_c, 1, 79, 84
6, 389264, Note_on_c, 1, 91, 0
6, 389264, Note_on_c, 1, 79, 0
6, 389280, Note_on_c, 1, 91, 84
6, 389280, Note_on_c, 1, 79, 84
6, 389369, Note_on_c, 1, 91, 0
6, 389369, Note_on_c, 1, 79, 0
6, 389400, Note_on_c, 1, 79, 84
6, 389400, Note_on_c, 1, 91, 84
6, 390599, Note_on_c, 1, 79, 0
6, 390599, Note_on_c, 1, 91, 0
6, 390600, Note_on_c, 1, 93, 84
6, 390600, Note_on_c, 1, 81, 84
6, 390704, Note_on_c, 1, 93, 0
6, 390704, Note_on_c, 1, 81, 0
6, 390720, Note_on_c, 1, 81, 84
6, 390720, Note_on_c, 1, 93, 84
6, 390809, Note_on_c, 1, 81, 0
6, 390809, Note_on_c, 1, 93, 0
6, 390960, Note_on_c, 1, 81, 52
6, 391049, Note_on_c, 1, 81, 0
6, 391080, Note_on_c, 1, 82, 52
6, 391169, Note_on_c, 1, 82, 0
6, 391200, Note_on_c, 1, 84, 52
6, 391289, Note_on_c, 1, 84, 0
6, 391320, Note_on_c, 1, 84, 52
6, 391409, Note_on_c, 1, 84, 0
6, 391440, Note_on_c, 1, 86, 52
6, 391529, Note_on_c, 1, 86, 0
6, 391560, Note_on_c, 1, 88, 52
6, 391649, Note_on_c, 1, 88, 0
6, 391680, Note_on_c, 1, 88, 52
6, 391769, Note_on_c, 1, 88, 0
6, 391800, Note_on_c, 1, 89, 52
6, 391889, Note_on_c, 1, 89, 0
6, 391920, Note_on_c, 1, 91, 52
6, 392009, Note_on_c, 1, 91, 0
6, 392400, Note_on_c, 1, 82, 52
6, 392489, Note_on_c, 1, 82, 0
6, 392520, Note_on_c, 1, 84, 52
6, 392609, Note_on_c, 1, 84, 0
6, 392640, Note_on_c, 1, 86, 52
6, 392729, Note_on_c, 1, 86, 0
6, 392760, Note_on_c, 1, 86, 52
6, 392849, Note_on_c, 1, 86, 0
6, 392880, Note_on_c, 1, 88, 52
6, 392969, Note_on_c, 1, 88, 0
6, 393000, Note_on_c, 1, 89, 52
6, 393089, Note_on_c, 1, 89, 0
6, 393120, Note_on_c, 1, 89, 52
6, 393209, Note_on_c, 1, 89, 0
6, 393240, Note_on_c, 1, 91, 52
6, 393329, Note_on_c, 1, 91, 0
6, 393360, Note_on_c, 1, 93, 52
6, 393479, Note_on_c, 1, 93, 0
6, 397680, Note_on_c, 1, 84, 52
6, 397680, Note_on_c, 1, 79, 52
6, 397784, Note_on_c, 1, 84, 0
6, 397784, Note_on_c, 1, 79, 0
6, 397800, Note_on_c, 1, 84, 52
6, 397800, Note_on_c, 1, 79, 52
6, 397904, Note_on_c, 1, 84, 0
6, 397904, Note_on_c, 1, 79, 0
6, 397920, Note_on_c, 1, 79, 52
6, 397920, Note_on_c, 1, 84, 52
6, 398039, Note_on_c, 1, 79, 0
6, 398039, Note_on_c, 1, 84, 0
6, 398400, Note_on_c, 1, 79, 52
6, 398400, Note_on_c, 1, 84, 52
6, 398504, Note_on_c, 1, 79, 0
6, 398504, Note_on_c, 1, 84, 0
6, 398520, Note_on_c, 1, 84, 52
6, 398520, Note_on_c, 1, 79, 52
6, 398624, Note_on_c, 1, 84, 0
6, 398624, Note_on_c, 1, 79, 0
6, 398640, Note_on_c, 1, 84, 52
6, 398640, Note_on_c, 1, 79, 52
6, 398759, Note_on_c, 1, 84, 0
6, 398759, Note_on_c, 1, 79, 0
6, 399120, Note_on_c, 1, 84, 52
6, 399120, Note_on_c, 1, 79, 52
6, 399224, Note_on_c, 1, 84, 0
6, 399224, Note_on_c, 1, 79, 0
6, 399240, Note_on_c, 1, 79, 52
6, 399240, Note_on_c, 1, 84, 52
6, 399344, Note_on_c, 1, 79, 0
6, 399344, Note_on_c, 1, 84, 0
6, 399360, Note_on_c, 1, 79, 52
6, 399360, Note_on_c, 1, 84, 52
6, 399479, Note_on_c, 1, 79, 0
6, 399479, Note_on_c, 1, 84, 0
6, 399840, Note_on_c, 1, 84, 52
6, 399840, Note_on_c, 1, 79, 52
6, 399944, Note_on_c, 1, 84, 0
6, 399944, Note_on_c, 1, 79, 0
6, 399960, Note_on_c, 1, 84, 52
6, 399960, Note_on_c, 1, 79, 52
6, 400064, Note_on_c, 1, 84, 0
6, 400064, Note_on_c, 1, 79, 0
6, 400080, Note_on_c, 1, 79, 52
6, 400080, Note_on_c, 1, 84, 52
6, 400184, Note_on_c, 1, 79, 0
6, 400184, Note_on_c, 1, 84, 0
6, 400200, Note_on_c, 1, 88, 84
6, 400244, Note_on_c, 1, 88, 0
6, 400245, Note_on_c, 1, 89, 84
6, 400289, Note_on_c, 1, 89, 0
6, 400290, Note_on_c, 1, 88, 84
6, 400320, Note_on_c, 1, 79, 84
6, 400334, Note_on_c, 1, 88, 0
6, 400335, Note_on_c, 1, 89, 84
6, 400379, Note_on_c, 1, 89, 0
6, 400380, Note_on_c, 1, 88, 84
6, 400424, Note_on_c, 1, 79, 0
6, 400424, Note_on_c, 1, 88, 0
6, 400425, Note_on_c, 1, 89, 84
6, 400440, Note_on_c, 1, 79, 84
6, 400469, Note_on_c, 1, 89, 0
6, 400470, Note_on_c, 1, 86, 84
6, 400514, Note_on_c, 1, 86, 0
6, 400515, Note_on_c, 1, 88, 84
6, 400544, Note_on_c, 1, 79, 0
6, 400559, Note_on_c, 1, 88, 0
6, 400560, Note_on_c, 1, 81, 84
6, 400560, Note_on_c, 1, 89, 84
6, 400664, Note_on_c, 1, 81, 0
6, 400664, Note_on_c, 1, 89, 0
6, 400680, Note_on_c, 1, 84, 84
6, 400680, Note_on_c, 1, 81, 84
6, 400784, Note_on_c, 1, 84, 0
6, 400784, Note_on_c, 1, 81, 0
6, 400800, Note_on_c, 1, 77, 84
6, 400800, Note_on_c, 1, 81, 84
6, 400904, Note_on_c, 1, 77, 0
6, 400904, Note_on_c, 1, 81, 0
6, 400920, Note_on_c, 1, 82, 84
6, 400964, Note_on_c, 1, 82, 0
6, 400965, Note_on_c, 1, 84, 84
6, 401009, Note_on_c, 1, 84, 0
6, 401010, Note_on_c, 1, 82, 84
6, 401040, Note_on_c, 1, 76, 84
6, 401054, Note_on_c, 1, 82, 0
6, 401055, Note_on_c, 1, 84, 84
6, 401099, Note_on_c, 1, 84, 0
6, 401100, Note_on_c, 1, 82, 84
6, 401144, Note_on_c, 1, 76, 0
6, 401144, Note_on_c, 1, 82, 0
6, 401145, Note_on_c, 1, 84, 84
6, 401160, Note_on_c, 1, 76, 84
6, 401189, Note_on_c, 1, 84, 0
6, 401190, Note_on_c, 1, 81, 84
6, 401234, Note_on_c, 1, 81, 0
6, 401235, Note_on_c, 1, 82, 84
6, 401264, Note_on_c, 1, 76, 0
6, 401279, Note_on_c, 1, 82, 0
6, 401280, Note_on_c, 1, 77, 84
6, 401280, Note_on_c, 1, 81, 84
6, 401384, Note_on_c, 1, 77, 0
6, 401384, Note_on_c, 1, 81, 0
6, 401400, Note_on_c, 1, 81, 84
6, 401400, Note_on_c, 1, 84, 84
6, 401504, Note_on_c, 1, 81, 0
6, 401504, Note_on_c, 1, 84, 0
6, 401520, Note_on_c, 1, 81, 84
6, 401520, Note_on_c, 1, 89, 84
6, 401624, Note_on_c, 1, 81, 0
6, 401624, Note_on_c, 1, 89, 0
6, 401640, Note_on_c, 1, 88, 84
6, 401684, Note_on_c, 1, 88, 0
6, 401685, Note_on_c, 1, 89, 84
6, 401729, Note_on_c, 1, 89, 0
6, 401730, Note_on_c, 1, 88, 84
6, 401760, Note_on_c, 1, 79, 84
6, 401774, Note_on_c, 1, 88, 0
6, 401775, Note_on_c, 1, 89, 84
6, 401819, Note_on_c, 1, 89, 0
6, 401820, Note_on_c, 1, 88, 84
6, 401864, Note_on_c, 1, 79, 0
6, 401864, Note_on_c, 1, 88, 0
6, 401865, Note_on_c, 1, 89, 84
6, 401880, Note_on_c, 1, 79, 84
6, 401909, Note_on_c, 1, 89, 0
6, 401910, Note_on_c, 1, 86, 84
6, 401954, Note_on_c, 1, 86, 0
6, 401955, Note_on_c, 1, 88, 84
6, 401984, Note_on_c, 1, 79, 0
6, 401999, Note_on_c, 1, 88, 0
6, 402000, Note_on_c, 1, 89, 84
6, 402000, Note_on_c, 1, 81, 84
6, 402104, Note_on_c, 1, 89, 0
6, 402104, Note_on_c, 1, 81, 0
6, 402120, Note_on_c, 1, 81, 84
6, 402120, Note_on_c, 1, 84, 84
6, 402224, Note_on_c, 1, 81, 0
6, 402224, Note_on_c, 1, 84, 0
6, 402240, Note_on_c, 1, 81, 84
6, 402240, Note_on_c, 1, 77, 84
6, 402344, Note_on_c, 1, 81, 0
6, 402344, Note_on_c, 1, 77, 0
6, 402360, Note_on_c, 1, 88, 84
6, 402404, Note_on_c, 1, 88, 0
6, 402405, Note_on_c, 1, 89, 84
6, 402449, Note_on_c, 1, 89, 0
6, 402450, Note_on_c, 1, 88, 84
6, 402480, Note_on_c, 1, 79, 84
6, 402494, Note_on_c, 1, 88, 0
6, 402495, Note_on_c, 1, 89, 84
6, 402539, Note_on_c, 1, 89, 0
6, 402540, Note_on_c, 1, 88, 84
6, 402584, Note_on_c, 1, 79, 0
6, 402584, Note_on_c, 1, 88, 0
6, 402585, Note_on_c, 1, 89, 84
6, 402600, Note_on_c, 1, 79, 84
6, 402629, Note_on_c, 1, 89, 0
6, 402630, Note_on_c, 1, 86, 84
6, 402674, Note_on_c, 1, 86, 0
6, 402675, Note_on_c, 1, 88, 84
6, 402704, Note_on_c, 1, 79, 0
6, 402719, Note_on_c, 1, 88, 0
6, 402720, Note_on_c, 1, 81, 84
6, 402720, Note_on_c, 1, 89, 84
6, 402824, Note_on_c, 1, 81, 0
6, 402824, Note_on_c, 1, 89, 0
6, 402840, Note_on_c, 1, 84, 84
6, 402840, Note_on_c, 1, 81, 84
6, 402944, Note_on_c, 1, 84, 0
6, 402944, Note_on_c, 1, 81, 0
6, 402960, Note_on_c, 1, 81, 84
6, 402960, Note_on_c, 1, 77, 84
6, 403064, Note_on_c, 1, 81, 0
6, 403064, Note_on_c, 1, 77, 0
6, 403080, Note_on_c, 1, 88, 84
6, 403124, Note_on_c, 1, 88, 0
6, 403125, Note_on_c, 1, 89, 84
6, 403169, Note_on_c, 1, 89, 0
6, 403170, Note_on_c, 1, 88, 84
6, 403200, Note_on_c, 1, 79, 84
6, 403214, Note_on_c, 1, 88, 0
6, 403215, Note_on_c, 1, 89, 84
6, 403259, Note_on_c, 1, 89, 0
6, 403260, Note_on_c, 1, 88, 84
6, 403304, Note_on_c, 1, 79, 0
6, 403304, Note_on_c, 1, 88, 0
6, 403305, Note_on_c, 1, 89, 84
6, 403320, Note_on_c, 1, 79, 84
6, 403349, Note_on_c, 1, 89, 0
6, 403350, Note_on_c, 1, 86, 84
6, 403394, Note_on_c, 1, 86, 0
6, 403395, Note_on_c, 1, 88, 84
6, 403424, Note_on_c, 1, 79, 0
6, 403439, Note_on_c, 1, 88, 0
6, 403440, Note_on_c, 1, 81, 84
6, 403440, Note_on_c, 1, 89, 84
6, 403544, Note_on_c, 1, 81, 0
6, 403544, Note_on_c, 1, 89, 0
6, 403560, Note_on_c, 1, 84, 84
6, 403664, Note_on_c, 1, 84, 0
6, 403680, Note_on_c, 1, 81, 84
6, 403784, Note_on_c, 1, 81, 0
6, 403800, Note_on_c, 1, 77, 84
6, 403904, Note_on_c, 1, 77, 0
6, 403920, Note_on_c, 1, 72, 84
6, 404024, Note_on_c, 1, 72, 0
6, 404040, Note_on_c, 1, 69, 84
6, 404144, Note_on_c, 1, 69, 0
6, 404160, Note_on_c, 1, 77, 84
6, 404279, Note_on_c, 1, 77, 0
6, 405840, Note_on_c, 1, 89, 84
6, 405840, Note_on_c, 1, 77, 84
6, 405911, Note_on_c, 1, 89, 0
6, 405911, Note_on_c, 1, 77, 0
6, 405920, Note_on_c, 1, 89, 84
6, 405920, Note_on_c, 1, 77, 84
6, 405959, Note_on_c, 1, 89, 0
6, 405959, Note_on_c, 1, 77, 0
6, 405960, Note_on_c, 1, 81, 92
6, 405960, Note_on_c, 1, 93, 92
6, 406079, Note_on_c, 1, 81, 0
6, 406079, Note_on_c, 1, 93, 0
6, 406080, Note_on_c, 1, 77, 84
6, 406080, Note_on_c, 1, 89, 84
6, 406139, Note_on_c, 1, 77, 0
6, 406139, Note_on_c, 1, 89, 0
6, 406200, Note_on_c, 1, 89, 84
6, 406200, Note_on_c, 1, 77, 84
6, 406271, Note_on_c, 1, 89, 0
6, 406271, Note_on_c, 1, 77, 0
6, 406280, Note_on_c, 1, 89, 84
6, 406280, Note_on_c, 1, 77, 84
6, 406319, Note_on_c, 1, 89, 0
6, 406319, Note_on_c, 1, 77, 0
6, 406320, Note_on_c, 1, 93, 92
6, 406320, Note_on_c, 1, 81, 92
6, 406439, Note_on_c, 1, 93, 0
6, 406439, Note_on_c, 1, 81, 0
6, 406440, Note_on_c, 1, 77, 84
6, 406440, Note_on_c, 1, 89, 84
6, 406544, Note_on_c, 1, 77, 0
6, 406544, Note_on_c, 1, 89, 0
6, 406560, Note_on_c, 1, 89, 84
6, 406560, Note_on_c, 1, 77, 84
6, 406631, Note_on_c, 1, 89, 0
6, 406631, Note_on_c, 1, 77, 0
6, 406640, Note_on_c, 1, 89, 84
6, 406640, Note_on_c, 1, 77, 84
6, 406679, Note_on_c, 1, 89, 0
6, 406679, Note_on_c, 1, 77, 0
6, 406680, Note_on_c, 1, 93, 92
6, 406680, Note_on_c, 1, 81, 92
6, 406799, Note_on_c, 1, 93, 0
6, 406799, Note_on_c, 1, 81, 0
6, 406800, Note_on_c, 1, 89, 84
6, 406800, Note_on_c, 1, 77, 84
6, 406904, Note_on_c, 1, 89, 0
6, 406904, Note_on_c, 1, 77, 0
6, 406920, Note_on_c, 1, 77, 84
6, 406920, Note_on_c, 1, 89, 84
6, 406991, Note_on_c, 1, 77, 0
6, 406991, Note_on_c, 1, 89, 0
6, 407000, Note_on_c, 1, 77, 84
6, 407000, Note_on_c, 1, 89, 84
6, 407039, Note_on_c, 1, 77, 0
6, 407039, Note_on_c, 1, 89, 0
6, 407040, Note_on_c, 1, 93, 92
6, 407040, Note_on_c, 1, 81, 92
6, 407159, Note_on_c, 1, 93, 0
6, 407159, Note_on_c, 1, 81, 0
6, 407160, Note_on_c, 1, 89, 84
6, 407160, Note_on_c, 1, 77, 84
6, 407264, Note_on_c, 1, 89, 0
6, 407264, Note_on_c, 1, 77, 0
6, 407280, Note_on_c, 1, 89, 84
6, 407280, Note_on_c, 1, 77, 84
6, 407369, Note_on_c, 1, 89, 0
6, 407369, Note_on_c, 1, 77, 0
6, 407400, Control_c, 1, 11, 127
6, 407400, Note_on_c, 1, 93, 84
6, 407400, Note_on_c, 1, 81, 84
6, 407440, Control_c, 1, 11, 125
6, 407480, Control_c, 1, 11, 124
6, 407520, Control_c, 1, 11, 122
6, 407560, Control_c, 1, 11, 120
6, 407600, Control_c, 1, 11, 118
6, 407640, Control_c, 1, 11, 117
6, 407680, Control_c, 1, 11, 115
6, 407720, Control_c, 1, 11, 113
6, 407760, Control_c, 1, 11, 111
6, 407800, Control_c, 1, 11, 110
6, 407840, Control_c, 1, 11, 108
6, 407880, Control_c, 1, 11, 106
6, 407920, Control_c, 1, 11, 104
6, 407960, Control_c, 1, 11, 103
6, 408000, Control_c, 1, 11, 101
6, 408040, Control_c, 1, 11, 99
6, 408080, Control_c, 1, 11, 97
6, 408120, Control_c, 1, 11, 96
6, 408160, Control_c, 1, 11, 94
6, 408200, Control_c, 1, 11, 92
6, 408240, Control_c, 1, 11, 90
6, 408280, Control_c, 1, 11, 89
6, 408320, Control_c, 1, 11, 87
6, 408360, Control_c, 1, 11, 85
6, 408400, Control_c, 1, 11, 83
6, 408440, Control_c, 1, 11, 82
6, 408480, Control_c, 1, 11, 80
6, 408520, Control_c, 1, 11, 78
6, 408560, Control_c, 1, 11, 76
6, 408600, Control_c, 1, 11, 75
6, 408640, Control_c, 1, 11, 73
6, 408680, Control_c, 1, 11, 71
6, 408720, Control_c, 1, 11, 69
6, 408760, Control_c, 1, 11, 68
6, 408800, Control_c, 1, 11, 64
6, 409079, Note_on_c, 1, 93, 0
6, 409079, Note_on_c, 1, 81, 0
6, 411000, Control_c, 1, 11, 127
6, 411720, Note_on_c, 1, 82, 84
6, 411839, Note_on_c, 1, 82, 0
6, 412080, Note_on_c, 1, 83, 84
6, 412199, Note_on_c, 1, 83, 0
6, 412440, Note_on_c, 1, 84, 84
6, 412559, Note_on_c, 1, 84, 0
6, 412800, Note_on_c, 1, 88, 84
6, 412800, Note_on_c, 1, 84, 84
6, 412919, Note_on_c, 1, 88, 0
6, 412919, Note_on_c, 1, 84, 0
6, 413160, Note_on_c, 1, 89, 84
6, 413160, Note_on_c, 1, 84, 84
6, 413279, Note_on_c, 1, 89, 0
6, 413279, Note_on_c, 1, 84, 0
6, 413279, End_track
7, 0, Start_track
7, 0, Title_t, "Oboe"
7, 0, MIDI_port, 0
7, 0, Program_c, 2, 68
7, 0, Control_c, 2, 7, 80
7, 0, Control_c, 2, 11, 127
7, 0, Control_c, 2, 10, 70
7, 0, Note_on_c, 2, 77, 76
7, 71, Note_on_c, 2, 77, 0
7, 80, Note_on_c, 2, 77, 76
7, 119, Note_on_c, 2, 77, 0
7, 120, Note_on_c, 2, 81, 76
7, 239, Note_on_c, 2, 81, 0
7, 240, Note_on_c, 2, 77, 76
7, 299, Note_on_c, 2, 77, 0
7, 360, Note_on_c, 2, 77, 76
7, 360, Note_on_c, 2, 81, 76
7, 431, Note_on_c, 2, 77, 0
7, 431, Note_on_c, 2, 81, 0
7, 440, Note_on_c, 2, 77, 76
7, 440, Note_on_c, 2, 81, 76
7, 479, Note_on_c, 2, 77, 0
7, 479, Note_on_c, 2, 81, 0
7, 480, Note_on_c, 2, 81, 76
7, 480, Note_on_c, 2, 84, 76
7, 599, Note_on_c, 2, 81, 0
7, 599, Note_on_c, 2, 84, 0
7, 600, Note_on_c, 2, 77, 76
7, 600, Note_on_c, 2, 81, 76
7, 659, Note_on_c, 2, 77, 0
7, 659, Note_on_c, 2, 81, 0
7, 720, Note_on_c, 2, 84, 76
7, 720, Note_on_c, 2, 81, 76
7, 824, Note_on_c, 2, 84, 0
7, 824, Note_on_c, 2, 81, 0
7, 840, Note_on_c, 2, 77, 52
7, 840, Note_on_c, 2, 81, 52
7, 959, Note_on_c, 2, 77, 0
7, 959, Note_on_c, 2, 81, 0
7, 5520, Note_on_c, 2, 80, 84
7, 5759, Note_on_c, 2, 80, 0
7, 5760, Note_on_c, 2, 81, 76
7, 5864, Note_on_c, 2, 81, 0
7, 5880, Note_on_c, 2, 86, 76
7, 5880, Note_on_c, 2, 83, 76
7, 6224, Note_on_c, 2, 86, 0
7, 6224, Note_on_c, 2, 83, 0
7, 6240, Note_on_c, 2, 85, 76
7, 6240, Note_on_c, 2, 81, 76
7, 6359, Note_on_c, 2, 85, 0
7, 6359, Note_on_c, 2, 81, 0
7, 6600, Note_on_c, 2, 83, 76
7, 6600, Note_on_c, 2, 86, 76
7, 6944, Note_on_c, 2, 83, 0
7, 6944, Note_on_c, 2, 86, 0
7, 6960, Note_on_c, 2, 81, 76
7, 6960, Note_on_c, 2, 85, 76
7, 7079, Note_on_c, 2, 81, 0
7, 7079, Note_on_c, 2, 85, 0
7, 7320, Note_on_c, 2, 83, 76
7, 7320, Note_on_c, 2, 86, 76
7, 7664, Note_on_c, 2, 83, 0
7, 7664, Note_on_c, 2, 86, 0
7, 7680, Note_on_c, 2, 85, 76
7, 7680, Note_on_c, 2, 81, 76
7, 7769, Note_on_c, 2, 85, 0
7, 7769, Note_on_c, 2, 81, 0
7, 7800, Note_on_c, 2, 76, 76
7, 7889, Note_on_c, 2, 76, 0
7, 7920, Note_on_c, 2, 85, 76
7, 8009, Note_on_c, 2, 85, 0
7, 8040, Note_on_c, 2, 81, 76
7, 8129, Note_on_c, 2, 81, 0
7, 8160, Note_on_c, 2, 76, 76
7, 8249, Note_on_c, 2, 76, 0
7, 8280, Note_on_c, 2, 73, 76
7, 8369, Note_on_c, 2, 73, 0
7, 8400, Note_on_c, 2, 69, 76
7, 8489, Note_on_c, 2, 69, 0
7, 8640, Note_on_c, 2, 77, 76
7, 8711, Note_on_c, 2, 77, 0
7, 8720, Note_on_c, 2, 77, 76
7, 8759, Note_on_c, 2, 77, 0
7, 8760, Note_on_c, 2, 81, 76
7, 8879, Note_on_c, 2, 81, 0
7, 8880, Note_on_c, 2, 77, 76
7, 8939, Note_on_c, 2, 77, 0
7, 9000, Note_on_c, 2, 77, 76
7, 9000, Note_on_c, 2, 81, 76
7, 9071, Note_on_c, 2, 77, 0
7, 9071, Note_on_c, 2, 81, 0
7, 9080, Note_on_c, 2, 77, 76
7, 9080, Note_on_c, 2, 81, 76
7, 9119, Note_on_c, 2, 77, 0
7, 9119, Note_on_c, 2, 81, 0
7, 9120, Note_on_c, 2, 81, 76
7, 9120, Note_on_c, 2, 84, 76
7, 9239, Note_on_c, 2, 81, 0
7, 9239, Note_on_c, 2, 84, 0
7, 9240, Note_on_c, 2, 77, 76
7, 9240, Note_on_c, 2, 81, 76
7, 9299, Note_on_c, 2, 77, 0
7, 9299, Note_on_c, 2, 81, 0
7, 9360, Note_on_c, 2, 81, 76
7, 9360, Note_on_c, 2, 84, 76
7, 9464, Note_on_c, 2, 81, 0
7, 9464, Note_on_c, 2, 84, 0
7, 9480, Note_on_c, 2, 77, 52
7, 9480, Note_on_c, 2, 81, 52
7, 9599, Note_on_c, 2, 77, 0
7, 9599, Note_on_c, 2, 81, 0
7, 14160, Note_on_c, 2, 80, 84
7, 14399, Note_on_c, 2, 80, 0
7, 14400, Note_on_c, 2, 81, 76
7, 14504, Note_on_c, 2, 81, 0
7, 14520, Note_on_c, 2, 83, 76
7, 14520, Note_on_c, 2, 86, 76
7, 14864, Note_on_c, 2, 83, 0
7, 14864, Note_on_c, 2, 86, 0
7, 14880, Note_on_c, 2, 81, 76
7, 14880, Note_on_c, 2, 85, 76
7, 14999, Note_on_c, 2, 81, 0
7, 14999, Note_on_c, 2, 85, 0
7, 15240, Note_on_c, 2, 83, 76
7, 15240, Note_on_c, 2, 86, 76
7, 15584, Note_on_c, 2, 83, 0
7, 15584, Note_on_c, 2, 86, 0
7, 15600, Note_on_c, 2, 85, 76
7, 15600, Note_on_c, 2, 81, 76
7, 15719, Note_on_c, 2, 85, 0
7, 15719, Note_on_c, 2, 81, 0
7, 15960, Note_on_c, 2, 83, 76
7, 15960, Note_on_c, 2, 86, 76
7, 16304, Note_on_c, 2, 83, 0
7, 16304, Note_on_c, 2, 86, 0
7, 16320, Note_on_c, 2, 81, 76
7, 16320, Note_on_c, 2, 85, 76
7, 16409, Note_on_c, 2, 81, 0
7, 16409, Note_on_c, 2, 85, 0
7, 16440, Note_on_c, 2, 76, 76
7, 16529, Note_on_c, 2, 76, 0
7, 16560, Note_on_c, 2, 85, 76
7, 16649, Note_on_c, 2, 85, 0
7, 16680, Note_on_c, 2, 81, 76
7, 16769, Note_on_c, 2, 81, 0
7, 16800, Note_on_c, 2, 76, 76
7, 16889, Note_on_c, 2, 76, 0
7, 16920, Note_on_c, 2, 73, 76
7, 17009, Note_on_c, 2, 73, 0
7, 17040, Note_on_c, 2, 69, 76
7, 17129, Note_on_c, 2, 69, 0
7, 24120, Note_on_c, 2, 83, 84
7, 24120, Note_on_c, 2, 74, 84
7, 24224, Note_on_c, 2, 83, 0
7, 24224, Note_on_c, 2, 74, 0
7, 24240, Note_on_c, 2, 83, 84
7, 24240, Note_on_c, 2, 74, 84
7, 24359, Note_on_c, 2, 83, 0
7, 24359, Note_on_c, 2, 74, 0
7, 24480, Note_on_c, 2, 76, 52
7, 24480, Note_on_c, 2, 79, 52
7, 24569, Note_on_c, 2, 76, 0
7, 24569, Note_on_c, 2, 79, 0
7, 24600, Note_on_c, 2, 81, 52
7, 24600, Note_on_c, 2, 77, 52
7, 24689, Note_on_c, 2, 81, 0
7, 24689, Note_on_c, 2, 77, 0
7, 24720, Note_on_c, 2, 81, 52
7, 24720, Note_on_c, 2, 77, 52
7, 24809, Note_on_c, 2, 81, 0
7, 24809, Note_on_c, 2, 77, 0
7, 24840, Note_on_c, 2, 76, 52
7, 24840, Note_on_c, 2, 79, 52
7, 24929, Note_on_c, 2, 76, 0
7, 24929, Note_on_c, 2, 79, 0
7, 24960, Note_on_c, 2, 83, 52
7, 24960, Note_on_c, 2, 74, 52
7, 25199, Note_on_c, 2, 83, 0
7, 25199, Note_on_c, 2, 74, 0
7, 25200, Note_on_c, 2, 72, 52
7, 25200, Note_on_c, 2, 84, 52
7, 25304, Note_on_c, 2, 72, 0
7, 25304, Note_on_c, 2, 84, 0
7, 25320, Note_on_c, 2, 77, 52
7, 25320, Note_on_c, 2, 81, 52
7, 25409, Note_on_c, 2, 77, 0
7, 25409, Note_on_c, 2, 81, 0
7, 25440, Note_on_c, 2, 77, 52
7, 25440, Note_on_c, 2, 81, 52
7, 25529, Note_on_c, 2, 77, 0
7, 25529, Note_on_c, 2, 81, 0
7, 25560, Note_on_c, 2, 79, 52
7, 25560, Note_on_c, 2, 76, 52
7, 25649, Note_on_c, 2, 79, 0
7, 25649, Note_on_c, 2, 76, 0
7, 25680, Note_on_c, 2, 74, 52
7, 25680, Note_on_c, 2, 83, 52
7, 25919, Note_on_c, 2, 74, 0
7, 25919, Note_on_c, 2, 83, 0
7, 25920, Note_on_c, 2, 72, 52
7, 25920, Note_on_c, 2, 84, 52
7, 26024, Note_on_c, 2, 72, 0
7, 26024, Note_on_c, 2, 84, 0
7, 26040, Note_on_c, 2, 83, 44
7, 26040, Note_on_c, 2, 74, 44
7, 26279, Note_on_c, 2, 83, 0
7, 26279, Note_on_c, 2, 74, 0
7, 26280, Note_on_c, 2, 84, 44
7, 26280, Note_on_c, 2, 72, 44
7, 26384, Note_on_c, 2, 84, 0
7, 26384, Note_on_c, 2, 72, 0
7, 26400, Note_on_c, 2, 74, 44
7, 26400, Note_on_c, 2, 83, 44
7, 26639, Note_on_c, 2, 74, 0
7, 26639, Note_on_c, 2, 83, 0
7, 26640, Note_on_c, 2, 84, 44
7, 26640, Note_on_c, 2, 72, 44
7, 26744, Note_on_c, 2, 84, 0
7, 26744, Note_on_c, 2, 72, 0
7, 26760, Note_on_c, 2, 74, 44
7, 26760, Note_on_c, 2, 83, 44
7, 26999, Note_on_c, 2, 74, 0
7, 26999, Note_on_c, 2, 83, 0
7, 27000, Note_on_c, 2, 84, 44
7, 27000, Note_on_c, 2, 72, 44
7, 27104, Note_on_c, 2, 84, 0
7, 27104, Note_on_c, 2, 72, 0
7, 27120, Note_on_c, 2, 83, 44
7, 27120, Note_on_c, 2, 74, 44
7, 27359, Note_on_c, 2, 83, 0
7, 27359, Note_on_c, 2, 74, 0
7, 27360, Note_on_c, 2, 72, 44
7, 27360, Note_on_c, 2, 84, 44
7, 27479, Note_on_c, 2, 72, 0
7, 27479, Note_on_c, 2, 84, 0
7, 31320, Note_on_c, 2, 70, 48
7, 31424, Note_on_c, 2, 70, 0
7, 31440, Note_on_c, 2, 74, 48
7, 31559, Note_on_c, 2, 74, 0
7, 31560, Note_on_c, 2, 70, 48
7, 31619, Note_on_c, 2, 70, 0
7, 31680, Note_on_c, 2, 74, 48
7, 31784, Note_on_c, 2, 74, 0
7, 31800, Note_on_c, 2, 77, 48
7, 31919, Note_on_c, 2, 77, 0
7, 31920, Note_on_c, 2, 74, 48
7, 31979, Note_on_c, 2, 74, 0
7, 32040, Note_on_c, 2, 77, 48
7, 32144, Note_on_c, 2, 77, 0
7, 32160, Note_on_c, 2, 82, 48
7, 32249, Note_on_c, 2, 82, 0
7, 32280, Note_on_c, 2, 82, 48
7, 32369, Note_on_c, 2, 82, 0
7, 32400, Note_on_c, 2, 81, 48
7, 32489, Note_on_c, 2, 81, 0
7, 32520, Note_on_c, 2, 79, 48
7, 32609, Note_on_c, 2, 79, 0
7, 32640, Note_on_c, 2, 79, 48
7, 32729, Note_on_c, 2, 79, 0
7, 32760, Note_on_c, 2, 77, 48
7, 32849, Note_on_c, 2, 77, 0
7, 32880, Note_on_c, 2, 75, 48
7, 32969, Note_on_c, 2, 75, 0
7, 33000, Note_on_c, 2, 75, 48
7, 33089, Note_on_c, 2, 75, 0
7, 33120, Note_on_c, 2, 74, 48
7, 33209, Note_on_c, 2, 74, 0
7, 33240, Note_on_c, 2, 72, 48
7, 33359, Note_on_c, 2, 72, 0
7, 33600, Note_on_c, 2, 84, 48
7, 33689, Note_on_c, 2, 84, 0
7, 33720, Note_on_c, 2, 84, 48
7, 33809, Note_on_c, 2, 84, 0
7, 33840, Note_on_c, 2, 82, 48
7, 33929, Note_on_c, 2, 82, 0
7, 33960, Note_on_c, 2, 81, 48
7, 34049, Note_on_c, 2, 81, 0
7, 34080, Note_on_c, 2, 81, 48
7, 34169, Note_on_c, 2, 81, 0
7, 34200, Note_on_c, 2, 79, 48
7, 34289, Note_on_c, 2, 79, 0
7, 34320, Note_on_c, 2, 77, 48
7, 34409, Note_on_c, 2, 77, 0
7, 34440, Note_on_c, 2, 77, 48
7, 34529, Note_on_c, 2, 77, 0
7, 34560, Note_on_c, 2, 75, 48
7, 34649, Note_on_c, 2, 75, 0
7, 34680, Note_on_c, 2, 74, 48
7, 34799, Note_on_c, 2, 74, 0
7, 34920, Control_c, 2, 11, 80
7, 35040, Control_c, 2, 11, 80
7, 35040, Note_on_c, 2, 86, 76
7, 35129, Note_on_c, 2, 86, 0
7, 35147, Control_c, 2, 11, 81
7, 35160, Note_on_c, 2, 86, 76
7, 35249, Note_on_c, 2, 86, 0
7, 35254, Control_c, 2, 11, 82
7, 35280, Note_on_c, 2, 84, 76
7, 35362, Control_c, 2, 11, 83
7, 35369, Note_on_c, 2, 84, 0
7, 35400, Note_on_c, 2, 82, 76
7, 35469, Control_c, 2, 11, 84
7, 35489, Note_on_c, 2, 82, 0
7, 35520, Note_on_c, 2, 82, 76
7, 35576, Control_c, 2, 11, 85
7, 35609, Note_on_c, 2, 82, 0
7, 35640, Note_on_c, 2, 81, 76
7, 35683, Control_c, 2, 11, 86
7, 35729, Note_on_c, 2, 81, 0
7, 35760, Note_on_c, 2, 79, 76
7, 35791, Control_c, 2, 11, 87
7, 35849, Note_on_c, 2, 79, 0
7, 35880, Note_on_c, 2, 79, 76
7, 35898, Control_c, 2, 11, 88
7, 35969, Note_on_c, 2, 79, 0
7, 36000, Note_on_c, 2, 77, 76
7, 36005, Control_c, 2, 11, 89
7, 36089, Note_on_c, 2, 77, 0
7, 36112, Control_c, 2, 11, 90
7, 36120, Note_on_c, 2, 75, 76
7, 36209, Note_on_c, 2, 75, 0
7, 36220, Control_c, 2, 11, 91
7, 36327, Control_c, 2, 11, 92
7, 36434, Control_c, 2, 11, 93
7, 36480, Note_on_c, 2, 81, 76
7, 36541, Control_c, 2, 11, 94
7, 36569, Note_on_c, 2, 81, 0
7, 36600, Note_on_c, 2, 81, 76
7, 36649, Control_c, 2, 11, 95
7, 36689, Note_on_c, 2, 81, 0
7, 36720, Note_on_c, 2, 79, 76
7, 36756, Control_c, 2, 11, 96
7, 36809, Note_on_c, 2, 79, 0
7, 36840, Note_on_c, 2, 77, 76
7, 36863, Control_c, 2, 11, 97
7, 36929, Note_on_c, 2, 77, 0
7, 36960, Note_on_c, 2, 77, 76
7, 36970, Control_c, 2, 11, 98
7, 37049, Note_on_c, 2, 77, 0
7, 37077, Control_c, 2, 11, 99
7, 37080, Note_on_c, 2, 75, 76
7, 37169, Note_on_c, 2, 75, 0
7, 37185, Control_c, 2, 11, 100
7, 37200, Note_on_c, 2, 74, 76
7, 37289, Note_on_c, 2, 74, 0
7, 37292, Control_c, 2, 11, 101
7, 37320, Note_on_c, 2, 74, 76
7, 37399, Control_c, 2, 11, 102
7, 37409, Note_on_c, 2, 74, 0
7, 37440, Note_on_c, 2, 72, 76
7, 37506, Control_c, 2, 11, 103
7, 37529, Note_on_c, 2, 72, 0
7, 37560, Note_on_c, 2, 70, 76
7, 37614, Control_c, 2, 11, 104
7, 37679, Note_on_c, 2, 70, 0
7, 37721, Control_c, 2, 11, 105
7, 37828, Control_c, 2, 11, 106
7, 37920, Note_on_c, 2, 77, 76
7, 37935, Control_c, 2, 11, 107
7, 38043, Control_c, 2, 11, 108
7, 38150, Control_c, 2, 11, 109
7, 38257, Control_c, 2, 11, 110
7, 38364, Control_c, 2, 11, 111
7, 38471, Control_c, 2, 11, 112
7, 38579, Control_c, 2, 11, 113
7, 38686, Control_c, 2, 11, 114
7, 38793, Control_c, 2, 11, 115
7, 38900, Control_c, 2, 11, 116
7, 39008, Control_c, 2, 11, 117
7, 39115, Control_c, 2, 11, 118
7, 39119, Note_on_c, 2, 77, 0
7, 39120, Note_on_c, 2, 76, 76
7, 39120, Note_on_c, 2, 79, 76
7, 39222, Control_c, 2, 11, 119
7, 39224, Note_on_c, 2, 76, 0
7, 39224, Note_on_c, 2, 79, 0
7, 39240, Note_on_c, 2, 79, 76
7, 39240, Note_on_c, 2, 76, 76
7, 39329, Note_on_c, 2, 79, 0
7, 39329, Note_on_c, 2, 76, 0
7, 39329, Control_c, 2, 11, 120
7, 39360, Note_on_c, 2, 79, 76
7, 39360, Note_on_c, 2, 76, 76
7, 39437, Control_c, 2, 11, 121
7, 39544, Control_c, 2, 11, 122
7, 39651, Control_c, 2, 11, 123
7, 39758, Control_c, 2, 11, 124
7, 39866, Control_c, 2, 11, 125
7, 39973, Control_c, 2, 11, 127
7, 40304, Note_on_c, 2, 79, 0
7, 40304, Note_on_c, 2, 76, 0
7, 40320, Note_on_c, 2, 81, 76
7, 40320, Note_on_c, 2, 77, 76
7, 40391, Note_on_c, 2, 81, 0
7, 40391, Note_on_c, 2, 77, 0
7, 40400, Note_on_c, 2, 77, 76
7, 40439, Note_on_c, 2, 77, 0
7, 40440, Note_on_c, 2, 81, 76
7, 40559, Note_on_c, 2, 81, 0
7, 40560, Note_on_c, 2, 77, 76
7, 40619, Note_on_c, 2, 77, 0
7, 40680, Note_on_c, 2, 77, 76
7, 40680, Note_on_c, 2, 81, 76
7, 40751, Note_on_c, 2, 77, 0
7, 40751, Note_on_c, 2, 81, 0
7, 40760, Note_on_c, 2, 77, 76
7, 40760, Note_on_c, 2, 81, 76
7, 40799, Note_on_c, 2, 77, 0
7, 40799, Note_on_c, 2, 81, 0
7, 40800, Note_on_c, 2, 81, 76
7, 40800, Note_on_c, 2, 84, 76
7, 40919, Note_on_c, 2, 81, 0
7, 40919, Note_on_c, 2, 84, 0
7, 40920, Note_on_c, 2, 81, 76
7, 40920, Note_on_c, 2, 77, 76
7, 40979, Note_on_c, 2, 81, 0
7, 40979, Note_on_c, 2, 77, 0
7, 41040, Note_on_c, 2, 81, 76
7, 41040, Note_on_c, 2, 84, 76
7, 41144, Note_on_c, 2, 81, 0
7, 41144, Note_on_c, 2, 84, 0
7, 41160, Note_on_c, 2, 77, 84
7, 41160, Note_on_c, 2, 65, 84
7, 42359, Note_on_c, 2, 77, 0
7, 42359, Note_on_c, 2, 65, 0
7, 42360, Note_on_c, 2, 67, 84
7, 42360, Note_on_c, 2, 79, 84
7, 42464, Note_on_c, 2, 67, 0
7, 42464, Note_on_c, 2, 79, 0
7, 42480, Note_on_c, 2, 79, 84
7, 42480, Note_on_c, 2, 67, 84
7, 42569, Note_on_c, 2, 79, 0
7, 42569, Note_on_c, 2, 67, 0
7, 42600, Note_on_c, 2, 79, 84
7, 42600, Note_on_c, 2, 67, 84
7, 43799, Note_on_c, 2, 79, 0
7, 43799, Note_on_c, 2, 67, 0
7, 43800, Note_on_c, 2, 69, 84
7, 43800, Note_on_c, 2, 81, 84
7, 43904, Note_on_c, 2, 69, 0
7, 43904, Note_on_c, 2, 81, 0
7, 43920, Note_on_c, 2, 81, 84
7, 43920, Note_on_c, 2, 69, 84
7, 44009, Note_on_c, 2, 81, 0
7, 44009, Note_on_c, 2, 69, 0
7, 44160, Note_on_c, 2, 69, 52
7, 44249, Note_on_c, 2, 69, 0
7, 44280, Note_on_c, 2, 70, 52
7, 44369, Note_on_c, 2, 70, 0
7, 44400, Note_on_c, 2, 72, 52
7, 44489, Note_on_c, 2, 72, 0
7, 44520, Note_on_c, 2, 72, 52
7, 44609, Note_on_c, 2, 72, 0
7, 44640, Note_on_c, 2, 74, 52
7, 44729, Note_on_c, 2, 74, 0
7, 44760, Note_on_c, 2, 76, 52
7, 44849, Note_on_c, 2, 76, 0
7, 44880, Note_on_c, 2, 76, 52
7, 44969, Note_on_c, 2, 76, 0
7, 45000, Note_on_c, 2, 77, 52
7, 45089, Note_on_c, 2, 77, 0
7, 45120, Note_on_c, 2, 79, 52
7, 45209, Note_on_c, 2, 79, 0
7, 45600, Note_on_c, 2, 70, 52
7, 45689, Note_on_c, 2, 70, 0
7, 45720, Note_on_c, 2, 72, 52
7, 45809, Note_on_c, 2, 72, 0
7, 45840, Note_on_c, 2, 74, 52
7, 45929, Note_on_c, 2, 74, 0
7, 45960, Note_on_c, 2, 74, 52
7, 46049, Note_on_c, 2, 74, 0
7, 46080, Note_on_c, 2, 76, 52
7, 46169, Note_on_c, 2, 76, 0
7, 46200, Note_on_c, 2, 77, 52
7, 46289, Note_on_c, 2, 77, 0
7, 46320, Note_on_c, 2, 77, 52
7, 46409, Note_on_c, 2, 77, 0
7, 46440, Note_on_c, 2, 79, 52
7, 46529, Note_on_c, 2, 79, 0
7, 46560, Note_on_c, 2, 81, 52
7, 46679, Note_on_c, 2, 81, 0
7, 47640, Note_on_c, 2, 72, 52
7, 47640, Note_on_c, 2, 79, 52
7, 47729, Note_on_c, 2, 72, 0
7, 47729, Note_on_c, 2, 79, 0
7, 47760, Note_on_c, 2, 72, 52
7, 47760, Note_on_c, 2, 79, 52
7, 47849, Note_on_c, 2, 72, 0
7, 47849, Note_on_c, 2, 79, 0
7, 47880, Note_on_c, 2, 72, 52
7, 47880, Note_on_c, 2, 77, 52
7, 47969, Note_on_c, 2, 72, 0
7, 47969, Note_on_c, 2, 77, 0
7, 48000, Note_on_c, 2, 76, 52
7, 48000, Note_on_c, 2, 82, 52
7, 48239, Note_on_c, 2, 76, 0
7, 48239, Note_on_c, 2, 82, 0
7, 48240, Note_on_c, 2, 81, 52
7, 48240, Note_on_c, 2, 77, 52
7, 48359, Note_on_c, 2, 81, 0
7, 48359, Note_on_c, 2, 77, 0
7, 50880, Note_on_c, 2, 76, 52
7, 50880, Note_on_c, 2, 72, 52
7, 50984, Note_on_c, 2, 76, 0
7, 50984, Note_on_c, 2, 72, 0
7, 51000, Note_on_c, 2, 76, 52
7, 51000, Note_on_c, 2, 72, 52
7, 51104, Note_on_c, 2, 76, 0
7, 51104, Note_on_c, 2, 72, 0
7, 51120, Note_on_c, 2, 76, 52
7, 51120, Note_on_c, 2, 72, 52
7, 51239, Note_on_c, 2, 76, 0
7, 51239, Note_on_c, 2, 72, 0
7, 51600, Note_on_c, 2, 76, 52
7, 51600, Note_on_c, 2, 72, 52
7, 51704, Note_on_c, 2, 76, 0
7, 51704, Note_on_c, 2, 72, 0
7, 51720, Note_on_c, 2, 76, 52
7, 51720, Note_on_c, 2, 72, 52
7, 51824, Note_on_c, 2, 76, 0
7, 51824, Note_on_c, 2, 72, 0
7, 51840, Note_on_c, 2, 76, 52
7, 51840, Note_on_c, 2, 72, 52
7, 51959, Note_on_c, 2, 76, 0
7, 51959, Note_on_c, 2, 72, 0
7, 52320, Note_on_c, 2, 76, 52
7, 52320, Note_on_c, 2, 72, 52
7, 52424, Note_on_c, 2, 76, 0
7, 52424, Note_on_c, 2, 72, 0
7, 52440, Note_on_c, 2, 76, 52
7, 52440, Note_on_c, 2, 72, 52
7, 52544, Note_on_c, 2, 76, 0
7, 52544, Note_on_c, 2, 72, 0
7, 52560, Note_on_c, 2, 72, 52
7, 52560, Note_on_c, 2, 76, 52
7, 52679, Note_on_c, 2, 72, 0
7, 52679, Note_on_c, 2, 76, 0
7, 53040, Note_on_c, 2, 76, 52
7, 53040, Note_on_c, 2, 72, 52
7, 53144, Note_on_c, 2, 76, 0
7, 53144, Note_on_c, 2, 72, 0
7, 53160, Note_on_c, 2, 76, 52
7, 53160, Note_on_c, 2, 72, 52
7, 53264, Note_on_c, 2, 76, 0
7, 53264, Note_on_c, 2, 72, 0
7, 53280, Note_on_c, 2, 72, 52
7, 53280, Note_on_c, 2, 76, 52
7, 53384, Note_on_c, 2, 72, 0
7, 53384, Note_on_c, 2, 76, 0
7, 53400, Note_on_c, 2, 76, 84
7, 53444, Note_on_c, 2, 76, 0
7, 53445, Note_on_c, 2, 77, 84
7, 53489, Note_on_c, 2, 77, 0
7, 53490, Note_on_c, 2, 76, 84
7, 53520, Note_on_c, 2, 67, 84
7, 53534, Note_on_c, 2, 76, 0
7, 53535, Note_on_c, 2, 77, 84
7, 53579, Note_on_c, 2, 77, 0
7, 53580, Note_on_c, 2, 76, 84
7, 53624, Note_on_c, 2, 67, 0
7, 53624, Note_on_c, 2, 76, 0
7, 53625, Note_on_c, 2, 77, 84
7, 53640, Note_on_c, 2, 67, 84
7, 53669, Note_on_c, 2, 77, 0
7, 53670, Note_on_c, 2, 74, 84
7, 53714, Note_on_c, 2, 74, 0
7, 53715, Note_on_c, 2, 76, 84
7, 53744, Note_on_c, 2, 67, 0
7, 53759, Note_on_c, 2, 76, 0
7, 53760, Note_on_c, 2, 69, 84
7, 53760, Note_on_c, 2, 77, 84
7, 53864, Note_on_c, 2, 69, 0
7, 53864, Note_on_c, 2, 77, 0
7, 53880, Note_on_c, 2, 72, 84
7, 53880, Note_on_c, 2, 69, 84
7, 53984, Note_on_c, 2, 72, 0
7, 53984, Note_on_c, 2, 69, 0
7, 54000, Note_on_c, 2, 65, 84
7, 54000, Note_on_c, 2, 69, 84
7, 54104, Note_on_c, 2, 65, 0
7, 54104, Note_on_c, 2, 69, 0
7, 54120, Note_on_c, 2, 70, 84
7, 54164, Note_on_c, 2, 70, 0
7, 54165, Note_on_c, 2, 72, 84
7, 54209, Note_on_c, 2, 72, 0
7, 54210, Note_on_c, 2, 70, 84
7, 54240, Note_on_c, 2, 64, 84
7, 54254, Note_on_c, 2, 70, 0
7, 54255, Note_on_c, 2, 72, 84
7, 54299, Note_on_c, 2, 72, 0
7, 54300, Note_on_c, 2, 70, 84
7, 54344, Note_on_c, 2, 64, 0
7, 54344, Note_on_c, 2, 70, 0
7, 54345, Note_on_c, 2, 72, 84
7, 54360, Note_on_c, 2, 64, 84
7, 54389, Note_on_c, 2, 72, 0
7, 54390, Note_on_c, 2, 69, 84
7, 54434, Note_on_c, 2, 69, 0
7, 54435, Note_on_c, 2, 70, 84
7, 54464, Note_on_c, 2, 64, 0
7, 54479, Note_on_c, 2, 70, 0
7, 54480, Note_on_c, 2, 69, 84
7, 54480, Note_on_c, 2, 65, 84
7, 54584, Note_on_c, 2, 69, 0
7, 54584, Note_on_c, 2, 65, 0
7, 54600, Note_on_c, 2, 72, 84
7, 54600, Note_on_c, 2, 69, 84
7, 54704, Note_on_c, 2, 72, 0
7, 54704, Note_on_c, 2, 69, 0
7, 54720, Note_on_c, 2, 69, 84
7, 54720, Note_on_c, 2, 77, 84
7, 54824, Note_on_c, 2, 69, 0
7, 54824, Note_on_c, 2, 77, 0
7, 54840, Note_on_c, 2, 76, 84
7, 54884, Note_on_c, 2, 76, 0
7, 54885, Note_on_c, 2, 77, 84
7, 54929, Note_on_c, 2, 77, 0
7, 54930, Note_on_c, 2, 76, 84
7, 54960, Note_on_c, 2, 67, 84
7, 54974, Note_on_c, 2, 76, 0
7, 54975, Note_on_c, 2, 77, 84
7, 55019, Note_on_c, 2, 77, 0
7, 55020, Note_on_c, 2, 76, 84
7, 55064, Note_on_c, 2, 67, 0
7, 55064, Note_on_c, 2, 76, 0
7, 55065, Note_on_c, 2, 77, 84
7, 55080, Note_on_c, 2, 67, 84
7, 55109, Note_on_c, 2, 77, 0
7, 55110, Note_on_c, 2, 74, 84
7, 55154, Note_on_c, 2, 74, 0
7, 55155, Note_on_c, 2, 76, 84
7, 55184, Note_on_c, 2, 67, 0
7, 55199, Note_on_c, 2, 76, 0
7, 55200, Note_on_c, 2, 77, 84
7, 55200, Note_on_c, 2, 69, 84
7, 55304, Note_on_c, 2, 77, 0
7, 55304, Note_on_c, 2, 69, 0
7, 55320, Note_on_c, 2, 72, 84
7, 55320, Note_on_c, 2, 69, 84
7, 55424, Note_on_c, 2, 72, 0
7, 55424, Note_on_c, 2, 69, 0
7, 55440, Note_on_c, 2, 69, 84
7, 55440, Note_on_c, 2, 65, 84
7, 55544, Note_on_c, 2, 69, 0
7, 55544, Note_on_c, 2, 65, 0
7, 55560, Note_on_c, 2, 76, 84
7, 55604, Note_on_c, 2, 76, 0
7, 55605, Note_on_c, 2, 77, 84
7, 55649, Note_on_c, 2, 77, 0
7, 55650, Note_on_c, 2, 76, 84
7, 55680, Note_on_c, 2, 67, 84
7, 55694, Note_on_c, 2, 76, 0
7, 55695, Note_on_c, 2, 77, 84
7, 55739, Note_on_c, 2, 77, 0
7, 55740, Note_on_c, 2, 76, 84
7, 55784, Note_on_c, 2, 67, 0
7, 55784, Note_on_c, 2, 76, 0
7, 55785, Note_on_c, 2, 77, 84
7, 55800, Note_on_c, 2, 67, 84
7, 55829, Note_on_c, 2, 77, 0
7, 55830, Note_on_c, 2, 74, 84
7, 55874, Note_on_c, 2, 74, 0
7, 55875, Note_on_c, 2, 76, 84
7, 55904, Note_on_c, 2, 67, 0
7, 55919, Note_on_c, 2, 76, 0
7, 55920, Note_on_c, 2, 77, 84
7, 55920, Note_on_c, 2, 69, 84
7, 56024, Note_on_c, 2, 77, 0
7, 56024, Note_on_c, 2, 69, 0
7, 56040, Note_on_c, 2, 72, 84
7, 56040, Note_on_c, 2, 69, 84
7, 56144, Note_on_c, 2, 72, 0
7, 56144, Note_on_c, 2, 69, 0
7, 56160, Note_on_c, 2, 69, 84
7, 56160, Note_on_c, 2, 65, 84
7, 56264, Note_on_c, 2, 69, 0
7, 56264, Note_on_c, 2, 65, 0
7, 56280, Note_on_c, 2, 76, 84
7, 56324, Note_on_c, 2, 76, 0
7, 56325, Note_on_c, 2, 77, 84
7, 56369, Note_on_c, 2, 77, 0
7, 56370, Note_on_c, 2, 76, 84
7, 56400, Note_on_c, 2, 67, 84
7, 56414, Note_on_c, 2, 76, 0
7, 56415, Note_on_c, 2, 77, 84
7, 56459, Note_on_c, 2, 77, 0
7, 56460, Note_on_c, 2, 76, 84
7, 56504, Note_on_c, 2, 67, 0
7, 56504, Note_on_c, 2, 76, 0
7, 56505, Note_on_c, 2, 77, 84
7, 56520, Note_on_c, 2, 67, 84
7, 56549, Note_on_c, 2, 77, 0
7, 56550, Note_on_c, 2, 74, 84
7, 56594, Note_on_c, 2, 74, 0
7, 56595, Note_on_c, 2, 76, 84
7, 56624, Note_on_c, 2, 67, 0
7, 56639, Note_on_c, 2, 76, 0
7, 56640, Note_on_c, 2, 77, 84
7, 56640, Note_on_c, 2, 69, 84
7, 56744, Note_on_c, 2, 77, 0
7, 56744, Note_on_c, 2, 69, 0
7, 56760, Note_on_c, 2, 72, 84
7, 56760, Note_on_c, 2, 84, 84
7, 56864, Note_on_c, 2, 72, 0
7, 56864, Note_on_c, 2, 84, 0
7, 56880, Note_on_c, 2, 69, 84
7, 56880, Note_on_c, 2, 81, 84
7, 56984, Note_on_c, 2, 69, 0
7, 56984, Note_on_c, 2, 81, 0
7, 57000, Note_on_c, 2, 77, 84
7, 57104, Note_on_c, 2, 77, 0
7, 57120, Note_on_c, 2, 72, 84
7, 57224, Note_on_c, 2, 72, 0
7, 57240, Note_on_c, 2, 69, 84
7, 57344, Note_on_c, 2, 69, 0
7, 57360, Note_on_c, 2, 69, 84
7, 57360, Note_on_c, 2, 77, 84
7, 57479, Note_on_c, 2, 69, 0
7, 57479, Note_on_c, 2, 77, 0
7, 59040, Note_on_c, 2, 77, 84
7, 59040, Note_on_c, 2, 65, 84
7, 59111, Note_on_c, 2, 77, 0
7, 59111, Note_on_c, 2, 65, 0
7, 59120, Note_on_c, 2, 65, 84
7, 59120, Note_on_c, 2, 77, 84
7, 59159, Note_on_c, 2, 65, 0
7, 59159, Note_on_c, 2, 77, 0
7, 59160, Note_on_c, 2, 81, 92
7, 59160, Note_on_c, 2, 69, 92
7, 59279, Note_on_c, 2, 81, 0
7, 59279, Note_on_c, 2, 69, 0
7, 59280, Note_on_c, 2, 65, 84
7, 59280, Note_on_c, 2, 77, 84
7, 59339, Note_on_c, 2, 65, 0
7, 59339, Note_on_c, 2, 77, 0
7, 59400, Note_on_c, 2, 77, 84
7, 59400, Note_on_c, 2, 65, 84
7, 59471, Note_on_c, 2, 77, 0
7, 59471, Note_on_c, 2, 65, 0
7, 59480, Note_on_c, 2, 77, 84
7, 59480, Note_on_c, 2, 65, 84
7, 59519, Note_on_c, 2, 77, 0
7, 59519, Note_on_c, 2, 65, 0
7, 59520, Note_on_c, 2, 81, 92
7, 59520, Note_on_c, 2, 69, 92
7, 59639, Note_on_c, 2, 81, 0
7, 59639, Note_on_c, 2, 69, 0
7, 59640, Note_on_c, 2, 65, 84
7, 59640, Note_on_c, 2, 77, 84
7, 59744, Note_on_c, 2, 65, 0
7, 59744, Note_on_c, 2, 77, 0
7, 59760, Note_on_c, 2, 77, 84
7, 59760, Note_on_c, 2, 65, 84
7, 59831, Note_on_c, 2, 77, 0
7, 59831, Note_on_c, 2, 65, 0
7, 59840, Note_on_c, 2, 65, 84
7, 59840, Note_on_c, 2, 77, 84
7, 59879, Note_on_c, 2, 65, 0
7, 59879, Note_on_c, 2, 77, 0
7, 59880, Note_on_c, 2, 81, 92
7, 59880, Note_on_c, 2, 69, 92
7, 59999, Note_on_c, 2, 81, 0
7, 59999, Note_on_c, 2, 69, 0
7, 60000, Note_on_c, 2, 65, 84
7, 60000, Note_on_c, 2, 77, 84
7, 60104, Note_on_c, 2, 65, 0
7, 60104, Note_on_c, 2, 77, 0
7, 60120, Note_on_c, 2, 65, 84
7, 60120, Note_on_c, 2, 77, 84
7, 60191, Note_on_c, 2, 65, 0
7, 60191, Note_on_c, 2, 77, 0
7, 60200, Note_on_c, 2, 65, 84
7, 60200, Note_on_c, 2, 77, 84
7, 60239, Note_on_c, 2, 65, 0
7, 60239, Note_on_c, 2, 77, 0
7, 60240, Note_on_c, 2, 69, 92
7, 60240, Note_on_c, 2, 81, 92
7, 60359, Note_on_c, 2, 69, 0
7, 60359, Note_on_c, 2, 81, 0
7, 60360, Note_on_c, 2, 77, 84
7, 60360, Note_on_c, 2, 65, 84
7, 60464, Note_on_c, 2, 77, 0
7, 60464, Note_on_c, 2, 65, 0
7, 60480, Note_on_c, 2, 65, 84
7, 60480, Note_on_c, 2, 77, 84
7, 60569, Note_on_c, 2, 65, 0
7, 60569, Note_on_c, 2, 77, 0
7, 60600, Note_on_c, 2, 69, 84
7, 60600, Note_on_c, 2, 81, 84
7, 61904, Note_on_c, 2, 69, 0
7, 61904, Note_on_c, 2, 81, 0
7, 68760, Note_on_c, 2, 74, 84
7, 68760, Note_on_c, 2, 83, 84
7, 68864, Note_on_c, 2, 74, 0
7, 68864, Note_on_c, 2, 83, 0
7, 68880, Note_on_c, 2, 74, 84
7, 68880, Note_on_c, 2, 83, 84
7, 68999, Note_on_c, 2, 74, 0
7, 68999, Note_on_c, 2, 83, 0
7, 69120, Note_on_c, 2, 76, 52
7, 69120, Note_on_c, 2, 79, 52
7, 69209, Note_on_c, 2, 76, 0
7, 69209, Note_on_c, 2, 79, 0
7, 69240, Note_on_c, 2, 81, 52
7, 69240, Note_on_c, 2, 77, 52
7, 69329, Note_on_c, 2, 81, 0
7, 69329, Note_on_c, 2, 77, 0
7, 69360, Note_on_c, 2, 81, 52
7, 69360, Note_on_c, 2, 77, 52
7, 69449, Note_on_c, 2, 81, 0
7, 69449, Note_on_c, 2, 77, 0
7, 69480, Note_on_c, 2, 76, 52
7, 69480, Note_on_c, 2, 79, 52
7, 69569, Note_on_c, 2, 76, 0
7, 69569, Note_on_c, 2, 79, 0
7, 69600, Note_on_c, 2, 83, 52
7, 69600, Note_on_c, 2, 74, 52
7, 69839, Note_on_c, 2, 83, 0
7, 69839, Note_on_c, 2, 74, 0
7, 69840, Note_on_c, 2, 84, 52
7, 69840, Note_on_c, 2, 72, 52
7, 69944, Note_on_c, 2, 84, 0
7, 69944, Note_on_c, 2, 72, 0
7, 69960, Note_on_c, 2, 81, 52
7, 69960, Note_on_c, 2, 77, 52
7, 70049, Note_on_c, 2, 81, 0
7, 70049, Note_on_c, 2, 77, 0
7, 70080, Note_on_c, 2, 77, 52
7, 70080, Note_on_c, 2, 81, 52
7, 70169, Note_on_c, 2, 77, 0
7, 70169, Note_on_c, 2, 81, 0
7, 70200, Note_on_c, 2, 76, 52
7, 70200, Note_on_c, 2, 79, 52
7, 70289, Note_on_c, 2, 76, 0
7, 70289, Note_on_c, 2, 79, 0
7, 70320, Note_on_c, 2, 74, 52
7, 70320, Note_on_c, 2, 83, 52
7, 70559, Note_on_c, 2, 74, 0
7, 70559, Note_on_c, 2, 83, 0
7, 70560, Note_on_c, 2, 84, 52
7, 70560, Note_on_c, 2, 72, 52
7, 70664, Note_on_c, 2, 84, 0
7, 70664, Note_on_c, 2, 72, 0
7, 70680, Note_on_c, 2, 74, 44
7, 70680, Note_on_c, 2, 83, 44
7, 70919, Note_on_c, 2, 74, 0
7, 70919, Note_on_c, 2, 83, 0
7, 70920, Note_on_c, 2, 72, 44
7, 70920, Note_on_c, 2, 84, 44
7, 71024, Note_on_c, 2, 72, 0
7, 71024, Note_on_c, 2, 84, 0
7, 71040, Note_on_c, 2, 74, 44
7, 71040, Note_on_c, 2, 83, 44
7, 71279, Note_on_c, 2, 74, 0
7, 71279, Note_on_c, 2, 83, 0
7, 71280, Note_on_c, 2, 84, 44
7, 71280, Note_on_c, 2, 72, 44
7, 71384, Note_on_c, 2, 84, 0
7, 71384, Note_on_c, 2, 72, 0
7, 71400, Note_on_c, 2, 74, 44
7, 71400, Note_on_c, 2, 83, 44
7, 71639, Note_on_c, 2, 74, 0
7, 71639, Note_on_c, 2, 83, 0
7, 71640, Note_on_c, 2, 84, 44
7, 71640, Note_on_c, 2, 72, 44
7, 71744, Note_on_c, 2, 84, 0
7, 71744, Note_on_c, 2, 72, 0
7, 71760, Note_on_c, 2, 83, 44
7, 71760, Note_on_c, 2, 74, 44
7, 71999, Note_on_c, 2, 83, 0
7, 71999, Note_on_c, 2, 74, 0
7, 72000, Note_on_c, 2, 72, 44
7, 72000, Note_on_c, 2, 84, 44
7, 72119, Note_on_c, 2, 72, 0
7, 72119, Note_on_c, 2, 84, 0
7, 75960, Note_on_c, 2, 70, 48
7, 76064, Note_on_c, 2, 70, 0
7, 76080, Note_on_c, 2, 74, 48
7, 76199, Note_on_c, 2, 74, 0
7, 76200, Note_on_c, 2, 70, 48
7, 76259, Note_on_c, 2, 70, 0
7, 76320, Note_on_c, 2, 74, 48
7, 76424, Note_on_c, 2, 74, 0
7, 76440, Note_on_c, 2, 77, 48
7, 76559, Note_on_c, 2, 77, 0
7, 76560, Note_on_c, 2, 74, 48
7, 76619, Note_on_c, 2, 74, 0
7, 76680, Note_on_c, 2, 77, 48
7, 76784, Note_on_c, 2, 77, 0
7, 76800, Note_on_c, 2, 82, 48
7, 76889, Note_on_c, 2, 82, 0
7, 76920, Note_on_c, 2, 82, 48
7, 77009, Note_on_c, 2, 82, 0
7, 77040, Note_on_c, 2, 81, 48
7, 77129, Note_on_c, 2, 81, 0
7, 77160, Note_on_c, 2, 79, 48
7, 77249, Note_on_c, 2, 79, 0
7, 77280, Note_on_c, 2, 79, 48
7, 77369, Note_on_c, 2, 79, 0
7, 77400, Note_on_c, 2, 77, 48
7, 77489, Note_on_c, 2, 77, 0
7, 77520, Note_on_c, 2, 75, 48
7, 77609, Note_on_c, 2, 75, 0
7, 77640, Note_on_c, 2, 75, 48
7, 77729, Note_on_c, 2, 75, 0
7, 77760, Note_on_c, 2, 74, 48
7, 77849, Note_on_c, 2, 74, 0
7, 77880, Note_on_c, 2, 72, 48
7, 77999, Note_on_c, 2, 72, 0
7, 78240, Note_on_c, 2, 84, 48
7, 78329, Note_on_c, 2, 84, 0
7, 78360, Note_on_c, 2, 84, 48
7, 78449, Note_on_c, 2, 84, 0
7, 78480, Note_on_c, 2, 82, 48
7, 78569, Note_on_c, 2, 82, 0
7, 78600, Note_on_c, 2, 81, 48
7, 78689, Note_on_c, 2, 81, 0
7, 78720, Note_on_c, 2, 81, 48
7, 78809, Note_on_c, 2, 81, 0
7, 78840, Note_on_c, 2, 79, 48
7, 78929, Note_on_c, 2, 79, 0
7, 78960, Note_on_c, 2, 77, 48
7, 79049, Note_on_c, 2, 77, 0
7, 79080, Note_on_c, 2, 77, 48
7, 79169, Note_on_c, 2, 77, 0
7, 79200, Note_on_c, 2, 75, 48
7, 79289, Note_on_c, 2, 75, 0
7, 79320, Note_on_c, 2, 74, 48
7, 79439, Note_on_c, 2, 74, 0
7, 79560, Control_c, 2, 11, 80
7, 79680, Control_c, 2, 11, 80
7, 79680, Note_on_c, 2, 86, 76
7, 79769, Note_on_c, 2, 86, 0
7, 79787, Control_c, 2, 11, 81
7, 79800, Note_on_c, 2, 86, 76
7, 79889, Note_on_c, 2, 86, 0
7, 79894, Control_c, 2, 11, 82
7, 79920, Note_on_c, 2, 84, 76
7, 80002, Control_c, 2, 11, 83
7, 80009, Note_on_c, 2, 84, 0
7, 80040, Note_on_c, 2, 82, 76
7, 80109, Control_c, 2, 11, 84
7, 80129, Note_on_c, 2, 82, 0
7, 80160, Note_on_c, 2, 82, 76
7, 80216, Control_c, 2, 11, 85
7, 80249, Note_on_c, 2, 82, 0
7, 80280, Note_on_c, 2, 81, 76
7, 80323, Control_c, 2, 11, 86
7, 80369, Note_on_c, 2, 81, 0
7, 80400, Note_on_c, 2, 79, 76
7, 80431, Control_c, 2, 11, 87
7, 80489, Note_on_c, 2, 79, 0
7, 80520, Note_on_c, 2, 79, 76
7, 80538, Control_c, 2, 11, 88
7, 80609, Note_on_c, 2, 79, 0
7, 80640, Note_on_c, 2, 77, 76
7, 80645, Control_c, 2, 11, 89
7, 80729, Note_on_c, 2, 77, 0
7, 80752, Control_c, 2, 11, 90
7, 80760, Note_on_c, 2, 75, 76
7, 80849, Note_on_c, 2, 75, 0
7, 80860, Control_c, 2, 11, 91
7, 80967, Control_c, 2, 11, 92
7, 81074, Control_c, 2, 11, 93
7, 81120, Note_on_c, 2, 81, 76
7, 81181, Control_c, 2, 11, 94
7, 81209, Note_on_c, 2, 81, 0
7, 81240, Note_on_c, 2, 81, 76
7, 81289, Control_c, 2, 11, 95
7, 81329, Note_on_c, 2, 81, 0
7, 81360, Note_on_c, 2, 79, 76
7, 81396, Control_c, 2, 11, 96
7, 81449, Note_on_c, 2, 79, 0
7, 81480, Note_on_c, 2, 77, 76
7, 81503, Control_c, 2, 11, 97
7, 81569, Note_on_c, 2, 77, 0
7, 81600, Note_on_c, 2, 77, 76
7, 81610, Control_c, 2, 11, 98
7, 81689, Note_on_c, 2, 77, 0
7, 81717, Control_c, 2, 11, 99
7, 81720, Note_on_c, 2, 75, 76
7, 81809, Note_on_c, 2, 75, 0
7, 81825, Control_c, 2, 11, 100
7, 81840, Note_on_c, 2, 74, 76
7, 81929, Note_on_c, 2, 74, 0
7, 81932, Control_c, 2, 11, 101
7, 81960, Note_on_c, 2, 74, 76
7, 82039, Control_c, 2, 11, 102
7, 82049, Note_on_c, 2, 74, 0
7, 82080, Note_on_c, 2, 72, 76
7, 82146, Control_c, 2, 11, 103
7, 82169, Note_on_c, 2, 72, 0
7, 82200, Note_on_c, 2, 70, 76
7, 82254, Control_c, 2, 11, 104
7, 82319, Note_on_c, 2, 70, 0
7, 82361, Control_c, 2, 11, 105
7, 82468, Control_c, 2, 11, 106
7, 82560, Note_on_c, 2, 77, 76
7, 82575, Control_c, 2, 11, 107
7, 82683, Control_c, 2, 11, 108
7, 82790, Control_c, 2, 11, 109
7, 82897, Control_c, 2, 11, 110
7, 83004, Control_c, 2, 11, 111
7, 83111, Control_c, 2, 11, 112
7, 83219, Control_c, 2, 11, 113
7, 83326, Control_c, 2, 11, 114
7, 83433, Control_c, 2, 11, 115
7, 83540, Control_c, 2, 11, 116
7, 83648, Control_c, 2, 11, 117
7, 83755, Control_c, 2, 11, 118
7, 83759, Note_on_c, 2, 77, 0
7, 83760, Note_on_c, 2, 79, 76
7, 83760, Note_on_c, 2, 76, 76
7, 83862, Control_c, 2, 11, 119
7, 83864, Note_on_c, 2, 79, 0
7, 83864, Note_on_c, 2, 76, 0
7, 83880, Note_on_c, 2, 76, 76
7, 83880, Note_on_c, 2, 79, 76
7, 83969, Note_on_c, 2, 76, 0
7, 83969, Note_on_c, 2, 79, 0
7, 83969, Control_c, 2, 11, 120
7, 84000, Note_on_c, 2, 79, 76
7, 84000, Note_on_c, 2, 76, 76
7, 84077, Control_c, 2, 11, 121
7, 84184, Control_c, 2, 11, 122
7, 84291, Control_c, 2, 11, 123
7, 84398, Control_c, 2, 11, 124
7, 84506, Control_c, 2, 11, 125
7, 84613, Control_c, 2, 11, 127
7, 84944, Note_on_c, 2, 79, 0
7, 84944, Note_on_c, 2, 76, 0
7, 84960, Note_on_c, 2, 77, 76
7, 84960, Note_on_c, 2, 81, 76
7, 85031, Note_on_c, 2, 77, 0
7, 85031, Note_on_c, 2, 81, 0
7, 85040, Note_on_c, 2, 77, 76
7, 85079, Note_on_c, 2, 77, 0
7, 85080, Note_on_c, 2, 81, 76
7, 85199, Note_on_c, 2, 81, 0
7, 85200, Note_on_c, 2, 77, 76
7, 85259, Note_on_c, 2, 77, 0
7, 85320, Note_on_c, 2, 81, 76
7, 85320, Note_on_c, 2, 77, 76
7, 85391, Note_on_c, 2, 81, 0
7, 85391, Note_on_c, 2, 77, 0
7, 85400, Note_on_c, 2, 81, 76
7, 85400, Note_on_c, 2, 77, 76
7, 85439, Note_on_c, 2, 81, 0
7, 85439, Note_on_c, 2, 77, 0
7, 85440, Note_on_c, 2, 81, 76
7, 85440, Note_on_c, 2, 84, 76
7, 85559, Note_on_c, 2, 81, 0
7, 85559, Note_on_c, 2, 84, 0
7, 85560, Note_on_c, 2, 81, 76
7, 85560, Note_on_c, 2, 77, 76
7, 85619, Note_on_c, 2, 81, 0
7, 85619, Note_on_c, 2, 77, 0
7, 85680, Note_on_c, 2, 84, 76
7, 85680, Note_on_c, 2, 81, 76
7, 85784, Note_on_c, 2, 84, 0
7, 85784, Note_on_c, 2, 81, 0
7, 85800, Note_on_c, 2, 77, 84
7, 85800, Note_on_c, 2, 65, 84
7, 86999, Note_on_c, 2, 77, 0
7, 86999, Note_on_c, 2, 65, 0
7, 87000, Note_on_c, 2, 67, 84
7, 87000, Note_on_c, 2, 79, 84
7, 87104, Note_on_c, 2, 67, 0
7, 87104, Note_on_c, 2, 79, 0
7, 87120, Note_on_c, 2, 67, 84
7, 87120, Note_on_c, 2, 79, 84
7, 87209, Note_on_c, 2, 67, 0
7, 87209, Note_on_c, 2, 79, 0
7, 87240, Note_on_c, 2, 79, 84
7, 87240, Note_on_c, 2, 67, 84
7, 88439, Note_on_c, 2, 79, 0
7, 88439, Note_on_c, 2, 67, 0
7, 88440, Note_on_c, 2, 81, 84
7, 88440, Note_on_c, 2, 69, 84
7, 88544, Note_on_c, 2, 81, 0
7, 88544, Note_on_c, 2, 69, 0
7, 88560, Note_on_c, 2, 81, 84
7, 88560, Note_on_c, 2, 69, 84
7, 88649, Note_on_c, 2, 81, 0
7, 88649, Note_on_c, 2, 69, 0
7, 88800, Note_on_c, 2, 69, 52
7, 88889, Note_on_c, 2, 69, 0
7, 88920, Note_on_c, 2, 70, 52
7, 89009, Note_on_c, 2, 70, 0
7, 89040, Note_on_c, 2, 72, 52
7, 89129, Note_on_c, 2, 72, 0
7, 89160, Note_on_c, 2, 72, 52
7, 89249, Note_on_c, 2, 72, 0
7, 89280, Note_on_c, 2, 74, 52
7, 89369, Note_on_c, 2, 74, 0
7, 89400, Note_on_c, 2, 76, 52
7, 89489, Note_on_c, 2, 76, 0
7, 89520, Note_on_c, 2, 76, 52
7, 89609, Note_on_c, 2, 76, 0
7, 89640, Note_on_c, 2, 77, 52
7, 89729, Note_on_c, 2, 77, 0
7, 89760, Note_on_c, 2, 79, 52
7, 89849, Note_on_c, 2, 79, 0
7, 90240, Note_on_c, 2, 70, 52
7, 90329, Note_on_c, 2, 70, 0
7, 90360, Note_on_c, 2, 72, 52
7, 90449, Note_on_c, 2, 72, 0
7, 90480, Note_on_c, 2, 74, 52
7, 90569, Note_on_c, 2, 74, 0
7, 90600, Note_on_c, 2, 74, 52
7, 90689, Note_on_c, 2, 74, 0
7, 90720, Note_on_c, 2, 76, 52
7, 90809, Note_on_c, 2, 76, 0
7, 90840, Note_on_c, 2, 77, 52
7, 90929, Note_on_c, 2, 77, 0
7, 90960, Note_on_c, 2, 77, 52
7, 91049, Note_on_c, 2, 77, 0
7, 91080, Note_on_c, 2, 79, 52
7, 91169, Note_on_c, 2, 79, 0
7, 91200, Note_on_c, 2, 81, 52
7, 91319, Note_on_c, 2, 81, 0
7, 92280, Note_on_c, 2, 79, 52
7, 92280, Note_on_c, 2, 72, 52
7, 92369, Note_on_c, 2, 79, 0
7, 92369, Note_on_c, 2, 72, 0
7, 92400, Note_on_c, 2, 72, 52
7, 92400, Note_on_c, 2, 79, 52
7, 92489, Note_on_c, 2, 72, 0
7, 92489, Note_on_c, 2, 79, 0
7, 92520, Note_on_c, 2, 77, 52
7, 92520, Note_on_c, 2, 72, 52
7, 92609, Note_on_c, 2, 77, 0
7, 92609, Note_on_c, 2, 72, 0
7, 92640, Note_on_c, 2, 76, 52
7, 92640, Note_on_c, 2, 82, 52
7, 92879, Note_on_c, 2, 76, 0
7, 92879, Note_on_c, 2, 82, 0
7, 92880, Note_on_c, 2, 77, 52
7, 92880, Note_on_c, 2, 81, 52
7, 92999, Note_on_c, 2, 77, 0
7, 92999, Note_on_c, 2, 81, 0
7, 95520, Note_on_c, 2, 72, 52
7, 95520, Note_on_c, 2, 76, 52
7, 95624, Note_on_c, 2, 72, 0
7, 95624, Note_on_c, 2, 76, 0
7, 95640, Note_on_c, 2, 72, 52
7, 95640, Note_on_c, 2, 76, 52
7, 95744, Note_on_c, 2, 72, 0
7, 95744, Note_on_c, 2, 76, 0
7, 95760, Note_on_c, 2, 72, 52
7, 95760, Note_on_c, 2, 76, 52
7, 95879, Note_on_c, 2, 72, 0
7, 95879, Note_on_c, 2, 76, 0
7, 96240, Note_on_c, 2, 76, 52
7, 96240, Note_on_c, 2, 72, 52
7, 96344, Note_on_c, 2, 76, 0
7, 96344, Note_on_c, 2, 72, 0
7, 96360, Note_on_c, 2, 72, 52
7, 96360, Note_on_c, 2, 76, 52
7, 96464, Note_on_c, 2, 72, 0
7, 96464, Note_on_c, 2, 76, 0
7, 96480, Note_on_c, 2, 76, 52
7, 96480, Note_on_c, 2, 72, 52
7, 96599, Note_on_c, 2, 76, 0
7, 96599, Note_on_c, 2, 72, 0
7, 96960, Note_on_c, 2, 76, 52
7, 96960, Note_on_c, 2, 72, 52
7, 97064, Note_on_c, 2, 76, 0
7, 97064, Note_on_c, 2, 72, 0
7, 97080, Note_on_c, 2, 72, 52
7, 97080, Note_on_c, 2, 76, 52
7, 97184, Note_on_c, 2, 72, 0
7, 97184, Note_on_c, 2, 76, 0
7, 97200, Note_on_c, 2, 72, 52
7, 97200, Note_on_c, 2, 76, 52
7, 97319, Note_on_c, 2, 72, 0
7, 97319, Note_on_c, 2, 76, 0
7, 97680, Note_on_c, 2, 76, 52
7, 97680, Note_on_c, 2, 72, 52
7, 97784, Note_on_c, 2, 76, 0
7, 97784, Note_on_c, 2, 72, 0
7, 97800, Note_on_c, 2, 76, 52
7, 97800, Note_on_c, 2, 72, 52
7, 97904, Note_on_c, 2, 76, 0
7, 97904, Note_on_c, 2, 72, 0
7, 97920, Note_on_c, 2, 76, 52
7, 97920, Note_on_c, 2, 72, 52
7, 98024, Note_on_c, 2, 76, 0
7, 98024, Note_on_c, 2, 72, 0
7, 98040, Note_on_c, 2, 76, 84
7, 98084, Note_on_c, 2, 76, 0
7, 98085, Note_on_c, 2, 77, 84
7, 98129, Note_on_c, 2, 77, 0
7, 98130, Note_on_c, 2, 76, 84
7, 98160, Note_on_c, 2, 67, 84
7, 98174, Note_on_c, 2, 76, 0
7, 98175, Note_on_c, 2, 77, 84
7, 98219, Note_on_c, 2, 77, 0
7, 98220, Note_on_c, 2, 76, 84
7, 98264, Note_on_c, 2, 67, 0
7, 98264, Note_on_c, 2, 76, 0
7, 98265, Note_on_c, 2, 77, 84
7, 98280, Note_on_c, 2, 67, 84
7, 98309, Note_on_c, 2, 77, 0
7, 98310, Note_on_c, 2, 74, 84
7, 98354, Note_on_c, 2, 74, 0
7, 98355, Note_on_c, 2, 76, 84
7, 98384, Note_on_c, 2, 67, 0
7, 98399, Note_on_c, 2, 76, 0
7, 98400, Note_on_c, 2, 77, 84
7, 98400, Note_on_c, 2, 69, 84
7, 98504, Note_on_c, 2, 77, 0
7, 98504, Note_on_c, 2, 69, 0
7, 98520, Note_on_c, 2, 72, 84
7, 98520, Note_on_c, 2, 69, 84
7, 98624, Note_on_c, 2, 72, 0
7, 98624, Note_on_c, 2, 69, 0
7, 98640, Note_on_c, 2, 69, 84
7, 98640, Note_on_c, 2, 65, 84
7, 98744, Note_on_c, 2, 69, 0
7, 98744, Note_on_c, 2, 65, 0
7, 98760, Note_on_c, 2, 70, 84
7, 98804, Note_on_c, 2, 70, 0
7, 98805, Note_on_c, 2, 72, 84
7, 98849, Note_on_c, 2, 72, 0
7, 98850, Note_on_c, 2, 70, 84
7, 98880, Note_on_c, 2, 64, 84
7, 98894, Note_on_c, 2, 70, 0
7, 98895, Note_on_c, 2, 72, 84
7, 98939, Note_on_c, 2, 72, 0
7, 98940, Note_on_c, 2, 70, 84
7, 98984, Note_on_c, 2, 64, 0
7, 98984, Note_on_c, 2, 70, 0
7, 98985, Note_on_c, 2, 72, 84
7, 99000, Note_on_c, 2, 64, 84
7, 99029, Note_on_c, 2, 72, 0
7, 99030, Note_on_c, 2, 69, 84
7, 99074, Note_on_c, 2, 69, 0
7, 99075, Note_on_c, 2, 70, 84
7, 99104, Note_on_c, 2, 64, 0
7, 99119, Note_on_c, 2, 70, 0
7, 99120, Note_on_c, 2, 69, 84
7, 99120, Note_on_c, 2, 65, 84
7, 99224, Note_on_c, 2, 69, 0
7, 99224, Note_on_c, 2, 65, 0
7, 99240, Note_on_c, 2, 69, 84
7, 99240, Note_on_c, 2, 72, 84
7, 99344, Note_on_c, 2, 69, 0
7, 99344, Note_on_c, 2, 72, 0
7, 99360, Note_on_c, 2, 69, 84
7, 99360, Note_on_c, 2, 77, 84
7, 99464, Note_on_c, 2, 69, 0
7, 99464, Note_on_c, 2, 77, 0
7, 99480, Note_on_c, 2, 76, 84
7, 99524, Note_on_c, 2, 76, 0
7, 99525, Note_on_c, 2, 77, 84
7, 99569, Note_on_c, 2, 77, 0
7, 99570, Note_on_c, 2, 76, 84
7, 99600, Note_on_c, 2, 67, 84
7, 99614, Note_on_c, 2, 76, 0
7, 99615, Note_on_c, 2, 77, 84
7, 99659, Note_on_c, 2, 77, 0
7, 99660, Note_on_c, 2, 76, 84
7, 99704, Note_on_c, 2, 67, 0
7, 99704, Note_on_c, 2, 76, 0
7, 99705, Note_on_c, 2, 77, 84
7, 99720, Note_on_c, 2, 67, 84
7, 99749, Note_on_c, 2, 77, 0
7, 99750, Note_on_c, 2, 74, 84
7, 99794, Note_on_c, 2, 74, 0
7, 99795, Note_on_c, 2, 76, 84
7, 99824, Note_on_c, 2, 67, 0
7, 99839, Note_on_c, 2, 76, 0
7, 99840, Note_on_c, 2, 77, 84
7, 99840, Note_on_c, 2, 69, 84
7, 99944, Note_on_c, 2, 77, 0
7, 99944, Note_on_c, 2, 69, 0
7, 99960, Note_on_c, 2, 69, 84
7, 99960, Note_on_c, 2, 72, 84
7, 100064, Note_on_c, 2, 69, 0
7, 100064, Note_on_c, 2, 72, 0
7, 100080, Note_on_c, 2, 69, 84
7, 100080, Note_on_c, 2, 65, 84
7, 100184, Note_on_c, 2, 69, 0
7, 100184, Note_on_c, 2, 65, 0
7, 100200, Note_on_c, 2, 76, 84
7, 100244, Note_on_c, 2, 76, 0
7, 100245, Note_on_c, 2, 77, 84
7, 100289, Note_on_c, 2, 77, 0
7, 100290, Note_on_c, 2, 76, 84
7, 100320, Note_on_c, 2, 67, 84
7, 100334, Note_on_c, 2, 76, 0
7, 100335, Note_on_c, 2, 77, 84
7, 100379, Note_on_c, 2, 77, 0
7, 100380, Note_on_c, 2, 76, 84
7, 100424, Note_on_c, 2, 67, 0
7, 100424, Note_on_c, 2, 76, 0
7, 100425, Note_on_c, 2, 77, 84
7, 100440, Note_on_c, 2, 67, 84
7, 100469, Note_on_c, 2, 77, 0
7, 100470, Note_on_c, 2, 74, 84
7, 100514, Note_on_c, 2, 74, 0
7, 100515, Note_on_c, 2, 76, 84
7, 100544, Note_on_c, 2, 67, 0
7, 100559, Note_on_c, 2, 76, 0
7, 100560, Note_on_c, 2, 77, 84
7, 100560, Note_on_c, 2, 69, 84
7, 100664, Note_on_c, 2, 77, 0
7, 100664, Note_on_c, 2, 69, 0
7, 100680, Note_on_c, 2, 72, 84
7, 100680, Note_on_c, 2, 69, 84
7, 100784, Note_on_c, 2, 72, 0
7, 100784, Note_on_c, 2, 69, 0
7, 100800, Note_on_c, 2, 65, 84
7, 100800, Note_on_c, 2, 69, 84
7, 100904, Note_on_c, 2, 65, 0
7, 100904, Note_on_c, 2, 69, 0
7, 100920, Note_on_c, 2, 76, 84
7, 100964, Note_on_c, 2, 76, 0
7, 100965, Note_on_c, 2, 77, 84
7, 101009, Note_on_c, 2, 77, 0
7, 101010, Note_on_c, 2, 76, 84
7, 101040, Note_on_c, 2, 67, 84
7, 101054, Note_on_c, 2, 76, 0
7, 101055, Note_on_c, 2, 77, 84
7, 101099, Note_on_c, 2, 77, 0
7, 101100, Note_on_c, 2, 76, 84
7, 101144, Note_on_c, 2, 67, 0
7, 101144, Note_on_c, 2, 76, 0
7, 101145, Note_on_c, 2, 77, 84
7, 101160, Note_on_c, 2, 67, 84
7, 101189, Note_on_c, 2, 77, 0
7, 101190, Note_on_c, 2, 74, 84
7, 101234, Note_on_c, 2, 74, 0
7, 101235, Note_on_c, 2, 76, 84
7, 101264, Note_on_c, 2, 67, 0
7, 101279, Note_on_c, 2, 76, 0
7, 101280, Note_on_c, 2, 77, 84
7, 101280, Note_on_c, 2, 69, 84
7, 101384, Note_on_c, 2, 77, 0
7, 101384, Note_on_c, 2, 69, 0
7, 101400, Note_on_c, 2, 84, 84
7, 101400, Note_on_c, 2, 72, 84
7, 101504, Note_on_c, 2, 84, 0
7, 101504, Note_on_c, 2, 72, 0
7, 101520, Note_on_c, 2, 81, 84
7, 101520, Note_on_c, 2, 69, 84
7, 101624, Note_on_c, 2, 81, 0
7, 101624, Note_on_c, 2, 69, 0
7, 101640, Note_on_c, 2, 77, 84
7, 101744, Note_on_c, 2, 77, 0
7, 101760, Note_on_c, 2, 72, 84
7, 101864, Note_on_c, 2, 72, 0
7, 101880, Note_on_c, 2, 69, 84
7, 101984, Note_on_c, 2, 69, 0
7, 102000, Note_on_c, 2, 69, 84
7, 102000, Note_on_c, 2, 77, 84
7, 102119, Note_on_c, 2, 69, 0
7, 102119, Note_on_c, 2, 77, 0
7, 103680, Note_on_c, 2, 65, 84
7, 103680, Note_on_c, 2, 77, 84
7, 103751, Note_on_c, 2, 65, 0
7, 103751, Note_on_c, 2, 77, 0
7, 103760, Note_on_c, 2, 77, 84
7, 103760, Note_on_c, 2, 65, 84
7, 103799, Note_on_c, 2, 77, 0
7, 103799, Note_on_c, 2, 65, 0
7, 103800, Note_on_c, 2, 81, 92
7, 103800, Note_on_c, 2, 69, 92
7, 103919, Note_on_c, 2, 81, 0
7, 103919, Note_on_c, 2, 69, 0
7, 103920, Note_on_c, 2, 65, 84
7, 103920, Note_on_c, 2, 77, 84
7, 103979, Note_on_c, 2, 65, 0
7, 103979, Note_on_c, 2, 77, 0
7, 104040, Note_on_c, 2, 65, 84
7, 104040, Note_on_c, 2, 77, 84
7, 104111, Note_on_c, 2, 65, 0
7, 104111, Note_on_c, 2, 77, 0
7, 104120, Note_on_c, 2, 65, 84
7, 104120, Note_on_c, 2, 77, 84
7, 104159, Note_on_c, 2, 65, 0
7, 104159, Note_on_c, 2, 77, 0
7, 104160, Note_on_c, 2, 69, 92
7, 104160, Note_on_c, 2, 81, 92
7, 104279, Note_on_c, 2, 69, 0
7, 104279, Note_on_c, 2, 81, 0
7, 104280, Note_on_c, 2, 77, 84
7, 104280, Note_on_c, 2, 65, 84
7, 104384, Note_on_c, 2, 77, 0
7, 104384, Note_on_c, 2, 65, 0
7, 104400, Note_on_c, 2, 77, 84
7, 104400, Note_on_c, 2, 65, 84
7, 104471, Note_on_c, 2, 77, 0
7, 104471, Note_on_c, 2, 65, 0
7, 104480, Note_on_c, 2, 65, 84
7, 104480, Note_on_c, 2, 77, 84
7, 104519, Note_on_c, 2, 65, 0
7, 104519, Note_on_c, 2, 77, 0
7, 104520, Note_on_c, 2, 69, 92
7, 104520, Note_on_c, 2, 81, 92
7, 104639, Note_on_c, 2, 69, 0
7, 104639, Note_on_c, 2, 81, 0
7, 104640, Note_on_c, 2, 65, 84
7, 104640, Note_on_c, 2, 77, 84
7, 104744, Note_on_c, 2, 65, 0
7, 104744, Note_on_c, 2, 77, 0
7, 104760, Note_on_c, 2, 65, 84
7, 104760, Note_on_c, 2, 77, 84
7, 104831, Note_on_c, 2, 65, 0
7, 104831, Note_on_c, 2, 77, 0
7, 104840, Note_on_c, 2, 77, 84
7, 104840, Note_on_c, 2, 65, 84
7, 104879, Note_on_c, 2, 77, 0
7, 104879, Note_on_c, 2, 65, 0
7, 104880, Note_on_c, 2, 69, 92
7, 104880, Note_on_c, 2, 81, 92
7, 104999, Note_on_c, 2, 69, 0
7, 104999, Note_on_c, 2, 81, 0
7, 105000, Note_on_c, 2, 65, 84
7, 105000, Note_on_c, 2, 77, 84
7, 105104, Note_on_c, 2, 65, 0
7, 105104, Note_on_c, 2, 77, 0
7, 105120, Note_on_c, 2, 77, 84
7, 105120, Note_on_c, 2, 65, 84
7, 105209, Note_on_c, 2, 77, 0
7, 105209, Note_on_c, 2, 65, 0
7, 105240, Control_c, 2, 11, 127
7, 105240, Note_on_c, 2, 69, 84
7, 105240, Note_on_c, 2, 81, 84
7, 105280, Control_c, 2, 11, 125
7, 105320, Control_c, 2, 11, 124
7, 105360, Control_c, 2, 11, 122
7, 105400, Control_c, 2, 11, 120
7, 105440, Control_c, 2, 11, 118
7, 105480, Control_c, 2, 11, 117
7, 105520, Control_c, 2, 11, 115
7, 105560, Control_c, 2, 11, 113
7, 105600, Control_c, 2, 11, 111
7, 105640, Control_c, 2, 11, 110
7, 105680, Control_c, 2, 11, 108
7, 105720, Control_c, 2, 11, 106
7, 105760, Control_c, 2, 11, 104
7, 105800, Control_c, 2, 11, 103
7, 105840, Control_c, 2, 11, 101
7, 105880, Control_c, 2, 11, 99
7, 105920, Control_c, 2, 11, 97
7, 105960, Control_c, 2, 11, 96
7, 106000, Control_c, 2, 11, 94
7, 106040, Control_c, 2, 11, 92
7, 106080, Control_c, 2, 11, 90
7, 106120, Control_c, 2, 11, 89
7, 106160, Control_c, 2, 11, 87
7, 106200, Control_c, 2, 11, 85
7, 106240, Control_c, 2, 11, 83
7, 106280, Control_c, 2, 11, 82
7, 106320, Control_c, 2, 11, 80
7, 106360, Control_c, 2, 11, 78
7, 106400, Control_c, 2, 11, 76
7, 106440, Control_c, 2, 11, 75
7, 106480, Control_c, 2, 11, 73
7, 106520, Control_c, 2, 11, 71
7, 106560, Control_c, 2, 11, 69
7, 106600, Control_c, 2, 11, 68
7, 106640, Control_c, 2, 11, 64
7, 106664, Note_on_c, 2, 69, 0
7, 106664, Note_on_c, 2, 81, 0
7, 106680, Note_on_c, 2, 62, 84
7, 106680, Note_on_c, 2, 74, 84
7, 106919, Note_on_c, 2, 62, 0
7, 106919, Note_on_c, 2, 74, 0
7, 117480, Control_c, 2, 11, 96
7, 118200, Note_on_c, 2, 66, 68
7, 118200, Control_c, 2, 11, 96
7, 118200, Note_on_c, 2, 74, 68
7, 118253, Control_c, 2, 11, 99
7, 118307, Control_c, 2, 11, 103
7, 118360, Control_c, 2, 11, 106
7, 118413, Control_c, 2, 11, 110
7, 118467, Control_c, 2, 11, 113
7, 118520, Control_c, 2, 11, 117
7, 118573, Control_c, 2, 11, 120
7, 118627, Control_c, 2, 11, 124
7, 118680, Control_c, 2, 11, 127
7, 118733, Control_c, 2, 11, 124
7, 118787, Control_c, 2, 11, 120
7, 118799, Note_on_c, 2, 66, 0
7, 118799, Note_on_c, 2, 74, 0
7, 118800, Note_on_c, 2, 73, 68
7, 118800, Note_on_c, 2, 64, 68
7, 118840, Control_c, 2, 11, 117
7, 118893, Control_c, 2, 11, 113
7, 118919, Note_on_c, 2, 73, 0
7, 118919, Note_on_c, 2, 64, 0
7, 118920, Note_on_c, 2, 66, 68
7, 118920, Note_on_c, 2, 74, 68
7, 118947, Control_c, 2, 11, 110
7, 119000, Control_c, 2, 11, 106
7, 119053, Control_c, 2, 11, 103
7, 119107, Control_c, 2, 11, 99
7, 119159, Note_on_c, 2, 66, 0
7, 119159, Note_on_c, 2, 74, 0
7, 119160, Control_c, 2, 11, 96
7, 119640, Note_on_c, 2, 74, 68
7, 119640, Note_on_c, 2, 66, 68
7, 119693, Control_c, 2, 11, 99
7, 119747, Control_c, 2, 11, 103
7, 119800, Control_c, 2, 11, 106
7, 119853, Control_c, 2, 11, 110
7, 119907, Control_c, 2, 11, 113
7, 119960, Control_c, 2, 11, 117
7, 120013, Control_c, 2, 11, 120
7, 120067, Control_c, 2, 11, 124
7, 120120, Control_c, 2, 11, 127
7, 120173, Control_c, 2, 11, 124
7, 120227, Control_c, 2, 11, 120
7, 120239, Note_on_c, 2, 74, 0
7, 120239, Note_on_c, 2, 66, 0
7, 120240, Note_on_c, 2, 73, 68
7, 120240, Note_on_c, 2, 64, 68
7, 120280, Control_c, 2, 11, 117
7, 120333, Control_c, 2, 11, 113
7, 120359, Note_on_c, 2, 73, 0
7, 120359, Note_on_c, 2, 64, 0
7, 120360, Note_on_c, 2, 66, 68
7, 120360, Note_on_c, 2, 74, 68
7, 120387, Control_c, 2, 11, 110
7, 120440, Control_c, 2, 11, 106
7, 120493, Control_c, 2, 11, 103
7, 120547, Control_c, 2, 11, 99
7, 120599, Note_on_c, 2, 66, 0
7, 120599, Note_on_c, 2, 74, 0
7, 120600, Control_c, 2, 11, 96
7, 120840, Control_c, 2, 11, 127
7, 121080, Note_on_c, 2, 66, 52
7, 121080, Note_on_c, 2, 74, 52
7, 121559, Note_on_c, 2, 66, 0
7, 121559, Note_on_c, 2, 74, 0
7, 121560, Note_on_c, 2, 76, 52
7, 121560, Note_on_c, 2, 69, 52
7, 121779, Note_on_c, 2, 69, 0
7, 121799, Note_on_c, 2, 76, 0
7, 121800, Note_on_c, 2, 69, 52
7, 121800, Note_on_c, 2, 78, 52
7, 122039, Note_on_c, 2, 69, 0
7, 122039, Note_on_c, 2, 78, 0
7, 122040, Note_on_c, 2, 76, 52
7, 122040, Note_on_c, 2, 79, 52
7, 122259, Note_on_c, 2, 76, 0
7, 122259, Note_on_c, 2, 79, 0
7, 122280, Note_on_c, 2, 78, 52
7, 122280, Note_on_c, 2, 74, 52
7, 122459, Note_on_c, 2, 78, 0
7, 122459, Note_on_c, 2, 74, 0
7, 122520, Note_on_c, 2, 73, 52
7, 122520, Note_on_c, 2, 76, 52
7, 122759, Note_on_c, 2, 73, 0
7, 122759, Note_on_c, 2, 76, 0
7, 123240, Control_c, 2, 11, 96
7, 123960, Note_on_c, 2, 76, 68
7, 123960, Note_on_c, 2, 73, 68
7, 124013, Control_c, 2, 11, 99
7, 124067, Control_c, 2, 11, 103
7, 124120, Control_c, 2, 11, 106
7, 124173, Control_c, 2, 11, 110
7, 124227, Control_c, 2, 11, 113
7, 124280, Control_c, 2, 11, 117
7, 124333, Control_c, 2, 11, 120
7, 124387, Control_c, 2, 11, 124
7, 124440, Control_c, 2, 11, 127
7, 124493, Control_c, 2, 11, 124
7, 124547, Control_c, 2, 11, 120
7, 124559, Note_on_c, 2, 76, 0
7, 124559, Note_on_c, 2, 73, 0
7, 124560, Note_on_c, 2, 75, 68
7, 124560, Note_on_c, 2, 72, 68
7, 124600, Control_c, 2, 11, 117
7, 124653, Control_c, 2, 11, 113
7, 124679, Note_on_c, 2, 75, 0
7, 124679, Note_on_c, 2, 72, 0
7, 124680, Note_on_c, 2, 76, 68
7, 124680, Note_on_c, 2, 73, 68
7, 124707, Control_c, 2, 11, 110
7, 124760, Control_c, 2, 11, 106
7, 124813, Control_c, 2, 11, 103
7, 124867, Control_c, 2, 11, 99
7, 124919, Note_on_c, 2, 76, 0
7, 124919, Note_on_c, 2, 73, 0
7, 124920, Control_c, 2, 11, 96
7, 125400, Note_on_c, 2, 76, 68
7, 125400, Note_on_c, 2, 73, 68
7, 125453, Control_c, 2, 11, 99
7, 125507, Control_c, 2, 11, 103
7, 125560, Control_c, 2, 11, 106
7, 125613, Control_c, 2, 11, 110
7, 125667, Control_c, 2, 11, 113
7, 125720, Control_c, 2, 11, 117
7, 125773, Control_c, 2, 11, 120
7, 125827, Control_c, 2, 11, 124
7, 125880, Control_c, 2, 11, 127
7, 125933, Control_c, 2, 11, 124
7, 125987, Control_c, 2, 11, 120
7, 125999, Note_on_c, 2, 76, 0
7, 125999, Note_on_c, 2, 73, 0
7, 126000, Note_on_c, 2, 75, 68
7, 126000, Note_on_c, 2, 72, 68
7, 126040, Control_c, 2, 11, 117
7, 126093, Control_c, 2, 11, 113
7, 126119, Note_on_c, 2, 75, 0
7, 126119, Note_on_c, 2, 72, 0
7, 126120, Note_on_c, 2, 76, 68
7, 126120, Note_on_c, 2, 73, 68
7, 126147, Control_c, 2, 11, 110
7, 126200, Control_c, 2, 11, 106
7, 126253, Control_c, 2, 11, 103
7, 126307, Control_c, 2, 11, 99
7, 126359, Note_on_c, 2, 76, 0
7, 126359, Note_on_c, 2, 73, 0
7, 126360, Control_c, 2, 11, 96
7, 126600, Control_c, 2, 11, 127
7, 126840, Note_on_c, 2, 76, 52
7, 126840, Note_on_c, 2, 73, 52
7, 127319, Note_on_c, 2, 76, 0
7, 127319, Note_on_c, 2, 73, 0
7, 127320, Note_on_c, 2, 74, 52
7, 127320, Note_on_c, 2, 78, 52
7, 127559, Note_on_c, 2, 74, 0
7, 127559, Note_on_c, 2, 78, 0
7, 127560, Note_on_c, 2, 81, 52
7, 127560, Note_on_c, 2, 78, 52
7, 127799, Note_on_c, 2, 81, 0
7, 127799, Note_on_c, 2, 78, 0
7, 127800, Note_on_c, 2, 76, 52
7, 127800, Note_on_c, 2, 79, 52
7, 128019, Note_on_c, 2, 76, 0
7, 128019, Note_on_c, 2, 79, 0
7, 128040, Note_on_c, 2, 73, 52
7, 128040, Note_on_c, 2, 76, 52
7, 128219, Note_on_c, 2, 73, 0
7, 128219, Note_on_c, 2, 76, 0
7, 128280, Note_on_c, 2, 74, 52
7, 128519, Note_on_c, 2, 74, 0
7, 129720, Note_on_c, 2, 78, 48
7, 130919, Note_on_c, 2, 78, 0
7, 130920, Note_on_c, 2, 79, 48
7, 131139, Note_on_c, 2, 79, 0
7, 131160, Note_on_c, 2, 76, 48
7, 132359, Note_on_c, 2, 76, 0
7, 132360, Note_on_c, 2, 78, 48
7, 132579, Note_on_c, 2, 78, 0
7, 132600, Note_on_c, 2, 74, 48
7, 133119, Note_on_c, 2, 74, 0
7, 133140, Note_on_c, 2, 76, 48
7, 133199, Note_on_c, 2, 76, 0
7, 133200, Note_on_c, 2, 74, 48
7, 133259, Note_on_c, 2, 74, 0
7, 133260, Note_on_c, 2, 73, 48
7, 133319, Note_on_c, 2, 73, 0
7, 133320, Note_on_c, 2, 74, 48
7, 133559, Note_on_c, 2, 74, 0
7, 133560, Note_on_c, 2, 78, 48
7, 133799, Note_on_c, 2, 78, 0
7, 133800, Note_on_c, 2, 76, 48
7, 134019, Note_on_c, 2, 76, 0
7, 134040, Note_on_c, 2, 74, 48
7, 134759, Note_on_c, 2, 74, 0
7, 134760, Note_on_c, 2, 73, 48
7, 134999, Note_on_c, 2, 73, 0
7, 135480, Note_on_c, 2, 78, 48
7, 136439, Note_on_c, 2, 78, 0
7, 136440, Note_on_c, 2, 81, 48
7, 136679, Note_on_c, 2, 81, 0
7, 136680, Note_on_c, 2, 79, 48
7, 136899, Note_on_c, 2, 79, 0
7, 136920, Note_on_c, 2, 78, 48
7, 137399, Note_on_c, 2, 78, 0
7, 137400, Note_on_c, 2, 76, 48
7, 137879, Note_on_c, 2, 76, 0
7, 137880, Note_on_c, 2, 79, 48
7, 138119, Note_on_c, 2, 79, 0
7, 138120, Note_on_c, 2, 78, 48
7, 138339, Note_on_c, 2, 78, 0
7, 138358, Control_c, 2, 11, 96
7, 138360, Note_on_c, 2, 76, 64
7, 138420, Control_c, 2, 11, 99
7, 138480, Control_c, 2, 11, 101
7, 138540, Control_c, 2, 11, 104
7, 138599, Note_on_c, 2, 76, 0
7, 138600, Note_on_c, 2, 74, 64
7, 138600, Control_c, 2, 11, 106
7, 138660, Control_c, 2, 11, 109
7, 138720, Control_c, 2, 11, 112
7, 138780, Control_c, 2, 11, 114
7, 138839, Note_on_c, 2, 74, 0
7, 138840, Note_on_c, 2, 78, 64
7, 138840, Control_c, 2, 11, 117
7, 138900, Control_c, 2, 11, 119
7, 138960, Control_c, 2, 11, 122
7, 139020, Control_c, 2, 11, 124
7, 139059, Note_on_c, 2, 78, 0
7, 139080, Note_on_c, 2, 78, 64
7, 139080, Control_c, 2, 11, 127
7, 139140, Control_c, 2, 11, 124
7, 139200, Control_c, 2, 11, 122
7, 139260, Control_c, 2, 11, 119
7, 139299, Note_on_c, 2, 78, 0
7, 139320, Note_on_c, 2, 78, 64
7, 139320, Control_c, 2, 11, 117
7, 139380, Control_c, 2, 11, 114
7, 139440, Control_c, 2, 11, 112
7, 139500, Control_c, 2, 11, 109
7, 139559, Note_on_c, 2, 78, 0
7, 139560, Control_c, 2, 11, 106
7, 139560, Note_on_c, 2, 74, 64
7, 139620, Control_c, 2, 11, 104
7, 139680, Control_c, 2, 11, 101
7, 139740, Control_c, 2, 11, 99
7, 139779, Note_on_c, 2, 74, 0
7, 139800, Control_c, 2, 11, 96
7, 139800, Note_on_c, 2, 73, 64
7, 140520, Control_c, 2, 11, 96
7, 140580, Control_c, 2, 11, 101
7, 140640, Control_c, 2, 11, 106
7, 140700, Control_c, 2, 11, 112
7, 140759, Note_on_c, 2, 73, 0
7, 140760, Note_on_c, 2, 78, 64
7, 140760, Control_c, 2, 11, 117
7, 140820, Control_c, 2, 11, 122
7, 140880, Control_c, 2, 11, 127
7, 140940, Control_c, 2, 11, 122
7, 140999, Note_on_c, 2, 78, 0
7, 141000, Note_on_c, 2, 74, 64
7, 141000, Control_c, 2, 11, 117
7, 141060, Control_c, 2, 11, 112
7, 141120, Control_c, 2, 11, 106
7, 141180, Control_c, 2, 11, 101
7, 141219, Note_on_c, 2, 74, 0
7, 141240, Control_c, 2, 11, 96
7, 141240, Note_on_c, 2, 73, 64
7, 141960, Control_c, 2, 11, 96
7, 142020, Control_c, 2, 11, 101
7, 142080, Control_c, 2, 11, 106
7, 142140, Control_c, 2, 11, 112
7, 142199, Note_on_c, 2, 73, 0
7, 142200, Note_on_c, 2, 78, 64
7, 142200, Control_c, 2, 11, 117
7, 142260, Control_c, 2, 11, 122
7, 142320, Control_c, 2, 11, 127
7, 142380, Control_c, 2, 11, 122
7, 142439, Note_on_c, 2, 78, 0
7, 142440, Note_on_c, 2, 74, 64
7, 142440, Control_c, 2, 11, 117
7, 142500, Control_c, 2, 11, 112
7, 142560, Control_c, 2, 11, 106
7, 142620, Control_c, 2, 11, 101
7, 142659, Note_on_c, 2, 74, 0
7, 142680, Control_c, 2, 11, 96
7, 142680, Note_on_c, 2, 73, 64
7, 142919, Note_on_c, 2, 73, 0
7, 145766, Control_c, 2, 11, 88
7, 145800, Note_on_c, 2, 79, 84
7, 145800, Note_on_c, 2, 76, 84
7, 145834, Control_c, 2, 11, 89
7, 145903, Control_c, 2, 11, 90
7, 145971, Control_c, 2, 11, 91
7, 146040, Control_c, 2, 11, 92
7, 146109, Control_c, 2, 11, 93
7, 146177, Control_c, 2, 11, 94
7, 146246, Control_c, 2, 11, 95
7, 146259, Note_on_c, 2, 79, 0
7, 146259, Note_on_c, 2, 76, 0
7, 146280, Note_on_c, 2, 79, 84
7, 146280, Note_on_c, 2, 76, 84
7, 146314, Control_c, 2, 11, 96
7, 146383, Control_c, 2, 11, 97
7, 146451, Control_c, 2, 11, 98
7, 146520, Control_c, 2, 11, 99
7, 146589, Control_c, 2, 11, 100
7, 146657, Control_c, 2, 11, 101
7, 146726, Control_c, 2, 11, 102
7, 146739, Note_on_c, 2, 79, 0
7, 146739, Note_on_c, 2, 76, 0
7, 146760, Note_on_c, 2, 76, 84
7, 146760, Note_on_c, 2, 79, 84
7, 146794, Control_c, 2, 11, 103
7, 146863, Control_c, 2, 11, 104
7, 146931, Control_c, 2, 11, 105
7, 146999, Note_on_c, 2, 76, 0
7, 146999, Note_on_c, 2, 79, 0
7, 147000, Control_c, 2, 11, 106
7, 147069, Control_c, 2, 11, 107
7, 147137, Control_c, 2, 11, 108
7, 147206, Control_c, 2, 11, 109
7, 147240, Note_on_c, 2, 76, 84
7, 147240, Note_on_c, 2, 79, 84
7, 147274, Control_c, 2, 11, 110
7, 147343, Control_c, 2, 11, 111
7, 147411, Control_c, 2, 11, 112
7, 147480, Control_c, 2, 11, 113
7, 147549, Control_c, 2, 11, 114
7, 147617, Control_c, 2, 11, 115
7, 147686, Control_c, 2, 11, 116
7, 147699, Note_on_c, 2, 76, 0
7, 147699, Note_on_c, 2, 79, 0
7, 147720, Note_on_c, 2, 76, 84
7, 147720, Note_on_c, 2, 79, 84
7, 147754, Control_c, 2, 11, 117
7, 147823, Control_c, 2, 11, 118
7, 147891, Control_c, 2, 11, 119
7, 147960, Control_c, 2, 11, 120
7, 148029, Control_c, 2, 11, 121
7, 148097, Control_c, 2, 11, 122
7, 148166, Control_c, 2, 11, 123
7, 148179, Note_on_c, 2, 76, 0
7, 148179, Note_on_c, 2, 79, 0
7, 148200, Note_on_c, 2, 79, 84
7, 148200, Note_on_c, 2, 76, 84
7, 148234, Control_c, 2, 11, 124
7, 148303, Control_c, 2, 11, 125
7, 148371, Control_c, 2, 11, 127
7, 148419, Note_on_c, 2, 79, 0
7, 148419, Note_on_c, 2, 76, 0
7, 148440, Note_on_c, 2, 78, 84
7, 148440, Note_on_c, 2, 86, 84
7, 149039, Note_on_c, 2, 78, 0
7, 149039, Note_on_c, 2, 86, 0
7, 149040, Note_on_c, 2, 76, 84
7, 149040, Note_on_c, 2, 85, 84
7, 149159, Note_on_c, 2, 76, 0
7, 149159, Note_on_c, 2, 85, 0
7, 149160, Note_on_c, 2, 78, 84
7, 149160, Note_on_c, 2, 86, 84
7, 149399, Note_on_c, 2, 78, 0
7, 149399, Note_on_c, 2, 86, 0
7, 149880, Note_on_c, 2, 86, 84
7, 149880, Note_on_c, 2, 78, 84
7, 150479, Note_on_c, 2, 86, 0
7, 150479, Note_on_c, 2, 78, 0
7, 150480, Note_on_c, 2, 85, 84
7, 150480, Note_on_c, 2, 76, 84
7, 150599, Note_on_c, 2, 85, 0
7, 150599, Note_on_c, 2, 76, 0
7, 150600, Note_on_c, 2, 86, 84
7, 150600, Note_on_c, 2, 78, 84
7, 150839, Note_on_c, 2, 86, 0
7, 150839, Note_on_c, 2, 78, 0
7, 151320, Note_on_c, 2, 86, 84
7, 151320, Note_on_c, 2, 78, 84
7, 151799, Note_on_c, 2, 86, 0
7, 151799, Note_on_c, 2, 78, 0
7, 151800, Note_on_c, 2, 85, 84
7, 151800, Note_on_c, 2, 76, 84
7, 152039, Note_on_c, 2, 85, 0
7, 152039, Note_on_c, 2, 76, 0
7, 152040, Note_on_c, 2, 86, 84
7, 152040, Note_on_c, 2, 78, 84
7, 152279, Note_on_c, 2, 86, 0
7, 152279, Note_on_c, 2, 78, 0
7, 152280, Note_on_c, 2, 79, 84
7, 152280, Note_on_c, 2, 76, 84
7, 152499, Note_on_c, 2, 79, 0
7, 152499, Note_on_c, 2, 76, 0
7, 152520, Note_on_c, 2, 78, 84
7, 152520, Note_on_c, 2, 74, 84
7, 152699, Note_on_c, 2, 78, 0
7, 152699, Note_on_c, 2, 74, 0
7, 152760, Note_on_c, 2, 73, 84
7, 152760, Note_on_c, 2, 76, 84
7, 152999, Note_on_c, 2, 73, 0
7, 152999, Note_on_c, 2, 76, 0
7, 154200, Note_on_c, 2, 76, 84
7, 154200, Note_on_c, 2, 73, 84
7, 154799, Note_on_c, 2, 76, 0
7, 154799, Note_on_c, 2, 73, 0
7, 154800, Note_on_c, 2, 75, 84
7, 154800, Note_on_c, 2, 72, 84
7, 154919, Note_on_c, 2, 75, 0
7, 154919, Note_on_c, 2, 72, 0
7, 154920, Note_on_c, 2, 76, 84
7, 154920, Note_on_c, 2, 73, 84
7, 155159, Note_on_c, 2, 76, 0
7, 155159, Note_on_c, 2, 73, 0
7, 155640, Note_on_c, 2, 73, 84
7, 155640, Note_on_c, 2, 76, 84
7, 156239, Note_on_c, 2, 73, 0
7, 156239, Note_on_c, 2, 76, 0
7, 156240, Note_on_c, 2, 72, 84
7, 156240, Note_on_c, 2, 75, 84
7, 156359, Note_on_c, 2, 72, 0
7, 156359, Note_on_c, 2, 75, 0
7, 156360, Note_on_c, 2, 76, 84
7, 156360, Note_on_c, 2, 73, 84
7, 156599, Note_on_c, 2, 76, 0
7, 156599, Note_on_c, 2, 73, 0
7, 157080, Note_on_c, 2, 76, 84
7, 157080, Note_on_c, 2, 73, 84
7, 157559, Note_on_c, 2, 76, 0
7, 157559, Note_on_c, 2, 73, 0
7, 157560, Note_on_c, 2, 78, 84
7, 157560, Note_on_c, 2, 74, 84
7, 157799, Note_on_c, 2, 78, 0
7, 157799, Note_on_c, 2, 74, 0
7, 157800, Note_on_c, 2, 81, 84
7, 157800, Note_on_c, 2, 78, 84
7, 158039, Note_on_c, 2, 81, 0
7, 158039, Note_on_c, 2, 78, 0
7, 158040, Note_on_c, 2, 76, 84
7, 158040, Note_on_c, 2, 79, 84
7, 158259, Note_on_c, 2, 76, 0
7, 158259, Note_on_c, 2, 79, 0
7, 158280, Note_on_c, 2, 85, 84
7, 158280, Note_on_c, 2, 76, 84
7, 158459, Note_on_c, 2, 85, 0
7, 158459, Note_on_c, 2, 76, 0
7, 158520, Note_on_c, 2, 86, 84
7, 158520, Note_on_c, 2, 78, 84
7, 158759, Note_on_c, 2, 86, 0
7, 158759, Note_on_c, 2, 78, 0
7, 159960, Note_on_c, 2, 78, 48
7, 161159, Note_on_c, 2, 78, 0
7, 161160, Note_on_c, 2, 79, 48
7, 161379, Note_on_c, 2, 79, 0
7, 161400, Note_on_c, 2, 76, 48
7, 162599, Note_on_c, 2, 76, 0
7, 162600, Note_on_c, 2, 78, 48
7, 162819, Note_on_c, 2, 78, 0
7, 162840, Note_on_c, 2, 74, 48
7, 163359, Note_on_c, 2, 74, 0
7, 163380, Note_on_c, 2, 76, 48
7, 163439, Note_on_c, 2, 76, 0
7, 163440, Note_on_c, 2, 74, 48
7, 163499, Note_on_c, 2, 74, 0
7, 163500, Note_on_c, 2, 73, 48
7, 163559, Note_on_c, 2, 73, 0
7, 163560, Note_on_c, 2, 74, 48
7, 163799, Note_on_c, 2, 74, 0
7, 163800, Note_on_c, 2, 78, 48
7, 164039, Note_on_c, 2, 78, 0
7, 164040, Note_on_c, 2, 76, 48
7, 164259, Note_on_c, 2, 76, 0
7, 164280, Note_on_c, 2, 74, 48
7, 164999, Note_on_c, 2, 74, 0
7, 165000, Note_on_c, 2, 73, 48
7, 165239, Note_on_c, 2, 73, 0
7, 165720, Note_on_c, 2, 78, 48
7, 166679, Note_on_c, 2, 78, 0
7, 166680, Note_on_c, 2, 81, 48
7, 166919, Note_on_c, 2, 81, 0
7, 166920, Note_on_c, 2, 79, 48
7, 167139, Note_on_c, 2, 79, 0
7, 167160, Note_on_c, 2, 78, 48
7, 167639, Note_on_c, 2, 78, 0
7, 167640, Note_on_c, 2, 76, 48
7, 168119, Note_on_c, 2, 76, 0
7, 168120, Note_on_c, 2, 79, 48
7, 168359, Note_on_c, 2, 79, 0
7, 168360, Note_on_c, 2, 78, 48
7, 168579, Note_on_c, 2, 78, 0
7, 168598, Control_c, 2, 11, 96
7, 168600, Note_on_c, 2, 76, 64
7, 168660, Control_c, 2, 11, 99
7, 168720, Control_c, 2, 11, 101
7, 168780, Control_c, 2, 11, 104
7, 168839, Note_on_c, 2, 76, 0
7, 168840, Control_c, 2, 11, 106
7, 168840, Note_on_c, 2, 74, 64
7, 168900, Control_c, 2, 11, 109
7, 168960, Control_c, 2, 11, 112
7, 169020, Control_c, 2, 11, 114
7, 169079, Note_on_c, 2, 74, 0
7, 169080, Control_c, 2, 11, 117
7, 169080, Note_on_c, 2, 78, 64
7, 169140, Control_c, 2, 11, 119
7, 169200, Control_c, 2, 11, 122
7, 169260, Control_c, 2, 11, 124
7, 169299, Note_on_c, 2, 78, 0
7, 169320, Note_on_c, 2, 78, 64
7, 169320, Control_c, 2, 11, 127
7, 169380, Control_c, 2, 11, 124
7, 169440, Control_c, 2, 11, 122
7, 169500, Control_c, 2, 11, 119
7, 169539, Note_on_c, 2, 78, 0
7, 169560, Note_on_c, 2, 78, 64
7, 169560, Control_c, 2, 11, 117
7, 169620, Control_c, 2, 11, 114
7, 169680, Control_c, 2, 11, 112
7, 169740, Control_c, 2, 11, 109
7, 169799, Note_on_c, 2, 78, 0
7, 169800, Note_on_c, 2, 74, 64
7, 169800, Control_c, 2, 11, 106
7, 169860, Control_c, 2, 11, 104
7, 169920, Control_c, 2, 11, 101
7, 169980, Control_c, 2, 11, 99
7, 170019, Note_on_c, 2, 74, 0
7, 170040, Control_c, 2, 11, 96
7, 170040, Note_on_c, 2, 73, 64
7, 170760, Control_c, 2, 11, 96
7, 170820, Control_c, 2, 11, 101
7, 170880, Control_c, 2, 11, 106
7, 170940, Control_c, 2, 11, 112
7, 170999, Note_on_c, 2, 73, 0
7, 171000, Control_c, 2, 11, 117
7, 171000, Note_on_c, 2, 78, 64
7, 171060, Control_c, 2, 11, 122
7, 171120, Control_c, 2, 11, 127
7, 171180, Control_c, 2, 11, 122
7, 171239, Note_on_c, 2, 78, 0
7, 171240, Control_c, 2, 11, 117
7, 171240, Note_on_c, 2, 74, 64
7, 171300, Control_c, 2, 11, 112
7, 171360, Control_c, 2, 11, 106
7, 171420, Control_c, 2, 11, 101
7, 171459, Note_on_c, 2, 74, 0
7, 171480, Control_c, 2, 11, 96
7, 171480, Note_on_c, 2, 73, 64
7, 172200, Control_c, 2, 11, 96
7, 172260, Control_c, 2, 11, 101
7, 172320, Control_c, 2, 11, 106
7, 172380, Control_c, 2, 11, 112
7, 172439, Note_on_c, 2, 73, 0
7, 172440, Note_on_c, 2, 78, 64
7, 172440, Control_c, 2, 11, 117
7, 172500, Control_c, 2, 11, 122
7, 172560, Control_c, 2, 11, 127
7, 172620, Control_c, 2, 11, 122
7, 172679, Note_on_c, 2, 78, 0
7, 172680, Note_on_c, 2, 74, 64
7, 172680, Control_c, 2, 11, 117
7, 172740, Control_c, 2, 11, 112
7, 172800, Control_c, 2, 11, 106
7, 172860, Control_c, 2, 11, 101
7, 172899, Note_on_c, 2, 74, 0
7, 172920, Control_c, 2, 11, 96
7, 172920, Note_on_c, 2, 73, 64
7, 173159, Note_on_c, 2, 73, 0
7, 176006, Control_c, 2, 11, 88
7, 176040, Note_on_c, 2, 79, 84
7, 176040, Note_on_c, 2, 76, 84
7, 176074, Control_c, 2, 11, 89
7, 176143, Control_c, 2, 11, 90
7, 176211, Control_c, 2, 11, 91
7, 176280, Control_c, 2, 11, 92
7, 176349, Control_c, 2, 11, 93
7, 176417, Control_c, 2, 11, 94
7, 176486, Control_c, 2, 11, 95
7, 176499, Note_on_c, 2, 79, 0
7, 176499, Note_on_c, 2, 76, 0
7, 176520, Note_on_c, 2, 76, 84
7, 176520, Note_on_c, 2, 79, 84
7, 176554, Control_c, 2, 11, 96
7, 176623, Control_c, 2, 11, 97
7, 176691, Control_c, 2, 11, 98
7, 176760, Control_c, 2, 11, 99
7, 176829, Control_c, 2, 11, 100
7, 176897, Control_c, 2, 11, 101
7, 176966, Control_c, 2, 11, 102
7, 176979, Note_on_c, 2, 76, 0
7, 176979, Note_on_c, 2, 79, 0
7, 177000, Note_on_c, 2, 79, 84
7, 177000, Note_on_c, 2, 76, 84
7, 177034, Control_c, 2, 11, 103
7, 177103, Control_c, 2, 11, 104
7, 177171, Control_c, 2, 11, 105
7, 177239, Note_on_c, 2, 79, 0
7, 177239, Note_on_c, 2, 76, 0
7, 177240, Control_c, 2, 11, 106
7, 177309, Control_c, 2, 11, 107
7, 177377, Control_c, 2, 11, 108
7, 177446, Control_c, 2, 11, 109
7, 177480, Note_on_c, 2, 76, 84
7, 177480, Note_on_c, 2, 79, 84
7, 177514, Control_c, 2, 11, 110
7, 177583, Control_c, 2, 11, 111
7, 177651, Control_c, 2, 11, 112
7, 177720, Control_c, 2, 11, 113
7, 177789, Control_c, 2, 11, 114
7, 177857, Control_c, 2, 11, 115
7, 177926, Control_c, 2, 11, 116
7, 177939, Note_on_c, 2, 76, 0
7, 177939, Note_on_c, 2, 79, 0
7, 177960, Note_on_c, 2, 79, 84
7, 177960, Note_on_c, 2, 76, 84
7, 177994, Control_c, 2, 11, 117
7, 178063, Control_c, 2, 11, 118
7, 178131, Control_c, 2, 11, 119
7, 178200, Control_c, 2, 11, 120
7, 178269, Control_c, 2, 11, 121
7, 178337, Control_c, 2, 11, 122
7, 178406, Control_c, 2, 11, 123
7, 178419, Note_on_c, 2, 79, 0
7, 178419, Note_on_c, 2, 76, 0
7, 178440, Note_on_c, 2, 79, 84
7, 178440, Note_on_c, 2, 76, 84
7, 178474, Control_c, 2, 11, 124
7, 178543, Control_c, 2, 11, 125
7, 178611, Control_c, 2, 11, 127
7, 178659, Note_on_c, 2, 79, 0
7, 178659, Note_on_c, 2, 76, 0
7, 178680, Note_on_c, 2, 86, 84
7, 178680, Note_on_c, 2, 78, 84
7, 179279, Note_on_c, 2, 86, 0
7, 179279, Note_on_c, 2, 78, 0
7, 179280, Note_on_c, 2, 76, 84
7, 179280, Note_on_c, 2, 85, 84
7, 179399, Note_on_c, 2, 76, 0
7, 179399, Note_on_c, 2, 85, 0
7, 179400, Note_on_c, 2, 78, 84
7, 179400, Note_on_c, 2, 86, 84
7, 179639, Note_on_c, 2, 78, 0
7, 179639, Note_on_c, 2, 86, 0
7, 180120, Note_on_c, 2, 86, 84
7, 180120, Note_on_c, 2, 78, 84
7, 180719, Note_on_c, 2, 86, 0
7, 180719, Note_on_c, 2, 78, 0
7, 180720, Note_on_c, 2, 85, 84
7, 180720, Note_on_c, 2, 76, 84
7, 180839, Note_on_c, 2, 85, 0
7, 180839, Note_on_c, 2, 76, 0
7, 180840, Note_on_c, 2, 86, 84
7, 180840, Note_on_c, 2, 78, 84
7, 181079, Note_on_c, 2, 86, 0
7, 181079, Note_on_c, 2, 78, 0
7, 181560, Note_on_c, 2, 78, 84
7, 181560, Note_on_c, 2, 86, 84
7, 182039, Note_on_c, 2, 78, 0
7, 182039, Note_on_c, 2, 86, 0
7, 182040, Note_on_c, 2, 85, 84
7, 182040, Note_on_c, 2, 76, 84
7, 182279, Note_on_c, 2, 85, 0
7, 182279, Note_on_c, 2, 76, 0
7, 182280, Note_on_c, 2, 78, 84
7, 182280, Note_on_c, 2, 86, 84
7, 182519, Note_on_c, 2, 78, 0
7, 182519, Note_on_c, 2, 86, 0
7, 182520, Note_on_c, 2, 79, 84
7, 182520, Note_on_c, 2, 76, 84
7, 182739, Note_on_c, 2, 79, 0
7, 182739, Note_on_c, 2, 76, 0
7, 182760, Note_on_c, 2, 78, 84
7, 182760, Note_on_c, 2, 74, 84
7, 182939, Note_on_c, 2, 78, 0
7, 182939, Note_on_c, 2, 74, 0
7, 183000, Note_on_c, 2, 73, 84
7, 183000, Note_on_c, 2, 76, 84
7, 183239, Note_on_c, 2, 73, 0
7, 183239, Note_on_c, 2, 76, 0
7, 184440, Note_on_c, 2, 76, 84
7, 184440, Note_on_c, 2, 73, 84
7, 185039, Note_on_c, 2, 76, 0
7, 185039, Note_on_c, 2, 73, 0
7, 185040, Note_on_c, 2, 72, 84
7, 185040, Note_on_c, 2, 75, 84
7, 185159, Note_on_c, 2, 72, 0
7, 185159, Note_on_c, 2, 75, 0
7, 185160, Note_on_c, 2, 73, 84
7, 185160, Note_on_c, 2, 76, 84
7, 185399, Note_on_c, 2, 73, 0
7, 185399, Note_on_c, 2, 76, 0
7, 185880, Note_on_c, 2, 76, 84
7, 185880, Note_on_c, 2, 73, 84
7, 186479, Note_on_c, 2, 76, 0
7, 186479, Note_on_c, 2, 73, 0
7, 186480, Note_on_c, 2, 72, 84
7, 186480, Note_on_c, 2, 75, 84
7, 186599, Note_on_c, 2, 72, 0
7, 186599, Note_on_c, 2, 75, 0
7, 186600, Note_on_c, 2, 76, 84
7, 186600, Note_on_c, 2, 73, 84
7, 186839, Note_on_c, 2, 76, 0
7, 186839, Note_on_c, 2, 73, 0
7, 187320, Note_on_c, 2, 73, 84
7, 187320, Note_on_c, 2, 76, 84
7, 187799, Note_on_c, 2, 73, 0
7, 187799, Note_on_c, 2, 76, 0
7, 187800, Note_on_c, 2, 78, 84
7, 187800, Note_on_c, 2, 74, 84
7, 188039, Note_on_c, 2, 78, 0
7, 188039, Note_on_c, 2, 74, 0
7, 188040, Note_on_c, 2, 81, 84
7, 188040, Note_on_c, 2, 78, 84
7, 188279, Note_on_c, 2, 81, 0
7, 188279, Note_on_c, 2, 78, 0
7, 188280, Note_on_c, 2, 79, 84
7, 188280, Note_on_c, 2, 76, 84
7, 188499, Note_on_c, 2, 79, 0
7, 188499, Note_on_c, 2, 76, 0
7, 188520, Note_on_c, 2, 76, 84
7, 188520, Note_on_c, 2, 85, 84
7, 188699, Note_on_c, 2, 76, 0
7, 188699, Note_on_c, 2, 85, 0
7, 188760, Note_on_c, 2, 78, 84
7, 188760, Note_on_c, 2, 86, 84
7, 188999, Note_on_c, 2, 78, 0
7, 188999, Note_on_c, 2, 86, 0
7, 200040, Note_on_c, 2, 77, 76
7, 200111, Note_on_c, 2, 77, 0
7, 200120, Note_on_c, 2, 77, 76
7, 200159, Note_on_c, 2, 77, 0
7, 200160, Note_on_c, 2, 81, 76
7, 200279, Note_on_c, 2, 81, 0
7, 200280, Note_on_c, 2, 77, 76
7, 200339, Note_on_c, 2, 77, 0
7, 200400, Note_on_c, 2, 81, 76
7, 200400, Note_on_c, 2, 77, 76
7, 200471, Note_on_c, 2, 81, 0
7, 200471, Note_on_c, 2, 77, 0
7, 200480, Note_on_c, 2, 81, 76
7, 200480, Note_on_c, 2, 77, 76
7, 200519, Note_on_c, 2, 81, 0
7, 200519, Note_on_c, 2, 77, 0
7, 200520, Note_on_c, 2, 84, 76
7, 200520, Note_on_c, 2, 81, 76
7, 200639, Note_on_c, 2, 84, 0
7, 200639, Note_on_c, 2, 81, 0
7, 200640, Note_on_c, 2, 77, 76
7, 200640, Note_on_c, 2, 81, 76
7, 200699, Note_on_c, 2, 77, 0
7, 200699, Note_on_c, 2, 81, 0
7, 200760, Note_on_c, 2, 81, 76
7, 200760, Note_on_c, 2, 84, 76
7, 200864, Note_on_c, 2, 81, 0
7, 200864, Note_on_c, 2, 84, 0
7, 200880, Note_on_c, 2, 77, 52
7, 200880, Note_on_c, 2, 81, 52
7, 200999, Note_on_c, 2, 77, 0
7, 200999, Note_on_c, 2, 81, 0
7, 205560, Note_on_c, 2, 80, 84
7, 205799, Note_on_c, 2, 80, 0
7, 205800, Note_on_c, 2, 81, 76
7, 205904, Note_on_c, 2, 81, 0
7, 205920, Note_on_c, 2, 86, 76
7, 205920, Note_on_c, 2, 83, 76
7, 206264, Note_on_c, 2, 86, 0
7, 206264, Note_on_c, 2, 83, 0
7, 206280, Note_on_c, 2, 81, 76
7, 206280, Note_on_c, 2, 85, 76
7, 206399, Note_on_c, 2, 81, 0
7, 206399, Note_on_c, 2, 85, 0
7, 206640, Note_on_c, 2, 83, 76
7, 206640, Note_on_c, 2, 86, 76
7, 206984, Note_on_c, 2, 83, 0
7, 206984, Note_on_c, 2, 86, 0
7, 207000, Note_on_c, 2, 81, 76
7, 207000, Note_on_c, 2, 85, 76
7, 207119, Note_on_c, 2, 81, 0
7, 207119, Note_on_c, 2, 85, 0
7, 207360, Note_on_c, 2, 83, 76
7, 207360, Note_on_c, 2, 86, 76
7, 207704, Note_on_c, 2, 83, 0
7, 207704, Note_on_c, 2, 86, 0
7, 207720, Note_on_c, 2, 85, 76
7, 207720, Note_on_c, 2, 81, 76
7, 207809, Note_on_c, 2, 85, 0
7, 207809, Note_on_c, 2, 81, 0
7, 207840, Note_on_c, 2, 76, 76
7, 207929, Note_on_c, 2, 76, 0
7, 207960, Note_on_c, 2, 85, 76
7, 208049, Note_on_c, 2, 85, 0
7, 208080, Note_on_c, 2, 81, 76
7, 208169, Note_on_c, 2, 81, 0
7, 208200, Note_on_c, 2, 76, 76
7, 208289, Note_on_c, 2, 76, 0
7, 208320, Note_on_c, 2, 73, 76
7, 208409, Note_on_c, 2, 73, 0
7, 208440, Note_on_c, 2, 69, 76
7, 208529, Note_on_c, 2, 69, 0
7, 208680, Note_on_c, 2, 77, 52
7, 208751, Note_on_c, 2, 77, 0
7, 208760, Note_on_c, 2, 77, 52
7, 208799, Note_on_c, 2, 77, 0
7, 208800, Note_on_c, 2, 81, 52
7, 208919, Note_on_c, 2, 81, 0
7, 208920, Note_on_c, 2, 77, 52
7, 208979, Note_on_c, 2, 77, 0
7, 209040, Note_on_c, 2, 77, 52
7, 209040, Note_on_c, 2, 81, 52
7, 209111, Note_on_c, 2, 77, 0
7, 209111, Note_on_c, 2, 81, 0
7, 209120, Note_on_c, 2, 77, 52
7, 209120, Note_on_c, 2, 81, 52
7, 209159, Note_on_c, 2, 77, 0
7, 209159, Note_on_c, 2, 81, 0
7, 209160, Note_on_c, 2, 81, 52
7, 209160, Note_on_c, 2, 84, 52
7, 209279, Note_on_c, 2, 81, 0
7, 209279, Note_on_c, 2, 84, 0
7, 209280, Note_on_c, 2, 81, 52
7, 209280, Note_on_c, 2, 77, 52
7, 209339, Note_on_c, 2, 81, 0
7, 209339, Note_on_c, 2, 77, 0
7, 209400, Note_on_c, 2, 81, 52
7, 209400, Note_on_c, 2, 84, 52
7, 209504, Note_on_c, 2, 81, 0
7, 209504, Note_on_c, 2, 84, 0
7, 209520, Note_on_c, 2, 77, 52
7, 209520, Note_on_c, 2, 81, 52
7, 209639, Note_on_c, 2, 77, 0
7, 209639, Note_on_c, 2, 81, 0
7, 214200, Note_on_c, 2, 80, 52
7, 214439, Note_on_c, 2, 80, 0
7, 214440, Note_on_c, 2, 81, 52
7, 214544, Note_on_c, 2, 81, 0
7, 214560, Note_on_c, 2, 83, 52
7, 214560, Note_on_c, 2, 86, 52
7, 214904, Note_on_c, 2, 83, 0
7, 214904, Note_on_c, 2, 86, 0
7, 214920, Note_on_c, 2, 81, 52
7, 214920, Note_on_c, 2, 85, 52
7, 215039, Note_on_c, 2, 81, 0
7, 215039, Note_on_c, 2, 85, 0
7, 215280, Note_on_c, 2, 86, 52
7, 215280, Note_on_c, 2, 83, 52
7, 215624, Note_on_c, 2, 86, 0
7, 215624, Note_on_c, 2, 83, 0
7, 215640, Note_on_c, 2, 81, 52
7, 215640, Note_on_c, 2, 85, 52
7, 215759, Note_on_c, 2, 81, 0
7, 215759, Note_on_c, 2, 85, 0
7, 216000, Note_on_c, 2, 83, 52
7, 216000, Note_on_c, 2, 86, 52
7, 216344, Note_on_c, 2, 83, 0
7, 216344, Note_on_c, 2, 86, 0
7, 216360, Note_on_c, 2, 85, 52
7, 216360, Note_on_c, 2, 81, 52
7, 216449, Note_on_c, 2, 85, 0
7, 216449, Note_on_c, 2, 81, 0
7, 216480, Note_on_c, 2, 76, 52
7, 216569, Note_on_c, 2, 76, 0
7, 216600, Note_on_c, 2, 85, 52
7, 216689, Note_on_c, 2, 85, 0
7, 216720, Note_on_c, 2, 81, 52
7, 216809, Note_on_c, 2, 81, 0
7, 216840, Note_on_c, 2, 76, 52
7, 216929, Note_on_c, 2, 76, 0
7, 216960, Note_on_c, 2, 73, 52
7, 217049, Note_on_c, 2, 73, 0
7, 217080, Note_on_c, 2, 69, 52
7, 217169, Note_on_c, 2, 69, 0
7, 224160, Note_on_c, 2, 74, 44
7, 224160, Note_on_c, 2, 83, 44
7, 224264, Note_on_c, 2, 74, 0
7, 224264, Note_on_c, 2, 83, 0
7, 224280, Note_on_c, 2, 74, 44
7, 224280, Note_on_c, 2, 83, 44
7, 224399, Note_on_c, 2, 74, 0
7, 224399, Note_on_c, 2, 83, 0
7, 224520, Note_on_c, 2, 79, 44
7, 224520, Note_on_c, 2, 76, 44
7, 224609, Note_on_c, 2, 79, 0
7, 224609, Note_on_c, 2, 76, 0
7, 224640, Note_on_c, 2, 81, 44
7, 224640, Note_on_c, 2, 77, 44
7, 224729, Note_on_c, 2, 81, 0
7, 224729, Note_on_c, 2, 77, 0
7, 224760, Note_on_c, 2, 77, 44
7, 224760, Note_on_c, 2, 81, 44
7, 224849, Note_on_c, 2, 77, 0
7, 224849, Note_on_c, 2, 81, 0
7, 224880, Note_on_c, 2, 79, 44
7, 224880, Note_on_c, 2, 76, 44
7, 224969, Note_on_c, 2, 79, 0
7, 224969, Note_on_c, 2, 76, 0
7, 225000, Note_on_c, 2, 74, 44
7, 225000, Note_on_c, 2, 83, 44
7, 225239, Note_on_c, 2, 74, 0
7, 225239, Note_on_c, 2, 83, 0
7, 225240, Note_on_c, 2, 84, 44
7, 225240, Note_on_c, 2, 72, 44
7, 225344, Note_on_c, 2, 84, 0
7, 225344, Note_on_c, 2, 72, 0
7, 225360, Note_on_c, 2, 77, 44
7, 225360, Note_on_c, 2, 81, 44
7, 225449, Note_on_c, 2, 77, 0
7, 225449, Note_on_c, 2, 81, 0
7, 225480, Note_on_c, 2, 81, 44
7, 225480, Note_on_c, 2, 77, 44
7, 225569, Note_on_c, 2, 81, 0
7, 225569, Note_on_c, 2, 77, 0
7, 225600, Note_on_c, 2, 79, 44
7, 225600, Note_on_c, 2, 76, 44
7, 225689, Note_on_c, 2, 79, 0
7, 225689, Note_on_c, 2, 76, 0
7, 225720, Note_on_c, 2, 74, 44
7, 225720, Note_on_c, 2, 83, 44
7, 225959, Note_on_c, 2, 74, 0
7, 225959, Note_on_c, 2, 83, 0
7, 225960, Note_on_c, 2, 72, 44
7, 225960, Note_on_c, 2, 84, 44
7, 226064, Note_on_c, 2, 72, 0
7, 226064, Note_on_c, 2, 84, 0
7, 226080, Note_on_c, 2, 74, 44
7, 226080, Note_on_c, 2, 83, 44
7, 226319, Note_on_c, 2, 74, 0
7, 226319, Note_on_c, 2, 83, 0
7, 226320, Note_on_c, 2, 84, 44
7, 226320, Note_on_c, 2, 72, 44
7, 226424, Note_on_c, 2, 84, 0
7, 226424, Note_on_c, 2, 72, 0
7, 226440, Note_on_c, 2, 74, 44
7, 226440, Note_on_c, 2, 83, 44
7, 226679, Note_on_c, 2, 74, 0
7, 226679, Note_on_c, 2, 83, 0
7, 226680, Note_on_c, 2, 84, 44
7, 226680, Note_on_c, 2, 72, 44
7, 226784, Note_on_c, 2, 84, 0
7, 226784, Note_on_c, 2, 72, 0
7, 226800, Note_on_c, 2, 83, 44
7, 226800, Note_on_c, 2, 74, 44
7, 227039, Note_on_c, 2, 83, 0
7, 227039, Note_on_c, 2, 74, 0
7, 227040, Note_on_c, 2, 72, 44
7, 227040, Note_on_c, 2, 84, 44
7, 227144, Note_on_c, 2, 72, 0
7, 227144, Note_on_c, 2, 84, 0
7, 227160, Note_on_c, 2, 74, 44
7, 227160, Note_on_c, 2, 83, 44
7, 227399, Note_on_c, 2, 74, 0
7, 227399, Note_on_c, 2, 83, 0
7, 227400, Note_on_c, 2, 84, 44
7, 227400, Note_on_c, 2, 72, 44
7, 227519, Note_on_c, 2, 84, 0
7, 227519, Note_on_c, 2, 72, 0
7, 231360, Note_on_c, 2, 70, 48
7, 231464, Note_on_c, 2, 70, 0
7, 231480, Note_on_c, 2, 74, 48
7, 231599, Note_on_c, 2, 74, 0
7, 231600, Note_on_c, 2, 70, 48
7, 231659, Note_on_c, 2, 70, 0
7, 231720, Note_on_c, 2, 74, 48
7, 231824, Note_on_c, 2, 74, 0
7, 231840, Note_on_c, 2, 77, 48
7, 231959, Note_on_c, 2, 77, 0
7, 231960, Note_on_c, 2, 74, 48
7, 232019, Note_on_c, 2, 74, 0
7, 232080, Note_on_c, 2, 77, 48
7, 232184, Note_on_c, 2, 77, 0
7, 232200, Note_on_c, 2, 82, 48
7, 232289, Note_on_c, 2, 82, 0
7, 232320, Note_on_c, 2, 82, 48
7, 232409, Note_on_c, 2, 82, 0
7, 232440, Note_on_c, 2, 81, 48
7, 232529, Note_on_c, 2, 81, 0
7, 232560, Note_on_c, 2, 79, 48
7, 232649, Note_on_c, 2, 79, 0
7, 232680, Note_on_c, 2, 79, 48
7, 232769, Note_on_c, 2, 79, 0
7, 232800, Note_on_c, 2, 77, 48
7, 232889, Note_on_c, 2, 77, 0
7, 232920, Note_on_c, 2, 75, 48
7, 233009, Note_on_c, 2, 75, 0
7, 233040, Note_on_c, 2, 75, 48
7, 233129, Note_on_c, 2, 75, 0
7, 233160, Note_on_c, 2, 74, 48
7, 233249, Note_on_c, 2, 74, 0
7, 233280, Note_on_c, 2, 72, 48
7, 233399, Note_on_c, 2, 72, 0
7, 233640, Note_on_c, 2, 84, 48
7, 233729, Note_on_c, 2, 84, 0
7, 233760, Note_on_c, 2, 84, 48
7, 233849, Note_on_c, 2, 84, 0
7, 233880, Note_on_c, 2, 82, 48
7, 233969, Note_on_c, 2, 82, 0
7, 234000, Note_on_c, 2, 81, 48
7, 234089, Note_on_c, 2, 81, 0
7, 234120, Note_on_c, 2, 81, 48
7, 234209, Note_on_c, 2, 81, 0
7, 234240, Note_on_c, 2, 79, 48
7, 234329, Note_on_c, 2, 79, 0
7, 234360, Note_on_c, 2, 77, 48
7, 234449, Note_on_c, 2, 77, 0
7, 234480, Note_on_c, 2, 77, 48
7, 234569, Note_on_c, 2, 77, 0
7, 234600, Note_on_c, 2, 75, 48
7, 234689, Note_on_c, 2, 75, 0
7, 234720, Note_on_c, 2, 74, 48
7, 234839, Note_on_c, 2, 74, 0
7, 234960, Control_c, 2, 11, 80
7, 235080, Note_on_c, 2, 86, 76
7, 235080, Control_c, 2, 11, 80
7, 235169, Note_on_c, 2, 86, 0
7, 235187, Control_c, 2, 11, 81
7, 235200, Note_on_c, 2, 86, 76
7, 235289, Note_on_c, 2, 86, 0
7, 235294, Control_c, 2, 11, 82
7, 235320, Note_on_c, 2, 84, 76
7, 235402, Control_c, 2, 11, 83
7, 235409, Note_on_c, 2, 84, 0
7, 235440, Note_on_c, 2, 82, 76
7, 235509, Control_c, 2, 11, 84
7, 235529, Note_on_c, 2, 82, 0
7, 235560, Note_on_c, 2, 82, 76
7, 235616, Control_c, 2, 11, 85
7, 235649, Note_on_c, 2, 82, 0
7, 235680, Note_on_c, 2, 81, 76
7, 235723, Control_c, 2, 11, 86
7, 235769, Note_on_c, 2, 81, 0
7, 235800, Note_on_c, 2, 79, 76
7, 235831, Control_c, 2, 11, 87
7, 235889, Note_on_c, 2, 79, 0
7, 235920, Note_on_c, 2, 79, 76
7, 235938, Control_c, 2, 11, 88
7, 236009, Note_on_c, 2, 79, 0
7, 236040, Note_on_c, 2, 77, 76
7, 236045, Control_c, 2, 11, 89
7, 236129, Note_on_c, 2, 77, 0
7, 236152, Control_c, 2, 11, 90
7, 236160, Note_on_c, 2, 75, 76
7, 236249, Note_on_c, 2, 75, 0
7, 236260, Control_c, 2, 11, 91
7, 236367, Control_c, 2, 11, 92
7, 236474, Control_c, 2, 11, 93
7, 236520, Note_on_c, 2, 81, 76
7, 236581, Control_c, 2, 11, 94
7, 236609, Note_on_c, 2, 81, 0
7, 236640, Note_on_c, 2, 81, 76
7, 236689, Control_c, 2, 11, 95
7, 236729, Note_on_c, 2, 81, 0
7, 236760, Note_on_c, 2, 79, 76
7, 236796, Control_c, 2, 11, 96
7, 236849, Note_on_c, 2, 79, 0
7, 236880, Note_on_c, 2, 77, 76
7, 236903, Control_c, 2, 11, 97
7, 236969, Note_on_c, 2, 77, 0
7, 237000, Note_on_c, 2, 77, 76
7, 237010, Control_c, 2, 11, 98
7, 237089, Note_on_c, 2, 77, 0
7, 237117, Control_c, 2, 11, 99
7, 237120, Note_on_c, 2, 75, 76
7, 237209, Note_on_c, 2, 75, 0
7, 237225, Control_c, 2, 11, 100
7, 237240, Note_on_c, 2, 74, 76
7, 237329, Note_on_c, 2, 74, 0
7, 237332, Control_c, 2, 11, 101
7, 237360, Note_on_c, 2, 74, 76
7, 237439, Control_c, 2, 11, 102
7, 237449, Note_on_c, 2, 74, 0
7, 237480, Note_on_c, 2, 72, 76
7, 237546, Control_c, 2, 11, 103
7, 237569, Note_on_c, 2, 72, 0
7, 237600, Note_on_c, 2, 70, 76
7, 237654, Control_c, 2, 11, 104
7, 237719, Note_on_c, 2, 70, 0
7, 237761, Control_c, 2, 11, 105
7, 237868, Control_c, 2, 11, 106
7, 237960, Note_on_c, 2, 77, 76
7, 237975, Control_c, 2, 11, 107
7, 238083, Control_c, 2, 11, 108
7, 238190, Control_c, 2, 11, 109
7, 238297, Control_c, 2, 11, 110
7, 238404, Control_c, 2, 11, 111
7, 238511, Control_c, 2, 11, 112
7, 238619, Control_c, 2, 11, 113
7, 238726, Control_c, 2, 11, 114
7, 238833, Control_c, 2, 11, 115
7, 238940, Control_c, 2, 11, 116
7, 239048, Control_c, 2, 11, 117
7, 239155, Control_c, 2, 11, 118
7, 239159, Note_on_c, 2, 77, 0
7, 239160, Note_on_c, 2, 76, 76
7, 239160, Note_on_c, 2, 79, 76
7, 239262, Control_c, 2, 11, 119
7, 239264, Note_on_c, 2, 76, 0
7, 239264, Note_on_c, 2, 79, 0
7, 239280, Note_on_c, 2, 79, 76
7, 239280, Note_on_c, 2, 76, 76
7, 239369, Note_on_c, 2, 79, 0
7, 239369, Note_on_c, 2, 76, 0
7, 239369, Control_c, 2, 11, 120
7, 239400, Note_on_c, 2, 76, 76
7, 239400, Note_on_c, 2, 79, 76
7, 239477, Control_c, 2, 11, 121
7, 239584, Control_c, 2, 11, 122
7, 239691, Control_c, 2, 11, 123
7, 239798, Control_c, 2, 11, 124
7, 239906, Control_c, 2, 11, 125
7, 240013, Control_c, 2, 11, 127
7, 240344, Note_on_c, 2, 76, 0
7, 240344, Note_on_c, 2, 79, 0
7, 240360, Note_on_c, 2, 81, 76
7, 240360, Note_on_c, 2, 77, 76
7, 240431, Note_on_c, 2, 81, 0
7, 240431, Note_on_c, 2, 77, 0
7, 240440, Note_on_c, 2, 77, 76
7, 240479, Note_on_c, 2, 77, 0
7, 240480, Note_on_c, 2, 81, 76
7, 240599, Note_on_c, 2, 81, 0
7, 240600, Note_on_c, 2, 77, 76
7, 240659, Note_on_c, 2, 77, 0
7, 240720, Note_on_c, 2, 77, 76
7, 240720, Note_on_c, 2, 81, 76
7, 240791, Note_on_c, 2, 77, 0
7, 240791, Note_on_c, 2, 81, 0
7, 240800, Note_on_c, 2, 77, 76
7, 240800, Note_on_c, 2, 81, 76
7, 240839, Note_on_c, 2, 77, 0
7, 240839, Note_on_c, 2, 81, 0
7, 240840, Note_on_c, 2, 84, 76
7, 240840, Note_on_c, 2, 81, 76
7, 240959, Note_on_c, 2, 84, 0
7, 240959, Note_on_c, 2, 81, 0
7, 240960, Note_on_c, 2, 81, 76
7, 240960, Note_on_c, 2, 77, 76
7, 241019, Note_on_c, 2, 81, 0
7, 241019, Note_on_c, 2, 77, 0
7, 241080, Note_on_c, 2, 81, 76
7, 241080, Note_on_c, 2, 84, 76
7, 241184, Note_on_c, 2, 81, 0
7, 241184, Note_on_c, 2, 84, 0
7, 241200, Note_on_c, 2, 65, 84
7, 241200, Note_on_c, 2, 77, 84
7, 242399, Note_on_c, 2, 65, 0
7, 242399, Note_on_c, 2, 77, 0
7, 242400, Note_on_c, 2, 67, 84
7, 242400, Note_on_c, 2, 79, 84
7, 242504, Note_on_c, 2, 67, 0
7, 242504, Note_on_c, 2, 79, 0
7, 242520, Note_on_c, 2, 67, 84
7, 242520, Note_on_c, 2, 79, 84
7, 242609, Note_on_c, 2, 67, 0
7, 242609, Note_on_c, 2, 79, 0
7, 242640, Note_on_c, 2, 67, 84
7, 242640, Note_on_c, 2, 79, 84
7, 243839, Note_on_c, 2, 67, 0
7, 243839, Note_on_c, 2, 79, 0
7, 243840, Note_on_c, 2, 69, 84
7, 243840, Note_on_c, 2, 81, 84
7, 243944, Note_on_c, 2, 69, 0
7, 243944, Note_on_c, 2, 81, 0
7, 243960, Note_on_c, 2, 81, 84
7, 243960, Note_on_c, 2, 69, 84
7, 244049, Note_on_c, 2, 81, 0
7, 244049, Note_on_c, 2, 69, 0
7, 244200, Note_on_c, 2, 69, 52
7, 244289, Note_on_c, 2, 69, 0
7, 244320, Note_on_c, 2, 70, 52
7, 244409, Note_on_c, 2, 70, 0
7, 244440, Note_on_c, 2, 72, 52
7, 244529, Note_on_c, 2, 72, 0
7, 244560, Note_on_c, 2, 72, 52
7, 244649, Note_on_c, 2, 72, 0
7, 244680, Note_on_c, 2, 74, 52
7, 244769, Note_on_c, 2, 74, 0
7, 244800, Note_on_c, 2, 76, 52
7, 244889, Note_on_c, 2, 76, 0
7, 244920, Note_on_c, 2, 76, 52
7, 245009, Note_on_c, 2, 76, 0
7, 245040, Note_on_c, 2, 77, 52
7, 245129, Note_on_c, 2, 77, 0
7, 245160, Note_on_c, 2, 79, 52
7, 245249, Note_on_c, 2, 79, 0
7, 245640, Note_on_c, 2, 70, 52
7, 245729, Note_on_c, 2, 70, 0
7, 245760, Note_on_c, 2, 72, 52
7, 245849, Note_on_c, 2, 72, 0
7, 245880, Note_on_c, 2, 74, 52
7, 245969, Note_on_c, 2, 74, 0
7, 246000, Note_on_c, 2, 74, 52
7, 246089, Note_on_c, 2, 74, 0
7, 246120, Note_on_c, 2, 76, 52
7, 246209, Note_on_c, 2, 76, 0
7, 246240, Note_on_c, 2, 77, 52
7, 246329, Note_on_c, 2, 77, 0
7, 246360, Note_on_c, 2, 77, 52
7, 246449, Note_on_c, 2, 77, 0
7, 246480, Note_on_c, 2, 79, 52
7, 246569, Note_on_c, 2, 79, 0
7, 246600, Note_on_c, 2, 81, 52
7, 246719, Note_on_c, 2, 81, 0
7, 247680, Note_on_c, 2, 79, 52
7, 247680, Note_on_c, 2, 72, 52
7, 247769, Note_on_c, 2, 79, 0
7, 247769, Note_on_c, 2, 72, 0
7, 247800, Note_on_c, 2, 79, 52
7, 247800, Note_on_c, 2, 72, 52
7, 247889, Note_on_c, 2, 79, 0
7, 247889, Note_on_c, 2, 72, 0
7, 247920, Note_on_c, 2, 77, 52
7, 247920, Note_on_c, 2, 72, 52
7, 248009, Note_on_c, 2, 77, 0
7, 248009, Note_on_c, 2, 72, 0
7, 248040, Note_on_c, 2, 82, 52
7, 248040, Note_on_c, 2, 76, 52
7, 248279, Note_on_c, 2, 82, 0
7, 248279, Note_on_c, 2, 76, 0
7, 248280, Note_on_c, 2, 77, 52
7, 248280, Note_on_c, 2, 81, 52
7, 248399, Note_on_c, 2, 77, 0
7, 248399, Note_on_c, 2, 81, 0
7, 250920, Note_on_c, 2, 72, 52
7, 250920, Note_on_c, 2, 76, 52
7, 251024, Note_on_c, 2, 72, 0
7, 251024, Note_on_c, 2, 76, 0
7, 251040, Note_on_c, 2, 72, 52
7, 251040, Note_on_c, 2, 76, 52
7, 251144, Note_on_c, 2, 72, 0
7, 251144, Note_on_c, 2, 76, 0
7, 251160, Note_on_c, 2, 76, 52
7, 251160, Note_on_c, 2, 72, 52
7, 251279, Note_on_c, 2, 76, 0
7, 251279, Note_on_c, 2, 72, 0
7, 251640, Note_on_c, 2, 76, 52
7, 251640, Note_on_c, 2, 72, 52
7, 251744, Note_on_c, 2, 76, 0
7, 251744, Note_on_c, 2, 72, 0
7, 251760, Note_on_c, 2, 72, 52
7, 251760, Note_on_c, 2, 76, 52
7, 251864, Note_on_c, 2, 72, 0
7, 251864, Note_on_c, 2, 76, 0
7, 251880, Note_on_c, 2, 72, 52
7, 251880, Note_on_c, 2, 76, 52
7, 251999, Note_on_c, 2, 72, 0
7, 251999, Note_on_c, 2, 76, 0
7, 252360, Note_on_c, 2, 72, 52
7, 252360, Note_on_c, 2, 76, 52
7, 252464, Note_on_c, 2, 72, 0
7, 252464, Note_on_c, 2, 76, 0
7, 252480, Note_on_c, 2, 76, 52
7, 252480, Note_on_c, 2, 72, 52
7, 252584, Note_on_c, 2, 76, 0
7, 252584, Note_on_c, 2, 72, 0
7, 252600, Note_on_c, 2, 76, 52
7, 252600, Note_on_c, 2, 72, 52
7, 252719, Note_on_c, 2, 76, 0
7, 252719, Note_on_c, 2, 72, 0
7, 253080, Note_on_c, 2, 72, 52
7, 253080, Note_on_c, 2, 76, 52
7, 253184, Note_on_c, 2, 72, 0
7, 253184, Note_on_c, 2, 76, 0
7, 253200, Note_on_c, 2, 72, 52
7, 253200, Note_on_c, 2, 76, 52
7, 253304, Note_on_c, 2, 72, 0
7, 253304, Note_on_c, 2, 76, 0
7, 253320, Note_on_c, 2, 76, 52
7, 253320, Note_on_c, 2, 72, 52
7, 253424, Note_on_c, 2, 76, 0
7, 253424, Note_on_c, 2, 72, 0
7, 253440, Note_on_c, 2, 76, 84
7, 253484, Note_on_c, 2, 76, 0
7, 253485, Note_on_c, 2, 77, 84
7, 253529, Note_on_c, 2, 77, 0
7, 253530, Note_on_c, 2, 76, 84
7, 253560, Note_on_c, 2, 67, 84
7, 253574, Note_on_c, 2, 76, 0
7, 253575, Note_on_c, 2, 77, 84
7, 253619, Note_on_c, 2, 77, 0
7, 253620, Note_on_c, 2, 76, 84
7, 253664, Note_on_c, 2, 67, 0
7, 253664, Note_on_c, 2, 76, 0
7, 253665, Note_on_c, 2, 77, 84
7, 253680, Note_on_c, 2, 67, 84
7, 253709, Note_on_c, 2, 77, 0
7, 253710, Note_on_c, 2, 74, 84
7, 253754, Note_on_c, 2, 74, 0
7, 253755, Note_on_c, 2, 76, 84
7, 253784, Note_on_c, 2, 67, 0
7, 253799, Note_on_c, 2, 76, 0
7, 253800, Note_on_c, 2, 77, 84
7, 253800, Note_on_c, 2, 69, 84
7, 253904, Note_on_c, 2, 77, 0
7, 253904, Note_on_c, 2, 69, 0
7, 253920, Note_on_c, 2, 72, 84
7, 253920, Note_on_c, 2, 69, 84
7, 254024, Note_on_c, 2, 72, 0
7, 254024, Note_on_c, 2, 69, 0
7, 254040, Note_on_c, 2, 69, 84
7, 254040, Note_on_c, 2, 65, 84
7, 254144, Note_on_c, 2, 69, 0
7, 254144, Note_on_c, 2, 65, 0
7, 254160, Note_on_c, 2, 70, 84
7, 254204, Note_on_c, 2, 70, 0
7, 254205, Note_on_c, 2, 72, 84
7, 254249, Note_on_c, 2, 72, 0
7, 254250, Note_on_c, 2, 70, 84
7, 254280, Note_on_c, 2, 64, 84
7, 254294, Note_on_c, 2, 70, 0
7, 254295, Note_on_c, 2, 72, 84
7, 254339, Note_on_c, 2, 72, 0
7, 254340, Note_on_c, 2, 70, 84
7, 254384, Note_on_c, 2, 64, 0
7, 254384, Note_on_c, 2, 70, 0
7, 254385, Note_on_c, 2, 72, 84
7, 254400, Note_on_c, 2, 64, 84
7, 254429, Note_on_c, 2, 72, 0
7, 254430, Note_on_c, 2, 69, 84
7, 254474, Note_on_c, 2, 69, 0
7, 254475, Note_on_c, 2, 70, 84
7, 254504, Note_on_c, 2, 64, 0
7, 254519, Note_on_c, 2, 70, 0
7, 254520, Note_on_c, 2, 65, 84
7, 254520, Note_on_c, 2, 69, 84
7, 254624, Note_on_c, 2, 65, 0
7, 254624, Note_on_c, 2, 69, 0
7, 254640, Note_on_c, 2, 69, 84
7, 254640, Note_on_c, 2, 72, 84
7, 254744, Note_on_c, 2, 69, 0
7, 254744, Note_on_c, 2, 72, 0
7, 254760, Note_on_c, 2, 77, 84
7, 254760, Note_on_c, 2, 69, 84
7, 254864, Note_on_c, 2, 77, 0
7, 254864, Note_on_c, 2, 69, 0
7, 254880, Note_on_c, 2, 76, 84
7, 254924, Note_on_c, 2, 76, 0
7, 254925, Note_on_c, 2, 77, 84
7, 254969, Note_on_c, 2, 77, 0
7, 254970, Note_on_c, 2, 76, 84
7, 255000, Note_on_c, 2, 67, 84
7, 255014, Note_on_c, 2, 76, 0
7, 255015, Note_on_c, 2, 77, 84
7, 255059, Note_on_c, 2, 77, 0
7, 255060, Note_on_c, 2, 76, 84
7, 255104, Note_on_c, 2, 67, 0
7, 255104, Note_on_c, 2, 76, 0
7, 255105, Note_on_c, 2, 77, 84
7, 255120, Note_on_c, 2, 67, 84
7, 255149, Note_on_c, 2, 77, 0
7, 255150, Note_on_c, 2, 74, 84
7, 255194, Note_on_c, 2, 74, 0
7, 255195, Note_on_c, 2, 76, 84
7, 255224, Note_on_c, 2, 67, 0
7, 255239, Note_on_c, 2, 76, 0
7, 255240, Note_on_c, 2, 77, 84
7, 255240, Note_on_c, 2, 69, 84
7, 255344, Note_on_c, 2, 77, 0
7, 255344, Note_on_c, 2, 69, 0
7, 255360, Note_on_c, 2, 72, 84
7, 255360, Note_on_c, 2, 69, 84
7, 255464, Note_on_c, 2, 72, 0
7, 255464, Note_on_c, 2, 69, 0
7, 255480, Note_on_c, 2, 69, 84
7, 255480, Note_on_c, 2, 65, 84
7, 255584, Note_on_c, 2, 69, 0
7, 255584, Note_on_c, 2, 65, 0
7, 255600, Note_on_c, 2, 76, 84
7, 255644, Note_on_c, 2, 76, 0
7, 255645, Note_on_c, 2, 77, 84
7, 255689, Note_on_c, 2, 77, 0
7, 255690, Note_on_c, 2, 76, 84
7, 255720, Note_on_c, 2, 67, 84
7, 255734, Note_on_c, 2, 76, 0
7, 255735, Note_on_c, 2, 77, 84
7, 255779, Note_on_c, 2, 77, 0
7, 255780, Note_on_c, 2, 76, 84
7, 255824, Note_on_c, 2, 67, 0
7, 255824, Note_on_c, 2, 76, 0
7, 255825, Note_on_c, 2, 77, 84
7, 255840, Note_on_c, 2, 67, 84
7, 255869, Note_on_c, 2, 77, 0
7, 255870, Note_on_c, 2, 74, 84
7, 255914, Note_on_c, 2, 74, 0
7, 255915, Note_on_c, 2, 76, 84
7, 255944, Note_on_c, 2, 67, 0
7, 255959, Note_on_c, 2, 76, 0
7, 255960, Note_on_c, 2, 77, 84
7, 255960, Note_on_c, 2, 69, 84
7, 256064, Note_on_c, 2, 77, 0
7, 256064, Note_on_c, 2, 69, 0
7, 256080, Note_on_c, 2, 69, 84
7, 256080, Note_on_c, 2, 72, 84
7, 256184, Note_on_c, 2, 69, 0
7, 256184, Note_on_c, 2, 72, 0
7, 256200, Note_on_c, 2, 69, 84
7, 256200, Note_on_c, 2, 65, 84
7, 256304, Note_on_c, 2, 69, 0
7, 256304, Note_on_c, 2, 65, 0
7, 256320, Note_on_c, 2, 76, 84
7, 256364, Note_on_c, 2, 76, 0
7, 256365, Note_on_c, 2, 77, 84
7, 256409, Note_on_c, 2, 77, 0
7, 256410, Note_on_c, 2, 76, 84
7, 256440, Note_on_c, 2, 67, 84
7, 256454, Note_on_c, 2, 76, 0
7, 256455, Note_on_c, 2, 77, 84
7, 256499, Note_on_c, 2, 77, 0
7, 256500, Note_on_c, 2, 76, 84
7, 256544, Note_on_c, 2, 67, 0
7, 256544, Note_on_c, 2, 76, 0
7, 256545, Note_on_c, 2, 77, 84
7, 256560, Note_on_c, 2, 67, 84
7, 256589, Note_on_c, 2, 77, 0
7, 256590, Note_on_c, 2, 74, 84
7, 256634, Note_on_c, 2, 74, 0
7, 256635, Note_on_c, 2, 76, 84
7, 256664, Note_on_c, 2, 67, 0
7, 256679, Note_on_c, 2, 76, 0
7, 256680, Note_on_c, 2, 69, 84
7, 256680, Note_on_c, 2, 77, 84
7, 256784, Note_on_c, 2, 69, 0
7, 256784, Note_on_c, 2, 77, 0
7, 256800, Note_on_c, 2, 72, 84
7, 256800, Note_on_c, 2, 84, 84
7, 256904, Note_on_c, 2, 72, 0
7, 256904, Note_on_c, 2, 84, 0
7, 256920, Note_on_c, 2, 69, 84
7, 256920, Note_on_c, 2, 81, 84
7, 257024, Note_on_c, 2, 69, 0
7, 257024, Note_on_c, 2, 81, 0
7, 257040, Note_on_c, 2, 77, 84
7, 257144, Note_on_c, 2, 77, 0
7, 257160, Note_on_c, 2, 72, 84
7, 257264, Note_on_c, 2, 72, 0
7, 257280, Note_on_c, 2, 69, 84
7, 257384, Note_on_c, 2, 69, 0
7, 257400, Note_on_c, 2, 69, 84
7, 257400, Note_on_c, 2, 77, 84
7, 257519, Note_on_c, 2, 69, 0
7, 257519, Note_on_c, 2, 77, 0
7, 259080, Note_on_c, 2, 77, 84
7, 259080, Note_on_c, 2, 65, 84
7, 259151, Note_on_c, 2, 77, 0
7, 259151, Note_on_c, 2, 65, 0
7, 259160, Note_on_c, 2, 65, 84
7, 259160, Note_on_c, 2, 77, 84
7, 259199, Note_on_c, 2, 65, 0
7, 259199, Note_on_c, 2, 77, 0
7, 259200, Note_on_c, 2, 81, 92
7, 259200, Note_on_c, 2, 69, 92
7, 259319, Note_on_c, 2, 81, 0
7, 259319, Note_on_c, 2, 69, 0
7, 259320, Note_on_c, 2, 77, 84
7, 259320, Note_on_c, 2, 65, 84
7, 259379, Note_on_c, 2, 77, 0
7, 259379, Note_on_c, 2, 65, 0
7, 259440, Note_on_c, 2, 65, 84
7, 259440, Note_on_c, 2, 77, 84
7, 259511, Note_on_c, 2, 65, 0
7, 259511, Note_on_c, 2, 77, 0
7, 259520, Note_on_c, 2, 65, 84
7, 259520, Note_on_c, 2, 77, 84
7, 259559, Note_on_c, 2, 65, 0
7, 259559, Note_on_c, 2, 77, 0
7, 259560, Note_on_c, 2, 81, 92
7, 259560, Note_on_c, 2, 69, 92
7, 259679, Note_on_c, 2, 81, 0
7, 259679, Note_on_c, 2, 69, 0
7, 259680, Note_on_c, 2, 65, 84
7, 259680, Note_on_c, 2, 77, 84
7, 259784, Note_on_c, 2, 65, 0
7, 259784, Note_on_c, 2, 77, 0
7, 259800, Note_on_c, 2, 65, 84
7, 259800, Note_on_c, 2, 77, 84
7, 259871, Note_on_c, 2, 65, 0
7, 259871, Note_on_c, 2, 77, 0
7, 259880, Note_on_c, 2, 65, 84
7, 259880, Note_on_c, 2, 77, 84
7, 259919, Note_on_c, 2, 65, 0
7, 259919, Note_on_c, 2, 77, 0
7, 259920, Note_on_c, 2, 81, 92
7, 259920, Note_on_c, 2, 69, 92
7, 260039, Note_on_c, 2, 81, 0
7, 260039, Note_on_c, 2, 69, 0
7, 260040, Note_on_c, 2, 65, 84
7, 260040, Note_on_c, 2, 77, 84
7, 260144, Note_on_c, 2, 65, 0
7, 260144, Note_on_c, 2, 77, 0
7, 260160, Note_on_c, 2, 65, 84
7, 260160, Note_on_c, 2, 77, 84
7, 260231, Note_on_c, 2, 65, 0
7, 260231, Note_on_c, 2, 77, 0
7, 260240, Note_on_c, 2, 65, 84
7, 260240, Note_on_c, 2, 77, 84
7, 260279, Note_on_c, 2, 65, 0
7, 260279, Note_on_c, 2, 77, 0
7, 260280, Note_on_c, 2, 81, 92
7, 260280, Note_on_c, 2, 69, 92
7, 260399, Note_on_c, 2, 81, 0
7, 260399, Note_on_c, 2, 69, 0
7, 260400, Note_on_c, 2, 77, 84
7, 260400, Note_on_c, 2, 65, 84
7, 260504, Note_on_c, 2, 77, 0
7, 260504, Note_on_c, 2, 65, 0
7, 260520, Note_on_c, 2, 77, 84
7, 260520, Note_on_c, 2, 65, 84
7, 260609, Note_on_c, 2, 77, 0
7, 260609, Note_on_c, 2, 65, 0
7, 260640, Note_on_c, 2, 69, 84
7, 260640, Note_on_c, 2, 81, 84
7, 260640, Control_c, 2, 11, 127
7, 260680, Control_c, 2, 11, 125
7, 260720, Control_c, 2, 11, 124
7, 260760, Control_c, 2, 11, 122
7, 260800, Control_c, 2, 11, 120
7, 260840, Control_c, 2, 11, 118
7, 260880, Control_c, 2, 11, 117
7, 260920, Control_c, 2, 11, 115
7, 260960, Control_c, 2, 11, 113
7, 261000, Control_c, 2, 11, 111
7, 261040, Control_c, 2, 11, 110
7, 261080, Control_c, 2, 11, 108
7, 261120, Control_c, 2, 11, 106
7, 261160, Control_c, 2, 11, 104
7, 261200, Control_c, 2, 11, 103
7, 261240, Control_c, 2, 11, 101
7, 261280, Control_c, 2, 11, 99
7, 261320, Control_c, 2, 11, 97
7, 261360, Control_c, 2, 11, 96
7, 261400, Control_c, 2, 11, 94
7, 261440, Control_c, 2, 11, 92
7, 261480, Control_c, 2, 11, 90
7, 261520, Control_c, 2, 11, 89
7, 261560, Control_c, 2, 11, 87
7, 261600, Control_c, 2, 11, 85
7, 261640, Control_c, 2, 11, 83
7, 261680, Control_c, 2, 11, 82
7, 261720, Control_c, 2, 11, 80
7, 261760, Control_c, 2, 11, 78
7, 261800, Control_c, 2, 11, 76
7, 261840, Control_c, 2, 11, 75
7, 261880, Control_c, 2, 11, 73
7, 261920, Control_c, 2, 11, 71
7, 261960, Control_c, 2, 11, 69
7, 262000, Control_c, 2, 11, 68
7, 262040, Control_c, 2, 11, 64
7, 262064, Note_on_c, 2, 69, 0
7, 262064, Note_on_c, 2, 81, 0
7, 262080, Note_on_c, 2, 74, 84
7, 262080, Note_on_c, 2, 62, 84
7, 262319, Note_on_c, 2, 74, 0
7, 262319, Note_on_c, 2, 62, 0
7, 272880, Control_c, 2, 11, 96
7, 273600, Control_c, 2, 11, 96
7, 273600, Note_on_c, 2, 66, 68
7, 273600, Note_on_c, 2, 74, 68
7, 273653, Control_c, 2, 11, 99
7, 273707, Control_c, 2, 11, 103
7, 273760, Control_c, 2, 11, 106
7, 273813, Control_c, 2, 11, 110
7, 273867, Control_c, 2, 11, 113
7, 273920, Control_c, 2, 11, 117
7, 273973, Control_c, 2, 11, 120
7, 274027, Control_c, 2, 11, 124
7, 274080, Control_c, 2, 11, 127
7, 274133, Control_c, 2, 11, 124
7, 274187, Control_c, 2, 11, 120
7, 274199, Note_on_c, 2, 66, 0
7, 274199, Note_on_c, 2, 74, 0
7, 274200, Note_on_c, 2, 73, 68
7, 274200, Note_on_c, 2, 64, 68
7, 274240, Control_c, 2, 11, 117
7, 274293, Control_c, 2, 11, 113
7, 274319, Note_on_c, 2, 73, 0
7, 274319, Note_on_c, 2, 64, 0
7, 274320, Note_on_c, 2, 66, 68
7, 274320, Note_on_c, 2, 74, 68
7, 274347, Control_c, 2, 11, 110
7, 274400, Control_c, 2, 11, 106
7, 274453, Control_c, 2, 11, 103
7, 274507, Control_c, 2, 11, 99
7, 274559, Note_on_c, 2, 66, 0
7, 274559, Note_on_c, 2, 74, 0
7, 274560, Control_c, 2, 11, 96
7, 275040, Note_on_c, 2, 74, 68
7, 275040, Note_on_c, 2, 66, 68
7, 275093, Control_c, 2, 11, 99
7, 275147, Control_c, 2, 11, 103
7, 275200, Control_c, 2, 11, 106
7, 275253, Control_c, 2, 11, 110
7, 275307, Control_c, 2, 11, 113
7, 275360, Control_c, 2, 11, 117
7, 275413, Control_c, 2, 11, 120
7, 275467, Control_c, 2, 11, 124
7, 275520, Control_c, 2, 11, 127
7, 275573, Control_c, 2, 11, 124
7, 275627, Control_c, 2, 11, 120
7, 275639, Note_on_c, 2, 74, 0
7, 275639, Note_on_c, 2, 66, 0
7, 275640, Note_on_c, 2, 73, 68
7, 275640, Note_on_c, 2, 64, 68
7, 275680, Control_c, 2, 11, 117
7, 275733, Control_c, 2, 11, 113
7, 275759, Note_on_c, 2, 73, 0
7, 275759, Note_on_c, 2, 64, 0
7, 275760, Note_on_c, 2, 74, 68
7, 275760, Note_on_c, 2, 66, 68
7, 275787, Control_c, 2, 11, 110
7, 275840, Control_c, 2, 11, 106
7, 275893, Control_c, 2, 11, 103
7, 275947, Control_c, 2, 11, 99
7, 275999, Note_on_c, 2, 74, 0
7, 275999, Note_on_c, 2, 66, 0
7, 276000, Control_c, 2, 11, 96
7, 276240, Control_c, 2, 11, 127
7, 276480, Note_on_c, 2, 74, 52
7, 276480, Note_on_c, 2, 66, 52
7, 276959, Note_on_c, 2, 74, 0
7, 276959, Note_on_c, 2, 66, 0
7, 276960, Note_on_c, 2, 69, 52
7, 276960, Note_on_c, 2, 76, 52
7, 277179, Note_on_c, 2, 69, 0
7, 277199, Note_on_c, 2, 76, 0
7, 277200, Note_on_c, 2, 69, 52
7, 277200, Note_on_c, 2, 78, 52
7, 277439, Note_on_c, 2, 69, 0
7, 277439, Note_on_c, 2, 78, 0
7, 277440, Note_on_c, 2, 79, 52
7, 277440, Note_on_c, 2, 76, 52
7, 277659, Note_on_c, 2, 79, 0
7, 277659, Note_on_c, 2, 76, 0
7, 277680, Note_on_c, 2, 74, 52
7, 277680, Note_on_c, 2, 78, 52
7, 277859, Note_on_c, 2, 74, 0
7, 277859, Note_on_c, 2, 78, 0
7, 277920, Note_on_c, 2, 73, 52
7, 277920, Note_on_c, 2, 76, 52
7, 278159, Note_on_c, 2, 73, 0
7, 278159, Note_on_c, 2, 76, 0
7, 278640, Control_c, 2, 11, 96
7, 279360, Note_on_c, 2, 76, 68
7, 279360, Note_on_c, 2, 73, 68
7, 279413, Control_c, 2, 11, 99
7, 279467, Control_c, 2, 11, 103
7, 279520, Control_c, 2, 11, 106
7, 279573, Control_c, 2, 11, 110
7, 279627, Control_c, 2, 11, 113
7, 279680, Control_c, 2, 11, 117
7, 279733, Control_c, 2, 11, 120
7, 279787, Control_c, 2, 11, 124
7, 279840, Control_c, 2, 11, 127
7, 279893, Control_c, 2, 11, 124
7, 279947, Control_c, 2, 11, 120
7, 279959, Note_on_c, 2, 76, 0
7, 279959, Note_on_c, 2, 73, 0
7, 279960, Note_on_c, 2, 75, 68
7, 279960, Note_on_c, 2, 72, 68
7, 280000, Control_c, 2, 11, 117
7, 280053, Control_c, 2, 11, 113
7, 280079, Note_on_c, 2, 75, 0
7, 280079, Note_on_c, 2, 72, 0
7, 280080, Note_on_c, 2, 73, 68
7, 280080, Note_on_c, 2, 76, 68
7, 280107, Control_c, 2, 11, 110
7, 280160, Control_c, 2, 11, 106
7, 280213, Control_c, 2, 11, 103
7, 280267, Control_c, 2, 11, 99
7, 280319, Note_on_c, 2, 73, 0
7, 280319, Note_on_c, 2, 76, 0
7, 280320, Control_c, 2, 11, 96
7, 280800, Note_on_c, 2, 73, 68
7, 280800, Note_on_c, 2, 76, 68
7, 280853, Control_c, 2, 11, 99
7, 280907, Control_c, 2, 11, 103
7, 280960, Control_c, 2, 11, 106
7, 281013, Control_c, 2, 11, 110
7, 281067, Control_c, 2, 11, 113
7, 281120, Control_c, 2, 11, 117
7, 281173, Control_c, 2, 11, 120
7, 281227, Control_c, 2, 11, 124
7, 281280, Control_c, 2, 11, 127
7, 281333, Control_c, 2, 11, 124
7, 281387, Control_c, 2, 11, 120
7, 281399, Note_on_c, 2, 73, 0
7, 281399, Note_on_c, 2, 76, 0
7, 281400, Note_on_c, 2, 72, 68
7, 281400, Note_on_c, 2, 75, 68
7, 281440, Control_c, 2, 11, 117
7, 281493, Control_c, 2, 11, 113
7, 281519, Note_on_c, 2, 72, 0
7, 281519, Note_on_c, 2, 75, 0
7, 281520, Note_on_c, 2, 73, 68
7, 281520, Note_on_c, 2, 76, 68
7, 281547, Control_c, 2, 11, 110
7, 281600, Control_c, 2, 11, 106
7, 281653, Control_c, 2, 11, 103
7, 281707, Control_c, 2, 11, 99
7, 281759, Note_on_c, 2, 73, 0
7, 281759, Note_on_c, 2, 76, 0
7, 281760, Control_c, 2, 11, 96
7, 282000, Control_c, 2, 11, 127
7, 282240, Note_on_c, 2, 76, 52
7, 282240, Note_on_c, 2, 73, 52
7, 282719, Note_on_c, 2, 76, 0
7, 282719, Note_on_c, 2, 73, 0
7, 282720, Note_on_c, 2, 78, 52
7, 282720, Note_on_c, 2, 74, 52
7, 282959, Note_on_c, 2, 78, 0
7, 282959, Note_on_c, 2, 74, 0
7, 282960, Note_on_c, 2, 78, 52
7, 282960, Note_on_c, 2, 81, 52
7, 283199, Note_on_c, 2, 78, 0
7, 283199, Note_on_c, 2, 81, 0
7, 283200, Note_on_c, 2, 76, 52
7, 283200, Note_on_c, 2, 79, 52
7, 283419, Note_on_c, 2, 76, 0
7, 283419, Note_on_c, 2, 79, 0
7, 283440, Note_on_c, 2, 73, 52
7, 283440, Note_on_c, 2, 76, 52
7, 283619, Note_on_c, 2, 73, 0
7, 283619, Note_on_c, 2, 76, 0
7, 283680, Note_on_c, 2, 74, 52
7, 283919, Note_on_c, 2, 74, 0
7, 285120, Note_on_c, 2, 78, 48
7, 286319, Note_on_c, 2, 78, 0
7, 286320, Note_on_c, 2, 79, 48
7, 286539, Note_on_c, 2, 79, 0
7, 286560, Note_on_c, 2, 76, 48
7, 287759, Note_on_c, 2, 76, 0
7, 287760, Note_on_c, 2, 78, 48
7, 287979, Note_on_c, 2, 78, 0
7, 288000, Note_on_c, 2, 74, 48
7, 288519, Note_on_c, 2, 74, 0
7, 288540, Note_on_c, 2, 76, 48
7, 288599, Note_on_c, 2, 76, 0
7, 288600, Note_on_c, 2, 74, 48
7, 288659, Note_on_c, 2, 74, 0
7, 288660, Note_on_c, 2, 73, 48
7, 288719, Note_on_c, 2, 73, 0
7, 288720, Note_on_c, 2, 74, 48
7, 288959, Note_on_c, 2, 74, 0
7, 288960, Note_on_c, 2, 78, 48
7, 289199, Note_on_c, 2, 78, 0
7, 289200, Note_on_c, 2, 76, 48
7, 289419, Note_on_c, 2, 76, 0
7, 289440, Note_on_c, 2, 74, 48
7, 290159, Note_on_c, 2, 74, 0
7, 290160, Note_on_c, 2, 73, 48
7, 290399, Note_on_c, 2, 73, 0
7, 290880, Note_on_c, 2, 78, 48
7, 291839, Note_on_c, 2, 78, 0
7, 291840, Note_on_c, 2, 81, 48
7, 292079, Note_on_c, 2, 81, 0
7, 292080, Note_on_c, 2, 79, 48
7, 292299, Note_on_c, 2, 79, 0
7, 292320, Note_on_c, 2, 78, 48
7, 292799, Note_on_c, 2, 78, 0
7, 292800, Note_on_c, 2, 76, 48
7, 293279, Note_on_c, 2, 76, 0
7, 293280, Note_on_c, 2, 79, 48
7, 293519, Note_on_c, 2, 79, 0
7, 293520, Note_on_c, 2, 78, 48
7, 293739, Note_on_c, 2, 78, 0
7, 293758, Control_c, 2, 11, 96
7, 293760, Note_on_c, 2, 76, 64
7, 293820, Control_c, 2, 11, 99
7, 293880, Control_c, 2, 11, 101
7, 293940, Control_c, 2, 11, 104
7, 293999, Note_on_c, 2, 76, 0
7, 294000, Control_c, 2, 11, 106
7, 294000, Note_on_c, 2, 74, 64
7, 294060, Control_c, 2, 11, 109
7, 294120, Control_c, 2, 11, 112
7, 294180, Control_c, 2, 11, 114
7, 294239, Note_on_c, 2, 74, 0
7, 294240, Note_on_c, 2, 78, 64
7, 294240, Control_c, 2, 11, 117
7, 294300, Control_c, 2, 11, 119
7, 294360, Control_c, 2, 11, 122
7, 294420, Control_c, 2, 11, 124
7, 294459, Note_on_c, 2, 78, 0
7, 294480, Control_c, 2, 11, 127
7, 294480, Note_on_c, 2, 78, 64
7, 294540, Control_c, 2, 11, 124
7, 294600, Control_c, 2, 11, 122
7, 294660, Control_c, 2, 11, 119
7, 294699, Note_on_c, 2, 78, 0
7, 294720, Control_c, 2, 11, 117
7, 294720, Note_on_c, 2, 78, 64
7, 294780, Control_c, 2, 11, 114
7, 294840, Control_c, 2, 11, 112
7, 294900, Control_c, 2, 11, 109
7, 294959, Note_on_c, 2, 78, 0
7, 294960, Note_on_c, 2, 74, 64
7, 294960, Control_c, 2, 11, 106
7, 295020, Control_c, 2, 11, 104
7, 295080, Control_c, 2, 11, 101
7, 295140, Control_c, 2, 11, 99
7, 295179, Note_on_c, 2, 74, 0
7, 295200, Control_c, 2, 11, 96
7, 295200, Note_on_c, 2, 73, 64
7, 295920, Control_c, 2, 11, 96
7, 295980, Control_c, 2, 11, 101
7, 296040, Control_c, 2, 11, 106
7, 296100, Control_c, 2, 11, 112
7, 296159, Note_on_c, 2, 73, 0
7, 296160, Control_c, 2, 11, 117
7, 296160, Note_on_c, 2, 78, 64
7, 296220, Control_c, 2, 11, 122
7, 296280, Control_c, 2, 11, 127
7, 296340, Control_c, 2, 11, 122
7, 296399, Note_on_c, 2, 78, 0
7, 296400, Note_on_c, 2, 74, 64
7, 296400, Control_c, 2, 11, 117
7, 296460, Control_c, 2, 11, 112
7, 296520, Control_c, 2, 11, 106
7, 296580, Control_c, 2, 11, 101
7, 296619, Note_on_c, 2, 74, 0
7, 296640, Control_c, 2, 11, 96
7, 296640, Note_on_c, 2, 73, 64
7, 297360, Control_c, 2, 11, 96
7, 297420, Control_c, 2, 11, 101
7, 297480, Control_c, 2, 11, 106
7, 297540, Control_c, 2, 11, 112
7, 297599, Note_on_c, 2, 73, 0
7, 297600, Control_c, 2, 11, 117
7, 297600, Note_on_c, 2, 78, 64
7, 297660, Control_c, 2, 11, 122
7, 297720, Control_c, 2, 11, 127
7, 297780, Control_c, 2, 11, 122
7, 297839, Note_on_c, 2, 78, 0
7, 297840, Control_c, 2, 11, 117
7, 297840, Note_on_c, 2, 74, 64
7, 297900, Control_c, 2, 11, 112
7, 297960, Control_c, 2, 11, 106
7, 298020, Control_c, 2, 11, 101
7, 298059, Note_on_c, 2, 74, 0
7, 298080, Control_c, 2, 11, 96
7, 298080, Note_on_c, 2, 73, 64
7, 298319, Note_on_c, 2, 73, 0
7, 301166, Control_c, 2, 11, 88
7, 301200, Note_on_c, 2, 76, 84
7, 301200, Note_on_c, 2, 79, 84
7, 301234, Control_c, 2, 11, 89
7, 301303, Control_c, 2, 11, 90
7, 301371, Control_c, 2, 11, 91
7, 301440, Control_c, 2, 11, 92
7, 301509, Control_c, 2, 11, 93
7, 301577, Control_c, 2, 11, 94
7, 301646, Control_c, 2, 11, 95
7, 301659, Note_on_c, 2, 76, 0
7, 301659, Note_on_c, 2, 79, 0
7, 301680, Note_on_c, 2, 76, 84
7, 301680, Note_on_c, 2, 79, 84
7, 301714, Control_c, 2, 11, 96
7, 301783, Control_c, 2, 11, 97
7, 301851, Control_c, 2, 11, 98
7, 301920, Control_c, 2, 11, 99
7, 301989, Control_c, 2, 11, 100
7, 302057, Control_c, 2, 11, 101
7, 302126, Control_c, 2, 11, 102
7, 302139, Note_on_c, 2, 76, 0
7, 302139, Note_on_c, 2, 79, 0
7, 302160, Note_on_c, 2, 76, 84
7, 302160, Note_on_c, 2, 79, 84
7, 302194, Control_c, 2, 11, 103
7, 302263, Control_c, 2, 11, 104
7, 302331, Control_c, 2, 11, 105
7, 302399, Note_on_c, 2, 76, 0
7, 302399, Note_on_c, 2, 79, 0
7, 302400, Control_c, 2, 11, 106
7, 302469, Control_c, 2, 11, 107
7, 302537, Control_c, 2, 11, 108
7, 302606, Control_c, 2, 11, 109
7, 302640, Note_on_c, 2, 79, 84
7, 302640, Note_on_c, 2, 76, 84
7, 302674, Control_c, 2, 11, 110
7, 302743, Control_c, 2, 11, 111
7, 302811, Control_c, 2, 11, 112
7, 302880, Control_c, 2, 11, 113
7, 302949, Control_c, 2, 11, 114
7, 303017, Control_c, 2, 11, 115
7, 303086, Control_c, 2, 11, 116
7, 303099, Note_on_c, 2, 79, 0
7, 303099, Note_on_c, 2, 76, 0
7, 303120, Note_on_c, 2, 76, 84
7, 303120, Note_on_c, 2, 79, 84
7, 303154, Control_c, 2, 11, 117
7, 303223, Control_c, 2, 11, 118
7, 303291, Control_c, 2, 11, 119
7, 303360, Control_c, 2, 11, 120
7, 303429, Control_c, 2, 11, 121
7, 303497, Control_c, 2, 11, 122
7, 303566, Control_c, 2, 11, 123
7, 303579, Note_on_c, 2, 76, 0
7, 303579, Note_on_c, 2, 79, 0
7, 303600, Note_on_c, 2, 79, 84
7, 303600, Note_on_c, 2, 76, 84
7, 303634, Control_c, 2, 11, 124
7, 303703, Control_c, 2, 11, 125
7, 303771, Control_c, 2, 11, 127
7, 303819, Note_on_c, 2, 79, 0
7, 303819, Note_on_c, 2, 76, 0
7, 303840, Note_on_c, 2, 86, 84
7, 303840, Note_on_c, 2, 78, 84
7, 304439, Note_on_c, 2, 86, 0
7, 304439, Note_on_c, 2, 78, 0
7, 304440, Note_on_c, 2, 76, 84
7, 304440, Note_on_c, 2, 85, 84
7, 304559, Note_on_c, 2, 76, 0
7, 304559, Note_on_c, 2, 85, 0
7, 304560, Note_on_c, 2, 86, 84
7, 304560, Note_on_c, 2, 78, 84
7, 304799, Note_on_c, 2, 86, 0
7, 304799, Note_on_c, 2, 78, 0
7, 305280, Note_on_c, 2, 86, 84
7, 305280, Note_on_c, 2, 78, 84
7, 305879, Note_on_c, 2, 86, 0
7, 305879, Note_on_c, 2, 78, 0
7, 305880, Note_on_c, 2, 76, 84
7, 305880, Note_on_c, 2, 85, 84
7, 305999, Note_on_c, 2, 76, 0
7, 305999, Note_on_c, 2, 85, 0
7, 306000, Note_on_c, 2, 86, 84
7, 306000, Note_on_c, 2, 78, 84
7, 306239, Note_on_c, 2, 86, 0
7, 306239, Note_on_c, 2, 78, 0
7, 306720, Note_on_c, 2, 78, 84
7, 306720, Note_on_c, 2, 86, 84
7, 307199, Note_on_c, 2, 78, 0
7, 307199, Note_on_c, 2, 86, 0
7, 307200, Note_on_c, 2, 85, 84
7, 307200, Note_on_c, 2, 76, 84
7, 307439, Note_on_c, 2, 85, 0
7, 307439, Note_on_c, 2, 76, 0
7, 307440, Note_on_c, 2, 86, 84
7, 307440, Note_on_c, 2, 78, 84
7, 307679, Note_on_c, 2, 86, 0
7, 307679, Note_on_c, 2, 78, 0
7, 307680, Note_on_c, 2, 76, 84
7, 307680, Note_on_c, 2, 79, 84
7, 307899, Note_on_c, 2, 76, 0
7, 307899, Note_on_c, 2, 79, 0
7, 307920, Note_on_c, 2, 74, 84
7, 307920, Note_on_c, 2, 78, 84
7, 308099, Note_on_c, 2, 74, 0
7, 308099, Note_on_c, 2, 78, 0
7, 308160, Note_on_c, 2, 73, 84
7, 308160, Note_on_c, 2, 76, 84
7, 308399, Note_on_c, 2, 73, 0
7, 308399, Note_on_c, 2, 76, 0
7, 309600, Note_on_c, 2, 73, 84
7, 309600, Note_on_c, 2, 76, 84
7, 310199, Note_on_c, 2, 73, 0
7, 310199, Note_on_c, 2, 76, 0
7, 310200, Note_on_c, 2, 72, 84
7, 310200, Note_on_c, 2, 75, 84
7, 310319, Note_on_c, 2, 72, 0
7, 310319, Note_on_c, 2, 75, 0
7, 310320, Note_on_c, 2, 73, 84
7, 310320, Note_on_c, 2, 76, 84
7, 310559, Note_on_c, 2, 73, 0
7, 310559, Note_on_c, 2, 76, 0
7, 311040, Note_on_c, 2, 76, 84
7, 311040, Note_on_c, 2, 73, 84
7, 311639, Note_on_c, 2, 76, 0
7, 311639, Note_on_c, 2, 73, 0
7, 311640, Note_on_c, 2, 72, 84
7, 311640, Note_on_c, 2, 75, 84
7, 311759, Note_on_c, 2, 72, 0
7, 311759, Note_on_c, 2, 75, 0
7, 311760, Note_on_c, 2, 76, 84
7, 311760, Note_on_c, 2, 73, 84
7, 311999, Note_on_c, 2, 76, 0
7, 311999, Note_on_c, 2, 73, 0
7, 312480, Note_on_c, 2, 76, 84
7, 312480, Note_on_c, 2, 73, 84
7, 312959, Note_on_c, 2, 76, 0
7, 312959, Note_on_c, 2, 73, 0
7, 312960, Note_on_c, 2, 78, 84
7, 312960, Note_on_c, 2, 74, 84
7, 313199, Note_on_c, 2, 78, 0
7, 313199, Note_on_c, 2, 74, 0
7, 313200, Note_on_c, 2, 81, 84
7, 313200, Note_on_c, 2, 78, 84
7, 313439, Note_on_c, 2, 81, 0
7, 313439, Note_on_c, 2, 78, 0
7, 313440, Note_on_c, 2, 79, 84
7, 313440, Note_on_c, 2, 76, 84
7, 313659, Note_on_c, 2, 79, 0
7, 313659, Note_on_c, 2, 76, 0
7, 313680, Note_on_c, 2, 85, 84
7, 313680, Note_on_c, 2, 76, 84
7, 313859, Note_on_c, 2, 85, 0
7, 313859, Note_on_c, 2, 76, 0
7, 313920, Note_on_c, 2, 86, 84
7, 313920, Note_on_c, 2, 78, 84
7, 314159, Note_on_c, 2, 86, 0
7, 314159, Note_on_c, 2, 78, 0
7, 315360, Note_on_c, 2, 78, 48
7, 316559, Note_on_c, 2, 78, 0
7, 316560, Note_on_c, 2, 79, 48
7, 316779, Note_on_c, 2, 79, 0
7, 316800, Note_on_c, 2, 76, 48
7, 317999, Note_on_c, 2, 76, 0
7, 318000, Note_on_c, 2, 78, 48
7, 318219, Note_on_c, 2, 78, 0
7, 318240, Note_on_c, 2, 74, 48
7, 318759, Note_on_c, 2, 74, 0
7, 318780, Note_on_c, 2, 76, 48
7, 318839, Note_on_c, 2, 76, 0
7, 318840, Note_on_c, 2, 74, 48
7, 318899, Note_on_c, 2, 74, 0
7, 318900, Note_on_c, 2, 73, 48
7, 318959, Note_on_c, 2, 73, 0
7, 318960, Note_on_c, 2, 74, 48
7, 319199, Note_on_c, 2, 74, 0
7, 319200, Note_on_c, 2, 78, 48
7, 319439, Note_on_c, 2, 78, 0
7, 319440, Note_on_c, 2, 76, 48
7, 319659, Note_on_c, 2, 76, 0
7, 319680, Note_on_c, 2, 74, 48
7, 320399, Note_on_c, 2, 74, 0
7, 320400, Note_on_c, 2, 73, 48
7, 320639, Note_on_c, 2, 73, 0
7, 321120, Note_on_c, 2, 78, 48
7, 322079, Note_on_c, 2, 78, 0
7, 322080, Note_on_c, 2, 81, 48
7, 322319, Note_on_c, 2, 81, 0
7, 322320, Note_on_c, 2, 79, 48
7, 322539, Note_on_c, 2, 79, 0
7, 322560, Note_on_c, 2, 78, 48
7, 323039, Note_on_c, 2, 78, 0
7, 323040, Note_on_c, 2, 76, 48
7, 323519, Note_on_c, 2, 76, 0
7, 323520, Note_on_c, 2, 79, 48
7, 323759, Note_on_c, 2, 79, 0
7, 323760, Note_on_c, 2, 78, 48
7, 323979, Note_on_c, 2, 78, 0
7, 323998, Control_c, 2, 11, 96
7, 324000, Note_on_c, 2, 76, 64
7, 324060, Control_c, 2, 11, 99
7, 324120, Control_c, 2, 11, 101
7, 324180, Control_c, 2, 11, 104
7, 324239, Note_on_c, 2, 76, 0
7, 324240, Control_c, 2, 11, 106
7, 324240, Note_on_c, 2, 74, 64
7, 324300, Control_c, 2, 11, 109
7, 324360, Control_c, 2, 11, 112
7, 324420, Control_c, 2, 11, 114
7, 324479, Note_on_c, 2, 74, 0
7, 324480, Control_c, 2, 11, 117
7, 324480, Note_on_c, 2, 78, 64
7, 324540, Control_c, 2, 11, 119
7, 324600, Control_c, 2, 11, 122
7, 324660, Control_c, 2, 11, 124
7, 324699, Note_on_c, 2, 78, 0
7, 324720, Note_on_c, 2, 78, 64
7, 324720, Control_c, 2, 11, 127
7, 324780, Control_c, 2, 11, 124
7, 324840, Control_c, 2, 11, 122
7, 324900, Control_c, 2, 11, 119
7, 324939, Note_on_c, 2, 78, 0
7, 324960, Control_c, 2, 11, 117
7, 324960, Note_on_c, 2, 78, 64
7, 325020, Control_c, 2, 11, 114
7, 325080, Control_c, 2, 11, 112
7, 325140, Control_c, 2, 11, 109
7, 325199, Note_on_c, 2, 78, 0
7, 325200, Note_on_c, 2, 74, 64
7, 325200, Control_c, 2, 11, 106
7, 325260, Control_c, 2, 11, 104
7, 325320, Control_c, 2, 11, 101
7, 325380, Control_c, 2, 11, 99
7, 325419, Note_on_c, 2, 74, 0
7, 325440, Control_c, 2, 11, 96
7, 325440, Note_on_c, 2, 73, 64
7, 326160, Control_c, 2, 11, 96
7, 326220, Control_c, 2, 11, 101
7, 326280, Control_c, 2, 11, 106
7, 326340, Control_c, 2, 11, 112
7, 326399, Note_on_c, 2, 73, 0
7, 326400, Note_on_c, 2, 78, 64
7, 326400, Control_c, 2, 11, 117
7, 326460, Control_c, 2, 11, 122
7, 326520, Control_c, 2, 11, 127
7, 326580, Control_c, 2, 11, 122
7, 326639, Note_on_c, 2, 78, 0
7, 326640, Control_c, 2, 11, 117
7, 326640, Note_on_c, 2, 74, 64
7, 326700, Control_c, 2, 11, 112
7, 326760, Control_c, 2, 11, 106
7, 326820, Control_c, 2, 11, 101
7, 326859, Note_on_c, 2, 74, 0
7, 326880, Control_c, 2, 11, 96
7, 326880, Note_on_c, 2, 73, 64
7, 327600, Control_c, 2, 11, 96
7, 327660, Control_c, 2, 11, 101
7, 327720, Control_c, 2, 11, 106
7, 327780, Control_c, 2, 11, 112
7, 327839, Note_on_c, 2, 73, 0
7, 327840, Control_c, 2, 11, 117
7, 327840, Note_on_c, 2, 78, 64
7, 327900, Control_c, 2, 11, 122
7, 327960, Control_c, 2, 11, 127
7, 328020, Control_c, 2, 11, 122
7, 328079, Note_on_c, 2, 78, 0
7, 328080, Control_c, 2, 11, 117
7, 328080, Note_on_c, 2, 74, 64
7, 328140, Control_c, 2, 11, 112
7, 328200, Control_c, 2, 11, 106
7, 328260, Control_c, 2, 11, 101
7, 328299, Note_on_c, 2, 74, 0
7, 328320, Control_c, 2, 11, 96
7, 328320, Note_on_c, 2, 73, 64
7, 328559, Note_on_c, 2, 73, 0
7, 331406, Control_c, 2, 11, 88
7, 331440, Note_on_c, 2, 79, 84
7, 331440, Note_on_c, 2, 76, 84
7, 331474, Control_c, 2, 11, 89
7, 331543, Control_c, 2, 11, 90
7, 331611, Control_c, 2, 11, 91
7, 331680, Control_c, 2, 11, 92
7, 331749, Control_c, 2, 11, 93
7, 331817, Control_c, 2, 11, 94
7, 331886, Control_c, 2, 11, 95
7, 331899, Note_on_c, 2, 79, 0
7, 331899, Note_on_c, 2, 76, 0
7, 331920, Note_on_c, 2, 76, 84
7, 331920, Note_on_c, 2, 79, 84
7, 331954, Control_c, 2, 11, 96
7, 332023, Control_c, 2, 11, 97
7, 332091, Control_c, 2, 11, 98
7, 332160, Control_c, 2, 11, 99
7, 332229, Control_c, 2, 11, 100
7, 332297, Control_c, 2, 11, 101
7, 332366, Control_c, 2, 11, 102
7, 332379, Note_on_c, 2, 76, 0
7, 332379, Note_on_c, 2, 79, 0
7, 332400, Note_on_c, 2, 79, 84
7, 332400, Note_on_c, 2, 76, 84
7, 332434, Control_c, 2, 11, 103
7, 332503, Control_c, 2, 11, 104
7, 332571, Control_c, 2, 11, 105
7, 332639, Note_on_c, 2, 79, 0
7, 332639, Note_on_c, 2, 76, 0
7, 332640, Control_c, 2, 11, 106
7, 332709, Control_c, 2, 11, 107
7, 332777, Control_c, 2, 11, 108
7, 332846, Control_c, 2, 11, 109
7, 332880, Note_on_c, 2, 76, 84
7, 332880, Note_on_c, 2, 79, 84
7, 332914, Control_c, 2, 11, 110
7, 332983, Control_c, 2, 11, 111
7, 333051, Control_c, 2, 11, 112
7, 333120, Control_c, 2, 11, 113
7, 333189, Control_c, 2, 11, 114
7, 333257, Control_c, 2, 11, 115
7, 333326, Control_c, 2, 11, 116
7, 333339, Note_on_c, 2, 76, 0
7, 333339, Note_on_c, 2, 79, 0
7, 333360, Note_on_c, 2, 79, 84
7, 333360, Note_on_c, 2, 76, 84
7, 333394, Control_c, 2, 11, 117
7, 333463, Control_c, 2, 11, 118
7, 333531, Control_c, 2, 11, 119
7, 333600, Control_c, 2, 11, 120
7, 333669, Control_c, 2, 11, 121
7, 333737, Control_c, 2, 11, 122
7, 333806, Control_c, 2, 11, 123
7, 333819, Note_on_c, 2, 79, 0
7, 333819, Note_on_c, 2, 76, 0
7, 333840, Note_on_c, 2, 79, 84
7, 333840, Note_on_c, 2, 76, 84
7, 333874, Control_c, 2, 11, 124
7, 333943, Control_c, 2, 11, 125
7, 334011, Control_c, 2, 11, 127
7, 334059, Note_on_c, 2, 79, 0
7, 334059, Note_on_c, 2, 76, 0
7, 334080, Note_on_c, 2, 86, 84
7, 334080, Note_on_c, 2, 78, 84
7, 334679, Note_on_c, 2, 86, 0
7, 334679, Note_on_c, 2, 78, 0
7, 334680, Note_on_c, 2, 76, 84
7, 334680, Note_on_c, 2, 85, 84
7, 334799, Note_on_c, 2, 76, 0
7, 334799, Note_on_c, 2, 85, 0
7, 334800, Note_on_c, 2, 86, 84
7, 334800, Note_on_c, 2, 78, 84
7, 335039, Note_on_c, 2, 86, 0
7, 335039, Note_on_c, 2, 78, 0
7, 335520, Note_on_c, 2, 86, 84
7, 335520, Note_on_c, 2, 78, 84
7, 336119, Note_on_c, 2, 86, 0
7, 336119, Note_on_c, 2, 78, 0
7, 336120, Note_on_c, 2, 85, 84
7, 336120, Note_on_c, 2, 76, 84
7, 336239, Note_on_c, 2, 85, 0
7, 336239, Note_on_c, 2, 76, 0
7, 336240, Note_on_c, 2, 86, 84
7, 336240, Note_on_c, 2, 78, 84
7, 336479, Note_on_c, 2, 86, 0
7, 336479, Note_on_c, 2, 78, 0
7, 336960, Note_on_c, 2, 86, 84
7, 336960, Note_on_c, 2, 78, 84
7, 337439, Note_on_c, 2, 86, 0
7, 337439, Note_on_c, 2, 78, 0
7, 337440, Note_on_c, 2, 85, 84
7, 337440, Note_on_c, 2, 76, 84
7, 337679, Note_on_c, 2, 85, 0
7, 337679, Note_on_c, 2, 76, 0
7, 337680, Note_on_c, 2, 78, 84
7, 337680, Note_on_c, 2, 86, 84
7, 337919, Note_on_c, 2, 78, 0
7, 337919, Note_on_c, 2, 86, 0
7, 337920, Note_on_c, 2, 76, 84
7, 337920, Note_on_c, 2, 79, 84
7, 338139, Note_on_c, 2, 76, 0
7, 338139, Note_on_c, 2, 79, 0
7, 338160, Note_on_c, 2, 74, 84
7, 338160, Note_on_c, 2, 78, 84
7, 338339, Note_on_c, 2, 74, 0
7, 338339, Note_on_c, 2, 78, 0
7, 338400, Note_on_c, 2, 76, 84
7, 338400, Note_on_c, 2, 73, 84
7, 338639, Note_on_c, 2, 76, 0
7, 338639, Note_on_c, 2, 73, 0
7, 339840, Note_on_c, 2, 73, 84
7, 339840, Note_on_c, 2, 76, 84
7, 340439, Note_on_c, 2, 73, 0
7, 340439, Note_on_c, 2, 76, 0
7, 340440, Note_on_c, 2, 75, 84
7, 340440, Note_on_c, 2, 72, 84
7, 340559, Note_on_c, 2, 75, 0
7, 340559, Note_on_c, 2, 72, 0
7, 340560, Note_on_c, 2, 73, 84
7, 340560, Note_on_c, 2, 76, 84
7, 340799, Note_on_c, 2, 73, 0
7, 340799, Note_on_c, 2, 76, 0
7, 341280, Note_on_c, 2, 76, 84
7, 341280, Note_on_c, 2, 73, 84
7, 341879, Note_on_c, 2, 76, 0
7, 341879, Note_on_c, 2, 73, 0
7, 341880, Note_on_c, 2, 72, 84
7, 341880, Note_on_c, 2, 75, 84
7, 341999, Note_on_c, 2, 72, 0
7, 341999, Note_on_c, 2, 75, 0
7, 342000, Note_on_c, 2, 73, 84
7, 342000, Note_on_c, 2, 76, 84
7, 342239, Note_on_c, 2, 73, 0
7, 342239, Note_on_c, 2, 76, 0
7, 342720, Note_on_c, 2, 76, 84
7, 342720, Note_on_c, 2, 73, 84
7, 343199, Note_on_c, 2, 76, 0
7, 343199, Note_on_c, 2, 73, 0
7, 343200, Note_on_c, 2, 74, 84
7, 343200, Note_on_c, 2, 78, 84
7, 343439, Note_on_c, 2, 74, 0
7, 343439, Note_on_c, 2, 78, 0
7, 343440, Note_on_c, 2, 81, 84
7, 343440, Note_on_c, 2, 78, 84
7, 343679, Note_on_c, 2, 81, 0
7, 343679, Note_on_c, 2, 78, 0
7, 343680, Note_on_c, 2, 76, 84
7, 343680, Note_on_c, 2, 79, 84
7, 343899, Note_on_c, 2, 76, 0
7, 343899, Note_on_c, 2, 79, 0
7, 343920, Note_on_c, 2, 85, 84
7, 343920, Note_on_c, 2, 76, 84
7, 344099, Note_on_c, 2, 85, 0
7, 344099, Note_on_c, 2, 76, 0
7, 344160, Note_on_c, 2, 78, 84
7, 344160, Note_on_c, 2, 86, 84
7, 344399, Note_on_c, 2, 78, 0
7, 344399, Note_on_c, 2, 86, 0
7, 355440, Note_on_c, 2, 77, 76
7, 355511, Note_on_c, 2, 77, 0
7, 355520, Note_on_c, 2, 77, 76
7, 355559, Note_on_c, 2, 77, 0
7, 355560, Note_on_c, 2, 81, 76
7, 355679, Note_on_c, 2, 81, 0
7, 355680, Note_on_c, 2, 77, 76
7, 355739, Note_on_c, 2, 77, 0
7, 355800, Note_on_c, 2, 81, 76
7, 355800, Note_on_c, 2, 77, 76
7, 355871, Note_on_c, 2, 81, 0
7, 355871, Note_on_c, 2, 77, 0
7, 355880, Note_on_c, 2, 77, 76
7, 355880, Note_on_c, 2, 81, 76
7, 355919, Note_on_c, 2, 77, 0
7, 355919, Note_on_c, 2, 81, 0
7, 355920, Note_on_c, 2, 81, 76
7, 355920, Note_on_c, 2, 84, 76
7, 356039, Note_on_c, 2, 81, 0
7, 356039, Note_on_c, 2, 84, 0
7, 356040, Note_on_c, 2, 77, 76
7, 356040, Note_on_c, 2, 81, 76
7, 356099, Note_on_c, 2, 77, 0
7, 356099, Note_on_c, 2, 81, 0
7, 356160, Note_on_c, 2, 84, 76
7, 356160, Note_on_c, 2, 81, 76
7, 356264, Note_on_c, 2, 84, 0
7, 356264, Note_on_c, 2, 81, 0
7, 356280, Note_on_c, 2, 77, 52
7, 356280, Note_on_c, 2, 81, 52
7, 356399, Note_on_c, 2, 77, 0
7, 356399, Note_on_c, 2, 81, 0
7, 360960, Note_on_c, 2, 80, 84
7, 361199, Note_on_c, 2, 80, 0
7, 361200, Note_on_c, 2, 81, 76
7, 361304, Note_on_c, 2, 81, 0
7, 361320, Note_on_c, 2, 83, 76
7, 361320, Note_on_c, 2, 86, 76
7, 361664, Note_on_c, 2, 83, 0
7, 361664, Note_on_c, 2, 86, 0
7, 361680, Note_on_c, 2, 81, 76
7, 361680, Note_on_c, 2, 85, 76
7, 361799, Note_on_c, 2, 81, 0
7, 361799, Note_on_c, 2, 85, 0
7, 362040, Note_on_c, 2, 83, 76
7, 362040, Note_on_c, 2, 86, 76
7, 362384, Note_on_c, 2, 83, 0
7, 362384, Note_on_c, 2, 86, 0
7, 362400, Note_on_c, 2, 85, 76
7, 362400, Note_on_c, 2, 81, 76
7, 362519, Note_on_c, 2, 85, 0
7, 362519, Note_on_c, 2, 81, 0
7, 362760, Note_on_c, 2, 86, 76
7, 362760, Note_on_c, 2, 83, 76
7, 363104, Note_on_c, 2, 86, 0
7, 363104, Note_on_c, 2, 83, 0
7, 363120, Note_on_c, 2, 81, 76
7, 363120, Note_on_c, 2, 85, 76
7, 363209, Note_on_c, 2, 81, 0
7, 363209, Note_on_c, 2, 85, 0
7, 363240, Note_on_c, 2, 76, 76
7, 363329, Note_on_c, 2, 76, 0
7, 363360, Note_on_c, 2, 85, 76
7, 363449, Note_on_c, 2, 85, 0
7, 363480, Note_on_c, 2, 81, 76
7, 363569, Note_on_c, 2, 81, 0
7, 363600, Note_on_c, 2, 76, 76
7, 363689, Note_on_c, 2, 76, 0
7, 363720, Note_on_c, 2, 73, 76
7, 363809, Note_on_c, 2, 73, 0
7, 363840, Note_on_c, 2, 69, 76
7, 363929, Note_on_c, 2, 69, 0
7, 370920, Note_on_c, 2, 83, 84
7, 370920, Note_on_c, 2, 74, 84
7, 371024, Note_on_c, 2, 83, 0
7, 371024, Note_on_c, 2, 74, 0
7, 371040, Note_on_c, 2, 74, 84
7, 371040, Note_on_c, 2, 83, 84
7, 371159, Note_on_c, 2, 74, 0
7, 371159, Note_on_c, 2, 83, 0
7, 371280, Note_on_c, 2, 79, 52
7, 371280, Note_on_c, 2, 76, 52
7, 371369, Note_on_c, 2, 79, 0
7, 371369, Note_on_c, 2, 76, 0
7, 371400, Note_on_c, 2, 81, 52
7, 371400, Note_on_c, 2, 77, 52
7, 371489, Note_on_c, 2, 81, 0
7, 371489, Note_on_c, 2, 77, 0
7, 371520, Note_on_c, 2, 77, 52
7, 371520, Note_on_c, 2, 81, 52
7, 371609, Note_on_c, 2, 77, 0
7, 371609, Note_on_c, 2, 81, 0
7, 371640, Note_on_c, 2, 79, 52
7, 371640, Note_on_c, 2, 76, 52
7, 371729, Note_on_c, 2, 79, 0
7, 371729, Note_on_c, 2, 76, 0
7, 371760, Note_on_c, 2, 74, 52
7, 371760, Note_on_c, 2, 83, 52
7, 371999, Note_on_c, 2, 74, 0
7, 371999, Note_on_c, 2, 83, 0
7, 372000, Note_on_c, 2, 84, 52
7, 372000, Note_on_c, 2, 72, 52
7, 372104, Note_on_c, 2, 84, 0
7, 372104, Note_on_c, 2, 72, 0
7, 372120, Note_on_c, 2, 81, 52
7, 372120, Note_on_c, 2, 77, 52
7, 372209, Note_on_c, 2, 81, 0
7, 372209, Note_on_c, 2, 77, 0
7, 372240, Note_on_c, 2, 77, 52
7, 372240, Note_on_c, 2, 81, 52
7, 372329, Note_on_c, 2, 77, 0
7, 372329, Note_on_c, 2, 81, 0
7, 372360, Note_on_c, 2, 76, 52
7, 372360, Note_on_c, 2, 79, 52
7, 372449, Note_on_c, 2, 76, 0
7, 372449, Note_on_c, 2, 79, 0
7, 372480, Note_on_c, 2, 74, 52
7, 372480, Note_on_c, 2, 83, 52
7, 372719, Note_on_c, 2, 74, 0
7, 372719, Note_on_c, 2, 83, 0
7, 372720, Note_on_c, 2, 84, 52
7, 372720, Note_on_c, 2, 72, 52
7, 372824, Note_on_c, 2, 84, 0
7, 372824, Note_on_c, 2, 72, 0
7, 372840, Note_on_c, 2, 83, 44
7, 372840, Note_on_c, 2, 74, 44
7, 373079, Note_on_c, 2, 83, 0
7, 373079, Note_on_c, 2, 74, 0
7, 373080, Note_on_c, 2, 84, 44
7, 373080, Note_on_c, 2, 72, 44
7, 373184, Note_on_c, 2, 84, 0
7, 373184, Note_on_c, 2, 72, 0
7, 373200, Note_on_c, 2, 83, 44
7, 373200, Note_on_c, 2, 74, 44
7, 373439, Note_on_c, 2, 83, 0
7, 373439, Note_on_c, 2, 74, 0
7, 373440, Note_on_c, 2, 84, 44
7, 373440, Note_on_c, 2, 72, 44
7, 373544, Note_on_c, 2, 84, 0
7, 373544, Note_on_c, 2, 72, 0
7, 373560, Note_on_c, 2, 83, 44
7, 373560, Note_on_c, 2, 74, 44
7, 373799, Note_on_c, 2, 83, 0
7, 373799, Note_on_c, 2, 74, 0
7, 373800, Note_on_c, 2, 84, 44
7, 373800, Note_on_c, 2, 72, 44
7, 373904, Note_on_c, 2, 84, 0
7, 373904, Note_on_c, 2, 72, 0
7, 373920, Note_on_c, 2, 74, 44
7, 373920, Note_on_c, 2, 83, 44
7, 374159, Note_on_c, 2, 74, 0
7, 374159, Note_on_c, 2, 83, 0
7, 374160, Note_on_c, 2, 84, 44
7, 374160, Note_on_c, 2, 72, 44
7, 374279, Note_on_c, 2, 84, 0
7, 374279, Note_on_c, 2, 72, 0
7, 378120, Note_on_c, 2, 70, 48
7, 378224, Note_on_c, 2, 70, 0
7, 378240, Note_on_c, 2, 74, 48
7, 378359, Note_on_c, 2, 74, 0
7, 378360, Note_on_c, 2, 70, 48
7, 378419, Note_on_c, 2, 70, 0
7, 378480, Note_on_c, 2, 74, 48
7, 378584, Note_on_c, 2, 74, 0
7, 378600, Note_on_c, 2, 77, 48
7, 378719, Note_on_c, 2, 77, 0
7, 378720, Note_on_c, 2, 74, 48
7, 378779, Note_on_c, 2, 74, 0
7, 378840, Note_on_c, 2, 77, 48
7, 378944, Note_on_c, 2, 77, 0
7, 378960, Note_on_c, 2, 82, 48
7, 379049, Note_on_c, 2, 82, 0
7, 379080, Note_on_c, 2, 82, 48
7, 379169, Note_on_c, 2, 82, 0
7, 379200, Note_on_c, 2, 81, 48
7, 379289, Note_on_c, 2, 81, 0
7, 379320, Note_on_c, 2, 79, 48
7, 379409, Note_on_c, 2, 79, 0
7, 379440, Note_on_c, 2, 79, 48
7, 379529, Note_on_c, 2, 79, 0
7, 379560, Note_on_c, 2, 77, 48
7, 379649, Note_on_c, 2, 77, 0
7, 379680, Note_on_c, 2, 75, 48
7, 379769, Note_on_c, 2, 75, 0
7, 379800, Note_on_c, 2, 75, 48
7, 379889, Note_on_c, 2, 75, 0
7, 379920, Note_on_c, 2, 74, 48
7, 380009, Note_on_c, 2, 74, 0
7, 380040, Note_on_c, 2, 72, 48
7, 380159, Note_on_c, 2, 72, 0
7, 380400, Note_on_c, 2, 84, 48
7, 380489, Note_on_c, 2, 84, 0
7, 380520, Note_on_c, 2, 84, 48
7, 380609, Note_on_c, 2, 84, 0
7, 380640, Note_on_c, 2, 82, 48
7, 380729, Note_on_c, 2, 82, 0
7, 380760, Note_on_c, 2, 81, 48
7, 380849, Note_on_c, 2, 81, 0
7, 380880, Note_on_c, 2, 81, 48
7, 380969, Note_on_c, 2, 81, 0
7, 381000, Note_on_c, 2, 79, 48
7, 381089, Note_on_c, 2, 79, 0
7, 381120, Note_on_c, 2, 77, 48
7, 381209, Note_on_c, 2, 77, 0
7, 381240, Note_on_c, 2, 77, 48
7, 381329, Note_on_c, 2, 77, 0
7, 381360, Note_on_c, 2, 75, 48
7, 381449, Note_on_c, 2, 75, 0
7, 381480, Note_on_c, 2, 74, 48
7, 381599, Note_on_c, 2, 74, 0
7, 381720, Control_c, 2, 11, 80
7, 381840, Control_c, 2, 11, 80
7, 381840, Note_on_c, 2, 86, 76
7, 381929, Note_on_c, 2, 86, 0
7, 381947, Control_c, 2, 11, 81
7, 381960, Note_on_c, 2, 86, 76
7, 382049, Note_on_c, 2, 86, 0
7, 382054, Control_c, 2, 11, 82
7, 382080, Note_on_c, 2, 84, 76
7, 382162, Control_c, 2, 11, 83
7, 382169, Note_on_c, 2, 84, 0
7, 382200, Note_on_c, 2, 82, 76
7, 382269, Control_c, 2, 11, 84
7, 382289, Note_on_c, 2, 82, 0
7, 382320, Note_on_c, 2, 82, 76
7, 382376, Control_c, 2, 11, 85
7, 382409, Note_on_c, 2, 82, 0
7, 382440, Note_on_c, 2, 81, 76
7, 382483, Control_c, 2, 11, 86
7, 382529, Note_on_c, 2, 81, 0
7, 382560, Note_on_c, 2, 79, 76
7, 382591, Control_c, 2, 11, 87
7, 382649, Note_on_c, 2, 79, 0
7, 382680, Note_on_c, 2, 79, 76
7, 382698, Control_c, 2, 11, 88
7, 382769, Note_on_c, 2, 79, 0
7, 382800, Note_on_c, 2, 77, 76
7, 382805, Control_c, 2, 11, 89
7, 382889, Note_on_c, 2, 77, 0
7, 382912, Control_c, 2, 11, 90
7, 382920, Note_on_c, 2, 75, 76
7, 383009, Note_on_c, 2, 75, 0
7, 383020, Control_c, 2, 11, 91
7, 383127, Control_c, 2, 11, 92
7, 383234, Control_c, 2, 11, 93
7, 383280, Note_on_c, 2, 81, 76
7, 383341, Control_c, 2, 11, 94
7, 383369, Note_on_c, 2, 81, 0
7, 383400, Note_on_c, 2, 81, 76
7, 383449, Control_c, 2, 11, 95
7, 383489, Note_on_c, 2, 81, 0
7, 383520, Note_on_c, 2, 79, 76
7, 383556, Control_c, 2, 11, 96
7, 383609, Note_on_c, 2, 79, 0
7, 383640, Note_on_c, 2, 77, 76
7, 383663, Control_c, 2, 11, 97
7, 383729, Note_on_c, 2, 77, 0
7, 383760, Note_on_c, 2, 77, 76
7, 383770, Control_c, 2, 11, 98
7, 383849, Note_on_c, 2, 77, 0
7, 383877, Control_c, 2, 11, 99
7, 383880, Note_on_c, 2, 75, 76
7, 383969, Note_on_c, 2, 75, 0
7, 383985, Control_c, 2, 11, 100
7, 384000, Note_on_c, 2, 74, 76
7, 384089, Note_on_c, 2, 74, 0
7, 384092, Control_c, 2, 11, 101
7, 384120, Note_on_c, 2, 74, 76
7, 384199, Control_c, 2, 11, 102
7, 384209, Note_on_c, 2, 74, 0
7, 384240, Note_on_c, 2, 72, 76
7, 384306, Control_c, 2, 11, 103
7, 384329, Note_on_c, 2, 72, 0
7, 384360, Note_on_c, 2, 70, 76
7, 384414, Control_c, 2, 11, 104
7, 384479, Note_on_c, 2, 70, 0
7, 384521, Control_c, 2, 11, 105
7, 384628, Control_c, 2, 11, 106
7, 384720, Note_on_c, 2, 77, 76
7, 384735, Control_c, 2, 11, 107
7, 384843, Control_c, 2, 11, 108
7, 384950, Control_c, 2, 11, 109
7, 385057, Control_c, 2, 11, 110
7, 385164, Control_c, 2, 11, 111
7, 385271, Control_c, 2, 11, 112
7, 385379, Control_c, 2, 11, 113
7, 385486, Control_c, 2, 11, 114
7, 385593, Control_c, 2, 11, 115
7, 385700, Control_c, 2, 11, 116
7, 385808, Control_c, 2, 11, 117
7, 385915, Control_c, 2, 11, 118
7, 385919, Note_on_c, 2, 77, 0
7, 385920, Note_on_c, 2, 76, 76
7, 385920, Note_on_c, 2, 79, 76
7, 386022, Control_c, 2, 11, 119
7, 386024, Note_on_c, 2, 76, 0
7, 386024, Note_on_c, 2, 79, 0
7, 386040, Note_on_c, 2, 79, 76
7, 386040, Note_on_c, 2, 76, 76
7, 386129, Note_on_c, 2, 79, 0
7, 386129, Note_on_c, 2, 76, 0
7, 386129, Control_c, 2, 11, 120
7, 386160, Note_on_c, 2, 76, 76
7, 386160, Note_on_c, 2, 79, 76
7, 386237, Control_c, 2, 11, 121
7, 386344, Control_c, 2, 11, 122
7, 386451, Control_c, 2, 11, 123
7, 386558, Control_c, 2, 11, 124
7, 386666, Control_c, 2, 11, 125
7, 386773, Control_c, 2, 11, 127
7, 387104, Note_on_c, 2, 76, 0
7, 387104, Note_on_c, 2, 79, 0
7, 387120, Note_on_c, 2, 77, 76
7, 387120, Note_on_c, 2, 81, 76
7, 387191, Note_on_c, 2, 77, 0
7, 387191, Note_on_c, 2, 81, 0
7, 387200, Note_on_c, 2, 77, 76
7, 387239, Note_on_c, 2, 77, 0
7, 387240, Note_on_c, 2, 81, 76
7, 387359, Note_on_c, 2, 81, 0
7, 387360, Note_on_c, 2, 77, 76
7, 387419, Note_on_c, 2, 77, 0
7, 387480, Note_on_c, 2, 81, 76
7, 387480, Note_on_c, 2, 77, 76
7, 387551, Note_on_c, 2, 81, 0
7, 387551, Note_on_c, 2, 77, 0
7, 387560, Note_on_c, 2, 77, 76
7, 387560, Note_on_c, 2, 81, 76
7, 387599, Note_on_c, 2, 77, 0
7, 387599, Note_on_c, 2, 81, 0
7, 387600, Note_on_c, 2, 84, 76
7, 387600, Note_on_c, 2, 81, 76
7, 387719, Note_on_c, 2, 84, 0
7, 387719, Note_on_c, 2, 81, 0
7, 387720, Note_on_c, 2, 77, 76
7, 387720, Note_on_c, 2, 81, 76
7, 387779, Note_on_c, 2, 77, 0
7, 387779, Note_on_c, 2, 81, 0
7, 387840, Note_on_c, 2, 84, 76
7, 387840, Note_on_c, 2, 81, 76
7, 387944, Note_on_c, 2, 84, 0
7, 387944, Note_on_c, 2, 81, 0
7, 387960, Note_on_c, 2, 65, 84
7, 387960, Note_on_c, 2, 77, 84
7, 389159, Note_on_c, 2, 65, 0
7, 389159, Note_on_c, 2, 77, 0
7, 389160, Note_on_c, 2, 79, 84
7, 389160, Note_on_c, 2, 67, 84
7, 389264, Note_on_c, 2, 79, 0
7, 389264, Note_on_c, 2, 67, 0
7, 389280, Note_on_c, 2, 67, 84
7, 389280, Note_on_c, 2, 79, 84
7, 389369, Note_on_c, 2, 67, 0
7, 389369, Note_on_c, 2, 79, 0
7, 389400, Note_on_c, 2, 79, 84
7, 389400, Note_on_c, 2, 67, 84
7, 390599, Note_on_c, 2, 79, 0
7, 390599, Note_on_c, 2, 67, 0
7, 390600, Note_on_c, 2, 69, 84
7, 390600, Note_on_c, 2, 81, 84
7, 390704, Note_on_c, 2, 69, 0
7, 390704, Note_on_c, 2, 81, 0
7, 390720, Note_on_c, 2, 81, 84
7, 390720, Note_on_c, 2, 69, 84
7, 390809, Note_on_c, 2, 81, 0
7, 390809, Note_on_c, 2, 69, 0
7, 390960, Note_on_c, 2, 69, 52
7, 391049, Note_on_c, 2, 69, 0
7, 391080, Note_on_c, 2, 70, 52
7, 391169, Note_on_c, 2, 70, 0
7, 391200, Note_on_c, 2, 72, 52
7, 391289, Note_on_c, 2, 72, 0
7, 391320, Note_on_c, 2, 72, 52
7, 391409, Note_on_c, 2, 72, 0
7, 391440, Note_on_c, 2, 74, 52
7, 391529, Note_on_c, 2, 74, 0
7, 391560, Note_on_c, 2, 76, 52
7, 391649, Note_on_c, 2, 76, 0
7, 391680, Note_on_c, 2, 76, 52
7, 391769, Note_on_c, 2, 76, 0
7, 391800, Note_on_c, 2, 77, 52
7, 391889, Note_on_c, 2, 77, 0
7, 391920, Note_on_c, 2, 79, 52
7, 392009, Note_on_c, 2, 79, 0
7, 392400, Note_on_c, 2, 70, 52
7, 392489, Note_on_c, 2, 70, 0
7, 392520, Note_on_c, 2, 72, 52
7, 392609, Note_on_c, 2, 72, 0
7, 392640, Note_on_c, 2, 74, 52
7, 392729, Note_on_c, 2, 74, 0
7, 392760, Note_on_c, 2, 74, 52
7, 392849, Note_on_c, 2, 74, 0
7, 392880, Note_on_c, 2, 76, 52
7, 392969, Note_on_c, 2, 76, 0
7, 393000, Note_on_c, 2, 77, 52
7, 393089, Note_on_c, 2, 77, 0
7, 393120, Note_on_c, 2, 77, 52
7, 393209, Note_on_c, 2, 77, 0
7, 393240, Note_on_c, 2, 79, 52
7, 393329, Note_on_c, 2, 79, 0
7, 393360, Note_on_c, 2, 81, 52
7, 393479, Note_on_c, 2, 81, 0
7, 394440, Note_on_c, 2, 79, 52
7, 394440, Note_on_c, 2, 72, 52
7, 394529, Note_on_c, 2, 79, 0
7, 394529, Note_on_c, 2, 72, 0
7, 394560, Note_on_c, 2, 79, 52
7, 394560, Note_on_c, 2, 72, 52
7, 394649, Note_on_c, 2, 79, 0
7, 394649, Note_on_c, 2, 72, 0
7, 394680, Note_on_c, 2, 77, 52
7, 394680, Note_on_c, 2, 72, 52
7, 394769, Note_on_c, 2, 77, 0
7, 394769, Note_on_c, 2, 72, 0
7, 394800, Note_on_c, 2, 76, 52
7, 394800, Note_on_c, 2, 82, 52
7, 395039, Note_on_c, 2, 76, 0
7, 395039, Note_on_c, 2, 82, 0
7, 395040, Note_on_c, 2, 77, 52
7, 395040, Note_on_c, 2, 81, 52
7, 395159, Note_on_c, 2, 77, 0
7, 395159, Note_on_c, 2, 81, 0
7, 397680, Note_on_c, 2, 72, 52
7, 397680, Note_on_c, 2, 76, 52
7, 397784, Note_on_c, 2, 72, 0
7, 397784, Note_on_c, 2, 76, 0
7, 397800, Note_on_c, 2, 76, 52
7, 397800, Note_on_c, 2, 72, 52
7, 397904, Note_on_c, 2, 76, 0
7, 397904, Note_on_c, 2, 72, 0
7, 397920, Note_on_c, 2, 72, 52
7, 397920, Note_on_c, 2, 76, 52
7, 398039, Note_on_c, 2, 72, 0
7, 398039, Note_on_c, 2, 76, 0
7, 398400, Note_on_c, 2, 76, 52
7, 398400, Note_on_c, 2, 72, 52
7, 398504, Note_on_c, 2, 76, 0
7, 398504, Note_on_c, 2, 72, 0
7, 398520, Note_on_c, 2, 76, 52
7, 398520, Note_on_c, 2, 72, 52
7, 398624, Note_on_c, 2, 76, 0
7, 398624, Note_on_c, 2, 72, 0
7, 398640, Note_on_c, 2, 72, 52
7, 398640, Note_on_c, 2, 76, 52
7, 398759, Note_on_c, 2, 72, 0
7, 398759, Note_on_c, 2, 76, 0
7, 399120, Note_on_c, 2, 72, 52
7, 399120, Note_on_c, 2, 76, 52
7, 399224, Note_on_c, 2, 72, 0
7, 399224, Note_on_c, 2, 76, 0
7, 399240, Note_on_c, 2, 72, 52
7, 399240, Note_on_c, 2, 76, 52
7, 399344, Note_on_c, 2, 72, 0
7, 399344, Note_on_c, 2, 76, 0
7, 399360, Note_on_c, 2, 72, 52
7, 399360, Note_on_c, 2, 76, 52
7, 399479, Note_on_c, 2, 72, 0
7, 399479, Note_on_c, 2, 76, 0
7, 399840, Note_on_c, 2, 76, 52
7, 399840, Note_on_c, 2, 72, 52
7, 399944, Note_on_c, 2, 76, 0
7, 399944, Note_on_c, 2, 72, 0
7, 399960, Note_on_c, 2, 76, 52
7, 399960, Note_on_c, 2, 72, 52
7, 400064, Note_on_c, 2, 76, 0
7, 400064, Note_on_c, 2, 72, 0
7, 400080, Note_on_c, 2, 76, 52
7, 400080, Note_on_c, 2, 72, 52
7, 400184, Note_on_c, 2, 76, 0
7, 400184, Note_on_c, 2, 72, 0
7, 400200, Note_on_c, 2, 76, 84
7, 400244, Note_on_c, 2, 76, 0
7, 400245, Note_on_c, 2, 77, 84
7, 400289, Note_on_c, 2, 77, 0
7, 400290, Note_on_c, 2, 76, 84
7, 400320, Note_on_c, 2, 67, 84
7, 400334, Note_on_c, 2, 76, 0
7, 400335, Note_on_c, 2, 77, 84
7, 400379, Note_on_c, 2, 77, 0
7, 400380, Note_on_c, 2, 76, 84
7, 400424, Note_on_c, 2, 67, 0
7, 400424, Note_on_c, 2, 76, 0
7, 400425, Note_on_c, 2, 77, 84
7, 400440, Note_on_c, 2, 67, 84
7, 400469, Note_on_c, 2, 77, 0
7, 400470, Note_on_c, 2, 74, 84
7, 400514, Note_on_c, 2, 74, 0
7, 400515, Note_on_c, 2, 76, 84
7, 400544, Note_on_c, 2, 67, 0
7, 400559, Note_on_c, 2, 76, 0
7, 400560, Note_on_c, 2, 77, 84
7, 400560, Note_on_c, 2, 69, 84
7, 400664, Note_on_c, 2, 77, 0
7, 400664, Note_on_c, 2, 69, 0
7, 400680, Note_on_c, 2, 69, 84
7, 400680, Note_on_c, 2, 72, 84
7, 400784, Note_on_c, 2, 69, 0
7, 400784, Note_on_c, 2, 72, 0
7, 400800, Note_on_c, 2, 69, 84
7, 400800, Note_on_c, 2, 65, 84
7, 400904, Note_on_c, 2, 69, 0
7, 400904, Note_on_c, 2, 65, 0
7, 400920, Note_on_c, 2, 70, 84
7, 400964, Note_on_c, 2, 70, 0
7, 400965, Note_on_c, 2, 72, 84
7, 401009, Note_on_c, 2, 72, 0
7, 401010, Note_on_c, 2, 70, 84
7, 401040, Note_on_c, 2, 64, 84
7, 401054, Note_on_c, 2, 70, 0
7, 401055, Note_on_c, 2, 72, 84
7, 401099, Note_on_c, 2, 72, 0
7, 401100, Note_on_c, 2, 70, 84
7, 401144, Note_on_c, 2, 64, 0
7, 401144, Note_on_c, 2, 70, 0
7, 401145, Note_on_c, 2, 72, 84
7, 401160, Note_on_c, 2, 64, 84
7, 401189, Note_on_c, 2, 72, 0
7, 401190, Note_on_c, 2, 69, 84
7, 401234, Note_on_c, 2, 69, 0
7, 401235, Note_on_c, 2, 70, 84
7, 401264, Note_on_c, 2, 64, 0
7, 401279, Note_on_c, 2, 70, 0
7, 401280, Note_on_c, 2, 65, 84
7, 401280, Note_on_c, 2, 69, 84
7, 401384, Note_on_c, 2, 65, 0
7, 401384, Note_on_c, 2, 69, 0
7, 401400, Note_on_c, 2, 69, 84
7, 401400, Note_on_c, 2, 72, 84
7, 401504, Note_on_c, 2, 69, 0
7, 401504, Note_on_c, 2, 72, 0
7, 401520, Note_on_c, 2, 77, 84
7, 401520, Note_on_c, 2, 69, 84
7, 401624, Note_on_c, 2, 77, 0
7, 401624, Note_on_c, 2, 69, 0
7, 401640, Note_on_c, 2, 76, 84
7, 401684, Note_on_c, 2, 76, 0
7, 401685, Note_on_c, 2, 77, 84
7, 401729, Note_on_c, 2, 77, 0
7, 401730, Note_on_c, 2, 76, 84
7, 401760, Note_on_c, 2, 67, 84
7, 401774, Note_on_c, 2, 76, 0
7, 401775, Note_on_c, 2, 77, 84
7, 401819, Note_on_c, 2, 77, 0
7, 401820, Note_on_c, 2, 76, 84
7, 401864, Note_on_c, 2, 67, 0
7, 401864, Note_on_c, 2, 76, 0
7, 401865, Note_on_c, 2, 77, 84
7, 401880, Note_on_c, 2, 67, 84
7, 401909, Note_on_c, 2, 77, 0
7, 401910, Note_on_c, 2, 74, 84
7, 401954, Note_on_c, 2, 74, 0
7, 401955, Note_on_c, 2, 76, 84
7, 401984, Note_on_c, 2, 67, 0
7, 401999, Note_on_c, 2, 76, 0
7, 402000, Note_on_c, 2, 77, 84
7, 402000, Note_on_c, 2, 69, 84
7, 402104, Note_on_c, 2, 77, 0
7, 402104, Note_on_c, 2, 69, 0
7, 402120, Note_on_c, 2, 69, 84
7, 402120, Note_on_c, 2, 72, 84
7, 402224, Note_on_c, 2, 69, 0
7, 402224, Note_on_c, 2, 72, 0
7, 402240, Note_on_c, 2, 65, 84
7, 402240, Note_on_c, 2, 69, 84
7, 402344, Note_on_c, 2, 65, 0
7, 402344, Note_on_c, 2, 69, 0
7, 402360, Note_on_c, 2, 76, 84
7, 402404, Note_on_c, 2, 76, 0
7, 402405, Note_on_c, 2, 77, 84
7, 402449, Note_on_c, 2, 77, 0
7, 402450, Note_on_c, 2, 76, 84
7, 402480, Note_on_c, 2, 67, 84
7, 402494, Note_on_c, 2, 76, 0
7, 402495, Note_on_c, 2, 77, 84
7, 402539, Note_on_c, 2, 77, 0
7, 402540, Note_on_c, 2, 76, 84
7, 402584, Note_on_c, 2, 67, 0
7, 402584, Note_on_c, 2, 76, 0
7, 402585, Note_on_c, 2, 77, 84
7, 402600, Note_on_c, 2, 67, 84
7, 402629, Note_on_c, 2, 77, 0
7, 402630, Note_on_c, 2, 74, 84
7, 402674, Note_on_c, 2, 74, 0
7, 402675, Note_on_c, 2, 76, 84
7, 402704, Note_on_c, 2, 67, 0
7, 402719, Note_on_c, 2, 76, 0
7, 402720, Note_on_c, 2, 77, 84
7, 402720, Note_on_c, 2, 69, 84
7, 402824, Note_on_c, 2, 77, 0
7, 402824, Note_on_c, 2, 69, 0
7, 402840, Note_on_c, 2, 72, 84
7, 402840, Note_on_c, 2, 69, 84
7, 402944, Note_on_c, 2, 72, 0
7, 402944, Note_on_c, 2, 69, 0
7, 402960, Note_on_c, 2, 69, 84
7, 402960, Note_on_c, 2, 65, 84
7, 403064, Note_on_c, 2, 69, 0
7, 403064, Note_on_c, 2, 65, 0
7, 403080, Note_on_c, 2, 76, 84
7, 403124, Note_on_c, 2, 76, 0
7, 403125, Note_on_c, 2, 77, 84
7, 403169, Note_on_c, 2, 77, 0
7, 403170, Note_on_c, 2, 76, 84
7, 403200, Note_on_c, 2, 67, 84
7, 403214, Note_on_c, 2, 76, 0
7, 403215, Note_on_c, 2, 77, 84
7, 403259, Note_on_c, 2, 77, 0
7, 403260, Note_on_c, 2, 76, 84
7, 403304, Note_on_c, 2, 67, 0
7, 403304, Note_on_c, 2, 76, 0
7, 403305, Note_on_c, 2, 77, 84
7, 403320, Note_on_c, 2, 67, 84
7, 403349, Note_on_c, 2, 77, 0
7, 403350, Note_on_c, 2, 74, 84
7, 403394, Note_on_c, 2, 74, 0
7, 403395, Note_on_c, 2, 76, 84
7, 403424, Note_on_c, 2, 67, 0
7, 403439, Note_on_c, 2, 76, 0
7, 403440, Note_on_c, 2, 77, 84
7, 403440, Note_on_c, 2, 69, 84
7, 403544, Note_on_c, 2, 77, 0
7, 403544, Note_on_c, 2, 69, 0
7, 403560, Note_on_c, 2, 84, 84
7, 403560, Note_on_c, 2, 72, 84
7, 403664, Note_on_c, 2, 84, 0
7, 403664, Note_on_c, 2, 72, 0
7, 403680, Note_on_c, 2, 81, 84
7, 403680, Note_on_c, 2, 69, 84
7, 403784, Note_on_c, 2, 81, 0
7, 403784, Note_on_c, 2, 69, 0
7, 403800, Note_on_c, 2, 77, 84
7, 403904, Note_on_c, 2, 77, 0
7, 403920, Note_on_c, 2, 72, 84
7, 404024, Note_on_c, 2, 72, 0
7, 404040, Note_on_c, 2, 69, 84
7, 404144, Note_on_c, 2, 69, 0
7, 404160, Note_on_c, 2, 69, 84
7, 404160, Note_on_c, 2, 77, 84
7, 404279, Note_on_c, 2, 69, 0
7, 404279, Note_on_c, 2, 77, 0
7, 405840, Note_on_c, 2, 65, 84
7, 405840, Note_on_c, 2, 77, 84
7, 405911, Note_on_c, 2, 65, 0
7, 405911, Note_on_c, 2, 77, 0
7, 405920, Note_on_c, 2, 77, 84
7, 405920, Note_on_c, 2, 65, 84
7, 405959, Note_on_c, 2, 77, 0
7, 405959, Note_on_c, 2, 65, 0
7, 405960, Note_on_c, 2, 69, 92
7, 405960, Note_on_c, 2, 81, 92
7, 406079, Note_on_c, 2, 69, 0
7, 406079, Note_on_c, 2, 81, 0
7, 406080, Note_on_c, 2, 77, 84
7, 406080, Note_on_c, 2, 65, 84
7, 406139, Note_on_c, 2, 77, 0
7, 406139, Note_on_c, 2, 65, 0
7, 406200, Note_on_c, 2, 65, 84
7, 406200, Note_on_c, 2, 77, 84
7, 406271, Note_on_c, 2, 65, 0
7, 406271, Note_on_c, 2, 77, 0
7, 406280, Note_on_c, 2, 65, 84
7, 406280, Note_on_c, 2, 77, 84
7, 406319, Note_on_c, 2, 65, 0
7, 406319, Note_on_c, 2, 77, 0
7, 406320, Note_on_c, 2, 69, 92
7, 406320, Note_on_c, 2, 81, 92
7, 406439, Note_on_c, 2, 69, 0
7, 406439, Note_on_c, 2, 81, 0
7, 406440, Note_on_c, 2, 77, 84
7, 406440, Note_on_c, 2, 65, 84
7, 406544, Note_on_c, 2, 77, 0
7, 406544, Note_on_c, 2, 65, 0
7, 406560, Note_on_c, 2, 65, 84
7, 406560, Note_on_c, 2, 77, 84
7, 406631, Note_on_c, 2, 65, 0
7, 406631, Note_on_c, 2, 77, 0
7, 406640, Note_on_c, 2, 77, 84
7, 406640, Note_on_c, 2, 65, 84
7, 406679, Note_on_c, 2, 77, 0
7, 406679, Note_on_c, 2, 65, 0
7, 406680, Note_on_c, 2, 81, 92
7, 406680, Note_on_c, 2, 69, 92
7, 406799, Note_on_c, 2, 81, 0
7, 406799, Note_on_c, 2, 69, 0
7, 406800, Note_on_c, 2, 65, 84
7, 406800, Note_on_c, 2, 77, 84
7, 406904, Note_on_c, 2, 65, 0
7, 406904, Note_on_c, 2, 77, 0
7, 406920, Note_on_c, 2, 77, 84
7, 406920, Note_on_c, 2, 65, 84
7, 406991, Note_on_c, 2, 77, 0
7, 406991, Note_on_c, 2, 65, 0
7, 407000, Note_on_c, 2, 65, 84
7, 407000, Note_on_c, 2, 77, 84
7, 407039, Note_on_c, 2, 65, 0
7, 407039, Note_on_c, 2, 77, 0
7, 407040, Note_on_c, 2, 81, 92
7, 407040, Note_on_c, 2, 69, 92
7, 407159, Note_on_c, 2, 81, 0
7, 407159, Note_on_c, 2, 69, 0
7, 407160, Note_on_c, 2, 77, 84
7, 407160, Note_on_c, 2, 65, 84
7, 407264, Note_on_c, 2, 77, 0
7, 407264, Note_on_c, 2, 65, 0
7, 407280, Note_on_c, 2, 65, 84
7, 407280, Note_on_c, 2, 77, 84
7, 407369, Note_on_c, 2, 65, 0
7, 407369, Note_on_c, 2, 77, 0
7, 407400, Control_c, 2, 11, 127
7, 407400, Note_on_c, 2, 81, 84
7, 407400, Note_on_c, 2, 69, 84
7, 407440, Control_c, 2, 11, 125
7, 407480, Control_c, 2, 11, 124
7, 407520, Control_c, 2, 11, 122
7, 407560, Control_c, 2, 11, 120
7, 407600, Control_c, 2, 11, 118
7, 407640, Control_c, 2, 11, 117
7, 407680, Control_c, 2, 11, 115
7, 407720, Control_c, 2, 11, 113
7, 407760, Control_c, 2, 11, 111
7, 407800, Control_c, 2, 11, 110
7, 407840, Control_c, 2, 11, 108
7, 407880, Control_c, 2, 11, 106
7, 407920, Control_c, 2, 11, 104
7, 407960, Control_c, 2, 11, 103
7, 408000, Control_c, 2, 11, 101
7, 408040, Control_c, 2, 11, 99
7, 408080, Control_c, 2, 11, 97
7, 408120, Control_c, 2, 11, 96
7, 408160, Control_c, 2, 11, 94
7, 408200, Control_c, 2, 11, 92
7, 408240, Control_c, 2, 11, 90
7, 408280, Control_c, 2, 11, 89
7, 408320, Control_c, 2, 11, 87
7, 408360, Control_c, 2, 11, 85
7, 408400, Control_c, 2, 11, 83
7, 408440, Control_c, 2, 11, 82
7, 408480, Control_c, 2, 11, 80
7, 408520, Control_c, 2, 11, 78
7, 408560, Control_c, 2, 11, 76
7, 408600, Control_c, 2, 11, 75
7, 408640, Control_c, 2, 11, 73
7, 408680, Control_c, 2, 11, 71
7, 408720, Control_c, 2, 11, 69
7, 408760, Control_c, 2, 11, 68
7, 408800, Control_c, 2, 11, 64
7, 409079, Note_on_c, 2, 81, 0
7, 409079, Note_on_c, 2, 69, 0
7, 411000, Control_c, 2, 11, 127
7, 411720, Note_on_c, 2, 82, 84
7, 411720, Note_on_c, 2, 70, 84
7, 411839, Note_on_c, 2, 82, 0
7, 411839, Note_on_c, 2, 70, 0
7, 412080, Note_on_c, 2, 83, 84
7, 412080, Note_on_c, 2, 71, 84
7, 412199, Note_on_c, 2, 83, 0
7, 412199, Note_on_c, 2, 71, 0
7, 412440, Note_on_c, 2, 84, 84
7, 412440, Note_on_c, 2, 72, 84
7, 412559, Note_on_c, 2, 84, 0
7, 412559, Note_on_c, 2, 72, 0
7, 412800, Note_on_c, 2, 79, 84
7, 412800, Note_on_c, 2, 76, 84
7, 412919, Note_on_c, 2, 79, 0
7, 412919, Note_on_c, 2, 76, 0
7, 413160, Note_on_c, 2, 81, 84
7, 413160, Note_on_c, 2, 77, 84
7, 413279, Note_on_c, 2, 81, 0
7, 413279, Note_on_c, 2, 77, 0
7, 413279, End_track
8, 0, Start_track
8, 0, Title_t, "Clarinet in A"
8, 0, MIDI_port, 0
8, 0, Program_c, 3, 71
8, 0, Control_c, 3, 7, 84
8, 0, Control_c, 3, 11, 127
8, 0, Control_c, 3, 10, 75
8, 0, Note_on_c, 3, 77, 76
8, 0, Note_on_c, 3, 69, 76
8, 104, Note_on_c, 3, 77, 0
8, 104, Note_on_c, 3, 69, 0
8, 120, Note_on_c, 3, 69, 76
8, 120, Note_on_c, 3, 77, 76
8, 239, Note_on_c, 3, 69, 0
8, 239, Note_on_c, 3, 77, 0
8, 360, Note_on_c, 3, 77, 76
8, 360, Note_on_c, 3, 69, 76
8, 464, Note_on_c, 3, 77, 0
8, 464, Note_on_c, 3, 69, 0
8, 480, Note_on_c, 3, 69, 76
8, 480, Note_on_c, 3, 77, 76
8, 599, Note_on_c, 3, 69, 0
8, 599, Note_on_c, 3, 77, 0
8, 720, Note_on_c, 3, 77, 76
8, 720, Note_on_c, 3, 69, 76
8, 824, Note_on_c, 3, 77, 0
8, 824, Note_on_c, 3, 69, 0
8, 840, Note_on_c, 3, 77, 52
8, 840, Note_on_c, 3, 69, 52
8, 959, Note_on_c, 3, 77, 0
8, 959, Note_on_c, 3, 69, 0
8, 5880, Note_on_c, 3, 74, 76
8, 5880, Note_on_c, 3, 71, 76
8, 6224, Note_on_c, 3, 74, 0
8, 6224, Note_on_c, 3, 71, 0
8, 6240, Note_on_c, 3, 73, 76
8, 6240, Note_on_c, 3, 69, 76
8, 6359, Note_on_c, 3, 73, 0
8, 6359, Note_on_c, 3, 69, 0
8, 6600, Note_on_c, 3, 71, 76
8, 6600, Note_on_c, 3, 74, 76
8, 6944, Note_on_c, 3, 71, 0
8, 6944, Note_on_c, 3, 74, 0
8, 6960, Note_on_c, 3, 73, 76
8, 6960, Note_on_c, 3, 69, 76
8, 7079, Note_on_c, 3, 73, 0
8, 7079, Note_on_c, 3, 69, 0
8, 7320, Note_on_c, 3, 71, 76
8, 7320, Note_on_c, 3, 74, 76
8, 7664, Note_on_c, 3, 71, 0
8, 7664, Note_on_c, 3, 74, 0
8, 7680, Note_on_c, 3, 69, 76
8, 7680, Note_on_c, 3, 73, 76
8, 7769, Note_on_c, 3, 69, 0
8, 7769, Note_on_c, 3, 73, 0
8, 7800, Note_on_c, 3, 76, 76
8, 7889, Note_on_c, 3, 76, 0
8, 7920, Note_on_c, 3, 73, 76
8, 8009, Note_on_c, 3, 73, 0
8, 8040, Note_on_c, 3, 69, 76
8, 8129, Note_on_c, 3, 69, 0
8, 8160, Note_on_c, 3, 64, 76
8, 8249, Note_on_c, 3, 64, 0
8, 8280, Note_on_c, 3, 61, 76
8, 8369, Note_on_c, 3, 61, 0
8, 8400, Note_on_c, 3, 57, 76
8, 8489, Note_on_c, 3, 57, 0
8, 8640, Note_on_c, 3, 69, 76
8, 8640, Note_on_c, 3, 77, 76
8, 8744, Note_on_c, 3, 69, 0
8, 8744, Note_on_c, 3, 77, 0
8, 8760, Note_on_c, 3, 77, 76
8, 8760, Note_on_c, 3, 69, 76
8, 8879, Note_on_c, 3, 77, 0
8, 8879, Note_on_c, 3, 69, 0
8, 9000, Note_on_c, 3, 77, 76
8, 9000, Note_on_c, 3, 69, 76
8, 9104, Note_on_c, 3, 77, 0
8, 9104, Note_on_c, 3, 69, 0
8, 9120, Note_on_c, 3, 77, 76
8, 9120, Note_on_c, 3, 69, 76
8, 9239, Note_on_c, 3, 77, 0
8, 9239, Note_on_c, 3, 69, 0
8, 9360, Note_on_c, 3, 69, 76
8, 9360, Note_on_c, 3, 77, 76
8, 9464, Note_on_c, 3, 69, 0
8, 9464, Note_on_c, 3, 77, 0
8, 9480, Note_on_c, 3, 77, 52
8, 9480, Note_on_c, 3, 69, 52
8, 9599, Note_on_c, 3, 77, 0
8, 9599, Note_on_c, 3, 69, 0
8, 14520, Note_on_c, 3, 71, 76
8, 14520, Note_on_c, 3, 74, 76
8, 14864, Note_on_c, 3, 71, 0
8, 14864, Note_on_c, 3, 74, 0
8, 14880, Note_on_c, 3, 69, 76
8, 14880, Note_on_c, 3, 73, 76
8, 14999, Note_on_c, 3, 69, 0
8, 14999, Note_on_c, 3, 73, 0
8, 15240, Note_on_c, 3, 74, 76
8, 15240, Note_on_c, 3, 71, 76
8, 15584, Note_on_c, 3, 74, 0
8, 15584, Note_on_c, 3, 71, 0
8, 15600, Note_on_c, 3, 73, 76
8, 15600, Note_on_c, 3, 69, 76
8, 15719, Note_on_c, 3, 73, 0
8, 15719, Note_on_c, 3, 69, 0
8, 15960, Note_on_c, 3, 74, 76
8, 15960, Note_on_c, 3, 71, 76
8, 16304, Note_on_c, 3, 74, 0
8, 16304, Note_on_c, 3, 71, 0
8, 16320, Note_on_c, 3, 69, 76
8, 16320, Note_on_c, 3, 73, 76
8, 16409, Note_on_c, 3, 69, 0
8, 16409, Note_on_c, 3, 73, 0
8, 16440, Note_on_c, 3, 76, 76
8, 16529, Note_on_c, 3, 76, 0
8, 16560, Note_on_c, 3, 73, 76
8, 16649, Note_on_c, 3, 73, 0
8, 16680, Note_on_c, 3, 69, 76
8, 16769, Note_on_c, 3, 69, 0
8, 16800, Note_on_c, 3, 64, 76
8, 16889, Note_on_c, 3, 64, 0
8, 16920, Note_on_c, 3, 61, 76
8, 17009, Note_on_c, 3, 61, 0
8, 17040, Note_on_c, 3, 57, 76
8, 17129, Note_on_c, 3, 57, 0
8, 18720, Note_on_c, 3, 73, 52
8, 18720, Note_on_c, 3, 76, 52
8, 18809, Note_on_c, 3, 73, 0
8, 18809, Note_on_c, 3, 76, 0
8, 18840, Note_on_c, 3, 74, 52
8, 18840, Note_on_c, 3, 78, 52
8, 18929, Note_on_c, 3, 74, 0
8, 18929, Note_on_c, 3, 78, 0
8, 18960, Note_on_c, 3, 78, 52
8, 18960, Note_on_c, 3, 74, 52
8, 19049, Note_on_c, 3, 78, 0
8, 19049, Note_on_c, 3, 74, 0
8, 19080, Note_on_c, 3, 73, 52
8, 19080, Note_on_c, 3, 76, 52
8, 19169, Note_on_c, 3, 73, 0
8, 19169, Note_on_c, 3, 76, 0
8, 19200, Note_on_c, 3, 71, 52
8, 19200, Note_on_c, 3, 80, 52
8, 19439, Note_on_c, 3, 71, 0
8, 19439, Note_on_c, 3, 80, 0
8, 19440, Note_on_c, 3, 81, 52
8, 19440, Note_on_c, 3, 69, 52
8, 19544, Note_on_c, 3, 81, 0
8, 19544, Note_on_c, 3, 69, 0
8, 19560, Note_on_c, 3, 74, 52
8, 19560, Note_on_c, 3, 78, 52
8, 19649, Note_on_c, 3, 74, 0
8, 19649, Note_on_c, 3, 78, 0
8, 19680, Note_on_c, 3, 78, 52
8, 19680, Note_on_c, 3, 74, 52
8, 19769, Note_on_c, 3, 78, 0
8, 19769, Note_on_c, 3, 74, 0
8, 19800, Note_on_c, 3, 73, 52
8, 19800, Note_on_c, 3, 76, 52
8, 19889, Note_on_c, 3, 73, 0
8, 19889, Note_on_c, 3, 76, 0
8, 19920, Note_on_c, 3, 71, 52
8, 19920, Note_on_c, 3, 80, 52
8, 20159, Note_on_c, 3, 71, 0
8, 20159, Note_on_c, 3, 80, 0
8, 20160, Note_on_c, 3, 81, 52
8, 20160, Note_on_c, 3, 69, 52
8, 20264, Note_on_c, 3, 81, 0
8, 20264, Note_on_c, 3, 69, 0
8, 20280, Note_on_c, 3, 80, 44
8, 20280, Note_on_c, 3, 71, 44
8, 20519, Note_on_c, 3, 80, 0
8, 20519, Note_on_c, 3, 71, 0
8, 20520, Note_on_c, 3, 81, 44
8, 20520, Note_on_c, 3, 69, 44
8, 20624, Note_on_c, 3, 81, 0
8, 20624, Note_on_c, 3, 69, 0
8, 20640, Note_on_c, 3, 71, 44
8, 20640, Note_on_c, 3, 80, 44
8, 20879, Note_on_c, 3, 71, 0
8, 20879, Note_on_c, 3, 80, 0
8, 20880, Note_on_c, 3, 69, 44
8, 20880, Note_on_c, 3, 81, 44
8, 20984, Note_on_c, 3, 69, 0
8, 20984, Note_on_c, 3, 81, 0
8, 21000, Note_on_c, 3, 80, 44
8, 21000, Note_on_c, 3, 71, 44
8, 21239, Note_on_c, 3, 80, 0
8, 21239, Note_on_c, 3, 71, 0
8, 21240, Note_on_c, 3, 69, 44
8, 21240, Note_on_c, 3, 81, 44
8, 21344, Note_on_c, 3, 69, 0
8, 21344, Note_on_c, 3, 81, 0
8, 21360, Note_on_c, 3, 80, 44
8, 21360, Note_on_c, 3, 71, 44
8, 21599, Note_on_c, 3, 80, 0
8, 21599, Note_on_c, 3, 71, 0
8, 21600, Note_on_c, 3, 69, 44
8, 21600, Note_on_c, 3, 81, 44
8, 21719, Note_on_c, 3, 69, 0
8, 21719, Note_on_c, 3, 81, 0
8, 24120, Note_on_c, 3, 77, 84
8, 24120, Note_on_c, 3, 74, 84
8, 24224, Note_on_c, 3, 77, 0
8, 24224, Note_on_c, 3, 74, 0
8, 24240, Note_on_c, 3, 77, 84
8, 24240, Note_on_c, 3, 74, 84
8, 24359, Note_on_c, 3, 77, 0
8, 24359, Note_on_c, 3, 74, 0
8, 40320, Note_on_c, 3, 69, 76
8, 40320, Note_on_c, 3, 77, 76
8, 40424, Note_on_c, 3, 69, 0
8, 40424, Note_on_c, 3, 77, 0
8, 40440, Note_on_c, 3, 77, 76
8, 40440, Note_on_c, 3, 69, 76
8, 40559, Note_on_c, 3, 77, 0
8, 40559, Note_on_c, 3, 69, 0
8, 40680, Note_on_c, 3, 69, 76
8, 40680, Note_on_c, 3, 77, 76
8, 40784, Note_on_c, 3, 69, 0
8, 40784, Note_on_c, 3, 77, 0
8, 40800, Note_on_c, 3, 77, 76
8, 40800, Note_on_c, 3, 69, 76
8, 40919, Note_on_c, 3, 77, 0
8, 40919, Note_on_c, 3, 69, 0
8, 41040, Note_on_c, 3, 69, 76
8, 41040, Note_on_c, 3, 77, 76
8, 41144, Note_on_c, 3, 69, 0
8, 41144, Note_on_c, 3, 77, 0
8, 41160, Note_on_c, 3, 77, 84
8, 41160, Note_on_c, 3, 65, 84
8, 42359, Note_on_c, 3, 77, 0
8, 42359, Note_on_c, 3, 65, 0
8, 42360, Note_on_c, 3, 79, 84
8, 42360, Note_on_c, 3, 67, 84
8, 42464, Note_on_c, 3, 79, 0
8, 42464, Note_on_c, 3, 67, 0
8, 42480, Note_on_c, 3, 67, 84
8, 42480, Note_on_c, 3, 79, 84
8, 42569, Note_on_c, 3, 67, 0
8, 42569, Note_on_c, 3, 79, 0
8, 42600, Note_on_c, 3, 79, 84
8, 42600, Note_on_c, 3, 67, 84
8, 43799, Note_on_c, 3, 79, 0
8, 43799, Note_on_c, 3, 67, 0
8, 43800, Note_on_c, 3, 69, 84
8, 43800, Note_on_c, 3, 81, 84
8, 43904, Note_on_c, 3, 69, 0
8, 43904, Note_on_c, 3, 81, 0
8, 43920, Note_on_c, 3, 81, 84
8, 43920, Note_on_c, 3, 69, 84
8, 44009, Note_on_c, 3, 81, 0
8, 44009, Note_on_c, 3, 69, 0
8, 50880, Note_on_c, 3, 64, 52
8, 50880, Note_on_c, 3, 67, 52
8, 50984, Note_on_c, 3, 64, 0
8, 50984, Note_on_c, 3, 67, 0
8, 51000, Note_on_c, 3, 67, 52
8, 51000, Note_on_c, 3, 64, 52
8, 51104, Note_on_c, 3, 67, 0
8, 51104, Note_on_c, 3, 64, 0
8, 51120, Note_on_c, 3, 67, 52
8, 51120, Note_on_c, 3, 64, 52
8, 51239, Note_on_c, 3, 67, 0
8, 51239, Note_on_c, 3, 64, 0
8, 51600, Note_on_c, 3, 67, 52
8, 51600, Note_on_c, 3, 64, 52
8, 51704, Note_on_c, 3, 67, 0
8, 51704, Note_on_c, 3, 64, 0
8, 51720, Note_on_c, 3, 67, 52
8, 51720, Note_on_c, 3, 64, 52
8, 51824, Note_on_c, 3, 67, 0
8, 51824, Note_on_c, 3, 64, 0
8, 51840, Note_on_c, 3, 67, 52
8, 51840, Note_on_c, 3, 64, 52
8, 51959, Note_on_c, 3, 67, 0
8, 51959, Note_on_c, 3, 64, 0
8, 52320, Note_on_c, 3, 67, 52
8, 52320, Note_on_c, 3, 64, 52
8, 52424, Note_on_c, 3, 67, 0
8, 52424, Note_on_c, 3, 64, 0
8, 52440, Note_on_c, 3, 67, 52
8, 52440, Note_on_c, 3, 64, 52
8, 52544, Note_on_c, 3, 67, 0
8, 52544, Note_on_c, 3, 64, 0
8, 52560, Note_on_c, 3, 64, 52
8, 52560, Note_on_c, 3, 67, 52
8, 52679, Note_on_c, 3, 64, 0
8, 52679, Note_on_c, 3, 67, 0
8, 53040, Note_on_c, 3, 67, 52
8, 53040, Note_on_c, 3, 64, 52
8, 53144, Note_on_c, 3, 67, 0
8, 53144, Note_on_c, 3, 64, 0
8, 53160, Note_on_c, 3, 67, 52
8, 53160, Note_on_c, 3, 64, 52
8, 53264, Note_on_c, 3, 67, 0
8, 53264, Note_on_c, 3, 64, 0
8, 53280, Note_on_c, 3, 64, 52
8, 53280, Note_on_c, 3, 67, 52
8, 53384, Note_on_c, 3, 64, 0
8, 53384, Note_on_c, 3, 67, 0
8, 53760, Note_on_c, 3, 69, 84
8, 53760, Note_on_c, 3, 77, 84
8, 53864, Note_on_c, 3, 69, 0
8, 53864, Note_on_c, 3, 77, 0
8, 53880, Note_on_c, 3, 77, 84
8, 53880, Note_on_c, 3, 69, 84
8, 53984, Note_on_c, 3, 77, 0
8, 53984, Note_on_c, 3, 69, 0
8, 54000, Note_on_c, 3, 77, 84
8, 54000, Note_on_c, 3, 69, 84
8, 54119, Note_on_c, 3, 77, 0
8, 54119, Note_on_c, 3, 69, 0
8, 54480, Note_on_c, 3, 77, 84
8, 54480, Note_on_c, 3, 69, 84
8, 54584, Note_on_c, 3, 77, 0
8, 54584, Note_on_c, 3, 69, 0
8, 54600, Note_on_c, 3, 77, 84
8, 54600, Note_on_c, 3, 69, 84
8, 54704, Note_on_c, 3, 77, 0
8, 54704, Note_on_c, 3, 69, 0
8, 54720, Note_on_c, 3, 77, 84
8, 54720, Note_on_c, 3, 69, 84
8, 54839, Note_on_c, 3, 77, 0
8, 54839, Note_on_c, 3, 69, 0
8, 55200, Note_on_c, 3, 69, 84
8, 55200, Note_on_c, 3, 77, 84
8, 55304, Note_on_c, 3, 69, 0
8, 55304, Note_on_c, 3, 77, 0
8, 55320, Note_on_c, 3, 69, 84
8, 55320, Note_on_c, 3, 77, 84
8, 55424, Note_on_c, 3, 69, 0
8, 55424, Note_on_c, 3, 77, 0
8, 55440, Note_on_c, 3, 69, 84
8, 55440, Note_on_c, 3, 77, 84
8, 55559, Note_on_c, 3, 69, 0
8, 55559, Note_on_c, 3, 77, 0
8, 55920, Note_on_c, 3, 69, 84
8, 55920, Note_on_c, 3, 77, 84
8, 56024, Note_on_c, 3, 69, 0
8, 56024, Note_on_c, 3, 77, 0
8, 56040, Note_on_c, 3, 77, 84
8, 56040, Note_on_c, 3, 69, 84
8, 56144, Note_on_c, 3, 77, 0
8, 56144, Note_on_c, 3, 69, 0
8, 56160, Note_on_c, 3, 77, 84
8, 56160, Note_on_c, 3, 69, 84
8, 56279, Note_on_c, 3, 77, 0
8, 56279, Note_on_c, 3, 69, 0
8, 56640, Note_on_c, 3, 69, 84
8, 56640, Note_on_c, 3, 77, 84
8, 56744, Note_on_c, 3, 69, 0
8, 56744, Note_on_c, 3, 77, 0
8, 56760, Note_on_c, 3, 77, 84
8, 56760, Note_on_c, 3, 69, 84
8, 56864, Note_on_c, 3, 77, 0
8, 56864, Note_on_c, 3, 69, 0
8, 56880, Note_on_c, 3, 69, 84
8, 56880, Note_on_c, 3, 77, 84
8, 56984, Note_on_c, 3, 69, 0
8, 56984, Note_on_c, 3, 77, 0
8, 57000, Note_on_c, 3, 69, 84
8, 57000, Note_on_c, 3, 77, 84
8, 57104, Note_on_c, 3, 69, 0
8, 57104, Note_on_c, 3, 77, 0
8, 57120, Note_on_c, 3, 69, 84
8, 57120, Note_on_c, 3, 77, 84
8, 57224, Note_on_c, 3, 69, 0
8, 57224, Note_on_c, 3, 77, 0
8, 57240, Note_on_c, 3, 77, 84
8, 57240, Note_on_c, 3, 69, 84
8, 57344, Note_on_c, 3, 77, 0
8, 57344, Note_on_c, 3, 69, 0
8, 57360, Note_on_c, 3, 69, 84
8, 57360, Note_on_c, 3, 77, 84
8, 57479, Note_on_c, 3, 69, 0
8, 57479, Note_on_c, 3, 77, 0
8, 59040, Note_on_c, 3, 65, 84
8, 59040, Note_on_c, 3, 77, 84
8, 59144, Note_on_c, 3, 65, 0
8, 59144, Note_on_c, 3, 77, 0
8, 59160, Note_on_c, 3, 81, 84
8, 59160, Note_on_c, 3, 69, 84
8, 59279, Note_on_c, 3, 81, 0
8, 59279, Note_on_c, 3, 69, 0
8, 59520, Note_on_c, 3, 81, 84
8, 59520, Note_on_c, 3, 69, 84
8, 59639, Note_on_c, 3, 81, 0
8, 59639, Note_on_c, 3, 69, 0
8, 59880, Note_on_c, 3, 69, 84
8, 59880, Note_on_c, 3, 81, 84
8, 59999, Note_on_c, 3, 69, 0
8, 59999, Note_on_c, 3, 81, 0
8, 60240, Note_on_c, 3, 69, 84
8, 60240, Note_on_c, 3, 81, 84
8, 60359, Note_on_c, 3, 69, 0
8, 60359, Note_on_c, 3, 81, 0
8, 60600, Note_on_c, 3, 69, 84
8, 60600, Note_on_c, 3, 81, 84
8, 60719, Note_on_c, 3, 69, 0
8, 60719, Note_on_c, 3, 81, 0
8, 63360, Note_on_c, 3, 76, 52
8, 63360, Note_on_c, 3, 73, 52
8, 63449, Note_on_c, 3, 76, 0
8, 63449, Note_on_c, 3, 73, 0
8, 63480, Note_on_c, 3, 74, 52
8, 63480, Note_on_c, 3, 78, 52
8, 63569, Note_on_c, 3, 74, 0
8, 63569, Note_on_c, 3, 78, 0
8, 63600, Note_on_c, 3, 78, 52
8, 63600, Note_on_c, 3, 74, 52
8, 63689, Note_on_c, 3, 78, 0
8, 63689, Note_on_c, 3, 74, 0
8, 63720, Note_on_c, 3, 73, 52
8, 63720, Note_on_c, 3, 76, 52
8, 63809, Note_on_c, 3, 73, 0
8, 63809, Note_on_c, 3, 76, 0
8, 63840, Note_on_c, 3, 80, 52
8, 63840, Note_on_c, 3, 71, 52
8, 64079, Note_on_c, 3, 80, 0
8, 64079, Note_on_c, 3, 71, 0
8, 64080, Note_on_c, 3, 81, 52
8, 64080, Note_on_c, 3, 69, 52
8, 64184, Note_on_c, 3, 81, 0
8, 64184, Note_on_c, 3, 69, 0
8, 64200, Note_on_c, 3, 78, 52
8, 64200, Note_on_c, 3, 74, 52
8, 64289, Note_on_c, 3, 78, 0
8, 64289, Note_on_c, 3, 74, 0
8, 64320, Note_on_c, 3, 78, 52
8, 64320, Note_on_c, 3, 74, 52
8, 64409, Note_on_c, 3, 78, 0
8, 64409, Note_on_c, 3, 74, 0
8, 64440, Note_on_c, 3, 76, 52
8, 64440, Note_on_c, 3, 73, 52
8, 64529, Note_on_c, 3, 76, 0
8, 64529, Note_on_c, 3, 73, 0
8, 64560, Note_on_c, 3, 80, 52
8, 64560, Note_on_c, 3, 71, 52
8, 64799, Note_on_c, 3, 80, 0
8, 64799, Note_on_c, 3, 71, 0
8, 64800, Note_on_c, 3, 69, 52
8, 64800, Note_on_c, 3, 81, 52
8, 64904, Note_on_c, 3, 69, 0
8, 64904, Note_on_c, 3, 81, 0
8, 64920, Note_on_c, 3, 71, 44
8, 64920, Note_on_c, 3, 80, 44
8, 65159, Note_on_c, 3, 71, 0
8, 65159, Note_on_c, 3, 80, 0
8, 65160, Note_on_c, 3, 81, 44
8, 65160, Note_on_c, 3, 69, 44
8, 65264, Note_on_c, 3, 81, 0
8, 65264, Note_on_c, 3, 69, 0
8, 65280, Note_on_c, 3, 80, 44
8, 65280, Note_on_c, 3, 71, 44
8, 65519, Note_on_c, 3, 80, 0
8, 65519, Note_on_c, 3, 71, 0
8, 65520, Note_on_c, 3, 69, 44
8, 65520, Note_on_c, 3, 81, 44
8, 65624, Note_on_c, 3, 69, 0
8, 65624, Note_on_c, 3, 81, 0
8, 65640, Note_on_c, 3, 71, 44
8, 65640, Note_on_c, 3, 80, 44
8, 65879, Note_on_c, 3, 71, 0
8, 65879, Note_on_c, 3, 80, 0
8, 65880, Note_on_c, 3, 81, 44
8, 65880, Note_on_c, 3, 69, 44
8, 65984, Note_on_c, 3, 81, 0
8, 65984, Note_on_c, 3, 69, 0
8, 66000, Note_on_c, 3, 80, 44
8, 66000, Note_on_c, 3, 71, 44
8, 66239, Note_on_c, 3, 80, 0
8, 66239, Note_on_c, 3, 71, 0
8, 66240, Note_on_c, 3, 69, 44
8, 66240, Note_on_c, 3, 81, 44
8, 66359, Note_on_c, 3, 69, 0
8, 66359, Note_on_c, 3, 81, 0
8, 68760, Note_on_c, 3, 74, 84
8, 68760, Note_on_c, 3, 77, 84
8, 68864, Note_on_c, 3, 74, 0
8, 68864, Note_on_c, 3, 77, 0
8, 68880, Note_on_c, 3, 77, 84
8, 68880, Note_on_c, 3, 74, 84
8, 68999, Note_on_c, 3, 77, 0
8, 68999, Note_on_c, 3, 74, 0
8, 84960, Note_on_c, 3, 77, 76
8, 84960, Note_on_c, 3, 69, 76
8, 85064, Note_on_c, 3, 77, 0
8, 85064, Note_on_c, 3, 69, 0
8, 85080, Note_on_c, 3, 69, 76
8, 85080, Note_on_c, 3, 77, 76
8, 85199, Note_on_c, 3, 69, 0
8, 85199, Note_on_c, 3, 77, 0
8, 85320, Note_on_c, 3, 69, 76
8, 85320, Note_on_c, 3, 77, 76
8, 85424, Note_on_c, 3, 69, 0
8, 85424, Note_on_c, 3, 77, 0
8, 85440, Note_on_c, 3, 69, 76
8, 85440, Note_on_c, 3, 77, 76
8, 85559, Note_on_c, 3, 69, 0
8, 85559, Note_on_c, 3, 77, 0
8, 85680, Note_on_c, 3, 69, 76
8, 85680, Note_on_c, 3, 77, 76
8, 85784, Note_on_c, 3, 69, 0
8, 85784, Note_on_c, 3, 77, 0
8, 85800, Note_on_c, 3, 65, 84
8, 85800, Note_on_c, 3, 77, 84
8, 86999, Note_on_c, 3, 65, 0
8, 86999, Note_on_c, 3, 77, 0
8, 87000, Note_on_c, 3, 79, 84
8, 87000, Note_on_c, 3, 67, 84
8, 87104, Note_on_c, 3, 79, 0
8, 87104, Note_on_c, 3, 67, 0
8, 87120, Note_on_c, 3, 79, 84
8, 87120, Note_on_c, 3, 67, 84
8, 87209, Note_on_c, 3, 79, 0
8, 87209, Note_on_c, 3, 67, 0
8, 87240, Note_on_c, 3, 67, 84
8, 87240, Note_on_c, 3, 79, 84
8, 88439, Note_on_c, 3, 67, 0
8, 88439, Note_on_c, 3, 79, 0
8, 88440, Note_on_c, 3, 69, 84
8, 88440, Note_on_c, 3, 81, 84
8, 88544, Note_on_c, 3, 69, 0
8, 88544, Note_on_c, 3, 81, 0
8, 88560, Note_on_c, 3, 69, 84
8, 88560, Note_on_c, 3, 81, 84
8, 88649, Note_on_c, 3, 69, 0
8, 88649, Note_on_c, 3, 81, 0
8, 95520, Note_on_c, 3, 64, 52
8, 95520, Note_on_c, 3, 67, 52
8, 95624, Note_on_c, 3, 64, 0
8, 95624, Note_on_c, 3, 67, 0
8, 95640, Note_on_c, 3, 64, 52
8, 95640, Note_on_c, 3, 67, 52
8, 95744, Note_on_c, 3, 64, 0
8, 95744, Note_on_c, 3, 67, 0
8, 95760, Note_on_c, 3, 67, 52
8, 95760, Note_on_c, 3, 64, 52
8, 95879, Note_on_c, 3, 67, 0
8, 95879, Note_on_c, 3, 64, 0
8, 96240, Note_on_c, 3, 64, 52
8, 96240, Note_on_c, 3, 67, 52
8, 96344, Note_on_c, 3, 64, 0
8, 96344, Note_on_c, 3, 67, 0
8, 96360, Note_on_c, 3, 67, 52
8, 96360, Note_on_c, 3, 64, 52
8, 96464, Note_on_c, 3, 67, 0
8, 96464, Note_on_c, 3, 64, 0
8, 96480, Note_on_c, 3, 67, 52
8, 96480, Note_on_c, 3, 64, 52
8, 96599, Note_on_c, 3, 67, 0
8, 96599, Note_on_c, 3, 64, 0
8, 96960, Note_on_c, 3, 64, 52
8, 96960, Note_on_c, 3, 67, 52
8, 97064, Note_on_c, 3, 64, 0
8, 97064, Note_on_c, 3, 67, 0
8, 97080, Note_on_c, 3, 64, 52
8, 97080, Note_on_c, 3, 67, 52
8, 97184, Note_on_c, 3, 64, 0
8, 97184, Note_on_c, 3, 67, 0
8, 97200, Note_on_c, 3, 64, 52
8, 97200, Note_on_c, 3, 67, 52
8, 97319, Note_on_c, 3, 64, 0
8, 97319, Note_on_c, 3, 67, 0
8, 97680, Note_on_c, 3, 64, 52
8, 97680, Note_on_c, 3, 67, 52
8, 97784, Note_on_c, 3, 64, 0
8, 97784, Note_on_c, 3, 67, 0
8, 97800, Note_on_c, 3, 64, 52
8, 97800, Note_on_c, 3, 67, 52
8, 97904, Note_on_c, 3, 64, 0
8, 97904, Note_on_c, 3, 67, 0
8, 97920, Note_on_c, 3, 67, 52
8, 97920, Note_on_c, 3, 64, 52
8, 98024, Note_on_c, 3, 67, 0
8, 98024, Note_on_c, 3, 64, 0
8, 98400, Note_on_c, 3, 69, 84
8, 98400, Note_on_c, 3, 77, 84
8, 98504, Note_on_c, 3, 69, 0
8, 98504, Note_on_c, 3, 77, 0
8, 98520, Note_on_c, 3, 69, 84
8, 98520, Note_on_c, 3, 77, 84
8, 98624, Note_on_c, 3, 69, 0
8, 98624, Note_on_c, 3, 77, 0
8, 98640, Note_on_c, 3, 77, 84
8, 98640, Note_on_c, 3, 69, 84
8, 98759, Note_on_c, 3, 77, 0
8, 98759, Note_on_c, 3, 69, 0
8, 99120, Note_on_c, 3, 69, 84
8, 99120, Note_on_c, 3, 77, 84
8, 99224, Note_on_c, 3, 69, 0
8, 99224, Note_on_c, 3, 77, 0
8, 99240, Note_on_c, 3, 77, 84
8, 99240, Note_on_c, 3, 69, 84
8, 99344, Note_on_c, 3, 77, 0
8, 99344, Note_on_c, 3, 69, 0
8, 99360, Note_on_c, 3, 69, 84
8, 99360, Note_on_c, 3, 77, 84
8, 99479, Note_on_c, 3, 69, 0
8, 99479, Note_on_c, 3, 77, 0
8, 99840, Note_on_c, 3, 69, 84
8, 99840, Note_on_c, 3, 77, 84
8, 99944, Note_on_c, 3, 69, 0
8, 99944, Note_on_c, 3, 77, 0
8, 99960, Note_on_c, 3, 69, 84
8, 99960, Note_on_c, 3, 77, 84
8, 100064, Note_on_c, 3, 69, 0
8, 100064, Note_on_c, 3, 77, 0
8, 100080, Note_on_c, 3, 69, 84
8, 100080, Note_on_c, 3, 77, 84
8, 100199, Note_on_c, 3, 69, 0
8, 100199, Note_on_c, 3, 77, 0
8, 100560, Note_on_c, 3, 77, 84
8, 100560, Note_on_c, 3, 69, 84
8, 100664, Note_on_c, 3, 77, 0
8, 100664, Note_on_c, 3, 69, 0
8, 100680, Note_on_c, 3, 69, 84
8, 100680, Note_on_c, 3, 77, 84
8, 100784, Note_on_c, 3, 69, 0
8, 100784, Note_on_c, 3, 77, 0
8, 100800, Note_on_c, 3, 69, 84
8, 100800, Note_on_c, 3, 77, 84
8, 100919, Note_on_c, 3, 69, 0
8, 100919, Note_on_c, 3, 77, 0
8, 101280, Note_on_c, 3, 69, 84
8, 101280, Note_on_c, 3, 77, 84
8, 101384, Note_on_c, 3, 69, 0
8, 101384, Note_on_c, 3, 77, 0
8, 101400, Note_on_c, 3, 77, 84
8, 101400, Note_on_c, 3, 69, 84
8, 101504, Note_on_c, 3, 77, 0
8, 101504, Note_on_c, 3, 69, 0
8, 101520, Note_on_c, 3, 69, 84
8, 101520, Note_on_c, 3, 77, 84
8, 101624, Note_on_c, 3, 69, 0
8, 101624, Note_on_c, 3, 77, 0
8, 101640, Note_on_c, 3, 77, 84
8, 101640, Note_on_c, 3, 69, 84
8, 101744, Note_on_c, 3, 77, 0
8, 101744, Note_on_c, 3, 69, 0
8, 101760, Note_on_c, 3, 69, 84
8, 101760, Note_on_c, 3, 77, 84
8, 101864, Note_on_c, 3, 69, 0
8, 101864, Note_on_c, 3, 77, 0
8, 101880, Note_on_c, 3, 77, 84
8, 101880, Note_on_c, 3, 69, 84
8, 101984, Note_on_c, 3, 77, 0
8, 101984, Note_on_c, 3, 69, 0
8, 102000, Note_on_c, 3, 69, 84
8, 102000, Note_on_c, 3, 77, 84
8, 102119, Note_on_c, 3, 69, 0
8, 102119, Note_on_c, 3, 77, 0
8, 103680, Note_on_c, 3, 77, 84
8, 103680, Note_on_c, 3, 65, 84
8, 103784, Note_on_c, 3, 77, 0
8, 103784, Note_on_c, 3, 65, 0
8, 103800, Note_on_c, 3, 81, 84
8, 103800, Note_on_c, 3, 69, 84
8, 103919, Note_on_c, 3, 81, 0
8, 103919, Note_on_c, 3, 69, 0
8, 104160, Note_on_c, 3, 69, 84
8, 104160, Note_on_c, 3, 81, 84
8, 104279, Note_on_c, 3, 69, 0
8, 104279, Note_on_c, 3, 81, 0
8, 104520, Note_on_c, 3, 69, 84
8, 104520, Note_on_c, 3, 81, 84
8, 104639, Note_on_c, 3, 69, 0
8, 104639, Note_on_c, 3, 81, 0
8, 104880, Note_on_c, 3, 69, 84
8, 104880, Note_on_c, 3, 81, 84
8, 104999, Note_on_c, 3, 69, 0
8, 104999, Note_on_c, 3, 81, 0
8, 105240, Note_on_c, 3, 69, 84
8, 105240, Note_on_c, 3, 81, 84
8, 105359, Note_on_c, 3, 69, 0
8, 105359, Note_on_c, 3, 81, 0
8, 106560, Control_c, 3, 11, 96
8, 106680, Note_on_c, 3, 66, 64
8, 106680, Note_on_c, 3, 74, 64
8, 106680, Control_c, 3, 11, 96
8, 106733, Control_c, 3, 11, 99
8, 106787, Control_c, 3, 11, 103
8, 106840, Control_c, 3, 11, 106
8, 106893, Control_c, 3, 11, 110
8, 106947, Control_c, 3, 11, 113
8, 107000, Control_c, 3, 11, 117
8, 107053, Control_c, 3, 11, 120
8, 107107, Control_c, 3, 11, 124
8, 107160, Control_c, 3, 11, 127
8, 107213, Control_c, 3, 11, 124
8, 107267, Control_c, 3, 11, 120
8, 107279, Note_on_c, 3, 66, 0
8, 107279, Note_on_c, 3, 74, 0
8, 107280, Note_on_c, 3, 73, 64
8, 107280, Note_on_c, 3, 64, 64
8, 107320, Control_c, 3, 11, 117
8, 107373, Control_c, 3, 11, 113
8, 107399, Note_on_c, 3, 73, 0
8, 107399, Note_on_c, 3, 64, 0
8, 107400, Note_on_c, 3, 74, 64
8, 107400, Note_on_c, 3, 66, 64
8, 107427, Control_c, 3, 11, 110
8, 107480, Control_c, 3, 11, 106
8, 107533, Control_c, 3, 11, 103
8, 107587, Control_c, 3, 11, 99
8, 107639, Note_on_c, 3, 74, 0
8, 107639, Note_on_c, 3, 66, 0
8, 107640, Control_c, 3, 11, 96
8, 108120, Control_c, 3, 11, 96
8, 108120, Note_on_c, 3, 66, 64
8, 108120, Note_on_c, 3, 74, 64
8, 108173, Control_c, 3, 11, 99
8, 108227, Control_c, 3, 11, 103
8, 108280, Control_c, 3, 11, 106
8, 108333, Control_c, 3, 11, 110
8, 108387, Control_c, 3, 11, 113
8, 108440, Control_c, 3, 11, 117
8, 108493, Control_c, 3, 11, 120
8, 108547, Control_c, 3, 11, 124
8, 108600, Control_c, 3, 11, 127
8, 108653, Control_c, 3, 11, 124
8, 108707, Control_c, 3, 11, 120
8, 108719, Note_on_c, 3, 66, 0
8, 108719, Note_on_c, 3, 74, 0
8, 108720, Note_on_c, 3, 73, 64
8, 108720, Note_on_c, 3, 64, 64
8, 108760, Control_c, 3, 11, 117
8, 108813, Control_c, 3, 11, 113
8, 108839, Note_on_c, 3, 73, 0
8, 108839, Note_on_c, 3, 64, 0
8, 108840, Note_on_c, 3, 74, 64
8, 108840, Note_on_c, 3, 66, 64
8, 108867, Control_c, 3, 11, 110
8, 108920, Control_c, 3, 11, 106
8, 108973, Control_c, 3, 11, 103
8, 109027, Control_c, 3, 11, 99
8, 109079, Note_on_c, 3, 74, 0
8, 109079, Note_on_c, 3, 66, 0
8, 109080, Control_c, 3, 11, 96
8, 109320, Control_c, 3, 11, 127
8, 109560, Note_on_c, 3, 66, 48
8, 109560, Note_on_c, 3, 74, 48
8, 110039, Note_on_c, 3, 66, 0
8, 110039, Note_on_c, 3, 74, 0
8, 110040, Note_on_c, 3, 76, 48
8, 110040, Note_on_c, 3, 67, 48
8, 110279, Note_on_c, 3, 76, 0
8, 110279, Note_on_c, 3, 67, 0
8, 110280, Note_on_c, 3, 78, 48
8, 110280, Note_on_c, 3, 74, 48
8, 110519, Note_on_c, 3, 78, 0
8, 110519, Note_on_c, 3, 74, 0
8, 110520, Note_on_c, 3, 76, 48
8, 110520, Note_on_c, 3, 79, 48
8, 110739, Note_on_c, 3, 76, 0
8, 110739, Note_on_c, 3, 79, 0
8, 110760, Note_on_c, 3, 78, 48
8, 110760, Note_on_c, 3, 74, 48
8, 110939, Note_on_c, 3, 78, 0
8, 110939, Note_on_c, 3, 74, 0
8, 111000, Note_on_c, 3, 73, 48
8, 111000, Note_on_c, 3, 76, 48
8, 111239, Note_on_c, 3, 73, 0
8, 111239, Note_on_c, 3, 76, 0
8, 112200, Control_c, 3, 11, 96
8, 112440, Note_on_c, 3, 76, 64
8, 112440, Note_on_c, 3, 73, 64
8, 112493, Control_c, 3, 11, 99
8, 112547, Control_c, 3, 11, 103
8, 112600, Control_c, 3, 11, 106
8, 112653, Control_c, 3, 11, 110
8, 112707, Control_c, 3, 11, 113
8, 112760, Control_c, 3, 11, 117
8, 112813, Control_c, 3, 11, 120
8, 112867, Control_c, 3, 11, 124
8, 112920, Control_c, 3, 11, 127
8, 112973, Control_c, 3, 11, 124
8, 113027, Control_c, 3, 11, 120
8, 113039, Note_on_c, 3, 76, 0
8, 113039, Note_on_c, 3, 73, 0
8, 113040, Note_on_c, 3, 75, 64
8, 113040, Note_on_c, 3, 72, 64
8, 113080, Control_c, 3, 11, 117
8, 113133, Control_c, 3, 11, 113
8, 113159, Note_on_c, 3, 75, 0
8, 113159, Note_on_c, 3, 72, 0
8, 113160, Note_on_c, 3, 73, 64
8, 113160, Note_on_c, 3, 76, 64
8, 113187, Control_c, 3, 11, 110
8, 113240, Control_c, 3, 11, 106
8, 113293, Control_c, 3, 11, 103
8, 113347, Control_c, 3, 11, 99
8, 113399, Note_on_c, 3, 73, 0
8, 113399, Note_on_c, 3, 76, 0
8, 113400, Control_c, 3, 11, 96
8, 113880, Note_on_c, 3, 76, 64
8, 113880, Note_on_c, 3, 73, 64
8, 113933, Control_c, 3, 11, 99
8, 113987, Control_c, 3, 11, 103
8, 114040, Control_c, 3, 11, 106
8, 114093, Control_c, 3, 11, 110
8, 114147, Control_c, 3, 11, 113
8, 114200, Control_c, 3, 11, 117
8, 114253, Control_c, 3, 11, 120
8, 114307, Control_c, 3, 11, 124
8, 114360, Control_c, 3, 11, 127
8, 114413, Control_c, 3, 11, 124
8, 114467, Control_c, 3, 11, 120
8, 114479, Note_on_c, 3, 76, 0
8, 114479, Note_on_c, 3, 73, 0
8, 114480, Note_on_c, 3, 75, 64
8, 114480, Note_on_c, 3, 72, 64
8, 114520, Control_c, 3, 11, 117
8, 114573, Control_c, 3, 11, 113
8, 114599, Note_on_c, 3, 75, 0
8, 114599, Note_on_c, 3, 72, 0
8, 114600, Note_on_c, 3, 76, 64
8, 114600, Note_on_c, 3, 73, 64
8, 114627, Control_c, 3, 11, 110
8, 114680, Control_c, 3, 11, 106
8, 114733, Control_c, 3, 11, 103
8, 114787, Control_c, 3, 11, 99
8, 114839, Note_on_c, 3, 76, 0
8, 114839, Note_on_c, 3, 73, 0
8, 114840, Control_c, 3, 11, 96
8, 115080, Control_c, 3, 11, 127
8, 115320, Note_on_c, 3, 76, 48
8, 115320, Note_on_c, 3, 73, 48
8, 115799, Note_on_c, 3, 76, 0
8, 115799, Note_on_c, 3, 73, 0
8, 115800, Note_on_c, 3, 74, 48
8, 115800, Note_on_c, 3, 78, 48
8, 116039, Note_on_c, 3, 74, 0
8, 116039, Note_on_c, 3, 78, 0
8, 116040, Note_on_c, 3, 78, 48
8, 116040, Note_on_c, 3, 81, 48
8, 116279, Note_on_c, 3, 78, 0
8, 116279, Note_on_c, 3, 81, 0
8, 116280, Note_on_c, 3, 76, 48
8, 116280, Note_on_c, 3, 79, 48
8, 116499, Note_on_c, 3, 76, 0
8, 116499, Note_on_c, 3, 79, 0
8, 116520, Note_on_c, 3, 67, 48
8, 116520, Note_on_c, 3, 76, 48
8, 116699, Note_on_c, 3, 67, 0
8, 116699, Note_on_c, 3, 76, 0
8, 116760, Note_on_c, 3, 74, 48
8, 116760, Note_on_c, 3, 66, 48
8, 116999, Note_on_c, 3, 74, 0
8, 116999, Note_on_c, 3, 66, 0
8, 117480, Control_c, 3, 11, 96
8, 118200, Note_on_c, 3, 62, 68
8, 118200, Note_on_c, 3, 66, 68
8, 118200, Control_c, 3, 11, 96
8, 118253, Control_c, 3, 11, 99
8, 118307, Control_c, 3, 11, 103
8, 118360, Control_c, 3, 11, 106
8, 118413, Control_c, 3, 11, 110
8, 118467, Control_c, 3, 11, 113
8, 118520, Control_c, 3, 11, 117
8, 118573, Control_c, 3, 11, 120
8, 118627, Control_c, 3, 11, 124
8, 118680, Control_c, 3, 11, 127
8, 118733, Control_c, 3, 11, 124
8, 118787, Control_c, 3, 11, 120
8, 118799, Note_on_c, 3, 62, 0
8, 118799, Note_on_c, 3, 66, 0
8, 118800, Note_on_c, 3, 67, 68
8, 118800, Note_on_c, 3, 64, 68
8, 118840, Control_c, 3, 11, 117
8, 118893, Control_c, 3, 11, 113
8, 118919, Note_on_c, 3, 67, 0
8, 118919, Note_on_c, 3, 64, 0
8, 118920, Note_on_c, 3, 66, 68
8, 118920, Note_on_c, 3, 62, 68
8, 118947, Control_c, 3, 11, 110
8, 119000, Control_c, 3, 11, 106
8, 119053, Control_c, 3, 11, 103
8, 119107, Control_c, 3, 11, 99
8, 119159, Note_on_c, 3, 66, 0
8, 119159, Note_on_c, 3, 62, 0
8, 119160, Control_c, 3, 11, 96
8, 119640, Note_on_c, 3, 62, 68
8, 119640, Note_on_c, 3, 66, 68
8, 119693, Control_c, 3, 11, 99
8, 119747, Control_c, 3, 11, 103
8, 119800, Control_c, 3, 11, 106
8, 119853, Control_c, 3, 11, 110
8, 119907, Control_c, 3, 11, 113
8, 119960, Control_c, 3, 11, 117
8, 120013, Control_c, 3, 11, 120
8, 120067, Control_c, 3, 11, 124
8, 120120, Control_c, 3, 11, 127
8, 120173, Control_c, 3, 11, 124
8, 120227, Control_c, 3, 11, 120
8, 120239, Note_on_c, 3, 62, 0
8, 120239, Note_on_c, 3, 66, 0
8, 120240, Note_on_c, 3, 67, 68
8, 120240, Note_on_c, 3, 64, 68
8, 120280, Control_c, 3, 11, 117
8, 120333, Control_c, 3, 11, 113
8, 120359, Note_on_c, 3, 67, 0
8, 120359, Note_on_c, 3, 64, 0
8, 120360, Note_on_c, 3, 66, 68
8, 120360, Note_on_c, 3, 62, 68
8, 120387, Control_c, 3, 11, 110
8, 120440, Control_c, 3, 11, 106
8, 120493, Control_c, 3, 11, 103
8, 120547, Control_c, 3, 11, 99
8, 120599, Note_on_c, 3, 66, 0
8, 120599, Note_on_c, 3, 62, 0
8, 120600, Control_c, 3, 11, 96
8, 120840, Control_c, 3, 11, 127
8, 121080, Note_on_c, 3, 66, 52
8, 121080, Note_on_c, 3, 62, 52
8, 121559, Note_on_c, 3, 66, 0
8, 121559, Note_on_c, 3, 62, 0
8, 121560, Note_on_c, 3, 67, 52
8, 121560, Note_on_c, 3, 64, 52
8, 121799, Note_on_c, 3, 67, 0
8, 121799, Note_on_c, 3, 64, 0
8, 121800, Note_on_c, 3, 66, 52
8, 121800, Note_on_c, 3, 62, 52
8, 122039, Note_on_c, 3, 66, 0
8, 122039, Note_on_c, 3, 62, 0
8, 122040, Note_on_c, 3, 64, 52
8, 122040, Note_on_c, 3, 67, 52
8, 122259, Note_on_c, 3, 64, 0
8, 122259, Note_on_c, 3, 67, 0
8, 122280, Note_on_c, 3, 66, 52
8, 122280, Note_on_c, 3, 62, 52
8, 122459, Note_on_c, 3, 66, 0
8, 122459, Note_on_c, 3, 62, 0
8, 122520, Note_on_c, 3, 61, 52
8, 122520, Note_on_c, 3, 64, 52
8, 122759, Note_on_c, 3, 61, 0
8, 122759, Note_on_c, 3, 64, 0
8, 123240, Control_c, 3, 11, 96
8, 123960, Note_on_c, 3, 67, 68
8, 124013, Control_c, 3, 11, 99
8, 124067, Control_c, 3, 11, 103
8, 124120, Control_c, 3, 11, 106
8, 124173, Control_c, 3, 11, 110
8, 124227, Control_c, 3, 11, 113
8, 124280, Control_c, 3, 11, 117
8, 124333, Control_c, 3, 11, 120
8, 124387, Control_c, 3, 11, 124
8, 124440, Control_c, 3, 11, 127
8, 124493, Control_c, 3, 11, 124
8, 124547, Control_c, 3, 11, 120
8, 124559, Note_on_c, 3, 67, 0
8, 124560, Note_on_c, 3, 69, 68
8, 124600, Control_c, 3, 11, 117
8, 124653, Control_c, 3, 11, 113
8, 124679, Note_on_c, 3, 69, 0
8, 124680, Note_on_c, 3, 67, 68
8, 124707, Control_c, 3, 11, 110
8, 124760, Control_c, 3, 11, 106
8, 124813, Control_c, 3, 11, 103
8, 124867, Control_c, 3, 11, 99
8, 124919, Note_on_c, 3, 67, 0
8, 124920, Control_c, 3, 11, 96
8, 125400, Note_on_c, 3, 67, 68
8, 125453, Control_c, 3, 11, 99
8, 125507, Control_c, 3, 11, 103
8, 125560, Control_c, 3, 11, 106
8, 125613, Control_c, 3, 11, 110
8, 125667, Control_c, 3, 11, 113
8, 125720, Control_c, 3, 11, 117
8, 125773, Control_c, 3, 11, 120
8, 125827, Control_c, 3, 11, 124
8, 125880, Control_c, 3, 11, 127
8, 125933, Control_c, 3, 11, 124
8, 125987, Control_c, 3, 11, 120
8, 125999, Note_on_c, 3, 67, 0
8, 126000, Note_on_c, 3, 69, 68
8, 126040, Control_c, 3, 11, 117
8, 126093, Control_c, 3, 11, 113
8, 126119, Note_on_c, 3, 69, 0
8, 126120, Note_on_c, 3, 67, 68
8, 126147, Control_c, 3, 11, 110
8, 126200, Control_c, 3, 11, 106
8, 126253, Control_c, 3, 11, 103
8, 126307, Control_c, 3, 11, 99
8, 126359, Note_on_c, 3, 67, 0
8, 126360, Control_c, 3, 11, 96
8, 126600, Control_c, 3, 11, 127
8, 126840, Note_on_c, 3, 67, 52
8, 126840, Note_on_c, 3, 64, 52
8, 127319, Note_on_c, 3, 67, 0
8, 127319, Note_on_c, 3, 64, 0
8, 127320, Note_on_c, 3, 62, 52
8, 127320, Note_on_c, 3, 66, 52
8, 127559, Note_on_c, 3, 62, 0
8, 127559, Note_on_c, 3, 66, 0
8, 127560, Note_on_c, 3, 66, 52
8, 127560, Note_on_c, 3, 62, 52
8, 127799, Note_on_c, 3, 66, 0
8, 127799, Note_on_c, 3, 62, 0
8, 127800, Note_on_c, 3, 61, 52
8, 127800, Note_on_c, 3, 64, 52
8, 128019, Note_on_c, 3, 61, 0
8, 128019, Note_on_c, 3, 64, 0
8, 128040, Note_on_c, 3, 67, 52
8, 128040, Note_on_c, 3, 73, 52
8, 128219, Note_on_c, 3, 67, 0
8, 128219, Note_on_c, 3, 73, 0
8, 128280, Note_on_c, 3, 66, 52
8, 128280, Note_on_c, 3, 74, 52
8, 128519, Note_on_c, 3, 66, 0
8, 128519, Note_on_c, 3, 74, 0
8, 129720, Note_on_c, 3, 69, 48
8, 129720, Note_on_c, 3, 66, 48
8, 130919, Note_on_c, 3, 69, 0
8, 130919, Note_on_c, 3, 66, 0
8, 130920, Note_on_c, 3, 67, 48
8, 130920, Note_on_c, 3, 71, 48
8, 131139, Note_on_c, 3, 67, 0
8, 131139, Note_on_c, 3, 71, 0
8, 131160, Note_on_c, 3, 67, 48
8, 131160, Note_on_c, 3, 64, 48
8, 132359, Note_on_c, 3, 67, 0
8, 132359, Note_on_c, 3, 64, 0
8, 132360, Note_on_c, 3, 66, 48
8, 132360, Note_on_c, 3, 69, 48
8, 132579, Note_on_c, 3, 66, 0
8, 132579, Note_on_c, 3, 69, 0
8, 132600, Note_on_c, 3, 62, 48
8, 132600, Note_on_c, 3, 66, 48
8, 133119, Note_on_c, 3, 62, 0
8, 133119, Note_on_c, 3, 66, 0
8, 133140, Note_on_c, 3, 64, 48
8, 133140, Note_on_c, 3, 67, 48
8, 133199, Note_on_c, 3, 64, 0
8, 133199, Note_on_c, 3, 67, 0
8, 133200, Note_on_c, 3, 62, 48
8, 133200, Note_on_c, 3, 66, 48
8, 133259, Note_on_c, 3, 62, 0
8, 133259, Note_on_c, 3, 66, 0
8, 133260, Note_on_c, 3, 64, 48
8, 133260, Note_on_c, 3, 61, 48
8, 133319, Note_on_c, 3, 64, 0
8, 133319, Note_on_c, 3, 61, 0
8, 133320, Note_on_c, 3, 62, 48
8, 133320, Note_on_c, 3, 66, 48
8, 133559, Note_on_c, 3, 62, 0
8, 133559, Note_on_c, 3, 66, 0
8, 133560, Note_on_c, 3, 69, 48
8, 133560, Note_on_c, 3, 66, 48
8, 133799, Note_on_c, 3, 69, 0
8, 133799, Note_on_c, 3, 66, 0
8, 133800, Note_on_c, 3, 67, 48
8, 133800, Note_on_c, 3, 64, 48
8, 134019, Note_on_c, 3, 67, 0
8, 134019, Note_on_c, 3, 64, 0
8, 134040, Note_on_c, 3, 66, 48
8, 134040, Note_on_c, 3, 62, 48
8, 134759, Note_on_c, 3, 66, 0
8, 134759, Note_on_c, 3, 62, 0
8, 134760, Note_on_c, 3, 61, 48
8, 134760, Note_on_c, 3, 64, 48
8, 134999, Note_on_c, 3, 61, 0
8, 134999, Note_on_c, 3, 64, 0
8, 135480, Note_on_c, 3, 66, 48
8, 135480, Note_on_c, 3, 69, 48
8, 136439, Note_on_c, 3, 66, 0
8, 136439, Note_on_c, 3, 69, 0
8, 136440, Note_on_c, 3, 69, 48
8, 136440, Note_on_c, 3, 73, 48
8, 136679, Note_on_c, 3, 69, 0
8, 136679, Note_on_c, 3, 73, 0
8, 136680, Note_on_c, 3, 67, 48
8, 136680, Note_on_c, 3, 71, 48
8, 136899, Note_on_c, 3, 67, 0
8, 136899, Note_on_c, 3, 71, 0
8, 136920, Note_on_c, 3, 69, 48
8, 136920, Note_on_c, 3, 66, 48
8, 137399, Note_on_c, 3, 69, 0
8, 137399, Note_on_c, 3, 66, 0
8, 137400, Note_on_c, 3, 64, 48
8, 137400, Note_on_c, 3, 67, 48
8, 137879, Note_on_c, 3, 64, 0
8, 137879, Note_on_c, 3, 67, 0
8, 137880, Note_on_c, 3, 71, 48
8, 137880, Note_on_c, 3, 67, 48
8, 138119, Note_on_c, 3, 71, 0
8, 138119, Note_on_c, 3, 67, 0
8, 138120, Note_on_c, 3, 69, 48
8, 138120, Note_on_c, 3, 66, 48
8, 138339, Note_on_c, 3, 69, 0
8, 138339, Note_on_c, 3, 66, 0
8, 138358, Control_c, 3, 11, 96
8, 138360, Note_on_c, 3, 67, 64
8, 138360, Note_on_c, 3, 64, 64
8, 138420, Control_c, 3, 11, 99
8, 138480, Control_c, 3, 11, 101
8, 138540, Control_c, 3, 11, 104
8, 138599, Note_on_c, 3, 67, 0
8, 138599, Note_on_c, 3, 64, 0
8, 138600, Control_c, 3, 11, 106
8, 138600, Note_on_c, 3, 66, 64
8, 138600, Note_on_c, 3, 62, 64
8, 138660, Control_c, 3, 11, 109
8, 138720, Control_c, 3, 11, 112
8, 138780, Control_c, 3, 11, 114
8, 138839, Note_on_c, 3, 66, 0
8, 138839, Note_on_c, 3, 62, 0
8, 138840, Control_c, 3, 11, 117
8, 138840, Note_on_c, 3, 69, 64
8, 138840, Note_on_c, 3, 66, 64
8, 138900, Control_c, 3, 11, 119
8, 138960, Control_c, 3, 11, 122
8, 139020, Control_c, 3, 11, 124
8, 139059, Note_on_c, 3, 69, 0
8, 139059, Note_on_c, 3, 66, 0
8, 139080, Control_c, 3, 11, 127
8, 139080, Note_on_c, 3, 66, 64
8, 139080, Note_on_c, 3, 74, 64
8, 139140, Control_c, 3, 11, 124
8, 139200, Control_c, 3, 11, 122
8, 139260, Control_c, 3, 11, 119
8, 139299, Note_on_c, 3, 66, 0
8, 139319, Note_on_c, 3, 74, 0
8, 139320, Note_on_c, 3, 66, 64
8, 139320, Note_on_c, 3, 69, 64
8, 139320, Control_c, 3, 11, 117
8, 139380, Control_c, 3, 11, 114
8, 139440, Control_c, 3, 11, 112
8, 139500, Control_c, 3, 11, 109
8, 139559, Note_on_c, 3, 66, 0
8, 139559, Note_on_c, 3, 69, 0
8, 139560, Control_c, 3, 11, 106
8, 139560, Note_on_c, 3, 62, 64
8, 139560, Note_on_c, 3, 66, 64
8, 139620, Control_c, 3, 11, 104
8, 139680, Control_c, 3, 11, 101
8, 139740, Control_c, 3, 11, 99
8, 139779, Note_on_c, 3, 62, 0
8, 139779, Note_on_c, 3, 66, 0
8, 139800, Note_on_c, 3, 61, 64
8, 139800, Note_on_c, 3, 64, 64
8, 139800, Control_c, 3, 11, 96
8, 140520, Control_c, 3, 11, 96
8, 140580, Control_c, 3, 11, 101
8, 140640, Control_c, 3, 11, 106
8, 140700, Control_c, 3, 11, 112
8, 140759, Note_on_c, 3, 61, 0
8, 140759, Note_on_c, 3, 64, 0
8, 140760, Note_on_c, 3, 66, 64
8, 140760, Note_on_c, 3, 69, 64
8, 140760, Control_c, 3, 11, 117
8, 140820, Control_c, 3, 11, 122
8, 140880, Control_c, 3, 11, 127
8, 140940, Control_c, 3, 11, 122
8, 140999, Note_on_c, 3, 66, 0
8, 140999, Note_on_c, 3, 69, 0
8, 141000, Note_on_c, 3, 62, 64
8, 141000, Control_c, 3, 11, 117
8, 141000, Note_on_c, 3, 66, 64
8, 141060, Control_c, 3, 11, 112
8, 141120, Control_c, 3, 11, 106
8, 141180, Control_c, 3, 11, 101
8, 141219, Note_on_c, 3, 62, 0
8, 141219, Note_on_c, 3, 66, 0
8, 141240, Note_on_c, 3, 61, 64
8, 141240, Control_c, 3, 11, 96
8, 141240, Note_on_c, 3, 64, 64
8, 141960, Control_c, 3, 11, 96
8, 142020, Control_c, 3, 11, 101
8, 142080, Control_c, 3, 11, 106
8, 142140, Control_c, 3, 11, 112
8, 142199, Note_on_c, 3, 61, 0
8, 142199, Note_on_c, 3, 64, 0
8, 142200, Note_on_c, 3, 66, 64
8, 142200, Note_on_c, 3, 69, 64
8, 142200, Control_c, 3, 11, 117
8, 142260, Control_c, 3, 11, 122
8, 142320, Control_c, 3, 11, 127
8, 142380, Control_c, 3, 11, 122
8, 142439, Note_on_c, 3, 66, 0
8, 142439, Note_on_c, 3, 69, 0
8, 142440, Note_on_c, 3, 62, 64
8, 142440, Control_c, 3, 11, 117
8, 142440, Note_on_c, 3, 66, 64
8, 142500, Control_c, 3, 11, 112
8, 142560, Control_c, 3, 11, 106
8, 142620, Control_c, 3, 11, 101
8, 142659, Note_on_c, 3, 62, 0
8, 142659, Note_on_c, 3, 66, 0
8, 142680, Control_c, 3, 11, 96
8, 142680, Note_on_c, 3, 61, 64
8, 142680, Note_on_c, 3, 64, 64
8, 142919, Note_on_c, 3, 61, 0
8, 142919, Note_on_c, 3, 64, 0
8, 144326, Control_c, 3, 11, 67
8, 144360, Note_on_c, 3, 71, 84
8, 144360, Note_on_c, 3, 69, 84
8, 144394, Control_c, 3, 11, 68
8, 144463, Control_c, 3, 11, 69
8, 144531, Control_c, 3, 11, 70
8, 144600, Control_c, 3, 11, 71
8, 144669, Control_c, 3, 11, 72
8, 144737, Control_c, 3, 11, 73
8, 144806, Control_c, 3, 11, 74
8, 144819, Note_on_c, 3, 71, 0
8, 144819, Note_on_c, 3, 69, 0
8, 144840, Note_on_c, 3, 69, 84
8, 144840, Note_on_c, 3, 71, 84
8, 144874, Control_c, 3, 11, 75
8, 144943, Control_c, 3, 11, 76
8, 145011, Control_c, 3, 11, 77
8, 145080, Control_c, 3, 11, 78
8, 145149, Control_c, 3, 11, 79
8, 145217, Control_c, 3, 11, 80
8, 145286, Control_c, 3, 11, 81
8, 145299, Note_on_c, 3, 69, 0
8, 145299, Note_on_c, 3, 71, 0
8, 145320, Note_on_c, 3, 69, 84
8, 145320, Note_on_c, 3, 71, 84
8, 145354, Control_c, 3, 11, 82
8, 145423, Control_c, 3, 11, 83
8, 145491, Control_c, 3, 11, 84
8, 145559, Note_on_c, 3, 69, 0
8, 145559, Note_on_c, 3, 71, 0
8, 145560, Control_c, 3, 11, 85
8, 145629, Control_c, 3, 11, 86
8, 145697, Control_c, 3, 11, 87
8, 145766, Control_c, 3, 11, 88
8, 145800, Note_on_c, 3, 70, 84
8, 145800, Note_on_c, 3, 73, 84
8, 145834, Control_c, 3, 11, 89
8, 145903, Control_c, 3, 11, 90
8, 145971, Control_c, 3, 11, 91
8, 146040, Control_c, 3, 11, 92
8, 146109, Control_c, 3, 11, 93
8, 146177, Control_c, 3, 11, 94
8, 146246, Control_c, 3, 11, 95
8, 146259, Note_on_c, 3, 70, 0
8, 146259, Note_on_c, 3, 73, 0
8, 146280, Note_on_c, 3, 73, 84
8, 146280, Note_on_c, 3, 70, 84
8, 146314, Control_c, 3, 11, 96
8, 146383, Control_c, 3, 11, 97
8, 146451, Control_c, 3, 11, 98
8, 146520, Control_c, 3, 11, 99
8, 146589, Control_c, 3, 11, 100
8, 146657, Control_c, 3, 11, 101
8, 146726, Control_c, 3, 11, 102
8, 146739, Note_on_c, 3, 73, 0
8, 146739, Note_on_c, 3, 70, 0
8, 146760, Note_on_c, 3, 70, 84
8, 146760, Note_on_c, 3, 73, 84
8, 146794, Control_c, 3, 11, 103
8, 146863, Control_c, 3, 11, 104
8, 146931, Control_c, 3, 11, 105
8, 146999, Note_on_c, 3, 70, 0
8, 146999, Note_on_c, 3, 73, 0
8, 147000, Control_c, 3, 11, 106
8, 147069, Control_c, 3, 11, 107
8, 147137, Control_c, 3, 11, 108
8, 147206, Control_c, 3, 11, 109
8, 147240, Note_on_c, 3, 73, 84
8, 147240, Note_on_c, 3, 76, 84
8, 147274, Control_c, 3, 11, 110
8, 147343, Control_c, 3, 11, 111
8, 147411, Control_c, 3, 11, 112
8, 147480, Control_c, 3, 11, 113
8, 147549, Control_c, 3, 11, 114
8, 147617, Control_c, 3, 11, 115
8, 147686, Control_c, 3, 11, 116
8, 147699, Note_on_c, 3, 73, 0
8, 147699, Note_on_c, 3, 76, 0
8, 147720, Note_on_c, 3, 73, 84
8, 147720, Note_on_c, 3, 76, 84
8, 147754, Control_c, 3, 11, 117
8, 147823, Control_c, 3, 11, 118
8, 147891, Control_c, 3, 11, 119
8, 147960, Control_c, 3, 11, 120
8, 148029, Control_c, 3, 11, 121
8, 148097, Control_c, 3, 11, 122
8, 148166, Control_c, 3, 11, 123
8, 148179, Note_on_c, 3, 73, 0
8, 148179, Note_on_c, 3, 76, 0
8, 148200, Note_on_c, 3, 76, 84
8, 148200, Note_on_c, 3, 73, 84
8, 148234, Control_c, 3, 11, 124
8, 148303, Control_c, 3, 11, 125
8, 148371, Control_c, 3, 11, 127
8, 148419, Note_on_c, 3, 76, 0
8, 148419, Note_on_c, 3, 73, 0
8, 148440, Note_on_c, 3, 74, 84
8, 148440, Note_on_c, 3, 78, 84
8, 149039, Note_on_c, 3, 74, 0
8, 149039, Note_on_c, 3, 78, 0
8, 149040, Note_on_c, 3, 76, 84
8, 149040, Note_on_c, 3, 73, 84
8, 149159, Note_on_c, 3, 76, 0
8, 149159, Note_on_c, 3, 73, 0
8, 149160, Note_on_c, 3, 78, 84
8, 149160, Note_on_c, 3, 74, 84
8, 149399, Note_on_c, 3, 78, 0
8, 149399, Note_on_c, 3, 74, 0
8, 149880, Note_on_c, 3, 74, 84
8, 149880, Note_on_c, 3, 78, 84
8, 150479, Note_on_c, 3, 74, 0
8, 150479, Note_on_c, 3, 78, 0
8, 150480, Note_on_c, 3, 76, 84
8, 150480, Note_on_c, 3, 73, 84
8, 150599, Note_on_c, 3, 76, 0
8, 150599, Note_on_c, 3, 73, 0
8, 150600, Note_on_c, 3, 74, 84
8, 150600, Note_on_c, 3, 78, 84
8, 150839, Note_on_c, 3, 74, 0
8, 150839, Note_on_c, 3, 78, 0
8, 151320, Note_on_c, 3, 74, 84
8, 151320, Note_on_c, 3, 78, 84
8, 151799, Note_on_c, 3, 74, 0
8, 151799, Note_on_c, 3, 78, 0
8, 151800, Note_on_c, 3, 73, 84
8, 151800, Note_on_c, 3, 76, 84
8, 152039, Note_on_c, 3, 73, 0
8, 152039, Note_on_c, 3, 76, 0
8, 152040, Note_on_c, 3, 78, 84
8, 152040, Note_on_c, 3, 74, 84
8, 152279, Note_on_c, 3, 78, 0
8, 152279, Note_on_c, 3, 74, 0
8, 152280, Note_on_c, 3, 76, 84
8, 152280, Note_on_c, 3, 79, 84
8, 152499, Note_on_c, 3, 76, 0
8, 152499, Note_on_c, 3, 79, 0
8, 152520, Note_on_c, 3, 78, 84
8, 152520, Note_on_c, 3, 74, 84
8, 152699, Note_on_c, 3, 78, 0
8, 152699, Note_on_c, 3, 74, 0
8, 152760, Note_on_c, 3, 76, 84
8, 152760, Note_on_c, 3, 73, 84
8, 152999, Note_on_c, 3, 76, 0
8, 152999, Note_on_c, 3, 73, 0
8, 154200, Note_on_c, 3, 76, 84
8, 154200, Note_on_c, 3, 73, 84
8, 154799, Note_on_c, 3, 76, 0
8, 154799, Note_on_c, 3, 73, 0
8, 154800, Note_on_c, 3, 75, 84
8, 154800, Note_on_c, 3, 72, 84
8, 154919, Note_on_c, 3, 75, 0
8, 154919, Note_on_c, 3, 72, 0
8, 154920, Note_on_c, 3, 73, 84
8, 154920, Note_on_c, 3, 76, 84
8, 155159, Note_on_c, 3, 73, 0
8, 155159, Note_on_c, 3, 76, 0
8, 155640, Note_on_c, 3, 76, 84
8, 155640, Note_on_c, 3, 73, 84
8, 156239, Note_on_c, 3, 76, 0
8, 156239, Note_on_c, 3, 73, 0
8, 156240, Note_on_c, 3, 75, 84
8, 156240, Note_on_c, 3, 72, 84
8, 156359, Note_on_c, 3, 75, 0
8, 156359, Note_on_c, 3, 72, 0
8, 156360, Note_on_c, 3, 76, 84
8, 156360, Note_on_c, 3, 73, 84
8, 156599, Note_on_c, 3, 76, 0
8, 156599, Note_on_c, 3, 73, 0
8, 157080, Note_on_c, 3, 73, 84
8, 157080, Note_on_c, 3, 76, 84
8, 157559, Note_on_c, 3, 73, 0
8, 157559, Note_on_c, 3, 76, 0
8, 157560, Note_on_c, 3, 74, 84
8, 157560, Note_on_c, 3, 78, 84
8, 157799, Note_on_c, 3, 74, 0
8, 157799, Note_on_c, 3, 78, 0
8, 157800, Note_on_c, 3, 81, 84
8, 157800, Note_on_c, 3, 78, 84
8, 158039, Note_on_c, 3, 81, 0
8, 158039, Note_on_c, 3, 78, 0
8, 158040, Note_on_c, 3, 79, 84
8, 158040, Note_on_c, 3, 76, 84
8, 158259, Note_on_c, 3, 79, 0
8, 158259, Note_on_c, 3, 76, 0
8, 158280, Note_on_c, 3, 73, 84
8, 158280, Note_on_c, 3, 76, 84
8, 158459, Note_on_c, 3, 73, 0
8, 158459, Note_on_c, 3, 76, 0
8, 158520, Note_on_c, 3, 74, 84
8, 158759, Note_on_c, 3, 74, 0
8, 159960, Note_on_c, 3, 66, 48
8, 159960, Note_on_c, 3, 69, 48
8, 161159, Note_on_c, 3, 66, 0
8, 161159, Note_on_c, 3, 69, 0
8, 161160, Note_on_c, 3, 67, 48
8, 161160, Note_on_c, 3, 71, 48
8, 161379, Note_on_c, 3, 67, 0
8, 161379, Note_on_c, 3, 71, 0
8, 161400, Note_on_c, 3, 67, 48
8, 161400, Note_on_c, 3, 64, 48
8, 162599, Note_on_c, 3, 67, 0
8, 162599, Note_on_c, 3, 64, 0
8, 162600, Note_on_c, 3, 66, 48
8, 162600, Note_on_c, 3, 69, 48
8, 162819, Note_on_c, 3, 66, 0
8, 162819, Note_on_c, 3, 69, 0
8, 162840, Note_on_c, 3, 66, 48
8, 162840, Note_on_c, 3, 62, 48
8, 163359, Note_on_c, 3, 66, 0
8, 163359, Note_on_c, 3, 62, 0
8, 163380, Note_on_c, 3, 64, 48
8, 163380, Note_on_c, 3, 67, 48
8, 163439, Note_on_c, 3, 64, 0
8, 163439, Note_on_c, 3, 67, 0
8, 163440, Note_on_c, 3, 66, 48
8, 163440, Note_on_c, 3, 62, 48
8, 163499, Note_on_c, 3, 66, 0
8, 163499, Note_on_c, 3, 62, 0
8, 163500, Note_on_c, 3, 64, 48
8, 163500, Note_on_c, 3, 61, 48
8, 163559, Note_on_c, 3, 64, 0
8, 163559, Note_on_c, 3, 61, 0
8, 163560, Note_on_c, 3, 62, 48
8, 163560, Note_on_c, 3, 66, 48
8, 163799, Note_on_c, 3, 62, 0
8, 163799, Note_on_c, 3, 66, 0
8, 163800, Note_on_c, 3, 69, 48
8, 163800, Note_on_c, 3, 66, 48
8, 164039, Note_on_c, 3, 69, 0
8, 164039, Note_on_c, 3, 66, 0
8, 164040, Note_on_c, 3, 64, 48
8, 164040, Note_on_c, 3, 67, 48
8, 164259, Note_on_c, 3, 64, 0
8, 164259, Note_on_c, 3, 67, 0
8, 164280, Note_on_c, 3, 66, 48
8, 164280, Note_on_c, 3, 62, 48
8, 164999, Note_on_c, 3, 66, 0
8, 164999, Note_on_c, 3, 62, 0
8, 165000, Note_on_c, 3, 61, 48
8, 165000, Note_on_c, 3, 64, 48
8, 165239, Note_on_c, 3, 61, 0
8, 165239, Note_on_c, 3, 64, 0
8, 165720, Note_on_c, 3, 66, 48
8, 165720, Note_on_c, 3, 69, 48
8, 166679, Note_on_c, 3, 66, 0
8, 166679, Note_on_c, 3, 69, 0
8, 166680, Note_on_c, 3, 73, 48
8, 166680, Note_on_c, 3, 69, 48
8, 166919, Note_on_c, 3, 73, 0
8, 166919, Note_on_c, 3, 69, 0
8, 166920, Note_on_c, 3, 67, 48
8, 166920, Note_on_c, 3, 71, 48
8, 167139, Note_on_c, 3, 67, 0
8, 167139, Note_on_c, 3, 71, 0
8, 167160, Note_on_c, 3, 69, 48
8, 167160, Note_on_c, 3, 66, 48
8, 167639, Note_on_c, 3, 69, 0
8, 167639, Note_on_c, 3, 66, 0
8, 167640, Note_on_c, 3, 67, 48
8, 167640, Note_on_c, 3, 64, 48
8, 168119, Note_on_c, 3, 67, 0
8, 168119, Note_on_c, 3, 64, 0
8, 168120, Note_on_c, 3, 71, 48
8, 168120, Note_on_c, 3, 67, 48
8, 168359, Note_on_c, 3, 71, 0
8, 168359, Note_on_c, 3, 67, 0
8, 168360, Note_on_c, 3, 69, 48
8, 168360, Note_on_c, 3, 66, 48
8, 168579, Note_on_c, 3, 69, 0
8, 168579, Note_on_c, 3, 66, 0
8, 168598, Control_c, 3, 11, 96
8, 168600, Note_on_c, 3, 64, 64
8, 168600, Note_on_c, 3, 67, 64
8, 168660, Control_c, 3, 11, 99
8, 168720, Control_c, 3, 11, 101
8, 168780, Control_c, 3, 11, 104
8, 168839, Note_on_c, 3, 64, 0
8, 168839, Note_on_c, 3, 67, 0
8, 168840, Control_c, 3, 11, 106
8, 168840, Note_on_c, 3, 66, 64
8, 168840, Note_on_c, 3, 62, 64
8, 168900, Control_c, 3, 11, 109
8, 168960, Control_c, 3, 11, 112
8, 169020, Control_c, 3, 11, 114
8, 169079, Note_on_c, 3, 66, 0
8, 169079, Note_on_c, 3, 62, 0
8, 169080, Note_on_c, 3, 66, 64
8, 169080, Control_c, 3, 11, 117
8, 169080, Note_on_c, 3, 69, 64
8, 169140, Control_c, 3, 11, 119
8, 169200, Control_c, 3, 11, 122
8, 169260, Control_c, 3, 11, 124
8, 169299, Note_on_c, 3, 66, 0
8, 169299, Note_on_c, 3, 69, 0
8, 169320, Note_on_c, 3, 74, 64
8, 169320, Control_c, 3, 11, 127
8, 169320, Note_on_c, 3, 66, 64
8, 169380, Control_c, 3, 11, 124
8, 169440, Control_c, 3, 11, 122
8, 169500, Control_c, 3, 11, 119
8, 169539, Note_on_c, 3, 66, 0
8, 169559, Note_on_c, 3, 74, 0
8, 169560, Note_on_c, 3, 69, 64
8, 169560, Note_on_c, 3, 66, 64
8, 169560, Control_c, 3, 11, 117
8, 169620, Control_c, 3, 11, 114
8, 169680, Control_c, 3, 11, 112
8, 169740, Control_c, 3, 11, 109
8, 169799, Note_on_c, 3, 69, 0
8, 169799, Note_on_c, 3, 66, 0
8, 169800, Note_on_c, 3, 62, 64
8, 169800, Control_c, 3, 11, 106
8, 169800, Note_on_c, 3, 66, 64
8, 169860, Control_c, 3, 11, 104
8, 169920, Control_c, 3, 11, 101
8, 169980, Control_c, 3, 11, 99
8, 170019, Note_on_c, 3, 62, 0
8, 170019, Note_on_c, 3, 66, 0
8, 170040, Note_on_c, 3, 64, 64
8, 170040, Control_c, 3, 11, 96
8, 170040, Note_on_c, 3, 61, 64
8, 170760, Control_c, 3, 11, 96
8, 170820, Control_c, 3, 11, 101
8, 170880, Control_c, 3, 11, 106
8, 170940, Control_c, 3, 11, 112
8, 170999, Note_on_c, 3, 64, 0
8, 170999, Note_on_c, 3, 61, 0
8, 171000, Control_c, 3, 11, 117
8, 171000, Note_on_c, 3, 66, 64
8, 171000, Note_on_c, 3, 69, 64
8, 171060, Control_c, 3, 11, 122
8, 171120, Control_c, 3, 11, 127
8, 171180, Control_c, 3, 11, 122
8, 171239, Note_on_c, 3, 66, 0
8, 171239, Note_on_c, 3, 69, 0
8, 171240, Control_c, 3, 11, 117
8, 171240, Note_on_c, 3, 66, 64
8, 171240, Note_on_c, 3, 62, 64
8, 171300, Control_c, 3, 11, 112
8, 171360, Control_c, 3, 11, 106
8, 171420, Control_c, 3, 11, 101
8, 171459, Note_on_c, 3, 66, 0
8, 171459, Note_on_c, 3, 62, 0
8, 171480, Control_c, 3, 11, 96
8, 171480, Note_on_c, 3, 64, 64
8, 171480, Note_on_c, 3, 61, 64
8, 172200, Control_c, 3, 11, 96
8, 172260, Control_c, 3, 11, 101
8, 172320, Control_c, 3, 11, 106
8, 172380, Control_c, 3, 11, 112
8, 172439, Note_on_c, 3, 64, 0
8, 172439, Note_on_c, 3, 61, 0
8, 172440, Note_on_c, 3, 66, 64
8, 172440, Control_c, 3, 11, 117
8, 172440, Note_on_c, 3, 69, 64
8, 172500, Control_c, 3, 11, 122
8, 172560, Control_c, 3, 11, 127
8, 172620, Control_c, 3, 11, 122
8, 172679, Note_on_c, 3, 66, 0
8, 172679, Note_on_c, 3, 69, 0
8, 172680, Control_c, 3, 11, 117
8, 172680, Note_on_c, 3, 66, 64
8, 172680, Note_on_c, 3, 62, 64
8, 172740, Control_c, 3, 11, 112
8, 172800, Control_c, 3, 11, 106
8, 172860, Control_c, 3, 11, 101
8, 172899, Note_on_c, 3, 66, 0
8, 172899, Note_on_c, 3, 62, 0
8, 172920, Control_c, 3, 11, 96
8, 172920, Note_on_c, 3, 61, 64
8, 172920, Note_on_c, 3, 64, 64
8, 173159, Note_on_c, 3, 61, 0
8, 173159, Note_on_c, 3, 64, 0
8, 174566, Control_c, 3, 11, 67
8, 174600, Note_on_c, 3, 69, 84
8, 174600, Note_on_c, 3, 71, 84
8, 174634, Control_c, 3, 11, 68
8, 174703, Control_c, 3, 11, 69
8, 174771, Control_c, 3, 11, 70
8, 174840, Control_c, 3, 11, 71
8, 174909, Control_c, 3, 11, 72
8, 174977, Control_c, 3, 11, 73
8, 175046, Control_c, 3, 11, 74
8, 175059, Note_on_c, 3, 69, 0
8, 175059, Note_on_c, 3, 71, 0
8, 175080, Note_on_c, 3, 71, 84
8, 175080, Note_on_c, 3, 69, 84
8, 175114, Control_c, 3, 11, 75
8, 175183, Control_c, 3, 11, 76
8, 175251, Control_c, 3, 11, 77
8, 175320, Control_c, 3, 11, 78
8, 175389, Control_c, 3, 11, 79
8, 175457, Control_c, 3, 11, 80
8, 175526, Control_c, 3, 11, 81
8, 175539, Note_on_c, 3, 71, 0
8, 175539, Note_on_c, 3, 69, 0
8, 175560, Note_on_c, 3, 71, 84
8, 175560, Note_on_c, 3, 69, 84
8, 175594, Control_c, 3, 11, 82
8, 175663, Control_c, 3, 11, 83
8, 175731, Control_c, 3, 11, 84
8, 175799, Note_on_c, 3, 71, 0
8, 175799, Note_on_c, 3, 69, 0
8, 175800, Control_c, 3, 11, 85
8, 175869, Control_c, 3, 11, 86
8, 175937, Control_c, 3, 11, 87
8, 176006, Control_c, 3, 11, 88
8, 176040, Note_on_c, 3, 73, 84
8, 176040, Note_on_c, 3, 70, 84
8, 176074, Control_c, 3, 11, 89
8, 176143, Control_c, 3, 11, 90
8, 176211, Control_c, 3, 11, 91
8, 176280, Control_c, 3, 11, 92
8, 176349, Control_c, 3, 11, 93
8, 176417, Control_c, 3, 11, 94
8, 176486, Control_c, 3, 11, 95
8, 176499, Note_on_c, 3, 73, 0
8, 176499, Note_on_c, 3, 70, 0
8, 176520, Note_on_c, 3, 70, 84
8, 176520, Note_on_c, 3, 73, 84
8, 176554, Control_c, 3, 11, 96
8, 176623, Control_c, 3, 11, 97
8, 176691, Control_c, 3, 11, 98
8, 176760, Control_c, 3, 11, 99
8, 176829, Control_c, 3, 11, 100
8, 176897, Control_c, 3, 11, 101
8, 176966, Control_c, 3, 11, 102
8, 176979, Note_on_c, 3, 70, 0
8, 176979, Note_on_c, 3, 73, 0
8, 177000, Note_on_c, 3, 70, 84
8, 177000, Note_on_c, 3, 73, 84
8, 177034, Control_c, 3, 11, 103
8, 177103, Control_c, 3, 11, 104
8, 177171, Control_c, 3, 11, 105
8, 177239, Note_on_c, 3, 70, 0
8, 177239, Note_on_c, 3, 73, 0
8, 177240, Control_c, 3, 11, 106
8, 177309, Control_c, 3, 11, 107
8, 177377, Control_c, 3, 11, 108
8, 177446, Control_c, 3, 11, 109
8, 177480, Note_on_c, 3, 76, 84
8, 177480, Note_on_c, 3, 73, 84
8, 177514, Control_c, 3, 11, 110
8, 177583, Control_c, 3, 11, 111
8, 177651, Control_c, 3, 11, 112
8, 177720, Control_c, 3, 11, 113
8, 177789, Control_c, 3, 11, 114
8, 177857, Control_c, 3, 11, 115
8, 177926, Control_c, 3, 11, 116
8, 177939, Note_on_c, 3, 76, 0
8, 177939, Note_on_c, 3, 73, 0
8, 177960, Note_on_c, 3, 73, 84
8, 177960, Note_on_c, 3, 76, 84
8, 177994, Control_c, 3, 11, 117
8, 178063, Control_c, 3, 11, 118
8, 178131, Control_c, 3, 11, 119
8, 178200, Control_c, 3, 11, 120
8, 178269, Control_c, 3, 11, 121
8, 178337, Control_c, 3, 11, 122
8, 178406, Control_c, 3, 11, 123
8, 178419, Note_on_c, 3, 73, 0
8, 178419, Note_on_c, 3, 76, 0
8, 178440, Note_on_c, 3, 76, 84
8, 178440, Note_on_c, 3, 73, 84
8, 178474, Control_c, 3, 11, 124
8, 178543, Control_c, 3, 11, 125
8, 178611, Control_c, 3, 11, 127
8, 178659, Note_on_c, 3, 76, 0
8, 178659, Note_on_c, 3, 73, 0
8, 178680, Note_on_c, 3, 78, 84
8, 178680, Note_on_c, 3, 74, 84
8, 179279, Note_on_c, 3, 78, 0
8, 179279, Note_on_c, 3, 74, 0
8, 179280, Note_on_c, 3, 76, 84
8, 179280, Note_on_c, 3, 73, 84
8, 179399, Note_on_c, 3, 76, 0
8, 179399, Note_on_c, 3, 73, 0
8, 179400, Note_on_c, 3, 74, 84
8, 179400, Note_on_c, 3, 78, 84
8, 179639, Note_on_c, 3, 74, 0
8, 179639, Note_on_c, 3, 78, 0
8, 180120, Note_on_c, 3, 78, 84
8, 180120, Note_on_c, 3, 74, 84
8, 180719, Note_on_c, 3, 78, 0
8, 180719, Note_on_c, 3, 74, 0
8, 180720, Note_on_c, 3, 76, 84
8, 180720, Note_on_c, 3, 73, 84
8, 180839, Note_on_c, 3, 76, 0
8, 180839, Note_on_c, 3, 73, 0
8, 180840, Note_on_c, 3, 74, 84
8, 180840, Note_on_c, 3, 78, 84
8, 181079, Note_on_c, 3, 74, 0
8, 181079, Note_on_c, 3, 78, 0
8, 181560, Note_on_c, 3, 78, 84
8, 181560, Note_on_c, 3, 74, 84
8, 182039, Note_on_c, 3, 78, 0
8, 182039, Note_on_c, 3, 74, 0
8, 182040, Note_on_c, 3, 76, 84
8, 182040, Note_on_c, 3, 73, 84
8, 182279, Note_on_c, 3, 76, 0
8, 182279, Note_on_c, 3, 73, 0
8, 182280, Note_on_c, 3, 74, 84
8, 182280, Note_on_c, 3, 78, 84
8, 182519, Note_on_c, 3, 74, 0
8, 182519, Note_on_c, 3, 78, 0
8, 182520, Note_on_c, 3, 79, 84
8, 182520, Note_on_c, 3, 76, 84
8, 182739, Note_on_c, 3, 79, 0
8, 182739, Note_on_c, 3, 76, 0
8, 182760, Note_on_c, 3, 74, 84
8, 182760, Note_on_c, 3, 78, 84
8, 182939, Note_on_c, 3, 74, 0
8, 182939, Note_on_c, 3, 78, 0
8, 183000, Note_on_c, 3, 76, 84
8, 183000, Note_on_c, 3, 73, 84
8, 183239, Note_on_c, 3, 76, 0
8, 183239, Note_on_c, 3, 73, 0
8, 184440, Note_on_c, 3, 73, 84
8, 184440, Note_on_c, 3, 76, 84
8, 185039, Note_on_c, 3, 73, 0
8, 185039, Note_on_c, 3, 76, 0
8, 185040, Note_on_c, 3, 72, 84
8, 185040, Note_on_c, 3, 75, 84
8, 185159, Note_on_c, 3, 72, 0
8, 185159, Note_on_c, 3, 75, 0
8, 185160, Note_on_c, 3, 76, 84
8, 185160, Note_on_c, 3, 73, 84
8, 185399, Note_on_c, 3, 76, 0
8, 185399, Note_on_c, 3, 73, 0
8, 185880, Note_on_c, 3, 76, 84
8, 185880, Note_on_c, 3, 73, 84
8, 186479, Note_on_c, 3, 76, 0
8, 186479, Note_on_c, 3, 73, 0
8, 186480, Note_on_c, 3, 75, 84
8, 186480, Note_on_c, 3, 72, 84
8, 186599, Note_on_c, 3, 75, 0
8, 186599, Note_on_c, 3, 72, 0
8, 186600, Note_on_c, 3, 73, 84
8, 186600, Note_on_c, 3, 76, 84
8, 186839, Note_on_c, 3, 73, 0
8, 186839, Note_on_c, 3, 76, 0
8, 187320, Note_on_c, 3, 76, 84
8, 187320, Note_on_c, 3, 73, 84
8, 187799, Note_on_c, 3, 76, 0
8, 187799, Note_on_c, 3, 73, 0
8, 187800, Note_on_c, 3, 78, 84
8, 187800, Note_on_c, 3, 74, 84
8, 188039, Note_on_c, 3, 78, 0
8, 188039, Note_on_c, 3, 74, 0
8, 188040, Note_on_c, 3, 81, 84
8, 188040, Note_on_c, 3, 78, 84
8, 188279, Note_on_c, 3, 81, 0
8, 188279, Note_on_c, 3, 78, 0
8, 188280, Note_on_c, 3, 79, 84
8, 188280, Note_on_c, 3, 76, 84
8, 188499, Note_on_c, 3, 79, 0
8, 188499, Note_on_c, 3, 76, 0
8, 188520, Note_on_c, 3, 76, 84
8, 188520, Note_on_c, 3, 73, 84
8, 188699, Note_on_c, 3, 76, 0
8, 188699, Note_on_c, 3, 73, 0
8, 188760, Note_on_c, 3, 74, 84
8, 188999, Note_on_c, 3, 74, 0
8, 200040, Note_on_c, 3, 77, 76
8, 200040, Note_on_c, 3, 69, 76
8, 200144, Note_on_c, 3, 77, 0
8, 200144, Note_on_c, 3, 69, 0
8, 200160, Note_on_c, 3, 77, 76
8, 200160, Note_on_c, 3, 69, 76
8, 200279, Note_on_c, 3, 77, 0
8, 200279, Note_on_c, 3, 69, 0
8, 200400, Note_on_c, 3, 69, 76
8, 200400, Note_on_c, 3, 77, 76
8, 200504, Note_on_c, 3, 69, 0
8, 200504, Note_on_c, 3, 77, 0
8, 200520, Note_on_c, 3, 69, 76
8, 200520, Note_on_c, 3, 77, 76
8, 200639, Note_on_c, 3, 69, 0
8, 200639, Note_on_c, 3, 77, 0
8, 200760, Note_on_c, 3, 77, 76
8, 200760, Note_on_c, 3, 69, 76
8, 200864, Note_on_c, 3, 77, 0
8, 200864, Note_on_c, 3, 69, 0
8, 200880, Note_on_c, 3, 69, 52
8, 200880, Note_on_c, 3, 77, 52
8, 200999, Note_on_c, 3, 69, 0
8, 200999, Note_on_c, 3, 77, 0
8, 205920, Note_on_c, 3, 74, 76
8, 205920, Note_on_c, 3, 71, 76
8, 206264, Note_on_c, 3, 74, 0
8, 206264, Note_on_c, 3, 71, 0
8, 206280, Note_on_c, 3, 73, 76
8, 206280, Note_on_c, 3, 69, 76
8, 206399, Note_on_c, 3, 73, 0
8, 206399, Note_on_c, 3, 69, 0
8, 206640, Note_on_c, 3, 74, 76
8, 206640, Note_on_c, 3, 71, 76
8, 206984, Note_on_c, 3, 74, 0
8, 206984, Note_on_c, 3, 71, 0
8, 207000, Note_on_c, 3, 69, 76
8, 207000, Note_on_c, 3, 73, 76
8, 207119, Note_on_c, 3, 69, 0
8, 207119, Note_on_c, 3, 73, 0
8, 207360, Note_on_c, 3, 74, 76
8, 207360, Note_on_c, 3, 71, 76
8, 207704, Note_on_c, 3, 74, 0
8, 207704, Note_on_c, 3, 71, 0
8, 207720, Note_on_c, 3, 73, 76
8, 207720, Note_on_c, 3, 69, 76
8, 207809, Note_on_c, 3, 73, 0
8, 207809, Note_on_c, 3, 69, 0
8, 207840, Note_on_c, 3, 76, 76
8, 207929, Note_on_c, 3, 76, 0
8, 207960, Note_on_c, 3, 73, 76
8, 208049, Note_on_c, 3, 73, 0
8, 208080, Note_on_c, 3, 69, 76
8, 208169, Note_on_c, 3, 69, 0
8, 208200, Note_on_c, 3, 64, 76
8, 208289, Note_on_c, 3, 64, 0
8, 208320, Note_on_c, 3, 61, 76
8, 208409, Note_on_c, 3, 61, 0
8, 208440, Note_on_c, 3, 57, 76
8, 208529, Note_on_c, 3, 57, 0
8, 208680, Note_on_c, 3, 77, 52
8, 208680, Note_on_c, 3, 69, 52
8, 208784, Note_on_c, 3, 77, 0
8, 208784, Note_on_c, 3, 69, 0
8, 208800, Note_on_c, 3, 77, 52
8, 208800, Note_on_c, 3, 69, 52
8, 208919, Note_on_c, 3, 77, 0
8, 208919, Note_on_c, 3, 69, 0
8, 209040, Note_on_c, 3, 69, 52
8, 209040, Note_on_c, 3, 77, 52
8, 209144, Note_on_c, 3, 69, 0
8, 209144, Note_on_c, 3, 77, 0
8, 209160, Note_on_c, 3, 77, 52
8, 209160, Note_on_c, 3, 69, 52
8, 209279, Note_on_c, 3, 77, 0
8, 209279, Note_on_c, 3, 69, 0
8, 209400, Note_on_c, 3, 69, 52
8, 209400, Note_on_c, 3, 77, 52
8, 209504, Note_on_c, 3, 69, 0
8, 209504, Note_on_c, 3, 77, 0
8, 209520, Note_on_c, 3, 77, 52
8, 209520, Note_on_c, 3, 69, 52
8, 209639, Note_on_c, 3, 77, 0
8, 209639, Note_on_c, 3, 69, 0
8, 214560, Note_on_c, 3, 71, 52
8, 214560, Note_on_c, 3, 74, 52
8, 214904, Note_on_c, 3, 71, 0
8, 214904, Note_on_c, 3, 74, 0
8, 214920, Note_on_c, 3, 73, 52
8, 214920, Note_on_c, 3, 69, 52
8, 215039, Note_on_c, 3, 73, 0
8, 215039, Note_on_c, 3, 69, 0
8, 215280, Note_on_c, 3, 71, 52
8, 215280, Note_on_c, 3, 74, 52
8, 215624, Note_on_c, 3, 71, 0
8, 215624, Note_on_c, 3, 74, 0
8, 215640, Note_on_c, 3, 69, 52
8, 215640, Note_on_c, 3, 73, 52
8, 215759, Note_on_c, 3, 69, 0
8, 215759, Note_on_c, 3, 73, 0
8, 216000, Note_on_c, 3, 71, 52
8, 216000, Note_on_c, 3, 74, 52
8, 216344, Note_on_c, 3, 71, 0
8, 216344, Note_on_c, 3, 74, 0
8, 216360, Note_on_c, 3, 73, 52
8, 216360, Note_on_c, 3, 69, 52
8, 216449, Note_on_c, 3, 73, 0
8, 216449, Note_on_c, 3, 69, 0
8, 216480, Note_on_c, 3, 76, 52
8, 216569, Note_on_c, 3, 76, 0
8, 216600, Note_on_c, 3, 73, 52
8, 216689, Note_on_c, 3, 73, 0
8, 216720, Note_on_c, 3, 69, 52
8, 216809, Note_on_c, 3, 69, 0
8, 216840, Note_on_c, 3, 64, 52
8, 216929, Note_on_c, 3, 64, 0
8, 216960, Note_on_c, 3, 61, 52
8, 217049, Note_on_c, 3, 61, 0
8, 217080, Note_on_c, 3, 57, 52
8, 217169, Note_on_c, 3, 57, 0
8, 218760, Note_on_c, 3, 73, 52
8, 218760, Note_on_c, 3, 76, 52
8, 218849, Note_on_c, 3, 73, 0
8, 218849, Note_on_c, 3, 76, 0
8, 218880, Note_on_c, 3, 78, 52
8, 218880, Note_on_c, 3, 74, 52
8, 218969, Note_on_c, 3, 78, 0
8, 218969, Note_on_c, 3, 74, 0
8, 219000, Note_on_c, 3, 74, 52
8, 219000, Note_on_c, 3, 78, 52
8, 219089, Note_on_c, 3, 74, 0
8, 219089, Note_on_c, 3, 78, 0
8, 219120, Note_on_c, 3, 76, 52
8, 219120, Note_on_c, 3, 73, 52
8, 219209, Note_on_c, 3, 76, 0
8, 219209, Note_on_c, 3, 73, 0
8, 219240, Note_on_c, 3, 71, 52
8, 219240, Note_on_c, 3, 80, 52
8, 219479, Note_on_c, 3, 71, 0
8, 219479, Note_on_c, 3, 80, 0
8, 219480, Note_on_c, 3, 69, 52
8, 219480, Note_on_c, 3, 81, 52
8, 219584, Note_on_c, 3, 69, 0
8, 219584, Note_on_c, 3, 81, 0
8, 219600, Note_on_c, 3, 78, 52
8, 219600, Note_on_c, 3, 74, 52
8, 219689, Note_on_c, 3, 78, 0
8, 219689, Note_on_c, 3, 74, 0
8, 219720, Note_on_c, 3, 78, 52
8, 219720, Note_on_c, 3, 74, 52
8, 219809, Note_on_c, 3, 78, 0
8, 219809, Note_on_c, 3, 74, 0
8, 219840, Note_on_c, 3, 76, 52
8, 219840, Note_on_c, 3, 73, 52
8, 219929, Note_on_c, 3, 76, 0
8, 219929, Note_on_c, 3, 73, 0
8, 219960, Note_on_c, 3, 80, 52
8, 219960, Note_on_c, 3, 71, 52
8, 220199, Note_on_c, 3, 80, 0
8, 220199, Note_on_c, 3, 71, 0
8, 220200, Note_on_c, 3, 69, 52
8, 220200, Note_on_c, 3, 81, 52
8, 220304, Note_on_c, 3, 69, 0
8, 220304, Note_on_c, 3, 81, 0
8, 220320, Note_on_c, 3, 71, 44
8, 220320, Note_on_c, 3, 80, 44
8, 220559, Note_on_c, 3, 71, 0
8, 220559, Note_on_c, 3, 80, 0
8, 220560, Note_on_c, 3, 69, 44
8, 220560, Note_on_c, 3, 81, 44
8, 220664, Note_on_c, 3, 69, 0
8, 220664, Note_on_c, 3, 81, 0
8, 220680, Note_on_c, 3, 71, 44
8, 220680, Note_on_c, 3, 80, 44
8, 220919, Note_on_c, 3, 71, 0
8, 220919, Note_on_c, 3, 80, 0
8, 220920, Note_on_c, 3, 69, 44
8, 220920, Note_on_c, 3, 81, 44
8, 221024, Note_on_c, 3, 69, 0
8, 221024, Note_on_c, 3, 81, 0
8, 221040, Note_on_c, 3, 80, 44
8, 221040, Note_on_c, 3, 71, 44
8, 221279, Note_on_c, 3, 80, 0
8, 221279, Note_on_c, 3, 71, 0
8, 221280, Note_on_c, 3, 81, 44
8, 221280, Note_on_c, 3, 69, 44
8, 221384, Note_on_c, 3, 81, 0
8, 221384, Note_on_c, 3, 69, 0
8, 221400, Note_on_c, 3, 71, 44
8, 221400, Note_on_c, 3, 80, 44
8, 221639, Note_on_c, 3, 71, 0
8, 221639, Note_on_c, 3, 80, 0
8, 221640, Note_on_c, 3, 81, 44
8, 221640, Note_on_c, 3, 69, 44
8, 221759, Note_on_c, 3, 81, 0
8, 221759, Note_on_c, 3, 69, 0
8, 224160, Note_on_c, 3, 77, 44
8, 224160, Note_on_c, 3, 74, 44
8, 224264, Note_on_c, 3, 77, 0
8, 224264, Note_on_c, 3, 74, 0
8, 224280, Note_on_c, 3, 77, 44
8, 224280, Note_on_c, 3, 74, 44
8, 224399, Note_on_c, 3, 77, 0
8, 224399, Note_on_c, 3, 74, 0
8, 240360, Note_on_c, 3, 77, 76
8, 240360, Note_on_c, 3, 69, 76
8, 240464, Note_on_c, 3, 77, 0
8, 240464, Note_on_c, 3, 69, 0
8, 240480, Note_on_c, 3, 69, 76
8, 240480, Note_on_c, 3, 77, 76
8, 240599, Note_on_c, 3, 69, 0
8, 240599, Note_on_c, 3, 77, 0
8, 240720, Note_on_c, 3, 77, 76
8, 240720, Note_on_c, 3, 69, 76
8, 240824, Note_on_c, 3, 77, 0
8, 240824, Note_on_c, 3, 69, 0
8, 240840, Note_on_c, 3, 69, 76
8, 240840, Note_on_c, 3, 77, 76
8, 240959, Note_on_c, 3, 69, 0
8, 240959, Note_on_c, 3, 77, 0
8, 241080, Note_on_c, 3, 77, 76
8, 241080, Note_on_c, 3, 69, 76
8, 241184, Note_on_c, 3, 77, 0
8, 241184, Note_on_c, 3, 69, 0
8, 241200, Note_on_c, 3, 65, 84
8, 241200, Note_on_c, 3, 77, 84
8, 242399, Note_on_c, 3, 65, 0
8, 242399, Note_on_c, 3, 77, 0
8, 242400, Note_on_c, 3, 79, 84
8, 242400, Note_on_c, 3, 67, 84
8, 242504, Note_on_c, 3, 79, 0
8, 242504, Note_on_c, 3, 67, 0
8, 242520, Note_on_c, 3, 67, 84
8, 242520, Note_on_c, 3, 79, 84
8, 242609, Note_on_c, 3, 67, 0
8, 242609, Note_on_c, 3, 79, 0
8, 242640, Note_on_c, 3, 67, 84
8, 242640, Note_on_c, 3, 79, 84
8, 243839, Note_on_c, 3, 67, 0
8, 243839, Note_on_c, 3, 79, 0
8, 243840, Note_on_c, 3, 69, 84
8, 243840, Note_on_c, 3, 81, 84
8, 243944, Note_on_c, 3, 69, 0
8, 243944, Note_on_c, 3, 81, 0
8, 243960, Note_on_c, 3, 81, 84
8, 243960, Note_on_c, 3, 69, 84
8, 244049, Note_on_c, 3, 81, 0
8, 244049, Note_on_c, 3, 69, 0
8, 250920, Note_on_c, 3, 67, 52
8, 250920, Note_on_c, 3, 64, 52
8, 251024, Note_on_c, 3, 67, 0
8, 251024, Note_on_c, 3, 64, 0
8, 251040, Note_on_c, 3, 67, 52
8, 251040, Note_on_c, 3, 64, 52
8, 251144, Note_on_c, 3, 67, 0
8, 251144, Note_on_c, 3, 64, 0
8, 251160, Note_on_c, 3, 64, 52
8, 251160, Note_on_c, 3, 67, 52
8, 251279, Note_on_c, 3, 64, 0
8, 251279, Note_on_c, 3, 67, 0
8, 251640, Note_on_c, 3, 64, 52
8, 251640, Note_on_c, 3, 67, 52
8, 251744, Note_on_c, 3, 64, 0
8, 251744, Note_on_c, 3, 67, 0
8, 251760, Note_on_c, 3, 67, 52
8, 251760, Note_on_c, 3, 64, 52
8, 251864, Note_on_c, 3, 67, 0
8, 251864, Note_on_c, 3, 64, 0
8, 251880, Note_on_c, 3, 64, 52
8, 251880, Note_on_c, 3, 67, 52
8, 251999, Note_on_c, 3, 64, 0
8, 251999, Note_on_c, 3, 67, 0
8, 252360, Note_on_c, 3, 64, 52
8, 252360, Note_on_c, 3, 67, 52
8, 252464, Note_on_c, 3, 64, 0
8, 252464, Note_on_c, 3, 67, 0
8, 252480, Note_on_c, 3, 64, 52
8, 252480, Note_on_c, 3, 67, 52
8, 252584, Note_on_c, 3, 64, 0
8, 252584, Note_on_c, 3, 67, 0
8, 252600, Note_on_c, 3, 67, 52
8, 252600, Note_on_c, 3, 64, 52
8, 252719, Note_on_c, 3, 67, 0
8, 252719, Note_on_c, 3, 64, 0
8, 253080, Note_on_c, 3, 67, 52
8, 253080, Note_on_c, 3, 64, 52
8, 253184, Note_on_c, 3, 67, 0
8, 253184, Note_on_c, 3, 64, 0
8, 253200, Note_on_c, 3, 67, 52
8, 253200, Note_on_c, 3, 64, 52
8, 253304, Note_on_c, 3, 67, 0
8, 253304, Note_on_c, 3, 64, 0
8, 253320, Note_on_c, 3, 67, 52
8, 253320, Note_on_c, 3, 64, 52
8, 253424, Note_on_c, 3, 67, 0
8, 253424, Note_on_c, 3, 64, 0
8, 253800, Note_on_c, 3, 69, 84
8, 253800, Note_on_c, 3, 77, 84
8, 253904, Note_on_c, 3, 69, 0
8, 253904, Note_on_c, 3, 77, 0
8, 253920, Note_on_c, 3, 69, 84
8, 253920, Note_on_c, 3, 77, 84
8, 254024, Note_on_c, 3, 69, 0
8, 254024, Note_on_c, 3, 77, 0
8, 254040, Note_on_c, 3, 77, 84
8, 254040, Note_on_c, 3, 69, 84
8, 254159, Note_on_c, 3, 77, 0
8, 254159, Note_on_c, 3, 69, 0
8, 254520, Note_on_c, 3, 69, 84
8, 254520, Note_on_c, 3, 77, 84
8, 254624, Note_on_c, 3, 69, 0
8, 254624, Note_on_c, 3, 77, 0
8, 254640, Note_on_c, 3, 69, 84
8, 254640, Note_on_c, 3, 77, 84
8, 254744, Note_on_c, 3, 69, 0
8, 254744, Note_on_c, 3, 77, 0
8, 254760, Note_on_c, 3, 69, 84
8, 254760, Note_on_c, 3, 77, 84
8, 254879, Note_on_c, 3, 69, 0
8, 254879, Note_on_c, 3, 77, 0
8, 255240, Note_on_c, 3, 77, 84
8, 255240, Note_on_c, 3, 69, 84
8, 255344, Note_on_c, 3, 77, 0
8, 255344, Note_on_c, 3, 69, 0
8, 255360, Note_on_c, 3, 77, 84
8, 255360, Note_on_c, 3, 69, 84
8, 255464, Note_on_c, 3, 77, 0
8, 255464, Note_on_c, 3, 69, 0
8, 255480, Note_on_c, 3, 69, 84
8, 255480, Note_on_c, 3, 77, 84
8, 255599, Note_on_c, 3, 69, 0
8, 255599, Note_on_c, 3, 77, 0
8, 255960, Note_on_c, 3, 69, 84
8, 255960, Note_on_c, 3, 77, 84
8, 256064, Note_on_c, 3, 69, 0
8, 256064, Note_on_c, 3, 77, 0
8, 256080, Note_on_c, 3, 69, 84
8, 256080, Note_on_c, 3, 77, 84
8, 256184, Note_on_c, 3, 69, 0
8, 256184, Note_on_c, 3, 77, 0
8, 256200, Note_on_c, 3, 77, 84
8, 256200, Note_on_c, 3, 69, 84
8, 256319, Note_on_c, 3, 77, 0
8, 256319, Note_on_c, 3, 69, 0
8, 256680, Note_on_c, 3, 77, 84
8, 256680, Note_on_c, 3, 69, 84
8, 256784, Note_on_c, 3, 77, 0
8, 256784, Note_on_c, 3, 69, 0
8, 256800, Note_on_c, 3, 69, 84
8, 256800, Note_on_c, 3, 77, 84
8, 256904, Note_on_c, 3, 69, 0
8, 256904, Note_on_c, 3, 77, 0
8, 256920, Note_on_c, 3, 77, 84
8, 256920, Note_on_c, 3, 69, 84
8, 257024, Note_on_c, 3, 77, 0
8, 257024, Note_on_c, 3, 69, 0
8, 257040, Note_on_c, 3, 77, 84
8, 257040, Note_on_c, 3, 69, 84
8, 257144, Note_on_c, 3, 77, 0
8, 257144, Note_on_c, 3, 69, 0
8, 257160, Note_on_c, 3, 77, 84
8, 257160, Note_on_c, 3, 69, 84
8, 257264, Note_on_c, 3, 77, 0
8, 257264, Note_on_c, 3, 69, 0
8, 257280, Note_on_c, 3, 69, 84
8, 257280, Note_on_c, 3, 77, 84
8, 257384, Note_on_c, 3, 69, 0
8, 257384, Note_on_c, 3, 77, 0
8, 257400, Note_on_c, 3, 69, 84
8, 257400, Note_on_c, 3, 77, 84
8, 257519, Note_on_c, 3, 69, 0
8, 257519, Note_on_c, 3, 77, 0
8, 259080, Note_on_c, 3, 77, 84
8, 259080, Note_on_c, 3, 65, 84
8, 259184, Note_on_c, 3, 77, 0
8, 259184, Note_on_c, 3, 65, 0
8, 259200, Note_on_c, 3, 81, 84
8, 259200, Note_on_c, 3, 69, 84
8, 259319, Note_on_c, 3, 81, 0
8, 259319, Note_on_c, 3, 69, 0
8, 259560, Note_on_c, 3, 69, 84
8, 259560, Note_on_c, 3, 81, 84
8, 259679, Note_on_c, 3, 69, 0
8, 259679, Note_on_c, 3, 81, 0
8, 259920, Note_on_c, 3, 69, 84
8, 259920, Note_on_c, 3, 81, 84
8, 260039, Note_on_c, 3, 69, 0
8, 260039, Note_on_c, 3, 81, 0
8, 260280, Note_on_c, 3, 69, 84
8, 260280, Note_on_c, 3, 81, 84
8, 260399, Note_on_c, 3, 69, 0
8, 260399, Note_on_c, 3, 81, 0
8, 260640, Note_on_c, 3, 81, 84
8, 260640, Note_on_c, 3, 69, 84
8, 260759, Note_on_c, 3, 81, 0
8, 260759, Note_on_c, 3, 69, 0
8, 261960, Control_c, 3, 11, 96
8, 262080, Control_c, 3, 11, 96
8, 262080, Note_on_c, 3, 66, 64
8, 262080, Note_on_c, 3, 74, 64
8, 262133, Control_c, 3, 11, 99
8, 262187, Control_c, 3, 11, 103
8, 262240, Control_c, 3, 11, 106
8, 262293, Control_c, 3, 11, 110
8, 262347, Control_c, 3, 11, 113
8, 262400, Control_c, 3, 11, 117
8, 262453, Control_c, 3, 11, 120
8, 262507, Control_c, 3, 11, 124
8, 262560, Control_c, 3, 11, 127
8, 262613, Control_c, 3, 11, 124
8, 262667, Control_c, 3, 11, 120
8, 262679, Note_on_c, 3, 66, 0
8, 262679, Note_on_c, 3, 74, 0
8, 262680, Note_on_c, 3, 73, 64
8, 262680, Note_on_c, 3, 64, 64
8, 262720, Control_c, 3, 11, 117
8, 262773, Control_c, 3, 11, 113
8, 262799, Note_on_c, 3, 73, 0
8, 262799, Note_on_c, 3, 64, 0
8, 262800, Note_on_c, 3, 66, 64
8, 262800, Note_on_c, 3, 74, 64
8, 262827, Control_c, 3, 11, 110
8, 262880, Control_c, 3, 11, 106
8, 262933, Control_c, 3, 11, 103
8, 262987, Control_c, 3, 11, 99
8, 263039, Note_on_c, 3, 66, 0
8, 263039, Note_on_c, 3, 74, 0
8, 263040, Control_c, 3, 11, 96
8, 263520, Control_c, 3, 11, 96
8, 263520, Note_on_c, 3, 74, 64
8, 263520, Note_on_c, 3, 66, 64
8, 263573, Control_c, 3, 11, 99
8, 263627, Control_c, 3, 11, 103
8, 263680, Control_c, 3, 11, 106
8, 263733, Control_c, 3, 11, 110
8, 263787, Control_c, 3, 11, 113
8, 263840, Control_c, 3, 11, 117
8, 263893, Control_c, 3, 11, 120
8, 263947, Control_c, 3, 11, 124
8, 264000, Control_c, 3, 11, 127
8, 264053, Control_c, 3, 11, 124
8, 264107, Control_c, 3, 11, 120
8, 264119, Note_on_c, 3, 74, 0
8, 264119, Note_on_c, 3, 66, 0
8, 264120, Note_on_c, 3, 64, 64
8, 264120, Note_on_c, 3, 73, 64
8, 264160, Control_c, 3, 11, 117
8, 264213, Control_c, 3, 11, 113
8, 264239, Note_on_c, 3, 64, 0
8, 264239, Note_on_c, 3, 73, 0
8, 264240, Note_on_c, 3, 66, 64
8, 264240, Note_on_c, 3, 74, 64
8, 264267, Control_c, 3, 11, 110
8, 264320, Control_c, 3, 11, 106
8, 264373, Control_c, 3, 11, 103
8, 264427, Control_c, 3, 11, 99
8, 264479, Note_on_c, 3, 66, 0
8, 264479, Note_on_c, 3, 74, 0
8, 264480, Control_c, 3, 11, 96
8, 264720, Control_c, 3, 11, 127
8, 264960, Note_on_c, 3, 66, 48
8, 264960, Note_on_c, 3, 74, 48
8, 265439, Note_on_c, 3, 66, 0
8, 265439, Note_on_c, 3, 74, 0
8, 265440, Note_on_c, 3, 76, 48
8, 265440, Note_on_c, 3, 67, 48
8, 265679, Note_on_c, 3, 76, 0
8, 265679, Note_on_c, 3, 67, 0
8, 265680, Note_on_c, 3, 74, 48
8, 265680, Note_on_c, 3, 78, 48
8, 265919, Note_on_c, 3, 74, 0
8, 265919, Note_on_c, 3, 78, 0
8, 265920, Note_on_c, 3, 76, 48
8, 265920, Note_on_c, 3, 79, 48
8, 266139, Note_on_c, 3, 76, 0
8, 266139, Note_on_c, 3, 79, 0
8, 266160, Note_on_c, 3, 78, 48
8, 266160, Note_on_c, 3, 74, 48
8, 266339, Note_on_c, 3, 78, 0
8, 266339, Note_on_c, 3, 74, 0
8, 266400, Note_on_c, 3, 76, 48
8, 266400, Note_on_c, 3, 73, 48
8, 266639, Note_on_c, 3, 76, 0
8, 266639, Note_on_c, 3, 73, 0
8, 267600, Control_c, 3, 11, 96
8, 267840, Note_on_c, 3, 73, 64
8, 267840, Note_on_c, 3, 76, 64
8, 267893, Control_c, 3, 11, 99
8, 267947, Control_c, 3, 11, 103
8, 268000, Control_c, 3, 11, 106
8, 268053, Control_c, 3, 11, 110
8, 268107, Control_c, 3, 11, 113
8, 268160, Control_c, 3, 11, 117
8, 268213, Control_c, 3, 11, 120
8, 268267, Control_c, 3, 11, 124
8, 268320, Control_c, 3, 11, 127
8, 268373, Control_c, 3, 11, 124
8, 268427, Control_c, 3, 11, 120
8, 268439, Note_on_c, 3, 73, 0
8, 268439, Note_on_c, 3, 76, 0
8, 268440, Note_on_c, 3, 75, 64
8, 268440, Note_on_c, 3, 72, 64
8, 268480, Control_c, 3, 11, 117
8, 268533, Control_c, 3, 11, 113
8, 268559, Note_on_c, 3, 75, 0
8, 268559, Note_on_c, 3, 72, 0
8, 268560, Note_on_c, 3, 73, 64
8, 268560, Note_on_c, 3, 76, 64
8, 268587, Control_c, 3, 11, 110
8, 268640, Control_c, 3, 11, 106
8, 268693, Control_c, 3, 11, 103
8, 268747, Control_c, 3, 11, 99
8, 268799, Note_on_c, 3, 73, 0
8, 268799, Note_on_c, 3, 76, 0
8, 268800, Control_c, 3, 11, 96
8, 269280, Note_on_c, 3, 76, 64
8, 269280, Note_on_c, 3, 73, 64
8, 269333, Control_c, 3, 11, 99
8, 269387, Control_c, 3, 11, 103
8, 269440, Control_c, 3, 11, 106
8, 269493, Control_c, 3, 11, 110
8, 269547, Control_c, 3, 11, 113
8, 269600, Control_c, 3, 11, 117
8, 269653, Control_c, 3, 11, 120
8, 269707, Control_c, 3, 11, 124
8, 269760, Control_c, 3, 11, 127
8, 269813, Control_c, 3, 11, 124
8, 269867, Control_c, 3, 11, 120
8, 269879, Note_on_c, 3, 76, 0
8, 269879, Note_on_c, 3, 73, 0
8, 269880, Note_on_c, 3, 75, 64
8, 269880, Note_on_c, 3, 72, 64
8, 269920, Control_c, 3, 11, 117
8, 269973, Control_c, 3, 11, 113
8, 269999, Note_on_c, 3, 75, 0
8, 269999, Note_on_c, 3, 72, 0
8, 270000, Note_on_c, 3, 73, 64
8, 270000, Note_on_c, 3, 76, 64
8, 270027, Control_c, 3, 11, 110
8, 270080, Control_c, 3, 11, 106
8, 270133, Control_c, 3, 11, 103
8, 270187, Control_c, 3, 11, 99
8, 270239, Note_on_c, 3, 73, 0
8, 270239, Note_on_c, 3, 76, 0
8, 270240, Control_c, 3, 11, 96
8, 270480, Control_c, 3, 11, 127
8, 270720, Note_on_c, 3, 76, 48
8, 270720, Note_on_c, 3, 73, 48
8, 271199, Note_on_c, 3, 76, 0
8, 271199, Note_on_c, 3, 73, 0
8, 271200, Note_on_c, 3, 74, 48
8, 271200, Note_on_c, 3, 78, 48
8, 271439, Note_on_c, 3, 74, 0
8, 271439, Note_on_c, 3, 78, 0
8, 271440, Note_on_c, 3, 81, 48
8, 271440, Note_on_c, 3, 78, 48
8, 271679, Note_on_c, 3, 81, 0
8, 271679, Note_on_c, 3, 78, 0
8, 271680, Note_on_c, 3, 79, 48
8, 271680, Note_on_c, 3, 76, 48
8, 271899, Note_on_c, 3, 79, 0
8, 271899, Note_on_c, 3, 76, 0
8, 271920, Note_on_c, 3, 76, 48
8, 271920, Note_on_c, 3, 67, 48
8, 272099, Note_on_c, 3, 76, 0
8, 272099, Note_on_c, 3, 67, 0
8, 272160, Note_on_c, 3, 66, 48
8, 272160, Note_on_c, 3, 74, 48
8, 272399, Note_on_c, 3, 66, 0
8, 272399, Note_on_c, 3, 74, 0
8, 272880, Control_c, 3, 11, 96
8, 273600, Note_on_c, 3, 66, 68
8, 273600, Note_on_c, 3, 62, 68
8, 273600, Control_c, 3, 11, 96
8, 273653, Control_c, 3, 11, 99
8, 273707, Control_c, 3, 11, 103
8, 273760, Control_c, 3, 11, 106
8, 273813, Control_c, 3, 11, 110
8, 273867, Control_c, 3, 11, 113
8, 273920, Control_c, 3, 11, 117
8, 273973, Control_c, 3, 11, 120
8, 274027, Control_c, 3, 11, 124
8, 274080, Control_c, 3, 11, 127
8, 274133, Control_c, 3, 11, 124
8, 274187, Control_c, 3, 11, 120
8, 274199, Note_on_c, 3, 66, 0
8, 274199, Note_on_c, 3, 62, 0
8, 274200, Note_on_c, 3, 64, 68
8, 274200, Note_on_c, 3, 67, 68
8, 274240, Control_c, 3, 11, 117
8, 274293, Control_c, 3, 11, 113
8, 274319, Note_on_c, 3, 64, 0
8, 274319, Note_on_c, 3, 67, 0
8, 274320, Note_on_c, 3, 62, 68
8, 274320, Note_on_c, 3, 66, 68
8, 274347, Control_c, 3, 11, 110
8, 274400, Control_c, 3, 11, 106
8, 274453, Control_c, 3, 11, 103
8, 274507, Control_c, 3, 11, 99
8, 274559, Note_on_c, 3, 62, 0
8, 274559, Note_on_c, 3, 66, 0
8, 274560, Control_c, 3, 11, 96
8, 275040, Note_on_c, 3, 62, 68
8, 275040, Note_on_c, 3, 66, 68
8, 275093, Control_c, 3, 11, 99
8, 275147, Control_c, 3, 11, 103
8, 275200, Control_c, 3, 11, 106
8, 275253, Control_c, 3, 11, 110
8, 275307, Control_c, 3, 11, 113
8, 275360, Control_c, 3, 11, 117
8, 275413, Control_c, 3, 11, 120
8, 275467, Control_c, 3, 11, 124
8, 275520, Control_c, 3, 11, 127
8, 275573, Control_c, 3, 11, 124
8, 275627, Control_c, 3, 11, 120
8, 275639, Note_on_c, 3, 62, 0
8, 275639, Note_on_c, 3, 66, 0
8, 275640, Note_on_c, 3, 64, 68
8, 275640, Note_on_c, 3, 67, 68
8, 275680, Control_c, 3, 11, 117
8, 275733, Control_c, 3, 11, 113
8, 275759, Note_on_c, 3, 64, 0
8, 275759, Note_on_c, 3, 67, 0
8, 275760, Note_on_c, 3, 66, 68
8, 275760, Note_on_c, 3, 62, 68
8, 275787, Control_c, 3, 11, 110
8, 275840, Control_c, 3, 11, 106
8, 275893, Control_c, 3, 11, 103
8, 275947, Control_c, 3, 11, 99
8, 275999, Note_on_c, 3, 66, 0
8, 275999, Note_on_c, 3, 62, 0
8, 276000, Control_c, 3, 11, 96
8, 276240, Control_c, 3, 11, 127
8, 276480, Note_on_c, 3, 62, 52
8, 276480, Note_on_c, 3, 66, 52
8, 276959, Note_on_c, 3, 62, 0
8, 276959, Note_on_c, 3, 66, 0
8, 276960, Note_on_c, 3, 67, 52
8, 276960, Note_on_c, 3, 64, 52
8, 277199, Note_on_c, 3, 67, 0
8, 277199, Note_on_c, 3, 64, 0
8, 277200, Note_on_c, 3, 62, 52
8, 277200, Note_on_c, 3, 66, 52
8, 277439, Note_on_c, 3, 62, 0
8, 277439, Note_on_c, 3, 66, 0
8, 277440, Note_on_c, 3, 64, 52
8, 277440, Note_on_c, 3, 67, 52
8, 277659, Note_on_c, 3, 64, 0
8, 277659, Note_on_c, 3, 67, 0
8, 277680, Note_on_c, 3, 62, 52
8, 277680, Note_on_c, 3, 66, 52
8, 277859, Note_on_c, 3, 62, 0
8, 277859, Note_on_c, 3, 66, 0
8, 277920, Note_on_c, 3, 64, 52
8, 277920, Note_on_c, 3, 61, 52
8, 278159, Note_on_c, 3, 64, 0
8, 278159, Note_on_c, 3, 61, 0
8, 278640, Control_c, 3, 11, 96
8, 279360, Note_on_c, 3, 67, 68
8, 279413, Control_c, 3, 11, 99
8, 279467, Control_c, 3, 11, 103
8, 279520, Control_c, 3, 11, 106
8, 279573, Control_c, 3, 11, 110
8, 279627, Control_c, 3, 11, 113
8, 279680, Control_c, 3, 11, 117
8, 279733, Control_c, 3, 11, 120
8, 279787, Control_c, 3, 11, 124
8, 279840, Control_c, 3, 11, 127
8, 279893, Control_c, 3, 11, 124
8, 279947, Control_c, 3, 11, 120
8, 279959, Note_on_c, 3, 67, 0
8, 279960, Note_on_c, 3, 69, 68
8, 280000, Control_c, 3, 11, 117
8, 280053, Control_c, 3, 11, 113
8, 280079, Note_on_c, 3, 69, 0
8, 280080, Note_on_c, 3, 67, 68
8, 280107, Control_c, 3, 11, 110
8, 280160, Control_c, 3, 11, 106
8, 280213, Control_c, 3, 11, 103
8, 280267, Control_c, 3, 11, 99
8, 280319, Note_on_c, 3, 67, 0
8, 280320, Control_c, 3, 11, 96
8, 280800, Note_on_c, 3, 67, 68
8, 280853, Control_c, 3, 11, 99
8, 280907, Control_c, 3, 11, 103
8, 280960, Control_c, 3, 11, 106
8, 281013, Control_c, 3, 11, 110
8, 281067, Control_c, 3, 11, 113
8, 281120, Control_c, 3, 11, 117
8, 281173, Control_c, 3, 11, 120
8, 281227, Control_c, 3, 11, 124
8, 281280, Control_c, 3, 11, 127
8, 281333, Control_c, 3, 11, 124
8, 281387, Control_c, 3, 11, 120
8, 281399, Note_on_c, 3, 67, 0
8, 281400, Note_on_c, 3, 69, 68
8, 281440, Control_c, 3, 11, 117
8, 281493, Control_c, 3, 11, 113
8, 281519, Note_on_c, 3, 69, 0
8, 281520, Note_on_c, 3, 67, 68
8, 281547, Control_c, 3, 11, 110
8, 281600, Control_c, 3, 11, 106
8, 281653, Control_c, 3, 11, 103
8, 281707, Control_c, 3, 11, 99
8, 281759, Note_on_c, 3, 67, 0
8, 281760, Control_c, 3, 11, 96
8, 282000, Control_c, 3, 11, 127
8, 282240, Note_on_c, 3, 67, 52
8, 282240, Note_on_c, 3, 64, 52
8, 282719, Note_on_c, 3, 67, 0
8, 282719, Note_on_c, 3, 64, 0
8, 282720, Note_on_c, 3, 62, 52
8, 282720, Note_on_c, 3, 66, 52
8, 282959, Note_on_c, 3, 62, 0
8, 282959, Note_on_c, 3, 66, 0
8, 282960, Note_on_c, 3, 62, 52
8, 282960, Note_on_c, 3, 66, 52
8, 283199, Note_on_c, 3, 62, 0
8, 283199, Note_on_c, 3, 66, 0
8, 283200, Note_on_c, 3, 64, 52
8, 283200, Note_on_c, 3, 61, 52
8, 283419, Note_on_c, 3, 64, 0
8, 283419, Note_on_c, 3, 61, 0
8, 283440, Note_on_c, 3, 73, 52
8, 283440, Note_on_c, 3, 67, 52
8, 283619, Note_on_c, 3, 73, 0
8, 283619, Note_on_c, 3, 67, 0
8, 283680, Note_on_c, 3, 74, 52
8, 283680, Note_on_c, 3, 66, 52
8, 283919, Note_on_c, 3, 74, 0
8, 283919, Note_on_c, 3, 66, 0
8, 285120, Note_on_c, 3, 69, 48
8, 285120, Note_on_c, 3, 66, 48
8, 286319, Note_on_c, 3, 69, 0
8, 286319, Note_on_c, 3, 66, 0
8, 286320, Note_on_c, 3, 71, 48
8, 286320, Note_on_c, 3, 67, 48
8, 286539, Note_on_c, 3, 71, 0
8, 286539, Note_on_c, 3, 67, 0
8, 286560, Note_on_c, 3, 67, 48
8, 286560, Note_on_c, 3, 64, 48
8, 287759, Note_on_c, 3, 67, 0
8, 287759, Note_on_c, 3, 64, 0
8, 287760, Note_on_c, 3, 66, 48
8, 287760, Note_on_c, 3, 69, 48
8, 287979, Note_on_c, 3, 66, 0
8, 287979, Note_on_c, 3, 69, 0
8, 288000, Note_on_c, 3, 66, 48
8, 288000, Note_on_c, 3, 62, 48
8, 288519, Note_on_c, 3, 66, 0
8, 288519, Note_on_c, 3, 62, 0
8, 288540, Note_on_c, 3, 64, 48
8, 288540, Note_on_c, 3, 67, 48
8, 288599, Note_on_c, 3, 64, 0
8, 288599, Note_on_c, 3, 67, 0
8, 288600, Note_on_c, 3, 62, 48
8, 288600, Note_on_c, 3, 66, 48
8, 288659, Note_on_c, 3, 62, 0
8, 288659, Note_on_c, 3, 66, 0
8, 288660, Note_on_c, 3, 61, 48
8, 288660, Note_on_c, 3, 64, 48
8, 288719, Note_on_c, 3, 61, 0
8, 288719, Note_on_c, 3, 64, 0
8, 288720, Note_on_c, 3, 66, 48
8, 288720, Note_on_c, 3, 62, 48
8, 288959, Note_on_c, 3, 66, 0
8, 288959, Note_on_c, 3, 62, 0
8, 288960, Note_on_c, 3, 69, 48
8, 288960, Note_on_c, 3, 66, 48
8, 289199, Note_on_c, 3, 69, 0
8, 289199, Note_on_c, 3, 66, 0
8, 289200, Note_on_c, 3, 64, 48
8, 289200, Note_on_c, 3, 67, 48
8, 289419, Note_on_c, 3, 64, 0
8, 289419, Note_on_c, 3, 67, 0
8, 289440, Note_on_c, 3, 62, 48
8, 289440, Note_on_c, 3, 66, 48
8, 290159, Note_on_c, 3, 62, 0
8, 290159, Note_on_c, 3, 66, 0
8, 290160, Note_on_c, 3, 64, 48
8, 290160, Note_on_c, 3, 61, 48
8, 290399, Note_on_c, 3, 64, 0
8, 290399, Note_on_c, 3, 61, 0
8, 290880, Note_on_c, 3, 66, 48
8, 290880, Note_on_c, 3, 69, 48
8, 291839, Note_on_c, 3, 66, 0
8, 291839, Note_on_c, 3, 69, 0
8, 291840, Note_on_c, 3, 73, 48
8, 291840, Note_on_c, 3, 69, 48
8, 292079, Note_on_c, 3, 73, 0
8, 292079, Note_on_c, 3, 69, 0
8, 292080, Note_on_c, 3, 67, 48
8, 292080, Note_on_c, 3, 71, 48
8, 292299, Note_on_c, 3, 67, 0
8, 292299, Note_on_c, 3, 71, 0
8, 292320, Note_on_c, 3, 69, 48
8, 292320, Note_on_c, 3, 66, 48
8, 292799, Note_on_c, 3, 69, 0
8, 292799, Note_on_c, 3, 66, 0
8, 292800, Note_on_c, 3, 64, 48
8, 292800, Note_on_c, 3, 67, 48
8, 293279, Note_on_c, 3, 64, 0
8, 293279, Note_on_c, 3, 67, 0
8, 293280, Note_on_c, 3, 71, 48
8, 293280, Note_on_c, 3, 67, 48
8, 293519, Note_on_c, 3, 71, 0
8, 293519, Note_on_c, 3, 67, 0
8, 293520, Note_on_c, 3, 66, 48
8, 293520, Note_on_c, 3, 69, 48
8, 293739, Note_on_c, 3, 66, 0
8, 293739, Note_on_c, 3, 69, 0
8, 293758, Control_c, 3, 11, 96
8, 293760, Note_on_c, 3, 64, 64
8, 293760, Note_on_c, 3, 67, 64
8, 293820, Control_c, 3, 11, 99
8, 293880, Control_c, 3, 11, 101
8, 293940, Control_c, 3, 11, 104
8, 293999, Note_on_c, 3, 64, 0
8, 293999, Note_on_c, 3, 67, 0
8, 294000, Control_c, 3, 11, 106
8, 294000, Note_on_c, 3, 62, 64
8, 294000, Note_on_c, 3, 66, 64
8, 294060, Control_c, 3, 11, 109
8, 294120, Control_c, 3, 11, 112
8, 294180, Control_c, 3, 11, 114
8, 294239, Note_on_c, 3, 62, 0
8, 294239, Note_on_c, 3, 66, 0
8, 294240, Control_c, 3, 11, 117
8, 294240, Note_on_c, 3, 69, 64
8, 294240, Note_on_c, 3, 66, 64
8, 294300, Control_c, 3, 11, 119
8, 294360, Control_c, 3, 11, 122
8, 294420, Control_c, 3, 11, 124
8, 294459, Note_on_c, 3, 69, 0
8, 294459, Note_on_c, 3, 66, 0
8, 294480, Note_on_c, 3, 74, 64
8, 294480, Control_c, 3, 11, 127
8, 294480, Note_on_c, 3, 66, 64
8, 294540, Control_c, 3, 11, 124
8, 294600, Control_c, 3, 11, 122
8, 294660, Control_c, 3, 11, 119
8, 294699, Note_on_c, 3, 66, 0
8, 294719, Note_on_c, 3, 74, 0
8, 294720, Note_on_c, 3, 66, 64
8, 294720, Note_on_c, 3, 69, 64
8, 294720, Control_c, 3, 11, 117
8, 294780, Control_c, 3, 11, 114
8, 294840, Control_c, 3, 11, 112
8, 294900, Control_c, 3, 11, 109
8, 294959, Note_on_c, 3, 66, 0
8, 294959, Note_on_c, 3, 69, 0
8, 294960, Control_c, 3, 11, 106
8, 294960, Note_on_c, 3, 62, 64
8, 294960, Note_on_c, 3, 66, 64
8, 295020, Control_c, 3, 11, 104
8, 295080, Control_c, 3, 11, 101
8, 295140, Control_c, 3, 11, 99
8, 295179, Note_on_c, 3, 62, 0
8, 295179, Note_on_c, 3, 66, 0
8, 295200, Control_c, 3, 11, 96
8, 295200, Note_on_c, 3, 61, 64
8, 295200, Note_on_c, 3, 64, 64
8, 295920, Control_c, 3, 11, 96
8, 295980, Control_c, 3, 11, 101
8, 296040, Control_c, 3, 11, 106
8, 296100, Control_c, 3, 11, 112
8, 296159, Note_on_c, 3, 61, 0
8, 296159, Note_on_c, 3, 64, 0
8, 296160, Control_c, 3, 11, 117
8, 296160, Note_on_c, 3, 69, 64
8, 296160, Note_on_c, 3, 66, 64
8, 296220, Control_c, 3, 11, 122
8, 296280, Control_c, 3, 11, 127
8, 296340, Control_c, 3, 11, 122
8, 296399, Note_on_c, 3, 69, 0
8, 296399, Note_on_c, 3, 66, 0
8, 296400, Control_c, 3, 11, 117
8, 296400, Note_on_c, 3, 66, 64
8, 296400, Note_on_c, 3, 62, 64
8, 296460, Control_c, 3, 11, 112
8, 296520, Control_c, 3, 11, 106
8, 296580, Control_c, 3, 11, 101
8, 296619, Note_on_c, 3, 66, 0
8, 296619, Note_on_c, 3, 62, 0
8, 296640, Note_on_c, 3, 61, 64
8, 296640, Control_c, 3, 11, 96
8, 296640, Note_on_c, 3, 64, 64
8, 297360, Control_c, 3, 11, 96
8, 297420, Control_c, 3, 11, 101
8, 297480, Control_c, 3, 11, 106
8, 297540, Control_c, 3, 11, 112
8, 297599, Note_on_c, 3, 61, 0
8, 297599, Note_on_c, 3, 64, 0
8, 297600, Note_on_c, 3, 69, 64
8, 297600, Control_c, 3, 11, 117
8, 297600, Note_on_c, 3, 66, 64
8, 297660, Control_c, 3, 11, 122
8, 297720, Control_c, 3, 11, 127
8, 297780, Control_c, 3, 11, 122
8, 297839, Note_on_c, 3, 69, 0
8, 297839, Note_on_c, 3, 66, 0
8, 297840, Note_on_c, 3, 66, 64
8, 297840, Control_c, 3, 11, 117
8, 297840, Note_on_c, 3, 62, 64
8, 297900, Control_c, 3, 11, 112
8, 297960, Control_c, 3, 11, 106
8, 298020, Control_c, 3, 11, 101
8, 298059, Note_on_c, 3, 66, 0
8, 298059, Note_on_c, 3, 62, 0
8, 298080, Note_on_c, 3, 61, 64
8, 298080, Control_c, 3, 11, 96
8, 298080, Note_on_c, 3, 64, 64
8, 298319, Note_on_c, 3, 61, 0
8, 298319, Note_on_c, 3, 64, 0
8, 299726, Control_c, 3, 11, 67
8, 299760, Note_on_c, 3, 71, 84
8, 299760, Note_on_c, 3, 69, 84
8, 299794, Control_c, 3, 11, 68
8, 299863, Control_c, 3, 11, 69
8, 299931, Control_c, 3, 11, 70
8, 300000, Control_c, 3, 11, 71
8, 300069, Control_c, 3, 11, 72
8, 300137, Control_c, 3, 11, 73
8, 300206, Control_c, 3, 11, 74
8, 300219, Note_on_c, 3, 71, 0
8, 300219, Note_on_c, 3, 69, 0
8, 300240, Note_on_c, 3, 71, 84
8, 300240, Note_on_c, 3, 69, 84
8, 300274, Control_c, 3, 11, 75
8, 300343, Control_c, 3, 11, 76
8, 300411, Control_c, 3, 11, 77
8, 300480, Control_c, 3, 11, 78
8, 300549, Control_c, 3, 11, 79
8, 300617, Control_c, 3, 11, 80
8, 300686, Control_c, 3, 11, 81
8, 300699, Note_on_c, 3, 71, 0
8, 300699, Note_on_c, 3, 69, 0
8, 300720, Note_on_c, 3, 69, 84
8, 300720, Note_on_c, 3, 71, 84
8, 300754, Control_c, 3, 11, 82
8, 300823, Control_c, 3, 11, 83
8, 300891, Control_c, 3, 11, 84
8, 300959, Note_on_c, 3, 69, 0
8, 300959, Note_on_c, 3, 71, 0
8, 300960, Control_c, 3, 11, 85
8, 301029, Control_c, 3, 11, 86
8, 301097, Control_c, 3, 11, 87
8, 301166, Control_c, 3, 11, 88
8, 301200, Note_on_c, 3, 70, 84
8, 301200, Note_on_c, 3, 73, 84
8, 301234, Control_c, 3, 11, 89
8, 301303, Control_c, 3, 11, 90
8, 301371, Control_c, 3, 11, 91
8, 301440, Control_c, 3, 11, 92
8, 301509, Control_c, 3, 11, 93
8, 301577, Control_c, 3, 11, 94
8, 301646, Control_c, 3, 11, 95
8, 301659, Note_on_c, 3, 70, 0
8, 301659, Note_on_c, 3, 73, 0
8, 301680, Note_on_c, 3, 70, 84
8, 301680, Note_on_c, 3, 73, 84
8, 301714, Control_c, 3, 11, 96
8, 301783, Control_c, 3, 11, 97
8, 301851, Control_c, 3, 11, 98
8, 301920, Control_c, 3, 11, 99
8, 301989, Control_c, 3, 11, 100
8, 302057, Control_c, 3, 11, 101
8, 302126, Control_c, 3, 11, 102
8, 302139, Note_on_c, 3, 70, 0
8, 302139, Note_on_c, 3, 73, 0
8, 302160, Note_on_c, 3, 70, 84
8, 302160, Note_on_c, 3, 73, 84
8, 302194, Control_c, 3, 11, 103
8, 302263, Control_c, 3, 11, 104
8, 302331, Control_c, 3, 11, 105
8, 302399, Note_on_c, 3, 70, 0
8, 302399, Note_on_c, 3, 73, 0
8, 302400, Control_c, 3, 11, 106
8, 302469, Control_c, 3, 11, 107
8, 302537, Control_c, 3, 11, 108
8, 302606, Control_c, 3, 11, 109
8, 302640, Note_on_c, 3, 73, 84
8, 302640, Note_on_c, 3, 76, 84
8, 302674, Control_c, 3, 11, 110
8, 302743, Control_c, 3, 11, 111
8, 302811, Control_c, 3, 11, 112
8, 302880, Control_c, 3, 11, 113
8, 302949, Control_c, 3, 11, 114
8, 303017, Control_c, 3, 11, 115
8, 303086, Control_c, 3, 11, 116
8, 303099, Note_on_c, 3, 73, 0
8, 303099, Note_on_c, 3, 76, 0
8, 303120, Note_on_c, 3, 73, 84
8, 303120, Note_on_c, 3, 76, 84
8, 303154, Control_c, 3, 11, 117
8, 303223, Control_c, 3, 11, 118
8, 303291, Control_c, 3, 11, 119
8, 303360, Control_c, 3, 11, 120
8, 303429, Control_c, 3, 11, 121
8, 303497, Control_c, 3, 11, 122
8, 303566, Control_c, 3, 11, 123
8, 303579, Note_on_c, 3, 73, 0
8, 303579, Note_on_c, 3, 76, 0
8, 303600, Note_on_c, 3, 76, 84
8, 303600, Note_on_c, 3, 73, 84
8, 303634, Control_c, 3, 11, 124
8, 303703, Control_c, 3, 11, 125
8, 303771, Control_c, 3, 11, 127
8, 303819, Note_on_c, 3, 76, 0
8, 303819, Note_on_c, 3, 73, 0
8, 303840, Note_on_c, 3, 78, 84
8, 303840, Note_on_c, 3, 74, 84
8, 304439, Note_on_c, 3, 78, 0
8, 304439, Note_on_c, 3, 74, 0
8, 304440, Note_on_c, 3, 76, 84
8, 304440, Note_on_c, 3, 73, 84
8, 304559, Note_on_c, 3, 76, 0
8, 304559, Note_on_c, 3, 73, 0
8, 304560, Note_on_c, 3, 74, 84
8, 304560, Note_on_c, 3, 78, 84
8, 304799, Note_on_c, 3, 74, 0
8, 304799, Note_on_c, 3, 78, 0
8, 305280, Note_on_c, 3, 78, 84
8, 305280, Note_on_c, 3, 74, 84
8, 305879, Note_on_c, 3, 78, 0
8, 305879, Note_on_c, 3, 74, 0
8, 305880, Note_on_c, 3, 76, 84
8, 305880, Note_on_c, 3, 73, 84
8, 305999, Note_on_c, 3, 76, 0
8, 305999, Note_on_c, 3, 73, 0
8, 306000, Note_on_c, 3, 74, 84
8, 306000, Note_on_c, 3, 78, 84
8, 306239, Note_on_c, 3, 74, 0
8, 306239, Note_on_c, 3, 78, 0
8, 306720, Note_on_c, 3, 78, 84
8, 306720, Note_on_c, 3, 74, 84
8, 307199, Note_on_c, 3, 78, 0
8, 307199, Note_on_c, 3, 74, 0
8, 307200, Note_on_c, 3, 76, 84
8, 307200, Note_on_c, 3, 73, 84
8, 307439, Note_on_c, 3, 76, 0
8, 307439, Note_on_c, 3, 73, 0
8, 307440, Note_on_c, 3, 78, 84
8, 307440, Note_on_c, 3, 74, 84
8, 307679, Note_on_c, 3, 78, 0
8, 307679, Note_on_c, 3, 74, 0
8, 307680, Note_on_c, 3, 79, 84
8, 307680, Note_on_c, 3, 76, 84
8, 307899, Note_on_c, 3, 79, 0
8, 307899, Note_on_c, 3, 76, 0
8, 307920, Note_on_c, 3, 78, 84
8, 307920, Note_on_c, 3, 74, 84
8, 308099, Note_on_c, 3, 78, 0
8, 308099, Note_on_c, 3, 74, 0
8, 308160, Note_on_c, 3, 76, 84
8, 308160, Note_on_c, 3, 73, 84
8, 308399, Note_on_c, 3, 76, 0
8, 308399, Note_on_c, 3, 73, 0
8, 309600, Note_on_c, 3, 73, 84
8, 309600, Note_on_c, 3, 76, 84
8, 310199, Note_on_c, 3, 73, 0
8, 310199, Note_on_c, 3, 76, 0
8, 310200, Note_on_c, 3, 75, 84
8, 310200, Note_on_c, 3, 72, 84
8, 310319, Note_on_c, 3, 75, 0
8, 310319, Note_on_c, 3, 72, 0
8, 310320, Note_on_c, 3, 73, 84
8, 310320, Note_on_c, 3, 76, 84
8, 310559, Note_on_c, 3, 73, 0
8, 310559, Note_on_c, 3, 76, 0
8, 311040, Note_on_c, 3, 73, 84
8, 311040, Note_on_c, 3, 76, 84
8, 311639, Note_on_c, 3, 73, 0
8, 311639, Note_on_c, 3, 76, 0
8, 311640, Note_on_c, 3, 75, 84
8, 311640, Note_on_c, 3, 72, 84
8, 311759, Note_on_c, 3, 75, 0
8, 311759, Note_on_c, 3, 72, 0
8, 311760, Note_on_c, 3, 76, 84
8, 311760, Note_on_c, 3, 73, 84
8, 311999, Note_on_c, 3, 76, 0
8, 311999, Note_on_c, 3, 73, 0
8, 312480, Note_on_c, 3, 76, 84
8, 312480, Note_on_c, 3, 73, 84
8, 312959, Note_on_c, 3, 76, 0
8, 312959, Note_on_c, 3, 73, 0
8, 312960, Note_on_c, 3, 78, 84
8, 312960, Note_on_c, 3, 74, 84
8, 313199, Note_on_c, 3, 78, 0
8, 313199, Note_on_c, 3, 74, 0
8, 313200, Note_on_c, 3, 81, 84
8, 313200, Note_on_c, 3, 78, 84
8, 313439, Note_on_c, 3, 81, 0
8, 313439, Note_on_c, 3, 78, 0
8, 313440, Note_on_c, 3, 79, 84
8, 313440, Note_on_c, 3, 76, 84
8, 313659, Note_on_c, 3, 79, 0
8, 313659, Note_on_c, 3, 76, 0
8, 313680, Note_on_c, 3, 76, 84
8, 313680, Note_on_c, 3, 73, 84
8, 313859, Note_on_c, 3, 76, 0
8, 313859, Note_on_c, 3, 73, 0
8, 313920, Note_on_c, 3, 74, 84
8, 314159, Note_on_c, 3, 74, 0
8, 315360, Note_on_c, 3, 66, 48
8, 315360, Note_on_c, 3, 69, 48
8, 316559, Note_on_c, 3, 66, 0
8, 316559, Note_on_c, 3, 69, 0
8, 316560, Note_on_c, 3, 71, 48
8, 316560, Note_on_c, 3, 67, 48
8, 316779, Note_on_c, 3, 71, 0
8, 316779, Note_on_c, 3, 67, 0
8, 316800, Note_on_c, 3, 67, 48
8, 316800, Note_on_c, 3, 64, 48
8, 317999, Note_on_c, 3, 67, 0
8, 317999, Note_on_c, 3, 64, 0
8, 318000, Note_on_c, 3, 66, 48
8, 318000, Note_on_c, 3, 69, 48
8, 318219, Note_on_c, 3, 66, 0
8, 318219, Note_on_c, 3, 69, 0
8, 318240, Note_on_c, 3, 66, 48
8, 318240, Note_on_c, 3, 62, 48
8, 318759, Note_on_c, 3, 66, 0
8, 318759, Note_on_c, 3, 62, 0
8, 318780, Note_on_c, 3, 64, 48
8, 318780, Note_on_c, 3, 67, 48
8, 318839, Note_on_c, 3, 64, 0
8, 318839, Note_on_c, 3, 67, 0
8, 318840, Note_on_c, 3, 62, 48
8, 318840, Note_on_c, 3, 66, 48
8, 318899, Note_on_c, 3, 62, 0
8, 318899, Note_on_c, 3, 66, 0
8, 318900, Note_on_c, 3, 61, 48
8, 318900, Note_on_c, 3, 64, 48
8, 318959, Note_on_c, 3, 61, 0
8, 318959, Note_on_c, 3, 64, 0
8, 318960, Note_on_c, 3, 66, 48
8, 318960, Note_on_c, 3, 62, 48
8, 319199, Note_on_c, 3, 66, 0
8, 319199, Note_on_c, 3, 62, 0
8, 319200, Note_on_c, 3, 69, 48
8, 319200, Note_on_c, 3, 66, 48
8, 319439, Note_on_c, 3, 69, 0
8, 319439, Note_on_c, 3, 66, 0
8, 319440, Note_on_c, 3, 64, 48
8, 319440, Note_on_c, 3, 67, 48
8, 319659, Note_on_c, 3, 64, 0
8, 319659, Note_on_c, 3, 67, 0
8, 319680, Note_on_c, 3, 62, 48
8, 319680, Note_on_c, 3, 66, 48
8, 320399, Note_on_c, 3, 62, 0
8, 320399, Note_on_c, 3, 66, 0
8, 320400, Note_on_c, 3, 61, 48
8, 320400, Note_on_c, 3, 64, 48
8, 320639, Note_on_c, 3, 61, 0
8, 320639, Note_on_c, 3, 64, 0
8, 321120, Note_on_c, 3, 69, 48
8, 321120, Note_on_c, 3, 66, 48
8, 322079, Note_on_c, 3, 69, 0
8, 322079, Note_on_c, 3, 66, 0
8, 322080, Note_on_c, 3, 73, 48
8, 322080, Note_on_c, 3, 69, 48
8, 322319, Note_on_c, 3, 73, 0
8, 322319, Note_on_c, 3, 69, 0
8, 322320, Note_on_c, 3, 71, 48
8, 322320, Note_on_c, 3, 67, 48
8, 322539, Note_on_c, 3, 71, 0
8, 322539, Note_on_c, 3, 67, 0
8, 322560, Note_on_c, 3, 66, 48
8, 322560, Note_on_c, 3, 69, 48
8, 323039, Note_on_c, 3, 66, 0
8, 323039, Note_on_c, 3, 69, 0
8, 323040, Note_on_c, 3, 64, 48
8, 323040, Note_on_c, 3, 67, 48
8, 323519, Note_on_c, 3, 64, 0
8, 323519, Note_on_c, 3, 67, 0
8, 323520, Note_on_c, 3, 67, 48
8, 323520, Note_on_c, 3, 71, 48
8, 323759, Note_on_c, 3, 67, 0
8, 323759, Note_on_c, 3, 71, 0
8, 323760, Note_on_c, 3, 66, 48
8, 323760, Note_on_c, 3, 69, 48
8, 323979, Note_on_c, 3, 66, 0
8, 323979, Note_on_c, 3, 69, 0
8, 323998, Control_c, 3, 11, 96
8, 324000, Note_on_c, 3, 64, 64
8, 324000, Note_on_c, 3, 67, 64
8, 324060, Control_c, 3, 11, 99
8, 324120, Control_c, 3, 11, 101
8, 324180, Control_c, 3, 11, 104
8, 324239, Note_on_c, 3, 64, 0
8, 324239, Note_on_c, 3, 67, 0
8, 324240, Control_c, 3, 11, 106
8, 324240, Note_on_c, 3, 62, 64
8, 324240, Note_on_c, 3, 66, 64
8, 324300, Control_c, 3, 11, 109
8, 324360, Control_c, 3, 11, 112
8, 324420, Control_c, 3, 11, 114
8, 324479, Note_on_c, 3, 62, 0
8, 324479, Note_on_c, 3, 66, 0
8, 324480, Note_on_c, 3, 66, 64
8, 324480, Note_on_c, 3, 69, 64
8, 324480, Control_c, 3, 11, 117
8, 324540, Control_c, 3, 11, 119
8, 324600, Control_c, 3, 11, 122
8, 324660, Control_c, 3, 11, 124
8, 324699, Note_on_c, 3, 66, 0
8, 324699, Note_on_c, 3, 69, 0
8, 324720, Note_on_c, 3, 74, 64
8, 324720, Control_c, 3, 11, 127
8, 324720, Note_on_c, 3, 66, 64
8, 324780, Control_c, 3, 11, 124
8, 324840, Control_c, 3, 11, 122
8, 324900, Control_c, 3, 11, 119
8, 324939, Note_on_c, 3, 66, 0
8, 324959, Note_on_c, 3, 74, 0
8, 324960, Note_on_c, 3, 69, 64
8, 324960, Note_on_c, 3, 66, 64
8, 324960, Control_c, 3, 11, 117
8, 325020, Control_c, 3, 11, 114
8, 325080, Control_c, 3, 11, 112
8, 325140, Control_c, 3, 11, 109
8, 325199, Note_on_c, 3, 69, 0
8, 325199, Note_on_c, 3, 66, 0
8, 325200, Control_c, 3, 11, 106
8, 325200, Note_on_c, 3, 66, 64
8, 325200, Note_on_c, 3, 62, 64
8, 325260, Control_c, 3, 11, 104
8, 325320, Control_c, 3, 11, 101
8, 325380, Control_c, 3, 11, 99
8, 325419, Note_on_c, 3, 66, 0
8, 325419, Note_on_c, 3, 62, 0
8, 325440, Note_on_c, 3, 64, 64
8, 325440, Control_c, 3, 11, 96
8, 325440, Note_on_c, 3, 61, 64
8, 326160, Control_c, 3, 11, 96
8, 326220, Control_c, 3, 11, 101
8, 326280, Control_c, 3, 11, 106
8, 326340, Control_c, 3, 11, 112
8, 326399, Note_on_c, 3, 64, 0
8, 326399, Note_on_c, 3, 61, 0
8, 326400, Control_c, 3, 11, 117
8, 326400, Note_on_c, 3, 66, 64
8, 326400, Note_on_c, 3, 69, 64
8, 326460, Control_c, 3, 11, 122
8, 326520, Control_c, 3, 11, 127
8, 326580, Control_c, 3, 11, 122
8, 326639, Note_on_c, 3, 66, 0
8, 326639, Note_on_c, 3, 69, 0
8, 326640, Note_on_c, 3, 66, 64
8, 326640, Note_on_c, 3, 62, 64
8, 326640, Control_c, 3, 11, 117
8, 326700, Control_c, 3, 11, 112
8, 326760, Control_c, 3, 11, 106
8, 326820, Control_c, 3, 11, 101
8, 326859, Note_on_c, 3, 66, 0
8, 326859, Note_on_c, 3, 62, 0
8, 326880, Note_on_c, 3, 64, 64
8, 326880, Control_c, 3, 11, 96
8, 326880, Note_on_c, 3, 61, 64
8, 327600, Control_c, 3, 11, 96
8, 327660, Control_c, 3, 11, 101
8, 327720, Control_c, 3, 11, 106
8, 327780, Control_c, 3, 11, 112
8, 327839, Note_on_c, 3, 64, 0
8, 327839, Note_on_c, 3, 61, 0
8, 327840, Note_on_c, 3, 66, 64
8, 327840, Note_on_c, 3, 69, 64
8, 327840, Control_c, 3, 11, 117
8, 327900, Control_c, 3, 11, 122
8, 327960, Control_c, 3, 11, 127
8, 328020, Control_c, 3, 11, 122
8, 328079, Note_on_c, 3, 66, 0
8, 328079, Note_on_c, 3, 69, 0
8, 328080, Note_on_c, 3, 62, 64
8, 328080, Control_c, 3, 11, 117
8, 328080, Note_on_c, 3, 66, 64
8, 328140, Control_c, 3, 11, 112
8, 328200, Control_c, 3, 11, 106
8, 328260, Control_c, 3, 11, 101
8, 328299, Note_on_c, 3, 62, 0
8, 328299, Note_on_c, 3, 66, 0
8, 328320, Note_on_c, 3, 64, 64
8, 328320, Note_on_c, 3, 61, 64
8, 328320, Control_c, 3, 11, 96
8, 328559, Note_on_c, 3, 64, 0
8, 328559, Note_on_c, 3, 61, 0
8, 329966, Control_c, 3, 11, 67
8, 330000, Note_on_c, 3, 71, 84
8, 330000, Note_on_c, 3, 69, 84
8, 330034, Control_c, 3, 11, 68
8, 330103, Control_c, 3, 11, 69
8, 330171, Control_c, 3, 11, 70
8, 330240, Control_c, 3, 11, 71
8, 330309, Control_c, 3, 11, 72
8, 330377, Control_c, 3, 11, 73
8, 330446, Control_c, 3, 11, 74
8, 330459, Note_on_c, 3, 71, 0
8, 330459, Note_on_c, 3, 69, 0
8, 330480, Note_on_c, 3, 71, 84
8, 330480, Note_on_c, 3, 69, 84
8, 330514, Control_c, 3, 11, 75
8, 330583, Control_c, 3, 11, 76
8, 330651, Control_c, 3, 11, 77
8, 330720, Control_c, 3, 11, 78
8, 330789, Control_c, 3, 11, 79
8, 330857, Control_c, 3, 11, 80
8, 330926, Control_c, 3, 11, 81
8, 330939, Note_on_c, 3, 71, 0
8, 330939, Note_on_c, 3, 69, 0
8, 330960, Note_on_c, 3, 69, 84
8, 330960, Note_on_c, 3, 71, 84
8, 330994, Control_c, 3, 11, 82
8, 331063, Control_c, 3, 11, 83
8, 331131, Control_c, 3, 11, 84
8, 331199, Note_on_c, 3, 69, 0
8, 331199, Note_on_c, 3, 71, 0
8, 331200, Control_c, 3, 11, 85
8, 331269, Control_c, 3, 11, 86
8, 331337, Control_c, 3, 11, 87
8, 331406, Control_c, 3, 11, 88
8, 331440, Note_on_c, 3, 70, 84
8, 331440, Note_on_c, 3, 73, 84
8, 331474, Control_c, 3, 11, 89
8, 331543, Control_c, 3, 11, 90
8, 331611, Control_c, 3, 11, 91
8, 331680, Control_c, 3, 11, 92
8, 331749, Control_c, 3, 11, 93
8, 331817, Control_c, 3, 11, 94
8, 331886, Control_c, 3, 11, 95
8, 331899, Note_on_c, 3, 70, 0
8, 331899, Note_on_c, 3, 73, 0
8, 331920, Note_on_c, 3, 73, 84
8, 331920, Note_on_c, 3, 70, 84
8, 331954, Control_c, 3, 11, 96
8, 332023, Control_c, 3, 11, 97
8, 332091, Control_c, 3, 11, 98
8, 332160, Control_c, 3, 11, 99
8, 332229, Control_c, 3, 11, 100
8, 332297, Control_c, 3, 11, 101
8, 332366, Control_c, 3, 11, 102
8, 332379, Note_on_c, 3, 73, 0
8, 332379, Note_on_c, 3, 70, 0
8, 332400, Note_on_c, 3, 73, 84
8, 332400, Note_on_c, 3, 70, 84
8, 332434, Control_c, 3, 11, 103
8, 332503, Control_c, 3, 11, 104
8, 332571, Control_c, 3, 11, 105
8, 332639, Note_on_c, 3, 73, 0
8, 332639, Note_on_c, 3, 70, 0
8, 332640, Control_c, 3, 11, 106
8, 332709, Control_c, 3, 11, 107
8, 332777, Control_c, 3, 11, 108
8, 332846, Control_c, 3, 11, 109
8, 332880, Note_on_c, 3, 76, 84
8, 332880, Note_on_c, 3, 73, 84
8, 332914, Control_c, 3, 11, 110
8, 332983, Control_c, 3, 11, 111
8, 333051, Control_c, 3, 11, 112
8, 333120, Control_c, 3, 11, 113
8, 333189, Control_c, 3, 11, 114
8, 333257, Control_c, 3, 11, 115
8, 333326, Control_c, 3, 11, 116
8, 333339, Note_on_c, 3, 76, 0
8, 333339, Note_on_c, 3, 73, 0
8, 333360, Note_on_c, 3, 76, 84
8, 333360, Note_on_c, 3, 73, 84
8, 333394, Control_c, 3, 11, 117
8, 333463, Control_c, 3, 11, 118
8, 333531, Control_c, 3, 11, 119
8, 333600, Control_c, 3, 11, 120
8, 333669, Control_c, 3, 11, 121
8, 333737, Control_c, 3, 11, 122
8, 333806, Control_c, 3, 11, 123
8, 333819, Note_on_c, 3, 76, 0
8, 333819, Note_on_c, 3, 73, 0
8, 333840, Note_on_c, 3, 73, 84
8, 333840, Note_on_c, 3, 76, 84
8, 333874, Control_c, 3, 11, 124
8, 333943, Control_c, 3, 11, 125
8, 334011, Control_c, 3, 11, 127
8, 334059, Note_on_c, 3, 73, 0
8, 334059, Note_on_c, 3, 76, 0
8, 334080, Note_on_c, 3, 74, 84
8, 334080, Note_on_c, 3, 78, 84
8, 334679, Note_on_c, 3, 74, 0
8, 334679, Note_on_c, 3, 78, 0
8, 334680, Note_on_c, 3, 76, 84
8, 334680, Note_on_c, 3, 73, 84
8, 334799, Note_on_c, 3, 76, 0
8, 334799, Note_on_c, 3, 73, 0
8, 334800, Note_on_c, 3, 78, 84
8, 334800, Note_on_c, 3, 74, 84
8, 335039, Note_on_c, 3, 78, 0
8, 335039, Note_on_c, 3, 74, 0
8, 335520, Note_on_c, 3, 74, 84
8, 335520, Note_on_c, 3, 78, 84
8, 336119, Note_on_c, 3, 74, 0
8, 336119, Note_on_c, 3, 78, 0
8, 336120, Note_on_c, 3, 76, 84
8, 336120, Note_on_c, 3, 73, 84
8, 336239, Note_on_c, 3, 76, 0
8, 336239, Note_on_c, 3, 73, 0
8, 336240, Note_on_c, 3, 74, 84
8, 336240, Note_on_c, 3, 78, 84
8, 336479, Note_on_c, 3, 74, 0
8, 336479, Note_on_c, 3, 78, 0
8, 336960, Note_on_c, 3, 78, 84
8, 336960, Note_on_c, 3, 74, 84
8, 337439, Note_on_c, 3, 78, 0
8, 337439, Note_on_c, 3, 74, 0
8, 337440, Note_on_c, 3, 73, 84
8, 337440, Note_on_c, 3, 76, 84
8, 337679, Note_on_c, 3, 73, 0
8, 337679, Note_on_c, 3, 76, 0
8, 337680, Note_on_c, 3, 78, 84
8, 337680, Note_on_c, 3, 74, 84
8, 337919, Note_on_c, 3, 78, 0
8, 337919, Note_on_c, 3, 74, 0
8, 337920, Note_on_c, 3, 79, 84
8, 337920, Note_on_c, 3, 76, 84
8, 338139, Note_on_c, 3, 79, 0
8, 338139, Note_on_c, 3, 76, 0
8, 338160, Note_on_c, 3, 78, 84
8, 338160, Note_on_c, 3, 74, 84
8, 338339, Note_on_c, 3, 78, 0
8, 338339, Note_on_c, 3, 74, 0
8, 338400, Note_on_c, 3, 73, 84
8, 338400, Note_on_c, 3, 76, 84
8, 338639, Note_on_c, 3, 73, 0
8, 338639, Note_on_c, 3, 76, 0
8, 339840, Note_on_c, 3, 73, 84
8, 339840, Note_on_c, 3, 76, 84
8, 340439, Note_on_c, 3, 73, 0
8, 340439, Note_on_c, 3, 76, 0
8, 340440, Note_on_c, 3, 72, 84
8, 340440, Note_on_c, 3, 75, 84
8, 340559, Note_on_c, 3, 72, 0
8, 340559, Note_on_c, 3, 75, 0
8, 340560, Note_on_c, 3, 73, 84
8, 340560, Note_on_c, 3, 76, 84
8, 340799, Note_on_c, 3, 73, 0
8, 340799, Note_on_c, 3, 76, 0
8, 341280, Note_on_c, 3, 73, 84
8, 341280, Note_on_c, 3, 76, 84
8, 341879, Note_on_c, 3, 73, 0
8, 341879, Note_on_c, 3, 76, 0
8, 341880, Note_on_c, 3, 75, 84
8, 341880, Note_on_c, 3, 72, 84
8, 341999, Note_on_c, 3, 75, 0
8, 341999, Note_on_c, 3, 72, 0
8, 342000, Note_on_c, 3, 73, 84
8, 342000, Note_on_c, 3, 76, 84
8, 342239, Note_on_c, 3, 73, 0
8, 342239, Note_on_c, 3, 76, 0
8, 342720, Note_on_c, 3, 73, 84
8, 342720, Note_on_c, 3, 76, 84
8, 343199, Note_on_c, 3, 73, 0
8, 343199, Note_on_c, 3, 76, 0
8, 343200, Note_on_c, 3, 78, 84
8, 343200, Note_on_c, 3, 74, 84
8, 343439, Note_on_c, 3, 78, 0
8, 343439, Note_on_c, 3, 74, 0
8, 343440, Note_on_c, 3, 78, 84
8, 343440, Note_on_c, 3, 81, 84
8, 343679, Note_on_c, 3, 78, 0
8, 343679, Note_on_c, 3, 81, 0
8, 343680, Note_on_c, 3, 79, 84
8, 343680, Note_on_c, 3, 76, 84
8, 343899, Note_on_c, 3, 79, 0
8, 343899, Note_on_c, 3, 76, 0
8, 343920, Note_on_c, 3, 76, 84
8, 343920, Note_on_c, 3, 73, 84
8, 344099, Note_on_c, 3, 76, 0
8, 344099, Note_on_c, 3, 73, 0
8, 344160, Note_on_c, 3, 74, 84
8, 344399, Note_on_c, 3, 74, 0
8, 355440, Note_on_c, 3, 69, 76
8, 355440, Note_on_c, 3, 77, 76
8, 355544, Note_on_c, 3, 69, 0
8, 355544, Note_on_c, 3, 77, 0
8, 355560, Note_on_c, 3, 77, 76
8, 355560, Note_on_c, 3, 69, 76
8, 355679, Note_on_c, 3, 77, 0
8, 355679, Note_on_c, 3, 69, 0
8, 355800, Note_on_c, 3, 77, 76
8, 355800, Note_on_c, 3, 69, 76
8, 355904, Note_on_c, 3, 77, 0
8, 355904, Note_on_c, 3, 69, 0
8, 355920, Note_on_c, 3, 69, 76
8, 355920, Note_on_c, 3, 77, 76
8, 356039, Note_on_c, 3, 69, 0
8, 356039, Note_on_c, 3, 77, 0
8, 356160, Note_on_c, 3, 77, 76
8, 356160, Note_on_c, 3, 69, 76
8, 356264, Note_on_c, 3, 77, 0
8, 356264, Note_on_c, 3, 69, 0
8, 356280, Note_on_c, 3, 69, 52
8, 356280, Note_on_c, 3, 77, 52
8, 356399, Note_on_c, 3, 69, 0
8, 356399, Note_on_c, 3, 77, 0
8, 361320, Note_on_c, 3, 74, 76
8, 361320, Note_on_c, 3, 71, 76
8, 361664, Note_on_c, 3, 74, 0
8, 361664, Note_on_c, 3, 71, 0
8, 361680, Note_on_c, 3, 69, 76
8, 361680, Note_on_c, 3, 73, 76
8, 361799, Note_on_c, 3, 69, 0
8, 361799, Note_on_c, 3, 73, 0
8, 362040, Note_on_c, 3, 71, 76
8, 362040, Note_on_c, 3, 74, 76
8, 362384, Note_on_c, 3, 71, 0
8, 362384, Note_on_c, 3, 74, 0
8, 362400, Note_on_c, 3, 69, 76
8, 362400, Note_on_c, 3, 73, 76
8, 362519, Note_on_c, 3, 69, 0
8, 362519, Note_on_c, 3, 73, 0
8, 362760, Note_on_c, 3, 74, 76
8, 362760, Note_on_c, 3, 71, 76
8, 363104, Note_on_c, 3, 74, 0
8, 363104, Note_on_c, 3, 71, 0
8, 363120, Note_on_c, 3, 73, 76
8, 363120, Note_on_c, 3, 69, 76
8, 363209, Note_on_c, 3, 73, 0
8, 363209, Note_on_c, 3, 69, 0
8, 363240, Note_on_c, 3, 76, 76
8, 363329, Note_on_c, 3, 76, 0
8, 363360, Note_on_c, 3, 73, 76
8, 363449, Note_on_c, 3, 73, 0
8, 363480, Note_on_c, 3, 69, 76
8, 363569, Note_on_c, 3, 69, 0
8, 363600, Note_on_c, 3, 64, 76
8, 363689, Note_on_c, 3, 64, 0
8, 363720, Note_on_c, 3, 61, 76
8, 363809, Note_on_c, 3, 61, 0
8, 363840, Note_on_c, 3, 57, 76
8, 363929, Note_on_c, 3, 57, 0
8, 365520, Note_on_c, 3, 76, 52
8, 365520, Note_on_c, 3, 73, 52
8, 365609, Note_on_c, 3, 76, 0
8, 365609, Note_on_c, 3, 73, 0
8, 365640, Note_on_c, 3, 74, 52
8, 365640, Note_on_c, 3, 78, 52
8, 365729, Note_on_c, 3, 74, 0
8, 365729, Note_on_c, 3, 78, 0
8, 365760, Note_on_c, 3, 74, 52
8, 365760, Note_on_c, 3, 78, 52
8, 365849, Note_on_c, 3, 74, 0
8, 365849, Note_on_c, 3, 78, 0
8, 365880, Note_on_c, 3, 76, 52
8, 365880, Note_on_c, 3, 73, 52
8, 365969, Note_on_c, 3, 76, 0
8, 365969, Note_on_c, 3, 73, 0
8, 366000, Note_on_c, 3, 80, 52
8, 366000, Note_on_c, 3, 71, 52
8, 366239, Note_on_c, 3, 80, 0
8, 366239, Note_on_c, 3, 71, 0
8, 366240, Note_on_c, 3, 69, 52
8, 366240, Note_on_c, 3, 81, 52
8, 366344, Note_on_c, 3, 69, 0
8, 366344, Note_on_c, 3, 81, 0
8, 366360, Note_on_c, 3, 78, 52
8, 366360, Note_on_c, 3, 74, 52
8, 366449, Note_on_c, 3, 78, 0
8, 366449, Note_on_c, 3, 74, 0
8, 366480, Note_on_c, 3, 78, 52
8, 366480, Note_on_c, 3, 74, 52
8, 366569, Note_on_c, 3, 78, 0
8, 366569, Note_on_c, 3, 74, 0
8, 366600, Note_on_c, 3, 73, 52
8, 366600, Note_on_c, 3, 76, 52
8, 366689, Note_on_c, 3, 73, 0
8, 366689, Note_on_c, 3, 76, 0
8, 366720, Note_on_c, 3, 71, 52
8, 366720, Note_on_c, 3, 80, 52
8, 366959, Note_on_c, 3, 71, 0
8, 366959, Note_on_c, 3, 80, 0
8, 366960, Note_on_c, 3, 69, 52
8, 366960, Note_on_c, 3, 81, 52
8, 367064, Note_on_c, 3, 69, 0
8, 367064, Note_on_c, 3, 81, 0
8, 367080, Note_on_c, 3, 71, 44
8, 367080, Note_on_c, 3, 80, 44
8, 367319, Note_on_c, 3, 71, 0
8, 367319, Note_on_c, 3, 80, 0
8, 367320, Note_on_c, 3, 69, 44
8, 367320, Note_on_c, 3, 81, 44
8, 367424, Note_on_c, 3, 69, 0
8, 367424, Note_on_c, 3, 81, 0
8, 367440, Note_on_c, 3, 80, 44
8, 367440, Note_on_c, 3, 71, 44
8, 367679, Note_on_c, 3, 80, 0
8, 367679, Note_on_c, 3, 71, 0
8, 367680, Note_on_c, 3, 81, 44
8, 367680, Note_on_c, 3, 69, 44
8, 367784, Note_on_c, 3, 81, 0
8, 367784, Note_on_c, 3, 69, 0
8, 367800, Note_on_c, 3, 71, 44
8, 367800, Note_on_c, 3, 80, 44
8, 368039, Note_on_c, 3, 71, 0
8, 368039, Note_on_c, 3, 80, 0
8, 368040, Note_on_c, 3, 81, 44
8, 368040, Note_on_c, 3, 69, 44
8, 368144, Note_on_c, 3, 81, 0
8, 368144, Note_on_c, 3, 69, 0
8, 368160, Note_on_c, 3, 80, 44
8, 368160, Note_on_c, 3, 71, 44
8, 368399, Note_on_c, 3, 80, 0
8, 368399, Note_on_c, 3, 71, 0
8, 368400, Note_on_c, 3, 69, 44
8, 368400, Note_on_c, 3, 81, 44
8, 368519, Note_on_c, 3, 69, 0
8, 368519, Note_on_c, 3, 81, 0
8, 370920, Note_on_c, 3, 77, 84
8, 370920, Note_on_c, 3, 74, 84
8, 371024, Note_on_c, 3, 77, 0
8, 371024, Note_on_c, 3, 74, 0
8, 371040, Note_on_c, 3, 74, 84
8, 371040, Note_on_c, 3, 77, 84
8, 371159, Note_on_c, 3, 74, 0
8, 371159, Note_on_c, 3, 77, 0
8, 387120, Note_on_c, 3, 69, 76
8, 387120, Note_on_c, 3, 77, 76
8, 387224, Note_on_c, 3, 69, 0
8, 387224, Note_on_c, 3, 77, 0
8, 387240, Note_on_c, 3, 77, 76
8, 387240, Note_on_c, 3, 69, 76
8, 387359, Note_on_c, 3, 77, 0
8, 387359, Note_on_c, 3, 69, 0
8, 387480, Note_on_c, 3, 69, 76
8, 387480, Note_on_c, 3, 77, 76
8, 387584, Note_on_c, 3, 69, 0
8, 387584, Note_on_c, 3, 77, 0
8, 387600, Note_on_c, 3, 77, 76
8, 387600, Note_on_c, 3, 69, 76
8, 387719, Note_on_c, 3, 77, 0
8, 387719, Note_on_c, 3, 69, 0
8, 387840, Note_on_c, 3, 77, 76
8, 387840, Note_on_c, 3, 69, 76
8, 387944, Note_on_c, 3, 77, 0
8, 387944, Note_on_c, 3, 69, 0
8, 387960, Note_on_c, 3, 77, 84
8, 387960, Note_on_c, 3, 65, 84
8, 389159, Note_on_c, 3, 77, 0
8, 389159, Note_on_c, 3, 65, 0
8, 389160, Note_on_c, 3, 79, 84
8, 389160, Note_on_c, 3, 67, 84
8, 389264, Note_on_c, 3, 79, 0
8, 389264, Note_on_c, 3, 67, 0
8, 389280, Note_on_c, 3, 67, 84
8, 389280, Note_on_c, 3, 79, 84
8, 389369, Note_on_c, 3, 67, 0
8, 389369, Note_on_c, 3, 79, 0
8, 389400, Note_on_c, 3, 79, 84
8, 389400, Note_on_c, 3, 67, 84
8, 390599, Note_on_c, 3, 79, 0
8, 390599, Note_on_c, 3, 67, 0
8, 390600, Note_on_c, 3, 69, 84
8, 390600, Note_on_c, 3, 81, 84
8, 390704, Note_on_c, 3, 69, 0
8, 390704, Note_on_c, 3, 81, 0
8, 390720, Note_on_c, 3, 69, 84
8, 390720, Note_on_c, 3, 81, 84
8, 390809, Note_on_c, 3, 69, 0
8, 390809, Note_on_c, 3, 81, 0
8, 397680, Note_on_c, 3, 64, 52
8, 397680, Note_on_c, 3, 67, 52
8, 397784, Note_on_c, 3, 64, 0
8, 397784, Note_on_c, 3, 67, 0
8, 397800, Note_on_c, 3, 67, 52
8, 397800, Note_on_c, 3, 64, 52
8, 397904, Note_on_c, 3, 67, 0
8, 397904, Note_on_c, 3, 64, 0
8, 397920, Note_on_c, 3, 64, 52
8, 397920, Note_on_c, 3, 67, 52
8, 398039, Note_on_c, 3, 64, 0
8, 398039, Note_on_c, 3, 67, 0
8, 398400, Note_on_c, 3, 64, 52
8, 398400, Note_on_c, 3, 67, 52
8, 398504, Note_on_c, 3, 64, 0
8, 398504, Note_on_c, 3, 67, 0
8, 398520, Note_on_c, 3, 64, 52
8, 398520, Note_on_c, 3, 67, 52
8, 398624, Note_on_c, 3, 64, 0
8, 398624, Note_on_c, 3, 67, 0
8, 398640, Note_on_c, 3, 64, 52
8, 398640, Note_on_c, 3, 67, 52
8, 398759, Note_on_c, 3, 64, 0
8, 398759, Note_on_c, 3, 67, 0
8, 399120, Note_on_c, 3, 64, 52
8, 399120, Note_on_c, 3, 67, 52
8, 399224, Note_on_c, 3, 64, 0
8, 399224, Note_on_c, 3, 67, 0
8, 399240, Note_on_c, 3, 64, 52
8, 399240, Note_on_c, 3, 67, 52
8, 399344, Note_on_c, 3, 64, 0
8, 399344, Note_on_c, 3, 67, 0
8, 399360, Note_on_c, 3, 64, 52
8, 399360, Note_on_c, 3, 67, 52
8, 399479, Note_on_c, 3, 64, 0
8, 399479, Note_on_c, 3, 67, 0
8, 399840, Note_on_c, 3, 64, 52
8, 399840, Note_on_c, 3, 67, 52
8, 399944, Note_on_c, 3, 64, 0
8, 399944, Note_on_c, 3, 67, 0
8, 399960, Note_on_c, 3, 67, 52
8, 399960, Note_on_c, 3, 64, 52
8, 400064, Note_on_c, 3, 67, 0
8, 400064, Note_on_c, 3, 64, 0
8, 400080, Note_on_c, 3, 64, 52
8, 400080, Note_on_c, 3, 67, 52
8, 400184, Note_on_c, 3, 64, 0
8, 400184, Note_on_c, 3, 67, 0
8, 400560, Note_on_c, 3, 77, 84
8, 400560, Note_on_c, 3, 69, 84
8, 400664, Note_on_c, 3, 77, 0
8, 400664, Note_on_c, 3, 69, 0
8, 400680, Note_on_c, 3, 69, 84
8, 400680, Note_on_c, 3, 77, 84
8, 400784, Note_on_c, 3, 69, 0
8, 400784, Note_on_c, 3, 77, 0
8, 400800, Note_on_c, 3, 77, 84
8, 400800, Note_on_c, 3, 69, 84
8, 400919, Note_on_c, 3, 77, 0
8, 400919, Note_on_c, 3, 69, 0
8, 401280, Note_on_c, 3, 77, 84
8, 401280, Note_on_c, 3, 69, 84
8, 401384, Note_on_c, 3, 77, 0
8, 401384, Note_on_c, 3, 69, 0
8, 401400, Note_on_c, 3, 77, 84
8, 401400, Note_on_c, 3, 69, 84
8, 401504, Note_on_c, 3, 77, 0
8, 401504, Note_on_c, 3, 69, 0
8, 401520, Note_on_c, 3, 69, 84
8, 401520, Note_on_c, 3, 77, 84
8, 401639, Note_on_c, 3, 69, 0
8, 401639, Note_on_c, 3, 77, 0
8, 402000, Note_on_c, 3, 77, 84
8, 402000, Note_on_c, 3, 69, 84
8, 402104, Note_on_c, 3, 77, 0
8, 402104, Note_on_c, 3, 69, 0
8, 402120, Note_on_c, 3, 77, 84
8, 402120, Note_on_c, 3, 69, 84
8, 402224, Note_on_c, 3, 77, 0
8, 402224, Note_on_c, 3, 69, 0
8, 402240, Note_on_c, 3, 77, 84
8, 402240, Note_on_c, 3, 69, 84
8, 402359, Note_on_c, 3, 77, 0
8, 402359, Note_on_c, 3, 69, 0
8, 402720, Note_on_c, 3, 69, 84
8, 402720, Note_on_c, 3, 77, 84
8, 402824, Note_on_c, 3, 69, 0
8, 402824, Note_on_c, 3, 77, 0
8, 402840, Note_on_c, 3, 77, 84
8, 402840, Note_on_c, 3, 69, 84
8, 402944, Note_on_c, 3, 77, 0
8, 402944, Note_on_c, 3, 69, 0
8, 402960, Note_on_c, 3, 77, 84
8, 402960, Note_on_c, 3, 69, 84
8, 403079, Note_on_c, 3, 77, 0
8, 403079, Note_on_c, 3, 69, 0
8, 403440, Note_on_c, 3, 77, 84
8, 403440, Note_on_c, 3, 69, 84
8, 403544, Note_on_c, 3, 77, 0
8, 403544, Note_on_c, 3, 69, 0
8, 403560, Note_on_c, 3, 77, 84
8, 403560, Note_on_c, 3, 69, 84
8, 403664, Note_on_c, 3, 77, 0
8, 403664, Note_on_c, 3, 69, 0
8, 403680, Note_on_c, 3, 77, 84
8, 403680, Note_on_c, 3, 69, 84
8, 403784, Note_on_c, 3, 77, 0
8, 403784, Note_on_c, 3, 69, 0
8, 403800, Note_on_c, 3, 69, 84
8, 403800, Note_on_c, 3, 77, 84
8, 403904, Note_on_c, 3, 69, 0
8, 403904, Note_on_c, 3, 77, 0
8, 403920, Note_on_c, 3, 69, 84
8, 403920, Note_on_c, 3, 77, 84
8, 404024, Note_on_c, 3, 69, 0
8, 404024, Note_on_c, 3, 77, 0
8, 404040, Note_on_c, 3, 69, 84
8, 404040, Note_on_c, 3, 77, 84
8, 404144, Note_on_c, 3, 69, 0
8, 404144, Note_on_c, 3, 77, 0
8, 404160, Note_on_c, 3, 77, 84
8, 404160, Note_on_c, 3, 69, 84
8, 404279, Note_on_c, 3, 77, 0
8, 404279, Note_on_c, 3, 69, 0
8, 405840, Note_on_c, 3, 65, 84
8, 405840, Note_on_c, 3, 77, 84
8, 405944, Note_on_c, 3, 65, 0
8, 405944, Note_on_c, 3, 77, 0
8, 405960, Note_on_c, 3, 81, 84
8, 405960, Note_on_c, 3, 69, 84
8, 406079, Note_on_c, 3, 81, 0
8, 406079, Note_on_c, 3, 69, 0
8, 406320, Note_on_c, 3, 69, 84
8, 406320, Note_on_c, 3, 81, 84
8, 406439, Note_on_c, 3, 69, 0
8, 406439, Note_on_c, 3, 81, 0
8, 406680, Note_on_c, 3, 81, 84
8, 406680, Note_on_c, 3, 69, 84
8, 406799, Note_on_c, 3, 81, 0
8, 406799, Note_on_c, 3, 69, 0
8, 407040, Note_on_c, 3, 69, 84
8, 407040, Note_on_c, 3, 81, 84
8, 407159, Note_on_c, 3, 69, 0
8, 407159, Note_on_c, 3, 81, 0
8, 407400, Note_on_c, 3, 81, 84
8, 407400, Note_on_c, 3, 69, 84
8, 407519, Note_on_c, 3, 81, 0
8, 407519, Note_on_c, 3, 69, 0
8, 408720, Control_c, 3, 11, 96
8, 408840, Control_c, 3, 11, 96
8, 408840, Note_on_c, 3, 74, 64
8, 408840, Note_on_c, 3, 66, 64
8, 408893, Control_c, 3, 11, 99
8, 408947, Control_c, 3, 11, 103
8, 409000, Control_c, 3, 11, 106
8, 409053, Control_c, 3, 11, 110
8, 409107, Control_c, 3, 11, 113
8, 409160, Control_c, 3, 11, 117
8, 409213, Control_c, 3, 11, 120
8, 409267, Control_c, 3, 11, 124
8, 409320, Control_c, 3, 11, 127
8, 409373, Control_c, 3, 11, 124
8, 409427, Control_c, 3, 11, 120
8, 409439, Note_on_c, 3, 74, 0
8, 409439, Note_on_c, 3, 66, 0
8, 409440, Note_on_c, 3, 73, 64
8, 409440, Note_on_c, 3, 64, 64
8, 409480, Control_c, 3, 11, 117
8, 409533, Control_c, 3, 11, 113
8, 409559, Note_on_c, 3, 73, 0
8, 409559, Note_on_c, 3, 64, 0
8, 409560, Note_on_c, 3, 74, 64
8, 409560, Note_on_c, 3, 66, 64
8, 409587, Control_c, 3, 11, 110
8, 409640, Control_c, 3, 11, 106
8, 409693, Control_c, 3, 11, 103
8, 409747, Control_c, 3, 11, 99
8, 409799, Note_on_c, 3, 74, 0
8, 409799, Note_on_c, 3, 66, 0
8, 409800, Control_c, 3, 11, 96
8, 410280, Control_c, 3, 11, 96
8, 410280, Note_on_c, 3, 65, 64
8, 410280, Note_on_c, 3, 74, 64
8, 410333, Control_c, 3, 11, 99
8, 410387, Control_c, 3, 11, 103
8, 410440, Control_c, 3, 11, 106
8, 410493, Control_c, 3, 11, 110
8, 410547, Control_c, 3, 11, 113
8, 410600, Control_c, 3, 11, 117
8, 410653, Control_c, 3, 11, 120
8, 410707, Control_c, 3, 11, 124
8, 410760, Control_c, 3, 11, 127
8, 410813, Control_c, 3, 11, 124
8, 410867, Control_c, 3, 11, 120
8, 410879, Note_on_c, 3, 65, 0
8, 410879, Note_on_c, 3, 74, 0
8, 410880, Note_on_c, 3, 73, 64
8, 410880, Note_on_c, 3, 64, 64
8, 410920, Control_c, 3, 11, 117
8, 410973, Control_c, 3, 11, 113
8, 410999, Note_on_c, 3, 73, 0
8, 410999, Note_on_c, 3, 64, 0
8, 411000, Note_on_c, 3, 74, 64
8, 411000, Note_on_c, 3, 65, 64
8, 411027, Control_c, 3, 11, 110
8, 411080, Control_c, 3, 11, 106
8, 411133, Control_c, 3, 11, 103
8, 411187, Control_c, 3, 11, 99
8, 411239, Note_on_c, 3, 74, 0
8, 411239, Note_on_c, 3, 65, 0
8, 411240, Control_c, 3, 11, 96
8, 411480, Control_c, 3, 11, 127
8, 412800, Note_on_c, 3, 76, 84
8, 412800, Note_on_c, 3, 67, 84
8, 412919, Note_on_c, 3, 76, 0
8, 412919, Note_on_c, 3, 67, 0
8, 413160, Note_on_c, 3, 77, 84
8, 413160, Note_on_c, 3, 69, 84
8, 413279, Note_on_c, 3, 77, 0
8, 413279, Note_on_c, 3, 69, 0
8, 413279, End_track
9, 0, Start_track
9, 0, Title_t, "Bassoon"
9, 0, MIDI_port, 0
9, 0, Program_c, 4, 70
9, 0, Control_c, 4, 7, 96
9, 0, Control_c, 4, 11, 127
9, 0, Control_c, 4, 10, 65
9, 0, Note_on_c, 4, 53, 76
9, 0, Note_on_c, 4, 41, 76
9, 71, Note_on_c, 4, 53, 0
9, 80, Note_on_c, 4, 53, 76
9, 104, Note_on_c, 4, 41, 0
9, 119, Note_on_c, 4, 53, 0
9, 120, Note_on_c, 4, 57, 76
9, 120, Note_on_c, 4, 41, 76
9, 239, Note_on_c, 4, 57, 0
9, 239, Note_on_c, 4, 41, 0
9, 240, Note_on_c, 4, 53, 76
9, 299, Note_on_c, 4, 53, 0
9, 360, Note_on_c, 4, 53, 76
9, 360, Note_on_c, 4, 57, 76
9, 431, Note_on_c, 4, 53, 0
9, 431, Note_on_c, 4, 57, 0
9, 440, Note_on_c, 4, 57, 76
9, 440, Note_on_c, 4, 53, 76
9, 479, Note_on_c, 4, 57, 0
9, 479, Note_on_c, 4, 53, 0
9, 480, Note_on_c, 4, 60, 76
9, 480, Note_on_c, 4, 57, 76
9, 599, Note_on_c, 4, 60, 0
9, 599, Note_on_c, 4, 57, 0
9, 600, Note_on_c, 4, 57, 76
9, 600, Note_on_c, 4, 53, 76
9, 659, Note_on_c, 4, 57, 0
9, 659, Note_on_c, 4, 53, 0
9, 720, Note_on_c, 4, 60, 76
9, 720, Note_on_c, 4, 57, 76
9, 824, Note_on_c, 4, 60, 0
9, 824, Note_on_c, 4, 57, 0
9, 840, Note_on_c, 4, 65, 52
9, 840, Note_on_c, 4, 57, 52
9, 929, Note_on_c, 4, 65, 0
9, 929, Note_on_c, 4, 57, 0
9, 960, Note_on_c, 4, 57, 52
9, 960, Note_on_c, 4, 65, 52
9, 1049, Note_on_c, 4, 57, 0
9, 1049, Note_on_c, 4, 65, 0
9, 1080, Note_on_c, 4, 60, 52
9, 1080, Note_on_c, 4, 64, 52
9, 1169, Note_on_c, 4, 60, 0
9, 1169, Note_on_c, 4, 64, 0
9, 1200, Note_on_c, 4, 58, 52
9, 1200, Note_on_c, 4, 62, 52
9, 1289, Note_on_c, 4, 58, 0
9, 1289, Note_on_c, 4, 62, 0
9, 1320, Note_on_c, 4, 62, 52
9, 1320, Note_on_c, 4, 58, 52
9, 1409, Note_on_c, 4, 62, 0
9, 1409, Note_on_c, 4, 58, 0
9, 1440, Note_on_c, 4, 60, 52
9, 1440, Note_on_c, 4, 57, 52
9, 1529, Note_on_c, 4, 60, 0
9, 1529, Note_on_c, 4, 57, 0
9, 1560, Note_on_c, 4, 58, 52
9, 1560, Note_on_c, 4, 55, 52
9, 1649, Note_on_c, 4, 58, 0
9, 1649, Note_on_c, 4, 55, 0
9, 1680, Note_on_c, 4, 55, 52
9, 1680, Note_on_c, 4, 58, 52
9, 1769, Note_on_c, 4, 55, 0
9, 1769, Note_on_c, 4, 58, 0
9, 1800, Note_on_c, 4, 57, 52
9, 1800, Note_on_c, 4, 53, 52
9, 1889, Note_on_c, 4, 57, 0
9, 1889, Note_on_c, 4, 53, 0
9, 1920, Note_on_c, 4, 55, 52
9, 1920, Note_on_c, 4, 52, 52
9, 2264, Note_on_c, 4, 55, 0
9, 2264, Note_on_c, 4, 52, 0
9, 2280, Note_on_c, 4, 67, 52
9, 2280, Note_on_c, 4, 64, 52
9, 2369, Note_on_c, 4, 67, 0
9, 2369, Note_on_c, 4, 64, 0
9, 2400, Note_on_c, 4, 67, 52
9, 2400, Note_on_c, 4, 64, 52
9, 2489, Note_on_c, 4, 67, 0
9, 2489, Note_on_c, 4, 64, 0
9, 2520, Note_on_c, 4, 62, 52
9, 2520, Note_on_c, 4, 65, 52
9, 2609, Note_on_c, 4, 62, 0
9, 2609, Note_on_c, 4, 65, 0
9, 2640, Note_on_c, 4, 60, 52
9, 2640, Note_on_c, 4, 64, 52
9, 2729, Note_on_c, 4, 60, 0
9, 2729, Note_on_c, 4, 64, 0
9, 2760, Note_on_c, 4, 60, 52
9, 2760, Note_on_c, 4, 64, 52
9, 2849, Note_on_c, 4, 60, 0
9, 2849, Note_on_c, 4, 64, 0
9, 2880, Note_on_c, 4, 58, 52
9, 2880, Note_on_c, 4, 62, 52
9, 2969, Note_on_c, 4, 58, 0
9, 2969, Note_on_c, 4, 62, 0
9, 3000, Note_on_c, 4, 60, 52
9, 3000, Note_on_c, 4, 57, 52
9, 3089, Note_on_c, 4, 60, 0
9, 3089, Note_on_c, 4, 57, 0
9, 3120, Note_on_c, 4, 57, 52
9, 3120, Note_on_c, 4, 60, 52
9, 3209, Note_on_c, 4, 57, 0
9, 3209, Note_on_c, 4, 60, 0
9, 3240, Note_on_c, 4, 55, 52
9, 3240, Note_on_c, 4, 58, 52
9, 3329, Note_on_c, 4, 55, 0
9, 3329, Note_on_c, 4, 58, 0
9, 3360, Note_on_c, 4, 53, 52
9, 3360, Note_on_c, 4, 57, 52
9, 3719, Note_on_c, 4, 53, 0
9, 3719, Note_on_c, 4, 57, 0
9, 5520, Note_on_c, 4, 65, 84
9, 5520, Note_on_c, 4, 62, 84
9, 5759, Note_on_c, 4, 65, 0
9, 5759, Note_on_c, 4, 62, 0
9, 5760, Note_on_c, 4, 64, 76
9, 5760, Note_on_c, 4, 61, 76
9, 5864, Note_on_c, 4, 64, 0
9, 5864, Note_on_c, 4, 61, 0
9, 5880, Note_on_c, 4, 59, 76
9, 5880, Note_on_c, 4, 62, 76
9, 6224, Note_on_c, 4, 59, 0
9, 6224, Note_on_c, 4, 62, 0
9, 6240, Note_on_c, 4, 57, 76
9, 6240, Note_on_c, 4, 61, 76
9, 6359, Note_on_c, 4, 57, 0
9, 6359, Note_on_c, 4, 61, 0
9, 6600, Note_on_c, 4, 59, 76
9, 6600, Note_on_c, 4, 62, 76
9, 6944, Note_on_c, 4, 59, 0
9, 6944, Note_on_c, 4, 62, 0
9, 6960, Note_on_c, 4, 61, 76
9, 6960, Note_on_c, 4, 57, 76
9, 7079, Note_on_c, 4, 61, 0
9, 7079, Note_on_c, 4, 57, 0
9, 7320, Note_on_c, 4, 62, 76
9, 7320, Note_on_c, 4, 59, 76
9, 7664, Note_on_c, 4, 62, 0
9, 7664, Note_on_c, 4, 59, 0
9, 7680, Note_on_c, 4, 61, 76
9, 7680, Note_on_c, 4, 57, 76
9, 7769, Note_on_c, 4, 61, 0
9, 7769, Note_on_c, 4, 57, 0
9, 7800, Note_on_c, 4, 64, 76
9, 7889, Note_on_c, 4, 64, 0
9, 7920, Note_on_c, 4, 61, 76
9, 8009, Note_on_c, 4, 61, 0
9, 8040, Note_on_c, 4, 57, 76
9, 8129, Note_on_c, 4, 57, 0
9, 8160, Note_on_c, 4, 52, 76
9, 8249, Note_on_c, 4, 52, 0
9, 8280, Note_on_c, 4, 49, 76
9, 8369, Note_on_c, 4, 49, 0
9, 8400, Note_on_c, 4, 45, 76
9, 8489, Note_on_c, 4, 45, 0
9, 8640, Note_on_c, 4, 41, 76
9, 8640, Note_on_c, 4, 53, 76
9, 8711, Note_on_c, 4, 53, 0
9, 8720, Note_on_c, 4, 53, 76
9, 8744, Note_on_c, 4, 41, 0
9, 8759, Note_on_c, 4, 53, 0
9, 8760, Note_on_c, 4, 41, 76
9, 8760, Note_on_c, 4, 57, 76
9, 8879, Note_on_c, 4, 41, 0
9, 8879, Note_on_c, 4, 57, 0
9, 8880, Note_on_c, 4, 53, 76
9, 8939, Note_on_c, 4, 53, 0
9, 9000, Note_on_c, 4, 57, 76
9, 9000, Note_on_c, 4, 53, 76
9, 9071, Note_on_c, 4, 57, 0
9, 9071, Note_on_c, 4, 53, 0
9, 9080, Note_on_c, 4, 53, 76
9, 9080, Note_on_c, 4, 57, 76
9, 9119, Note_on_c, 4, 53, 0
9, 9119, Note_on_c, 4, 57, 0
9, 9120, Note_on_c, 4, 60, 76
9, 9120, Note_on_c, 4, 57, 76
9, 9239, Note_on_c, 4, 60, 0
9, 9239, Note_on_c, 4, 57, 0
9, 9240, Note_on_c, 4, 57, 76
9, 9240, Note_on_c, 4, 53, 76
9, 9299, Note_on_c, 4, 57, 0
9, 9299, Note_on_c, 4, 53, 0
9, 9360, Note_on_c, 4, 60, 76
9, 9360, Note_on_c, 4, 57, 76
9, 9464, Note_on_c, 4, 60, 0
9, 9464, Note_on_c, 4, 57, 0
9, 9480, Note_on_c, 4, 65, 52
9, 9480, Note_on_c, 4, 57, 52
9, 9569, Note_on_c, 4, 65, 0
9, 9569, Note_on_c, 4, 57, 0
9, 9600, Note_on_c, 4, 57, 52
9, 9600, Note_on_c, 4, 65, 52
9, 9689, Note_on_c, 4, 57, 0
9, 9689, Note_on_c, 4, 65, 0
9, 9720, Note_on_c, 4, 60, 52
9, 9720, Note_on_c, 4, 64, 52
9, 9809, Note_on_c, 4, 60, 0
9, 9809, Note_on_c, 4, 64, 0
9, 9840, Note_on_c, 4, 62, 52
9, 9840, Note_on_c, 4, 58, 52
9, 9929, Note_on_c, 4, 62, 0
9, 9929, Note_on_c, 4, 58, 0
9, 9960, Note_on_c, 4, 62, 52
9, 9960, Note_on_c, 4, 58, 52
9, 10049, Note_on_c, 4, 62, 0
9, 10049, Note_on_c, 4, 58, 0
9, 10080, Note_on_c, 4, 57, 52
9, 10080, Note_on_c, 4, 60, 52
9, 10169, Note_on_c, 4, 57, 0
9, 10169, Note_on_c, 4, 60, 0
9, 10200, Note_on_c, 4, 55, 52
9, 10200, Note_on_c, 4, 58, 52
9, 10289, Note_on_c, 4, 55, 0
9, 10289, Note_on_c, 4, 58, 0
9, 10320, Note_on_c, 4, 58, 52
9, 10320, Note_on_c, 4, 55, 52
9, 10409, Note_on_c, 4, 58, 0
9, 10409, Note_on_c, 4, 55, 0
9, 10440, Note_on_c, 4, 57, 52
9, 10440, Note_on_c, 4, 53, 52
9, 10529, Note_on_c, 4, 57, 0
9, 10529, Note_on_c, 4, 53, 0
9, 10560, Note_on_c, 4, 52, 52
9, 10560, Note_on_c, 4, 55, 52
9, 10904, Note_on_c, 4, 52, 0
9, 10904, Note_on_c, 4, 55, 0
9, 10920, Note_on_c, 4, 64, 52
9, 10920, Note_on_c, 4, 67, 52
9, 11009, Note_on_c, 4, 64, 0
9, 11009, Note_on_c, 4, 67, 0
9, 11040, Note_on_c, 4, 67, 52
9, 11040, Note_on_c, 4, 64, 52
9, 11129, Note_on_c, 4, 67, 0
9, 11129, Note_on_c, 4, 64, 0
9, 11160, Note_on_c, 4, 62, 52
9, 11160, Note_on_c, 4, 65, 52
9, 11249, Note_on_c, 4, 62, 0
9, 11249, Note_on_c, 4, 65, 0
9, 11280, Note_on_c, 4, 60, 52
9, 11280, Note_on_c, 4, 64, 52
9, 11369, Note_on_c, 4, 60, 0
9, 11369, Note_on_c, 4, 64, 0
9, 11400, Note_on_c, 4, 64, 52
9, 11400, Note_on_c, 4, 60, 52
9, 11489, Note_on_c, 4, 64, 0
9, 11489, Note_on_c, 4, 60, 0
9, 11520, Note_on_c, 4, 62, 52
9, 11520, Note_on_c, 4, 58, 52
9, 11609, Note_on_c, 4, 62, 0
9, 11609, Note_on_c, 4, 58, 0
9, 11640, Note_on_c, 4, 60, 52
9, 11640, Note_on_c, 4, 57, 52
9, 11729, Note_on_c, 4, 60, 0
9, 11729, Note_on_c, 4, 57, 0
9, 11760, Note_on_c, 4, 60, 52
9, 11760, Note_on_c, 4, 57, 52
9, 11849, Note_on_c, 4, 60, 0
9, 11849, Note_on_c, 4, 57, 0
9, 11880, Note_on_c, 4, 55, 52
9, 11880, Note_on_c, 4, 58, 52
9, 11969, Note_on_c, 4, 55, 0
9, 11969, Note_on_c, 4, 58, 0
9, 12000, Note_on_c, 4, 57, 52
9, 12000, Note_on_c, 4, 53, 52
9, 12359, Note_on_c, 4, 57, 0
9, 12359, Note_on_c, 4, 53, 0
9, 14160, Note_on_c, 4, 62, 84
9, 14160, Note_on_c, 4, 65, 84
9, 14399, Note_on_c, 4, 62, 0
9, 14399, Note_on_c, 4, 65, 0
9, 14400, Note_on_c, 4, 61, 76
9, 14400, Note_on_c, 4, 64, 76
9, 14504, Note_on_c, 4, 61, 0
9, 14504, Note_on_c, 4, 64, 0
9, 14520, Note_on_c, 4, 62, 76
9, 14520, Note_on_c, 4, 59, 76
9, 14864, Note_on_c, 4, 62, 0
9, 14864, Note_on_c, 4, 59, 0
9, 14880, Note_on_c, 4, 57, 76
9, 14880, Note_on_c, 4, 61, 76
9, 14999, Note_on_c, 4, 57, 0
9, 14999, Note_on_c, 4, 61, 0
9, 15240, Note_on_c, 4, 62, 76
9, 15240, Note_on_c, 4, 59, 76
9, 15584, Note_on_c, 4, 62, 0
9, 15584, Note_on_c, 4, 59, 0
9, 15600, Note_on_c, 4, 61, 76
9, 15600, Note_on_c, 4, 57, 76
9, 15719, Note_on_c, 4, 61, 0
9, 15719, Note_on_c, 4, 57, 0
9, 15960, Note_on_c, 4, 59, 76
9, 15960, Note_on_c, 4, 62, 76
9, 16304, Note_on_c, 4, 59, 0
9, 16304, Note_on_c, 4, 62, 0
9, 16320, Note_on_c, 4, 61, 76
9, 16320, Note_on_c, 4, 57, 76
9, 16409, Note_on_c, 4, 61, 0
9, 16409, Note_on_c, 4, 57, 0
9, 16440, Note_on_c, 4, 64, 76
9, 16529, Note_on_c, 4, 64, 0
9, 16560, Note_on_c, 4, 61, 76
9, 16649, Note_on_c, 4, 61, 0
9, 16680, Note_on_c, 4, 57, 76
9, 16769, Note_on_c, 4, 57, 0
9, 16800, Note_on_c, 4, 52, 76
9, 16889, Note_on_c, 4, 52, 0
9, 16920, Note_on_c, 4, 49, 76
9, 17009, Note_on_c, 4, 49, 0
9, 17040, Note_on_c, 4, 45, 76
9, 17129, Note_on_c, 4, 45, 0
9, 23160, Note_on_c, 4, 65, 52
9, 23160, Note_on_c, 4, 60, 52
9, 23399, Note_on_c, 4, 60, 0
9, 23400, Note_on_c, 4, 59, 52
9, 23504, Note_on_c, 4, 59, 0
9, 23520, Note_on_c, 4, 60, 52
9, 23759, Note_on_c, 4, 60, 0
9, 23760, Note_on_c, 4, 59, 52
9, 23864, Note_on_c, 4, 59, 0
9, 23880, Note_on_c, 4, 60, 52
9, 24104, Note_on_c, 4, 65, 0
9, 24104, Note_on_c, 4, 60, 0
9, 24120, Note_on_c, 4, 59, 84
9, 24120, Note_on_c, 4, 65, 84
9, 24224, Note_on_c, 4, 59, 0
9, 24224, Note_on_c, 4, 65, 0
9, 24240, Note_on_c, 4, 65, 84
9, 24240, Note_on_c, 4, 59, 84
9, 24359, Note_on_c, 4, 65, 0
9, 24359, Note_on_c, 4, 59, 0
9, 28920, Note_on_c, 4, 63, 52
9, 28920, Note_on_c, 4, 58, 52
9, 29159, Note_on_c, 4, 58, 0
9, 29160, Note_on_c, 4, 57, 52
9, 29264, Note_on_c, 4, 57, 0
9, 29280, Note_on_c, 4, 58, 52
9, 29519, Note_on_c, 4, 58, 0
9, 29520, Note_on_c, 4, 57, 52
9, 29624, Note_on_c, 4, 57, 0
9, 29640, Note_on_c, 4, 58, 52
9, 29864, Note_on_c, 4, 63, 0
9, 29864, Note_on_c, 4, 58, 0
9, 29880, Note_on_c, 4, 57, 84
9, 29880, Note_on_c, 4, 63, 84
9, 29984, Note_on_c, 4, 57, 0
9, 29984, Note_on_c, 4, 63, 0
9, 30000, Note_on_c, 4, 57, 84
9, 30000, Note_on_c, 4, 63, 84
9, 30119, Note_on_c, 4, 57, 0
9, 30119, Note_on_c, 4, 63, 0
9, 31320, Note_on_c, 4, 58, 48
9, 31424, Note_on_c, 4, 58, 0
9, 31440, Note_on_c, 4, 62, 48
9, 31559, Note_on_c, 4, 62, 0
9, 31560, Note_on_c, 4, 58, 48
9, 31619, Note_on_c, 4, 58, 0
9, 31680, Note_on_c, 4, 62, 48
9, 31784, Note_on_c, 4, 62, 0
9, 31800, Note_on_c, 4, 65, 48
9, 31919, Note_on_c, 4, 65, 0
9, 31920, Note_on_c, 4, 62, 48
9, 31979, Note_on_c, 4, 62, 0
9, 32040, Note_on_c, 4, 65, 48
9, 32144, Note_on_c, 4, 65, 0
9, 32160, Note_on_c, 4, 58, 48
9, 33359, Note_on_c, 4, 58, 0
9, 33360, Note_on_c, 4, 57, 52
9, 33360, Note_on_c, 4, 60, 52
9, 33464, Note_on_c, 4, 57, 0
9, 33464, Note_on_c, 4, 60, 0
9, 33480, Note_on_c, 4, 60, 52
9, 33480, Note_on_c, 4, 57, 52
9, 33569, Note_on_c, 4, 60, 0
9, 33569, Note_on_c, 4, 57, 0
9, 33600, Note_on_c, 4, 57, 52
9, 33600, Note_on_c, 4, 60, 52
9, 34799, Note_on_c, 4, 57, 0
9, 34799, Note_on_c, 4, 60, 0
9, 34800, Note_on_c, 4, 58, 52
9, 34800, Note_on_c, 4, 62, 52
9, 34904, Note_on_c, 4, 58, 0
9, 34904, Note_on_c, 4, 62, 0
9, 34920, Note_on_c, 4, 62, 52
9, 34920, Note_on_c, 4, 58, 52
9, 35009, Note_on_c, 4, 62, 0
9, 35009, Note_on_c, 4, 58, 0
9, 35038, Control_c, 4, 11, 80
9, 35040, Control_c, 4, 11, 80
9, 35040, Note_on_c, 4, 58, 76
9, 35040, Note_on_c, 4, 62, 76
9, 35147, Control_c, 4, 11, 81
9, 35254, Control_c, 4, 11, 82
9, 35362, Control_c, 4, 11, 83
9, 35469, Control_c, 4, 11, 84
9, 35576, Control_c, 4, 11, 85
9, 35683, Control_c, 4, 11, 86
9, 35791, Control_c, 4, 11, 87
9, 35898, Control_c, 4, 11, 88
9, 36005, Control_c, 4, 11, 89
9, 36112, Control_c, 4, 11, 90
9, 36220, Control_c, 4, 11, 91
9, 36239, Note_on_c, 4, 58, 0
9, 36239, Note_on_c, 4, 62, 0
9, 36240, Note_on_c, 4, 60, 76
9, 36240, Note_on_c, 4, 63, 76
9, 36327, Control_c, 4, 11, 92
9, 36344, Note_on_c, 4, 60, 0
9, 36344, Note_on_c, 4, 63, 0
9, 36360, Note_on_c, 4, 60, 76
9, 36360, Note_on_c, 4, 63, 76
9, 36434, Control_c, 4, 11, 93
9, 36449, Note_on_c, 4, 60, 0
9, 36449, Note_on_c, 4, 63, 0
9, 36480, Note_on_c, 4, 60, 76
9, 36480, Note_on_c, 4, 63, 76
9, 36541, Control_c, 4, 11, 94
9, 36649, Control_c, 4, 11, 95
9, 36756, Control_c, 4, 11, 96
9, 36863, Control_c, 4, 11, 97
9, 36970, Control_c, 4, 11, 98
9, 37077, Control_c, 4, 11, 99
9, 37185, Control_c, 4, 11, 100
9, 37292, Control_c, 4, 11, 101
9, 37399, Control_c, 4, 11, 102
9, 37506, Control_c, 4, 11, 103
9, 37614, Control_c, 4, 11, 104
9, 37679, Note_on_c, 4, 60, 0
9, 37679, Note_on_c, 4, 63, 0
9, 37680, Note_on_c, 4, 65, 76
9, 37680, Note_on_c, 4, 62, 76
9, 37721, Control_c, 4, 11, 105
9, 37784, Note_on_c, 4, 65, 0
9, 37784, Note_on_c, 4, 62, 0
9, 37800, Note_on_c, 4, 62, 76
9, 37800, Note_on_c, 4, 65, 76
9, 37828, Control_c, 4, 11, 106
9, 37889, Note_on_c, 4, 62, 0
9, 37889, Note_on_c, 4, 65, 0
9, 37920, Note_on_c, 4, 53, 76
9, 37935, Control_c, 4, 11, 107
9, 38043, Control_c, 4, 11, 108
9, 38150, Control_c, 4, 11, 109
9, 38257, Control_c, 4, 11, 110
9, 38364, Control_c, 4, 11, 111
9, 38471, Control_c, 4, 11, 112
9, 38579, Control_c, 4, 11, 113
9, 38686, Control_c, 4, 11, 114
9, 38793, Control_c, 4, 11, 115
9, 38900, Control_c, 4, 11, 116
9, 39008, Control_c, 4, 11, 117
9, 39115, Control_c, 4, 11, 118
9, 39119, Note_on_c, 4, 53, 0
9, 39120, Note_on_c, 4, 52, 76
9, 39120, Note_on_c, 4, 55, 76
9, 39222, Control_c, 4, 11, 119
9, 39224, Note_on_c, 4, 52, 0
9, 39224, Note_on_c, 4, 55, 0
9, 39240, Note_on_c, 4, 52, 76
9, 39240, Note_on_c, 4, 55, 76
9, 39329, Note_on_c, 4, 52, 0
9, 39329, Note_on_c, 4, 55, 0
9, 39329, Control_c, 4, 11, 120
9, 39360, Note_on_c, 4, 52, 76
9, 39360, Note_on_c, 4, 55, 76
9, 39437, Control_c, 4, 11, 121
9, 39544, Control_c, 4, 11, 122
9, 39651, Control_c, 4, 11, 123
9, 39758, Control_c, 4, 11, 124
9, 39866, Control_c, 4, 11, 125
9, 39973, Control_c, 4, 11, 127
9, 40304, Note_on_c, 4, 52, 0
9, 40304, Note_on_c, 4, 55, 0
9, 40320, Note_on_c, 4, 53, 76
9, 40320, Note_on_c, 4, 57, 76
9, 40424, Note_on_c, 4, 53, 0
9, 40424, Note_on_c, 4, 57, 0
9, 40440, Note_on_c, 4, 57, 76
9, 40440, Note_on_c, 4, 41, 76
9, 40559, Note_on_c, 4, 57, 0
9, 40559, Note_on_c, 4, 41, 0
9, 40560, Note_on_c, 4, 53, 76
9, 40619, Note_on_c, 4, 53, 0
9, 40680, Note_on_c, 4, 53, 76
9, 40680, Note_on_c, 4, 57, 76
9, 40751, Note_on_c, 4, 53, 0
9, 40751, Note_on_c, 4, 57, 0
9, 40760, Note_on_c, 4, 57, 76
9, 40760, Note_on_c, 4, 53, 76
9, 40799, Note_on_c, 4, 57, 0
9, 40799, Note_on_c, 4, 53, 0
9, 40800, Note_on_c, 4, 57, 76
9, 40800, Note_on_c, 4, 60, 76
9, 40919, Note_on_c, 4, 57, 0
9, 40919, Note_on_c, 4, 60, 0
9, 40920, Note_on_c, 4, 57, 76
9, 40920, Note_on_c, 4, 53, 76
9, 40979, Note_on_c, 4, 57, 0
9, 40979, Note_on_c, 4, 53, 0
9, 41040, Note_on_c, 4, 57, 76
9, 41040, Note_on_c, 4, 60, 76
9, 41144, Note_on_c, 4, 57, 0
9, 41144, Note_on_c, 4, 60, 0
9, 41160, Note_on_c, 4, 53, 84
9, 42359, Note_on_c, 4, 53, 0
9, 42360, Note_on_c, 4, 55, 84
9, 42360, Note_on_c, 4, 52, 84
9, 42464, Note_on_c, 4, 55, 0
9, 42464, Note_on_c, 4, 52, 0
9, 42480, Note_on_c, 4, 55, 84
9, 42480, Note_on_c, 4, 52, 84
9, 42569, Note_on_c, 4, 55, 0
9, 42569, Note_on_c, 4, 52, 0
9, 42600, Note_on_c, 4, 55, 84
9, 42600, Note_on_c, 4, 52, 84
9, 43799, Note_on_c, 4, 55, 0
9, 43799, Note_on_c, 4, 52, 0
9, 43800, Note_on_c, 4, 53, 84
9, 43800, Note_on_c, 4, 57, 84
9, 43904, Note_on_c, 4, 53, 0
9, 43904, Note_on_c, 4, 57, 0
9, 43920, Note_on_c, 4, 53, 84
9, 43920, Note_on_c, 4, 57, 84
9, 44009, Note_on_c, 4, 53, 0
9, 44009, Note_on_c, 4, 57, 0
9, 44040, Note_on_c, 4, 65, 52
9, 44129, Note_on_c, 4, 65, 0
9, 44160, Note_on_c, 4, 65, 52
9, 44249, Note_on_c, 4, 65, 0
9, 44280, Note_on_c, 4, 64, 52
9, 44369, Note_on_c, 4, 64, 0
9, 44400, Note_on_c, 4, 62, 52
9, 44489, Note_on_c, 4, 62, 0
9, 44520, Note_on_c, 4, 62, 52
9, 44609, Note_on_c, 4, 62, 0
9, 44640, Note_on_c, 4, 60, 52
9, 44729, Note_on_c, 4, 60, 0
9, 44760, Note_on_c, 4, 58, 52
9, 44849, Note_on_c, 4, 58, 0
9, 44880, Note_on_c, 4, 58, 52
9, 44969, Note_on_c, 4, 58, 0
9, 45000, Note_on_c, 4, 57, 52
9, 45089, Note_on_c, 4, 57, 0
9, 45120, Note_on_c, 4, 55, 52
9, 45464, Note_on_c, 4, 55, 0
9, 45480, Note_on_c, 4, 64, 52
9, 45480, Note_on_c, 4, 67, 52
9, 45569, Note_on_c, 4, 64, 0
9, 45569, Note_on_c, 4, 67, 0
9, 45600, Note_on_c, 4, 67, 52
9, 45600, Note_on_c, 4, 64, 52
9, 45689, Note_on_c, 4, 67, 0
9, 45689, Note_on_c, 4, 64, 0
9, 45720, Note_on_c, 4, 62, 52
9, 45720, Note_on_c, 4, 65, 52
9, 45809, Note_on_c, 4, 62, 0
9, 45809, Note_on_c, 4, 65, 0
9, 45840, Note_on_c, 4, 60, 52
9, 45840, Note_on_c, 4, 64, 52
9, 45929, Note_on_c, 4, 60, 0
9, 45929, Note_on_c, 4, 64, 0
9, 45960, Note_on_c, 4, 60, 52
9, 45960, Note_on_c, 4, 64, 52
9, 46049, Note_on_c, 4, 60, 0
9, 46049, Note_on_c, 4, 64, 0
9, 46080, Note_on_c, 4, 58, 52
9, 46080, Note_on_c, 4, 62, 52
9, 46169, Note_on_c, 4, 58, 0
9, 46169, Note_on_c, 4, 62, 0
9, 46200, Note_on_c, 4, 57, 52
9, 46200, Note_on_c, 4, 60, 52
9, 46289, Note_on_c, 4, 57, 0
9, 46289, Note_on_c, 4, 60, 0
9, 46320, Note_on_c, 4, 57, 52
9, 46320, Note_on_c, 4, 60, 52
9, 46409, Note_on_c, 4, 57, 0
9, 46409, Note_on_c, 4, 60, 0
9, 46440, Note_on_c, 4, 58, 52
9, 46440, Note_on_c, 4, 55, 52
9, 46529, Note_on_c, 4, 58, 0
9, 46529, Note_on_c, 4, 55, 0
9, 46560, Note_on_c, 4, 53, 52
9, 46560, Note_on_c, 4, 57, 52
9, 46919, Note_on_c, 4, 53, 0
9, 46919, Note_on_c, 4, 57, 0
9, 47640, Note_on_c, 4, 58, 52
9, 47640, Note_on_c, 4, 64, 52
9, 47729, Note_on_c, 4, 58, 0
9, 47729, Note_on_c, 4, 64, 0
9, 47760, Note_on_c, 4, 64, 52
9, 47760, Note_on_c, 4, 58, 52
9, 47849, Note_on_c, 4, 64, 0
9, 47849, Note_on_c, 4, 58, 0
9, 47880, Note_on_c, 4, 57, 52
9, 47880, Note_on_c, 4, 60, 52
9, 47969, Note_on_c, 4, 57, 0
9, 47969, Note_on_c, 4, 60, 0
9, 48000, Note_on_c, 4, 60, 52
9, 48000, Note_on_c, 4, 55, 52
9, 48224, Note_on_c, 4, 60, 0
9, 48239, Note_on_c, 4, 55, 0
9, 48240, Note_on_c, 4, 53, 52
9, 48240, Note_on_c, 4, 60, 52
9, 48359, Note_on_c, 4, 53, 0
9, 48359, Note_on_c, 4, 60, 0
9, 50880, Note_on_c, 4, 64, 52
9, 50880, Note_on_c, 4, 60, 52
9, 50984, Note_on_c, 4, 64, 0
9, 50984, Note_on_c, 4, 60, 0
9, 51000, Note_on_c, 4, 64, 52
9, 51000, Note_on_c, 4, 60, 52
9, 51104, Note_on_c, 4, 64, 0
9, 51104, Note_on_c, 4, 60, 0
9, 51120, Note_on_c, 4, 64, 52
9, 51120, Note_on_c, 4, 60, 52
9, 51239, Note_on_c, 4, 64, 0
9, 51239, Note_on_c, 4, 60, 0
9, 51600, Note_on_c, 4, 64, 52
9, 51600, Note_on_c, 4, 60, 52
9, 51704, Note_on_c, 4, 64, 0
9, 51704, Note_on_c, 4, 60, 0
9, 51720, Note_on_c, 4, 60, 52
9, 51720, Note_on_c, 4, 64, 52
9, 51824, Note_on_c, 4, 60, 0
9, 51824, Note_on_c, 4, 64, 0
9, 51840, Note_on_c, 4, 60, 52
9, 51840, Note_on_c, 4, 64, 52
9, 51959, Note_on_c, 4, 60, 0
9, 51959, Note_on_c, 4, 64, 0
9, 52320, Note_on_c, 4, 60, 52
9, 52320, Note_on_c, 4, 64, 52
9, 52424, Note_on_c, 4, 60, 0
9, 52424, Note_on_c, 4, 64, 0
9, 52440, Note_on_c, 4, 64, 52
9, 52440, Note_on_c, 4, 60, 52
9, 52544, Note_on_c, 4, 64, 0
9, 52544, Note_on_c, 4, 60, 0
9, 52560, Note_on_c, 4, 64, 52
9, 52560, Note_on_c, 4, 60, 52
9, 52679, Note_on_c, 4, 64, 0
9, 52679, Note_on_c, 4, 60, 0
9, 53040, Note_on_c, 4, 60, 52
9, 53040, Note_on_c, 4, 64, 52
9, 53144, Note_on_c, 4, 60, 0
9, 53144, Note_on_c, 4, 64, 0
9, 53160, Note_on_c, 4, 60, 52
9, 53160, Note_on_c, 4, 64, 52
9, 53264, Note_on_c, 4, 60, 0
9, 53264, Note_on_c, 4, 64, 0
9, 53280, Note_on_c, 4, 60, 52
9, 53280, Note_on_c, 4, 64, 52
9, 53384, Note_on_c, 4, 60, 0
9, 53384, Note_on_c, 4, 64, 0
9, 53400, Note_on_c, 4, 64, 84
9, 53444, Note_on_c, 4, 64, 0
9, 53445, Note_on_c, 4, 65, 84
9, 53489, Note_on_c, 4, 65, 0
9, 53490, Note_on_c, 4, 64, 84
9, 53520, Note_on_c, 4, 58, 84
9, 53534, Note_on_c, 4, 64, 0
9, 53535, Note_on_c, 4, 65, 84
9, 53579, Note_on_c, 4, 65, 0
9, 53580, Note_on_c, 4, 64, 84
9, 53624, Note_on_c, 4, 58, 0
9, 53624, Note_on_c, 4, 64, 0
9, 53625, Note_on_c, 4, 65, 84
9, 53640, Note_on_c, 4, 58, 84
9, 53669, Note_on_c, 4, 65, 0
9, 53670, Note_on_c, 4, 62, 84
9, 53714, Note_on_c, 4, 62, 0
9, 53715, Note_on_c, 4, 64, 84
9, 53744, Note_on_c, 4, 58, 0
9, 53759, Note_on_c, 4, 64, 0
9, 53760, Note_on_c, 4, 65, 84
9, 53760, Note_on_c, 4, 57, 84
9, 53864, Note_on_c, 4, 65, 0
9, 53864, Note_on_c, 4, 57, 0
9, 53880, Note_on_c, 4, 57, 84
9, 53880, Note_on_c, 4, 60, 84
9, 53984, Note_on_c, 4, 57, 0
9, 53984, Note_on_c, 4, 60, 0
9, 54000, Note_on_c, 4, 53, 84
9, 54000, Note_on_c, 4, 57, 84
9, 54104, Note_on_c, 4, 53, 0
9, 54104, Note_on_c, 4, 57, 0
9, 54120, Note_on_c, 4, 58, 84
9, 54164, Note_on_c, 4, 58, 0
9, 54165, Note_on_c, 4, 60, 84
9, 54209, Note_on_c, 4, 60, 0
9, 54210, Note_on_c, 4, 58, 84
9, 54240, Note_on_c, 4, 48, 84
9, 54254, Note_on_c, 4, 58, 0
9, 54255, Note_on_c, 4, 60, 84
9, 54299, Note_on_c, 4, 60, 0
9, 54300, Note_on_c, 4, 58, 84
9, 54344, Note_on_c, 4, 48, 0
9, 54344, Note_on_c, 4, 58, 0
9, 54345, Note_on_c, 4, 60, 84
9, 54360, Note_on_c, 4, 48, 84
9, 54389, Note_on_c, 4, 60, 0
9, 54390, Note_on_c, 4, 57, 84
9, 54434, Note_on_c, 4, 57, 0
9, 54435, Note_on_c, 4, 58, 84
9, 54464, Note_on_c, 4, 48, 0
9, 54479, Note_on_c, 4, 58, 0
9, 54480, Note_on_c, 4, 57, 84
9, 54480, Note_on_c, 4, 53, 84
9, 54584, Note_on_c, 4, 57, 0
9, 54584, Note_on_c, 4, 53, 0
9, 54600, Note_on_c, 4, 60, 84
9, 54600, Note_on_c, 4, 57, 84
9, 54704, Note_on_c, 4, 60, 0
9, 54704, Note_on_c, 4, 57, 0
9, 54720, Note_on_c, 4, 65, 84
9, 54720, Note_on_c, 4, 53, 84
9, 54824, Note_on_c, 4, 65, 0
9, 54824, Note_on_c, 4, 53, 0
9, 54840, Note_on_c, 4, 64, 84
9, 54884, Note_on_c, 4, 64, 0
9, 54885, Note_on_c, 4, 65, 84
9, 54929, Note_on_c, 4, 65, 0
9, 54930, Note_on_c, 4, 64, 84
9, 54960, Note_on_c, 4, 58, 84
9, 54974, Note_on_c, 4, 64, 0
9, 54975, Note_on_c, 4, 65, 84
9, 55019, Note_on_c, 4, 65, 0
9, 55020, Note_on_c, 4, 64, 84
9, 55064, Note_on_c, 4, 58, 0
9, 55064, Note_on_c, 4, 64, 0
9, 55065, Note_on_c, 4, 65, 84
9, 55080, Note_on_c, 4, 58, 84
9, 55109, Note_on_c, 4, 65, 0
9, 55110, Note_on_c, 4, 62, 84
9, 55154, Note_on_c, 4, 62, 0
9, 55155, Note_on_c, 4, 64, 84
9, 55184, Note_on_c, 4, 58, 0
9, 55199, Note_on_c, 4, 64, 0
9, 55200, Note_on_c, 4, 57, 84
9, 55200, Note_on_c, 4, 65, 84
9, 55304, Note_on_c, 4, 57, 0
9, 55304, Note_on_c, 4, 65, 0
9, 55320, Note_on_c, 4, 60, 84
9, 55320, Note_on_c, 4, 57, 84
9, 55424, Note_on_c, 4, 60, 0
9, 55424, Note_on_c, 4, 57, 0
9, 55440, Note_on_c, 4, 57, 84
9, 55440, Note_on_c, 4, 53, 84
9, 55544, Note_on_c, 4, 57, 0
9, 55544, Note_on_c, 4, 53, 0
9, 55560, Note_on_c, 4, 64, 84
9, 55604, Note_on_c, 4, 64, 0
9, 55605, Note_on_c, 4, 65, 84
9, 55649, Note_on_c, 4, 65, 0
9, 55650, Note_on_c, 4, 64, 84
9, 55680, Note_on_c, 4, 55, 84
9, 55694, Note_on_c, 4, 64, 0
9, 55695, Note_on_c, 4, 65, 84
9, 55739, Note_on_c, 4, 65, 0
9, 55740, Note_on_c, 4, 64, 84
9, 55784, Note_on_c, 4, 55, 0
9, 55784, Note_on_c, 4, 64, 0
9, 55785, Note_on_c, 4, 65, 84
9, 55800, Note_on_c, 4, 55, 84
9, 55829, Note_on_c, 4, 65, 0
9, 55830, Note_on_c, 4, 62, 84
9, 55874, Note_on_c, 4, 62, 0
9, 55875, Note_on_c, 4, 64, 84
9, 55904, Note_on_c, 4, 55, 0
9, 55919, Note_on_c, 4, 64, 0
9, 55920, Note_on_c, 4, 57, 84
9, 55920, Note_on_c, 4, 65, 84
9, 56024, Note_on_c, 4, 57, 0
9, 56024, Note_on_c, 4, 65, 0
9, 56040, Note_on_c, 4, 57, 84
9, 56040, Note_on_c, 4, 60, 84
9, 56144, Note_on_c, 4, 57, 0
9, 56144, Note_on_c, 4, 60, 0
9, 56160, Note_on_c, 4, 53, 84
9, 56160, Note_on_c, 4, 57, 84
9, 56264, Note_on_c, 4, 53, 0
9, 56264, Note_on_c, 4, 57, 0
9, 56280, Note_on_c, 4, 64, 84
9, 56324, Note_on_c, 4, 64, 0
9, 56325, Note_on_c, 4, 65, 84
9, 56369, Note_on_c, 4, 65, 0
9, 56370, Note_on_c, 4, 64, 84
9, 56400, Note_on_c, 4, 58, 84
9, 56414, Note_on_c, 4, 64, 0
9, 56415, Note_on_c, 4, 65, 84
9, 56459, Note_on_c, 4, 65, 0
9, 56460, Note_on_c, 4, 64, 84
9, 56504, Note_on_c, 4, 58, 0
9, 56504, Note_on_c, 4, 64, 0
9, 56505, Note_on_c, 4, 65, 84
9, 56520, Note_on_c, 4, 58, 84
9, 56549, Note_on_c, 4, 65, 0
9, 56550, Note_on_c, 4, 62, 84
9, 56594, Note_on_c, 4, 62, 0
9, 56595, Note_on_c, 4, 64, 84
9, 56624, Note_on_c, 4, 58, 0
9, 56639, Note_on_c, 4, 64, 0
9, 56640, Note_on_c, 4, 57, 84
9, 56640, Note_on_c, 4, 65, 84
9, 56744, Note_on_c, 4, 57, 0
9, 56744, Note_on_c, 4, 65, 0
9, 56760, Note_on_c, 4, 60, 84
9, 56864, Note_on_c, 4, 60, 0
9, 56880, Note_on_c, 4, 57, 84
9, 56984, Note_on_c, 4, 57, 0
9, 57000, Note_on_c, 4, 53, 84
9, 57104, Note_on_c, 4, 53, 0
9, 57120, Note_on_c, 4, 60, 84
9, 57224, Note_on_c, 4, 60, 0
9, 57240, Note_on_c, 4, 57, 84
9, 57344, Note_on_c, 4, 57, 0
9, 57360, Note_on_c, 4, 53, 84
9, 57464, Note_on_c, 4, 53, 0
9, 57480, Note_on_c, 4, 48, 84
9, 57584, Note_on_c, 4, 48, 0
9, 57600, Note_on_c, 4, 41, 84
9, 57671, Note_on_c, 4, 41, 0
9, 57680, Note_on_c, 4, 41, 84
9, 57719, Note_on_c, 4, 41, 0
9, 57720, Note_on_c, 4, 45, 92
9, 57839, Note_on_c, 4, 45, 0
9, 57840, Note_on_c, 4, 41, 84
9, 57899, Note_on_c, 4, 41, 0
9, 59040, Note_on_c, 4, 53, 84
9, 59040, Note_on_c, 4, 41, 84
9, 59111, Note_on_c, 4, 53, 0
9, 59111, Note_on_c, 4, 41, 0
9, 59120, Note_on_c, 4, 53, 84
9, 59120, Note_on_c, 4, 41, 84
9, 59159, Note_on_c, 4, 53, 0
9, 59159, Note_on_c, 4, 41, 0
9, 59160, Note_on_c, 4, 45, 92
9, 59160, Note_on_c, 4, 57, 92
9, 59279, Note_on_c, 4, 45, 0
9, 59279, Note_on_c, 4, 57, 0
9, 59280, Note_on_c, 4, 53, 84
9, 59280, Note_on_c, 4, 41, 84
9, 59339, Note_on_c, 4, 53, 0
9, 59339, Note_on_c, 4, 41, 0
9, 59400, Note_on_c, 4, 41, 84
9, 59400, Note_on_c, 4, 53, 84
9, 59471, Note_on_c, 4, 41, 0
9, 59471, Note_on_c, 4, 53, 0
9, 59480, Note_on_c, 4, 41, 84
9, 59480, Note_on_c, 4, 53, 84
9, 59519, Note_on_c, 4, 41, 0
9, 59519, Note_on_c, 4, 53, 0
9, 59520, Note_on_c, 4, 57, 92
9, 59520, Note_on_c, 4, 45, 92
9, 59639, Note_on_c, 4, 57, 0
9, 59639, Note_on_c, 4, 45, 0
9, 59640, Note_on_c, 4, 53, 84
9, 59640, Note_on_c, 4, 41, 84
9, 59744, Note_on_c, 4, 53, 0
9, 59744, Note_on_c, 4, 41, 0
9, 59760, Note_on_c, 4, 41, 84
9, 59760, Note_on_c, 4, 53, 84
9, 59831, Note_on_c, 4, 41, 0
9, 59831, Note_on_c, 4, 53, 0
9, 59840, Note_on_c, 4, 41, 84
9, 59840, Note_on_c, 4, 53, 84
9, 59879, Note_on_c, 4, 41, 0
9, 59879, Note_on_c, 4, 53, 0
9, 59880, Note_on_c, 4, 57, 92
9, 59880, Note_on_c, 4, 45, 92
9, 59999, Note_on_c, 4, 57, 0
9, 59999, Note_on_c, 4, 45, 0
9, 60000, Note_on_c, 4, 41, 84
9, 60000, Note_on_c, 4, 53, 84
9, 60104, Note_on_c, 4, 41, 0
9, 60104, Note_on_c, 4, 53, 0
9, 60120, Note_on_c, 4, 53, 84
9, 60120, Note_on_c, 4, 41, 84
9, 60191, Note_on_c, 4, 53, 0
9, 60191, Note_on_c, 4, 41, 0
9, 60200, Note_on_c, 4, 41, 84
9, 60200, Note_on_c, 4, 53, 84
9, 60239, Note_on_c, 4, 41, 0
9, 60239, Note_on_c, 4, 53, 0
9, 60240, Note_on_c, 4, 57, 92
9, 60240, Note_on_c, 4, 45, 92
9, 60359, Note_on_c, 4, 57, 0
9, 60359, Note_on_c, 4, 45, 0
9, 60360, Note_on_c, 4, 41, 84
9, 60360, Note_on_c, 4, 53, 84
9, 60464, Note_on_c, 4, 41, 0
9, 60464, Note_on_c, 4, 53, 0
9, 60480, Note_on_c, 4, 41, 84
9, 60480, Note_on_c, 4, 53, 84
9, 60569, Note_on_c, 4, 41, 0
9, 60569, Note_on_c, 4, 53, 0
9, 60600, Note_on_c, 4, 45, 84
9, 60600, Note_on_c, 4, 57, 84
9, 61904, Note_on_c, 4, 45, 0
9, 61904, Note_on_c, 4, 57, 0
9, 67800, Note_on_c, 4, 65, 52
9, 67800, Note_on_c, 4, 60, 52
9, 68039, Note_on_c, 4, 60, 0
9, 68040, Note_on_c, 4, 59, 52
9, 68144, Note_on_c, 4, 59, 0
9, 68160, Note_on_c, 4, 60, 52
9, 68399, Note_on_c, 4, 60, 0
9, 68400, Note_on_c, 4, 59, 52
9, 68504, Note_on_c, 4, 59, 0
9, 68520, Note_on_c, 4, 60, 52
9, 68744, Note_on_c, 4, 65, 0
9, 68744, Note_on_c, 4, 60, 0
9, 68760, Note_on_c, 4, 59, 84
9, 68760, Note_on_c, 4, 65, 84
9, 68864, Note_on_c, 4, 59, 0
9, 68864, Note_on_c, 4, 65, 0
9, 68880, Note_on_c, 4, 59, 84
9, 68880, Note_on_c, 4, 65, 84
9, 68999, Note_on_c, 4, 59, 0
9, 68999, Note_on_c, 4, 65, 0
9, 73560, Note_on_c, 4, 58, 52
9, 73560, Note_on_c, 4, 63, 52
9, 73799, Note_on_c, 4, 58, 0
9, 73800, Note_on_c, 4, 57, 52
9, 73904, Note_on_c, 4, 57, 0
9, 73920, Note_on_c, 4, 58, 52
9, 74159, Note_on_c, 4, 58, 0
9, 74160, Note_on_c, 4, 57, 52
9, 74264, Note_on_c, 4, 57, 0
9, 74280, Note_on_c, 4, 58, 52
9, 74504, Note_on_c, 4, 63, 0
9, 74504, Note_on_c, 4, 58, 0
9, 74520, Note_on_c, 4, 63, 84
9, 74520, Note_on_c, 4, 57, 84
9, 74624, Note_on_c, 4, 63, 0
9, 74624, Note_on_c, 4, 57, 0
9, 74640, Note_on_c, 4, 57, 84
9, 74640, Note_on_c, 4, 63, 84
9, 74759, Note_on_c, 4, 57, 0
9, 74759, Note_on_c, 4, 63, 0
9, 75960, Note_on_c, 4, 58, 48
9, 76064, Note_on_c, 4, 58, 0
9, 76080, Note_on_c, 4, 62, 48
9, 76199, Note_on_c, 4, 62, 0
9, 76200, Note_on_c, 4, 58, 48
9, 76259, Note_on_c, 4, 58, 0
9, 76320, Note_on_c, 4, 62, 48
9, 76424, Note_on_c, 4, 62, 0
9, 76440, Note_on_c, 4, 65, 48
9, 76559, Note_on_c, 4, 65, 0
9, 76560, Note_on_c, 4, 62, 48
9, 76619, Note_on_c, 4, 62, 0
9, 76680, Note_on_c, 4, 65, 48
9, 76784, Note_on_c, 4, 65, 0
9, 76800, Note_on_c, 4, 58, 48
9, 77999, Note_on_c, 4, 58, 0
9, 78000, Note_on_c, 4, 57, 52
9, 78000, Note_on_c, 4, 60, 52
9, 78104, Note_on_c, 4, 57, 0
9, 78104, Note_on_c, 4, 60, 0
9, 78120, Note_on_c, 4, 57, 52
9, 78120, Note_on_c, 4, 60, 52
9, 78209, Note_on_c, 4, 57, 0
9, 78209, Note_on_c, 4, 60, 0
9, 78240, Note_on_c, 4, 57, 52
9, 78240, Note_on_c, 4, 60, 52
9, 79439, Note_on_c, 4, 57, 0
9, 79439, Note_on_c, 4, 60, 0
9, 79440, Note_on_c, 4, 58, 52
9, 79440, Note_on_c, 4, 62, 52
9, 79544, Note_on_c, 4, 58, 0
9, 79544, Note_on_c, 4, 62, 0
9, 79560, Note_on_c, 4, 58, 52
9, 79560, Note_on_c, 4, 62, 52
9, 79649, Note_on_c, 4, 58, 0
9, 79649, Note_on_c, 4, 62, 0
9, 79678, Control_c, 4, 11, 80
9, 79680, Note_on_c, 4, 58, 76
9, 79680, Note_on_c, 4, 62, 76
9, 79680, Control_c, 4, 11, 80
9, 79787, Control_c, 4, 11, 81
9, 79894, Control_c, 4, 11, 82
9, 80002, Control_c, 4, 11, 83
9, 80109, Control_c, 4, 11, 84
9, 80216, Control_c, 4, 11, 85
9, 80323, Control_c, 4, 11, 86
9, 80431, Control_c, 4, 11, 87
9, 80538, Control_c, 4, 11, 88
9, 80645, Control_c, 4, 11, 89
9, 80752, Control_c, 4, 11, 90
9, 80860, Control_c, 4, 11, 91
9, 80879, Note_on_c, 4, 58, 0
9, 80879, Note_on_c, 4, 62, 0
9, 80880, Note_on_c, 4, 60, 76
9, 80880, Note_on_c, 4, 63, 76
9, 80967, Control_c, 4, 11, 92
9, 80984, Note_on_c, 4, 60, 0
9, 80984, Note_on_c, 4, 63, 0
9, 81000, Note_on_c, 4, 63, 76
9, 81000, Note_on_c, 4, 60, 76
9, 81074, Control_c, 4, 11, 93
9, 81089, Note_on_c, 4, 63, 0
9, 81089, Note_on_c, 4, 60, 0
9, 81120, Note_on_c, 4, 63, 76
9, 81120, Note_on_c, 4, 60, 76
9, 81181, Control_c, 4, 11, 94
9, 81289, Control_c, 4, 11, 95
9, 81396, Control_c, 4, 11, 96
9, 81503, Control_c, 4, 11, 97
9, 81610, Control_c, 4, 11, 98
9, 81717, Control_c, 4, 11, 99
9, 81825, Control_c, 4, 11, 100
9, 81932, Control_c, 4, 11, 101
9, 82039, Control_c, 4, 11, 102
9, 82146, Control_c, 4, 11, 103
9, 82254, Control_c, 4, 11, 104
9, 82319, Note_on_c, 4, 63, 0
9, 82319, Note_on_c, 4, 60, 0
9, 82320, Note_on_c, 4, 62, 76
9, 82320, Note_on_c, 4, 65, 76
9, 82361, Control_c, 4, 11, 105
9, 82424, Note_on_c, 4, 62, 0
9, 82424, Note_on_c, 4, 65, 0
9, 82440, Note_on_c, 4, 65, 76
9, 82440, Note_on_c, 4, 62, 76
9, 82468, Control_c, 4, 11, 106
9, 82529, Note_on_c, 4, 65, 0
9, 82529, Note_on_c, 4, 62, 0
9, 82560, Note_on_c, 4, 53, 76
9, 82575, Control_c, 4, 11, 107
9, 82683, Control_c, 4, 11, 108
9, 82790, Control_c, 4, 11, 109
9, 82897, Control_c, 4, 11, 110
9, 83004, Control_c, 4, 11, 111
9, 83111, Control_c, 4, 11, 112
9, 83219, Control_c, 4, 11, 113
9, 83326, Control_c, 4, 11, 114
9, 83433, Control_c, 4, 11, 115
9, 83540, Control_c, 4, 11, 116
9, 83648, Control_c, 4, 11, 117
9, 83755, Control_c, 4, 11, 118
9, 83759, Note_on_c, 4, 53, 0
9, 83760, Note_on_c, 4, 52, 76
9, 83760, Note_on_c, 4, 55, 76
9, 83862, Control_c, 4, 11, 119
9, 83864, Note_on_c, 4, 52, 0
9, 83864, Note_on_c, 4, 55, 0
9, 83880, Note_on_c, 4, 55, 76
9, 83880, Note_on_c, 4, 52, 76
9, 83969, Note_on_c, 4, 55, 0
9, 83969, Note_on_c, 4, 52, 0
9, 83969, Control_c, 4, 11, 120
9, 84000, Note_on_c, 4, 52, 76
9, 84000, Note_on_c, 4, 55, 76
9, 84077, Control_c, 4, 11, 121
9, 84184, Control_c, 4, 11, 122
9, 84291, Control_c, 4, 11, 123
9, 84398, Control_c, 4, 11, 124
9, 84506, Control_c, 4, 11, 125
9, 84613, Control_c, 4, 11, 127
9, 84944, Note_on_c, 4, 52, 0
9, 84944, Note_on_c, 4, 55, 0
9, 84960, Note_on_c, 4, 57, 76
9, 84960, Note_on_c, 4, 53, 76
9, 85064, Note_on_c, 4, 57, 0
9, 85064, Note_on_c, 4, 53, 0
9, 85080, Note_on_c, 4, 57, 76
9, 85080, Note_on_c, 4, 41, 76
9, 85199, Note_on_c, 4, 57, 0
9, 85199, Note_on_c, 4, 41, 0
9, 85200, Note_on_c, 4, 53, 76
9, 85259, Note_on_c, 4, 53, 0
9, 85320, Note_on_c, 4, 53, 76
9, 85320, Note_on_c, 4, 57, 76
9, 85391, Note_on_c, 4, 53, 0
9, 85391, Note_on_c, 4, 57, 0
9, 85400, Note_on_c, 4, 53, 76
9, 85400, Note_on_c, 4, 57, 76
9, 85439, Note_on_c, 4, 53, 0
9, 85439, Note_on_c, 4, 57, 0
9, 85440, Note_on_c, 4, 60, 76
9, 85440, Note_on_c, 4, 57, 76
9, 85559, Note_on_c, 4, 60, 0
9, 85559, Note_on_c, 4, 57, 0
9, 85560, Note_on_c, 4, 53, 76
9, 85560, Note_on_c, 4, 57, 76
9, 85619, Note_on_c, 4, 53, 0
9, 85619, Note_on_c, 4, 57, 0
9, 85680, Note_on_c, 4, 60, 76
9, 85680, Note_on_c, 4, 57, 76
9, 85784, Note_on_c, 4, 60, 0
9, 85784, Note_on_c, 4, 57, 0
9, 85800, Note_on_c, 4, 53, 84
9, 86999, Note_on_c, 4, 53, 0
9, 87000, Note_on_c, 4, 52, 84
9, 87000, Note_on_c, 4, 55, 84
9, 87104, Note_on_c, 4, 52, 0
9, 87104, Note_on_c, 4, 55, 0
9, 87120, Note_on_c, 4, 52, 84
9, 87120, Note_on_c, 4, 55, 84
9, 87209, Note_on_c, 4, 52, 0
9, 87209, Note_on_c, 4, 55, 0
9, 87240, Note_on_c, 4, 55, 84
9, 87240, Note_on_c, 4, 52, 84
9, 88439, Note_on_c, 4, 55, 0
9, 88439, Note_on_c, 4, 52, 0
9, 88440, Note_on_c, 4, 53, 84
9, 88440, Note_on_c, 4, 57, 84
9, 88544, Note_on_c, 4, 53, 0
9, 88544, Note_on_c, 4, 57, 0
9, 88560, Note_on_c, 4, 53, 84
9, 88560, Note_on_c, 4, 57, 84
9, 88649, Note_on_c, 4, 53, 0
9, 88649, Note_on_c, 4, 57, 0
9, 88680, Note_on_c, 4, 65, 52
9, 88769, Note_on_c, 4, 65, 0
9, 88800, Note_on_c, 4, 65, 52
9, 88889, Note_on_c, 4, 65, 0
9, 88920, Note_on_c, 4, 64, 52
9, 89009, Note_on_c, 4, 64, 0
9, 89040, Note_on_c, 4, 62, 52
9, 89129, Note_on_c, 4, 62, 0
9, 89160, Note_on_c, 4, 62, 52
9, 89249, Note_on_c, 4, 62, 0
9, 89280, Note_on_c, 4, 60, 52
9, 89369, Note_on_c, 4, 60, 0
9, 89400, Note_on_c, 4, 58, 52
9, 89489, Note_on_c, 4, 58, 0
9, 89520, Note_on_c, 4, 58, 52
9, 89609, Note_on_c, 4, 58, 0
9, 89640, Note_on_c, 4, 57, 52
9, 89729, Note_on_c, 4, 57, 0
9, 89760, Note_on_c, 4, 55, 52
9, 90104, Note_on_c, 4, 55, 0
9, 90120, Note_on_c, 4, 64, 52
9, 90120, Note_on_c, 4, 67, 52
9, 90209, Note_on_c, 4, 64, 0
9, 90209, Note_on_c, 4, 67, 0
9, 90240, Note_on_c, 4, 64, 52
9, 90240, Note_on_c, 4, 67, 52
9, 90329, Note_on_c, 4, 64, 0
9, 90329, Note_on_c, 4, 67, 0
9, 90360, Note_on_c, 4, 62, 52
9, 90360, Note_on_c, 4, 65, 52
9, 90449, Note_on_c, 4, 62, 0
9, 90449, Note_on_c, 4, 65, 0
9, 90480, Note_on_c, 4, 60, 52
9, 90480, Note_on_c, 4, 64, 52
9, 90569, Note_on_c, 4, 60, 0
9, 90569, Note_on_c, 4, 64, 0
9, 90600, Note_on_c, 4, 64, 52
9, 90600, Note_on_c, 4, 60, 52
9, 90689, Note_on_c, 4, 64, 0
9, 90689, Note_on_c, 4, 60, 0
9, 90720, Note_on_c, 4, 62, 52
9, 90720, Note_on_c, 4, 58, 52
9, 90809, Note_on_c, 4, 62, 0
9, 90809, Note_on_c, 4, 58, 0
9, 90840, Note_on_c, 4, 57, 52
9, 90840, Note_on_c, 4, 60, 52
9, 90929, Note_on_c, 4, 57, 0
9, 90929, Note_on_c, 4, 60, 0
9, 90960, Note_on_c, 4, 57, 52
9, 90960, Note_on_c, 4, 60, 52
9, 91049, Note_on_c, 4, 57, 0
9, 91049, Note_on_c, 4, 60, 0
9, 91080, Note_on_c, 4, 58, 52
9, 91080, Note_on_c, 4, 55, 52
9, 91169, Note_on_c, 4, 58, 0
9, 91169, Note_on_c, 4, 55, 0
9, 91200, Note_on_c, 4, 57, 52
9, 91200, Note_on_c, 4, 53, 52
9, 91559, Note_on_c, 4, 57, 0
9, 91559, Note_on_c, 4, 53, 0
9, 92280, Note_on_c, 4, 58, 52
9, 92280, Note_on_c, 4, 64, 52
9, 92369, Note_on_c, 4, 58, 0
9, 92369, Note_on_c, 4, 64, 0
9, 92400, Note_on_c, 4, 58, 52
9, 92400, Note_on_c, 4, 64, 52
9, 92489, Note_on_c, 4, 58, 0
9, 92489, Note_on_c, 4, 64, 0
9, 92520, Note_on_c, 4, 60, 52
9, 92520, Note_on_c, 4, 57, 52
9, 92609, Note_on_c, 4, 60, 0
9, 92609, Note_on_c, 4, 57, 0
9, 92640, Note_on_c, 4, 55, 52
9, 92640, Note_on_c, 4, 60, 52
9, 92864, Note_on_c, 4, 60, 0
9, 92879, Note_on_c, 4, 55, 0
9, 92880, Note_on_c, 4, 60, 52
9, 92880, Note_on_c, 4, 53, 52
9, 92999, Note_on_c, 4, 60, 0
9, 92999, Note_on_c, 4, 53, 0
9, 95520, Note_on_c, 4, 64, 52
9, 95520, Note_on_c, 4, 60, 52
9, 95624, Note_on_c, 4, 64, 0
9, 95624, Note_on_c, 4, 60, 0
9, 95640, Note_on_c, 4, 60, 52
9, 95640, Note_on_c, 4, 64, 52
9, 95744, Note_on_c, 4, 60, 0
9, 95744, Note_on_c, 4, 64, 0
9, 95760, Note_on_c, 4, 64, 52
9, 95760, Note_on_c, 4, 60, 52
9, 95879, Note_on_c, 4, 64, 0
9, 95879, Note_on_c, 4, 60, 0
9, 96240, Note_on_c, 4, 60, 52
9, 96240, Note_on_c, 4, 64, 52
9, 96344, Note_on_c, 4, 60, 0
9, 96344, Note_on_c, 4, 64, 0
9, 96360, Note_on_c, 4, 60, 52
9, 96360, Note_on_c, 4, 64, 52
9, 96464, Note_on_c, 4, 60, 0
9, 96464, Note_on_c, 4, 64, 0
9, 96480, Note_on_c, 4, 60, 52
9, 96480, Note_on_c, 4, 64, 52
9, 96599, Note_on_c, 4, 60, 0
9, 96599, Note_on_c, 4, 64, 0
9, 96960, Note_on_c, 4, 64, 52
9, 96960, Note_on_c, 4, 60, 52
9, 97064, Note_on_c, 4, 64, 0
9, 97064, Note_on_c, 4, 60, 0
9, 97080, Note_on_c, 4, 60, 52
9, 97080, Note_on_c, 4, 64, 52
9, 97184, Note_on_c, 4, 60, 0
9, 97184, Note_on_c, 4, 64, 0
9, 97200, Note_on_c, 4, 60, 52
9, 97200, Note_on_c, 4, 64, 52
9, 97319, Note_on_c, 4, 60, 0
9, 97319, Note_on_c, 4, 64, 0
9, 97680, Note_on_c, 4, 60, 52
9, 97680, Note_on_c, 4, 64, 52
9, 97784, Note_on_c, 4, 60, 0
9, 97784, Note_on_c, 4, 64, 0
9, 97800, Note_on_c, 4, 60, 52
9, 97800, Note_on_c, 4, 64, 52
9, 97904, Note_on_c, 4, 60, 0
9, 97904, Note_on_c, 4, 64, 0
9, 97920, Note_on_c, 4, 64, 52
9, 97920, Note_on_c, 4, 60, 52
9, 98024, Note_on_c, 4, 64, 0
9, 98024, Note_on_c, 4, 60, 0
9, 98040, Note_on_c, 4, 64, 84
9, 98084, Note_on_c, 4, 64, 0
9, 98085, Note_on_c, 4, 65, 84
9, 98129, Note_on_c, 4, 65, 0
9, 98130, Note_on_c, 4, 64, 84
9, 98160, Note_on_c, 4, 58, 84
9, 98174, Note_on_c, 4, 64, 0
9, 98175, Note_on_c, 4, 65, 84
9, 98219, Note_on_c, 4, 65, 0
9, 98220, Note_on_c, 4, 64, 84
9, 98264, Note_on_c, 4, 58, 0
9, 98264, Note_on_c, 4, 64, 0
9, 98265, Note_on_c, 4, 65, 84
9, 98280, Note_on_c, 4, 58, 84
9, 98309, Note_on_c, 4, 65, 0
9, 98310, Note_on_c, 4, 62, 84
9, 98354, Note_on_c, 4, 62, 0
9, 98355, Note_on_c, 4, 64, 84
9, 98384, Note_on_c, 4, 58, 0
9, 98399, Note_on_c, 4, 64, 0
9, 98400, Note_on_c, 4, 57, 84
9, 98400, Note_on_c, 4, 65, 84
9, 98504, Note_on_c, 4, 57, 0
9, 98504, Note_on_c, 4, 65, 0
9, 98520, Note_on_c, 4, 60, 84
9, 98520, Note_on_c, 4, 57, 84
9, 98624, Note_on_c, 4, 60, 0
9, 98624, Note_on_c, 4, 57, 0
9, 98640, Note_on_c, 4, 53, 84
9, 98640, Note_on_c, 4, 57, 84
9, 98744, Note_on_c, 4, 53, 0
9, 98744, Note_on_c, 4, 57, 0
9, 98760, Note_on_c, 4, 58, 84
9, 98804, Note_on_c, 4, 58, 0
9, 98805, Note_on_c, 4, 60, 84
9, 98849, Note_on_c, 4, 60, 0
9, 98850, Note_on_c, 4, 58, 84
9, 98880, Note_on_c, 4, 48, 84
9, 98894, Note_on_c, 4, 58, 0
9, 98895, Note_on_c, 4, 60, 84
9, 98939, Note_on_c, 4, 60, 0
9, 98940, Note_on_c, 4, 58, 84
9, 98984, Note_on_c, 4, 48, 0
9, 98984, Note_on_c, 4, 58, 0
9, 98985, Note_on_c, 4, 60, 84
9, 99000, Note_on_c, 4, 48, 84
9, 99029, Note_on_c, 4, 60, 0
9, 99030, Note_on_c, 4, 57, 84
9, 99074, Note_on_c, 4, 57, 0
9, 99075, Note_on_c, 4, 58, 84
9, 99104, Note_on_c, 4, 48, 0
9, 99119, Note_on_c, 4, 58, 0
9, 99120, Note_on_c, 4, 53, 84
9, 99120, Note_on_c, 4, 57, 84
9, 99224, Note_on_c, 4, 53, 0
9, 99224, Note_on_c, 4, 57, 0
9, 99240, Note_on_c, 4, 57, 84
9, 99240, Note_on_c, 4, 60, 84
9, 99344, Note_on_c, 4, 57, 0
9, 99344, Note_on_c, 4, 60, 0
9, 99360, Note_on_c, 4, 65, 84
9, 99360, Note_on_c, 4, 53, 84
9, 99464, Note_on_c, 4, 65, 0
9, 99464, Note_on_c, 4, 53, 0
9, 99480, Note_on_c, 4, 64, 84
9, 99524, Note_on_c, 4, 64, 0
9, 99525, Note_on_c, 4, 65, 84
9, 99569, Note_on_c, 4, 65, 0
9, 99570, Note_on_c, 4, 64, 84
9, 99600, Note_on_c, 4, 58, 84
9, 99614, Note_on_c, 4, 64, 0
9, 99615, Note_on_c, 4, 65, 84
9, 99659, Note_on_c, 4, 65, 0
9, 99660, Note_on_c, 4, 64, 84
9, 99704, Note_on_c, 4, 58, 0
9, 99704, Note_on_c, 4, 64, 0
9, 99705, Note_on_c, 4, 65, 84
9, 99720, Note_on_c, 4, 58, 84
9, 99749, Note_on_c, 4, 65, 0
9, 99750, Note_on_c, 4, 62, 84
9, 99794, Note_on_c, 4, 62, 0
9, 99795, Note_on_c, 4, 64, 84
9, 99824, Note_on_c, 4, 58, 0
9, 99839, Note_on_c, 4, 64, 0
9, 99840, Note_on_c, 4, 65, 84
9, 99840, Note_on_c, 4, 57, 84
9, 99944, Note_on_c, 4, 65, 0
9, 99944, Note_on_c, 4, 57, 0
9, 99960, Note_on_c, 4, 60, 84
9, 99960, Note_on_c, 4, 57, 84
9, 100064, Note_on_c, 4, 60, 0
9, 100064, Note_on_c, 4, 57, 0
9, 100080, Note_on_c, 4, 57, 84
9, 100080, Note_on_c, 4, 53, 84
9, 100184, Note_on_c, 4, 57, 0
9, 100184, Note_on_c, 4, 53, 0
9, 100200, Note_on_c, 4, 64, 84
9, 100244, Note_on_c, 4, 64, 0
9, 100245, Note_on_c, 4, 65, 84
9, 100289, Note_on_c, 4, 65, 0
9, 100290, Note_on_c, 4, 64, 84
9, 100320, Note_on_c, 4, 55, 84
9, 100334, Note_on_c, 4, 64, 0
9, 100335, Note_on_c, 4, 65, 84
9, 100379, Note_on_c, 4, 65, 0
9, 100380, Note_on_c, 4, 64, 84
9, 100424, Note_on_c, 4, 55, 0
9, 100424, Note_on_c, 4, 64, 0
9, 100425, Note_on_c, 4, 65, 84
9, 100440, Note_on_c, 4, 55, 84
9, 100469, Note_on_c, 4, 65, 0
9, 100470, Note_on_c, 4, 62, 84
9, 100514, Note_on_c, 4, 62, 0
9, 100515, Note_on_c, 4, 64, 84
9, 100544, Note_on_c, 4, 55, 0
9, 100559, Note_on_c, 4, 64, 0
9, 100560, Note_on_c, 4, 57, 84
9, 100560, Note_on_c, 4, 65, 84
9, 100664, Note_on_c, 4, 57, 0
9, 100664, Note_on_c, 4, 65, 0
9, 100680, Note_on_c, 4, 57, 84
9, 100680, Note_on_c, 4, 60, 84
9, 100784, Note_on_c, 4, 57, 0
9, 100784, Note_on_c, 4, 60, 0
9, 100800, Note_on_c, 4, 53, 84
9, 100800, Note_on_c, 4, 57, 84
9, 100904, Note_on_c, 4, 53, 0
9, 100904, Note_on_c, 4, 57, 0
9, 100920, Note_on_c, 4, 64, 84
9, 100964, Note_on_c, 4, 64, 0
9, 100965, Note_on_c, 4, 65, 84
9, 101009, Note_on_c, 4, 65, 0
9, 101010, Note_on_c, 4, 64, 84
9, 101040, Note_on_c, 4, 58, 84
9, 101054, Note_on_c, 4, 64, 0
9, 101055, Note_on_c, 4, 65, 84
9, 101099, Note_on_c, 4, 65, 0
9, 101100, Note_on_c, 4, 64, 84
9, 101144, Note_on_c, 4, 58, 0
9, 101144, Note_on_c, 4, 64, 0
9, 101145, Note_on_c, 4, 65, 84
9, 101160, Note_on_c, 4, 58, 84
9, 101189, Note_on_c, 4, 65, 0
9, 101190, Note_on_c, 4, 62, 84
9, 101234, Note_on_c, 4, 62, 0
9, 101235, Note_on_c, 4, 64, 84
9, 101264, Note_on_c, 4, 58, 0
9, 101279, Note_on_c, 4, 64, 0
9, 101280, Note_on_c, 4, 57, 84
9, 101280, Note_on_c, 4, 65, 84
9, 101384, Note_on_c, 4, 57, 0
9, 101384, Note_on_c, 4, 65, 0
9, 101400, Note_on_c, 4, 60, 84
9, 101504, Note_on_c, 4, 60, 0
9, 101520, Note_on_c, 4, 57, 84
9, 101624, Note_on_c, 4, 57, 0
9, 101640, Note_on_c, 4, 53, 84
9, 101744, Note_on_c, 4, 53, 0
9, 101760, Note_on_c, 4, 60, 84
9, 101864, Note_on_c, 4, 60, 0
9, 101880, Note_on_c, 4, 57, 84
9, 101984, Note_on_c, 4, 57, 0
9, 102000, Note_on_c, 4, 53, 84
9, 102104, Note_on_c, 4, 53, 0
9, 102120, Note_on_c, 4, 48, 84
9, 102224, Note_on_c, 4, 48, 0
9, 102240, Note_on_c, 4, 41, 84
9, 102311, Note_on_c, 4, 41, 0
9, 102320, Note_on_c, 4, 41, 84
9, 102359, Note_on_c, 4, 41, 0
9, 102360, Note_on_c, 4, 45, 92
9, 102479, Note_on_c, 4, 45, 0
9, 102480, Note_on_c, 4, 41, 84
9, 102539, Note_on_c, 4, 41, 0
9, 103680, Note_on_c, 4, 53, 84
9, 103680, Note_on_c, 4, 41, 84
9, 103751, Note_on_c, 4, 53, 0
9, 103751, Note_on_c, 4, 41, 0
9, 103760, Note_on_c, 4, 53, 84
9, 103760, Note_on_c, 4, 41, 84
9, 103799, Note_on_c, 4, 53, 0
9, 103799, Note_on_c, 4, 41, 0
9, 103800, Note_on_c, 4, 45, 92
9, 103800, Note_on_c, 4, 57, 92
9, 103919, Note_on_c, 4, 45, 0
9, 103919, Note_on_c, 4, 57, 0
9, 103920, Note_on_c, 4, 53, 84
9, 103920, Note_on_c, 4, 41, 84
9, 103979, Note_on_c, 4, 53, 0
9, 103979, Note_on_c, 4, 41, 0
9, 104040, Note_on_c, 4, 41, 84
9, 104040, Note_on_c, 4, 53, 84
9, 104111, Note_on_c, 4, 41, 0
9, 104111, Note_on_c, 4, 53, 0
9, 104120, Note_on_c, 4, 41, 84
9, 104120, Note_on_c, 4, 53, 84
9, 104159, Note_on_c, 4, 41, 0
9, 104159, Note_on_c, 4, 53, 0
9, 104160, Note_on_c, 4, 57, 92
9, 104160, Note_on_c, 4, 45, 92
9, 104279, Note_on_c, 4, 57, 0
9, 104279, Note_on_c, 4, 45, 0
9, 104280, Note_on_c, 4, 41, 84
9, 104280, Note_on_c, 4, 53, 84
9, 104384, Note_on_c, 4, 41, 0
9, 104384, Note_on_c, 4, 53, 0
9, 104400, Note_on_c, 4, 41, 84
9, 104400, Note_on_c, 4, 53, 84
9, 104471, Note_on_c, 4, 41, 0
9, 104471, Note_on_c, 4, 53, 0
9, 104480, Note_on_c, 4, 53, 84
9, 104480, Note_on_c, 4, 41, 84
9, 104519, Note_on_c, 4, 53, 0
9, 104519, Note_on_c, 4, 41, 0
9, 104520, Note_on_c, 4, 45, 92
9, 104520, Note_on_c, 4, 57, 92
9, 104639, Note_on_c, 4, 45, 0
9, 104639, Note_on_c, 4, 57, 0
9, 104640, Note_on_c, 4, 53, 84
9, 104640, Note_on_c, 4, 41, 84
9, 104744, Note_on_c, 4, 53, 0
9, 104744, Note_on_c, 4, 41, 0
9, 104760, Note_on_c, 4, 53, 84
9, 104760, Note_on_c, 4, 41, 84
9, 104831, Note_on_c, 4, 53, 0
9, 104831, Note_on_c, 4, 41, 0
9, 104840, Note_on_c, 4, 41, 84
9, 104840, Note_on_c, 4, 53, 84
9, 104879, Note_on_c, 4, 41, 0
9, 104879, Note_on_c, 4, 53, 0
9, 104880, Note_on_c, 4, 57, 92
9, 104880, Note_on_c, 4, 45, 92
9, 104999, Note_on_c, 4, 57, 0
9, 104999, Note_on_c, 4, 45, 0
9, 105000, Note_on_c, 4, 53, 84
9, 105000, Note_on_c, 4, 41, 84
9, 105104, Note_on_c, 4, 53, 0
9, 105104, Note_on_c, 4, 41, 0
9, 105120, Note_on_c, 4, 53, 84
9, 105120, Note_on_c, 4, 41, 84
9, 105209, Note_on_c, 4, 53, 0
9, 105209, Note_on_c, 4, 41, 0
9, 105240, Note_on_c, 4, 45, 84
9, 105240, Note_on_c, 4, 57, 84
9, 105240, Control_c, 4, 11, 127
9, 105280, Control_c, 4, 11, 125
9, 105320, Control_c, 4, 11, 124
9, 105360, Control_c, 4, 11, 122
9, 105400, Control_c, 4, 11, 120
9, 105440, Control_c, 4, 11, 118
9, 105480, Control_c, 4, 11, 117
9, 105520, Control_c, 4, 11, 115
9, 105560, Control_c, 4, 11, 113
9, 105600, Control_c, 4, 11, 111
9, 105640, Control_c, 4, 11, 110
9, 105680, Control_c, 4, 11, 108
9, 105720, Control_c, 4, 11, 106
9, 105760, Control_c, 4, 11, 104
9, 105800, Control_c, 4, 11, 103
9, 105840, Control_c, 4, 11, 101
9, 105880, Control_c, 4, 11, 99
9, 105920, Control_c, 4, 11, 97
9, 105960, Control_c, 4, 11, 96
9, 106000, Control_c, 4, 11, 94
9, 106040, Control_c, 4, 11, 92
9, 106080, Control_c, 4, 11, 90
9, 106120, Control_c, 4, 11, 89
9, 106160, Control_c, 4, 11, 87
9, 106200, Control_c, 4, 11, 85
9, 106240, Control_c, 4, 11, 83
9, 106280, Control_c, 4, 11, 82
9, 106320, Control_c, 4, 11, 80
9, 106360, Control_c, 4, 11, 78
9, 106400, Control_c, 4, 11, 76
9, 106440, Control_c, 4, 11, 75
9, 106480, Control_c, 4, 11, 73
9, 106520, Control_c, 4, 11, 71
9, 106560, Control_c, 4, 11, 69
9, 106600, Control_c, 4, 11, 68
9, 106640, Control_c, 4, 11, 64
9, 106664, Note_on_c, 4, 45, 0
9, 106664, Note_on_c, 4, 57, 0
9, 106678, Control_c, 4, 11, 80
9, 106680, Control_c, 4, 11, 80
9, 106680, Note_on_c, 4, 57, 72
9, 106680, Note_on_c, 4, 50, 72
9, 106733, Control_c, 4, 11, 84
9, 106787, Control_c, 4, 11, 87
9, 106840, Control_c, 4, 11, 91
9, 106893, Control_c, 4, 11, 94
9, 106947, Control_c, 4, 11, 98
9, 107000, Control_c, 4, 11, 101
9, 107053, Control_c, 4, 11, 105
9, 107107, Control_c, 4, 11, 108
9, 107160, Control_c, 4, 11, 112
9, 107213, Control_c, 4, 11, 108
9, 107267, Control_c, 4, 11, 105
9, 107279, Note_on_c, 4, 50, 0
9, 107280, Note_on_c, 4, 45, 72
9, 107320, Control_c, 4, 11, 101
9, 107373, Control_c, 4, 11, 98
9, 107399, Note_on_c, 4, 45, 0
9, 107400, Note_on_c, 4, 50, 72
9, 107427, Control_c, 4, 11, 94
9, 107480, Control_c, 4, 11, 91
9, 107533, Control_c, 4, 11, 87
9, 107587, Control_c, 4, 11, 84
9, 107639, Note_on_c, 4, 57, 0
9, 107639, Note_on_c, 4, 50, 0
9, 107640, Control_c, 4, 11, 80
9, 107880, Control_c, 4, 11, 96
9, 108120, Note_on_c, 4, 57, 64
9, 108120, Control_c, 4, 11, 96
9, 108120, Note_on_c, 4, 50, 64
9, 108173, Control_c, 4, 11, 100
9, 108227, Control_c, 4, 11, 103
9, 108280, Control_c, 4, 11, 107
9, 108333, Control_c, 4, 11, 110
9, 108387, Control_c, 4, 11, 114
9, 108440, Control_c, 4, 11, 117
9, 108493, Control_c, 4, 11, 121
9, 108547, Control_c, 4, 11, 124
9, 108600, Control_c, 4, 11, 127
9, 108653, Control_c, 4, 11, 124
9, 108707, Control_c, 4, 11, 121
9, 108719, Note_on_c, 4, 50, 0
9, 108720, Note_on_c, 4, 45, 64
9, 108760, Control_c, 4, 11, 117
9, 108813, Control_c, 4, 11, 114
9, 108839, Note_on_c, 4, 45, 0
9, 108840, Note_on_c, 4, 50, 64
9, 108867, Control_c, 4, 11, 110
9, 108920, Control_c, 4, 11, 107
9, 108973, Control_c, 4, 11, 103
9, 109027, Control_c, 4, 11, 100
9, 109079, Note_on_c, 4, 57, 0
9, 109079, Note_on_c, 4, 50, 0
9, 109080, Control_c, 4, 11, 96
9, 109320, Control_c, 4, 11, 127
9, 109560, Note_on_c, 4, 57, 48
9, 109560, Note_on_c, 4, 50, 48
9, 110039, Note_on_c, 4, 50, 0
9, 110040, Note_on_c, 4, 49, 48
9, 110279, Note_on_c, 4, 49, 0
9, 110280, Note_on_c, 4, 50, 48
9, 110519, Note_on_c, 4, 50, 0
9, 110520, Note_on_c, 4, 49, 48
9, 110739, Note_on_c, 4, 49, 0
9, 110760, Note_on_c, 4, 50, 48
9, 110939, Note_on_c, 4, 50, 0
9, 110979, Note_on_c, 4, 57, 0
9, 111000, Note_on_c, 4, 45, 48
9, 111000, Note_on_c, 4, 57, 48
9, 111239, Note_on_c, 4, 45, 0
9, 111239, Note_on_c, 4, 57, 0
9, 112200, Control_c, 4, 11, 96
9, 112440, Note_on_c, 4, 57, 64
9, 112440, Note_on_c, 4, 45, 64
9, 112493, Control_c, 4, 11, 99
9, 112547, Control_c, 4, 11, 103
9, 112600, Control_c, 4, 11, 106
9, 112653, Control_c, 4, 11, 110
9, 112707, Control_c, 4, 11, 113
9, 112760, Control_c, 4, 11, 117
9, 112813, Control_c, 4, 11, 120
9, 112867, Control_c, 4, 11, 124
9, 112920, Control_c, 4, 11, 127
9, 112973, Control_c, 4, 11, 124
9, 113027, Control_c, 4, 11, 120
9, 113080, Control_c, 4, 11, 117
9, 113133, Control_c, 4, 11, 113
9, 113187, Control_c, 4, 11, 110
9, 113240, Control_c, 4, 11, 106
9, 113293, Control_c, 4, 11, 103
9, 113347, Control_c, 4, 11, 99
9, 113399, Note_on_c, 4, 57, 0
9, 113399, Note_on_c, 4, 45, 0
9, 113400, Control_c, 4, 11, 96
9, 113880, Note_on_c, 4, 45, 64
9, 113880, Note_on_c, 4, 57, 64
9, 113933, Control_c, 4, 11, 99
9, 113987, Control_c, 4, 11, 103
9, 114040, Control_c, 4, 11, 106
9, 114093, Control_c, 4, 11, 110
9, 114147, Control_c, 4, 11, 113
9, 114200, Control_c, 4, 11, 117
9, 114253, Control_c, 4, 11, 120
9, 114307, Control_c, 4, 11, 124
9, 114360, Control_c, 4, 11, 127
9, 114413, Control_c, 4, 11, 124
9, 114467, Control_c, 4, 11, 120
9, 114520, Control_c, 4, 11, 117
9, 114573, Control_c, 4, 11, 113
9, 114627, Control_c, 4, 11, 110
9, 114680, Control_c, 4, 11, 106
9, 114733, Control_c, 4, 11, 103
9, 114787, Control_c, 4, 11, 99
9, 114839, Note_on_c, 4, 45, 0
9, 114839, Note_on_c, 4, 57, 0
9, 114840, Control_c, 4, 11, 96
9, 115080, Control_c, 4, 11, 127
9, 115320, Note_on_c, 4, 57, 48
9, 115320, Note_on_c, 4, 45, 48
9, 115559, Note_on_c, 4, 57, 0
9, 115560, Note_on_c, 4, 55, 48
9, 115799, Note_on_c, 4, 45, 0
9, 115799, Note_on_c, 4, 55, 0
9, 115800, Note_on_c, 4, 50, 48
9, 115800, Note_on_c, 4, 54, 48
9, 116019, Note_on_c, 4, 50, 0
9, 116019, Note_on_c, 4, 54, 0
9, 116040, Note_on_c, 4, 50, 48
9, 116040, Note_on_c, 4, 54, 48
9, 116279, Note_on_c, 4, 50, 0
9, 116279, Note_on_c, 4, 54, 0
9, 116280, Note_on_c, 4, 45, 48
9, 116280, Note_on_c, 4, 52, 48
9, 116499, Note_on_c, 4, 45, 0
9, 116499, Note_on_c, 4, 52, 0
9, 116520, Note_on_c, 4, 45, 48
9, 116520, Note_on_c, 4, 52, 48
9, 116699, Note_on_c, 4, 45, 0
9, 116699, Note_on_c, 4, 52, 0
9, 116760, Note_on_c, 4, 50, 48
9, 116760, Note_on_c, 4, 54, 48
9, 116999, Note_on_c, 4, 50, 0
9, 116999, Note_on_c, 4, 54, 0
9, 117480, Control_c, 4, 11, 96
9, 118200, Control_c, 4, 11, 96
9, 118200, Note_on_c, 4, 50, 68
9, 118200, Note_on_c, 4, 57, 68
9, 118253, Control_c, 4, 11, 99
9, 118307, Control_c, 4, 11, 103
9, 118360, Control_c, 4, 11, 106
9, 118413, Control_c, 4, 11, 110
9, 118467, Control_c, 4, 11, 113
9, 118520, Control_c, 4, 11, 117
9, 118573, Control_c, 4, 11, 120
9, 118627, Control_c, 4, 11, 124
9, 118680, Control_c, 4, 11, 127
9, 118733, Control_c, 4, 11, 124
9, 118787, Control_c, 4, 11, 120
9, 118799, Note_on_c, 4, 50, 0
9, 118800, Note_on_c, 4, 45, 68
9, 118840, Control_c, 4, 11, 117
9, 118893, Control_c, 4, 11, 113
9, 118919, Note_on_c, 4, 45, 0
9, 118920, Note_on_c, 4, 50, 68
9, 118947, Control_c, 4, 11, 110
9, 119000, Control_c, 4, 11, 106
9, 119053, Control_c, 4, 11, 103
9, 119107, Control_c, 4, 11, 99
9, 119159, Note_on_c, 4, 57, 0
9, 119159, Note_on_c, 4, 50, 0
9, 119160, Control_c, 4, 11, 96
9, 119640, Note_on_c, 4, 57, 68
9, 119640, Note_on_c, 4, 50, 68
9, 119693, Control_c, 4, 11, 99
9, 119747, Control_c, 4, 11, 103
9, 119800, Control_c, 4, 11, 106
9, 119853, Control_c, 4, 11, 110
9, 119907, Control_c, 4, 11, 113
9, 119960, Control_c, 4, 11, 117
9, 120013, Control_c, 4, 11, 120
9, 120067, Control_c, 4, 11, 124
9, 120120, Control_c, 4, 11, 127
9, 120173, Control_c, 4, 11, 124
9, 120227, Control_c, 4, 11, 120
9, 120239, Note_on_c, 4, 50, 0
9, 120240, Note_on_c, 4, 45, 68
9, 120280, Control_c, 4, 11, 117
9, 120333, Control_c, 4, 11, 113
9, 120359, Note_on_c, 4, 45, 0
9, 120360, Note_on_c, 4, 50, 68
9, 120387, Control_c, 4, 11, 110
9, 120440, Control_c, 4, 11, 106
9, 120493, Control_c, 4, 11, 103
9, 120547, Control_c, 4, 11, 99
9, 120599, Note_on_c, 4, 57, 0
9, 120599, Note_on_c, 4, 50, 0
9, 120600, Control_c, 4, 11, 96
9, 120840, Control_c, 4, 11, 127
9, 121080, Note_on_c, 4, 57, 52
9, 121080, Note_on_c, 4, 50, 52
9, 121559, Note_on_c, 4, 50, 0
9, 121560, Note_on_c, 4, 49, 52
9, 121799, Note_on_c, 4, 49, 0
9, 121800, Note_on_c, 4, 50, 52
9, 122019, Note_on_c, 4, 57, 0
9, 122039, Note_on_c, 4, 50, 0
9, 122040, Note_on_c, 4, 57, 52
9, 122040, Note_on_c, 4, 49, 52
9, 122219, Note_on_c, 4, 57, 0
9, 122259, Note_on_c, 4, 49, 0
9, 122280, Note_on_c, 4, 57, 52
9, 122280, Note_on_c, 4, 50, 52
9, 122459, Note_on_c, 4, 57, 0
9, 122459, Note_on_c, 4, 50, 0
9, 122520, Note_on_c, 4, 57, 52
9, 122520, Note_on_c, 4, 45, 52
9, 122759, Note_on_c, 4, 57, 0
9, 122759, Note_on_c, 4, 45, 0
9, 123240, Control_c, 4, 11, 96
9, 123960, Note_on_c, 4, 45, 68
9, 123960, Note_on_c, 4, 57, 68
9, 124013, Control_c, 4, 11, 99
9, 124067, Control_c, 4, 11, 103
9, 124120, Control_c, 4, 11, 106
9, 124173, Control_c, 4, 11, 110
9, 124227, Control_c, 4, 11, 113
9, 124280, Control_c, 4, 11, 117
9, 124333, Control_c, 4, 11, 120
9, 124387, Control_c, 4, 11, 124
9, 124440, Control_c, 4, 11, 127
9, 124493, Control_c, 4, 11, 124
9, 124547, Control_c, 4, 11, 120
9, 124600, Control_c, 4, 11, 117
9, 124653, Control_c, 4, 11, 113
9, 124707, Control_c, 4, 11, 110
9, 124760, Control_c, 4, 11, 106
9, 124813, Control_c, 4, 11, 103
9, 124867, Control_c, 4, 11, 99
9, 124919, Note_on_c, 4, 45, 0
9, 124919, Note_on_c, 4, 57, 0
9, 124920, Control_c, 4, 11, 96
9, 125400, Note_on_c, 4, 57, 68
9, 125400, Note_on_c, 4, 45, 68
9, 125453, Control_c, 4, 11, 99
9, 125507, Control_c, 4, 11, 103
9, 125560, Control_c, 4, 11, 106
9, 125613, Control_c, 4, 11, 110
9, 125667, Control_c, 4, 11, 113
9, 125720, Control_c, 4, 11, 117
9, 125773, Control_c, 4, 11, 120
9, 125827, Control_c, 4, 11, 124
9, 125880, Control_c, 4, 11, 127
9, 125933, Control_c, 4, 11, 124
9, 125987, Control_c, 4, 11, 120
9, 126040, Control_c, 4, 11, 117
9, 126093, Control_c, 4, 11, 113
9, 126147, Control_c, 4, 11, 110
9, 126200, Control_c, 4, 11, 106
9, 126253, Control_c, 4, 11, 103
9, 126307, Control_c, 4, 11, 99
9, 126359, Note_on_c, 4, 57, 0
9, 126359, Note_on_c, 4, 45, 0
9, 126360, Control_c, 4, 11, 96
9, 126600, Control_c, 4, 11, 127
9, 126840, Note_on_c, 4, 57, 52
9, 126840, Note_on_c, 4, 45, 52
9, 127079, Note_on_c, 4, 57, 0
9, 127080, Note_on_c, 4, 55, 52
9, 127319, Note_on_c, 4, 45, 0
9, 127319, Note_on_c, 4, 55, 0
9, 127320, Note_on_c, 4, 54, 52
9, 127320, Note_on_c, 4, 50, 52
9, 127539, Note_on_c, 4, 54, 0
9, 127539, Note_on_c, 4, 50, 0
9, 127560, Note_on_c, 4, 54, 52
9, 127560, Note_on_c, 4, 50, 52
9, 127799, Note_on_c, 4, 54, 0
9, 127799, Note_on_c, 4, 50, 0
9, 127800, Note_on_c, 4, 52, 52
9, 127800, Note_on_c, 4, 45, 52
9, 128019, Note_on_c, 4, 52, 0
9, 128019, Note_on_c, 4, 45, 0
9, 128040, Note_on_c, 4, 45, 52
9, 128040, Note_on_c, 4, 52, 52
9, 128219, Note_on_c, 4, 45, 0
9, 128219, Note_on_c, 4, 52, 0
9, 128280, Note_on_c, 4, 54, 52
9, 128280, Note_on_c, 4, 50, 52
9, 128519, Note_on_c, 4, 54, 0
9, 128519, Note_on_c, 4, 50, 0
9, 129720, Note_on_c, 4, 54, 48
9, 129720, Note_on_c, 4, 57, 48
9, 130919, Note_on_c, 4, 54, 0
9, 130919, Note_on_c, 4, 57, 0
9, 130920, Note_on_c, 4, 55, 48
9, 130920, Note_on_c, 4, 59, 48
9, 131139, Note_on_c, 4, 55, 0
9, 131139, Note_on_c, 4, 59, 0
9, 131160, Note_on_c, 4, 55, 48
9, 131160, Note_on_c, 4, 52, 48
9, 132359, Note_on_c, 4, 55, 0
9, 132359, Note_on_c, 4, 52, 0
9, 132360, Note_on_c, 4, 54, 48
9, 132360, Note_on_c, 4, 57, 48
9, 132579, Note_on_c, 4, 54, 0
9, 132579, Note_on_c, 4, 57, 0
9, 132600, Note_on_c, 4, 50, 48
9, 132600, Note_on_c, 4, 54, 48
9, 133119, Note_on_c, 4, 50, 0
9, 133119, Note_on_c, 4, 54, 0
9, 133140, Note_on_c, 4, 55, 48
9, 133140, Note_on_c, 4, 52, 48
9, 133199, Note_on_c, 4, 55, 0
9, 133199, Note_on_c, 4, 52, 0
9, 133200, Note_on_c, 4, 50, 48
9, 133200, Note_on_c, 4, 54, 48
9, 133259, Note_on_c, 4, 50, 0
9, 133259, Note_on_c, 4, 54, 0
9, 133260, Note_on_c, 4, 49, 48
9, 133260, Note_on_c, 4, 52, 48
9, 133319, Note_on_c, 4, 49, 0
9, 133319, Note_on_c, 4, 52, 0
9, 133320, Note_on_c, 4, 54, 48
9, 133320, Note_on_c, 4, 50, 48
9, 133559, Note_on_c, 4, 54, 0
9, 133559, Note_on_c, 4, 50, 0
9, 133560, Note_on_c, 4, 54, 48
9, 133560, Note_on_c, 4, 57, 48
9, 133799, Note_on_c, 4, 54, 0
9, 133799, Note_on_c, 4, 57, 0
9, 133800, Note_on_c, 4, 55, 48
9, 133800, Note_on_c, 4, 52, 48
9, 134019, Note_on_c, 4, 55, 0
9, 134019, Note_on_c, 4, 52, 0
9, 134040, Note_on_c, 4, 50, 48
9, 134040, Note_on_c, 4, 54, 48
9, 134759, Note_on_c, 4, 50, 0
9, 134759, Note_on_c, 4, 54, 0
9, 134760, Note_on_c, 4, 52, 48
9, 134760, Note_on_c, 4, 49, 48
9, 134999, Note_on_c, 4, 52, 0
9, 134999, Note_on_c, 4, 49, 0
9, 135480, Note_on_c, 4, 54, 48
9, 135480, Note_on_c, 4, 57, 48
9, 136439, Note_on_c, 4, 54, 0
9, 136439, Note_on_c, 4, 57, 0
9, 136440, Note_on_c, 4, 61, 48
9, 136440, Note_on_c, 4, 57, 48
9, 136679, Note_on_c, 4, 61, 0
9, 136679, Note_on_c, 4, 57, 0
9, 136680, Note_on_c, 4, 55, 48
9, 136680, Note_on_c, 4, 59, 48
9, 136899, Note_on_c, 4, 55, 0
9, 136899, Note_on_c, 4, 59, 0
9, 136920, Note_on_c, 4, 54, 48
9, 136920, Note_on_c, 4, 57, 48
9, 137399, Note_on_c, 4, 54, 0
9, 137399, Note_on_c, 4, 57, 0
9, 137400, Note_on_c, 4, 55, 48
9, 137400, Note_on_c, 4, 52, 48
9, 137879, Note_on_c, 4, 55, 0
9, 137879, Note_on_c, 4, 52, 0
9, 137880, Note_on_c, 4, 59, 48
9, 137880, Note_on_c, 4, 55, 48
9, 138119, Note_on_c, 4, 59, 0
9, 138119, Note_on_c, 4, 55, 0
9, 138120, Note_on_c, 4, 54, 48
9, 138120, Note_on_c, 4, 57, 48
9, 138339, Note_on_c, 4, 54, 0
9, 138339, Note_on_c, 4, 57, 0
9, 138358, Control_c, 4, 11, 96
9, 138360, Note_on_c, 4, 52, 64
9, 138360, Note_on_c, 4, 55, 64
9, 138420, Control_c, 4, 11, 99
9, 138480, Control_c, 4, 11, 101
9, 138540, Control_c, 4, 11, 104
9, 138599, Note_on_c, 4, 52, 0
9, 138599, Note_on_c, 4, 55, 0
9, 138600, Control_c, 4, 11, 106
9, 138600, Note_on_c, 4, 50, 64
9, 138600, Note_on_c, 4, 54, 64
9, 138660, Control_c, 4, 11, 109
9, 138720, Control_c, 4, 11, 112
9, 138780, Control_c, 4, 11, 114
9, 138839, Note_on_c, 4, 50, 0
9, 138839, Note_on_c, 4, 54, 0
9, 138840, Note_on_c, 4, 54, 64
9, 138840, Note_on_c, 4, 57, 64
9, 138840, Control_c, 4, 11, 117
9, 138900, Control_c, 4, 11, 119
9, 138960, Control_c, 4, 11, 122
9, 139020, Control_c, 4, 11, 124
9, 139059, Note_on_c, 4, 54, 0
9, 139059, Note_on_c, 4, 57, 0
9, 139080, Control_c, 4, 11, 127
9, 139080, Note_on_c, 4, 54, 64
9, 139080, Note_on_c, 4, 62, 64
9, 139140, Control_c, 4, 11, 124
9, 139200, Control_c, 4, 11, 122
9, 139260, Control_c, 4, 11, 119
9, 139299, Note_on_c, 4, 54, 0
9, 139319, Note_on_c, 4, 62, 0
9, 139320, Note_on_c, 4, 57, 64
9, 139320, Control_c, 4, 11, 117
9, 139320, Note_on_c, 4, 54, 64
9, 139380, Control_c, 4, 11, 114
9, 139440, Control_c, 4, 11, 112
9, 139500, Control_c, 4, 11, 109
9, 139559, Note_on_c, 4, 57, 0
9, 139559, Note_on_c, 4, 54, 0
9, 139560, Control_c, 4, 11, 106
9, 139560, Note_on_c, 4, 50, 64
9, 139560, Note_on_c, 4, 54, 64
9, 139620, Control_c, 4, 11, 104
9, 139680, Control_c, 4, 11, 101
9, 139740, Control_c, 4, 11, 99
9, 139779, Note_on_c, 4, 50, 0
9, 139779, Note_on_c, 4, 54, 0
9, 139800, Note_on_c, 4, 49, 64
9, 139800, Control_c, 4, 11, 96
9, 139800, Note_on_c, 4, 52, 64
9, 140520, Control_c, 4, 11, 96
9, 140580, Control_c, 4, 11, 101
9, 140640, Control_c, 4, 11, 106
9, 140700, Control_c, 4, 11, 112
9, 140759, Note_on_c, 4, 49, 0
9, 140759, Note_on_c, 4, 52, 0
9, 140760, Note_on_c, 4, 57, 64
9, 140760, Note_on_c, 4, 54, 64
9, 140760, Control_c, 4, 11, 117
9, 140820, Control_c, 4, 11, 122
9, 140880, Control_c, 4, 11, 127
9, 140940, Control_c, 4, 11, 122
9, 140999, Note_on_c, 4, 57, 0
9, 140999, Note_on_c, 4, 54, 0
9, 141000, Note_on_c, 4, 54, 64
9, 141000, Control_c, 4, 11, 117
9, 141000, Note_on_c, 4, 50, 64
9, 141060, Control_c, 4, 11, 112
9, 141120, Control_c, 4, 11, 106
9, 141180, Control_c, 4, 11, 101
9, 141219, Note_on_c, 4, 54, 0
9, 141219, Note_on_c, 4, 50, 0
9, 141240, Note_on_c, 4, 52, 64
9, 141240, Control_c, 4, 11, 96
9, 141240, Note_on_c, 4, 49, 64
9, 141960, Control_c, 4, 11, 96
9, 142020, Control_c, 4, 11, 101
9, 142080, Control_c, 4, 11, 106
9, 142140, Control_c, 4, 11, 112
9, 142199, Note_on_c, 4, 52, 0
9, 142199, Note_on_c, 4, 49, 0
9, 142200, Note_on_c, 4, 57, 64
9, 142200, Note_on_c, 4, 54, 64
9, 142200, Control_c, 4, 11, 117
9, 142260, Control_c, 4, 11, 122
9, 142320, Control_c, 4, 11, 127
9, 142380, Control_c, 4, 11, 122
9, 142439, Note_on_c, 4, 57, 0
9, 142439, Note_on_c, 4, 54, 0
9, 142440, Control_c, 4, 11, 117
9, 142440, Note_on_c, 4, 54, 64
9, 142440, Note_on_c, 4, 50, 64
9, 142500, Control_c, 4, 11, 112
9, 142560, Control_c, 4, 11, 106
9, 142620, Control_c, 4, 11, 101
9, 142659, Note_on_c, 4, 54, 0
9, 142659, Note_on_c, 4, 50, 0
9, 142680, Note_on_c, 4, 52, 64
9, 142680, Control_c, 4, 11, 96
9, 142680, Note_on_c, 4, 49, 64
9, 142919, Note_on_c, 4, 52, 0
9, 142919, Note_on_c, 4, 49, 0
9, 144326, Control_c, 4, 11, 67
9, 144360, Note_on_c, 4, 63, 84
9, 144360, Note_on_c, 4, 66, 84
9, 144394, Control_c, 4, 11, 68
9, 144463, Control_c, 4, 11, 69
9, 144531, Control_c, 4, 11, 70
9, 144600, Control_c, 4, 11, 71
9, 144669, Control_c, 4, 11, 72
9, 144737, Control_c, 4, 11, 73
9, 144806, Control_c, 4, 11, 74
9, 144819, Note_on_c, 4, 63, 0
9, 144819, Note_on_c, 4, 66, 0
9, 144840, Note_on_c, 4, 66, 84
9, 144840, Note_on_c, 4, 63, 84
9, 144874, Control_c, 4, 11, 75
9, 144943, Control_c, 4, 11, 76
9, 145011, Control_c, 4, 11, 77
9, 145080, Control_c, 4, 11, 78
9, 145149, Control_c, 4, 11, 79
9, 145217, Control_c, 4, 11, 80
9, 145286, Control_c, 4, 11, 81
9, 145299, Note_on_c, 4, 66, 0
9, 145299, Note_on_c, 4, 63, 0
9, 145320, Note_on_c, 4, 63, 84
9, 145320, Note_on_c, 4, 66, 84
9, 145354, Control_c, 4, 11, 82
9, 145423, Control_c, 4, 11, 83
9, 145491, Control_c, 4, 11, 84
9, 145559, Note_on_c, 4, 63, 0
9, 145559, Note_on_c, 4, 66, 0
9, 145560, Control_c, 4, 11, 85
9, 145629, Control_c, 4, 11, 86
9, 145697, Control_c, 4, 11, 87
9, 145766, Control_c, 4, 11, 88
9, 145800, Note_on_c, 4, 67, 84
9, 145800, Note_on_c, 4, 64, 84
9, 145834, Control_c, 4, 11, 89
9, 145903, Control_c, 4, 11, 90
9, 145971, Control_c, 4, 11, 91
9, 146040, Control_c, 4, 11, 92
9, 146109, Control_c, 4, 11, 93
9, 146177, Control_c, 4, 11, 94
9, 146246, Control_c, 4, 11, 95
9, 146259, Note_on_c, 4, 67, 0
9, 146259, Note_on_c, 4, 64, 0
9, 146280, Note_on_c, 4, 67, 84
9, 146280, Note_on_c, 4, 64, 84
9, 146314, Control_c, 4, 11, 96
9, 146383, Control_c, 4, 11, 97
9, 146451, Control_c, 4, 11, 98
9, 146520, Control_c, 4, 11, 99
9, 146589, Control_c, 4, 11, 100
9, 146657, Control_c, 4, 11, 101
9, 146726, Control_c, 4, 11, 102
9, 146739, Note_on_c, 4, 67, 0
9, 146739, Note_on_c, 4, 64, 0
9, 146760, Note_on_c, 4, 64, 84
9, 146760, Note_on_c, 4, 67, 84
9, 146794, Control_c, 4, 11, 103
9, 146863, Control_c, 4, 11, 104
9, 146931, Control_c, 4, 11, 105
9, 146999, Note_on_c, 4, 64, 0
9, 146999, Note_on_c, 4, 67, 0
9, 147000, Control_c, 4, 11, 106
9, 147069, Control_c, 4, 11, 107
9, 147137, Control_c, 4, 11, 108
9, 147206, Control_c, 4, 11, 109
9, 147240, Note_on_c, 4, 67, 84
9, 147240, Note_on_c, 4, 64, 84
9, 147274, Control_c, 4, 11, 110
9, 147343, Control_c, 4, 11, 111
9, 147411, Control_c, 4, 11, 112
9, 147480, Control_c, 4, 11, 113
9, 147549, Control_c, 4, 11, 114
9, 147617, Control_c, 4, 11, 115
9, 147686, Control_c, 4, 11, 116
9, 147699, Note_on_c, 4, 67, 0
9, 147699, Note_on_c, 4, 64, 0
9, 147720, Note_on_c, 4, 64, 84
9, 147720, Note_on_c, 4, 67, 84
9, 147754, Control_c, 4, 11, 117
9, 147823, Control_c, 4, 11, 118
9, 147891, Control_c, 4, 11, 119
9, 147960, Control_c, 4, 11, 120
9, 148029, Control_c, 4, 11, 121
9, 148097, Control_c, 4, 11, 122
9, 148166, Control_c, 4, 11, 123
9, 148179, Note_on_c, 4, 64, 0
9, 148179, Note_on_c, 4, 67, 0
9, 148200, Note_on_c, 4, 55, 84
9, 148200, Note_on_c, 4, 64, 84
9, 148234, Control_c, 4, 11, 124
9, 148303, Control_c, 4, 11, 125
9, 148371, Control_c, 4, 11, 127
9, 148419, Note_on_c, 4, 55, 0
9, 148419, Note_on_c, 4, 64, 0
9, 148440, Note_on_c, 4, 62, 84
9, 148440, Note_on_c, 4, 54, 84
9, 149039, Note_on_c, 4, 62, 0
9, 149039, Note_on_c, 4, 54, 0
9, 149040, Note_on_c, 4, 52, 84
9, 149040, Note_on_c, 4, 61, 84
9, 149159, Note_on_c, 4, 52, 0
9, 149159, Note_on_c, 4, 61, 0
9, 149160, Note_on_c, 4, 54, 84
9, 149160, Note_on_c, 4, 62, 84
9, 149399, Note_on_c, 4, 54, 0
9, 149399, Note_on_c, 4, 62, 0
9, 149880, Note_on_c, 4, 62, 84
9, 149880, Note_on_c, 4, 54, 84
9, 150479, Note_on_c, 4, 62, 0
9, 150479, Note_on_c, 4, 54, 0
9, 150480, Note_on_c, 4, 52, 84
9, 150480, Note_on_c, 4, 61, 84
9, 150599, Note_on_c, 4, 52, 0
9, 150599, Note_on_c, 4, 61, 0
9, 150600, Note_on_c, 4, 62, 84
9, 150600, Note_on_c, 4, 54, 84
9, 150839, Note_on_c, 4, 62, 0
9, 150839, Note_on_c, 4, 54, 0
9, 151320, Note_on_c, 4, 62, 84
9, 151320, Note_on_c, 4, 54, 84
9, 151799, Note_on_c, 4, 62, 0
9, 151799, Note_on_c, 4, 54, 0
9, 151800, Note_on_c, 4, 64, 84
9, 151800, Note_on_c, 4, 61, 84
9, 152039, Note_on_c, 4, 64, 0
9, 152039, Note_on_c, 4, 61, 0
9, 152040, Note_on_c, 4, 66, 84
9, 152040, Note_on_c, 4, 62, 84
9, 152279, Note_on_c, 4, 66, 0
9, 152279, Note_on_c, 4, 62, 0
9, 152280, Note_on_c, 4, 64, 84
9, 152280, Note_on_c, 4, 67, 84
9, 152499, Note_on_c, 4, 64, 0
9, 152499, Note_on_c, 4, 67, 0
9, 152520, Note_on_c, 4, 62, 84
9, 152520, Note_on_c, 4, 66, 84
9, 152699, Note_on_c, 4, 62, 0
9, 152699, Note_on_c, 4, 66, 0
9, 152760, Note_on_c, 4, 61, 84
9, 152760, Note_on_c, 4, 64, 84
9, 152999, Note_on_c, 4, 61, 0
9, 152999, Note_on_c, 4, 64, 0
9, 154200, Note_on_c, 4, 64, 84
9, 154799, Note_on_c, 4, 64, 0
9, 154800, Note_on_c, 4, 63, 84
9, 154919, Note_on_c, 4, 63, 0
9, 154920, Note_on_c, 4, 64, 84
9, 155159, Note_on_c, 4, 64, 0
9, 155640, Note_on_c, 4, 64, 84
9, 156239, Note_on_c, 4, 64, 0
9, 156240, Note_on_c, 4, 63, 84
9, 156359, Note_on_c, 4, 63, 0
9, 156360, Note_on_c, 4, 64, 84
9, 156599, Note_on_c, 4, 64, 0
9, 157080, Note_on_c, 4, 64, 84
9, 157559, Note_on_c, 4, 64, 0
9, 157560, Note_on_c, 4, 62, 84
9, 157799, Note_on_c, 4, 62, 0
9, 157800, Note_on_c, 4, 66, 84
9, 158039, Note_on_c, 4, 66, 0
9, 158040, Note_on_c, 4, 64, 84
9, 158259, Note_on_c, 4, 64, 0
9, 158280, Note_on_c, 4, 57, 84
9, 158459, Note_on_c, 4, 57, 0
9, 158520, Note_on_c, 4, 54, 84
9, 158759, Note_on_c, 4, 54, 0
9, 159960, Note_on_c, 4, 54, 48
9, 159960, Note_on_c, 4, 57, 48
9, 161159, Note_on_c, 4, 54, 0
9, 161159, Note_on_c, 4, 57, 0
9, 161160, Note_on_c, 4, 55, 48
9, 161160, Note_on_c, 4, 59, 48
9, 161379, Note_on_c, 4, 55, 0
9, 161379, Note_on_c, 4, 59, 0
9, 161400, Note_on_c, 4, 52, 48
9, 161400, Note_on_c, 4, 55, 48
9, 162599, Note_on_c, 4, 52, 0
9, 162599, Note_on_c, 4, 55, 0
9, 162600, Note_on_c, 4, 57, 48
9, 162600, Note_on_c, 4, 54, 48
9, 162819, Note_on_c, 4, 57, 0
9, 162819, Note_on_c, 4, 54, 0
9, 162840, Note_on_c, 4, 54, 48
9, 162840, Note_on_c, 4, 50, 48
9, 163359, Note_on_c, 4, 54, 0
9, 163359, Note_on_c, 4, 50, 0
9, 163380, Note_on_c, 4, 55, 48
9, 163380, Note_on_c, 4, 52, 48
9, 163439, Note_on_c, 4, 55, 0
9, 163439, Note_on_c, 4, 52, 0
9, 163440, Note_on_c, 4, 54, 48
9, 163440, Note_on_c, 4, 50, 48
9, 163499, Note_on_c, 4, 54, 0
9, 163499, Note_on_c, 4, 50, 0
9, 163500, Note_on_c, 4, 52, 48
9, 163500, Note_on_c, 4, 49, 48
9, 163559, Note_on_c, 4, 52, 0
9, 163559, Note_on_c, 4, 49, 0
9, 163560, Note_on_c, 4, 54, 48
9, 163560, Note_on_c, 4, 50, 48
9, 163799, Note_on_c, 4, 54, 0
9, 163799, Note_on_c, 4, 50, 0
9, 163800, Note_on_c, 4, 57, 48
9, 163800, Note_on_c, 4, 54, 48
9, 164039, Note_on_c, 4, 57, 0
9, 164039, Note_on_c, 4, 54, 0
9, 164040, Note_on_c, 4, 52, 48
9, 164040, Note_on_c, 4, 55, 48
9, 164259, Note_on_c, 4, 52, 0
9, 164259, Note_on_c, 4, 55, 0
9, 164280, Note_on_c, 4, 54, 48
9, 164280, Note_on_c, 4, 50, 48
9, 164999, Note_on_c, 4, 54, 0
9, 164999, Note_on_c, 4, 50, 0
9, 165000, Note_on_c, 4, 52, 48
9, 165000, Note_on_c, 4, 49, 48
9, 165239, Note_on_c, 4, 52, 0
9, 165239, Note_on_c, 4, 49, 0
9, 165720, Note_on_c, 4, 57, 48
9, 165720, Note_on_c, 4, 54, 48
9, 166679, Note_on_c, 4, 57, 0
9, 166679, Note_on_c, 4, 54, 0
9, 166680, Note_on_c, 4, 57, 48
9, 166680, Note_on_c, 4, 61, 48
9, 166919, Note_on_c, 4, 57, 0
9, 166919, Note_on_c, 4, 61, 0
9, 166920, Note_on_c, 4, 59, 48
9, 166920, Note_on_c, 4, 55, 48
9, 167139, Note_on_c, 4, 59, 0
9, 167139, Note_on_c, 4, 55, 0
9, 167160, Note_on_c, 4, 57, 48
9, 167160, Note_on_c, 4, 54, 48
9, 167639, Note_on_c, 4, 57, 0
9, 167639, Note_on_c, 4, 54, 0
9, 167640, Note_on_c, 4, 55, 48
9, 167640, Note_on_c, 4, 52, 48
9, 168119, Note_on_c, 4, 55, 0
9, 168119, Note_on_c, 4, 52, 0
9, 168120, Note_on_c, 4, 59, 48
9, 168120, Note_on_c, 4, 55, 48
9, 168359, Note_on_c, 4, 59, 0
9, 168359, Note_on_c, 4, 55, 0
9, 168360, Note_on_c, 4, 57, 48
9, 168360, Note_on_c, 4, 54, 48
9, 168579, Note_on_c, 4, 57, 0
9, 168579, Note_on_c, 4, 54, 0
9, 168598, Control_c, 4, 11, 96
9, 168600, Note_on_c, 4, 52, 64
9, 168600, Note_on_c, 4, 55, 64
9, 168660, Control_c, 4, 11, 99
9, 168720, Control_c, 4, 11, 101
9, 168780, Control_c, 4, 11, 104
9, 168839, Note_on_c, 4, 52, 0
9, 168839, Note_on_c, 4, 55, 0
9, 168840, Note_on_c, 4, 50, 64
9, 168840, Note_on_c, 4, 54, 64
9, 168840, Control_c, 4, 11, 106
9, 168900, Control_c, 4, 11, 109
9, 168960, Control_c, 4, 11, 112
9, 169020, Control_c, 4, 11, 114
9, 169079, Note_on_c, 4, 50, 0
9, 169079, Note_on_c, 4, 54, 0
9, 169080, Note_on_c, 4, 54, 64
9, 169080, Note_on_c, 4, 57, 64
9, 169080, Control_c, 4, 11, 117
9, 169140, Control_c, 4, 11, 119
9, 169200, Control_c, 4, 11, 122
9, 169260, Control_c, 4, 11, 124
9, 169299, Note_on_c, 4, 54, 0
9, 169299, Note_on_c, 4, 57, 0
9, 169320, Control_c, 4, 11, 127
9, 169320, Note_on_c, 4, 62, 64
9, 169320, Note_on_c, 4, 54, 64
9, 169380, Control_c, 4, 11, 124
9, 169440, Control_c, 4, 11, 122
9, 169500, Control_c, 4, 11, 119
9, 169539, Note_on_c, 4, 54, 0
9, 169559, Note_on_c, 4, 62, 0
9, 169560, Note_on_c, 4, 54, 64
9, 169560, Note_on_c, 4, 57, 64
9, 169560, Control_c, 4, 11, 117
9, 169620, Control_c, 4, 11, 114
9, 169680, Control_c, 4, 11, 112
9, 169740, Control_c, 4, 11, 109
9, 169799, Note_on_c, 4, 54, 0
9, 169799, Note_on_c, 4, 57, 0
9, 169800, Note_on_c, 4, 50, 64
9, 169800, Control_c, 4, 11, 106
9, 169800, Note_on_c, 4, 54, 64
9, 169860, Control_c, 4, 11, 104
9, 169920, Control_c, 4, 11, 101
9, 169980, Control_c, 4, 11, 99
9, 170019, Note_on_c, 4, 50, 0
9, 170019, Note_on_c, 4, 54, 0
9, 170040, Note_on_c, 4, 49, 64
9, 170040, Note_on_c, 4, 52, 64
9, 170040, Control_c, 4, 11, 96
9, 170760, Control_c, 4, 11, 96
9, 170820, Control_c, 4, 11, 101
9, 170880, Control_c, 4, 11, 106
9, 170940, Control_c, 4, 11, 112
9, 170999, Note_on_c, 4, 49, 0
9, 170999, Note_on_c, 4, 52, 0
9, 171000, Control_c, 4, 11, 117
9, 171000, Note_on_c, 4, 57, 64
9, 171000, Note_on_c, 4, 54, 64
9, 171060, Control_c, 4, 11, 122
9, 171120, Control_c, 4, 11, 127
9, 171180, Control_c, 4, 11, 122
9, 171239, Note_on_c, 4, 57, 0
9, 171239, Note_on_c, 4, 54, 0
9, 171240, Control_c, 4, 11, 117
9, 171240, Note_on_c, 4, 54, 64
9, 171240, Note_on_c, 4, 50, 64
9, 171300, Control_c, 4, 11, 112
9, 171360, Control_c, 4, 11, 106
9, 171420, Control_c, 4, 11, 101
9, 171459, Note_on_c, 4, 54, 0
9, 171459, Note_on_c, 4, 50, 0
9, 171480, Control_c, 4, 11, 96
9, 171480, Note_on_c, 4, 49, 64
9, 171480, Note_on_c, 4, 52, 64
9, 172200, Control_c, 4, 11, 96
9, 172260, Control_c, 4, 11, 101
9, 172320, Control_c, 4, 11, 106
9, 172380, Control_c, 4, 11, 112
9, 172439, Note_on_c, 4, 49, 0
9, 172439, Note_on_c, 4, 52, 0
9, 172440, Note_on_c, 4, 54, 64
9, 172440, Note_on_c, 4, 57, 64
9, 172440, Control_c, 4, 11, 117
9, 172500, Control_c, 4, 11, 122
9, 172560, Control_c, 4, 11, 127
9, 172620, Control_c, 4, 11, 122
9, 172679, Note_on_c, 4, 54, 0
9, 172679, Note_on_c, 4, 57, 0
9, 172680, Control_c, 4, 11, 117
9, 172680, Note_on_c, 4, 50, 64
9, 172680, Note_on_c, 4, 54, 64
9, 172740, Control_c, 4, 11, 112
9, 172800, Control_c, 4, 11, 106
9, 172860, Control_c, 4, 11, 101
9, 172899, Note_on_c, 4, 50, 0
9, 172899, Note_on_c, 4, 54, 0
9, 172920, Note_on_c, 4, 52, 64
9, 172920, Control_c, 4, 11, 96
9, 172920, Note_on_c, 4, 49, 64
9, 173159, Note_on_c, 4, 52, 0
9, 173159, Note_on_c, 4, 49, 0
9, 174566, Control_c, 4, 11, 67
9, 174600, Note_on_c, 4, 63, 84
9, 174600, Note_on_c, 4, 66, 84
9, 174634, Control_c, 4, 11, 68
9, 174703, Control_c, 4, 11, 69
9, 174771, Control_c, 4, 11, 70
9, 174840, Control_c, 4, 11, 71
9, 174909, Control_c, 4, 11, 72
9, 174977, Control_c, 4, 11, 73
9, 175046, Control_c, 4, 11, 74
9, 175059, Note_on_c, 4, 63, 0
9, 175059, Note_on_c, 4, 66, 0
9, 175080, Note_on_c, 4, 66, 84
9, 175080, Note_on_c, 4, 63, 84
9, 175114, Control_c, 4, 11, 75
9, 175183, Control_c, 4, 11, 76
9, 175251, Control_c, 4, 11, 77
9, 175320, Control_c, 4, 11, 78
9, 175389, Control_c, 4, 11, 79
9, 175457, Control_c, 4, 11, 80
9, 175526, Control_c, 4, 11, 81
9, 175539, Note_on_c, 4, 66, 0
9, 175539, Note_on_c, 4, 63, 0
9, 175560, Note_on_c, 4, 63, 84
9, 175560, Note_on_c, 4, 66, 84
9, 175594, Control_c, 4, 11, 82
9, 175663, Control_c, 4, 11, 83
9, 175731, Control_c, 4, 11, 84
9, 175799, Note_on_c, 4, 63, 0
9, 175799, Note_on_c, 4, 66, 0
9, 175800, Control_c, 4, 11, 85
9, 175869, Control_c, 4, 11, 86
9, 175937, Control_c, 4, 11, 87
9, 176006, Control_c, 4, 11, 88
9, 176040, Note_on_c, 4, 67, 84
9, 176040, Note_on_c, 4, 64, 84
9, 176074, Control_c, 4, 11, 89
9, 176143, Control_c, 4, 11, 90
9, 176211, Control_c, 4, 11, 91
9, 176280, Control_c, 4, 11, 92
9, 176349, Control_c, 4, 11, 93
9, 176417, Control_c, 4, 11, 94
9, 176486, Control_c, 4, 11, 95
9, 176499, Note_on_c, 4, 67, 0
9, 176499, Note_on_c, 4, 64, 0
9, 176520, Note_on_c, 4, 67, 84
9, 176520, Note_on_c, 4, 64, 84
9, 176554, Control_c, 4, 11, 96
9, 176623, Control_c, 4, 11, 97
9, 176691, Control_c, 4, 11, 98
9, 176760, Control_c, 4, 11, 99
9, 176829, Control_c, 4, 11, 100
9, 176897, Control_c, 4, 11, 101
9, 176966, Control_c, 4, 11, 102
9, 176979, Note_on_c, 4, 67, 0
9, 176979, Note_on_c, 4, 64, 0
9, 177000, Note_on_c, 4, 67, 84
9, 177000, Note_on_c, 4, 64, 84
9, 177034, Control_c, 4, 11, 103
9, 177103, Control_c, 4, 11, 104
9, 177171, Control_c, 4, 11, 105
9, 177239, Note_on_c, 4, 67, 0
9, 177239, Note_on_c, 4, 64, 0
9, 177240, Control_c, 4, 11, 106
9, 177309, Control_c, 4, 11, 107
9, 177377, Control_c, 4, 11, 108
9, 177446, Control_c, 4, 11, 109
9, 177480, Note_on_c, 4, 67, 84
9, 177480, Note_on_c, 4, 64, 84
9, 177514, Control_c, 4, 11, 110
9, 177583, Control_c, 4, 11, 111
9, 177651, Control_c, 4, 11, 112
9, 177720, Control_c, 4, 11, 113
9, 177789, Control_c, 4, 11, 114
9, 177857, Control_c, 4, 11, 115
9, 177926, Control_c, 4, 11, 116
9, 177939, Note_on_c, 4, 67, 0
9, 177939, Note_on_c, 4, 64, 0
9, 177960, Note_on_c, 4, 64, 84
9, 177960, Note_on_c, 4, 67, 84
9, 177994, Control_c, 4, 11, 117
9, 178063, Control_c, 4, 11, 118
9, 178131, Control_c, 4, 11, 119
9, 178200, Control_c, 4, 11, 120
9, 178269, Control_c, 4, 11, 121
9, 178337, Control_c, 4, 11, 122
9, 178406, Control_c, 4, 11, 123
9, 178419, Note_on_c, 4, 64, 0
9, 178419, Note_on_c, 4, 67, 0
9, 178440, Note_on_c, 4, 55, 84
9, 178440, Note_on_c, 4, 64, 84
9, 178474, Control_c, 4, 11, 124
9, 178543, Control_c, 4, 11, 125
9, 178611, Control_c, 4, 11, 127
9, 178659, Note_on_c, 4, 55, 0
9, 178659, Note_on_c, 4, 64, 0
9, 178680, Note_on_c, 4, 62, 84
9, 178680, Note_on_c, 4, 54, 84
9, 179279, Note_on_c, 4, 62, 0
9, 179279, Note_on_c, 4, 54, 0
9, 179280, Note_on_c, 4, 61, 84
9, 179280, Note_on_c, 4, 52, 84
9, 179399, Note_on_c, 4, 61, 0
9, 179399, Note_on_c, 4, 52, 0
9, 179400, Note_on_c, 4, 54, 84
9, 179400, Note_on_c, 4, 62, 84
9, 179639, Note_on_c, 4, 54, 0
9, 179639, Note_on_c, 4, 62, 0
9, 180120, Note_on_c, 4, 62, 84
9, 180120, Note_on_c, 4, 54, 84
9, 180719, Note_on_c, 4, 62, 0
9, 180719, Note_on_c, 4, 54, 0
9, 180720, Note_on_c, 4, 61, 84
9, 180720, Note_on_c, 4, 52, 84
9, 180839, Note_on_c, 4, 61, 0
9, 180839, Note_on_c, 4, 52, 0
9, 180840, Note_on_c, 4, 62, 84
9, 180840, Note_on_c, 4, 54, 84
9, 181079, Note_on_c, 4, 62, 0
9, 181079, Note_on_c, 4, 54, 0
9, 181560, Note_on_c, 4, 62, 84
9, 181560, Note_on_c, 4, 54, 84
9, 182039, Note_on_c, 4, 62, 0
9, 182039, Note_on_c, 4, 54, 0
9, 182040, Note_on_c, 4, 61, 84
9, 182040, Note_on_c, 4, 64, 84
9, 182279, Note_on_c, 4, 61, 0
9, 182279, Note_on_c, 4, 64, 0
9, 182280, Note_on_c, 4, 66, 84
9, 182280, Note_on_c, 4, 62, 84
9, 182519, Note_on_c, 4, 66, 0
9, 182519, Note_on_c, 4, 62, 0
9, 182520, Note_on_c, 4, 67, 84
9, 182520, Note_on_c, 4, 64, 84
9, 182739, Note_on_c, 4, 67, 0
9, 182739, Note_on_c, 4, 64, 0
9, 182760, Note_on_c, 4, 62, 84
9, 182760, Note_on_c, 4, 66, 84
9, 182939, Note_on_c, 4, 62, 0
9, 182939, Note_on_c, 4, 66, 0
9, 183000, Note_on_c, 4, 61, 84
9, 183000, Note_on_c, 4, 64, 84
9, 183239, Note_on_c, 4, 61, 0
9, 183239, Note_on_c, 4, 64, 0
9, 184440, Note_on_c, 4, 64, 84
9, 185039, Note_on_c, 4, 64, 0
9, 185040, Note_on_c, 4, 63, 84
9, 185159, Note_on_c, 4, 63, 0
9, 185160, Note_on_c, 4, 64, 84
9, 185399, Note_on_c, 4, 64, 0
9, 185880, Note_on_c, 4, 64, 84
9, 186479, Note_on_c, 4, 64, 0
9, 186480, Note_on_c, 4, 63, 84
9, 186599, Note_on_c, 4, 63, 0
9, 186600, Note_on_c, 4, 64, 84
9, 186839, Note_on_c, 4, 64, 0
9, 187320, Note_on_c, 4, 64, 84
9, 187799, Note_on_c, 4, 64, 0
9, 187800, Note_on_c, 4, 62, 84
9, 188039, Note_on_c, 4, 62, 0
9, 188040, Note_on_c, 4, 66, 84
9, 188279, Note_on_c, 4, 66, 0
9, 188280, Note_on_c, 4, 64, 84
9, 188499, Note_on_c, 4, 64, 0
9, 188520, Note_on_c, 4, 57, 84
9, 188699, Note_on_c, 4, 57, 0
9, 188760, Note_on_c, 4, 54, 84
9, 188999, Note_on_c, 4, 54, 0
9, 200040, Note_on_c, 4, 41, 76
9, 200040, Note_on_c, 4, 53, 76
9, 200111, Note_on_c, 4, 53, 0
9, 200120, Note_on_c, 4, 53, 76
9, 200144, Note_on_c, 4, 41, 0
9, 200159, Note_on_c, 4, 53, 0
9, 200160, Note_on_c, 4, 57, 76
9, 200160, Note_on_c, 4, 41, 76
9, 200279, Note_on_c, 4, 57, 0
9, 200279, Note_on_c, 4, 41, 0
9, 200280, Note_on_c, 4, 53, 76
9, 200339, Note_on_c, 4, 53, 0
9, 200400, Note_on_c, 4, 53, 76
9, 200400, Note_on_c, 4, 57, 76
9, 200471, Note_on_c, 4, 53, 0
9, 200471, Note_on_c, 4, 57, 0
9, 200480, Note_on_c, 4, 57, 76
9, 200480, Note_on_c, 4, 53, 76
9, 200519, Note_on_c, 4, 57, 0
9, 200519, Note_on_c, 4, 53, 0
9, 200520, Note_on_c, 4, 57, 76
9, 200520, Note_on_c, 4, 60, 76
9, 200639, Note_on_c, 4, 57, 0
9, 200639, Note_on_c, 4, 60, 0
9, 200640, Note_on_c, 4, 53, 76
9, 200640, Note_on_c, 4, 57, 76
9, 200699, Note_on_c, 4, 53, 0
9, 200699, Note_on_c, 4, 57, 0
9, 200760, Note_on_c, 4, 60, 76
9, 200760, Note_on_c, 4, 57, 76
9, 200864, Note_on_c, 4, 60, 0
9, 200864, Note_on_c, 4, 57, 0
9, 200880, Note_on_c, 4, 65, 52
9, 200880, Note_on_c, 4, 57, 52
9, 200969, Note_on_c, 4, 65, 0
9, 200969, Note_on_c, 4, 57, 0
9, 201000, Note_on_c, 4, 65, 52
9, 201000, Note_on_c, 4, 57, 52
9, 201089, Note_on_c, 4, 65, 0
9, 201089, Note_on_c, 4, 57, 0
9, 201120, Note_on_c, 4, 64, 52
9, 201120, Note_on_c, 4, 60, 52
9, 201209, Note_on_c, 4, 64, 0
9, 201209, Note_on_c, 4, 60, 0
9, 201240, Note_on_c, 4, 62, 52
9, 201240, Note_on_c, 4, 58, 52
9, 201329, Note_on_c, 4, 62, 0
9, 201329, Note_on_c, 4, 58, 0
9, 201360, Note_on_c, 4, 62, 52
9, 201360, Note_on_c, 4, 58, 52
9, 201449, Note_on_c, 4, 62, 0
9, 201449, Note_on_c, 4, 58, 0
9, 201480, Note_on_c, 4, 60, 52
9, 201480, Note_on_c, 4, 57, 52
9, 201569, Note_on_c, 4, 60, 0
9, 201569, Note_on_c, 4, 57, 0
9, 201600, Note_on_c, 4, 58, 52
9, 201600, Note_on_c, 4, 55, 52
9, 201689, Note_on_c, 4, 58, 0
9, 201689, Note_on_c, 4, 55, 0
9, 201720, Note_on_c, 4, 58, 52
9, 201720, Note_on_c, 4, 55, 52
9, 201809, Note_on_c, 4, 58, 0
9, 201809, Note_on_c, 4, 55, 0
9, 201840, Note_on_c, 4, 53, 52
9, 201840, Note_on_c, 4, 57, 52
9, 201929, Note_on_c, 4, 53, 0
9, 201929, Note_on_c, 4, 57, 0
9, 201960, Note_on_c, 4, 55, 52
9, 201960, Note_on_c, 4, 52, 52
9, 202304, Note_on_c, 4, 55, 0
9, 202304, Note_on_c, 4, 52, 0
9, 202320, Note_on_c, 4, 67, 52
9, 202320, Note_on_c, 4, 64, 52
9, 202409, Note_on_c, 4, 67, 0
9, 202409, Note_on_c, 4, 64, 0
9, 202440, Note_on_c, 4, 67, 52
9, 202440, Note_on_c, 4, 64, 52
9, 202529, Note_on_c, 4, 67, 0
9, 202529, Note_on_c, 4, 64, 0
9, 202560, Note_on_c, 4, 62, 52
9, 202560, Note_on_c, 4, 65, 52
9, 202649, Note_on_c, 4, 62, 0
9, 202649, Note_on_c, 4, 65, 0
9, 202680, Note_on_c, 4, 60, 52
9, 202680, Note_on_c, 4, 64, 52
9, 202769, Note_on_c, 4, 60, 0
9, 202769, Note_on_c, 4, 64, 0
9, 202800, Note_on_c, 4, 60, 52
9, 202800, Note_on_c, 4, 64, 52
9, 202889, Note_on_c, 4, 60, 0
9, 202889, Note_on_c, 4, 64, 0
9, 202920, Note_on_c, 4, 62, 52
9, 202920, Note_on_c, 4, 58, 52
9, 203009, Note_on_c, 4, 62, 0
9, 203009, Note_on_c, 4, 58, 0
9, 203040, Note_on_c, 4, 60, 52
9, 203040, Note_on_c, 4, 57, 52
9, 203129, Note_on_c, 4, 60, 0
9, 203129, Note_on_c, 4, 57, 0
9, 203160, Note_on_c, 4, 57, 52
9, 203160, Note_on_c, 4, 60, 52
9, 203249, Note_on_c, 4, 57, 0
9, 203249, Note_on_c, 4, 60, 0
9, 203280, Note_on_c, 4, 58, 52
9, 203280, Note_on_c, 4, 55, 52
9, 203369, Note_on_c, 4, 58, 0
9, 203369, Note_on_c, 4, 55, 0
9, 203400, Note_on_c, 4, 53, 52
9, 203400, Note_on_c, 4, 57, 52
9, 203759, Note_on_c, 4, 53, 0
9, 203759, Note_on_c, 4, 57, 0
9, 205560, Note_on_c, 4, 62, 84
9, 205560, Note_on_c, 4, 65, 84
9, 205799, Note_on_c, 4, 62, 0
9, 205799, Note_on_c, 4, 65, 0
9, 205800, Note_on_c, 4, 61, 76
9, 205800, Note_on_c, 4, 64, 76
9, 205904, Note_on_c, 4, 61, 0
9, 205904, Note_on_c, 4, 64, 0
9, 205920, Note_on_c, 4, 62, 76
9, 205920, Note_on_c, 4, 59, 76
9, 206264, Note_on_c, 4, 62, 0
9, 206264, Note_on_c, 4, 59, 0
9, 206280, Note_on_c, 4, 57, 76
9, 206280, Note_on_c, 4, 61, 76
9, 206399, Note_on_c, 4, 57, 0
9, 206399, Note_on_c, 4, 61, 0
9, 206640, Note_on_c, 4, 59, 76
9, 206640, Note_on_c, 4, 62, 76
9, 206984, Note_on_c, 4, 59, 0
9, 206984, Note_on_c, 4, 62, 0
9, 207000, Note_on_c, 4, 61, 76
9, 207000, Note_on_c, 4, 57, 76
9, 207119, Note_on_c, 4, 61, 0
9, 207119, Note_on_c, 4, 57, 0
9, 207360, Note_on_c, 4, 59, 76
9, 207360, Note_on_c, 4, 62, 76
9, 207704, Note_on_c, 4, 59, 0
9, 207704, Note_on_c, 4, 62, 0
9, 207720, Note_on_c, 4, 57, 76
9, 207720, Note_on_c, 4, 61, 76
9, 207809, Note_on_c, 4, 57, 0
9, 207809, Note_on_c, 4, 61, 0
9, 207840, Note_on_c, 4, 64, 76
9, 207929, Note_on_c, 4, 64, 0
9, 207960, Note_on_c, 4, 61, 76
9, 208049, Note_on_c, 4, 61, 0
9, 208080, Note_on_c, 4, 57, 76
9, 208169, Note_on_c, 4, 57, 0
9, 208200, Note_on_c, 4, 52, 76
9, 208289, Note_on_c, 4, 52, 0
9, 208320, Note_on_c, 4, 49, 76
9, 208409, Note_on_c, 4, 49, 0
9, 208440, Note_on_c, 4, 45, 76
9, 208529, Note_on_c, 4, 45, 0
9, 208680, Note_on_c, 4, 53, 52
9, 208680, Note_on_c, 4, 41, 52
9, 208751, Note_on_c, 4, 53, 0
9, 208760, Note_on_c, 4, 53, 52
9, 208784, Note_on_c, 4, 41, 0
9, 208799, Note_on_c, 4, 53, 0
9, 208800, Note_on_c, 4, 57, 52
9, 208800, Note_on_c, 4, 41, 52
9, 208919, Note_on_c, 4, 57, 0
9, 208919, Note_on_c, 4, 41, 0
9, 208920, Note_on_c, 4, 53, 52
9, 208979, Note_on_c, 4, 53, 0
9, 209040, Note_on_c, 4, 57, 52
9, 209040, Note_on_c, 4, 53, 52
9, 209111, Note_on_c, 4, 57, 0
9, 209111, Note_on_c, 4, 53, 0
9, 209120, Note_on_c, 4, 57, 52
9, 209120, Note_on_c, 4, 53, 52
9, 209159, Note_on_c, 4, 57, 0
9, 209159, Note_on_c, 4, 53, 0
9, 209160, Note_on_c, 4, 57, 52
9, 209160, Note_on_c, 4, 60, 52
9, 209279, Note_on_c, 4, 57, 0
9, 209279, Note_on_c, 4, 60, 0
9, 209280, Note_on_c, 4, 53, 52
9, 209280, Note_on_c, 4, 57, 52
9, 209339, Note_on_c, 4, 53, 0
9, 209339, Note_on_c, 4, 57, 0
9, 209400, Note_on_c, 4, 60, 52
9, 209400, Note_on_c, 4, 57, 52
9, 209504, Note_on_c, 4, 60, 0
9, 209504, Note_on_c, 4, 57, 0
9, 209520, Note_on_c, 4, 65, 52
9, 209520, Note_on_c, 4, 57, 52
9, 209609, Note_on_c, 4, 65, 0
9, 209609, Note_on_c, 4, 57, 0
9, 209640, Note_on_c, 4, 57, 52
9, 209640, Note_on_c, 4, 65, 52
9, 209729, Note_on_c, 4, 57, 0
9, 209729, Note_on_c, 4, 65, 0
9, 209760, Note_on_c, 4, 60, 52
9, 209760, Note_on_c, 4, 64, 52
9, 209849, Note_on_c, 4, 60, 0
9, 209849, Note_on_c, 4, 64, 0
9, 209880, Note_on_c, 4, 58, 52
9, 209880, Note_on_c, 4, 62, 52
9, 209969, Note_on_c, 4, 58, 0
9, 209969, Note_on_c, 4, 62, 0
9, 210000, Note_on_c, 4, 62, 52
9, 210000, Note_on_c, 4, 58, 52
9, 210089, Note_on_c, 4, 62, 0
9, 210089, Note_on_c, 4, 58, 0
9, 210120, Note_on_c, 4, 57, 52
9, 210120, Note_on_c, 4, 60, 52
9, 210209, Note_on_c, 4, 57, 0
9, 210209, Note_on_c, 4, 60, 0
9, 210240, Note_on_c, 4, 58, 52
9, 210240, Note_on_c, 4, 55, 52
9, 210329, Note_on_c, 4, 58, 0
9, 210329, Note_on_c, 4, 55, 0
9, 210360, Note_on_c, 4, 55, 52
9, 210360, Note_on_c, 4, 58, 52
9, 210449, Note_on_c, 4, 55, 0
9, 210449, Note_on_c, 4, 58, 0
9, 210480, Note_on_c, 4, 57, 52
9, 210480, Note_on_c, 4, 53, 52
9, 210569, Note_on_c, 4, 57, 0
9, 210569, Note_on_c, 4, 53, 0
9, 210600, Note_on_c, 4, 55, 52
9, 210600, Note_on_c, 4, 52, 52
9, 210944, Note_on_c, 4, 55, 0
9, 210944, Note_on_c, 4, 52, 0
9, 210960, Note_on_c, 4, 64, 52
9, 210960, Note_on_c, 4, 67, 52
9, 211049, Note_on_c, 4, 64, 0
9, 211049, Note_on_c, 4, 67, 0
9, 211080, Note_on_c, 4, 64, 52
9, 211080, Note_on_c, 4, 67, 52
9, 211169, Note_on_c, 4, 64, 0
9, 211169, Note_on_c, 4, 67, 0
9, 211200, Note_on_c, 4, 65, 52
9, 211200, Note_on_c, 4, 62, 52
9, 211289, Note_on_c, 4, 65, 0
9, 211289, Note_on_c, 4, 62, 0
9, 211320, Note_on_c, 4, 60, 52
9, 211320, Note_on_c, 4, 64, 52
9, 211409, Note_on_c, 4, 60, 0
9, 211409, Note_on_c, 4, 64, 0
9, 211440, Note_on_c, 4, 64, 52
9, 211440, Note_on_c, 4, 60, 52
9, 211529, Note_on_c, 4, 64, 0
9, 211529, Note_on_c, 4, 60, 0
9, 211560, Note_on_c, 4, 58, 52
9, 211560, Note_on_c, 4, 62, 52
9, 211649, Note_on_c, 4, 58, 0
9, 211649, Note_on_c, 4, 62, 0
9, 211680, Note_on_c, 4, 60, 52
9, 211680, Note_on_c, 4, 57, 52
9, 211769, Note_on_c, 4, 60, 0
9, 211769, Note_on_c, 4, 57, 0
9, 211800, Note_on_c, 4, 60, 52
9, 211800, Note_on_c, 4, 57, 52
9, 211889, Note_on_c, 4, 60, 0
9, 211889, Note_on_c, 4, 57, 0
9, 211920, Note_on_c, 4, 55, 52
9, 211920, Note_on_c, 4, 58, 52
9, 212009, Note_on_c, 4, 55, 0
9, 212009, Note_on_c, 4, 58, 0
9, 212040, Note_on_c, 4, 53, 52
9, 212040, Note_on_c, 4, 57, 52
9, 212399, Note_on_c, 4, 53, 0
9, 212399, Note_on_c, 4, 57, 0
9, 214200, Note_on_c, 4, 62, 52
9, 214200, Note_on_c, 4, 65, 52
9, 214439, Note_on_c, 4, 62, 0
9, 214439, Note_on_c, 4, 65, 0
9, 214440, Note_on_c, 4, 64, 52
9, 214440, Note_on_c, 4, 61, 52
9, 214544, Note_on_c, 4, 64, 0
9, 214544, Note_on_c, 4, 61, 0
9, 214560, Note_on_c, 4, 59, 52
9, 214560, Note_on_c, 4, 62, 52
9, 214904, Note_on_c, 4, 59, 0
9, 214904, Note_on_c, 4, 62, 0
9, 214920, Note_on_c, 4, 57, 52
9, 214920, Note_on_c, 4, 61, 52
9, 215039, Note_on_c, 4, 57, 0
9, 215039, Note_on_c, 4, 61, 0
9, 215280, Note_on_c, 4, 62, 52
9, 215280, Note_on_c, 4, 59, 52
9, 215624, Note_on_c, 4, 62, 0
9, 215624, Note_on_c, 4, 59, 0
9, 215640, Note_on_c, 4, 61, 52
9, 215640, Note_on_c, 4, 57, 52
9, 215759, Note_on_c, 4, 61, 0
9, 215759, Note_on_c, 4, 57, 0
9, 216000, Note_on_c, 4, 62, 52
9, 216000, Note_on_c, 4, 59, 52
9, 216344, Note_on_c, 4, 62, 0
9, 216344, Note_on_c, 4, 59, 0
9, 216360, Note_on_c, 4, 57, 52
9, 216360, Note_on_c, 4, 61, 52
9, 216449, Note_on_c, 4, 57, 0
9, 216449, Note_on_c, 4, 61, 0
9, 216480, Note_on_c, 4, 64, 52
9, 216569, Note_on_c, 4, 64, 0
9, 216600, Note_on_c, 4, 61, 52
9, 216689, Note_on_c, 4, 61, 0
9, 216720, Note_on_c, 4, 57, 52
9, 216809, Note_on_c, 4, 57, 0
9, 216840, Note_on_c, 4, 52, 52
9, 216929, Note_on_c, 4, 52, 0
9, 216960, Note_on_c, 4, 49, 52
9, 217049, Note_on_c, 4, 49, 0
9, 217080, Note_on_c, 4, 45, 52
9, 217169, Note_on_c, 4, 45, 0
9, 223200, Note_on_c, 4, 65, 44
9, 223200, Note_on_c, 4, 60, 44
9, 223439, Note_on_c, 4, 60, 0
9, 223440, Note_on_c, 4, 59, 44
9, 223544, Note_on_c, 4, 59, 0
9, 223560, Note_on_c, 4, 60, 44
9, 223799, Note_on_c, 4, 60, 0
9, 223800, Note_on_c, 4, 59, 44
9, 223904, Note_on_c, 4, 59, 0
9, 223920, Note_on_c, 4, 60, 44
9, 224144, Note_on_c, 4, 65, 0
9, 224144, Note_on_c, 4, 60, 0
9, 224160, Note_on_c, 4, 59, 44
9, 224160, Note_on_c, 4, 65, 44
9, 224264, Note_on_c, 4, 59, 0
9, 224264, Note_on_c, 4, 65, 0
9, 224280, Note_on_c, 4, 59, 44
9, 224280, Note_on_c, 4, 65, 44
9, 224399, Note_on_c, 4, 59, 0
9, 224399, Note_on_c, 4, 65, 0
9, 228960, Note_on_c, 4, 58, 44
9, 228960, Note_on_c, 4, 63, 44
9, 229199, Note_on_c, 4, 58, 0
9, 229200, Note_on_c, 4, 57, 44
9, 229304, Note_on_c, 4, 57, 0
9, 229320, Note_on_c, 4, 58, 44
9, 229559, Note_on_c, 4, 58, 0
9, 229560, Note_on_c, 4, 57, 44
9, 229664, Note_on_c, 4, 57, 0
9, 229680, Note_on_c, 4, 58, 44
9, 229904, Note_on_c, 4, 63, 0
9, 229904, Note_on_c, 4, 58, 0
9, 229920, Note_on_c, 4, 63, 44
9, 229920, Note_on_c, 4, 57, 44
9, 230024, Note_on_c, 4, 63, 0
9, 230024, Note_on_c, 4, 57, 0
9, 230040, Note_on_c, 4, 63, 44
9, 230040, Note_on_c, 4, 57, 44
9, 230159, Note_on_c, 4, 63, 0
9, 230159, Note_on_c, 4, 57, 0
9, 231360, Note_on_c, 4, 58, 48
9, 231464, Note_on_c, 4, 58, 0
9, 231480, Note_on_c, 4, 62, 48
9, 231599, Note_on_c, 4, 62, 0
9, 231600, Note_on_c, 4, 58, 48
9, 231659, Note_on_c, 4, 58, 0
9, 231720, Note_on_c, 4, 62, 48
9, 231824, Note_on_c, 4, 62, 0
9, 231840, Note_on_c, 4, 65, 48
9, 231959, Note_on_c, 4, 65, 0
9, 231960, Note_on_c, 4, 62, 48
9, 232019, Note_on_c, 4, 62, 0
9, 232080, Note_on_c, 4, 65, 48
9, 232184, Note_on_c, 4, 65, 0
9, 232200, Note_on_c, 4, 58, 48
9, 233399, Note_on_c, 4, 58, 0
9, 233400, Note_on_c, 4, 60, 52
9, 233400, Note_on_c, 4, 57, 52
9, 233504, Note_on_c, 4, 60, 0
9, 233504, Note_on_c, 4, 57, 0
9, 233520, Note_on_c, 4, 57, 52
9, 233520, Note_on_c, 4, 60, 52
9, 233609, Note_on_c, 4, 57, 0
9, 233609, Note_on_c, 4, 60, 0
9, 233640, Note_on_c, 4, 57, 52
9, 233640, Note_on_c, 4, 60, 52
9, 234839, Note_on_c, 4, 57, 0
9, 234839, Note_on_c, 4, 60, 0
9, 234840, Note_on_c, 4, 62, 52
9, 234840, Note_on_c, 4, 58, 52
9, 234944, Note_on_c, 4, 62, 0
9, 234944, Note_on_c, 4, 58, 0
9, 234960, Note_on_c, 4, 62, 52
9, 234960, Note_on_c, 4, 58, 52
9, 235049, Note_on_c, 4, 62, 0
9, 235049, Note_on_c, 4, 58, 0
9, 235078, Control_c, 4, 11, 80
9, 235080, Note_on_c, 4, 62, 76
9, 235080, Control_c, 4, 11, 80
9, 235080, Note_on_c, 4, 58, 76
9, 235187, Control_c, 4, 11, 81
9, 235294, Control_c, 4, 11, 82
9, 235402, Control_c, 4, 11, 83
9, 235509, Control_c, 4, 11, 84
9, 235616, Control_c, 4, 11, 85
9, 235723, Control_c, 4, 11, 86
9, 235831, Control_c, 4, 11, 87
9, 235938, Control_c, 4, 11, 88
9, 236045, Control_c, 4, 11, 89
9, 236152, Control_c, 4, 11, 90
9, 236260, Control_c, 4, 11, 91
9, 236279, Note_on_c, 4, 62, 0
9, 236279, Note_on_c, 4, 58, 0
9, 236280, Note_on_c, 4, 63, 76
9, 236280, Note_on_c, 4, 60, 76
9, 236367, Control_c, 4, 11, 92
9, 236384, Note_on_c, 4, 63, 0
9, 236384, Note_on_c, 4, 60, 0
9, 236400, Note_on_c, 4, 60, 76
9, 236400, Note_on_c, 4, 63, 76
9, 236474, Control_c, 4, 11, 93
9, 236489, Note_on_c, 4, 60, 0
9, 236489, Note_on_c, 4, 63, 0
9, 236520, Note_on_c, 4, 60, 76
9, 236520, Note_on_c, 4, 63, 76
9, 236581, Control_c, 4, 11, 94
9, 236689, Control_c, 4, 11, 95
9, 236796, Control_c, 4, 11, 96
9, 236903, Control_c, 4, 11, 97
9, 237010, Control_c, 4, 11, 98
9, 237117, Control_c, 4, 11, 99
9, 237225, Control_c, 4, 11, 100
9, 237332, Control_c, 4, 11, 101
9, 237439, Control_c, 4, 11, 102
9, 237546, Control_c, 4, 11, 103
9, 237654, Control_c, 4, 11, 104
9, 237719, Note_on_c, 4, 60, 0
9, 237719, Note_on_c, 4, 63, 0
9, 237720, Note_on_c, 4, 62, 76
9, 237720, Note_on_c, 4, 65, 76
9, 237761, Control_c, 4, 11, 105
9, 237824, Note_on_c, 4, 62, 0
9, 237824, Note_on_c, 4, 65, 0
9, 237840, Note_on_c, 4, 62, 76
9, 237840, Note_on_c, 4, 65, 76
9, 237868, Control_c, 4, 11, 106
9, 237929, Note_on_c, 4, 62, 0
9, 237929, Note_on_c, 4, 65, 0
9, 237960, Note_on_c, 4, 53, 76
9, 237975, Control_c, 4, 11, 107
9, 238083, Control_c, 4, 11, 108
9, 238190, Control_c, 4, 11, 109
9, 238297, Control_c, 4, 11, 110
9, 238404, Control_c, 4, 11, 111
9, 238511, Control_c, 4, 11, 112
9, 238619, Control_c, 4, 11, 113
9, 238726, Control_c, 4, 11, 114
9, 238833, Control_c, 4, 11, 115
9, 238940, Control_c, 4, 11, 116
9, 239048, Control_c, 4, 11, 117
9, 239155, Control_c, 4, 11, 118
9, 239159, Note_on_c, 4, 53, 0
9, 239160, Note_on_c, 4, 52, 76
9, 239160, Note_on_c, 4, 55, 76
9, 239262, Control_c, 4, 11, 119
9, 239264, Note_on_c, 4, 52, 0
9, 239264, Note_on_c, 4, 55, 0
9, 239280, Note_on_c, 4, 55, 76
9, 239280, Note_on_c, 4, 52, 76
9, 239369, Note_on_c, 4, 55, 0
9, 239369, Note_on_c, 4, 52, 0
9, 239369, Control_c, 4, 11, 120
9, 239400, Note_on_c, 4, 55, 76
9, 239400, Note_on_c, 4, 52, 76
9, 239477, Control_c, 4, 11, 121
9, 239584, Control_c, 4, 11, 122
9, 239691, Control_c, 4, 11, 123
9, 239798, Control_c, 4, 11, 124
9, 239906, Control_c, 4, 11, 125
9, 240013, Control_c, 4, 11, 127
9, 240344, Note_on_c, 4, 55, 0
9, 240344, Note_on_c, 4, 52, 0
9, 240360, Note_on_c, 4, 53, 76
9, 240360, Note_on_c, 4, 57, 76
9, 240464, Note_on_c, 4, 53, 0
9, 240464, Note_on_c, 4, 57, 0
9, 240480, Note_on_c, 4, 41, 76
9, 240480, Note_on_c, 4, 57, 76
9, 240599, Note_on_c, 4, 41, 0
9, 240599, Note_on_c, 4, 57, 0
9, 240600, Note_on_c, 4, 53, 76
9, 240659, Note_on_c, 4, 53, 0
9, 240720, Note_on_c, 4, 53, 76
9, 240720, Note_on_c, 4, 57, 76
9, 240791, Note_on_c, 4, 53, 0
9, 240791, Note_on_c, 4, 57, 0
9, 240800, Note_on_c, 4, 53, 76
9, 240800, Note_on_c, 4, 57, 76
9, 240839, Note_on_c, 4, 53, 0
9, 240839, Note_on_c, 4, 57, 0
9, 240840, Note_on_c, 4, 60, 76
9, 240840, Note_on_c, 4, 57, 76
9, 240959, Note_on_c, 4, 60, 0
9, 240959, Note_on_c, 4, 57, 0
9, 240960, Note_on_c, 4, 53, 76
9, 240960, Note_on_c, 4, 57, 76
9, 241019, Note_on_c, 4, 53, 0
9, 241019, Note_on_c, 4, 57, 0
9, 241080, Note_on_c, 4, 60, 76
9, 241080, Note_on_c, 4, 57, 76
9, 241184, Note_on_c, 4, 60, 0
9, 241184, Note_on_c, 4, 57, 0
9, 241200, Note_on_c, 4, 53, 84
9, 242399, Note_on_c, 4, 53, 0
9, 242400, Note_on_c, 4, 55, 84
9, 242400, Note_on_c, 4, 52, 84
9, 242504, Note_on_c, 4, 55, 0
9, 242504, Note_on_c, 4, 52, 0
9, 242520, Note_on_c, 4, 52, 84
9, 242520, Note_on_c, 4, 55, 84
9, 242609, Note_on_c, 4, 52, 0
9, 242609, Note_on_c, 4, 55, 0
9, 242640, Note_on_c, 4, 55, 84
9, 242640, Note_on_c, 4, 52, 84
9, 243839, Note_on_c, 4, 55, 0
9, 243839, Note_on_c, 4, 52, 0
9, 243840, Note_on_c, 4, 57, 84
9, 243840, Note_on_c, 4, 53, 84
9, 243944, Note_on_c, 4, 57, 0
9, 243944, Note_on_c, 4, 53, 0
9, 243960, Note_on_c, 4, 57, 84
9, 243960, Note_on_c, 4, 53, 84
9, 244049, Note_on_c, 4, 57, 0
9, 244049, Note_on_c, 4, 53, 0
9, 244080, Note_on_c, 4, 65, 52
9, 244169, Note_on_c, 4, 65, 0
9, 244200, Note_on_c, 4, 65, 52
9, 244289, Note_on_c, 4, 65, 0
9, 244320, Note_on_c, 4, 64, 52
9, 244409, Note_on_c, 4, 64, 0
9, 244440, Note_on_c, 4, 62, 52
9, 244529, Note_on_c, 4, 62, 0
9, 244560, Note_on_c, 4, 62, 52
9, 244649, Note_on_c, 4, 62, 0
9, 244680, Note_on_c, 4, 60, 52
9, 244769, Note_on_c, 4, 60, 0
9, 244800, Note_on_c, 4, 58, 52
9, 244889, Note_on_c, 4, 58, 0
9, 244920, Note_on_c, 4, 58, 52
9, 245009, Note_on_c, 4, 58, 0
9, 245040, Note_on_c, 4, 57, 52
9, 245129, Note_on_c, 4, 57, 0
9, 245160, Note_on_c, 4, 55, 52
9, 245504, Note_on_c, 4, 55, 0
9, 245520, Note_on_c, 4, 67, 52
9, 245520, Note_on_c, 4, 64, 52
9, 245609, Note_on_c, 4, 67, 0
9, 245609, Note_on_c, 4, 64, 0
9, 245640, Note_on_c, 4, 64, 52
9, 245640, Note_on_c, 4, 67, 52
9, 245729, Note_on_c, 4, 64, 0
9, 245729, Note_on_c, 4, 67, 0
9, 245760, Note_on_c, 4, 62, 52
9, 245760, Note_on_c, 4, 65, 52
9, 245849, Note_on_c, 4, 62, 0
9, 245849, Note_on_c, 4, 65, 0
9, 245880, Note_on_c, 4, 60, 52
9, 245880, Note_on_c, 4, 64, 52
9, 245969, Note_on_c, 4, 60, 0
9, 245969, Note_on_c, 4, 64, 0
9, 246000, Note_on_c, 4, 64, 52
9, 246000, Note_on_c, 4, 60, 52
9, 246089, Note_on_c, 4, 64, 0
9, 246089, Note_on_c, 4, 60, 0
9, 246120, Note_on_c, 4, 62, 52
9, 246120, Note_on_c, 4, 58, 52
9, 246209, Note_on_c, 4, 62, 0
9, 246209, Note_on_c, 4, 58, 0
9, 246240, Note_on_c, 4, 60, 52
9, 246240, Note_on_c, 4, 57, 52
9, 246329, Note_on_c, 4, 60, 0
9, 246329, Note_on_c, 4, 57, 0
9, 246360, Note_on_c, 4, 57, 52
9, 246360, Note_on_c, 4, 60, 52
9, 246449, Note_on_c, 4, 57, 0
9, 246449, Note_on_c, 4, 60, 0
9, 246480, Note_on_c, 4, 58, 52
9, 246480, Note_on_c, 4, 55, 52
9, 246569, Note_on_c, 4, 58, 0
9, 246569, Note_on_c, 4, 55, 0
9, 246600, Note_on_c, 4, 57, 52
9, 246600, Note_on_c, 4, 53, 52
9, 246959, Note_on_c, 4, 57, 0
9, 246959, Note_on_c, 4, 53, 0
9, 247680, Note_on_c, 4, 64, 52
9, 247680, Note_on_c, 4, 58, 52
9, 247769, Note_on_c, 4, 64, 0
9, 247769, Note_on_c, 4, 58, 0
9, 247800, Note_on_c, 4, 64, 52
9, 247800, Note_on_c, 4, 58, 52
9, 247889, Note_on_c, 4, 64, 0
9, 247889, Note_on_c, 4, 58, 0
9, 247920, Note_on_c, 4, 57, 52
9, 247920, Note_on_c, 4, 60, 52
9, 248009, Note_on_c, 4, 57, 0
9, 248009, Note_on_c, 4, 60, 0
9, 248040, Note_on_c, 4, 60, 52
9, 248040, Note_on_c, 4, 55, 52
9, 248279, Note_on_c, 4, 55, 0
9, 248280, Note_on_c, 4, 53, 52
9, 248399, Note_on_c, 4, 60, 0
9, 248399, Note_on_c, 4, 53, 0
9, 250920, Note_on_c, 4, 64, 52
9, 250920, Note_on_c, 4, 60, 52
9, 251024, Note_on_c, 4, 64, 0
9, 251024, Note_on_c, 4, 60, 0
9, 251040, Note_on_c, 4, 64, 52
9, 251040, Note_on_c, 4, 60, 52
9, 251144, Note_on_c, 4, 64, 0
9, 251144, Note_on_c, 4, 60, 0
9, 251160, Note_on_c, 4, 64, 52
9, 251160, Note_on_c, 4, 60, 52
9, 251279, Note_on_c, 4, 64, 0
9, 251279, Note_on_c, 4, 60, 0
9, 251640, Note_on_c, 4, 64, 52
9, 251640, Note_on_c, 4, 60, 52
9, 251744, Note_on_c, 4, 64, 0
9, 251744, Note_on_c, 4, 60, 0
9, 251760, Note_on_c, 4, 60, 52
9, 251760, Note_on_c, 4, 64, 52
9, 251864, Note_on_c, 4, 60, 0
9, 251864, Note_on_c, 4, 64, 0
9, 251880, Note_on_c, 4, 64, 52
9, 251880, Note_on_c, 4, 60, 52
9, 251999, Note_on_c, 4, 64, 0
9, 251999, Note_on_c, 4, 60, 0
9, 252360, Note_on_c, 4, 60, 52
9, 252360, Note_on_c, 4, 64, 52
9, 252464, Note_on_c, 4, 60, 0
9, 252464, Note_on_c, 4, 64, 0
9, 252480, Note_on_c, 4, 64, 52
9, 252480, Note_on_c, 4, 60, 52
9, 252584, Note_on_c, 4, 64, 0
9, 252584, Note_on_c, 4, 60, 0
9, 252600, Note_on_c, 4, 64, 52
9, 252600, Note_on_c, 4, 60, 52
9, 252719, Note_on_c, 4, 64, 0
9, 252719, Note_on_c, 4, 60, 0
9, 253080, Note_on_c, 4, 60, 52
9, 253080, Note_on_c, 4, 64, 52
9, 253184, Note_on_c, 4, 60, 0
9, 253184, Note_on_c, 4, 64, 0
9, 253200, Note_on_c, 4, 64, 52
9, 253200, Note_on_c, 4, 60, 52
9, 253304, Note_on_c, 4, 64, 0
9, 253304, Note_on_c, 4, 60, 0
9, 253320, Note_on_c, 4, 64, 52
9, 253320, Note_on_c, 4, 60, 52
9, 253424, Note_on_c, 4, 64, 0
9, 253424, Note_on_c, 4, 60, 0
9, 253440, Note_on_c, 4, 64, 84
9, 253484, Note_on_c, 4, 64, 0
9, 253485, Note_on_c, 4, 65, 84
9, 253529, Note_on_c, 4, 65, 0
9, 253530, Note_on_c, 4, 64, 84
9, 253560, Note_on_c, 4, 58, 84
9, 253574, Note_on_c, 4, 64, 0
9, 253575, Note_on_c, 4, 65, 84
9, 253619, Note_on_c, 4, 65, 0
9, 253620, Note_on_c, 4, 64, 84
9, 253664, Note_on_c, 4, 58, 0
9, 253664, Note_on_c, 4, 64, 0
9, 253665, Note_on_c, 4, 65, 84
9, 253680, Note_on_c, 4, 58, 84
9, 253709, Note_on_c, 4, 65, 0
9, 253710, Note_on_c, 4, 62, 84
9, 253754, Note_on_c, 4, 62, 0
9, 253755, Note_on_c, 4, 64, 84
9, 253784, Note_on_c, 4, 58, 0
9, 253799, Note_on_c, 4, 64, 0
9, 253800, Note_on_c, 4, 65, 84
9, 253800, Note_on_c, 4, 57, 84
9, 253904, Note_on_c, 4, 65, 0
9, 253904, Note_on_c, 4, 57, 0
9, 253920, Note_on_c, 4, 60, 84
9, 253920, Note_on_c, 4, 57, 84
9, 254024, Note_on_c, 4, 60, 0
9, 254024, Note_on_c, 4, 57, 0
9, 254040, Note_on_c, 4, 53, 84
9, 254040, Note_on_c, 4, 57, 84
9, 254144, Note_on_c, 4, 53, 0
9, 254144, Note_on_c, 4, 57, 0
9, 254160, Note_on_c, 4, 58, 84
9, 254204, Note_on_c, 4, 58, 0
9, 254205, Note_on_c, 4, 60, 84
9, 254249, Note_on_c, 4, 60, 0
9, 254250, Note_on_c, 4, 58, 84
9, 254280, Note_on_c, 4, 48, 84
9, 254294, Note_on_c, 4, 58, 0
9, 254295, Note_on_c, 4, 60, 84
9, 254339, Note_on_c, 4, 60, 0
9, 254340, Note_on_c, 4, 58, 84
9, 254384, Note_on_c, 4, 48, 0
9, 254384, Note_on_c, 4, 58, 0
9, 254385, Note_on_c, 4, 60, 84
9, 254400, Note_on_c, 4, 48, 84
9, 254429, Note_on_c, 4, 60, 0
9, 254430, Note_on_c, 4, 57, 84
9, 254474, Note_on_c, 4, 57, 0
9, 254475, Note_on_c, 4, 58, 84
9, 254504, Note_on_c, 4, 48, 0
9, 254519, Note_on_c, 4, 58, 0
9, 254520, Note_on_c, 4, 53, 84
9, 254520, Note_on_c, 4, 57, 84
9, 254624, Note_on_c, 4, 53, 0
9, 254624, Note_on_c, 4, 57, 0
9, 254640, Note_on_c, 4, 60, 84
9, 254640, Note_on_c, 4, 57, 84
9, 254744, Note_on_c, 4, 60, 0
9, 254744, Note_on_c, 4, 57, 0
9, 254760, Note_on_c, 4, 65, 84
9, 254760, Note_on_c, 4, 53, 84
9, 254864, Note_on_c, 4, 65, 0
9, 254864, Note_on_c, 4, 53, 0
9, 254880, Note_on_c, 4, 64, 84
9, 254924, Note_on_c, 4, 64, 0
9, 254925, Note_on_c, 4, 65, 84
9, 254969, Note_on_c, 4, 65, 0
9, 254970, Note_on_c, 4, 64, 84
9, 255000, Note_on_c, 4, 58, 84
9, 255014, Note_on_c, 4, 64, 0
9, 255015, Note_on_c, 4, 65, 84
9, 255059, Note_on_c, 4, 65, 0
9, 255060, Note_on_c, 4, 64, 84
9, 255104, Note_on_c, 4, 58, 0
9, 255104, Note_on_c, 4, 64, 0
9, 255105, Note_on_c, 4, 65, 84
9, 255120, Note_on_c, 4, 58, 84
9, 255149, Note_on_c, 4, 65, 0
9, 255150, Note_on_c, 4, 62, 84
9, 255194, Note_on_c, 4, 62, 0
9, 255195, Note_on_c, 4, 64, 84
9, 255224, Note_on_c, 4, 58, 0
9, 255239, Note_on_c, 4, 64, 0
9, 255240, Note_on_c, 4, 65, 84
9, 255240, Note_on_c, 4, 57, 84
9, 255344, Note_on_c, 4, 65, 0
9, 255344, Note_on_c, 4, 57, 0
9, 255360, Note_on_c, 4, 60, 84
9, 255360, Note_on_c, 4, 57, 84
9, 255464, Note_on_c, 4, 60, 0
9, 255464, Note_on_c, 4, 57, 0
9, 255480, Note_on_c, 4, 53, 84
9, 255480, Note_on_c, 4, 57, 84
9, 255584, Note_on_c, 4, 53, 0
9, 255584, Note_on_c, 4, 57, 0
9, 255600, Note_on_c, 4, 64, 84
9, 255644, Note_on_c, 4, 64, 0
9, 255645, Note_on_c, 4, 65, 84
9, 255689, Note_on_c, 4, 65, 0
9, 255690, Note_on_c, 4, 64, 84
9, 255720, Note_on_c, 4, 55, 84
9, 255734, Note_on_c, 4, 64, 0
9, 255735, Note_on_c, 4, 65, 84
9, 255779, Note_on_c, 4, 65, 0
9, 255780, Note_on_c, 4, 64, 84
9, 255824, Note_on_c, 4, 55, 0
9, 255824, Note_on_c, 4, 64, 0
9, 255825, Note_on_c, 4, 65, 84
9, 255840, Note_on_c, 4, 55, 84
9, 255869, Note_on_c, 4, 65, 0
9, 255870, Note_on_c, 4, 62, 84
9, 255914, Note_on_c, 4, 62, 0
9, 255915, Note_on_c, 4, 64, 84
9, 255944, Note_on_c, 4, 55, 0
9, 255959, Note_on_c, 4, 64, 0
9, 255960, Note_on_c, 4, 65, 84
9, 255960, Note_on_c, 4, 57, 84
9, 256064, Note_on_c, 4, 65, 0
9, 256064, Note_on_c, 4, 57, 0
9, 256080, Note_on_c, 4, 57, 84
9, 256080, Note_on_c, 4, 60, 84
9, 256184, Note_on_c, 4, 57, 0
9, 256184, Note_on_c, 4, 60, 0
9, 256200, Note_on_c, 4, 57, 84
9, 256200, Note_on_c, 4, 53, 84
9, 256304, Note_on_c, 4, 57, 0
9, 256304, Note_on_c, 4, 53, 0
9, 256320, Note_on_c, 4, 64, 84
9, 256364, Note_on_c, 4, 64, 0
9, 256365, Note_on_c, 4, 65, 84
9, 256409, Note_on_c, 4, 65, 0
9, 256410, Note_on_c, 4, 64, 84
9, 256440, Note_on_c, 4, 58, 84
9, 256454, Note_on_c, 4, 64, 0
9, 256455, Note_on_c, 4, 65, 84
9, 256499, Note_on_c, 4, 65, 0
9, 256500, Note_on_c, 4, 64, 84
9, 256544, Note_on_c, 4, 58, 0
9, 256544, Note_on_c, 4, 64, 0
9, 256545, Note_on_c, 4, 65, 84
9, 256560, Note_on_c, 4, 58, 84
9, 256589, Note_on_c, 4, 65, 0
9, 256590, Note_on_c, 4, 62, 84
9, 256634, Note_on_c, 4, 62, 0
9, 256635, Note_on_c, 4, 64, 84
9, 256664, Note_on_c, 4, 58, 0
9, 256679, Note_on_c, 4, 64, 0
9, 256680, Note_on_c, 4, 57, 84
9, 256680, Note_on_c, 4, 65, 84
9, 256784, Note_on_c, 4, 57, 0
9, 256784, Note_on_c, 4, 65, 0
9, 256800, Note_on_c, 4, 60, 84
9, 256904, Note_on_c, 4, 60, 0
9, 256920, Note_on_c, 4, 57, 84
9, 257024, Note_on_c, 4, 57, 0
9, 257040, Note_on_c, 4, 53, 84
9, 257144, Note_on_c, 4, 53, 0
9, 257160, Note_on_c, 4, 60, 84
9, 257264, Note_on_c, 4, 60, 0
9, 257280, Note_on_c, 4, 57, 84
9, 257384, Note_on_c, 4, 57, 0
9, 257400, Note_on_c, 4, 53, 84
9, 257504, Note_on_c, 4, 53, 0
9, 257520, Note_on_c, 4, 48, 84
9, 257624, Note_on_c, 4, 48, 0
9, 257640, Note_on_c, 4, 41, 84
9, 257711, Note_on_c, 4, 41, 0
9, 257720, Note_on_c, 4, 41, 84
9, 257759, Note_on_c, 4, 41, 0
9, 257760, Note_on_c, 4, 45, 92
9, 257879, Note_on_c, 4, 45, 0
9, 257880, Note_on_c, 4, 41, 84
9, 257939, Note_on_c, 4, 41, 0
9, 259080, Note_on_c, 4, 53, 84
9, 259080, Note_on_c, 4, 41, 84
9, 259151, Note_on_c, 4, 53, 0
9, 259151, Note_on_c, 4, 41, 0
9, 259160, Note_on_c, 4, 41, 84
9, 259160, Note_on_c, 4, 53, 84
9, 259199, Note_on_c, 4, 41, 0
9, 259199, Note_on_c, 4, 53, 0
9, 259200, Note_on_c, 4, 45, 92
9, 259200, Note_on_c, 4, 57, 92
9, 259319, Note_on_c, 4, 45, 0
9, 259319, Note_on_c, 4, 57, 0
9, 259320, Note_on_c, 4, 41, 84
9, 259320, Note_on_c, 4, 53, 84
9, 259379, Note_on_c, 4, 41, 0
9, 259379, Note_on_c, 4, 53, 0
9, 259440, Note_on_c, 4, 41, 84
9, 259440, Note_on_c, 4, 53, 84
9, 259511, Note_on_c, 4, 41, 0
9, 259511, Note_on_c, 4, 53, 0
9, 259520, Note_on_c, 4, 41, 84
9, 259520, Note_on_c, 4, 53, 84
9, 259559, Note_on_c, 4, 41, 0
9, 259559, Note_on_c, 4, 53, 0
9, 259560, Note_on_c, 4, 45, 92
9, 259560, Note_on_c, 4, 57, 92
9, 259679, Note_on_c, 4, 45, 0
9, 259679, Note_on_c, 4, 57, 0
9, 259680, Note_on_c, 4, 53, 84
9, 259680, Note_on_c, 4, 41, 84
9, 259784, Note_on_c, 4, 53, 0
9, 259784, Note_on_c, 4, 41, 0
9, 259800, Note_on_c, 4, 41, 84
9, 259800, Note_on_c, 4, 53, 84
9, 259871, Note_on_c, 4, 41, 0
9, 259871, Note_on_c, 4, 53, 0
9, 259880, Note_on_c, 4, 53, 84
9, 259880, Note_on_c, 4, 41, 84
9, 259919, Note_on_c, 4, 53, 0
9, 259919, Note_on_c, 4, 41, 0
9, 259920, Note_on_c, 4, 57, 92
9, 259920, Note_on_c, 4, 45, 92
9, 260039, Note_on_c, 4, 57, 0
9, 260039, Note_on_c, 4, 45, 0
9, 260040, Note_on_c, 4, 53, 84
9, 260040, Note_on_c, 4, 41, 84
9, 260144, Note_on_c, 4, 53, 0
9, 260144, Note_on_c, 4, 41, 0
9, 260160, Note_on_c, 4, 41, 84
9, 260160, Note_on_c, 4, 53, 84
9, 260231, Note_on_c, 4, 41, 0
9, 260231, Note_on_c, 4, 53, 0
9, 260240, Note_on_c, 4, 53, 84
9, 260240, Note_on_c, 4, 41, 84
9, 260279, Note_on_c, 4, 53, 0
9, 260279, Note_on_c, 4, 41, 0
9, 260280, Note_on_c, 4, 57, 92
9, 260280, Note_on_c, 4, 45, 92
9, 260399, Note_on_c, 4, 57, 0
9, 260399, Note_on_c, 4, 45, 0
9, 260400, Note_on_c, 4, 41, 84
9, 260400, Note_on_c, 4, 53, 84
9, 260504, Note_on_c, 4, 41, 0
9, 260504, Note_on_c, 4, 53, 0
9, 260520, Note_on_c, 4, 53, 84
9, 260520, Note_on_c, 4, 41, 84
9, 260609, Note_on_c, 4, 53, 0
9, 260609, Note_on_c, 4, 41, 0
9, 260640, Note_on_c, 4, 45, 84
9, 260640, Note_on_c, 4, 57, 84
9, 260640, Control_c, 4, 11, 127
9, 260680, Control_c, 4, 11, 125
9, 260720, Control_c, 4, 11, 124
9, 260760, Control_c, 4, 11, 122
9, 260800, Control_c, 4, 11, 120
9, 260840, Control_c, 4, 11, 118
9, 260880, Control_c, 4, 11, 117
9, 260920, Control_c, 4, 11, 115
9, 260960, Control_c, 4, 11, 113
9, 261000, Control_c, 4, 11, 111
9, 261040, Control_c, 4, 11, 110
9, 261080, Control_c, 4, 11, 108
9, 261120, Control_c, 4, 11, 106
9, 261160, Control_c, 4, 11, 104
9, 261200, Control_c, 4, 11, 103
9, 261240, Control_c, 4, 11, 101
9, 261280, Control_c, 4, 11, 99
9, 261320, Control_c, 4, 11, 97
9, 261360, Control_c, 4, 11, 96
9, 261400, Control_c, 4, 11, 94
9, 261440, Control_c, 4, 11, 92
9, 261480, Control_c, 4, 11, 90
9, 261520, Control_c, 4, 11, 89
9, 261560, Control_c, 4, 11, 87
9, 261600, Control_c, 4, 11, 85
9, 261640, Control_c, 4, 11, 83
9, 261680, Control_c, 4, 11, 82
9, 261720, Control_c, 4, 11, 80
9, 261760, Control_c, 4, 11, 78
9, 261800, Control_c, 4, 11, 76
9, 261840, Control_c, 4, 11, 75
9, 261880, Control_c, 4, 11, 73
9, 261920, Control_c, 4, 11, 71
9, 261960, Control_c, 4, 11, 69
9, 262000, Control_c, 4, 11, 68
9, 262040, Control_c, 4, 11, 64
9, 262064, Note_on_c, 4, 45, 0
9, 262064, Note_on_c, 4, 57, 0
9, 262078, Control_c, 4, 11, 80
9, 262080, Note_on_c, 4, 57, 72
9, 262080, Control_c, 4, 11, 80
9, 262080, Note_on_c, 4, 50, 72
9, 262133, Control_c, 4, 11, 84
9, 262187, Control_c, 4, 11, 87
9, 262240, Control_c, 4, 11, 91
9, 262293, Control_c, 4, 11, 94
9, 262347, Control_c, 4, 11, 98
9, 262400, Control_c, 4, 11, 101
9, 262453, Control_c, 4, 11, 105
9, 262507, Control_c, 4, 11, 108
9, 262560, Control_c, 4, 11, 112
9, 262613, Control_c, 4, 11, 108
9, 262667, Control_c, 4, 11, 105
9, 262679, Note_on_c, 4, 50, 0
9, 262680, Note_on_c, 4, 45, 72
9, 262720, Control_c, 4, 11, 101
9, 262773, Control_c, 4, 11, 98
9, 262799, Note_on_c, 4, 45, 0
9, 262800, Note_on_c, 4, 50, 72
9, 262827, Control_c, 4, 11, 94
9, 262880, Control_c, 4, 11, 91
9, 262933, Control_c, 4, 11, 87
9, 262987, Control_c, 4, 11, 84
9, 263039, Note_on_c, 4, 57, 0
9, 263039, Note_on_c, 4, 50, 0
9, 263040, Control_c, 4, 11, 80
9, 263280, Control_c, 4, 11, 96
9, 263520, Control_c, 4, 11, 96
9, 263520, Note_on_c, 4, 50, 64
9, 263520, Note_on_c, 4, 57, 64
9, 263573, Control_c, 4, 11, 100
9, 263627, Control_c, 4, 11, 103
9, 263680, Control_c, 4, 11, 107
9, 263733, Control_c, 4, 11, 110
9, 263787, Control_c, 4, 11, 114
9, 263840, Control_c, 4, 11, 117
9, 263893, Control_c, 4, 11, 121
9, 263947, Control_c, 4, 11, 124
9, 264000, Control_c, 4, 11, 127
9, 264053, Control_c, 4, 11, 124
9, 264107, Control_c, 4, 11, 121
9, 264119, Note_on_c, 4, 50, 0
9, 264120, Note_on_c, 4, 45, 64
9, 264160, Control_c, 4, 11, 117
9, 264213, Control_c, 4, 11, 114
9, 264239, Note_on_c, 4, 45, 0
9, 264240, Note_on_c, 4, 50, 64
9, 264267, Control_c, 4, 11, 110
9, 264320, Control_c, 4, 11, 107
9, 264373, Control_c, 4, 11, 103
9, 264427, Control_c, 4, 11, 100
9, 264479, Note_on_c, 4, 57, 0
9, 264479, Note_on_c, 4, 50, 0
9, 264480, Control_c, 4, 11, 96
9, 264720, Control_c, 4, 11, 127
9, 264960, Note_on_c, 4, 57, 48
9, 264960, Note_on_c, 4, 50, 48
9, 265439, Note_on_c, 4, 50, 0
9, 265440, Note_on_c, 4, 49, 48
9, 265679, Note_on_c, 4, 49, 0
9, 265680, Note_on_c, 4, 50, 48
9, 265919, Note_on_c, 4, 50, 0
9, 265920, Note_on_c, 4, 49, 48
9, 266139, Note_on_c, 4, 49, 0
9, 266160, Note_on_c, 4, 50, 48
9, 266339, Note_on_c, 4, 50, 0
9, 266379, Note_on_c, 4, 57, 0
9, 266400, Note_on_c, 4, 45, 48
9, 266400, Note_on_c, 4, 57, 48
9, 266639, Note_on_c, 4, 45, 0
9, 266639, Note_on_c, 4, 57, 0
9, 267600, Control_c, 4, 11, 96
9, 267840, Note_on_c, 4, 45, 64
9, 267840, Note_on_c, 4, 57, 64
9, 267893, Control_c, 4, 11, 99
9, 267947, Control_c, 4, 11, 103
9, 268000, Control_c, 4, 11, 106
9, 268053, Control_c, 4, 11, 110
9, 268107, Control_c, 4, 11, 113
9, 268160, Control_c, 4, 11, 117
9, 268213, Control_c, 4, 11, 120
9, 268267, Control_c, 4, 11, 124
9, 268320, Control_c, 4, 11, 127
9, 268373, Control_c, 4, 11, 124
9, 268427, Control_c, 4, 11, 120
9, 268480, Control_c, 4, 11, 117
9, 268533, Control_c, 4, 11, 113
9, 268587, Control_c, 4, 11, 110
9, 268640, Control_c, 4, 11, 106
9, 268693, Control_c, 4, 11, 103
9, 268747, Control_c, 4, 11, 99
9, 268799, Note_on_c, 4, 45, 0
9, 268799, Note_on_c, 4, 57, 0
9, 268800, Control_c, 4, 11, 96
9, 269280, Note_on_c, 4, 45, 64
9, 269280, Note_on_c, 4, 57, 64
9, 269333, Control_c, 4, 11, 99
9, 269387, Control_c, 4, 11, 103
9, 269440, Control_c, 4, 11, 106
9, 269493, Control_c, 4, 11, 110
9, 269547, Control_c, 4, 11, 113
9, 269600, Control_c, 4, 11, 117
9, 269653, Control_c, 4, 11, 120
9, 269707, Control_c, 4, 11, 124
9, 269760, Control_c, 4, 11, 127
9, 269813, Control_c, 4, 11, 124
9, 269867, Control_c, 4, 11, 120
9, 269920, Control_c, 4, 11, 117
9, 269973, Control_c, 4, 11, 113
9, 270027, Control_c, 4, 11, 110
9, 270080, Control_c, 4, 11, 106
9, 270133, Control_c, 4, 11, 103
9, 270187, Control_c, 4, 11, 99
9, 270239, Note_on_c, 4, 45, 0
9, 270239, Note_on_c, 4, 57, 0
9, 270240, Control_c, 4, 11, 96
9, 270480, Control_c, 4, 11, 127
9, 270720, Note_on_c, 4, 45, 48
9, 270720, Note_on_c, 4, 57, 48
9, 270959, Note_on_c, 4, 57, 0
9, 270960, Note_on_c, 4, 55, 48
9, 271199, Note_on_c, 4, 45, 0
9, 271199, Note_on_c, 4, 55, 0
9, 271200, Note_on_c, 4, 54, 48
9, 271200, Note_on_c, 4, 50, 48
9, 271419, Note_on_c, 4, 54, 0
9, 271419, Note_on_c, 4, 50, 0
9, 271440, Note_on_c, 4, 50, 48
9, 271440, Note_on_c, 4, 54, 48
9, 271679, Note_on_c, 4, 50, 0
9, 271679, Note_on_c, 4, 54, 0
9, 271680, Note_on_c, 4, 45, 48
9, 271680, Note_on_c, 4, 52, 48
9, 271899, Note_on_c, 4, 45, 0
9, 271899, Note_on_c, 4, 52, 0
9, 271920, Note_on_c, 4, 52, 48
9, 271920, Note_on_c, 4, 45, 48
9, 272099, Note_on_c, 4, 52, 0
9, 272099, Note_on_c, 4, 45, 0
9, 272160, Note_on_c, 4, 54, 48
9, 272160, Note_on_c, 4, 50, 48
9, 272399, Note_on_c, 4, 54, 0
9, 272399, Note_on_c, 4, 50, 0
9, 272880, Control_c, 4, 11, 96
9, 273600, Control_c, 4, 11, 96
9, 273600, Note_on_c, 4, 50, 68
9, 273600, Note_on_c, 4, 57, 68
9, 273653, Control_c, 4, 11, 99
9, 273707, Control_c, 4, 11, 103
9, 273760, Control_c, 4, 11, 106
9, 273813, Control_c, 4, 11, 110
9, 273867, Control_c, 4, 11, 113
9, 273920, Control_c, 4, 11, 117
9, 273973, Control_c, 4, 11, 120
9, 274027, Control_c, 4, 11, 124
9, 274080, Control_c, 4, 11, 127
9, 274133, Control_c, 4, 11, 124
9, 274187, Control_c, 4, 11, 120
9, 274199, Note_on_c, 4, 50, 0
9, 274200, Note_on_c, 4, 45, 68
9, 274240, Control_c, 4, 11, 117
9, 274293, Control_c, 4, 11, 113
9, 274319, Note_on_c, 4, 45, 0
9, 274320, Note_on_c, 4, 50, 68
9, 274347, Control_c, 4, 11, 110
9, 274400, Control_c, 4, 11, 106
9, 274453, Control_c, 4, 11, 103
9, 274507, Control_c, 4, 11, 99
9, 274559, Note_on_c, 4, 57, 0
9, 274559, Note_on_c, 4, 50, 0
9, 274560, Control_c, 4, 11, 96
9, 275040, Note_on_c, 4, 50, 68
9, 275040, Note_on_c, 4, 57, 68
9, 275093, Control_c, 4, 11, 99
9, 275147, Control_c, 4, 11, 103
9, 275200, Control_c, 4, 11, 106
9, 275253, Control_c, 4, 11, 110
9, 275307, Control_c, 4, 11, 113
9, 275360, Control_c, 4, 11, 117
9, 275413, Control_c, 4, 11, 120
9, 275467, Control_c, 4, 11, 124
9, 275520, Control_c, 4, 11, 127
9, 275573, Control_c, 4, 11, 124
9, 275627, Control_c, 4, 11, 120
9, 275639, Note_on_c, 4, 50, 0
9, 275640, Note_on_c, 4, 45, 68
9, 275680, Control_c, 4, 11, 117
9, 275733, Control_c, 4, 11, 113
9, 275759, Note_on_c, 4, 45, 0
9, 275760, Note_on_c, 4, 50, 68
9, 275787, Control_c, 4, 11, 110
9, 275840, Control_c, 4, 11, 106
9, 275893, Control_c, 4, 11, 103
9, 275947, Control_c, 4, 11, 99
9, 275999, Note_on_c, 4, 57, 0
9, 275999, Note_on_c, 4, 50, 0
9, 276000, Control_c, 4, 11, 96
9, 276240, Control_c, 4, 11, 127
9, 276480, Note_on_c, 4, 57, 52
9, 276480, Note_on_c, 4, 50, 52
9, 276959, Note_on_c, 4, 50, 0
9, 276960, Note_on_c, 4, 49, 52
9, 277199, Note_on_c, 4, 49, 0
9, 277200, Note_on_c, 4, 50, 52
9, 277419, Note_on_c, 4, 57, 0
9, 277439, Note_on_c, 4, 50, 0
9, 277440, Note_on_c, 4, 57, 52
9, 277440, Note_on_c, 4, 49, 52
9, 277619, Note_on_c, 4, 57, 0
9, 277659, Note_on_c, 4, 49, 0
9, 277680, Note_on_c, 4, 57, 52
9, 277680, Note_on_c, 4, 50, 52
9, 277859, Note_on_c, 4, 57, 0
9, 277859, Note_on_c, 4, 50, 0
9, 277920, Note_on_c, 4, 57, 52
9, 277920, Note_on_c, 4, 45, 52
9, 278159, Note_on_c, 4, 57, 0
9, 278159, Note_on_c, 4, 45, 0
9, 278640, Control_c, 4, 11, 96
9, 279360, Note_on_c, 4, 45, 68
9, 279360, Note_on_c, 4, 57, 68
9, 279413, Control_c, 4, 11, 99
9, 279467, Control_c, 4, 11, 103
9, 279520, Control_c, 4, 11, 106
9, 279573, Control_c, 4, 11, 110
9, 279627, Control_c, 4, 11, 113
9, 279680, Control_c, 4, 11, 117
9, 279733, Control_c, 4, 11, 120
9, 279787, Control_c, 4, 11, 124
9, 279840, Control_c, 4, 11, 127
9, 279893, Control_c, 4, 11, 124
9, 279947, Control_c, 4, 11, 120
9, 280000, Control_c, 4, 11, 117
9, 280053, Control_c, 4, 11, 113
9, 280107, Control_c, 4, 11, 110
9, 280160, Control_c, 4, 11, 106
9, 280213, Control_c, 4, 11, 103
9, 280267, Control_c, 4, 11, 99
9, 280319, Note_on_c, 4, 45, 0
9, 280319, Note_on_c, 4, 57, 0
9, 280320, Control_c, 4, 11, 96
9, 280800, Note_on_c, 4, 57, 68
9, 280800, Note_on_c, 4, 45, 68
9, 280853, Control_c, 4, 11, 99
9, 280907, Control_c, 4, 11, 103
9, 280960, Control_c, 4, 11, 106
9, 281013, Control_c, 4, 11, 110
9, 281067, Control_c, 4, 11, 113
9, 281120, Control_c, 4, 11, 117
9, 281173, Control_c, 4, 11, 120
9, 281227, Control_c, 4, 11, 124
9, 281280, Control_c, 4, 11, 127
9, 281333, Control_c, 4, 11, 124
9, 281387, Control_c, 4, 11, 120
9, 281440, Control_c, 4, 11, 117
9, 281493, Control_c, 4, 11, 113
9, 281547, Control_c, 4, 11, 110
9, 281600, Control_c, 4, 11, 106
9, 281653, Control_c, 4, 11, 103
9, 281707, Control_c, 4, 11, 99
9, 281759, Note_on_c, 4, 57, 0
9, 281759, Note_on_c, 4, 45, 0
9, 281760, Control_c, 4, 11, 96
9, 282000, Control_c, 4, 11, 127
9, 282240, Note_on_c, 4, 45, 52
9, 282240, Note_on_c, 4, 57, 52
9, 282479, Note_on_c, 4, 57, 0
9, 282480, Note_on_c, 4, 55, 52
9, 282719, Note_on_c, 4, 45, 0
9, 282719, Note_on_c, 4, 55, 0
9, 282720, Note_on_c, 4, 54, 52
9, 282720, Note_on_c, 4, 50, 52
9, 282939, Note_on_c, 4, 54, 0
9, 282939, Note_on_c, 4, 50, 0
9, 282960, Note_on_c, 4, 50, 52
9, 282960, Note_on_c, 4, 54, 52
9, 283199, Note_on_c, 4, 50, 0
9, 283199, Note_on_c, 4, 54, 0
9, 283200, Note_on_c, 4, 52, 52
9, 283200, Note_on_c, 4, 45, 52
9, 283419, Note_on_c, 4, 52, 0
9, 283419, Note_on_c, 4, 45, 0
9, 283440, Note_on_c, 4, 52, 52
9, 283440, Note_on_c, 4, 45, 52
9, 283619, Note_on_c, 4, 52, 0
9, 283619, Note_on_c, 4, 45, 0
9, 283680, Note_on_c, 4, 54, 52
9, 283680, Note_on_c, 4, 50, 52
9, 283919, Note_on_c, 4, 54, 0
9, 283919, Note_on_c, 4, 50, 0
9, 285120, Note_on_c, 4, 54, 48
9, 285120, Note_on_c, 4, 57, 48
9, 286319, Note_on_c, 4, 54, 0
9, 286319, Note_on_c, 4, 57, 0
9, 286320, Note_on_c, 4, 59, 48
9, 286320, Note_on_c, 4, 55, 48
9, 286539, Note_on_c, 4, 59, 0
9, 286539, Note_on_c, 4, 55, 0
9, 286560, Note_on_c, 4, 55, 48
9, 286560, Note_on_c, 4, 52, 48
9, 287759, Note_on_c, 4, 55, 0
9, 287759, Note_on_c, 4, 52, 0
9, 287760, Note_on_c, 4, 57, 48
9, 287760, Note_on_c, 4, 54, 48
9, 287979, Note_on_c, 4, 57, 0
9, 287979, Note_on_c, 4, 54, 0
9, 288000, Note_on_c, 4, 54, 48
9, 288000, Note_on_c, 4, 50, 48
9, 288519, Note_on_c, 4, 54, 0
9, 288519, Note_on_c, 4, 50, 0
9, 288540, Note_on_c, 4, 55, 48
9, 288540, Note_on_c, 4, 52, 48
9, 288599, Note_on_c, 4, 55, 0
9, 288599, Note_on_c, 4, 52, 0
9, 288600, Note_on_c, 4, 54, 48
9, 288600, Note_on_c, 4, 50, 48
9, 288659, Note_on_c, 4, 54, 0
9, 288659, Note_on_c, 4, 50, 0
9, 288660, Note_on_c, 4, 52, 48
9, 288660, Note_on_c, 4, 49, 48
9, 288719, Note_on_c, 4, 52, 0
9, 288719, Note_on_c, 4, 49, 0
9, 288720, Note_on_c, 4, 50, 48
9, 288720, Note_on_c, 4, 54, 48
9, 288959, Note_on_c, 4, 50, 0
9, 288959, Note_on_c, 4, 54, 0
9, 288960, Note_on_c, 4, 57, 48
9, 288960, Note_on_c, 4, 54, 48
9, 289199, Note_on_c, 4, 57, 0
9, 289199, Note_on_c, 4, 54, 0
9, 289200, Note_on_c, 4, 55, 48
9, 289200, Note_on_c, 4, 52, 48
9, 289419, Note_on_c, 4, 55, 0
9, 289419, Note_on_c, 4, 52, 0
9, 289440, Note_on_c, 4, 54, 48
9, 289440, Note_on_c, 4, 50, 48
9, 290159, Note_on_c, 4, 54, 0
9, 290159, Note_on_c, 4, 50, 0
9, 290160, Note_on_c, 4, 49, 48
9, 290160, Note_on_c, 4, 52, 48
9, 290399, Note_on_c, 4, 49, 0
9, 290399, Note_on_c, 4, 52, 0
9, 290880, Note_on_c, 4, 57, 48
9, 290880, Note_on_c, 4, 54, 48
9, 291839, Note_on_c, 4, 57, 0
9, 291839, Note_on_c, 4, 54, 0
9, 291840, Note_on_c, 4, 61, 48
9, 291840, Note_on_c, 4, 57, 48
9, 292079, Note_on_c, 4, 61, 0
9, 292079, Note_on_c, 4, 57, 0
9, 292080, Note_on_c, 4, 59, 48
9, 292080, Note_on_c, 4, 55, 48
9, 292299, Note_on_c, 4, 59, 0
9, 292299, Note_on_c, 4, 55, 0
9, 292320, Note_on_c, 4, 54, 48
9, 292320, Note_on_c, 4, 57, 48
9, 292799, Note_on_c, 4, 54, 0
9, 292799, Note_on_c, 4, 57, 0
9, 292800, Note_on_c, 4, 52, 48
9, 292800, Note_on_c, 4, 55, 48
9, 293279, Note_on_c, 4, 52, 0
9, 293279, Note_on_c, 4, 55, 0
9, 293280, Note_on_c, 4, 59, 48
9, 293280, Note_on_c, 4, 55, 48
9, 293519, Note_on_c, 4, 59, 0
9, 293519, Note_on_c, 4, 55, 0
9, 293520, Note_on_c, 4, 57, 48
9, 293520, Note_on_c, 4, 54, 48
9, 293739, Note_on_c, 4, 57, 0
9, 293739, Note_on_c, 4, 54, 0
9, 293758, Control_c, 4, 11, 96
9, 293760, Note_on_c, 4, 55, 64
9, 293760, Note_on_c, 4, 52, 64
9, 293820, Control_c, 4, 11, 99
9, 293880, Control_c, 4, 11, 101
9, 293940, Control_c, 4, 11, 104
9, 293999, Note_on_c, 4, 55, 0
9, 293999, Note_on_c, 4, 52, 0
9, 294000, Note_on_c, 4, 54, 64
9, 294000, Note_on_c, 4, 50, 64
9, 294000, Control_c, 4, 11, 106
9, 294060, Control_c, 4, 11, 109
9, 294120, Control_c, 4, 11, 112
9, 294180, Control_c, 4, 11, 114
9, 294239, Note_on_c, 4, 54, 0
9, 294239, Note_on_c, 4, 50, 0
9, 294240, Note_on_c, 4, 57, 64
9, 294240, Note_on_c, 4, 54, 64
9, 294240, Control_c, 4, 11, 117
9, 294300, Control_c, 4, 11, 119
9, 294360, Control_c, 4, 11, 122
9, 294420, Control_c, 4, 11, 124
9, 294459, Note_on_c, 4, 57, 0
9, 294459, Note_on_c, 4, 54, 0
9, 294480, Note_on_c, 4, 62, 64
9, 294480, Note_on_c, 4, 54, 64
9, 294480, Control_c, 4, 11, 127
9, 294540, Control_c, 4, 11, 124
9, 294600, Control_c, 4, 11, 122
9, 294660, Control_c, 4, 11, 119
9, 294699, Note_on_c, 4, 54, 0
9, 294719, Note_on_c, 4, 62, 0
9, 294720, Note_on_c, 4, 54, 64
9, 294720, Note_on_c, 4, 57, 64
9, 294720, Control_c, 4, 11, 117
9, 294780, Control_c, 4, 11, 114
9, 294840, Control_c, 4, 11, 112
9, 294900, Control_c, 4, 11, 109
9, 294959, Note_on_c, 4, 54, 0
9, 294959, Note_on_c, 4, 57, 0
9, 294960, Note_on_c, 4, 50, 64
9, 294960, Note_on_c, 4, 54, 64
9, 294960, Control_c, 4, 11, 106
9, 295020, Control_c, 4, 11, 104
9, 295080, Control_c, 4, 11, 101
9, 295140, Control_c, 4, 11, 99
9, 295179, Note_on_c, 4, 50, 0
9, 295179, Note_on_c, 4, 54, 0
9, 295200, Note_on_c, 4, 49, 64
9, 295200, Control_c, 4, 11, 96
9, 295200, Note_on_c, 4, 52, 64
9, 295920, Control_c, 4, 11, 96
9, 295980, Control_c, 4, 11, 101
9, 296040, Control_c, 4, 11, 106
9, 296100, Control_c, 4, 11, 112
9, 296159, Note_on_c, 4, 49, 0
9, 296159, Note_on_c, 4, 52, 0
9, 296160, Control_c, 4, 11, 117
9, 296160, Note_on_c, 4, 54, 64
9, 296160, Note_on_c, 4, 57, 64
9, 296220, Control_c, 4, 11, 122
9, 296280, Control_c, 4, 11, 127
9, 296340, Control_c, 4, 11, 122
9, 296399, Note_on_c, 4, 54, 0
9, 296399, Note_on_c, 4, 57, 0
9, 296400, Control_c, 4, 11, 117
9, 296400, Note_on_c, 4, 50, 64
9, 296400, Note_on_c, 4, 54, 64
9, 296460, Control_c, 4, 11, 112
9, 296520, Control_c, 4, 11, 106
9, 296580, Control_c, 4, 11, 101
9, 296619, Note_on_c, 4, 50, 0
9, 296619, Note_on_c, 4, 54, 0
9, 296640, Control_c, 4, 11, 96
9, 296640, Note_on_c, 4, 52, 64
9, 296640, Note_on_c, 4, 49, 64
9, 297360, Control_c, 4, 11, 96
9, 297420, Control_c, 4, 11, 101
9, 297480, Control_c, 4, 11, 106
9, 297540, Control_c, 4, 11, 112
9, 297599, Note_on_c, 4, 52, 0
9, 297599, Note_on_c, 4, 49, 0
9, 297600, Control_c, 4, 11, 117
9, 297600, Note_on_c, 4, 57, 64
9, 297600, Note_on_c, 4, 54, 64
9, 297660, Control_c, 4, 11, 122
9, 297720, Control_c, 4, 11, 127
9, 297780, Control_c, 4, 11, 122
9, 297839, Note_on_c, 4, 57, 0
9, 297839, Note_on_c, 4, 54, 0
9, 297840, Note_on_c, 4, 54, 64
9, 297840, Note_on_c, 4, 50, 64
9, 297840, Control_c, 4, 11, 117
9, 297900, Control_c, 4, 11, 112
9, 297960, Control_c, 4, 11, 106
9, 298020, Control_c, 4, 11, 101
9, 298059, Note_on_c, 4, 54, 0
9, 298059, Note_on_c, 4, 50, 0
9, 298080, Note_on_c, 4, 52, 64
9, 298080, Control_c, 4, 11, 96
9, 298080, Note_on_c, 4, 49, 64
9, 298319, Note_on_c, 4, 52, 0
9, 298319, Note_on_c, 4, 49, 0
9, 299726, Control_c, 4, 11, 67
9, 299760, Note_on_c, 4, 66, 84
9, 299760, Note_on_c, 4, 63, 84
9, 299794, Control_c, 4, 11, 68
9, 299863, Control_c, 4, 11, 69
9, 299931, Control_c, 4, 11, 70
9, 300000, Control_c, 4, 11, 71
9, 300069, Control_c, 4, 11, 72
9, 300137, Control_c, 4, 11, 73
9, 300206, Control_c, 4, 11, 74
9, 300219, Note_on_c, 4, 66, 0
9, 300219, Note_on_c, 4, 63, 0
9, 300240, Note_on_c, 4, 66, 84
9, 300240, Note_on_c, 4, 63, 84
9, 300274, Control_c, 4, 11, 75
9, 300343, Control_c, 4, 11, 76
9, 300411, Control_c, 4, 11, 77
9, 300480, Control_c, 4, 11, 78
9, 300549, Control_c, 4, 11, 79
9, 300617, Control_c, 4, 11, 80
9, 300686, Control_c, 4, 11, 81
9, 300699, Note_on_c, 4, 66, 0
9, 300699, Note_on_c, 4, 63, 0
9, 300720, Note_on_c, 4, 63, 84
9, 300720, Note_on_c, 4, 66, 84
9, 300754, Control_c, 4, 11, 82
9, 300823, Control_c, 4, 11, 83
9, 300891, Control_c, 4, 11, 84
9, 300959, Note_on_c, 4, 63, 0
9, 300959, Note_on_c, 4, 66, 0
9, 300960, Control_c, 4, 11, 85
9, 301029, Control_c, 4, 11, 86
9, 301097, Control_c, 4, 11, 87
9, 301166, Control_c, 4, 11, 88
9, 301200, Note_on_c, 4, 67, 84
9, 301200, Note_on_c, 4, 64, 84
9, 301234, Control_c, 4, 11, 89
9, 301303, Control_c, 4, 11, 90
9, 301371, Control_c, 4, 11, 91
9, 301440, Control_c, 4, 11, 92
9, 301509, Control_c, 4, 11, 93
9, 301577, Control_c, 4, 11, 94
9, 301646, Control_c, 4, 11, 95
9, 301659, Note_on_c, 4, 67, 0
9, 301659, Note_on_c, 4, 64, 0
9, 301680, Note_on_c, 4, 64, 84
9, 301680, Note_on_c, 4, 67, 84
9, 301714, Control_c, 4, 11, 96
9, 301783, Control_c, 4, 11, 97
9, 301851, Control_c, 4, 11, 98
9, 301920, Control_c, 4, 11, 99
9, 301989, Control_c, 4, 11, 100
9, 302057, Control_c, 4, 11, 101
9, 302126, Control_c, 4, 11, 102
9, 302139, Note_on_c, 4, 64, 0
9, 302139, Note_on_c, 4, 67, 0
9, 302160, Note_on_c, 4, 64, 84
9, 302160, Note_on_c, 4, 67, 84
9, 302194, Control_c, 4, 11, 103
9, 302263, Control_c, 4, 11, 104
9, 302331, Control_c, 4, 11, 105
9, 302399, Note_on_c, 4, 64, 0
9, 302399, Note_on_c, 4, 67, 0
9, 302400, Control_c, 4, 11, 106
9, 302469, Control_c, 4, 11, 107
9, 302537, Control_c, 4, 11, 108
9, 302606, Control_c, 4, 11, 109
9, 302640, Note_on_c, 4, 64, 84
9, 302640, Note_on_c, 4, 67, 84
9, 302674, Control_c, 4, 11, 110
9, 302743, Control_c, 4, 11, 111
9, 302811, Control_c, 4, 11, 112
9, 302880, Control_c, 4, 11, 113
9, 302949, Control_c, 4, 11, 114
9, 303017, Control_c, 4, 11, 115
9, 303086, Control_c, 4, 11, 116
9, 303099, Note_on_c, 4, 64, 0
9, 303099, Note_on_c, 4, 67, 0
9, 303120, Note_on_c, 4, 64, 84
9, 303120, Note_on_c, 4, 67, 84
9, 303154, Control_c, 4, 11, 117
9, 303223, Control_c, 4, 11, 118
9, 303291, Control_c, 4, 11, 119
9, 303360, Control_c, 4, 11, 120
9, 303429, Control_c, 4, 11, 121
9, 303497, Control_c, 4, 11, 122
9, 303566, Control_c, 4, 11, 123
9, 303579, Note_on_c, 4, 64, 0
9, 303579, Note_on_c, 4, 67, 0
9, 303600, Note_on_c, 4, 64, 84
9, 303600, Note_on_c, 4, 55, 84
9, 303634, Control_c, 4, 11, 124
9, 303703, Control_c, 4, 11, 125
9, 303771, Control_c, 4, 11, 127
9, 303819, Note_on_c, 4, 64, 0
9, 303819, Note_on_c, 4, 55, 0
9, 303840, Note_on_c, 4, 54, 84
9, 303840, Note_on_c, 4, 62, 84
9, 304439, Note_on_c, 4, 54, 0
9, 304439, Note_on_c, 4, 62, 0
9, 304440, Note_on_c, 4, 52, 84
9, 304440, Note_on_c, 4, 61, 84
9, 304559, Note_on_c, 4, 52, 0
9, 304559, Note_on_c, 4, 61, 0
9, 304560, Note_on_c, 4, 62, 84
9, 304560, Note_on_c, 4, 54, 84
9, 304799, Note_on_c, 4, 62, 0
9, 304799, Note_on_c, 4, 54, 0
9, 305280, Note_on_c, 4, 62, 84
9, 305280, Note_on_c, 4, 54, 84
9, 305879, Note_on_c, 4, 62, 0
9, 305879, Note_on_c, 4, 54, 0
9, 305880, Note_on_c, 4, 61, 84
9, 305880, Note_on_c, 4, 52, 84
9, 305999, Note_on_c, 4, 61, 0
9, 305999, Note_on_c, 4, 52, 0
9, 306000, Note_on_c, 4, 54, 84
9, 306000, Note_on_c, 4, 62, 84
9, 306239, Note_on_c, 4, 54, 0
9, 306239, Note_on_c, 4, 62, 0
9, 306720, Note_on_c, 4, 54, 84
9, 306720, Note_on_c, 4, 62, 84
9, 307199, Note_on_c, 4, 54, 0
9, 307199, Note_on_c, 4, 62, 0
9, 307200, Note_on_c, 4, 61, 84
9, 307200, Note_on_c, 4, 64, 84
9, 307439, Note_on_c, 4, 61, 0
9, 307439, Note_on_c, 4, 64, 0
9, 307440, Note_on_c, 4, 66, 84
9, 307440, Note_on_c, 4, 62, 84
9, 307679, Note_on_c, 4, 66, 0
9, 307679, Note_on_c, 4, 62, 0
9, 307680, Note_on_c, 4, 67, 84
9, 307680, Note_on_c, 4, 64, 84
9, 307899, Note_on_c, 4, 67, 0
9, 307899, Note_on_c, 4, 64, 0
9, 307920, Note_on_c, 4, 62, 84
9, 307920, Note_on_c, 4, 66, 84
9, 308099, Note_on_c, 4, 62, 0
9, 308099, Note_on_c, 4, 66, 0
9, 308160, Note_on_c, 4, 61, 84
9, 308160, Note_on_c, 4, 64, 84
9, 308399, Note_on_c, 4, 61, 0
9, 308399, Note_on_c, 4, 64, 0
9, 309600, Note_on_c, 4, 64, 84
9, 310199, Note_on_c, 4, 64, 0
9, 310200, Note_on_c, 4, 63, 84
9, 310319, Note_on_c, 4, 63, 0
9, 310320, Note_on_c, 4, 64, 84
9, 310559, Note_on_c, 4, 64, 0
9, 311040, Note_on_c, 4, 64, 84
9, 311639, Note_on_c, 4, 64, 0
9, 311640, Note_on_c, 4, 63, 84
9, 311759, Note_on_c, 4, 63, 0
9, 311760, Note_on_c, 4, 64, 84
9, 311999, Note_on_c, 4, 64, 0
9, 312480, Note_on_c, 4, 64, 84
9, 312959, Note_on_c, 4, 64, 0
9, 312960, Note_on_c, 4, 62, 84
9, 313199, Note_on_c, 4, 62, 0
9, 313200, Note_on_c, 4, 66, 84
9, 313439, Note_on_c, 4, 66, 0
9, 313440, Note_on_c, 4, 64, 84
9, 313659, Note_on_c, 4, 64, 0
9, 313680, Note_on_c, 4, 57, 84
9, 313859, Note_on_c, 4, 57, 0
9, 313920, Note_on_c, 4, 54, 84
9, 314159, Note_on_c, 4, 54, 0
9, 315360, Note_on_c, 4, 57, 48
9, 315360, Note_on_c, 4, 54, 48
9, 316559, Note_on_c, 4, 57, 0
9, 316559, Note_on_c, 4, 54, 0
9, 316560, Note_on_c, 4, 59, 48
9, 316560, Note_on_c, 4, 55, 48
9, 316779, Note_on_c, 4, 59, 0
9, 316779, Note_on_c, 4, 55, 0
9, 316800, Note_on_c, 4, 52, 48
9, 316800, Note_on_c, 4, 55, 48
9, 317999, Note_on_c, 4, 52, 0
9, 317999, Note_on_c, 4, 55, 0
9, 318000, Note_on_c, 4, 57, 48
9, 318000, Note_on_c, 4, 54, 48
9, 318219, Note_on_c, 4, 57, 0
9, 318219, Note_on_c, 4, 54, 0
9, 318240, Note_on_c, 4, 50, 48
9, 318240, Note_on_c, 4, 54, 48
9, 318759, Note_on_c, 4, 50, 0
9, 318759, Note_on_c, 4, 54, 0
9, 318780, Note_on_c, 4, 52, 48
9, 318780, Note_on_c, 4, 55, 48
9, 318839, Note_on_c, 4, 52, 0
9, 318839, Note_on_c, 4, 55, 0
9, 318840, Note_on_c, 4, 50, 48
9, 318840, Note_on_c, 4, 54, 48
9, 318899, Note_on_c, 4, 50, 0
9, 318899, Note_on_c, 4, 54, 0
9, 318900, Note_on_c, 4, 49, 48
9, 318900, Note_on_c, 4, 52, 48
9, 318959, Note_on_c, 4, 49, 0
9, 318959, Note_on_c, 4, 52, 0
9, 318960, Note_on_c, 4, 54, 48
9, 318960, Note_on_c, 4, 50, 48
9, 319199, Note_on_c, 4, 54, 0
9, 319199, Note_on_c, 4, 50, 0
9, 319200, Note_on_c, 4, 54, 48
9, 319200, Note_on_c, 4, 57, 48
9, 319439, Note_on_c, 4, 54, 0
9, 319439, Note_on_c, 4, 57, 0
9, 319440, Note_on_c, 4, 55, 48
9, 319440, Note_on_c, 4, 52, 48
9, 319659, Note_on_c, 4, 55, 0
9, 319659, Note_on_c, 4, 52, 0
9, 319680, Note_on_c, 4, 50, 48
9, 319680, Note_on_c, 4, 54, 48
9, 320399, Note_on_c, 4, 50, 0
9, 320399, Note_on_c, 4, 54, 0
9, 320400, Note_on_c, 4, 52, 48
9, 320400, Note_on_c, 4, 49, 48
9, 320639, Note_on_c, 4, 52, 0
9, 320639, Note_on_c, 4, 49, 0
9, 321120, Note_on_c, 4, 54, 48
9, 321120, Note_on_c, 4, 57, 48
9, 322079, Note_on_c, 4, 54, 0
9, 322079, Note_on_c, 4, 57, 0
9, 322080, Note_on_c, 4, 57, 48
9, 322080, Note_on_c, 4, 61, 48
9, 322319, Note_on_c, 4, 57, 0
9, 322319, Note_on_c, 4, 61, 0
9, 322320, Note_on_c, 4, 59, 48
9, 322320, Note_on_c, 4, 55, 48
9, 322539, Note_on_c, 4, 59, 0
9, 322539, Note_on_c, 4, 55, 0
9, 322560, Note_on_c, 4, 57, 48
9, 322560, Note_on_c, 4, 54, 48
9, 323039, Note_on_c, 4, 57, 0
9, 323039, Note_on_c, 4, 54, 0
9, 323040, Note_on_c, 4, 55, 48
9, 323040, Note_on_c, 4, 52, 48
9, 323519, Note_on_c, 4, 55, 0
9, 323519, Note_on_c, 4, 52, 0
9, 323520, Note_on_c, 4, 55, 48
9, 323520, Note_on_c, 4, 59, 48
9, 323759, Note_on_c, 4, 55, 0
9, 323759, Note_on_c, 4, 59, 0
9, 323760, Note_on_c, 4, 57, 48
9, 323760, Note_on_c, 4, 54, 48
9, 323979, Note_on_c, 4, 57, 0
9, 323979, Note_on_c, 4, 54, 0
9, 323998, Control_c, 4, 11, 96
9, 324000, Note_on_c, 4, 55, 64
9, 324000, Note_on_c, 4, 52, 64
9, 324060, Control_c, 4, 11, 99
9, 324120, Control_c, 4, 11, 101
9, 324180, Control_c, 4, 11, 104
9, 324239, Note_on_c, 4, 55, 0
9, 324239, Note_on_c, 4, 52, 0
9, 324240, Note_on_c, 4, 50, 64
9, 324240, Note_on_c, 4, 54, 64
9, 324240, Control_c, 4, 11, 106
9, 324300, Control_c, 4, 11, 109
9, 324360, Control_c, 4, 11, 112
9, 324420, Control_c, 4, 11, 114
9, 324479, Note_on_c, 4, 50, 0
9, 324479, Note_on_c, 4, 54, 0
9, 324480, Note_on_c, 4, 57, 64
9, 324480, Control_c, 4, 11, 117
9, 324480, Note_on_c, 4, 54, 64
9, 324540, Control_c, 4, 11, 119
9, 324600, Control_c, 4, 11, 122
9, 324660, Control_c, 4, 11, 124
9, 324699, Note_on_c, 4, 57, 0
9, 324699, Note_on_c, 4, 54, 0
9, 324720, Note_on_c, 4, 54, 64
9, 324720, Note_on_c, 4, 62, 64
9, 324720, Control_c, 4, 11, 127
9, 324780, Control_c, 4, 11, 124
9, 324840, Control_c, 4, 11, 122
9, 324900, Control_c, 4, 11, 119
9, 324939, Note_on_c, 4, 54, 0
9, 324959, Note_on_c, 4, 62, 0
9, 324960, Note_on_c, 4, 57, 64
9, 324960, Control_c, 4, 11, 117
9, 324960, Note_on_c, 4, 54, 64
9, 325020, Control_c, 4, 11, 114
9, 325080, Control_c, 4, 11, 112
9, 325140, Control_c, 4, 11, 109
9, 325199, Note_on_c, 4, 57, 0
9, 325199, Note_on_c, 4, 54, 0
9, 325200, Note_on_c, 4, 50, 64
9, 325200, Note_on_c, 4, 54, 64
9, 325200, Control_c, 4, 11, 106
9, 325260, Control_c, 4, 11, 104
9, 325320, Control_c, 4, 11, 101
9, 325380, Control_c, 4, 11, 99
9, 325419, Note_on_c, 4, 50, 0
9, 325419, Note_on_c, 4, 54, 0
9, 325440, Note_on_c, 4, 52, 64
9, 325440, Control_c, 4, 11, 96
9, 325440, Note_on_c, 4, 49, 64
9, 326160, Control_c, 4, 11, 96
9, 326220, Control_c, 4, 11, 101
9, 326280, Control_c, 4, 11, 106
9, 326340, Control_c, 4, 11, 112
9, 326399, Note_on_c, 4, 52, 0
9, 326399, Note_on_c, 4, 49, 0
9, 326400, Control_c, 4, 11, 117
9, 326400, Note_on_c, 4, 54, 64
9, 326400, Note_on_c, 4, 57, 64
9, 326460, Control_c, 4, 11, 122
9, 326520, Control_c, 4, 11, 127
9, 326580, Control_c, 4, 11, 122
9, 326639, Note_on_c, 4, 54, 0
9, 326639, Note_on_c, 4, 57, 0
9, 326640, Note_on_c, 4, 50, 64
9, 326640, Note_on_c, 4, 54, 64
9, 326640, Control_c, 4, 11, 117
9, 326700, Control_c, 4, 11, 112
9, 326760, Control_c, 4, 11, 106
9, 326820, Control_c, 4, 11, 101
9, 326859, Note_on_c, 4, 50, 0
9, 326859, Note_on_c, 4, 54, 0
9, 326880, Note_on_c, 4, 52, 64
9, 326880, Control_c, 4, 11, 96
9, 326880, Note_on_c, 4, 49, 64
9, 327600, Control_c, 4, 11, 96
9, 327660, Control_c, 4, 11, 101
9, 327720, Control_c, 4, 11, 106
9, 327780, Control_c, 4, 11, 112
9, 327839, Note_on_c, 4, 52, 0
9, 327839, Note_on_c, 4, 49, 0
9, 327840, Control_c, 4, 11, 117
9, 327840, Note_on_c, 4, 54, 64
9, 327840, Note_on_c, 4, 57, 64
9, 327900, Control_c, 4, 11, 122
9, 327960, Control_c, 4, 11, 127
9, 328020, Control_c, 4, 11, 122
9, 328079, Note_on_c, 4, 54, 0
9, 328079, Note_on_c, 4, 57, 0
9, 328080, Control_c, 4, 11, 117
9, 328080, Note_on_c, 4, 54, 64
9, 328080, Note_on_c, 4, 50, 64
9, 328140, Control_c, 4, 11, 112
9, 328200, Control_c, 4, 11, 106
9, 328260, Control_c, 4, 11, 101
9, 328299, Note_on_c, 4, 54, 0
9, 328299, Note_on_c, 4, 50, 0
9, 328320, Control_c, 4, 11, 96
9, 328320, Note_on_c, 4, 49, 64
9, 328320, Note_on_c, 4, 52, 64
9, 328559, Note_on_c, 4, 49, 0
9, 328559, Note_on_c, 4, 52, 0
9, 329966, Control_c, 4, 11, 67
9, 330000, Note_on_c, 4, 63, 84
9, 330000, Note_on_c, 4, 66, 84
9, 330034, Control_c, 4, 11, 68
9, 330103, Control_c, 4, 11, 69
9, 330171, Control_c, 4, 11, 70
9, 330240, Control_c, 4, 11, 71
9, 330309, Control_c, 4, 11, 72
9, 330377, Control_c, 4, 11, 73
9, 330446, Control_c, 4, 11, 74
9, 330459, Note_on_c, 4, 63, 0
9, 330459, Note_on_c, 4, 66, 0
9, 330480, Note_on_c, 4, 66, 84
9, 330480, Note_on_c, 4, 63, 84
9, 330514, Control_c, 4, 11, 75
9, 330583, Control_c, 4, 11, 76
9, 330651, Control_c, 4, 11, 77
9, 330720, Control_c, 4, 11, 78
9, 330789, Control_c, 4, 11, 79
9, 330857, Control_c, 4, 11, 80
9, 330926, Control_c, 4, 11, 81
9, 330939, Note_on_c, 4, 66, 0
9, 330939, Note_on_c, 4, 63, 0
9, 330960, Note_on_c, 4, 66, 84
9, 330960, Note_on_c, 4, 63, 84
9, 330994, Control_c, 4, 11, 82
9, 331063, Control_c, 4, 11, 83
9, 331131, Control_c, 4, 11, 84
9, 331199, Note_on_c, 4, 66, 0
9, 331199, Note_on_c, 4, 63, 0
9, 331200, Control_c, 4, 11, 85
9, 331269, Control_c, 4, 11, 86
9, 331337, Control_c, 4, 11, 87
9, 331406, Control_c, 4, 11, 88
9, 331440, Note_on_c, 4, 64, 84
9, 331440, Note_on_c, 4, 67, 84
9, 331474, Control_c, 4, 11, 89
9, 331543, Control_c, 4, 11, 90
9, 331611, Control_c, 4, 11, 91
9, 331680, Control_c, 4, 11, 92
9, 331749, Control_c, 4, 11, 93
9, 331817, Control_c, 4, 11, 94
9, 331886, Control_c, 4, 11, 95
9, 331899, Note_on_c, 4, 64, 0
9, 331899, Note_on_c, 4, 67, 0
9, 331920, Note_on_c, 4, 67, 84
9, 331920, Note_on_c, 4, 64, 84
9, 331954, Control_c, 4, 11, 96
9, 332023, Control_c, 4, 11, 97
9, 332091, Control_c, 4, 11, 98
9, 332160, Control_c, 4, 11, 99
9, 332229, Control_c, 4, 11, 100
9, 332297, Control_c, 4, 11, 101
9, 332366, Control_c, 4, 11, 102
9, 332379, Note_on_c, 4, 67, 0
9, 332379, Note_on_c, 4, 64, 0
9, 332400, Note_on_c, 4, 64, 84
9, 332400, Note_on_c, 4, 67, 84
9, 332434, Control_c, 4, 11, 103
9, 332503, Control_c, 4, 11, 104
9, 332571, Control_c, 4, 11, 105
9, 332639, Note_on_c, 4, 64, 0
9, 332639, Note_on_c, 4, 67, 0
9, 332640, Control_c, 4, 11, 106
9, 332709, Control_c, 4, 11, 107
9, 332777, Control_c, 4, 11, 108
9, 332846, Control_c, 4, 11, 109
9, 332880, Note_on_c, 4, 67, 84
9, 332880, Note_on_c, 4, 64, 84
9, 332914, Control_c, 4, 11, 110
9, 332983, Control_c, 4, 11, 111
9, 333051, Control_c, 4, 11, 112
9, 333120, Control_c, 4, 11, 113
9, 333189, Control_c, 4, 11, 114
9, 333257, Control_c, 4, 11, 115
9, 333326, Control_c, 4, 11, 116
9, 333339, Note_on_c, 4, 67, 0
9, 333339, Note_on_c, 4, 64, 0
9, 333360, Note_on_c, 4, 67, 84
9, 333360, Note_on_c, 4, 64, 84
9, 333394, Control_c, 4, 11, 117
9, 333463, Control_c, 4, 11, 118
9, 333531, Control_c, 4, 11, 119
9, 333600, Control_c, 4, 11, 120
9, 333669, Control_c, 4, 11, 121
9, 333737, Control_c, 4, 11, 122
9, 333806, Control_c, 4, 11, 123
9, 333819, Note_on_c, 4, 67, 0
9, 333819, Note_on_c, 4, 64, 0
9, 333840, Note_on_c, 4, 55, 84
9, 333840, Note_on_c, 4, 64, 84
9, 333874, Control_c, 4, 11, 124
9, 333943, Control_c, 4, 11, 125
9, 334011, Control_c, 4, 11, 127
9, 334059, Note_on_c, 4, 55, 0
9, 334059, Note_on_c, 4, 64, 0
9, 334080, Note_on_c, 4, 54, 84
9, 334080, Note_on_c, 4, 62, 84
9, 334679, Note_on_c, 4, 54, 0
9, 334679, Note_on_c, 4, 62, 0
9, 334680, Note_on_c, 4, 52, 84
9, 334680, Note_on_c, 4, 61, 84
9, 334799, Note_on_c, 4, 52, 0
9, 334799, Note_on_c, 4, 61, 0
9, 334800, Note_on_c, 4, 54, 84
9, 334800, Note_on_c, 4, 62, 84
9, 335039, Note_on_c, 4, 54, 0
9, 335039, Note_on_c, 4, 62, 0
9, 335520, Note_on_c, 4, 54, 84
9, 335520, Note_on_c, 4, 62, 84
9, 336119, Note_on_c, 4, 54, 0
9, 336119, Note_on_c, 4, 62, 0
9, 336120, Note_on_c, 4, 61, 84
9, 336120, Note_on_c, 4, 52, 84
9, 336239, Note_on_c, 4, 61, 0
9, 336239, Note_on_c, 4, 52, 0
9, 336240, Note_on_c, 4, 54, 84
9, 336240, Note_on_c, 4, 62, 84
9, 336479, Note_on_c, 4, 54, 0
9, 336479, Note_on_c, 4, 62, 0
9, 336960, Note_on_c, 4, 54, 84
9, 336960, Note_on_c, 4, 62, 84
9, 337439, Note_on_c, 4, 54, 0
9, 337439, Note_on_c, 4, 62, 0
9, 337440, Note_on_c, 4, 61, 84
9, 337440, Note_on_c, 4, 64, 84
9, 337679, Note_on_c, 4, 61, 0
9, 337679, Note_on_c, 4, 64, 0
9, 337680, Note_on_c, 4, 62, 84
9, 337680, Note_on_c, 4, 66, 84
9, 337919, Note_on_c, 4, 62, 0
9, 337919, Note_on_c, 4, 66, 0
9, 337920, Note_on_c, 4, 67, 84
9, 337920, Note_on_c, 4, 64, 84
9, 338139, Note_on_c, 4, 67, 0
9, 338139, Note_on_c, 4, 64, 0
9, 338160, Note_on_c, 4, 66, 84
9, 338160, Note_on_c, 4, 62, 84
9, 338339, Note_on_c, 4, 66, 0
9, 338339, Note_on_c, 4, 62, 0
9, 338400, Note_on_c, 4, 64, 84
9, 338400, Note_on_c, 4, 61, 84
9, 338639, Note_on_c, 4, 64, 0
9, 338639, Note_on_c, 4, 61, 0
9, 339840, Note_on_c, 4, 64, 84
9, 340439, Note_on_c, 4, 64, 0
9, 340440, Note_on_c, 4, 63, 84
9, 340559, Note_on_c, 4, 63, 0
9, 340560, Note_on_c, 4, 64, 84
9, 340799, Note_on_c, 4, 64, 0
9, 341280, Note_on_c, 4, 64, 84
9, 341879, Note_on_c, 4, 64, 0
9, 341880, Note_on_c, 4, 63, 84
9, 341999, Note_on_c, 4, 63, 0
9, 342000, Note_on_c, 4, 64, 84
9, 342239, Note_on_c, 4, 64, 0
9, 342720, Note_on_c, 4, 64, 84
9, 343199, Note_on_c, 4, 64, 0
9, 343200, Note_on_c, 4, 62, 84
9, 343439, Note_on_c, 4, 62, 0
9, 343440, Note_on_c, 4, 66, 84
9, 343679, Note_on_c, 4, 66, 0
9, 343680, Note_on_c, 4, 64, 84
9, 343899, Note_on_c, 4, 64, 0
9, 343920, Note_on_c, 4, 57, 84
9, 344099, Note_on_c, 4, 57, 0
9, 344160, Note_on_c, 4, 54, 84
9, 344399, Note_on_c, 4, 54, 0
9, 355440, Note_on_c, 4, 53, 76
9, 355440, Note_on_c, 4, 41, 76
9, 355511, Note_on_c, 4, 53, 0
9, 355520, Note_on_c, 4, 53, 76
9, 355544, Note_on_c, 4, 41, 0
9, 355559, Note_on_c, 4, 53, 0
9, 355560, Note_on_c, 4, 41, 76
9, 355560, Note_on_c, 4, 57, 76
9, 355679, Note_on_c, 4, 41, 0
9, 355679, Note_on_c, 4, 57, 0
9, 355680, Note_on_c, 4, 53, 76
9, 355739, Note_on_c, 4, 53, 0
9, 355800, Note_on_c, 4, 57, 76
9, 355800, Note_on_c, 4, 53, 76
9, 355871, Note_on_c, 4, 57, 0
9, 355871, Note_on_c, 4, 53, 0
9, 355880, Note_on_c, 4, 57, 76
9, 355880, Note_on_c, 4, 53, 76
9, 355919, Note_on_c, 4, 57, 0
9, 355919, Note_on_c, 4, 53, 0
9, 355920, Note_on_c, 4, 60, 76
9, 355920, Note_on_c, 4, 57, 76
9, 356039, Note_on_c, 4, 60, 0
9, 356039, Note_on_c, 4, 57, 0
9, 356040, Note_on_c, 4, 57, 76
9, 356040, Note_on_c, 4, 53, 76
9, 356099, Note_on_c, 4, 57, 0
9, 356099, Note_on_c, 4, 53, 0
9, 356160, Note_on_c, 4, 60, 76
9, 356160, Note_on_c, 4, 57, 76
9, 356264, Note_on_c, 4, 60, 0
9, 356264, Note_on_c, 4, 57, 0
9, 356280, Note_on_c, 4, 57, 52
9, 356280, Note_on_c, 4, 65, 52
9, 356369, Note_on_c, 4, 57, 0
9, 356369, Note_on_c, 4, 65, 0
9, 356400, Note_on_c, 4, 57, 52
9, 356400, Note_on_c, 4, 65, 52
9, 356489, Note_on_c, 4, 57, 0
9, 356489, Note_on_c, 4, 65, 0
9, 356520, Note_on_c, 4, 60, 52
9, 356520, Note_on_c, 4, 64, 52
9, 356609, Note_on_c, 4, 60, 0
9, 356609, Note_on_c, 4, 64, 0
9, 356640, Note_on_c, 4, 58, 52
9, 356640, Note_on_c, 4, 62, 52
9, 356729, Note_on_c, 4, 58, 0
9, 356729, Note_on_c, 4, 62, 0
9, 356760, Note_on_c, 4, 58, 52
9, 356760, Note_on_c, 4, 62, 52
9, 356849, Note_on_c, 4, 58, 0
9, 356849, Note_on_c, 4, 62, 0
9, 356880, Note_on_c, 4, 60, 52
9, 356880, Note_on_c, 4, 57, 52
9, 356969, Note_on_c, 4, 60, 0
9, 356969, Note_on_c, 4, 57, 0
9, 357000, Note_on_c, 4, 55, 52
9, 357000, Note_on_c, 4, 58, 52
9, 357089, Note_on_c, 4, 55, 0
9, 357089, Note_on_c, 4, 58, 0
9, 357120, Note_on_c, 4, 55, 52
9, 357120, Note_on_c, 4, 58, 52
9, 357209, Note_on_c, 4, 55, 0
9, 357209, Note_on_c, 4, 58, 0
9, 357240, Note_on_c, 4, 57, 52
9, 357240, Note_on_c, 4, 53, 52
9, 357329, Note_on_c, 4, 57, 0
9, 357329, Note_on_c, 4, 53, 0
9, 357360, Note_on_c, 4, 52, 52
9, 357360, Note_on_c, 4, 55, 52
9, 357704, Note_on_c, 4, 52, 0
9, 357704, Note_on_c, 4, 55, 0
9, 357720, Note_on_c, 4, 67, 52
9, 357720, Note_on_c, 4, 64, 52
9, 357809, Note_on_c, 4, 67, 0
9, 357809, Note_on_c, 4, 64, 0
9, 357840, Note_on_c, 4, 64, 52
9, 357840, Note_on_c, 4, 67, 52
9, 357929, Note_on_c, 4, 64, 0
9, 357929, Note_on_c, 4, 67, 0
9, 357960, Note_on_c, 4, 65, 52
9, 357960, Note_on_c, 4, 62, 52
9, 358049, Note_on_c, 4, 65, 0
9, 358049, Note_on_c, 4, 62, 0
9, 358080, Note_on_c, 4, 60, 52
9, 358080, Note_on_c, 4, 64, 52
9, 358169, Note_on_c, 4, 60, 0
9, 358169, Note_on_c, 4, 64, 0
9, 358200, Note_on_c, 4, 60, 52
9, 358200, Note_on_c, 4, 64, 52
9, 358289, Note_on_c, 4, 60, 0
9, 358289, Note_on_c, 4, 64, 0
9, 358320, Note_on_c, 4, 58, 52
9, 358320, Note_on_c, 4, 62, 52
9, 358409, Note_on_c, 4, 58, 0
9, 358409, Note_on_c, 4, 62, 0
9, 358440, Note_on_c, 4, 60, 52
9, 358440, Note_on_c, 4, 57, 52
9, 358529, Note_on_c, 4, 60, 0
9, 358529, Note_on_c, 4, 57, 0
9, 358560, Note_on_c, 4, 60, 52
9, 358560, Note_on_c, 4, 57, 52
9, 358649, Note_on_c, 4, 60, 0
9, 358649, Note_on_c, 4, 57, 0
9, 358680, Note_on_c, 4, 55, 52
9, 358680, Note_on_c, 4, 58, 52
9, 358769, Note_on_c, 4, 55, 0
9, 358769, Note_on_c, 4, 58, 0
9, 358800, Note_on_c, 4, 53, 52
9, 358800, Note_on_c, 4, 57, 52
9, 359159, Note_on_c, 4, 53, 0
9, 359159, Note_on_c, 4, 57, 0
9, 360960, Note_on_c, 4, 62, 84
9, 360960, Note_on_c, 4, 65, 84
9, 361199, Note_on_c, 4, 62, 0
9, 361199, Note_on_c, 4, 65, 0
9, 361200, Note_on_c, 4, 61, 76
9, 361200, Note_on_c, 4, 64, 76
9, 361304, Note_on_c, 4, 61, 0
9, 361304, Note_on_c, 4, 64, 0
9, 361320, Note_on_c, 4, 62, 76
9, 361320, Note_on_c, 4, 59, 76
9, 361664, Note_on_c, 4, 62, 0
9, 361664, Note_on_c, 4, 59, 0
9, 361680, Note_on_c, 4, 61, 76
9, 361680, Note_on_c, 4, 57, 76
9, 361799, Note_on_c, 4, 61, 0
9, 361799, Note_on_c, 4, 57, 0
9, 362040, Note_on_c, 4, 59, 76
9, 362040, Note_on_c, 4, 62, 76
9, 362384, Note_on_c, 4, 59, 0
9, 362384, Note_on_c, 4, 62, 0
9, 362400, Note_on_c, 4, 57, 76
9, 362400, Note_on_c, 4, 61, 76
9, 362519, Note_on_c, 4, 57, 0
9, 362519, Note_on_c, 4, 61, 0
9, 362760, Note_on_c, 4, 62, 76
9, 362760, Note_on_c, 4, 59, 76
9, 363104, Note_on_c, 4, 62, 0
9, 363104, Note_on_c, 4, 59, 0
9, 363120, Note_on_c, 4, 57, 76
9, 363120, Note_on_c, 4, 61, 76
9, 363209, Note_on_c, 4, 57, 0
9, 363209, Note_on_c, 4, 61, 0
9, 363240, Note_on_c, 4, 64, 76
9, 363329, Note_on_c, 4, 64, 0
9, 363360, Note_on_c, 4, 61, 76
9, 363449, Note_on_c, 4, 61, 0
9, 363480, Note_on_c, 4, 57, 76
9, 363569, Note_on_c, 4, 57, 0
9, 363600, Note_on_c, 4, 52, 76
9, 363689, Note_on_c, 4, 52, 0
9, 363720, Note_on_c, 4, 49, 76
9, 363809, Note_on_c, 4, 49, 0
9, 363840, Note_on_c, 4, 45, 76
9, 363929, Note_on_c, 4, 45, 0
9, 369960, Note_on_c, 4, 60, 52
9, 369960, Note_on_c, 4, 65, 52
9, 370199, Note_on_c, 4, 60, 0
9, 370200, Note_on_c, 4, 59, 52
9, 370304, Note_on_c, 4, 59, 0
9, 370320, Note_on_c, 4, 60, 52
9, 370559, Note_on_c, 4, 60, 0
9, 370560, Note_on_c, 4, 59, 52
9, 370664, Note_on_c, 4, 59, 0
9, 370680, Note_on_c, 4, 60, 52
9, 370904, Note_on_c, 4, 65, 0
9, 370904, Note_on_c, 4, 60, 0
9, 370920, Note_on_c, 4, 65, 84
9, 370920, Note_on_c, 4, 59, 84
9, 371024, Note_on_c, 4, 65, 0
9, 371024, Note_on_c, 4, 59, 0
9, 371040, Note_on_c, 4, 59, 84
9, 371040, Note_on_c, 4, 65, 84
9, 371159, Note_on_c, 4, 59, 0
9, 371159, Note_on_c, 4, 65, 0
9, 375720, Note_on_c, 4, 58, 52
9, 375720, Note_on_c, 4, 63, 52
9, 375959, Note_on_c, 4, 58, 0
9, 375960, Note_on_c, 4, 57, 52
9, 376064, Note_on_c, 4, 57, 0
9, 376080, Note_on_c, 4, 58, 52
9, 376319, Note_on_c, 4, 58, 0
9, 376320, Note_on_c, 4, 57, 52
9, 376424, Note_on_c, 4, 57, 0
9, 376440, Note_on_c, 4, 58, 52
9, 376664, Note_on_c, 4, 63, 0
9, 376664, Note_on_c, 4, 58, 0
9, 376680, Note_on_c, 4, 63, 84
9, 376680, Note_on_c, 4, 57, 84
9, 376784, Note_on_c, 4, 63, 0
9, 376784, Note_on_c, 4, 57, 0
9, 376800, Note_on_c, 4, 57, 84
9, 376800, Note_on_c, 4, 63, 84
9, 376919, Note_on_c, 4, 57, 0
9, 376919, Note_on_c, 4, 63, 0
9, 378120, Note_on_c, 4, 58, 48
9, 378224, Note_on_c, 4, 58, 0
9, 378240, Note_on_c, 4, 62, 48
9, 378359, Note_on_c, 4, 62, 0
9, 378360, Note_on_c, 4, 58, 48
9, 378419, Note_on_c, 4, 58, 0
9, 378480, Note_on_c, 4, 62, 48
9, 378584, Note_on_c, 4, 62, 0
9, 378600, Note_on_c, 4, 65, 48
9, 378719, Note_on_c, 4, 65, 0
9, 378720, Note_on_c, 4, 62, 48
9, 378779, Note_on_c, 4, 62, 0
9, 378840, Note_on_c, 4, 65, 48
9, 378944, Note_on_c, 4, 65, 0
9, 378960, Note_on_c, 4, 58, 48
9, 380159, Note_on_c, 4, 58, 0
9, 380160, Note_on_c, 4, 57, 52
9, 380160, Note_on_c, 4, 60, 52
9, 380264, Note_on_c, 4, 57, 0
9, 380264, Note_on_c, 4, 60, 0
9, 380280, Note_on_c, 4, 60, 52
9, 380280, Note_on_c, 4, 57, 52
9, 380369, Note_on_c, 4, 60, 0
9, 380369, Note_on_c, 4, 57, 0
9, 380400, Note_on_c, 4, 57, 52
9, 380400, Note_on_c, 4, 60, 52
9, 381599, Note_on_c, 4, 57, 0
9, 381599, Note_on_c, 4, 60, 0
9, 381600, Note_on_c, 4, 58, 52
9, 381600, Note_on_c, 4, 62, 52
9, 381704, Note_on_c, 4, 58, 0
9, 381704, Note_on_c, 4, 62, 0
9, 381720, Note_on_c, 4, 58, 52
9, 381720, Note_on_c, 4, 62, 52
9, 381809, Note_on_c, 4, 58, 0
9, 381809, Note_on_c, 4, 62, 0
9, 381838, Control_c, 4, 11, 80
9, 381840, Control_c, 4, 11, 80
9, 381840, Note_on_c, 4, 62, 76
9, 381840, Note_on_c, 4, 58, 76
9, 381947, Control_c, 4, 11, 81
9, 382054, Control_c, 4, 11, 82
9, 382162, Control_c, 4, 11, 83
9, 382269, Control_c, 4, 11, 84
9, 382376, Control_c, 4, 11, 85
9, 382483, Control_c, 4, 11, 86
9, 382591, Control_c, 4, 11, 87
9, 382698, Control_c, 4, 11, 88
9, 382805, Control_c, 4, 11, 89
9, 382912, Control_c, 4, 11, 90
9, 383020, Control_c, 4, 11, 91
9, 383039, Note_on_c, 4, 62, 0
9, 383039, Note_on_c, 4, 58, 0
9, 383040, Note_on_c, 4, 63, 76
9, 383040, Note_on_c, 4, 60, 76
9, 383127, Control_c, 4, 11, 92
9, 383144, Note_on_c, 4, 63, 0
9, 383144, Note_on_c, 4, 60, 0
9, 383160, Note_on_c, 4, 63, 76
9, 383160, Note_on_c, 4, 60, 76
9, 383234, Control_c, 4, 11, 93
9, 383249, Note_on_c, 4, 63, 0
9, 383249, Note_on_c, 4, 60, 0
9, 383280, Note_on_c, 4, 60, 76
9, 383280, Note_on_c, 4, 63, 76
9, 383341, Control_c, 4, 11, 94
9, 383449, Control_c, 4, 11, 95
9, 383556, Control_c, 4, 11, 96
9, 383663, Control_c, 4, 11, 97
9, 383770, Control_c, 4, 11, 98
9, 383877, Control_c, 4, 11, 99
9, 383985, Control_c, 4, 11, 100
9, 384092, Control_c, 4, 11, 101
9, 384199, Control_c, 4, 11, 102
9, 384306, Control_c, 4, 11, 103
9, 384414, Control_c, 4, 11, 104
9, 384479, Note_on_c, 4, 60, 0
9, 384479, Note_on_c, 4, 63, 0
9, 384480, Note_on_c, 4, 65, 76
9, 384480, Note_on_c, 4, 62, 76
9, 384521, Control_c, 4, 11, 105
9, 384584, Note_on_c, 4, 65, 0
9, 384584, Note_on_c, 4, 62, 0
9, 384600, Note_on_c, 4, 65, 76
9, 384600, Note_on_c, 4, 62, 76
9, 384628, Control_c, 4, 11, 106
9, 384689, Note_on_c, 4, 65, 0
9, 384689, Note_on_c, 4, 62, 0
9, 384720, Note_on_c, 4, 53, 76
9, 384735, Control_c, 4, 11, 107
9, 384843, Control_c, 4, 11, 108
9, 384950, Control_c, 4, 11, 109
9, 385057, Control_c, 4, 11, 110
9, 385164, Control_c, 4, 11, 111
9, 385271, Control_c, 4, 11, 112
9, 385379, Control_c, 4, 11, 113
9, 385486, Control_c, 4, 11, 114
9, 385593, Control_c, 4, 11, 115
9, 385700, Control_c, 4, 11, 116
9, 385808, Control_c, 4, 11, 117
9, 385915, Control_c, 4, 11, 118
9, 385919, Note_on_c, 4, 53, 0
9, 385920, Note_on_c, 4, 52, 76
9, 385920, Note_on_c, 4, 55, 76
9, 386022, Control_c, 4, 11, 119
9, 386024, Note_on_c, 4, 52, 0
9, 386024, Note_on_c, 4, 55, 0
9, 386040, Note_on_c, 4, 55, 76
9, 386040, Note_on_c, 4, 52, 76
9, 386129, Note_on_c, 4, 55, 0
9, 386129, Note_on_c, 4, 52, 0
9, 386129, Control_c, 4, 11, 120
9, 386160, Note_on_c, 4, 55, 76
9, 386160, Note_on_c, 4, 52, 76
9, 386237, Control_c, 4, 11, 121
9, 386344, Control_c, 4, 11, 122
9, 386451, Control_c, 4, 11, 123
9, 386558, Control_c, 4, 11, 124
9, 386666, Control_c, 4, 11, 125
9, 386773, Control_c, 4, 11, 127
9, 387104, Note_on_c, 4, 55, 0
9, 387104, Note_on_c, 4, 52, 0
9, 387120, Note_on_c, 4, 57, 76
9, 387120, Note_on_c, 4, 53, 76
9, 387224, Note_on_c, 4, 57, 0
9, 387224, Note_on_c, 4, 53, 0
9, 387240, Note_on_c, 4, 57, 76
9, 387240, Note_on_c, 4, 41, 76
9, 387359, Note_on_c, 4, 57, 0
9, 387359, Note_on_c, 4, 41, 0
9, 387360, Note_on_c, 4, 53, 76
9, 387419, Note_on_c, 4, 53, 0
9, 387480, Note_on_c, 4, 53, 76
9, 387480, Note_on_c, 4, 57, 76
9, 387551, Note_on_c, 4, 53, 0
9, 387551, Note_on_c, 4, 57, 0
9, 387560, Note_on_c, 4, 57, 76
9, 387560, Note_on_c, 4, 53, 76
9, 387599, Note_on_c, 4, 57, 0
9, 387599, Note_on_c, 4, 53, 0
9, 387600, Note_on_c, 4, 60, 76
9, 387600, Note_on_c, 4, 57, 76
9, 387719, Note_on_c, 4, 60, 0
9, 387719, Note_on_c, 4, 57, 0
9, 387720, Note_on_c, 4, 53, 76
9, 387720, Note_on_c, 4, 57, 76
9, 387779, Note_on_c, 4, 53, 0
9, 387779, Note_on_c, 4, 57, 0
9, 387840, Note_on_c, 4, 60, 76
9, 387840, Note_on_c, 4, 57, 76
9, 387944, Note_on_c, 4, 60, 0
9, 387944, Note_on_c, 4, 57, 0
9, 387960, Note_on_c, 4, 53, 84
9, 389159, Note_on_c, 4, 53, 0
9, 389160, Note_on_c, 4, 55, 84
9, 389160, Note_on_c, 4, 52, 84
9, 389264, Note_on_c, 4, 55, 0
9, 389264, Note_on_c, 4, 52, 0
9, 389280, Note_on_c, 4, 55, 84
9, 389280, Note_on_c, 4, 52, 84
9, 389369, Note_on_c, 4, 55, 0
9, 389369, Note_on_c, 4, 52, 0
9, 389400, Note_on_c, 4, 52, 84
9, 389400, Note_on_c, 4, 55, 84
9, 390599, Note_on_c, 4, 52, 0
9, 390599, Note_on_c, 4, 55, 0
9, 390600, Note_on_c, 4, 57, 84
9, 390600, Note_on_c, 4, 53, 84
9, 390704, Note_on_c, 4, 57, 0
9, 390704, Note_on_c, 4, 53, 0
9, 390720, Note_on_c, 4, 57, 84
9, 390720, Note_on_c, 4, 53, 84
9, 390809, Note_on_c, 4, 57, 0
9, 390809, Note_on_c, 4, 53, 0
9, 390840, Note_on_c, 4, 65, 52
9, 390929, Note_on_c, 4, 65, 0
9, 390960, Note_on_c, 4, 65, 52
9, 391049, Note_on_c, 4, 65, 0
9, 391080, Note_on_c, 4, 64, 52
9, 391169, Note_on_c, 4, 64, 0
9, 391200, Note_on_c, 4, 62, 52
9, 391289, Note_on_c, 4, 62, 0
9, 391320, Note_on_c, 4, 62, 52
9, 391409, Note_on_c, 4, 62, 0
9, 391440, Note_on_c, 4, 60, 52
9, 391529, Note_on_c, 4, 60, 0
9, 391560, Note_on_c, 4, 58, 52
9, 391649, Note_on_c, 4, 58, 0
9, 391680, Note_on_c, 4, 58, 52
9, 391769, Note_on_c, 4, 58, 0
9, 391800, Note_on_c, 4, 57, 52
9, 391889, Note_on_c, 4, 57, 0
9, 391920, Note_on_c, 4, 55, 52
9, 392264, Note_on_c, 4, 55, 0
9, 392280, Note_on_c, 4, 64, 52
9, 392280, Note_on_c, 4, 67, 52
9, 392369, Note_on_c, 4, 64, 0
9, 392369, Note_on_c, 4, 67, 0
9, 392400, Note_on_c, 4, 67, 52
9, 392400, Note_on_c, 4, 64, 52
9, 392489, Note_on_c, 4, 67, 0
9, 392489, Note_on_c, 4, 64, 0
9, 392520, Note_on_c, 4, 65, 52
9, 392520, Note_on_c, 4, 62, 52
9, 392609, Note_on_c, 4, 65, 0
9, 392609, Note_on_c, 4, 62, 0
9, 392640, Note_on_c, 4, 64, 52
9, 392640, Note_on_c, 4, 60, 52
9, 392729, Note_on_c, 4, 64, 0
9, 392729, Note_on_c, 4, 60, 0
9, 392760, Note_on_c, 4, 60, 52
9, 392760, Note_on_c, 4, 64, 52
9, 392849, Note_on_c, 4, 60, 0
9, 392849, Note_on_c, 4, 64, 0
9, 392880, Note_on_c, 4, 62, 52
9, 392880, Note_on_c, 4, 58, 52
9, 392969, Note_on_c, 4, 62, 0
9, 392969, Note_on_c, 4, 58, 0
9, 393000, Note_on_c, 4, 57, 52
9, 393000, Note_on_c, 4, 60, 52
9, 393089, Note_on_c, 4, 57, 0
9, 393089, Note_on_c, 4, 60, 0
9, 393120, Note_on_c, 4, 57, 52
9, 393120, Note_on_c, 4, 60, 52
9, 393209, Note_on_c, 4, 57, 0
9, 393209, Note_on_c, 4, 60, 0
9, 393240, Note_on_c, 4, 55, 52
9, 393240, Note_on_c, 4, 58, 52
9, 393329, Note_on_c, 4, 55, 0
9, 393329, Note_on_c, 4, 58, 0
9, 393360, Note_on_c, 4, 57, 52
9, 393360, Note_on_c, 4, 53, 52
9, 393719, Note_on_c, 4, 57, 0
9, 393719, Note_on_c, 4, 53, 0
9, 394440, Note_on_c, 4, 64, 52
9, 394440, Note_on_c, 4, 58, 52
9, 394529, Note_on_c, 4, 64, 0
9, 394529, Note_on_c, 4, 58, 0
9, 394560, Note_on_c, 4, 58, 52
9, 394560, Note_on_c, 4, 64, 52
9, 394649, Note_on_c, 4, 58, 0
9, 394649, Note_on_c, 4, 64, 0
9, 394680, Note_on_c, 4, 60, 52
9, 394680, Note_on_c, 4, 57, 52
9, 394769, Note_on_c, 4, 60, 0
9, 394769, Note_on_c, 4, 57, 0
9, 394800, Note_on_c, 4, 60, 52
9, 394800, Note_on_c, 4, 55, 52
9, 395024, Note_on_c, 4, 60, 0
9, 395039, Note_on_c, 4, 55, 0
9, 395040, Note_on_c, 4, 53, 52
9, 395040, Note_on_c, 4, 60, 52
9, 395159, Note_on_c, 4, 53, 0
9, 395159, Note_on_c, 4, 60, 0
9, 397680, Note_on_c, 4, 64, 52
9, 397680, Note_on_c, 4, 60, 52
9, 397784, Note_on_c, 4, 64, 0
9, 397784, Note_on_c, 4, 60, 0
9, 397800, Note_on_c, 4, 64, 52
9, 397800, Note_on_c, 4, 60, 52
9, 397904, Note_on_c, 4, 64, 0
9, 397904, Note_on_c, 4, 60, 0
9, 397920, Note_on_c, 4, 64, 52
9, 397920, Note_on_c, 4, 60, 52
9, 398039, Note_on_c, 4, 64, 0
9, 398039, Note_on_c, 4, 60, 0
9, 398400, Note_on_c, 4, 64, 52
9, 398400, Note_on_c, 4, 60, 52
9, 398504, Note_on_c, 4, 64, 0
9, 398504, Note_on_c, 4, 60, 0
9, 398520, Note_on_c, 4, 64, 52
9, 398520, Note_on_c, 4, 60, 52
9, 398624, Note_on_c, 4, 64, 0
9, 398624, Note_on_c, 4, 60, 0
9, 398640, Note_on_c, 4, 64, 52
9, 398640, Note_on_c, 4, 60, 52
9, 398759, Note_on_c, 4, 64, 0
9, 398759, Note_on_c, 4, 60, 0
9, 399120, Note_on_c, 4, 60, 52
9, 399120, Note_on_c, 4, 64, 52
9, 399224, Note_on_c, 4, 60, 0
9, 399224, Note_on_c, 4, 64, 0
9, 399240, Note_on_c, 4, 60, 52
9, 399240, Note_on_c, 4, 64, 52
9, 399344, Note_on_c, 4, 60, 0
9, 399344, Note_on_c, 4, 64, 0
9, 399360, Note_on_c, 4, 60, 52
9, 399360, Note_on_c, 4, 64, 52
9, 399479, Note_on_c, 4, 60, 0
9, 399479, Note_on_c, 4, 64, 0
9, 399840, Note_on_c, 4, 64, 52
9, 399840, Note_on_c, 4, 60, 52
9, 399944, Note_on_c, 4, 64, 0
9, 399944, Note_on_c, 4, 60, 0
9, 399960, Note_on_c, 4, 60, 52
9, 399960, Note_on_c, 4, 64, 52
9, 400064, Note_on_c, 4, 60, 0
9, 400064, Note_on_c, 4, 64, 0
9, 400080, Note_on_c, 4, 64, 52
9, 400080, Note_on_c, 4, 60, 52
9, 400184, Note_on_c, 4, 64, 0
9, 400184, Note_on_c, 4, 60, 0
9, 400200, Note_on_c, 4, 64, 84
9, 400244, Note_on_c, 4, 64, 0
9, 400245, Note_on_c, 4, 65, 84
9, 400289, Note_on_c, 4, 65, 0
9, 400290, Note_on_c, 4, 64, 84
9, 400320, Note_on_c, 4, 58, 84
9, 400334, Note_on_c, 4, 64, 0
9, 400335, Note_on_c, 4, 65, 84
9, 400379, Note_on_c, 4, 65, 0
9, 400380, Note_on_c, 4, 64, 84
9, 400424, Note_on_c, 4, 58, 0
9, 400424, Note_on_c, 4, 64, 0
9, 400425, Note_on_c, 4, 65, 84
9, 400440, Note_on_c, 4, 58, 84
9, 400469, Note_on_c, 4, 65, 0
9, 400470, Note_on_c, 4, 62, 84
9, 400514, Note_on_c, 4, 62, 0
9, 400515, Note_on_c, 4, 64, 84
9, 400544, Note_on_c, 4, 58, 0
9, 400559, Note_on_c, 4, 64, 0
9, 400560, Note_on_c, 4, 65, 84
9, 400560, Note_on_c, 4, 57, 84
9, 400664, Note_on_c, 4, 65, 0
9, 400664, Note_on_c, 4, 57, 0
9, 400680, Note_on_c, 4, 57, 84
9, 400680, Note_on_c, 4, 60, 84
9, 400784, Note_on_c, 4, 57, 0
9, 400784, Note_on_c, 4, 60, 0
9, 400800, Note_on_c, 4, 53, 84
9, 400800, Note_on_c, 4, 57, 84
9, 400904, Note_on_c, 4, 53, 0
9, 400904, Note_on_c, 4, 57, 0
9, 400920, Note_on_c, 4, 58, 84
9, 400964, Note_on_c, 4, 58, 0
9, 400965, Note_on_c, 4, 60, 84
9, 401009, Note_on_c, 4, 60, 0
9, 401010, Note_on_c, 4, 58, 84
9, 401040, Note_on_c, 4, 48, 84
9, 401054, Note_on_c, 4, 58, 0
9, 401055, Note_on_c, 4, 60, 84
9, 401099, Note_on_c, 4, 60, 0
9, 401100, Note_on_c, 4, 58, 84
9, 401144, Note_on_c, 4, 48, 0
9, 401144, Note_on_c, 4, 58, 0
9, 401145, Note_on_c, 4, 60, 84
9, 401160, Note_on_c, 4, 48, 84
9, 401189, Note_on_c, 4, 60, 0
9, 401190, Note_on_c, 4, 57, 84
9, 401234, Note_on_c, 4, 57, 0
9, 401235, Note_on_c, 4, 58, 84
9, 401264, Note_on_c, 4, 48, 0
9, 401279, Note_on_c, 4, 58, 0
9, 401280, Note_on_c, 4, 57, 84
9, 401280, Note_on_c, 4, 53, 84
9, 401384, Note_on_c, 4, 57, 0
9, 401384, Note_on_c, 4, 53, 0
9, 401400, Note_on_c, 4, 57, 84
9, 401400, Note_on_c, 4, 60, 84
9, 401504, Note_on_c, 4, 57, 0
9, 401504, Note_on_c, 4, 60, 0
9, 401520, Note_on_c, 4, 53, 84
9, 401520, Note_on_c, 4, 65, 84
9, 401624, Note_on_c, 4, 53, 0
9, 401624, Note_on_c, 4, 65, 0
9, 401640, Note_on_c, 4, 64, 84
9, 401684, Note_on_c, 4, 64, 0
9, 401685, Note_on_c, 4, 65, 84
9, 401729, Note_on_c, 4, 65, 0
9, 401730, Note_on_c, 4, 64, 84
9, 401760, Note_on_c, 4, 58, 84
9, 401774, Note_on_c, 4, 64, 0
9, 401775, Note_on_c, 4, 65, 84
9, 401819, Note_on_c, 4, 65, 0
9, 401820, Note_on_c, 4, 64, 84
9, 401864, Note_on_c, 4, 58, 0
9, 401864, Note_on_c, 4, 64, 0
9, 401865, Note_on_c, 4, 65, 84
9, 401880, Note_on_c, 4, 58, 84
9, 401909, Note_on_c, 4, 65, 0
9, 401910, Note_on_c, 4, 62, 84
9, 401954, Note_on_c, 4, 62, 0
9, 401955, Note_on_c, 4, 64, 84
9, 401984, Note_on_c, 4, 58, 0
9, 401999, Note_on_c, 4, 64, 0
9, 402000, Note_on_c, 4, 65, 84
9, 402000, Note_on_c, 4, 57, 84
9, 402104, Note_on_c, 4, 65, 0
9, 402104, Note_on_c, 4, 57, 0
9, 402120, Note_on_c, 4, 57, 84
9, 402120, Note_on_c, 4, 60, 84
9, 402224, Note_on_c, 4, 57, 0
9, 402224, Note_on_c, 4, 60, 0
9, 402240, Note_on_c, 4, 57, 84
9, 402240, Note_on_c, 4, 53, 84
9, 402344, Note_on_c, 4, 57, 0
9, 402344, Note_on_c, 4, 53, 0
9, 402360, Note_on_c, 4, 64, 84
9, 402404, Note_on_c, 4, 64, 0
9, 402405, Note_on_c, 4, 65, 84
9, 402449, Note_on_c, 4, 65, 0
9, 402450, Note_on_c, 4, 64, 84
9, 402480, Note_on_c, 4, 55, 84
9, 402494, Note_on_c, 4, 64, 0
9, 402495, Note_on_c, 4, 65, 84
9, 402539, Note_on_c, 4, 65, 0
9, 402540, Note_on_c, 4, 64, 84
9, 402584, Note_on_c, 4, 55, 0
9, 402584, Note_on_c, 4, 64, 0
9, 402585, Note_on_c, 4, 65, 84
9, 402600, Note_on_c, 4, 55, 84
9, 402629, Note_on_c, 4, 65, 0
9, 402630, Note_on_c, 4, 62, 84
9, 402674, Note_on_c, 4, 62, 0
9, 402675, Note_on_c, 4, 64, 84
9, 402704, Note_on_c, 4, 55, 0
9, 402719, Note_on_c, 4, 64, 0
9, 402720, Note_on_c, 4, 65, 84
9, 402720, Note_on_c, 4, 57, 84
9, 402824, Note_on_c, 4, 65, 0
9, 402824, Note_on_c, 4, 57, 0
9, 402840, Note_on_c, 4, 57, 84
9, 402840, Note_on_c, 4, 60, 84
9, 402944, Note_on_c, 4, 57, 0
9, 402944, Note_on_c, 4, 60, 0
9, 402960, Note_on_c, 4, 53, 84
9, 402960, Note_on_c, 4, 57, 84
9, 403064, Note_on_c, 4, 53, 0
9, 403064, Note_on_c, 4, 57, 0
9, 403080, Note_on_c, 4, 64, 84
9, 403124, Note_on_c, 4, 64, 0
9, 403125, Note_on_c, 4, 65, 84
9, 403169, Note_on_c, 4, 65, 0
9, 403170, Note_on_c, 4, 64, 84
9, 403200, Note_on_c, 4, 58, 84
9, 403214, Note_on_c, 4, 64, 0
9, 403215, Note_on_c, 4, 65, 84
9, 403259, Note_on_c, 4, 65, 0
9, 403260, Note_on_c, 4, 64, 84
9, 403304, Note_on_c, 4, 58, 0
9, 403304, Note_on_c, 4, 64, 0
9, 403305, Note_on_c, 4, 65, 84
9, 403320, Note_on_c, 4, 58, 84
9, 403349, Note_on_c, 4, 65, 0
9, 403350, Note_on_c, 4, 62, 84
9, 403394, Note_on_c, 4, 62, 0
9, 403395, Note_on_c, 4, 64, 84
9, 403424, Note_on_c, 4, 58, 0
9, 403439, Note_on_c, 4, 64, 0
9, 403440, Note_on_c, 4, 57, 84
9, 403440, Note_on_c, 4, 65, 84
9, 403544, Note_on_c, 4, 57, 0
9, 403544, Note_on_c, 4, 65, 0
9, 403560, Note_on_c, 4, 60, 84
9, 403664, Note_on_c, 4, 60, 0
9, 403680, Note_on_c, 4, 57, 84
9, 403784, Note_on_c, 4, 57, 0
9, 403800, Note_on_c, 4, 53, 84
9, 403904, Note_on_c, 4, 53, 0
9, 403920, Note_on_c, 4, 60, 84
9, 404024, Note_on_c, 4, 60, 0
9, 404040, Note_on_c, 4, 57, 84
9, 404144, Note_on_c, 4, 57, 0
9, 404160, Note_on_c, 4, 53, 84
9, 404264, Note_on_c, 4, 53, 0
9, 404280, Note_on_c, 4, 48, 84
9, 404384, Note_on_c, 4, 48, 0
9, 404400, Note_on_c, 4, 41, 84
9, 404471, Note_on_c, 4, 41, 0
9, 404480, Note_on_c, 4, 41, 84
9, 404519, Note_on_c, 4, 41, 0
9, 404520, Note_on_c, 4, 45, 92
9, 404639, Note_on_c, 4, 45, 0
9, 404640, Note_on_c, 4, 41, 84
9, 404699, Note_on_c, 4, 41, 0
9, 405840, Note_on_c, 4, 41, 84
9, 405840, Note_on_c, 4, 53, 84
9, 405911, Note_on_c, 4, 41, 0
9, 405911, Note_on_c, 4, 53, 0
9, 405920, Note_on_c, 4, 41, 84
9, 405920, Note_on_c, 4, 53, 84
9, 405959, Note_on_c, 4, 41, 0
9, 405959, Note_on_c, 4, 53, 0
9, 405960, Note_on_c, 4, 57, 92
9, 405960, Note_on_c, 4, 45, 92
9, 406079, Note_on_c, 4, 57, 0
9, 406079, Note_on_c, 4, 45, 0
9, 406080, Note_on_c, 4, 53, 84
9, 406080, Note_on_c, 4, 41, 84
9, 406139, Note_on_c, 4, 53, 0
9, 406139, Note_on_c, 4, 41, 0
9, 406200, Note_on_c, 4, 41, 84
9, 406200, Note_on_c, 4, 53, 84
9, 406271, Note_on_c, 4, 41, 0
9, 406271, Note_on_c, 4, 53, 0
9, 406280, Note_on_c, 4, 41, 84
9, 406280, Note_on_c, 4, 53, 84
9, 406319, Note_on_c, 4, 41, 0
9, 406319, Note_on_c, 4, 53, 0
9, 406320, Note_on_c, 4, 57, 92
9, 406320, Note_on_c, 4, 45, 92
9, 406439, Note_on_c, 4, 57, 0
9, 406439, Note_on_c, 4, 45, 0
9, 406440, Note_on_c, 4, 41, 84
9, 406440, Note_on_c, 4, 53, 84
9, 406544, Note_on_c, 4, 41, 0
9, 406544, Note_on_c, 4, 53, 0
9, 406560, Note_on_c, 4, 53, 84
9, 406560, Note_on_c, 4, 41, 84
9, 406631, Note_on_c, 4, 53, 0
9, 406631, Note_on_c, 4, 41, 0
9, 406640, Note_on_c, 4, 41, 84
9, 406640, Note_on_c, 4, 53, 84
9, 406679, Note_on_c, 4, 41, 0
9, 406679, Note_on_c, 4, 53, 0
9, 406680, Note_on_c, 4, 57, 92
9, 406680, Note_on_c, 4, 45, 92
9, 406799, Note_on_c, 4, 57, 0
9, 406799, Note_on_c, 4, 45, 0
9, 406800, Note_on_c, 4, 41, 84
9, 406800, Note_on_c, 4, 53, 84
9, 406904, Note_on_c, 4, 41, 0
9, 406904, Note_on_c, 4, 53, 0
9, 406920, Note_on_c, 4, 41, 84
9, 406920, Note_on_c, 4, 53, 84
9, 406991, Note_on_c, 4, 41, 0
9, 406991, Note_on_c, 4, 53, 0
9, 407000, Note_on_c, 4, 53, 84
9, 407000, Note_on_c, 4, 41, 84
9, 407039, Note_on_c, 4, 53, 0
9, 407039, Note_on_c, 4, 41, 0
9, 407040, Note_on_c, 4, 45, 92
9, 407040, Note_on_c, 4, 57, 92
9, 407159, Note_on_c, 4, 45, 0
9, 407159, Note_on_c, 4, 57, 0
9, 407160, Note_on_c, 4, 53, 84
9, 407160, Note_on_c, 4, 41, 84
9, 407264, Note_on_c, 4, 53, 0
9, 407264, Note_on_c, 4, 41, 0
9, 407280, Note_on_c, 4, 41, 84
9, 407280, Note_on_c, 4, 53, 84
9, 407369, Note_on_c, 4, 41, 0
9, 407369, Note_on_c, 4, 53, 0
9, 407400, Note_on_c, 4, 45, 84
9, 407400, Note_on_c, 4, 57, 84
9, 407519, Note_on_c, 4, 45, 0
9, 407519, Note_on_c, 4, 57, 0
9, 408720, Control_c, 4, 11, 80
9, 408840, Control_c, 4, 11, 80
9, 408840, Note_on_c, 4, 50, 72
9, 408840, Note_on_c, 4, 57, 72
9, 408893, Control_c, 4, 11, 84
9, 408947, Control_c, 4, 11, 87
9, 409000, Control_c, 4, 11, 91
9, 409053, Control_c, 4, 11, 94
9, 409107, Control_c, 4, 11, 98
9, 409160, Control_c, 4, 11, 101
9, 409213, Control_c, 4, 11, 105
9, 409267, Control_c, 4, 11, 108
9, 409320, Control_c, 4, 11, 112
9, 409373, Control_c, 4, 11, 108
9, 409427, Control_c, 4, 11, 105
9, 409439, Note_on_c, 4, 50, 0
9, 409440, Note_on_c, 4, 45, 72
9, 409480, Control_c, 4, 11, 101
9, 409533, Control_c, 4, 11, 98
9, 409559, Note_on_c, 4, 45, 0
9, 409560, Note_on_c, 4, 50, 72
9, 409587, Control_c, 4, 11, 94
9, 409640, Control_c, 4, 11, 91
9, 409693, Control_c, 4, 11, 87
9, 409747, Control_c, 4, 11, 84
9, 409799, Note_on_c, 4, 57, 0
9, 409799, Note_on_c, 4, 50, 0
9, 409800, Control_c, 4, 11, 80
9, 410040, Control_c, 4, 11, 96
9, 410280, Control_c, 4, 11, 96
9, 410280, Note_on_c, 4, 57, 64
9, 410280, Note_on_c, 4, 50, 64
9, 410333, Control_c, 4, 11, 100
9, 410387, Control_c, 4, 11, 103
9, 410440, Control_c, 4, 11, 107
9, 410493, Control_c, 4, 11, 110
9, 410547, Control_c, 4, 11, 114
9, 410600, Control_c, 4, 11, 117
9, 410653, Control_c, 4, 11, 121
9, 410707, Control_c, 4, 11, 124
9, 410760, Control_c, 4, 11, 127
9, 410813, Control_c, 4, 11, 124
9, 410867, Control_c, 4, 11, 121
9, 410879, Note_on_c, 4, 50, 0
9, 410880, Note_on_c, 4, 45, 64
9, 410920, Control_c, 4, 11, 117
9, 410973, Control_c, 4, 11, 114
9, 410999, Note_on_c, 4, 45, 0
9, 411000, Note_on_c, 4, 50, 64
9, 411027, Control_c, 4, 11, 110
9, 411080, Control_c, 4, 11, 107
9, 411133, Control_c, 4, 11, 103
9, 411187, Control_c, 4, 11, 100
9, 411239, Note_on_c, 4, 57, 0
9, 411239, Note_on_c, 4, 50, 0
9, 411240, Control_c, 4, 11, 96
9, 411480, Control_c, 4, 11, 127
9, 411720, Note_on_c, 4, 58, 84
9, 411720, Note_on_c, 4, 46, 84
9, 411839, Note_on_c, 4, 58, 0
9, 411839, Note_on_c, 4, 46, 0
9, 412080, Note_on_c, 4, 59, 84
9, 412080, Note_on_c, 4, 47, 84
9, 412199, Note_on_c, 4, 59, 0
9, 412199, Note_on_c, 4, 47, 0
9, 412440, Note_on_c, 4, 60, 84
9, 412440, Note_on_c, 4, 48, 84
9, 412559, Note_on_c, 4, 60, 0
9, 412559, Note_on_c, 4, 48, 0
9, 412800, Note_on_c, 4, 48, 84
9, 412800, Note_on_c, 4, 36, 84
9, 412919, Note_on_c, 4, 48, 0
9, 412919, Note_on_c, 4, 36, 0
9, 413160, Note_on_c, 4, 41, 84
9, 413279, Note_on_c, 4, 41, 0
9, 413279, End_track
10, 0, Start_track
10, 0, Title_t, "French Horn in D"
10, 0, MIDI_port, 0
10, 0, Program_c, 5, 60
10, 0, Control_c, 5, 7, 104
10, 0, Control_c, 5, 11, 127
10, 0, Control_c, 5, 10, 45
10, 0, Note_on_c, 5, 57, 76
10, 104, Note_on_c, 5, 57, 0
10, 120, Note_on_c, 5, 57, 76
10, 239, Note_on_c, 5, 57, 0
10, 360, Note_on_c, 5, 57, 76
10, 464, Note_on_c, 5, 57, 0
10, 480, Note_on_c, 5, 57, 76
10, 599, Note_on_c, 5, 57, 0
10, 720, Note_on_c, 5, 57, 76
10, 824, Note_on_c, 5, 57, 0
10, 840, Note_on_c, 5, 57, 52
10, 959, Note_on_c, 5, 57, 0
10, 5880, Note_on_c, 5, 64, 76
10, 6224, Note_on_c, 5, 64, 0
10, 6240, Note_on_c, 5, 64, 76
10, 6359, Note_on_c, 5, 64, 0
10, 6600, Note_on_c, 5, 64, 76
10, 6944, Note_on_c, 5, 64, 0
10, 6960, Note_on_c, 5, 64, 76
10, 7079, Note_on_c, 5, 64, 0
10, 7320, Note_on_c, 5, 64, 76
10, 7664, Note_on_c, 5, 64, 0
10, 7680, Note_on_c, 5, 57, 76
10, 7680, Note_on_c, 5, 64, 76
10, 7784, Note_on_c, 5, 57, 0
10, 7784, Note_on_c, 5, 64, 0
10, 7800, Note_on_c, 5, 64, 76
10, 7800, Note_on_c, 5, 57, 76
10, 7904, Note_on_c, 5, 64, 0
10, 7904, Note_on_c, 5, 57, 0
10, 7920, Note_on_c, 5, 64, 76
10, 7920, Note_on_c, 5, 57, 76
10, 8024, Note_on_c, 5, 64, 0
10, 8024, Note_on_c, 5, 57, 0
10, 8040, Note_on_c, 5, 57, 76
10, 8040, Note_on_c, 5, 64, 76
10, 8144, Note_on_c, 5, 57, 0
10, 8144, Note_on_c, 5, 64, 0
10, 8160, Note_on_c, 5, 57, 76
10, 8160, Note_on_c, 5, 45, 76
10, 8264, Note_on_c, 5, 57, 0
10, 8264, Note_on_c, 5, 45, 0
10, 8280, Note_on_c, 5, 45, 76
10, 8280, Note_on_c, 5, 57, 76
10, 8384, Note_on_c, 5, 45, 0
10, 8384, Note_on_c, 5, 57, 0
10, 8400, Note_on_c, 5, 45, 76
10, 8400, Note_on_c, 5, 57, 76
10, 8519, Note_on_c, 5, 45, 0
10, 8519, Note_on_c, 5, 57, 0
10, 8640, Note_on_c, 5, 57, 76
10, 8744, Note_on_c, 5, 57, 0
10, 8760, Note_on_c, 5, 57, 76
10, 8879, Note_on_c, 5, 57, 0
10, 9000, Note_on_c, 5, 57, 76
10, 9104, Note_on_c, 5, 57, 0
10, 9120, Note_on_c, 5, 57, 76
10, 9239, Note_on_c, 5, 57, 0
10, 9360, Note_on_c, 5, 57, 76
10, 9464, Note_on_c, 5, 57, 0
10, 9480, Note_on_c, 5, 57, 52
10, 9599, Note_on_c, 5, 57, 0
10, 14520, Note_on_c, 5, 64, 76
10, 14864, Note_on_c, 5, 64, 0
10, 14880, Note_on_c, 5, 64, 76
10, 14999, Note_on_c, 5, 64, 0
10, 15240, Note_on_c, 5, 64, 76
10, 15584, Note_on_c, 5, 64, 0
10, 15600, Note_on_c, 5, 64, 76
10, 15719, Note_on_c, 5, 64, 0
10, 15960, Note_on_c, 5, 64, 76
10, 16304, Note_on_c, 5, 64, 0
10, 16320, Note_on_c, 5, 57, 76
10, 16320, Note_on_c, 5, 64, 76
10, 16424, Note_on_c, 5, 57, 0
10, 16424, Note_on_c, 5, 64, 0
10, 16440, Note_on_c, 5, 57, 76
10, 16440, Note_on_c, 5, 64, 76
10, 16544, Note_on_c, 5, 57, 0
10, 16544, Note_on_c, 5, 64, 0
10, 16560, Note_on_c, 5, 57, 76
10, 16560, Note_on_c, 5, 64, 76
10, 16664, Note_on_c, 5, 57, 0
10, 16664, Note_on_c, 5, 64, 0
10, 16680, Note_on_c, 5, 64, 76
10, 16680, Note_on_c, 5, 57, 76
10, 16784, Note_on_c, 5, 64, 0
10, 16784, Note_on_c, 5, 57, 0
10, 16800, Note_on_c, 5, 45, 76
10, 16800, Note_on_c, 5, 57, 76
10, 16904, Note_on_c, 5, 45, 0
10, 16904, Note_on_c, 5, 57, 0
10, 16920, Note_on_c, 5, 45, 76
10, 16920, Note_on_c, 5, 57, 76
10, 17024, Note_on_c, 5, 45, 0
10, 17024, Note_on_c, 5, 57, 0
10, 17040, Note_on_c, 5, 57, 76
10, 17040, Note_on_c, 5, 45, 76
10, 17159, Note_on_c, 5, 57, 0
10, 17159, Note_on_c, 5, 45, 0
10, 23160, Note_on_c, 5, 62, 44
10, 24104, Note_on_c, 5, 62, 0
10, 24120, Note_on_c, 5, 67, 84
10, 24224, Note_on_c, 5, 67, 0
10, 24240, Note_on_c, 5, 67, 84
10, 24359, Note_on_c, 5, 67, 0
10, 29880, Note_on_c, 5, 57, 84
10, 29984, Note_on_c, 5, 57, 0
10, 30000, Note_on_c, 5, 57, 84
10, 30119, Note_on_c, 5, 57, 0
10, 40320, Note_on_c, 5, 60, 76
10, 40424, Note_on_c, 5, 60, 0
10, 40440, Note_on_c, 5, 60, 76
10, 40559, Note_on_c, 5, 60, 0
10, 40680, Note_on_c, 5, 60, 76
10, 40784, Note_on_c, 5, 60, 0
10, 40800, Note_on_c, 5, 60, 76
10, 40919, Note_on_c, 5, 60, 0
10, 41040, Note_on_c, 5, 60, 76
10, 41144, Note_on_c, 5, 60, 0
10, 41160, Note_on_c, 5, 60, 84
10, 41264, Note_on_c, 5, 60, 0
10, 41280, Note_on_c, 5, 60, 84
10, 41384, Note_on_c, 5, 60, 0
10, 41400, Note_on_c, 5, 60, 84
10, 41504, Note_on_c, 5, 60, 0
10, 41520, Note_on_c, 5, 60, 84
10, 41624, Note_on_c, 5, 60, 0
10, 41640, Note_on_c, 5, 60, 84
10, 41744, Note_on_c, 5, 60, 0
10, 41760, Note_on_c, 5, 60, 84
10, 41864, Note_on_c, 5, 60, 0
10, 41880, Note_on_c, 5, 60, 84
10, 41984, Note_on_c, 5, 60, 0
10, 42000, Note_on_c, 5, 60, 84
10, 42104, Note_on_c, 5, 60, 0
10, 42120, Note_on_c, 5, 60, 84
10, 42224, Note_on_c, 5, 60, 0
10, 42240, Note_on_c, 5, 60, 84
10, 42584, Note_on_c, 5, 60, 0
10, 42600, Note_on_c, 5, 60, 84
10, 42704, Note_on_c, 5, 60, 0
10, 42720, Note_on_c, 5, 60, 84
10, 42824, Note_on_c, 5, 60, 0
10, 42840, Note_on_c, 5, 60, 84
10, 42944, Note_on_c, 5, 60, 0
10, 42960, Note_on_c, 5, 60, 84
10, 43064, Note_on_c, 5, 60, 0
10, 43080, Note_on_c, 5, 60, 84
10, 43184, Note_on_c, 5, 60, 0
10, 43200, Note_on_c, 5, 60, 84
10, 43304, Note_on_c, 5, 60, 0
10, 43320, Note_on_c, 5, 60, 84
10, 43424, Note_on_c, 5, 60, 0
10, 43440, Note_on_c, 5, 60, 84
10, 43544, Note_on_c, 5, 60, 0
10, 43560, Note_on_c, 5, 60, 84
10, 43664, Note_on_c, 5, 60, 0
10, 43680, Note_on_c, 5, 60, 84
10, 44039, Note_on_c, 5, 60, 0
10, 44760, Note_on_c, 5, 60, 44
10, 44864, Note_on_c, 5, 60, 0
10, 44880, Note_on_c, 5, 60, 44
10, 44984, Note_on_c, 5, 60, 0
10, 45000, Note_on_c, 5, 60, 44
10, 45119, Note_on_c, 5, 60, 0
10, 46560, Note_on_c, 5, 60, 44
10, 46664, Note_on_c, 5, 60, 0
10, 46680, Note_on_c, 5, 60, 44
10, 46784, Note_on_c, 5, 60, 0
10, 46800, Note_on_c, 5, 60, 44
10, 46919, Note_on_c, 5, 60, 0
10, 53760, Note_on_c, 5, 65, 76
10, 53864, Note_on_c, 5, 65, 0
10, 53880, Note_on_c, 5, 65, 76
10, 53984, Note_on_c, 5, 65, 0
10, 54000, Note_on_c, 5, 65, 76
10, 54119, Note_on_c, 5, 65, 0
10, 54480, Note_on_c, 5, 65, 76
10, 54584, Note_on_c, 5, 65, 0
10, 54600, Note_on_c, 5, 65, 76
10, 54704, Note_on_c, 5, 65, 0
10, 54720, Note_on_c, 5, 65, 76
10, 54839, Note_on_c, 5, 65, 0
10, 55200, Note_on_c, 5, 65, 76
10, 55304, Note_on_c, 5, 65, 0
10, 55320, Note_on_c, 5, 65, 76
10, 55424, Note_on_c, 5, 65, 0
10, 55440, Note_on_c, 5, 65, 76
10, 55559, Note_on_c, 5, 65, 0
10, 55920, Note_on_c, 5, 65, 76
10, 56024, Note_on_c, 5, 65, 0
10, 56040, Note_on_c, 5, 65, 76
10, 56144, Note_on_c, 5, 65, 0
10, 56160, Note_on_c, 5, 65, 76
10, 56279, Note_on_c, 5, 65, 0
10, 56640, Note_on_c, 5, 65, 76
10, 56744, Note_on_c, 5, 65, 0
10, 56760, Note_on_c, 5, 65, 76
10, 56864, Note_on_c, 5, 65, 0
10, 56880, Note_on_c, 5, 65, 76
10, 56984, Note_on_c, 5, 65, 0
10, 57000, Note_on_c, 5, 65, 76
10, 57104, Note_on_c, 5, 65, 0
10, 57120, Note_on_c, 5, 65, 76
10, 57224, Note_on_c, 5, 65, 0
10, 57240, Note_on_c, 5, 65, 76
10, 57344, Note_on_c, 5, 65, 0
10, 57360, Note_on_c, 5, 65, 76
10, 57479, Note_on_c, 5, 65, 0
10, 59040, Note_on_c, 5, 57, 84
10, 59144, Note_on_c, 5, 57, 0
10, 59160, Note_on_c, 5, 57, 84
10, 59279, Note_on_c, 5, 57, 0
10, 59400, Note_on_c, 5, 57, 84
10, 59504, Note_on_c, 5, 57, 0
10, 59520, Note_on_c, 5, 57, 84
10, 59639, Note_on_c, 5, 57, 0
10, 59760, Note_on_c, 5, 57, 84
10, 59864, Note_on_c, 5, 57, 0
10, 59880, Note_on_c, 5, 57, 84
10, 59999, Note_on_c, 5, 57, 0
10, 60120, Note_on_c, 5, 57, 84
10, 60224, Note_on_c, 5, 57, 0
10, 60240, Note_on_c, 5, 57, 84
10, 60359, Note_on_c, 5, 57, 0
10, 60480, Note_on_c, 5, 57, 84
10, 60584, Note_on_c, 5, 57, 0
10, 60600, Note_on_c, 5, 57, 84
10, 60719, Note_on_c, 5, 57, 0
10, 67800, Note_on_c, 5, 62, 44
10, 68744, Note_on_c, 5, 62, 0
10, 68760, Note_on_c, 5, 67, 84
10, 68864, Note_on_c, 5, 67, 0
10, 68880, Note_on_c, 5, 67, 84
10, 68999, Note_on_c, 5, 67, 0
10, 74520, Note_on_c, 5, 57, 84
10, 74624, Note_on_c, 5, 57, 0
10, 74640, Note_on_c, 5, 57, 84
10, 74759, Note_on_c, 5, 57, 0
10, 84960, Note_on_c, 5, 60, 76
10, 85064, Note_on_c, 5, 60, 0
10, 85080, Note_on_c, 5, 60, 76
10, 85199, Note_on_c, 5, 60, 0
10, 85320, Note_on_c, 5, 60, 76
10, 85424, Note_on_c, 5, 60, 0
10, 85440, Note_on_c, 5, 60, 76
10, 85559, Note_on_c, 5, 60, 0
10, 85680, Note_on_c, 5, 60, 76
10, 85784, Note_on_c, 5, 60, 0
10, 85800, Note_on_c, 5, 60, 84
10, 85904, Note_on_c, 5, 60, 0
10, 85920, Note_on_c, 5, 60, 84
10, 86024, Note_on_c, 5, 60, 0
10, 86040, Note_on_c, 5, 60, 84
10, 86144, Note_on_c, 5, 60, 0
10, 86160, Note_on_c, 5, 60, 84
10, 86264, Note_on_c, 5, 60, 0
10, 86280, Note_on_c, 5, 60, 84
10, 86384, Note_on_c, 5, 60, 0
10, 86400, Note_on_c, 5, 60, 84
10, 86504, Note_on_c, 5, 60, 0
10, 86520, Note_on_c, 5, 60, 84
10, 86624, Note_on_c, 5, 60, 0
10, 86640, Note_on_c, 5, 60, 84
10, 86744, Note_on_c, 5, 60, 0
10, 86760, Note_on_c, 5, 60, 84
10, 86864, Note_on_c, 5, 60, 0
10, 86880, Note_on_c, 5, 60, 84
10, 87224, Note_on_c, 5, 60, 0
10, 87240, Note_on_c, 5, 60, 84
10, 87344, Note_on_c, 5, 60, 0
10, 87360, Note_on_c, 5, 60, 84
10, 87464, Note_on_c, 5, 60, 0
10, 87480, Note_on_c, 5, 60, 84
10, 87584, Note_on_c, 5, 60, 0
10, 87600, Note_on_c, 5, 60, 84
10, 87704, Note_on_c, 5, 60, 0
10, 87720, Note_on_c, 5, 60, 84
10, 87824, Note_on_c, 5, 60, 0
10, 87840, Note_on_c, 5, 60, 84
10, 87944, Note_on_c, 5, 60, 0
10, 87960, Note_on_c, 5, 60, 84
10, 88064, Note_on_c, 5, 60, 0
10, 88080, Note_on_c, 5, 60, 84
10, 88184, Note_on_c, 5, 60, 0
10, 88200, Note_on_c, 5, 60, 84
10, 88304, Note_on_c, 5, 60, 0
10, 88320, Note_on_c, 5, 60, 84
10, 88679, Note_on_c, 5, 60, 0
10, 89400, Note_on_c, 5, 60, 44
10, 89504, Note_on_c, 5, 60, 0
10, 89520, Note_on_c, 5, 60, 44
10, 89624, Note_on_c, 5, 60, 0
10, 89640, Note_on_c, 5, 60, 44
10, 89759, Note_on_c, 5, 60, 0
10, 91200, Note_on_c, 5, 60, 44
10, 91304, Note_on_c, 5, 60, 0
10, 91320, Note_on_c, 5, 60, 44
10, 91424, Note_on_c, 5, 60, 0
10, 91440, Note_on_c, 5, 60, 44
10, 91559, Note_on_c, 5, 60, 0
10, 98400, Note_on_c, 5, 65, 76
10, 98504, Note_on_c, 5, 65, 0
10, 98520, Note_on_c, 5, 65, 76
10, 98624, Note_on_c, 5, 65, 0
10, 98640, Note_on_c, 5, 65, 76
10, 98759, Note_on_c, 5, 65, 0
10, 99120, Note_on_c, 5, 65, 76
10, 99224, Note_on_c, 5, 65, 0
10, 99240, Note_on_c, 5, 65, 76
10, 99344, Note_on_c, 5, 65, 0
10, 99360, Note_on_c, 5, 65, 76
10, 99479, Note_on_c, 5, 65, 0
10, 99840, Note_on_c, 5, 65, 76
10, 99944, Note_on_c, 5, 65, 0
10, 99960, Note_on_c, 5, 65, 76
10, 100064, Note_on_c, 5, 65, 0
10, 100080, Note_on_c, 5, 65, 76
10, 100199, Note_on_c, 5, 65, 0
10, 100560, Note_on_c, 5, 65, 76
10, 100664, Note_on_c, 5, 65, 0
10, 100680, Note_on_c, 5, 65, 76
10, 100784, Note_on_c, 5, 65, 0
10, 100800, Note_on_c, 5, 65, 76
10, 100919, Note_on_c, 5, 65, 0
10, 101280, Note_on_c, 5, 65, 76
10, 101384, Note_on_c, 5, 65, 0
10, 101400, Note_on_c, 5, 65, 76
10, 101504, Note_on_c, 5, 65, 0
10, 101520, Note_on_c, 5, 65, 76
10, 101624, Note_on_c, 5, 65, 0
10, 101640, Note_on_c, 5, 65, 76
10, 101744, Note_on_c, 5, 65, 0
10, 101760, Note_on_c, 5, 65, 76
10, 101864, Note_on_c, 5, 65, 0
10, 101880, Note_on_c, 5, 65, 76
10, 101984, Note_on_c, 5, 65, 0
10, 102000, Note_on_c, 5, 65, 76
10, 102119, Note_on_c, 5, 65, 0
10, 103680, Note_on_c, 5, 57, 84
10, 103784, Note_on_c, 5, 57, 0
10, 103800, Note_on_c, 5, 57, 84
10, 103919, Note_on_c, 5, 57, 0
10, 104040, Note_on_c, 5, 57, 84
10, 104144, Note_on_c, 5, 57, 0
10, 104160, Note_on_c, 5, 57, 84
10, 104279, Note_on_c, 5, 57, 0
10, 104400, Note_on_c, 5, 57, 84
10, 104504, Note_on_c, 5, 57, 0
10, 104520, Note_on_c, 5, 57, 84
10, 104639, Note_on_c, 5, 57, 0
10, 104760, Note_on_c, 5, 57, 84
10, 104864, Note_on_c, 5, 57, 0
10, 104880, Note_on_c, 5, 57, 84
10, 104999, Note_on_c, 5, 57, 0
10, 105120, Note_on_c, 5, 57, 84
10, 105224, Note_on_c, 5, 57, 0
10, 105240, Note_on_c, 5, 57, 84
10, 105359, Note_on_c, 5, 57, 0
10, 106560, Control_c, 5, 11, 96
10, 106680, Control_c, 5, 11, 96
10, 106680, Note_on_c, 5, 54, 64
10, 106680, Note_on_c, 5, 62, 64
10, 106733, Control_c, 5, 11, 99
10, 106787, Control_c, 5, 11, 103
10, 106840, Control_c, 5, 11, 106
10, 106893, Control_c, 5, 11, 110
10, 106947, Control_c, 5, 11, 113
10, 107000, Control_c, 5, 11, 117
10, 107053, Control_c, 5, 11, 120
10, 107107, Control_c, 5, 11, 124
10, 107160, Control_c, 5, 11, 127
10, 107213, Control_c, 5, 11, 124
10, 107267, Control_c, 5, 11, 120
10, 107279, Note_on_c, 5, 54, 0
10, 107279, Note_on_c, 5, 62, 0
10, 107280, Note_on_c, 5, 57, 64
10, 107280, Note_on_c, 5, 64, 64
10, 107320, Control_c, 5, 11, 117
10, 107373, Control_c, 5, 11, 113
10, 107399, Note_on_c, 5, 57, 0
10, 107399, Note_on_c, 5, 64, 0
10, 107400, Note_on_c, 5, 62, 64
10, 107400, Note_on_c, 5, 54, 64
10, 107427, Control_c, 5, 11, 110
10, 107480, Control_c, 5, 11, 106
10, 107533, Control_c, 5, 11, 103
10, 107587, Control_c, 5, 11, 99
10, 107639, Note_on_c, 5, 62, 0
10, 107639, Note_on_c, 5, 54, 0
10, 107640, Control_c, 5, 11, 96
10, 108120, Note_on_c, 5, 62, 64
10, 108120, Control_c, 5, 11, 96
10, 108120, Note_on_c, 5, 54, 64
10, 108173, Control_c, 5, 11, 99
10, 108227, Control_c, 5, 11, 103
10, 108280, Control_c, 5, 11, 106
10, 108333, Control_c, 5, 11, 110
10, 108387, Control_c, 5, 11, 113
10, 108440, Control_c, 5, 11, 117
10, 108493, Control_c, 5, 11, 120
10, 108547, Control_c, 5, 11, 124
10, 108600, Control_c, 5, 11, 127
10, 108653, Control_c, 5, 11, 124
10, 108707, Control_c, 5, 11, 120
10, 108719, Note_on_c, 5, 62, 0
10, 108719, Note_on_c, 5, 54, 0
10, 108720, Note_on_c, 5, 64, 64
10, 108720, Note_on_c, 5, 57, 64
10, 108760, Control_c, 5, 11, 117
10, 108813, Control_c, 5, 11, 113
10, 108839, Note_on_c, 5, 64, 0
10, 108839, Note_on_c, 5, 57, 0
10, 108840, Note_on_c, 5, 54, 64
10, 108840, Note_on_c, 5, 62, 64
10, 108867, Control_c, 5, 11, 110
10, 108920, Control_c, 5, 11, 106
10, 108973, Control_c, 5, 11, 103
10, 109027, Control_c, 5, 11, 99
10, 109079, Note_on_c, 5, 54, 0
10, 109079, Note_on_c, 5, 62, 0
10, 109080, Control_c, 5, 11, 96
10, 109320, Control_c, 5, 11, 127
10, 109560, Note_on_c, 5, 62, 48
10, 109560, Note_on_c, 5, 54, 48
10, 110039, Note_on_c, 5, 62, 0
10, 110039, Note_on_c, 5, 54, 0
10, 110040, Note_on_c, 5, 57, 48
10, 110040, Note_on_c, 5, 64, 48
10, 110279, Note_on_c, 5, 57, 0
10, 110279, Note_on_c, 5, 64, 0
10, 110280, Note_on_c, 5, 66, 48
10, 110280, Note_on_c, 5, 62, 48
10, 110519, Note_on_c, 5, 66, 0
10, 110519, Note_on_c, 5, 62, 0
10, 110520, Note_on_c, 5, 64, 48
10, 110520, Note_on_c, 5, 67, 48
10, 110739, Note_on_c, 5, 64, 0
10, 110739, Note_on_c, 5, 67, 0
10, 110760, Note_on_c, 5, 62, 48
10, 110760, Note_on_c, 5, 66, 48
10, 110939, Note_on_c, 5, 62, 0
10, 110939, Note_on_c, 5, 66, 0
10, 111000, Note_on_c, 5, 57, 48
10, 111000, Note_on_c, 5, 64, 48
10, 111239, Note_on_c, 5, 57, 0
10, 111239, Note_on_c, 5, 64, 0
10, 112200, Control_c, 5, 11, 96
10, 112440, Note_on_c, 5, 64, 64
10, 112440, Note_on_c, 5, 57, 64
10, 112493, Control_c, 5, 11, 99
10, 112547, Control_c, 5, 11, 103
10, 112600, Control_c, 5, 11, 106
10, 112653, Control_c, 5, 11, 110
10, 112707, Control_c, 5, 11, 113
10, 112760, Control_c, 5, 11, 117
10, 112813, Control_c, 5, 11, 120
10, 112867, Control_c, 5, 11, 124
10, 112920, Control_c, 5, 11, 127
10, 112973, Control_c, 5, 11, 124
10, 113027, Control_c, 5, 11, 120
10, 113039, Note_on_c, 5, 64, 0
10, 113040, Note_on_c, 5, 66, 64
10, 113080, Control_c, 5, 11, 117
10, 113133, Control_c, 5, 11, 113
10, 113159, Note_on_c, 5, 66, 0
10, 113160, Note_on_c, 5, 64, 64
10, 113187, Control_c, 5, 11, 110
10, 113240, Control_c, 5, 11, 106
10, 113293, Control_c, 5, 11, 103
10, 113347, Control_c, 5, 11, 99
10, 113399, Note_on_c, 5, 57, 0
10, 113399, Note_on_c, 5, 64, 0
10, 113400, Control_c, 5, 11, 96
10, 113880, Note_on_c, 5, 64, 64
10, 113880, Note_on_c, 5, 57, 64
10, 113933, Control_c, 5, 11, 99
10, 113987, Control_c, 5, 11, 103
10, 114040, Control_c, 5, 11, 106
10, 114093, Control_c, 5, 11, 110
10, 114147, Control_c, 5, 11, 113
10, 114200, Control_c, 5, 11, 117
10, 114253, Control_c, 5, 11, 120
10, 114307, Control_c, 5, 11, 124
10, 114360, Control_c, 5, 11, 127
10, 114413, Control_c, 5, 11, 124
10, 114467, Control_c, 5, 11, 120
10, 114479, Note_on_c, 5, 64, 0
10, 114480, Note_on_c, 5, 66, 64
10, 114520, Control_c, 5, 11, 117
10, 114573, Control_c, 5, 11, 113
10, 114599, Note_on_c, 5, 66, 0
10, 114600, Note_on_c, 5, 64, 64
10, 114627, Control_c, 5, 11, 110
10, 114680, Control_c, 5, 11, 106
10, 114733, Control_c, 5, 11, 103
10, 114787, Control_c, 5, 11, 99
10, 114839, Note_on_c, 5, 57, 0
10, 114839, Note_on_c, 5, 64, 0
10, 114840, Control_c, 5, 11, 96
10, 115080, Control_c, 5, 11, 127
10, 115320, Note_on_c, 5, 64, 48
10, 115320, Note_on_c, 5, 57, 48
10, 115799, Note_on_c, 5, 64, 0
10, 115799, Note_on_c, 5, 57, 0
10, 115800, Note_on_c, 5, 66, 48
10, 115800, Note_on_c, 5, 62, 48
10, 116039, Note_on_c, 5, 66, 0
10, 116039, Note_on_c, 5, 62, 0
10, 116040, Note_on_c, 5, 66, 48
10, 116040, Note_on_c, 5, 69, 48
10, 116279, Note_on_c, 5, 66, 0
10, 116279, Note_on_c, 5, 69, 0
10, 116280, Note_on_c, 5, 67, 48
10, 116280, Note_on_c, 5, 64, 48
10, 116499, Note_on_c, 5, 67, 0
10, 116499, Note_on_c, 5, 64, 0
10, 116520, Note_on_c, 5, 57, 48
10, 116520, Note_on_c, 5, 64, 48
10, 116699, Note_on_c, 5, 57, 0
10, 116699, Note_on_c, 5, 64, 0
10, 116760, Note_on_c, 5, 62, 48
10, 116760, Note_on_c, 5, 54, 48
10, 116999, Note_on_c, 5, 62, 0
10, 116999, Note_on_c, 5, 54, 0
10, 117480, Control_c, 5, 11, 96
10, 118200, Note_on_c, 5, 54, 68
10, 118200, Control_c, 5, 11, 96
10, 118200, Note_on_c, 5, 62, 68
10, 118253, Control_c, 5, 11, 99
10, 118307, Control_c, 5, 11, 103
10, 118360, Control_c, 5, 11, 106
10, 118413, Control_c, 5, 11, 110
10, 118467, Control_c, 5, 11, 113
10, 118520, Control_c, 5, 11, 117
10, 118573, Control_c, 5, 11, 120
10, 118627, Control_c, 5, 11, 124
10, 118680, Control_c, 5, 11, 127
10, 118733, Control_c, 5, 11, 124
10, 118787, Control_c, 5, 11, 120
10, 118799, Note_on_c, 5, 54, 0
10, 118799, Note_on_c, 5, 62, 0
10, 118800, Note_on_c, 5, 57, 68
10, 118800, Note_on_c, 5, 64, 68
10, 118840, Control_c, 5, 11, 117
10, 118893, Control_c, 5, 11, 113
10, 118919, Note_on_c, 5, 57, 0
10, 118919, Note_on_c, 5, 64, 0
10, 118920, Note_on_c, 5, 62, 68
10, 118920, Note_on_c, 5, 54, 68
10, 118947, Control_c, 5, 11, 110
10, 119000, Control_c, 5, 11, 106
10, 119053, Control_c, 5, 11, 103
10, 119107, Control_c, 5, 11, 99
10, 119159, Note_on_c, 5, 62, 0
10, 119159, Note_on_c, 5, 54, 0
10, 119160, Control_c, 5, 11, 96
10, 119640, Note_on_c, 5, 62, 68
10, 119640, Note_on_c, 5, 54, 68
10, 119693, Control_c, 5, 11, 99
10, 119747, Control_c, 5, 11, 103
10, 119800, Control_c, 5, 11, 106
10, 119853, Control_c, 5, 11, 110
10, 119907, Control_c, 5, 11, 113
10, 119960, Control_c, 5, 11, 117
10, 120013, Control_c, 5, 11, 120
10, 120067, Control_c, 5, 11, 124
10, 120120, Control_c, 5, 11, 127
10, 120173, Control_c, 5, 11, 124
10, 120227, Control_c, 5, 11, 120
10, 120239, Note_on_c, 5, 62, 0
10, 120239, Note_on_c, 5, 54, 0
10, 120240, Note_on_c, 5, 57, 68
10, 120240, Note_on_c, 5, 64, 68
10, 120280, Control_c, 5, 11, 117
10, 120333, Control_c, 5, 11, 113
10, 120359, Note_on_c, 5, 57, 0
10, 120359, Note_on_c, 5, 64, 0
10, 120360, Note_on_c, 5, 62, 68
10, 120360, Note_on_c, 5, 54, 68
10, 120387, Control_c, 5, 11, 110
10, 120440, Control_c, 5, 11, 106
10, 120493, Control_c, 5, 11, 103
10, 120547, Control_c, 5, 11, 99
10, 120599, Note_on_c, 5, 62, 0
10, 120599, Note_on_c, 5, 54, 0
10, 120600, Control_c, 5, 11, 96
10, 120840, Control_c, 5, 11, 127
10, 121080, Note_on_c, 5, 54, 52
10, 121080, Note_on_c, 5, 62, 52
10, 121559, Note_on_c, 5, 54, 0
10, 121559, Note_on_c, 5, 62, 0
10, 121560, Note_on_c, 5, 57, 52
10, 121560, Note_on_c, 5, 64, 52
10, 121799, Note_on_c, 5, 57, 0
10, 121799, Note_on_c, 5, 64, 0
10, 121800, Note_on_c, 5, 66, 52
10, 121800, Note_on_c, 5, 62, 52
10, 122039, Note_on_c, 5, 66, 0
10, 122039, Note_on_c, 5, 62, 0
10, 122040, Note_on_c, 5, 64, 52
10, 122040, Note_on_c, 5, 67, 52
10, 122259, Note_on_c, 5, 64, 0
10, 122259, Note_on_c, 5, 67, 0
10, 122280, Note_on_c, 5, 62, 52
10, 122280, Note_on_c, 5, 66, 52
10, 122459, Note_on_c, 5, 62, 0
10, 122459, Note_on_c, 5, 66, 0
10, 122520, Note_on_c, 5, 57, 52
10, 122520, Note_on_c, 5, 64, 52
10, 122759, Note_on_c, 5, 57, 0
10, 122759, Note_on_c, 5, 64, 0
10, 123240, Control_c, 5, 11, 96
10, 123960, Note_on_c, 5, 57, 68
10, 123960, Note_on_c, 5, 64, 68
10, 124013, Control_c, 5, 11, 99
10, 124067, Control_c, 5, 11, 103
10, 124120, Control_c, 5, 11, 106
10, 124173, Control_c, 5, 11, 110
10, 124227, Control_c, 5, 11, 113
10, 124280, Control_c, 5, 11, 117
10, 124333, Control_c, 5, 11, 120
10, 124387, Control_c, 5, 11, 124
10, 124440, Control_c, 5, 11, 127
10, 124493, Control_c, 5, 11, 124
10, 124547, Control_c, 5, 11, 120
10, 124559, Note_on_c, 5, 64, 0
10, 124560, Note_on_c, 5, 66, 68
10, 124600, Control_c, 5, 11, 117
10, 124653, Control_c, 5, 11, 113
10, 124679, Note_on_c, 5, 66, 0
10, 124680, Note_on_c, 5, 64, 68
10, 124707, Control_c, 5, 11, 110
10, 124760, Control_c, 5, 11, 106
10, 124813, Control_c, 5, 11, 103
10, 124867, Control_c, 5, 11, 99
10, 124919, Note_on_c, 5, 57, 0
10, 124919, Note_on_c, 5, 64, 0
10, 124920, Control_c, 5, 11, 96
10, 125400, Note_on_c, 5, 57, 68
10, 125400, Note_on_c, 5, 64, 68
10, 125453, Control_c, 5, 11, 99
10, 125507, Control_c, 5, 11, 103
10, 125560, Control_c, 5, 11, 106
10, 125613, Control_c, 5, 11, 110
10, 125667, Control_c, 5, 11, 113
10, 125720, Control_c, 5, 11, 117
10, 125773, Control_c, 5, 11, 120
10, 125827, Control_c, 5, 11, 124
10, 125880, Control_c, 5, 11, 127
10, 125933, Control_c, 5, 11, 124
10, 125987, Control_c, 5, 11, 120
10, 125999, Note_on_c, 5, 64, 0
10, 126000, Note_on_c, 5, 66, 68
10, 126040, Control_c, 5, 11, 117
10, 126093, Control_c, 5, 11, 113
10, 126119, Note_on_c, 5, 66, 0
10, 126120, Note_on_c, 5, 64, 68
10, 126147, Control_c, 5, 11, 110
10, 126200, Control_c, 5, 11, 106
10, 126253, Control_c, 5, 11, 103
10, 126307, Control_c, 5, 11, 99
10, 126359, Note_on_c, 5, 57, 0
10, 126359, Note_on_c, 5, 64, 0
10, 126360, Control_c, 5, 11, 96
10, 126600, Control_c, 5, 11, 127
10, 126840, Note_on_c, 5, 64, 52
10, 126840, Note_on_c, 5, 57, 52
10, 127319, Note_on_c, 5, 64, 0
10, 127319, Note_on_c, 5, 57, 0
10, 127320, Note_on_c, 5, 62, 52
10, 127320, Note_on_c, 5, 66, 52
10, 127559, Note_on_c, 5, 62, 0
10, 127559, Note_on_c, 5, 66, 0
10, 127560, Note_on_c, 5, 66, 52
10, 127560, Note_on_c, 5, 69, 52
10, 127799, Note_on_c, 5, 66, 0
10, 127799, Note_on_c, 5, 69, 0
10, 127800, Note_on_c, 5, 64, 52
10, 127800, Note_on_c, 5, 67, 52
10, 128019, Note_on_c, 5, 64, 0
10, 128019, Note_on_c, 5, 67, 0
10, 128040, Note_on_c, 5, 57, 52
10, 128040, Note_on_c, 5, 64, 52
10, 128219, Note_on_c, 5, 57, 0
10, 128219, Note_on_c, 5, 64, 0
10, 128280, Note_on_c, 5, 62, 52
10, 128280, Note_on_c, 5, 54, 52
10, 128519, Note_on_c, 5, 62, 0
10, 128519, Note_on_c, 5, 54, 0
10, 129720, Note_on_c, 5, 45, 48
10, 130319, Note_on_c, 5, 45, 0
10, 130320, Note_on_c, 5, 44, 48
10, 130439, Note_on_c, 5, 44, 0
10, 130440, Note_on_c, 5, 45, 48
10, 130679, Note_on_c, 5, 45, 0
10, 131160, Note_on_c, 5, 45, 48
10, 131759, Note_on_c, 5, 45, 0
10, 131760, Note_on_c, 5, 44, 48
10, 131879, Note_on_c, 5, 44, 0
10, 131880, Note_on_c, 5, 45, 48
10, 132119, Note_on_c, 5, 45, 0
10, 132600, Note_on_c, 5, 45, 48
10, 133199, Note_on_c, 5, 45, 0
10, 133200, Note_on_c, 5, 44, 48
10, 133319, Note_on_c, 5, 44, 0
10, 133320, Note_on_c, 5, 45, 48
10, 133559, Note_on_c, 5, 45, 0
10, 134040, Note_on_c, 5, 45, 48
10, 134639, Note_on_c, 5, 45, 0
10, 134640, Note_on_c, 5, 44, 48
10, 134759, Note_on_c, 5, 44, 0
10, 134760, Note_on_c, 5, 45, 48
10, 134999, Note_on_c, 5, 45, 0
10, 135480, Note_on_c, 5, 45, 48
10, 136079, Note_on_c, 5, 45, 0
10, 136080, Note_on_c, 5, 44, 48
10, 136199, Note_on_c, 5, 44, 0
10, 136200, Note_on_c, 5, 45, 48
10, 136439, Note_on_c, 5, 45, 0
10, 136920, Note_on_c, 5, 45, 48
10, 137519, Note_on_c, 5, 45, 0
10, 137520, Note_on_c, 5, 44, 48
10, 137639, Note_on_c, 5, 44, 0
10, 137640, Note_on_c, 5, 45, 48
10, 137879, Note_on_c, 5, 45, 0
10, 138360, Note_on_c, 5, 45, 48
10, 138959, Note_on_c, 5, 45, 0
10, 138960, Note_on_c, 5, 44, 48
10, 139079, Note_on_c, 5, 44, 0
10, 139080, Note_on_c, 5, 45, 48
10, 139319, Note_on_c, 5, 45, 0
10, 139800, Note_on_c, 5, 45, 48
10, 140399, Note_on_c, 5, 45, 0
10, 140400, Note_on_c, 5, 44, 48
10, 140519, Note_on_c, 5, 44, 0
10, 140520, Note_on_c, 5, 45, 48
10, 140759, Note_on_c, 5, 45, 0
10, 141240, Note_on_c, 5, 45, 48
10, 141839, Note_on_c, 5, 45, 0
10, 141840, Note_on_c, 5, 44, 48
10, 141959, Note_on_c, 5, 44, 0
10, 141960, Note_on_c, 5, 45, 48
10, 142199, Note_on_c, 5, 45, 0
10, 142440, Control_c, 5, 11, 64
10, 142680, Note_on_c, 5, 45, 84
10, 142771, Control_c, 5, 11, 65
10, 142863, Control_c, 5, 11, 66
10, 142899, Note_on_c, 5, 45, 0
10, 142920, Note_on_c, 5, 44, 84
10, 142954, Control_c, 5, 11, 67
10, 143046, Control_c, 5, 11, 68
10, 143137, Control_c, 5, 11, 69
10, 143159, Note_on_c, 5, 44, 0
10, 143160, Note_on_c, 5, 45, 84
10, 143229, Control_c, 5, 11, 70
10, 143279, Note_on_c, 5, 45, 0
10, 143320, Control_c, 5, 11, 71
10, 143400, Note_on_c, 5, 44, 84
10, 143411, Control_c, 5, 11, 72
10, 143503, Control_c, 5, 11, 73
10, 143594, Control_c, 5, 11, 74
10, 143639, Note_on_c, 5, 44, 0
10, 143640, Note_on_c, 5, 45, 84
10, 143686, Control_c, 5, 11, 75
10, 143759, Note_on_c, 5, 45, 0
10, 143777, Control_c, 5, 11, 76
10, 143869, Control_c, 5, 11, 77
10, 143880, Note_on_c, 5, 44, 84
10, 143960, Control_c, 5, 11, 78
10, 144051, Control_c, 5, 11, 79
10, 144119, Note_on_c, 5, 44, 0
10, 144120, Note_on_c, 5, 45, 84
10, 144143, Control_c, 5, 11, 80
10, 144234, Control_c, 5, 11, 81
10, 144239, Note_on_c, 5, 45, 0
10, 144326, Control_c, 5, 11, 82
10, 144360, Note_on_c, 5, 44, 84
10, 144417, Control_c, 5, 11, 83
10, 144509, Control_c, 5, 11, 84
10, 144599, Note_on_c, 5, 44, 0
10, 144600, Control_c, 5, 11, 85
10, 144600, Note_on_c, 5, 45, 84
10, 144691, Control_c, 5, 11, 86
10, 144719, Note_on_c, 5, 45, 0
10, 144783, Control_c, 5, 11, 87
10, 144840, Note_on_c, 5, 44, 84
10, 144874, Control_c, 5, 11, 88
10, 144966, Control_c, 5, 11, 89
10, 145057, Control_c, 5, 11, 90
10, 145079, Note_on_c, 5, 44, 0
10, 145080, Note_on_c, 5, 45, 84
10, 145149, Control_c, 5, 11, 91
10, 145199, Note_on_c, 5, 45, 0
10, 145240, Control_c, 5, 11, 92
10, 145320, Note_on_c, 5, 44, 84
10, 145331, Control_c, 5, 11, 93
10, 145423, Control_c, 5, 11, 94
10, 145514, Control_c, 5, 11, 95
10, 145559, Note_on_c, 5, 44, 0
10, 145560, Note_on_c, 5, 45, 84
10, 145606, Control_c, 5, 11, 96
10, 145679, Note_on_c, 5, 45, 0
10, 145697, Control_c, 5, 11, 97
10, 145789, Control_c, 5, 11, 98
10, 145800, Note_on_c, 5, 44, 84
10, 145880, Control_c, 5, 11, 99
10, 145971, Control_c, 5, 11, 100
10, 146039, Note_on_c, 5, 44, 0
10, 146040, Note_on_c, 5, 45, 84
10, 146063, Control_c, 5, 11, 101
10, 146154, Control_c, 5, 11, 102
10, 146159, Note_on_c, 5, 45, 0
10, 146246, Control_c, 5, 11, 103
10, 146280, Note_on_c, 5, 44, 84
10, 146337, Control_c, 5, 11, 104
10, 146429, Control_c, 5, 11, 105
10, 146519, Note_on_c, 5, 44, 0
10, 146520, Control_c, 5, 11, 106
10, 146520, Note_on_c, 5, 45, 84
10, 146611, Control_c, 5, 11, 107
10, 146639, Note_on_c, 5, 45, 0
10, 146703, Control_c, 5, 11, 108
10, 146760, Note_on_c, 5, 44, 84
10, 146794, Control_c, 5, 11, 109
10, 146886, Control_c, 5, 11, 110
10, 146977, Control_c, 5, 11, 111
10, 146999, Note_on_c, 5, 44, 0
10, 147000, Note_on_c, 5, 45, 84
10, 147069, Control_c, 5, 11, 112
10, 147119, Note_on_c, 5, 45, 0
10, 147160, Control_c, 5, 11, 113
10, 147240, Note_on_c, 5, 57, 84
10, 147240, Note_on_c, 5, 44, 84
10, 147251, Control_c, 5, 11, 114
10, 147343, Control_c, 5, 11, 115
10, 147434, Control_c, 5, 11, 116
10, 147479, Note_on_c, 5, 44, 0
10, 147480, Note_on_c, 5, 45, 84
10, 147526, Control_c, 5, 11, 117
10, 147599, Note_on_c, 5, 45, 0
10, 147617, Control_c, 5, 11, 118
10, 147699, Note_on_c, 5, 57, 0
10, 147709, Control_c, 5, 11, 119
10, 147720, Note_on_c, 5, 57, 84
10, 147720, Note_on_c, 5, 44, 84
10, 147800, Control_c, 5, 11, 120
10, 147891, Control_c, 5, 11, 121
10, 147959, Note_on_c, 5, 44, 0
10, 147960, Note_on_c, 5, 45, 84
10, 147983, Control_c, 5, 11, 122
10, 148074, Control_c, 5, 11, 123
10, 148079, Note_on_c, 5, 45, 0
10, 148166, Control_c, 5, 11, 124
10, 148179, Note_on_c, 5, 57, 0
10, 148200, Note_on_c, 5, 57, 84
10, 148200, Note_on_c, 5, 45, 84
10, 148257, Control_c, 5, 11, 125
10, 148349, Control_c, 5, 11, 127
10, 148419, Note_on_c, 5, 57, 0
10, 148419, Note_on_c, 5, 45, 0
10, 148440, Note_on_c, 5, 54, 84
10, 148440, Note_on_c, 5, 62, 84
10, 149039, Note_on_c, 5, 54, 0
10, 149039, Note_on_c, 5, 62, 0
10, 149040, Note_on_c, 5, 57, 84
10, 149040, Note_on_c, 5, 64, 84
10, 149159, Note_on_c, 5, 57, 0
10, 149159, Note_on_c, 5, 64, 0
10, 149160, Note_on_c, 5, 62, 84
10, 149160, Note_on_c, 5, 54, 84
10, 149399, Note_on_c, 5, 62, 0
10, 149399, Note_on_c, 5, 54, 0
10, 149880, Note_on_c, 5, 62, 84
10, 149880, Note_on_c, 5, 54, 84
10, 150479, Note_on_c, 5, 62, 0
10, 150479, Note_on_c, 5, 54, 0
10, 150480, Note_on_c, 5, 57, 84
10, 150480, Note_on_c, 5, 64, 84
10, 150599, Note_on_c, 5, 57, 0
10, 150599, Note_on_c, 5, 64, 0
10, 150600, Note_on_c, 5, 62, 84
10, 150600, Note_on_c, 5, 54, 84
10, 150839, Note_on_c, 5, 62, 0
10, 150839, Note_on_c, 5, 54, 0
10, 151320, Note_on_c, 5, 54, 84
10, 151320, Note_on_c, 5, 62, 84
10, 151799, Note_on_c, 5, 54, 0
10, 151799, Note_on_c, 5, 62, 0
10, 151800, Note_on_c, 5, 57, 84
10, 151800, Note_on_c, 5, 64, 84
10, 152039, Note_on_c, 5, 57, 0
10, 152039, Note_on_c, 5, 64, 0
10, 152040, Note_on_c, 5, 66, 84
10, 152040, Note_on_c, 5, 62, 84
10, 152279, Note_on_c, 5, 66, 0
10, 152279, Note_on_c, 5, 62, 0
10, 152280, Note_on_c, 5, 64, 84
10, 152280, Note_on_c, 5, 57, 84
10, 152499, Note_on_c, 5, 64, 0
10, 152499, Note_on_c, 5, 57, 0
10, 152520, Note_on_c, 5, 66, 84
10, 152520, Note_on_c, 5, 62, 84
10, 152699, Note_on_c, 5, 66, 0
10, 152699, Note_on_c, 5, 62, 0
10, 152760, Note_on_c, 5, 64, 84
10, 152760, Note_on_c, 5, 57, 84
10, 152999, Note_on_c, 5, 64, 0
10, 152999, Note_on_c, 5, 57, 0
10, 154200, Note_on_c, 5, 67, 84
10, 154799, Note_on_c, 5, 67, 0
10, 154800, Note_on_c, 5, 66, 84
10, 154919, Note_on_c, 5, 66, 0
10, 154920, Note_on_c, 5, 67, 84
10, 155159, Note_on_c, 5, 67, 0
10, 155640, Note_on_c, 5, 67, 84
10, 156239, Note_on_c, 5, 67, 0
10, 156240, Note_on_c, 5, 66, 84
10, 156359, Note_on_c, 5, 66, 0
10, 156360, Note_on_c, 5, 67, 84
10, 156599, Note_on_c, 5, 67, 0
10, 157080, Note_on_c, 5, 67, 84
10, 157559, Note_on_c, 5, 67, 0
10, 157560, Note_on_c, 5, 66, 84
10, 157799, Note_on_c, 5, 66, 0
10, 157800, Note_on_c, 5, 69, 84
10, 158039, Note_on_c, 5, 69, 0
10, 158040, Note_on_c, 5, 67, 84
10, 158259, Note_on_c, 5, 67, 0
10, 158280, Note_on_c, 5, 64, 84
10, 158459, Note_on_c, 5, 64, 0
10, 158520, Note_on_c, 5, 62, 84
10, 158759, Note_on_c, 5, 62, 0
10, 159240, Note_on_c, 5, 69, 76
10, 159240, Note_on_c, 5, 57, 76
10, 159359, Note_on_c, 5, 69, 0
10, 159359, Note_on_c, 5, 57, 0
10, 159360, Note_on_c, 5, 69, 52
10, 159360, Note_on_c, 5, 57, 52
10, 159459, Note_on_c, 5, 69, 0
10, 159459, Note_on_c, 5, 57, 0
10, 159480, Note_on_c, 5, 66, 52
10, 159480, Note_on_c, 5, 54, 52
10, 159699, Note_on_c, 5, 66, 0
10, 159699, Note_on_c, 5, 54, 0
10, 159720, Note_on_c, 5, 62, 52
10, 159720, Note_on_c, 5, 50, 52
10, 159939, Note_on_c, 5, 62, 0
10, 159939, Note_on_c, 5, 50, 0
10, 159960, Note_on_c, 5, 45, 48
10, 160559, Note_on_c, 5, 45, 0
10, 160560, Note_on_c, 5, 44, 48
10, 160679, Note_on_c, 5, 44, 0
10, 160680, Note_on_c, 5, 45, 48
10, 160919, Note_on_c, 5, 45, 0
10, 161400, Note_on_c, 5, 45, 48
10, 161999, Note_on_c, 5, 45, 0
10, 162000, Note_on_c, 5, 44, 48
10, 162119, Note_on_c, 5, 44, 0
10, 162120, Note_on_c, 5, 45, 48
10, 162359, Note_on_c, 5, 45, 0
10, 162840, Note_on_c, 5, 45, 48
10, 163439, Note_on_c, 5, 45, 0
10, 163440, Note_on_c, 5, 44, 48
10, 163559, Note_on_c, 5, 44, 0
10, 163560, Note_on_c, 5, 45, 48
10, 163799, Note_on_c, 5, 45, 0
10, 164280, Note_on_c, 5, 45, 48
10, 164879, Note_on_c, 5, 45, 0
10, 164880, Note_on_c, 5, 44, 48
10, 164999, Note_on_c, 5, 44, 0
10, 165000, Note_on_c, 5, 45, 48
10, 165239, Note_on_c, 5, 45, 0
10, 165720, Note_on_c, 5, 45, 48
10, 166319, Note_on_c, 5, 45, 0
10, 166320, Note_on_c, 5, 44, 48
10, 166439, Note_on_c, 5, 44, 0
10, 166440, Note_on_c, 5, 45, 48
10, 166679, Note_on_c, 5, 45, 0
10, 167160, Note_on_c, 5, 45, 48
10, 167759, Note_on_c, 5, 45, 0
10, 167760, Note_on_c, 5, 44, 48
10, 167879, Note_on_c, 5, 44, 0
10, 167880, Note_on_c, 5, 45, 48
10, 168119, Note_on_c, 5, 45, 0
10, 168600, Note_on_c, 5, 45, 48
10, 169199, Note_on_c, 5, 45, 0
10, 169200, Note_on_c, 5, 44, 48
10, 169319, Note_on_c, 5, 44, 0
10, 169320, Note_on_c, 5, 45, 48
10, 169559, Note_on_c, 5, 45, 0
10, 170040, Note_on_c, 5, 45, 48
10, 170639, Note_on_c, 5, 45, 0
10, 170640, Note_on_c, 5, 44, 48
10, 170759, Note_on_c, 5, 44, 0
10, 170760, Note_on_c, 5, 45, 48
10, 170999, Note_on_c, 5, 45, 0
10, 171480, Note_on_c, 5, 45, 48
10, 172079, Note_on_c, 5, 45, 0
10, 172080, Note_on_c, 5, 44, 48
10, 172199, Note_on_c, 5, 44, 0
10, 172200, Note_on_c, 5, 45, 48
10, 172439, Note_on_c, 5, 45, 0
10, 172680, Control_c, 5, 11, 64
10, 172920, Note_on_c, 5, 45, 84
10, 173011, Control_c, 5, 11, 65
10, 173103, Control_c, 5, 11, 66
10, 173139, Note_on_c, 5, 45, 0
10, 173160, Note_on_c, 5, 44, 84
10, 173194, Control_c, 5, 11, 67
10, 173286, Control_c, 5, 11, 68
10, 173377, Control_c, 5, 11, 69
10, 173399, Note_on_c, 5, 44, 0
10, 173400, Note_on_c, 5, 45, 84
10, 173469, Control_c, 5, 11, 70
10, 173519, Note_on_c, 5, 45, 0
10, 173560, Control_c, 5, 11, 71
10, 173640, Note_on_c, 5, 44, 84
10, 173651, Control_c, 5, 11, 72
10, 173743, Control_c, 5, 11, 73
10, 173834, Control_c, 5, 11, 74
10, 173879, Note_on_c, 5, 44, 0
10, 173880, Note_on_c, 5, 45, 84
10, 173926, Control_c, 5, 11, 75
10, 173999, Note_on_c, 5, 45, 0
10, 174017, Control_c, 5, 11, 76
10, 174109, Control_c, 5, 11, 77
10, 174120, Note_on_c, 5, 44, 84
10, 174200, Control_c, 5, 11, 78
10, 174291, Control_c, 5, 11, 79
10, 174359, Note_on_c, 5, 44, 0
10, 174360, Note_on_c, 5, 45, 84
10, 174383, Control_c, 5, 11, 80
10, 174474, Control_c, 5, 11, 81
10, 174479, Note_on_c, 5, 45, 0
10, 174566, Control_c, 5, 11, 82
10, 174600, Note_on_c, 5, 44, 84
10, 174657, Control_c, 5, 11, 83
10, 174749, Control_c, 5, 11, 84
10, 174839, Note_on_c, 5, 44, 0
10, 174840, Note_on_c, 5, 45, 84
10, 174840, Control_c, 5, 11, 85
10, 174931, Control_c, 5, 11, 86
10, 174959, Note_on_c, 5, 45, 0
10, 175023, Control_c, 5, 11, 87
10, 175080, Note_on_c, 5, 44, 84
10, 175114, Control_c, 5, 11, 88
10, 175206, Control_c, 5, 11, 89
10, 175297, Control_c, 5, 11, 90
10, 175319, Note_on_c, 5, 44, 0
10, 175320, Note_on_c, 5, 45, 84
10, 175389, Control_c, 5, 11, 91
10, 175439, Note_on_c, 5, 45, 0
10, 175480, Control_c, 5, 11, 92
10, 175560, Note_on_c, 5, 44, 84
10, 175571, Control_c, 5, 11, 93
10, 175663, Control_c, 5, 11, 94
10, 175754, Control_c, 5, 11, 95
10, 175799, Note_on_c, 5, 44, 0
10, 175800, Note_on_c, 5, 45, 84
10, 175846, Control_c, 5, 11, 96
10, 175919, Note_on_c, 5, 45, 0
10, 175937, Control_c, 5, 11, 97
10, 176029, Control_c, 5, 11, 98
10, 176040, Note_on_c, 5, 44, 84
10, 176120, Control_c, 5, 11, 99
10, 176211, Control_c, 5, 11, 100
10, 176279, Note_on_c, 5, 44, 0
10, 176280, Note_on_c, 5, 45, 84
10, 176303, Control_c, 5, 11, 101
10, 176394, Control_c, 5, 11, 102
10, 176399, Note_on_c, 5, 45, 0
10, 176486, Control_c, 5, 11, 103
10, 176520, Note_on_c, 5, 44, 84
10, 176577, Control_c, 5, 11, 104
10, 176669, Control_c, 5, 11, 105
10, 176759, Note_on_c, 5, 44, 0
10, 176760, Control_c, 5, 11, 106
10, 176760, Note_on_c, 5, 45, 84
10, 176851, Control_c, 5, 11, 107
10, 176879, Note_on_c, 5, 45, 0
10, 176943, Control_c, 5, 11, 108
10, 177000, Note_on_c, 5, 44, 84
10, 177034, Control_c, 5, 11, 109
10, 177126, Control_c, 5, 11, 110
10, 177217, Control_c, 5, 11, 111
10, 177239, Note_on_c, 5, 44, 0
10, 177240, Note_on_c, 5, 45, 84
10, 177309, Control_c, 5, 11, 112
10, 177359, Note_on_c, 5, 45, 0
10, 177400, Control_c, 5, 11, 113
10, 177480, Note_on_c, 5, 44, 84
10, 177480, Note_on_c, 5, 57, 84
10, 177491, Control_c, 5, 11, 114
10, 177583, Control_c, 5, 11, 115
10, 177674, Control_c, 5, 11, 116
10, 177719, Note_on_c, 5, 44, 0
10, 177720, Note_on_c, 5, 45, 84
10, 177766, Control_c, 5, 11, 117
10, 177839, Note_on_c, 5, 45, 0
10, 177857, Control_c, 5, 11, 118
10, 177939, Note_on_c, 5, 57, 0
10, 177949, Control_c, 5, 11, 119
10, 177960, Note_on_c, 5, 57, 84
10, 177960, Note_on_c, 5, 44, 84
10, 178040, Control_c, 5, 11, 120
10, 178131, Control_c, 5, 11, 121
10, 178199, Note_on_c, 5, 44, 0
10, 178200, Note_on_c, 5, 45, 84
10, 178223, Control_c, 5, 11, 122
10, 178314, Control_c, 5, 11, 123
10, 178319, Note_on_c, 5, 45, 0
10, 178406, Control_c, 5, 11, 124
10, 178419, Note_on_c, 5, 57, 0
10, 178440, Note_on_c, 5, 57, 84
10, 178440, Note_on_c, 5, 45, 84
10, 178497, Control_c, 5, 11, 125
10, 178589, Control_c, 5, 11, 127
10, 178659, Note_on_c, 5, 57, 0
10, 178659, Note_on_c, 5, 45, 0
10, 178680, Note_on_c, 5, 54, 84
10, 178680, Note_on_c, 5, 62, 84
10, 179279, Note_on_c, 5, 54, 0
10, 179279, Note_on_c, 5, 62, 0
10, 179280, Note_on_c, 5, 57, 84
10, 179280, Note_on_c, 5, 64, 84
10, 179399, Note_on_c, 5, 57, 0
10, 179399, Note_on_c, 5, 64, 0
10, 179400, Note_on_c, 5, 62, 84
10, 179400, Note_on_c, 5, 54, 84
10, 179639, Note_on_c, 5, 62, 0
10, 179639, Note_on_c, 5, 54, 0
10, 180120, Note_on_c, 5, 62, 84
10, 180120, Note_on_c, 5, 54, 84
10, 180719, Note_on_c, 5, 62, 0
10, 180719, Note_on_c, 5, 54, 0
10, 180720, Note_on_c, 5, 64, 84
10, 180720, Note_on_c, 5, 57, 84
10, 180839, Note_on_c, 5, 64, 0
10, 180839, Note_on_c, 5, 57, 0
10, 180840, Note_on_c, 5, 54, 84
10, 180840, Note_on_c, 5, 62, 84
10, 181079, Note_on_c, 5, 54, 0
10, 181079, Note_on_c, 5, 62, 0
10, 181560, Note_on_c, 5, 54, 84
10, 181560, Note_on_c, 5, 62, 84
10, 182039, Note_on_c, 5, 54, 0
10, 182039, Note_on_c, 5, 62, 0
10, 182040, Note_on_c, 5, 64, 84
10, 182040, Note_on_c, 5, 57, 84
10, 182279, Note_on_c, 5, 64, 0
10, 182279, Note_on_c, 5, 57, 0
10, 182280, Note_on_c, 5, 62, 84
10, 182280, Note_on_c, 5, 66, 84
10, 182519, Note_on_c, 5, 62, 0
10, 182519, Note_on_c, 5, 66, 0
10, 182520, Note_on_c, 5, 57, 84
10, 182520, Note_on_c, 5, 64, 84
10, 182739, Note_on_c, 5, 57, 0
10, 182739, Note_on_c, 5, 64, 0
10, 182760, Note_on_c, 5, 62, 84
10, 182760, Note_on_c, 5, 66, 84
10, 182939, Note_on_c, 5, 62, 0
10, 182939, Note_on_c, 5, 66, 0
10, 183000, Note_on_c, 5, 57, 84
10, 183000, Note_on_c, 5, 64, 84
10, 183239, Note_on_c, 5, 57, 0
10, 183239, Note_on_c, 5, 64, 0
10, 184440, Note_on_c, 5, 67, 84
10, 185039, Note_on_c, 5, 67, 0
10, 185040, Note_on_c, 5, 66, 84
10, 185159, Note_on_c, 5, 66, 0
10, 185160, Note_on_c, 5, 67, 84
10, 185399, Note_on_c, 5, 67, 0
10, 185880, Note_on_c, 5, 67, 84
10, 186479, Note_on_c, 5, 67, 0
10, 186480, Note_on_c, 5, 66, 84
10, 186599, Note_on_c, 5, 66, 0
10, 186600, Note_on_c, 5, 67, 84
10, 186839, Note_on_c, 5, 67, 0
10, 187320, Note_on_c, 5, 67, 84
10, 187799, Note_on_c, 5, 67, 0
10, 187800, Note_on_c, 5, 66, 84
10, 188039, Note_on_c, 5, 66, 0
10, 188040, Note_on_c, 5, 69, 84
10, 188279, Note_on_c, 5, 69, 0
10, 188280, Note_on_c, 5, 67, 84
10, 188499, Note_on_c, 5, 67, 0
10, 188520, Note_on_c, 5, 64, 84
10, 188699, Note_on_c, 5, 64, 0
10, 188760, Note_on_c, 5, 62, 84
10, 188999, Note_on_c, 5, 62, 0
10, 189480, Note_on_c, 5, 57, 76
10, 189480, Note_on_c, 5, 69, 76
10, 189599, Note_on_c, 5, 57, 0
10, 189599, Note_on_c, 5, 69, 0
10, 189600, Note_on_c, 5, 57, 52
10, 189600, Note_on_c, 5, 69, 52
10, 189699, Note_on_c, 5, 57, 0
10, 189699, Note_on_c, 5, 69, 0
10, 189720, Note_on_c, 5, 66, 52
10, 189720, Note_on_c, 5, 54, 52
10, 189939, Note_on_c, 5, 66, 0
10, 189939, Note_on_c, 5, 54, 0
10, 189960, Note_on_c, 5, 50, 52
10, 189960, Note_on_c, 5, 62, 52
10, 190179, Note_on_c, 5, 50, 0
10, 190179, Note_on_c, 5, 62, 0
10, 190200, Note_on_c, 5, 45, 52
10, 190200, Note_on_c, 5, 57, 52
10, 190439, Note_on_c, 5, 57, 0
10, 190799, Note_on_c, 5, 45, 0
10, 190800, Note_on_c, 5, 44, 52
10, 190919, Note_on_c, 5, 44, 0
10, 190920, Note_on_c, 5, 45, 52
10, 191159, Note_on_c, 5, 45, 0
10, 191640, Note_on_c, 5, 45, 52
10, 191640, Control_c, 5, 11, 127
10, 192024, Control_c, 5, 11, 126
10, 192239, Note_on_c, 5, 45, 0
10, 192240, Note_on_c, 5, 44, 52
10, 192359, Note_on_c, 5, 44, 0
10, 192360, Note_on_c, 5, 45, 52
10, 192408, Control_c, 5, 11, 125
10, 192599, Note_on_c, 5, 45, 0
10, 192792, Control_c, 5, 11, 124
10, 193080, Note_on_c, 5, 45, 52
10, 193176, Control_c, 5, 11, 123
10, 193560, Control_c, 5, 11, 122
10, 193679, Note_on_c, 5, 45, 0
10, 193680, Note_on_c, 5, 44, 52
10, 193799, Note_on_c, 5, 44, 0
10, 193800, Note_on_c, 5, 45, 52
10, 193944, Control_c, 5, 11, 121
10, 194039, Note_on_c, 5, 45, 0
10, 194328, Control_c, 5, 11, 120
10, 194520, Note_on_c, 5, 45, 52
10, 194712, Control_c, 5, 11, 119
10, 195096, Control_c, 5, 11, 118
10, 195119, Note_on_c, 5, 45, 0
10, 195120, Note_on_c, 5, 44, 52
10, 195239, Note_on_c, 5, 44, 0
10, 195240, Note_on_c, 5, 45, 52
10, 195479, Note_on_c, 5, 45, 0
10, 195480, Control_c, 5, 11, 117
10, 195864, Control_c, 5, 11, 116
10, 195960, Note_on_c, 5, 45, 52
10, 196248, Control_c, 5, 11, 115
10, 196559, Note_on_c, 5, 45, 0
10, 196560, Note_on_c, 5, 44, 52
10, 196632, Control_c, 5, 11, 114
10, 196679, Note_on_c, 5, 44, 0
10, 196680, Note_on_c, 5, 45, 52
10, 196919, Note_on_c, 5, 45, 0
10, 197016, Control_c, 5, 11, 112
10, 197400, Note_on_c, 5, 45, 52
10, 197999, Note_on_c, 5, 45, 0
10, 198000, Note_on_c, 5, 44, 52
10, 198119, Note_on_c, 5, 44, 0
10, 198120, Note_on_c, 5, 45, 52
10, 198359, Note_on_c, 5, 45, 0
10, 199560, Control_c, 5, 11, 127
10, 200040, Note_on_c, 5, 57, 76
10, 200144, Note_on_c, 5, 57, 0
10, 200160, Note_on_c, 5, 57, 76
10, 200279, Note_on_c, 5, 57, 0
10, 200400, Note_on_c, 5, 57, 76
10, 200504, Note_on_c, 5, 57, 0
10, 200520, Note_on_c, 5, 57, 76
10, 200639, Note_on_c, 5, 57, 0
10, 200760, Note_on_c, 5, 57, 76
10, 200864, Note_on_c, 5, 57, 0
10, 200880, Note_on_c, 5, 57, 52
10, 200999, Note_on_c, 5, 57, 0
10, 205920, Note_on_c, 5, 64, 76
10, 206264, Note_on_c, 5, 64, 0
10, 206280, Note_on_c, 5, 64, 76
10, 206399, Note_on_c, 5, 64, 0
10, 206640, Note_on_c, 5, 64, 76
10, 206984, Note_on_c, 5, 64, 0
10, 207000, Note_on_c, 5, 64, 76
10, 207119, Note_on_c, 5, 64, 0
10, 207360, Note_on_c, 5, 64, 76
10, 207704, Note_on_c, 5, 64, 0
10, 207720, Note_on_c, 5, 57, 76
10, 207720, Note_on_c, 5, 64, 76
10, 207824, Note_on_c, 5, 57, 0
10, 207824, Note_on_c, 5, 64, 0
10, 207840, Note_on_c, 5, 57, 76
10, 207840, Note_on_c, 5, 64, 76
10, 207944, Note_on_c, 5, 57, 0
10, 207944, Note_on_c, 5, 64, 0
10, 207960, Note_on_c, 5, 64, 76
10, 207960, Note_on_c, 5, 57, 76
10, 208064, Note_on_c, 5, 64, 0
10, 208064, Note_on_c, 5, 57, 0
10, 208080, Note_on_c, 5, 57, 76
10, 208080, Note_on_c, 5, 64, 76
10, 208184, Note_on_c, 5, 57, 0
10, 208184, Note_on_c, 5, 64, 0
10, 208200, Note_on_c, 5, 57, 76
10, 208200, Note_on_c, 5, 45, 76
10, 208304, Note_on_c, 5, 57, 0
10, 208304, Note_on_c, 5, 45, 0
10, 208320, Note_on_c, 5, 57, 76
10, 208320, Note_on_c, 5, 45, 76
10, 208424, Note_on_c, 5, 57, 0
10, 208424, Note_on_c, 5, 45, 0
10, 208440, Note_on_c, 5, 57, 76
10, 208440, Note_on_c, 5, 45, 76
10, 208559, Note_on_c, 5, 57, 0
10, 208559, Note_on_c, 5, 45, 0
10, 208680, Note_on_c, 5, 57, 52
10, 208784, Note_on_c, 5, 57, 0
10, 208800, Note_on_c, 5, 57, 52
10, 208919, Note_on_c, 5, 57, 0
10, 209040, Note_on_c, 5, 57, 52
10, 209144, Note_on_c, 5, 57, 0
10, 209160, Note_on_c, 5, 57, 52
10, 209279, Note_on_c, 5, 57, 0
10, 209400, Note_on_c, 5, 57, 52
10, 209504, Note_on_c, 5, 57, 0
10, 209520, Note_on_c, 5, 57, 52
10, 209639, Note_on_c, 5, 57, 0
10, 214560, Note_on_c, 5, 64, 52
10, 214904, Note_on_c, 5, 64, 0
10, 214920, Note_on_c, 5, 64, 52
10, 215039, Note_on_c, 5, 64, 0
10, 215280, Note_on_c, 5, 64, 52
10, 215624, Note_on_c, 5, 64, 0
10, 215640, Note_on_c, 5, 64, 52
10, 215759, Note_on_c, 5, 64, 0
10, 216000, Note_on_c, 5, 64, 52
10, 216344, Note_on_c, 5, 64, 0
10, 216360, Note_on_c, 5, 64, 52
10, 216360, Note_on_c, 5, 57, 52
10, 216464, Note_on_c, 5, 64, 0
10, 216464, Note_on_c, 5, 57, 0
10, 216480, Note_on_c, 5, 64, 52
10, 216480, Note_on_c, 5, 57, 52
10, 216584, Note_on_c, 5, 64, 0
10, 216584, Note_on_c, 5, 57, 0
10, 216600, Note_on_c, 5, 64, 52
10, 216600, Note_on_c, 5, 57, 52
10, 216704, Note_on_c, 5, 64, 0
10, 216704, Note_on_c, 5, 57, 0
10, 216720, Note_on_c, 5, 57, 52
10, 216720, Note_on_c, 5, 64, 52
10, 216824, Note_on_c, 5, 57, 0
10, 216824, Note_on_c, 5, 64, 0
10, 216840, Note_on_c, 5, 45, 52
10, 216840, Note_on_c, 5, 57, 52
10, 216944, Note_on_c, 5, 45, 0
10, 216944, Note_on_c, 5, 57, 0
10, 216960, Note_on_c, 5, 45, 52
10, 216960, Note_on_c, 5, 57, 52
10, 217064, Note_on_c, 5, 45, 0
10, 217064, Note_on_c, 5, 57, 0
10, 217080, Note_on_c, 5, 45, 52
10, 217080, Note_on_c, 5, 57, 52
10, 217199, Note_on_c, 5, 45, 0
10, 217199, Note_on_c, 5, 57, 0
10, 223200, Note_on_c, 5, 62, 44
10, 224144, Note_on_c, 5, 62, 0
10, 224160, Note_on_c, 5, 67, 44
10, 224264, Note_on_c, 5, 67, 0
10, 224280, Note_on_c, 5, 67, 44
10, 224399, Note_on_c, 5, 67, 0
10, 229920, Note_on_c, 5, 57, 44
10, 230024, Note_on_c, 5, 57, 0
10, 230040, Note_on_c, 5, 57, 44
10, 230159, Note_on_c, 5, 57, 0
10, 240360, Note_on_c, 5, 60, 76
10, 240464, Note_on_c, 5, 60, 0
10, 240480, Note_on_c, 5, 60, 76
10, 240599, Note_on_c, 5, 60, 0
10, 240720, Note_on_c, 5, 60, 76
10, 240824, Note_on_c, 5, 60, 0
10, 240840, Note_on_c, 5, 60, 76
10, 240959, Note_on_c, 5, 60, 0
10, 241080, Note_on_c, 5, 60, 76
10, 241184, Note_on_c, 5, 60, 0
10, 241200, Note_on_c, 5, 60, 84
10, 241304, Note_on_c, 5, 60, 0
10, 241320, Note_on_c, 5, 60, 84
10, 241424, Note_on_c, 5, 60, 0
10, 241440, Note_on_c, 5, 60, 84
10, 241544, Note_on_c, 5, 60, 0
10, 241560, Note_on_c, 5, 60, 84
10, 241664, Note_on_c, 5, 60, 0
10, 241680, Note_on_c, 5, 60, 84
10, 241784, Note_on_c, 5, 60, 0
10, 241800, Note_on_c, 5, 60, 84
10, 241904, Note_on_c, 5, 60, 0
10, 241920, Note_on_c, 5, 60, 84
10, 242024, Note_on_c, 5, 60, 0
10, 242040, Note_on_c, 5, 60, 84
10, 242144, Note_on_c, 5, 60, 0
10, 242160, Note_on_c, 5, 60, 84
10, 242264, Note_on_c, 5, 60, 0
10, 242280, Note_on_c, 5, 60, 84
10, 242624, Note_on_c, 5, 60, 0
10, 242640, Note_on_c, 5, 60, 84
10, 242744, Note_on_c, 5, 60, 0
10, 242760, Note_on_c, 5, 60, 84
10, 242864, Note_on_c, 5, 60, 0
10, 242880, Note_on_c, 5, 60, 84
10, 242984, Note_on_c, 5, 60, 0
10, 243000, Note_on_c, 5, 60, 84
10, 243104, Note_on_c, 5, 60, 0
10, 243120, Note_on_c, 5, 60, 84
10, 243224, Note_on_c, 5, 60, 0
10, 243240, Note_on_c, 5, 60, 84
10, 243344, Note_on_c, 5, 60, 0
10, 243360, Note_on_c, 5, 60, 84
10, 243464, Note_on_c, 5, 60, 0
10, 243480, Note_on_c, 5, 60, 84
10, 243584, Note_on_c, 5, 60, 0
10, 243600, Note_on_c, 5, 60, 84
10, 243704, Note_on_c, 5, 60, 0
10, 243720, Note_on_c, 5, 60, 84
10, 244079, Note_on_c, 5, 60, 0
10, 244800, Note_on_c, 5, 60, 44
10, 244904, Note_on_c, 5, 60, 0
10, 244920, Note_on_c, 5, 60, 44
10, 245024, Note_on_c, 5, 60, 0
10, 245040, Note_on_c, 5, 60, 44
10, 245159, Note_on_c, 5, 60, 0
10, 246600, Note_on_c, 5, 60, 44
10, 246704, Note_on_c, 5, 60, 0
10, 246720, Note_on_c, 5, 60, 44
10, 246824, Note_on_c, 5, 60, 0
10, 246840, Note_on_c, 5, 60, 44
10, 246959, Note_on_c, 5, 60, 0
10, 253800, Note_on_c, 5, 65, 76
10, 253904, Note_on_c, 5, 65, 0
10, 253920, Note_on_c, 5, 65, 76
10, 254024, Note_on_c, 5, 65, 0
10, 254040, Note_on_c, 5, 65, 76
10, 254159, Note_on_c, 5, 65, 0
10, 254520, Note_on_c, 5, 65, 76
10, 254624, Note_on_c, 5, 65, 0
10, 254640, Note_on_c, 5, 65, 76
10, 254744, Note_on_c, 5, 65, 0
10, 254760, Note_on_c, 5, 65, 76
10, 254879, Note_on_c, 5, 65, 0
10, 255240, Note_on_c, 5, 65, 76
10, 255344, Note_on_c, 5, 65, 0
10, 255360, Note_on_c, 5, 65, 76
10, 255464, Note_on_c, 5, 65, 0
10, 255480, Note_on_c, 5, 65, 76
10, 255599, Note_on_c, 5, 65, 0
10, 255960, Note_on_c, 5, 65, 76
10, 256064, Note_on_c, 5, 65, 0
10, 256080, Note_on_c, 5, 65, 76
10, 256184, Note_on_c, 5, 65, 0
10, 256200, Note_on_c, 5, 65, 76
10, 256319, Note_on_c, 5, 65, 0
10, 256680, Note_on_c, 5, 65, 76
10, 256784, Note_on_c, 5, 65, 0
10, 256800, Note_on_c, 5, 65, 76
10, 256904, Note_on_c, 5, 65, 0
10, 256920, Note_on_c, 5, 65, 76
10, 257024, Note_on_c, 5, 65, 0
10, 257040, Note_on_c, 5, 65, 76
10, 257144, Note_on_c, 5, 65, 0
10, 257160, Note_on_c, 5, 65, 76
10, 257264, Note_on_c, 5, 65, 0
10, 257280, Note_on_c, 5, 65, 76
10, 257384, Note_on_c, 5, 65, 0
10, 257400, Note_on_c, 5, 65, 76
10, 257519, Note_on_c, 5, 65, 0
10, 259080, Note_on_c, 5, 57, 76
10, 259184, Note_on_c, 5, 57, 0
10, 259200, Note_on_c, 5, 57, 76
10, 259319, Note_on_c, 5, 57, 0
10, 259440, Note_on_c, 5, 57, 76
10, 259544, Note_on_c, 5, 57, 0
10, 259560, Note_on_c, 5, 57, 76
10, 259679, Note_on_c, 5, 57, 0
10, 259800, Note_on_c, 5, 57, 76
10, 259904, Note_on_c, 5, 57, 0
10, 259920, Note_on_c, 5, 57, 76
10, 260039, Note_on_c, 5, 57, 0
10, 260160, Note_on_c, 5, 57, 76
10, 260264, Note_on_c, 5, 57, 0
10, 260280, Note_on_c, 5, 57, 76
10, 260399, Note_on_c, 5, 57, 0
10, 260520, Note_on_c, 5, 57, 76
10, 260624, Note_on_c, 5, 57, 0
10, 260640, Note_on_c, 5, 57, 76
10, 260759, Note_on_c, 5, 57, 0
10, 261960, Control_c, 5, 11, 96
10, 262080, Note_on_c, 5, 62, 64
10, 262080, Control_c, 5, 11, 96
10, 262080, Note_on_c, 5, 54, 64
10, 262133, Control_c, 5, 11, 99
10, 262187, Control_c, 5, 11, 103
10, 262240, Control_c, 5, 11, 106
10, 262293, Control_c, 5, 11, 110
10, 262347, Control_c, 5, 11, 113
10, 262400, Control_c, 5, 11, 117
10, 262453, Control_c, 5, 11, 120
10, 262507, Control_c, 5, 11, 124
10, 262560, Control_c, 5, 11, 127
10, 262613, Control_c, 5, 11, 124
10, 262667, Control_c, 5, 11, 120
10, 262679, Note_on_c, 5, 62, 0
10, 262679, Note_on_c, 5, 54, 0
10, 262680, Note_on_c, 5, 57, 64
10, 262680, Note_on_c, 5, 64, 64
10, 262720, Control_c, 5, 11, 117
10, 262773, Control_c, 5, 11, 113
10, 262799, Note_on_c, 5, 57, 0
10, 262799, Note_on_c, 5, 64, 0
10, 262800, Note_on_c, 5, 54, 64
10, 262800, Note_on_c, 5, 62, 64
10, 262827, Control_c, 5, 11, 110
10, 262880, Control_c, 5, 11, 106
10, 262933, Control_c, 5, 11, 103
10, 262987, Control_c, 5, 11, 99
10, 263039, Note_on_c, 5, 54, 0
10, 263039, Note_on_c, 5, 62, 0
10, 263040, Control_c, 5, 11, 96
10, 263520, Note_on_c, 5, 62, 64
10, 263520, Control_c, 5, 11, 96
10, 263520, Note_on_c, 5, 54, 64
10, 263573, Control_c, 5, 11, 99
10, 263627, Control_c, 5, 11, 103
10, 263680, Control_c, 5, 11, 106
10, 263733, Control_c, 5, 11, 110
10, 263787, Control_c, 5, 11, 113
10, 263840, Control_c, 5, 11, 117
10, 263893, Control_c, 5, 11, 120
10, 263947, Control_c, 5, 11, 124
10, 264000, Control_c, 5, 11, 127
10, 264053, Control_c, 5, 11, 124
10, 264107, Control_c, 5, 11, 120
10, 264119, Note_on_c, 5, 62, 0
10, 264119, Note_on_c, 5, 54, 0
10, 264120, Note_on_c, 5, 57, 64
10, 264120, Note_on_c, 5, 64, 64
10, 264160, Control_c, 5, 11, 117
10, 264213, Control_c, 5, 11, 113
10, 264239, Note_on_c, 5, 57, 0
10, 264239, Note_on_c, 5, 64, 0
10, 264240, Note_on_c, 5, 54, 64
10, 264240, Note_on_c, 5, 62, 64
10, 264267, Control_c, 5, 11, 110
10, 264320, Control_c, 5, 11, 106
10, 264373, Control_c, 5, 11, 103
10, 264427, Control_c, 5, 11, 99
10, 264479, Note_on_c, 5, 54, 0
10, 264479, Note_on_c, 5, 62, 0
10, 264480, Control_c, 5, 11, 96
10, 264720, Control_c, 5, 11, 127
10, 264960, Note_on_c, 5, 62, 48
10, 264960, Note_on_c, 5, 54, 48
10, 265439, Note_on_c, 5, 62, 0
10, 265439, Note_on_c, 5, 54, 0
10, 265440, Note_on_c, 5, 57, 48
10, 265440, Note_on_c, 5, 64, 48
10, 265679, Note_on_c, 5, 57, 0
10, 265679, Note_on_c, 5, 64, 0
10, 265680, Note_on_c, 5, 62, 48
10, 265680, Note_on_c, 5, 66, 48
10, 265919, Note_on_c, 5, 62, 0
10, 265919, Note_on_c, 5, 66, 0
10, 265920, Note_on_c, 5, 67, 48
10, 265920, Note_on_c, 5, 64, 48
10, 266139, Note_on_c, 5, 67, 0
10, 266139, Note_on_c, 5, 64, 0
10, 266160, Note_on_c, 5, 66, 48
10, 266160, Note_on_c, 5, 62, 48
10, 266339, Note_on_c, 5, 66, 0
10, 266339, Note_on_c, 5, 62, 0
10, 266400, Note_on_c, 5, 64, 48
10, 266400, Note_on_c, 5, 57, 48
10, 266639, Note_on_c, 5, 64, 0
10, 266639, Note_on_c, 5, 57, 0
10, 267600, Control_c, 5, 11, 96
10, 267840, Note_on_c, 5, 64, 64
10, 267840, Note_on_c, 5, 57, 64
10, 267893, Control_c, 5, 11, 99
10, 267947, Control_c, 5, 11, 103
10, 268000, Control_c, 5, 11, 106
10, 268053, Control_c, 5, 11, 110
10, 268107, Control_c, 5, 11, 113
10, 268160, Control_c, 5, 11, 117
10, 268213, Control_c, 5, 11, 120
10, 268267, Control_c, 5, 11, 124
10, 268320, Control_c, 5, 11, 127
10, 268373, Control_c, 5, 11, 124
10, 268427, Control_c, 5, 11, 120
10, 268439, Note_on_c, 5, 64, 0
10, 268440, Note_on_c, 5, 66, 64
10, 268480, Control_c, 5, 11, 117
10, 268533, Control_c, 5, 11, 113
10, 268559, Note_on_c, 5, 66, 0
10, 268560, Note_on_c, 5, 64, 64
10, 268587, Control_c, 5, 11, 110
10, 268640, Control_c, 5, 11, 106
10, 268693, Control_c, 5, 11, 103
10, 268747, Control_c, 5, 11, 99
10, 268799, Note_on_c, 5, 57, 0
10, 268799, Note_on_c, 5, 64, 0
10, 268800, Control_c, 5, 11, 96
10, 269280, Note_on_c, 5, 64, 64
10, 269280, Note_on_c, 5, 57, 64
10, 269333, Control_c, 5, 11, 99
10, 269387, Control_c, 5, 11, 103
10, 269440, Control_c, 5, 11, 106
10, 269493, Control_c, 5, 11, 110
10, 269547, Control_c, 5, 11, 113
10, 269600, Control_c, 5, 11, 117
10, 269653, Control_c, 5, 11, 120
10, 269707, Control_c, 5, 11, 124
10, 269760, Control_c, 5, 11, 127
10, 269813, Control_c, 5, 11, 124
10, 269867, Control_c, 5, 11, 120
10, 269879, Note_on_c, 5, 64, 0
10, 269880, Note_on_c, 5, 66, 64
10, 269920, Control_c, 5, 11, 117
10, 269973, Control_c, 5, 11, 113
10, 269999, Note_on_c, 5, 66, 0
10, 270000, Note_on_c, 5, 64, 64
10, 270027, Control_c, 5, 11, 110
10, 270080, Control_c, 5, 11, 106
10, 270133, Control_c, 5, 11, 103
10, 270187, Control_c, 5, 11, 99
10, 270239, Note_on_c, 5, 57, 0
10, 270239, Note_on_c, 5, 64, 0
10, 270240, Control_c, 5, 11, 96
10, 270480, Control_c, 5, 11, 127
10, 270720, Note_on_c, 5, 64, 48
10, 270720, Note_on_c, 5, 57, 48
10, 271199, Note_on_c, 5, 64, 0
10, 271199, Note_on_c, 5, 57, 0
10, 271200, Note_on_c, 5, 66, 48
10, 271200, Note_on_c, 5, 62, 48
10, 271439, Note_on_c, 5, 66, 0
10, 271439, Note_on_c, 5, 62, 0
10, 271440, Note_on_c, 5, 69, 48
10, 271440, Note_on_c, 5, 66, 48
10, 271679, Note_on_c, 5, 69, 0
10, 271679, Note_on_c, 5, 66, 0
10, 271680, Note_on_c, 5, 67, 48
10, 271680, Note_on_c, 5, 64, 48
10, 271899, Note_on_c, 5, 67, 0
10, 271899, Note_on_c, 5, 64, 0
10, 271920, Note_on_c, 5, 64, 48
10, 271920, Note_on_c, 5, 57, 48
10, 272099, Note_on_c, 5, 64, 0
10, 272099, Note_on_c, 5, 57, 0
10, 272160, Note_on_c, 5, 62, 48
10, 272160, Note_on_c, 5, 54, 48
10, 272399, Note_on_c, 5, 62, 0
10, 272399, Note_on_c, 5, 54, 0
10, 272880, Control_c, 5, 11, 96
10, 273600, Note_on_c, 5, 54, 68
10, 273600, Control_c, 5, 11, 96
10, 273600, Note_on_c, 5, 62, 68
10, 273653, Control_c, 5, 11, 99
10, 273707, Control_c, 5, 11, 103
10, 273760, Control_c, 5, 11, 106
10, 273813, Control_c, 5, 11, 110
10, 273867, Control_c, 5, 11, 113
10, 273920, Control_c, 5, 11, 117
10, 273973, Control_c, 5, 11, 120
10, 274027, Control_c, 5, 11, 124
10, 274080, Control_c, 5, 11, 127
10, 274133, Control_c, 5, 11, 124
10, 274187, Control_c, 5, 11, 120
10, 274199, Note_on_c, 5, 54, 0
10, 274199, Note_on_c, 5, 62, 0
10, 274200, Note_on_c, 5, 57, 68
10, 274200, Note_on_c, 5, 64, 68
10, 274240, Control_c, 5, 11, 117
10, 274293, Control_c, 5, 11, 113
10, 274319, Note_on_c, 5, 57, 0
10, 274319, Note_on_c, 5, 64, 0
10, 274320, Note_on_c, 5, 54, 68
10, 274320, Note_on_c, 5, 62, 68
10, 274347, Control_c, 5, 11, 110
10, 274400, Control_c, 5, 11, 106
10, 274453, Control_c, 5, 11, 103
10, 274507, Control_c, 5, 11, 99
10, 274559, Note_on_c, 5, 54, 0
10, 274559, Note_on_c, 5, 62, 0
10, 274560, Control_c, 5, 11, 96
10, 275040, Note_on_c, 5, 54, 68
10, 275040, Note_on_c, 5, 62, 68
10, 275093, Control_c, 5, 11, 99
10, 275147, Control_c, 5, 11, 103
10, 275200, Control_c, 5, 11, 106
10, 275253, Control_c, 5, 11, 110
10, 275307, Control_c, 5, 11, 113
10, 275360, Control_c, 5, 11, 117
10, 275413, Control_c, 5, 11, 120
10, 275467, Control_c, 5, 11, 124
10, 275520, Control_c, 5, 11, 127
10, 275573, Control_c, 5, 11, 124
10, 275627, Control_c, 5, 11, 120
10, 275639, Note_on_c, 5, 54, 0
10, 275639, Note_on_c, 5, 62, 0
10, 275640, Note_on_c, 5, 64, 68
10, 275640, Note_on_c, 5, 57, 68
10, 275680, Control_c, 5, 11, 117
10, 275733, Control_c, 5, 11, 113
10, 275759, Note_on_c, 5, 64, 0
10, 275759, Note_on_c, 5, 57, 0
10, 275760, Note_on_c, 5, 62, 68
10, 275760, Note_on_c, 5, 54, 68
10, 275787, Control_c, 5, 11, 110
10, 275840, Control_c, 5, 11, 106
10, 275893, Control_c, 5, 11, 103
10, 275947, Control_c, 5, 11, 99
10, 275999, Note_on_c, 5, 62, 0
10, 275999, Note_on_c, 5, 54, 0
10, 276000, Control_c, 5, 11, 96
10, 276240, Control_c, 5, 11, 127
10, 276480, Note_on_c, 5, 62, 52
10, 276480, Note_on_c, 5, 54, 52
10, 276959, Note_on_c, 5, 62, 0
10, 276959, Note_on_c, 5, 54, 0
10, 276960, Note_on_c, 5, 57, 52
10, 276960, Note_on_c, 5, 64, 52
10, 277199, Note_on_c, 5, 57, 0
10, 277199, Note_on_c, 5, 64, 0
10, 277200, Note_on_c, 5, 62, 52
10, 277200, Note_on_c, 5, 66, 52
10, 277439, Note_on_c, 5, 62, 0
10, 277439, Note_on_c, 5, 66, 0
10, 277440, Note_on_c, 5, 64, 52
10, 277440, Note_on_c, 5, 67, 52
10, 277659, Note_on_c, 5, 64, 0
10, 277659, Note_on_c, 5, 67, 0
10, 277680, Note_on_c, 5, 62, 52
10, 277680, Note_on_c, 5, 66, 52
10, 277859, Note_on_c, 5, 62, 0
10, 277859, Note_on_c, 5, 66, 0
10, 277920, Note_on_c, 5, 64, 52
10, 277920, Note_on_c, 5, 57, 52
10, 278159, Note_on_c, 5, 64, 0
10, 278159, Note_on_c, 5, 57, 0
10, 278640, Control_c, 5, 11, 96
10, 279360, Note_on_c, 5, 57, 68
10, 279360, Note_on_c, 5, 64, 68
10, 279413, Control_c, 5, 11, 99
10, 279467, Control_c, 5, 11, 103
10, 279520, Control_c, 5, 11, 106
10, 279573, Control_c, 5, 11, 110
10, 279627, Control_c, 5, 11, 113
10, 279680, Control_c, 5, 11, 117
10, 279733, Control_c, 5, 11, 120
10, 279787, Control_c, 5, 11, 124
10, 279840, Control_c, 5, 11, 127
10, 279893, Control_c, 5, 11, 124
10, 279947, Control_c, 5, 11, 120
10, 279959, Note_on_c, 5, 64, 0
10, 279960, Note_on_c, 5, 66, 68
10, 280000, Control_c, 5, 11, 117
10, 280053, Control_c, 5, 11, 113
10, 280079, Note_on_c, 5, 66, 0
10, 280080, Note_on_c, 5, 64, 68
10, 280107, Control_c, 5, 11, 110
10, 280160, Control_c, 5, 11, 106
10, 280213, Control_c, 5, 11, 103
10, 280267, Control_c, 5, 11, 99
10, 280319, Note_on_c, 5, 57, 0
10, 280319, Note_on_c, 5, 64, 0
10, 280320, Control_c, 5, 11, 96
10, 280800, Note_on_c, 5, 57, 68
10, 280800, Note_on_c, 5, 64, 68
10, 280853, Control_c, 5, 11, 99
10, 280907, Control_c, 5, 11, 103
10, 280960, Control_c, 5, 11, 106
10, 281013, Control_c, 5, 11, 110
10, 281067, Control_c, 5, 11, 113
10, 281120, Control_c, 5, 11, 117
10, 281173, Control_c, 5, 11, 120
10, 281227, Control_c, 5, 11, 124
10, 281280, Control_c, 5, 11, 127
10, 281333, Control_c, 5, 11, 124
10, 281387, Control_c, 5, 11, 120
10, 281399, Note_on_c, 5, 64, 0
10, 281400, Note_on_c, 5, 66, 68
10, 281440, Control_c, 5, 11, 117
10, 281493, Control_c, 5, 11, 113
10, 281519, Note_on_c, 5, 66, 0
10, 281520, Note_on_c, 5, 64, 68
10, 281547, Control_c, 5, 11, 110
10, 281600, Control_c, 5, 11, 106
10, 281653, Control_c, 5, 11, 103
10, 281707, Control_c, 5, 11, 99
10, 281759, Note_on_c, 5, 57, 0
10, 281759, Note_on_c, 5, 64, 0
10, 281760, Control_c, 5, 11, 96
10, 282000, Control_c, 5, 11, 127
10, 282240, Note_on_c, 5, 64, 52
10, 282240, Note_on_c, 5, 57, 52
10, 282719, Note_on_c, 5, 64, 0
10, 282719, Note_on_c, 5, 57, 0
10, 282720, Note_on_c, 5, 62, 52
10, 282720, Note_on_c, 5, 66, 52
10, 282959, Note_on_c, 5, 62, 0
10, 282959, Note_on_c, 5, 66, 0
10, 282960, Note_on_c, 5, 66, 52
10, 282960, Note_on_c, 5, 69, 52
10, 283199, Note_on_c, 5, 66, 0
10, 283199, Note_on_c, 5, 69, 0
10, 283200, Note_on_c, 5, 64, 52
10, 283200, Note_on_c, 5, 67, 52
10, 283419, Note_on_c, 5, 64, 0
10, 283419, Note_on_c, 5, 67, 0
10, 283440, Note_on_c, 5, 57, 52
10, 283440, Note_on_c, 5, 64, 52
10, 283619, Note_on_c, 5, 57, 0
10, 283619, Note_on_c, 5, 64, 0
10, 283680, Note_on_c, 5, 62, 52
10, 283680, Note_on_c, 5, 54, 52
10, 283919, Note_on_c, 5, 62, 0
10, 283919, Note_on_c, 5, 54, 0
10, 285120, Note_on_c, 5, 45, 48
10, 285719, Note_on_c, 5, 45, 0
10, 285720, Note_on_c, 5, 44, 48
10, 285839, Note_on_c, 5, 44, 0
10, 285840, Note_on_c, 5, 45, 48
10, 286079, Note_on_c, 5, 45, 0
10, 286560, Note_on_c, 5, 45, 48
10, 287159, Note_on_c, 5, 45, 0
10, 287160, Note_on_c, 5, 44, 48
10, 287279, Note_on_c, 5, 44, 0
10, 287280, Note_on_c, 5, 45, 48
10, 287519, Note_on_c, 5, 45, 0
10, 288000, Note_on_c, 5, 45, 48
10, 288599, Note_on_c, 5, 45, 0
10, 288600, Note_on_c, 5, 44, 48
10, 288719, Note_on_c, 5, 44, 0
10, 288720, Note_on_c, 5, 45, 48
10, 288959, Note_on_c, 5, 45, 0
10, 289440, Note_on_c, 5, 45, 48
10, 290039, Note_on_c, 5, 45, 0
10, 290040, Note_on_c, 5, 44, 48
10, 290159, Note_on_c, 5, 44, 0
10, 290160, Note_on_c, 5, 45, 48
10, 290399, Note_on_c, 5, 45, 0
10, 290880, Note_on_c, 5, 45, 48
10, 291479, Note_on_c, 5, 45, 0
10, 291480, Note_on_c, 5, 44, 48
10, 291599, Note_on_c, 5, 44, 0
10, 291600, Note_on_c, 5, 45, 48
10, 291839, Note_on_c, 5, 45, 0
10, 292320, Note_on_c, 5, 45, 48
10, 292919, Note_on_c, 5, 45, 0
10, 292920, Note_on_c, 5, 44, 48
10, 293039, Note_on_c, 5, 44, 0
10, 293040, Note_on_c, 5, 45, 48
10, 293279, Note_on_c, 5, 45, 0
10, 293760, Note_on_c, 5, 45, 48
10, 294359, Note_on_c, 5, 45, 0
10, 294360, Note_on_c, 5, 44, 48
10, 294479, Note_on_c, 5, 44, 0
10, 294480, Note_on_c, 5, 45, 48
10, 294719, Note_on_c, 5, 45, 0
10, 295200, Note_on_c, 5, 45, 48
10, 295799, Note_on_c, 5, 45, 0
10, 295800, Note_on_c, 5, 44, 48
10, 295919, Note_on_c, 5, 44, 0
10, 295920, Note_on_c, 5, 45, 48
10, 296159, Note_on_c, 5, 45, 0
10, 296640, Note_on_c, 5, 45, 48
10, 297239, Note_on_c, 5, 45, 0
10, 297240, Note_on_c, 5, 44, 48
10, 297359, Note_on_c, 5, 44, 0
10, 297360, Note_on_c, 5, 45, 48
10, 297599, Note_on_c, 5, 45, 0
10, 297840, Control_c, 5, 11, 64
10, 298080, Note_on_c, 5, 45, 84
10, 298171, Control_c, 5, 11, 65
10, 298263, Control_c, 5, 11, 66
10, 298299, Note_on_c, 5, 45, 0
10, 298320, Note_on_c, 5, 44, 84
10, 298354, Control_c, 5, 11, 67
10, 298446, Control_c, 5, 11, 68
10, 298537, Control_c, 5, 11, 69
10, 298559, Note_on_c, 5, 44, 0
10, 298560, Note_on_c, 5, 45, 84
10, 298629, Control_c, 5, 11, 70
10, 298679, Note_on_c, 5, 45, 0
10, 298720, Control_c, 5, 11, 71
10, 298800, Note_on_c, 5, 44, 84
10, 298811, Control_c, 5, 11, 72
10, 298903, Control_c, 5, 11, 73
10, 298994, Control_c, 5, 11, 74
10, 299039, Note_on_c, 5, 44, 0
10, 299040, Note_on_c, 5, 45, 84
10, 299086, Control_c, 5, 11, 75
10, 299159, Note_on_c, 5, 45, 0
10, 299177, Control_c, 5, 11, 76
10, 299269, Control_c, 5, 11, 77
10, 299280, Note_on_c, 5, 44, 84
10, 299360, Control_c, 5, 11, 78
10, 299451, Control_c, 5, 11, 79
10, 299519, Note_on_c, 5, 44, 0
10, 299520, Note_on_c, 5, 45, 84
10, 299543, Control_c, 5, 11, 80
10, 299634, Control_c, 5, 11, 81
10, 299639, Note_on_c, 5, 45, 0
10, 299726, Control_c, 5, 11, 82
10, 299760, Note_on_c, 5, 44, 84
10, 299817, Control_c, 5, 11, 83
10, 299909, Control_c, 5, 11, 84
10, 299999, Note_on_c, 5, 44, 0
10, 300000, Note_on_c, 5, 45, 84
10, 300000, Control_c, 5, 11, 85
10, 300091, Control_c, 5, 11, 86
10, 300119, Note_on_c, 5, 45, 0
10, 300183, Control_c, 5, 11, 87
10, 300240, Note_on_c, 5, 44, 84
10, 300274, Control_c, 5, 11, 88
10, 300366, Control_c, 5, 11, 89
10, 300457, Control_c, 5, 11, 90
10, 300479, Note_on_c, 5, 44, 0
10, 300480, Note_on_c, 5, 45, 84
10, 300549, Control_c, 5, 11, 91
10, 300599, Note_on_c, 5, 45, 0
10, 300640, Control_c, 5, 11, 92
10, 300720, Note_on_c, 5, 44, 84
10, 300731, Control_c, 5, 11, 93
10, 300823, Control_c, 5, 11, 94
10, 300914, Control_c, 5, 11, 95
10, 300959, Note_on_c, 5, 44, 0
10, 300960, Note_on_c, 5, 45, 84
10, 301006, Control_c, 5, 11, 96
10, 301079, Note_on_c, 5, 45, 0
10, 301097, Control_c, 5, 11, 97
10, 301189, Control_c, 5, 11, 98
10, 301200, Note_on_c, 5, 44, 84
10, 301280, Control_c, 5, 11, 99
10, 301371, Control_c, 5, 11, 100
10, 301439, Note_on_c, 5, 44, 0
10, 301440, Note_on_c, 5, 45, 84
10, 301463, Control_c, 5, 11, 101
10, 301554, Control_c, 5, 11, 102
10, 301559, Note_on_c, 5, 45, 0
10, 301646, Control_c, 5, 11, 103
10, 301680, Note_on_c, 5, 44, 84
10, 301737, Control_c, 5, 11, 104
10, 301829, Control_c, 5, 11, 105
10, 301919, Note_on_c, 5, 44, 0
10, 301920, Control_c, 5, 11, 106
10, 301920, Note_on_c, 5, 45, 84
10, 302011, Control_c, 5, 11, 107
10, 302039, Note_on_c, 5, 45, 0
10, 302103, Control_c, 5, 11, 108
10, 302160, Note_on_c, 5, 44, 84
10, 302194, Control_c, 5, 11, 109
10, 302286, Control_c, 5, 11, 110
10, 302377, Control_c, 5, 11, 111
10, 302399, Note_on_c, 5, 44, 0
10, 302400, Note_on_c, 5, 45, 84
10, 302469, Control_c, 5, 11, 112
10, 302519, Note_on_c, 5, 45, 0
10, 302560, Control_c, 5, 11, 113
10, 302640, Note_on_c, 5, 44, 84
10, 302640, Note_on_c, 5, 57, 84
10, 302651, Control_c, 5, 11, 114
10, 302743, Control_c, 5, 11, 115
10, 302834, Control_c, 5, 11, 116
10, 302879, Note_on_c, 5, 44, 0
10, 302880, Note_on_c, 5, 45, 84
10, 302926, Control_c, 5, 11, 117
10, 302999, Note_on_c, 5, 45, 0
10, 303017, Control_c, 5, 11, 118
10, 303099, Note_on_c, 5, 57, 0
10, 303109, Control_c, 5, 11, 119
10, 303120, Note_on_c, 5, 44, 84
10, 303120, Note_on_c, 5, 57, 84
10, 303200, Control_c, 5, 11, 120
10, 303291, Control_c, 5, 11, 121
10, 303359, Note_on_c, 5, 44, 0
10, 303360, Note_on_c, 5, 45, 84
10, 303383, Control_c, 5, 11, 122
10, 303474, Control_c, 5, 11, 123
10, 303479, Note_on_c, 5, 45, 0
10, 303566, Control_c, 5, 11, 124
10, 303579, Note_on_c, 5, 57, 0
10, 303600, Note_on_c, 5, 57, 84
10, 303600, Note_on_c, 5, 45, 84
10, 303657, Control_c, 5, 11, 125
10, 303749, Control_c, 5, 11, 127
10, 303819, Note_on_c, 5, 57, 0
10, 303819, Note_on_c, 5, 45, 0
10, 303840, Note_on_c, 5, 62, 84
10, 303840, Note_on_c, 5, 54, 84
10, 304439, Note_on_c, 5, 62, 0
10, 304439, Note_on_c, 5, 54, 0
10, 304440, Note_on_c, 5, 64, 84
10, 304440, Note_on_c, 5, 57, 84
10, 304559, Note_on_c, 5, 64, 0
10, 304559, Note_on_c, 5, 57, 0
10, 304560, Note_on_c, 5, 62, 84
10, 304560, Note_on_c, 5, 54, 84
10, 304799, Note_on_c, 5, 62, 0
10, 304799, Note_on_c, 5, 54, 0
10, 305280, Note_on_c, 5, 62, 84
10, 305280, Note_on_c, 5, 54, 84
10, 305879, Note_on_c, 5, 62, 0
10, 305879, Note_on_c, 5, 54, 0
10, 305880, Note_on_c, 5, 57, 84
10, 305880, Note_on_c, 5, 64, 84
10, 305999, Note_on_c, 5, 57, 0
10, 305999, Note_on_c, 5, 64, 0
10, 306000, Note_on_c, 5, 62, 84
10, 306000, Note_on_c, 5, 54, 84
10, 306239, Note_on_c, 5, 62, 0
10, 306239, Note_on_c, 5, 54, 0
10, 306720, Note_on_c, 5, 62, 84
10, 306720, Note_on_c, 5, 54, 84
10, 307199, Note_on_c, 5, 62, 0
10, 307199, Note_on_c, 5, 54, 0
10, 307200, Note_on_c, 5, 64, 84
10, 307200, Note_on_c, 5, 57, 84
10, 307439, Note_on_c, 5, 64, 0
10, 307439, Note_on_c, 5, 57, 0
10, 307440, Note_on_c, 5, 62, 84
10, 307440, Note_on_c, 5, 66, 84
10, 307679, Note_on_c, 5, 62, 0
10, 307679, Note_on_c, 5, 66, 0
10, 307680, Note_on_c, 5, 57, 84
10, 307680, Note_on_c, 5, 64, 84
10, 307899, Note_on_c, 5, 57, 0
10, 307899, Note_on_c, 5, 64, 0
10, 307920, Note_on_c, 5, 62, 84
10, 307920, Note_on_c, 5, 66, 84
10, 308099, Note_on_c, 5, 62, 0
10, 308099, Note_on_c, 5, 66, 0
10, 308160, Note_on_c, 5, 64, 84
10, 308160, Note_on_c, 5, 57, 84
10, 308399, Note_on_c, 5, 64, 0
10, 308399, Note_on_c, 5, 57, 0
10, 309600, Note_on_c, 5, 67, 84
10, 310199, Note_on_c, 5, 67, 0
10, 310200, Note_on_c, 5, 66, 84
10, 310319, Note_on_c, 5, 66, 0
10, 310320, Note_on_c, 5, 67, 84
10, 310559, Note_on_c, 5, 67, 0
10, 311040, Note_on_c, 5, 67, 84
10, 311639, Note_on_c, 5, 67, 0
10, 311640, Note_on_c, 5, 66, 84
10, 311759, Note_on_c, 5, 66, 0
10, 311760, Note_on_c, 5, 67, 84
10, 311999, Note_on_c, 5, 67, 0
10, 312480, Note_on_c, 5, 67, 84
10, 312959, Note_on_c, 5, 67, 0
10, 312960, Note_on_c, 5, 66, 84
10, 313199, Note_on_c, 5, 66, 0
10, 313200, Note_on_c, 5, 69, 84
10, 313439, Note_on_c, 5, 69, 0
10, 313440, Note_on_c, 5, 67, 84
10, 313659, Note_on_c, 5, 67, 0
10, 313680, Note_on_c, 5, 64, 84
10, 313859, Note_on_c, 5, 64, 0
10, 313920, Note_on_c, 5, 62, 84
10, 314159, Note_on_c, 5, 62, 0
10, 314640, Note_on_c, 5, 57, 76
10, 314640, Note_on_c, 5, 69, 76
10, 314759, Note_on_c, 5, 57, 0
10, 314759, Note_on_c, 5, 69, 0
10, 314760, Note_on_c, 5, 69, 52
10, 314760, Note_on_c, 5, 57, 52
10, 314859, Note_on_c, 5, 69, 0
10, 314859, Note_on_c, 5, 57, 0
10, 314880, Note_on_c, 5, 66, 52
10, 314880, Note_on_c, 5, 54, 52
10, 315099, Note_on_c, 5, 66, 0
10, 315099, Note_on_c, 5, 54, 0
10, 315120, Note_on_c, 5, 50, 52
10, 315120, Note_on_c, 5, 62, 52
10, 315339, Note_on_c, 5, 50, 0
10, 315339, Note_on_c, 5, 62, 0
10, 315360, Note_on_c, 5, 45, 48
10, 315959, Note_on_c, 5, 45, 0
10, 315960, Note_on_c, 5, 44, 48
10, 316079, Note_on_c, 5, 44, 0
10, 316080, Note_on_c, 5, 45, 48
10, 316319, Note_on_c, 5, 45, 0
10, 316800, Note_on_c, 5, 45, 48
10, 317399, Note_on_c, 5, 45, 0
10, 317400, Note_on_c, 5, 44, 48
10, 317519, Note_on_c, 5, 44, 0
10, 317520, Note_on_c, 5, 45, 48
10, 317759, Note_on_c, 5, 45, 0
10, 318240, Note_on_c, 5, 45, 48
10, 318839, Note_on_c, 5, 45, 0
10, 318840, Note_on_c, 5, 44, 48
10, 318959, Note_on_c, 5, 44, 0
10, 318960, Note_on_c, 5, 45, 48
10, 319199, Note_on_c, 5, 45, 0
10, 319680, Note_on_c, 5, 45, 48
10, 320279, Note_on_c, 5, 45, 0
10, 320280, Note_on_c, 5, 44, 48
10, 320399, Note_on_c, 5, 44, 0
10, 320400, Note_on_c, 5, 45, 48
10, 320639, Note_on_c, 5, 45, 0
10, 321120, Note_on_c, 5, 45, 48
10, 321719, Note_on_c, 5, 45, 0
10, 321720, Note_on_c, 5, 44, 48
10, 321839, Note_on_c, 5, 44, 0
10, 321840, Note_on_c, 5, 45, 48
10, 322079, Note_on_c, 5, 45, 0
10, 322560, Note_on_c, 5, 45, 48
10, 323159, Note_on_c, 5, 45, 0
10, 323160, Note_on_c, 5, 44, 48
10, 323279, Note_on_c, 5, 44, 0
10, 323280, Note_on_c, 5, 45, 48
10, 323519, Note_on_c, 5, 45, 0
10, 324000, Note_on_c, 5, 45, 48
10, 324599, Note_on_c, 5, 45, 0
10, 324600, Note_on_c, 5, 44, 48
10, 324719, Note_on_c, 5, 44, 0
10, 324720, Note_on_c, 5, 45, 48
10, 324959, Note_on_c, 5, 45, 0
10, 325440, Note_on_c, 5, 45, 48
10, 326039, Note_on_c, 5, 45, 0
10, 326040, Note_on_c, 5, 44, 48
10, 326159, Note_on_c, 5, 44, 0
10, 326160, Note_on_c, 5, 45, 48
10, 326399, Note_on_c, 5, 45, 0
10, 326880, Note_on_c, 5, 45, 48
10, 327479, Note_on_c, 5, 45, 0
10, 327480, Note_on_c, 5, 44, 48
10, 327599, Note_on_c, 5, 44, 0
10, 327600, Note_on_c, 5, 45, 48
10, 327839, Note_on_c, 5, 45, 0
10, 328080, Control_c, 5, 11, 64
10, 328320, Note_on_c, 5, 45, 84
10, 328411, Control_c, 5, 11, 65
10, 328503, Control_c, 5, 11, 66
10, 328539, Note_on_c, 5, 45, 0
10, 328560, Note_on_c, 5, 44, 84
10, 328594, Control_c, 5, 11, 67
10, 328686, Control_c, 5, 11, 68
10, 328777, Control_c, 5, 11, 69
10, 328799, Note_on_c, 5, 44, 0
10, 328800, Note_on_c, 5, 45, 84
10, 328869, Control_c, 5, 11, 70
10, 328919, Note_on_c, 5, 45, 0
10, 328960, Control_c, 5, 11, 71
10, 329040, Note_on_c, 5, 44, 84
10, 329051, Control_c, 5, 11, 72
10, 329143, Control_c, 5, 11, 73
10, 329234, Control_c, 5, 11, 74
10, 329279, Note_on_c, 5, 44, 0
10, 329280, Note_on_c, 5, 45, 84
10, 329326, Control_c, 5, 11, 75
10, 329399, Note_on_c, 5, 45, 0
10, 329417, Control_c, 5, 11, 76
10, 329509, Control_c, 5, 11, 77
10, 329520, Note_on_c, 5, 44, 84
10, 329600, Control_c, 5, 11, 78
10, 329691, Control_c, 5, 11, 79
10, 329759, Note_on_c, 5, 44, 0
10, 329760, Note_on_c, 5, 45, 84
10, 329783, Control_c, 5, 11, 80
10, 329874, Control_c, 5, 11, 81
10, 329879, Note_on_c, 5, 45, 0
10, 329966, Control_c, 5, 11, 82
10, 330000, Note_on_c, 5, 44, 84
10, 330057, Control_c, 5, 11, 83
10, 330149, Control_c, 5, 11, 84
10, 330239, Note_on_c, 5, 44, 0
10, 330240, Control_c, 5, 11, 85
10, 330240, Note_on_c, 5, 45, 84
10, 330331, Control_c, 5, 11, 86
10, 330359, Note_on_c, 5, 45, 0
10, 330423, Control_c, 5, 11, 87
10, 330480, Note_on_c, 5, 44, 84
10, 330514, Control_c, 5, 11, 88
10, 330606, Control_c, 5, 11, 89
10, 330697, Control_c, 5, 11, 90
10, 330719, Note_on_c, 5, 44, 0
10, 330720, Note_on_c, 5, 45, 84
10, 330789, Control_c, 5, 11, 91
10, 330839, Note_on_c, 5, 45, 0
10, 330880, Control_c, 5, 11, 92
10, 330960, Note_on_c, 5, 44, 84
10, 330971, Control_c, 5, 11, 93
10, 331063, Control_c, 5, 11, 94
10, 331154, Control_c, 5, 11, 95
10, 331199, Note_on_c, 5, 44, 0
10, 331200, Note_on_c, 5, 45, 84
10, 331246, Control_c, 5, 11, 96
10, 331319, Note_on_c, 5, 45, 0
10, 331337, Control_c, 5, 11, 97
10, 331429, Control_c, 5, 11, 98
10, 331440, Note_on_c, 5, 44, 84
10, 331520, Control_c, 5, 11, 99
10, 331611, Control_c, 5, 11, 100
10, 331679, Note_on_c, 5, 44, 0
10, 331680, Note_on_c, 5, 45, 84
10, 331703, Control_c, 5, 11, 101
10, 331794, Control_c, 5, 11, 102
10, 331799, Note_on_c, 5, 45, 0
10, 331886, Control_c, 5, 11, 103
10, 331920, Note_on_c, 5, 44, 84
10, 331977, Control_c, 5, 11, 104
10, 332069, Control_c, 5, 11, 105
10, 332159, Note_on_c, 5, 44, 0
10, 332160, Control_c, 5, 11, 106
10, 332160, Note_on_c, 5, 45, 84
10, 332251, Control_c, 5, 11, 107
10, 332279, Note_on_c, 5, 45, 0
10, 332343, Control_c, 5, 11, 108
10, 332400, Note_on_c, 5, 44, 84
10, 332434, Control_c, 5, 11, 109
10, 332526, Control_c, 5, 11, 110
10, 332617, Control_c, 5, 11, 111
10, 332639, Note_on_c, 5, 44, 0
10, 332640, Note_on_c, 5, 45, 84
10, 332709, Control_c, 5, 11, 112
10, 332759, Note_on_c, 5, 45, 0
10, 332800, Control_c, 5, 11, 113
10, 332880, Note_on_c, 5, 57, 84
10, 332880, Note_on_c, 5, 44, 84
10, 332891, Control_c, 5, 11, 114
10, 332983, Control_c, 5, 11, 115
10, 333074, Control_c, 5, 11, 116
10, 333119, Note_on_c, 5, 44, 0
10, 333120, Note_on_c, 5, 45, 84
10, 333166, Control_c, 5, 11, 117
10, 333239, Note_on_c, 5, 45, 0
10, 333257, Control_c, 5, 11, 118
10, 333339, Note_on_c, 5, 57, 0
10, 333349, Control_c, 5, 11, 119
10, 333360, Note_on_c, 5, 57, 84
10, 333360, Note_on_c, 5, 44, 84
10, 333440, Control_c, 5, 11, 120
10, 333531, Control_c, 5, 11, 121
10, 333599, Note_on_c, 5, 44, 0
10, 333600, Note_on_c, 5, 45, 84
10, 333623, Control_c, 5, 11, 122
10, 333714, Control_c, 5, 11, 123
10, 333719, Note_on_c, 5, 45, 0
10, 333806, Control_c, 5, 11, 124
10, 333819, Note_on_c, 5, 57, 0
10, 333840, Note_on_c, 5, 57, 84
10, 333840, Note_on_c, 5, 45, 84
10, 333897, Control_c, 5, 11, 125
10, 333989, Control_c, 5, 11, 127
10, 334059, Note_on_c, 5, 57, 0
10, 334059, Note_on_c, 5, 45, 0
10, 334080, Note_on_c, 5, 62, 84
10, 334080, Note_on_c, 5, 54, 84
10, 334679, Note_on_c, 5, 62, 0
10, 334679, Note_on_c, 5, 54, 0
10, 334680, Note_on_c, 5, 64, 84
10, 334680, Note_on_c, 5, 57, 84
10, 334799, Note_on_c, 5, 64, 0
10, 334799, Note_on_c, 5, 57, 0
10, 334800, Note_on_c, 5, 62, 84
10, 334800, Note_on_c, 5, 54, 84
10, 335039, Note_on_c, 5, 62, 0
10, 335039, Note_on_c, 5, 54, 0
10, 335520, Note_on_c, 5, 62, 84
10, 335520, Note_on_c, 5, 54, 84
10, 336119, Note_on_c, 5, 62, 0
10, 336119, Note_on_c, 5, 54, 0
10, 336120, Note_on_c, 5, 64, 84
10, 336120, Note_on_c, 5, 57, 84
10, 336239, Note_on_c, 5, 64, 0
10, 336239, Note_on_c, 5, 57, 0
10, 336240, Note_on_c, 5, 62, 84
10, 336240, Note_on_c, 5, 54, 84
10, 336479, Note_on_c, 5, 62, 0
10, 336479, Note_on_c, 5, 54, 0
10, 336960, Note_on_c, 5, 62, 84
10, 336960, Note_on_c, 5, 54, 84
10, 337439, Note_on_c, 5, 62, 0
10, 337439, Note_on_c, 5, 54, 0
10, 337440, Note_on_c, 5, 57, 84
10, 337440, Note_on_c, 5, 64, 84
10, 337679, Note_on_c, 5, 57, 0
10, 337679, Note_on_c, 5, 64, 0
10, 337680, Note_on_c, 5, 62, 84
10, 337680, Note_on_c, 5, 66, 84
10, 337919, Note_on_c, 5, 62, 0
10, 337919, Note_on_c, 5, 66, 0
10, 337920, Note_on_c, 5, 57, 84
10, 337920, Note_on_c, 5, 64, 84
10, 338139, Note_on_c, 5, 57, 0
10, 338139, Note_on_c, 5, 64, 0
10, 338160, Note_on_c, 5, 62, 84
10, 338160, Note_on_c, 5, 66, 84
10, 338339, Note_on_c, 5, 62, 0
10, 338339, Note_on_c, 5, 66, 0
10, 338400, Note_on_c, 5, 57, 84
10, 338400, Note_on_c, 5, 64, 84
10, 338639, Note_on_c, 5, 57, 0
10, 338639, Note_on_c, 5, 64, 0
10, 339840, Note_on_c, 5, 67, 84
10, 340439, Note_on_c, 5, 67, 0
10, 340440, Note_on_c, 5, 66, 84
10, 340559, Note_on_c, 5, 66, 0
10, 340560, Note_on_c, 5, 67, 84
10, 340799, Note_on_c, 5, 67, 0
10, 341280, Note_on_c, 5, 67, 84
10, 341879, Note_on_c, 5, 67, 0
10, 341880, Note_on_c, 5, 66, 84
10, 341999, Note_on_c, 5, 66, 0
10, 342000, Note_on_c, 5, 67, 84
10, 342239, Note_on_c, 5, 67, 0
10, 342720, Note_on_c, 5, 67, 84
10, 343199, Note_on_c, 5, 67, 0
10, 343200, Note_on_c, 5, 66, 84
10, 343439, Note_on_c, 5, 66, 0
10, 343440, Note_on_c, 5, 69, 84
10, 343679, Note_on_c, 5, 69, 0
10, 343680, Note_on_c, 5, 67, 84
10, 343899, Note_on_c, 5, 67, 0
10, 343920, Note_on_c, 5, 64, 84
10, 344099, Note_on_c, 5, 64, 0
10, 344160, Note_on_c, 5, 62, 84
10, 344399, Note_on_c, 5, 62, 0
10, 344880, Note_on_c, 5, 69, 76
10, 344880, Note_on_c, 5, 57, 76
10, 344999, Note_on_c, 5, 69, 0
10, 344999, Note_on_c, 5, 57, 0
10, 345000, Note_on_c, 5, 57, 52
10, 345000, Note_on_c, 5, 69, 52
10, 345099, Note_on_c, 5, 57, 0
10, 345099, Note_on_c, 5, 69, 0
10, 345120, Note_on_c, 5, 54, 52
10, 345120, Note_on_c, 5, 66, 52
10, 345339, Note_on_c, 5, 54, 0
10, 345339, Note_on_c, 5, 66, 0
10, 345360, Note_on_c, 5, 50, 52
10, 345360, Note_on_c, 5, 62, 52
10, 345579, Note_on_c, 5, 50, 0
10, 345579, Note_on_c, 5, 62, 0
10, 345600, Note_on_c, 5, 45, 52
10, 345600, Note_on_c, 5, 57, 52
10, 345839, Note_on_c, 5, 57, 0
10, 346199, Note_on_c, 5, 45, 0
10, 346200, Note_on_c, 5, 44, 52
10, 346319, Note_on_c, 5, 44, 0
10, 346320, Note_on_c, 5, 45, 52
10, 346559, Note_on_c, 5, 45, 0
10, 347040, Control_c, 5, 11, 127
10, 347040, Note_on_c, 5, 45, 52
10, 347424, Control_c, 5, 11, 126
10, 347639, Note_on_c, 5, 45, 0
10, 347640, Note_on_c, 5, 44, 52
10, 347759, Note_on_c, 5, 44, 0
10, 347760, Note_on_c, 5, 45, 52
10, 347808, Control_c, 5, 11, 125
10, 347999, Note_on_c, 5, 45, 0
10, 348192, Control_c, 5, 11, 124
10, 348480, Note_on_c, 5, 45, 52
10, 348576, Control_c, 5, 11, 123
10, 348960, Control_c, 5, 11, 122
10, 349079, Note_on_c, 5, 45, 0
10, 349080, Note_on_c, 5, 44, 52
10, 349199, Note_on_c, 5, 44, 0
10, 349200, Note_on_c, 5, 45, 52
10, 349344, Control_c, 5, 11, 121
10, 349439, Note_on_c, 5, 45, 0
10, 349728, Control_c, 5, 11, 120
10, 349920, Note_on_c, 5, 45, 52
10, 350112, Control_c, 5, 11, 119
10, 350496, Control_c, 5, 11, 118
10, 350519, Note_on_c, 5, 45, 0
10, 350520, Note_on_c, 5, 44, 52
10, 350639, Note_on_c, 5, 44, 0
10, 350640, Note_on_c, 5, 45, 52
10, 350879, Note_on_c, 5, 45, 0
10, 350880, Control_c, 5, 11, 117
10, 351264, Control_c, 5, 11, 116
10, 351360, Note_on_c, 5, 45, 52
10, 351648, Control_c, 5, 11, 115
10, 351959, Note_on_c, 5, 45, 0
10, 351960, Note_on_c, 5, 44, 52
10, 352032, Control_c, 5, 11, 114
10, 352079, Note_on_c, 5, 44, 0
10, 352080, Note_on_c, 5, 45, 52
10, 352319, Note_on_c, 5, 45, 0
10, 352416, Control_c, 5, 11, 112
10, 352800, Note_on_c, 5, 45, 52
10, 353399, Note_on_c, 5, 45, 0
10, 353400, Note_on_c, 5, 44, 52
10, 353519, Note_on_c, 5, 44, 0
10, 353520, Note_on_c, 5, 45, 52
10, 353759, Note_on_c, 5, 45, 0
10, 354960, Control_c, 5, 11, 127
10, 355440, Note_on_c, 5, 57, 76
10, 355544, Note_on_c, 5, 57, 0
10, 355560, Note_on_c, 5, 57, 76
10, 355679, Note_on_c, 5, 57, 0
10, 355800, Note_on_c, 5, 57, 76
10, 355904, Note_on_c, 5, 57, 0
10, 355920, Note_on_c, 5, 57, 76
10, 356039, Note_on_c, 5, 57, 0
10, 356160, Note_on_c, 5, 57, 76
10, 356264, Note_on_c, 5, 57, 0
10, 356280, Note_on_c, 5, 57, 52
10, 356399, Note_on_c, 5, 57, 0
10, 361320, Note_on_c, 5, 64, 76
10, 361664, Note_on_c, 5, 64, 0
10, 361680, Note_on_c, 5, 64, 76
10, 361799, Note_on_c, 5, 64, 0
10, 362040, Note_on_c, 5, 64, 76
10, 362384, Note_on_c, 5, 64, 0
10, 362400, Note_on_c, 5, 64, 76
10, 362519, Note_on_c, 5, 64, 0
10, 362760, Note_on_c, 5, 64, 76
10, 363104, Note_on_c, 5, 64, 0
10, 363120, Note_on_c, 5, 64, 76
10, 363120, Note_on_c, 5, 57, 76
10, 363224, Note_on_c, 5, 64, 0
10, 363224, Note_on_c, 5, 57, 0
10, 363240, Note_on_c, 5, 64, 76
10, 363240, Note_on_c, 5, 57, 76
10, 363344, Note_on_c, 5, 64, 0
10, 363344, Note_on_c, 5, 57, 0
10, 363360, Note_on_c, 5, 57, 76
10, 363360, Note_on_c, 5, 64, 76
10, 363464, Note_on_c, 5, 57, 0
10, 363464, Note_on_c, 5, 64, 0
10, 363480, Note_on_c, 5, 57, 76
10, 363480, Note_on_c, 5, 64, 76
10, 363584, Note_on_c, 5, 57, 0
10, 363584, Note_on_c, 5, 64, 0
10, 363600, Note_on_c, 5, 57, 76
10, 363600, Note_on_c, 5, 45, 76
10, 363704, Note_on_c, 5, 57, 0
10, 363704, Note_on_c, 5, 45, 0
10, 363720, Note_on_c, 5, 45, 76
10, 363720, Note_on_c, 5, 57, 76
10, 363824, Note_on_c, 5, 45, 0
10, 363824, Note_on_c, 5, 57, 0
10, 363840, Note_on_c, 5, 45, 76
10, 363840, Note_on_c, 5, 57, 76
10, 363959, Note_on_c, 5, 45, 0
10, 363959, Note_on_c, 5, 57, 0
10, 369960, Note_on_c, 5, 62, 44
10, 370904, Note_on_c, 5, 62, 0
10, 370920, Note_on_c, 5, 67, 84
10, 371024, Note_on_c, 5, 67, 0
10, 371040, Note_on_c, 5, 67, 84
10, 371159, Note_on_c, 5, 67, 0
10, 376680, Note_on_c, 5, 57, 84
10, 376784, Note_on_c, 5, 57, 0
10, 376800, Note_on_c, 5, 57, 84
10, 376919, Note_on_c, 5, 57, 0
10, 387120, Note_on_c, 5, 60, 76
10, 387224, Note_on_c, 5, 60, 0
10, 387240, Note_on_c, 5, 60, 76
10, 387359, Note_on_c, 5, 60, 0
10, 387480, Note_on_c, 5, 60, 76
10, 387584, Note_on_c, 5, 60, 0
10, 387600, Note_on_c, 5, 60, 76
10, 387719, Note_on_c, 5, 60, 0
10, 387840, Note_on_c, 5, 60, 76
10, 387944, Note_on_c, 5, 60, 0
10, 387960, Note_on_c, 5, 60, 84
10, 388064, Note_on_c, 5, 60, 0
10, 388080, Note_on_c, 5, 60, 84
10, 388184, Note_on_c, 5, 60, 0
10, 388200, Note_on_c, 5, 60, 84
10, 388304, Note_on_c, 5, 60, 0
10, 388320, Note_on_c, 5, 60, 84
10, 388424, Note_on_c, 5, 60, 0
10, 388440, Note_on_c, 5, 60, 84
10, 388544, Note_on_c, 5, 60, 0
10, 388560, Note_on_c, 5, 60, 84
10, 388664, Note_on_c, 5, 60, 0
10, 388680, Note_on_c, 5, 60, 84
10, 388784, Note_on_c, 5, 60, 0
10, 388800, Note_on_c, 5, 60, 84
10, 388904, Note_on_c, 5, 60, 0
10, 388920, Note_on_c, 5, 60, 84
10, 389024, Note_on_c, 5, 60, 0
10, 389040, Note_on_c, 5, 60, 84
10, 389384, Note_on_c, 5, 60, 0
10, 389400, Note_on_c, 5, 60, 84
10, 389504, Note_on_c, 5, 60, 0
10, 389520, Note_on_c, 5, 60, 84
10, 389624, Note_on_c, 5, 60, 0
10, 389640, Note_on_c, 5, 60, 84
10, 389744, Note_on_c, 5, 60, 0
10, 389760, Note_on_c, 5, 60, 84
10, 389864, Note_on_c, 5, 60, 0
10, 389880, Note_on_c, 5, 60, 84
10, 389984, Note_on_c, 5, 60, 0
10, 390000, Note_on_c, 5, 60, 84
10, 390104, Note_on_c, 5, 60, 0
10, 390120, Note_on_c, 5, 60, 84
10, 390224, Note_on_c, 5, 60, 0
10, 390240, Note_on_c, 5, 60, 84
10, 390344, Note_on_c, 5, 60, 0
10, 390360, Note_on_c, 5, 60, 84
10, 390464, Note_on_c, 5, 60, 0
10, 390480, Note_on_c, 5, 60, 84
10, 390839, Note_on_c, 5, 60, 0
10, 391560, Note_on_c, 5, 60, 44
10, 391664, Note_on_c, 5, 60, 0
10, 391680, Note_on_c, 5, 60, 44
10, 391784, Note_on_c, 5, 60, 0
10, 391800, Note_on_c, 5, 60, 44
10, 391919, Note_on_c, 5, 60, 0
10, 393360, Note_on_c, 5, 60, 44
10, 393464, Note_on_c, 5, 60, 0
10, 393480, Note_on_c, 5, 60, 44
10, 393584, Note_on_c, 5, 60, 0
10, 393600, Note_on_c, 5, 60, 44
10, 393719, Note_on_c, 5, 60, 0
10, 400560, Note_on_c, 5, 65, 76
10, 400664, Note_on_c, 5, 65, 0
10, 400680, Note_on_c, 5, 65, 76
10, 400784, Note_on_c, 5, 65, 0
10, 400800, Note_on_c, 5, 65, 76
10, 400919, Note_on_c, 5, 65, 0
10, 401280, Note_on_c, 5, 65, 76
10, 401384, Note_on_c, 5, 65, 0
10, 401400, Note_on_c, 5, 65, 76
10, 401504, Note_on_c, 5, 65, 0
10, 401520, Note_on_c, 5, 65, 76
10, 401639, Note_on_c, 5, 65, 0
10, 402000, Note_on_c, 5, 65, 76
10, 402104, Note_on_c, 5, 65, 0
10, 402120, Note_on_c, 5, 65, 76
10, 402224, Note_on_c, 5, 65, 0
10, 402240, Note_on_c, 5, 65, 76
10, 402359, Note_on_c, 5, 65, 0
10, 402720, Note_on_c, 5, 65, 76
10, 402824, Note_on_c, 5, 65, 0
10, 402840, Note_on_c, 5, 65, 76
10, 402944, Note_on_c, 5, 65, 0
10, 402960, Note_on_c, 5, 65, 76
10, 403079, Note_on_c, 5, 65, 0
10, 403440, Note_on_c, 5, 65, 76
10, 403544, Note_on_c, 5, 65, 0
10, 403560, Note_on_c, 5, 65, 76
10, 403664, Note_on_c, 5, 65, 0
10, 403680, Note_on_c, 5, 65, 76
10, 403784, Note_on_c, 5, 65, 0
10, 403800, Note_on_c, 5, 65, 76
10, 403904, Note_on_c, 5, 65, 0
10, 403920, Note_on_c, 5, 65, 76
10, 404024, Note_on_c, 5, 65, 0
10, 404040, Note_on_c, 5, 65, 76
10, 404144, Note_on_c, 5, 65, 0
10, 404160, Note_on_c, 5, 65, 76
10, 404279, Note_on_c, 5, 65, 0
10, 405840, Note_on_c, 5, 57, 84
10, 405944, Note_on_c, 5, 57, 0
10, 405960, Note_on_c, 5, 57, 84
10, 406079, Note_on_c, 5, 57, 0
10, 406200, Note_on_c, 5, 57, 84
10, 406304, Note_on_c, 5, 57, 0
10, 406320, Note_on_c, 5, 57, 84
10, 406439, Note_on_c, 5, 57, 0
10, 406560, Note_on_c, 5, 57, 84
10, 406664, Note_on_c, 5, 57, 0
10, 406680, Note_on_c, 5, 57, 84
10, 406799, Note_on_c, 5, 57, 0
10, 406920, Note_on_c, 5, 57, 84
10, 407024, Note_on_c, 5, 57, 0
10, 407040, Note_on_c, 5, 57, 84
10, 407159, Note_on_c, 5, 57, 0
10, 407280, Note_on_c, 5, 57, 84
10, 407384, Note_on_c, 5, 57, 0
10, 407400, Note_on_c, 5, 57, 84
10, 407519, Note_on_c, 5, 57, 0
10, 408720, Control_c, 5, 11, 96
10, 408840, Note_on_c, 5, 54, 64
10, 408840, Control_c, 5, 11, 96
10, 408840, Note_on_c, 5, 62, 64
10, 408893, Control_c, 5, 11, 99
10, 408947, Control_c, 5, 11, 103
10, 409000, Control_c, 5, 11, 106
10, 409053, Control_c, 5, 11, 110
10, 409107, Control_c, 5, 11, 113
10, 409160, Control_c, 5, 11, 117
10, 409213, Control_c, 5, 11, 120
10, 409267, Control_c, 5, 11, 124
10, 409320, Control_c, 5, 11, 127
10, 409373, Control_c, 5, 11, 124
10, 409427, Control_c, 5, 11, 120
10, 409439, Note_on_c, 5, 54, 0
10, 409439, Note_on_c, 5, 62, 0
10, 409440, Note_on_c, 5, 64, 64
10, 409440, Note_on_c, 5, 57, 64
10, 409480, Control_c, 5, 11, 117
10, 409533, Control_c, 5, 11, 113
10, 409559, Note_on_c, 5, 64, 0
10, 409559, Note_on_c, 5, 57, 0
10, 409560, Note_on_c, 5, 54, 64
10, 409560, Note_on_c, 5, 62, 64
10, 409587, Control_c, 5, 11, 110
10, 409640, Control_c, 5, 11, 106
10, 409693, Control_c, 5, 11, 103
10, 409747, Control_c, 5, 11, 99
10, 409799, Note_on_c, 5, 54, 0
10, 409799, Note_on_c, 5, 62, 0
10, 409800, Control_c, 5, 11, 96
10, 410280, Note_on_c, 5, 62, 64
10, 410280, Control_c, 5, 11, 96
10, 410280, Note_on_c, 5, 53, 64
10, 410333, Control_c, 5, 11, 99
10, 410387, Control_c, 5, 11, 103
10, 410440, Control_c, 5, 11, 106
10, 410493, Control_c, 5, 11, 110
10, 410547, Control_c, 5, 11, 113
10, 410600, Control_c, 5, 11, 117
10, 410653, Control_c, 5, 11, 120
10, 410707, Control_c, 5, 11, 124
10, 410760, Control_c, 5, 11, 127
10, 410813, Control_c, 5, 11, 124
10, 410867, Control_c, 5, 11, 120
10, 410879, Note_on_c, 5, 62, 0
10, 410879, Note_on_c, 5, 53, 0
10, 410880, Note_on_c, 5, 64, 64
10, 410880, Note_on_c, 5, 57, 64
10, 410920, Control_c, 5, 11, 117
10, 410973, Control_c, 5, 11, 113
10, 410999, Note_on_c, 5, 64, 0
10, 410999, Note_on_c, 5, 57, 0
10, 411000, Note_on_c, 5, 62, 64
10, 411000, Note_on_c, 5, 53, 64
10, 411027, Control_c, 5, 11, 110
10, 411080, Control_c, 5, 11, 106
10, 411133, Control_c, 5, 11, 103
10, 411187, Control_c, 5, 11, 99
10, 411239, Note_on_c, 5, 62, 0
10, 411239, Note_on_c, 5, 53, 0
10, 411240, Control_c, 5, 11, 96
10, 411480, Control_c, 5, 11, 127
10, 411720, Note_on_c, 5, 67, 84
10, 411839, Note_on_c, 5, 67, 0
10, 412080, Note_on_c, 5, 67, 84
10, 412199, Note_on_c, 5, 67, 0
10, 412440, Note_on_c, 5, 67, 84
10, 412559, Note_on_c, 5, 67, 0
10, 412800, Note_on_c, 5, 67, 84
10, 412919, Note_on_c, 5, 67, 0
10, 413160, Note_on_c, 5, 69, 84
10, 413160, Note_on_c, 5, 57, 84
10, 413279, Note_on_c, 5, 69, 0
10, 413279, Note_on_c, 5, 57, 0
10, 413279, End_track
11, 0, Start_track
11, 0, Title_t, "Trumpet in D"
11, 0, MIDI_port, 0
11, 0, Program_c, 6, 56
11, 0, Control_c, 6, 7, 112
11, 0, Control_c, 6, 10, 60
11, 0, Control_c, 6, 11, 127
11, 0, Note_on_c, 6, 69, 76
11, 104, Note_on_c, 6, 69, 0
11, 120, Note_on_c, 6, 69, 76
11, 239, Note_on_c, 6, 69, 0
11, 360, Note_on_c, 6, 69, 76
11, 464, Note_on_c, 6, 69, 0
11, 480, Note_on_c, 6, 69, 76
11, 599, Note_on_c, 6, 69, 0
11, 720, Note_on_c, 6, 69, 76
11, 824, Note_on_c, 6, 69, 0
11, 840, Note_on_c, 6, 69, 52
11, 959, Note_on_c, 6, 69, 0
11, 5880, Note_on_c, 6, 76, 76
11, 6224, Note_on_c, 6, 76, 0
11, 6240, Note_on_c, 6, 57, 76
11, 6240, Note_on_c, 6, 69, 76
11, 6344, Note_on_c, 6, 57, 0
11, 6344, Note_on_c, 6, 69, 0
11, 6360, Note_on_c, 6, 57, 76
11, 6360, Note_on_c, 6, 69, 76
11, 6464, Note_on_c, 6, 57, 0
11, 6464, Note_on_c, 6, 69, 0
11, 6480, Note_on_c, 6, 69, 76
11, 6480, Note_on_c, 6, 57, 76
11, 6584, Note_on_c, 6, 69, 0
11, 6584, Note_on_c, 6, 57, 0
11, 6600, Note_on_c, 6, 76, 76
11, 6944, Note_on_c, 6, 76, 0
11, 6960, Note_on_c, 6, 57, 76
11, 6960, Note_on_c, 6, 69, 76
11, 7064, Note_on_c, 6, 57, 0
11, 7064, Note_on_c, 6, 69, 0
11, 7080, Note_on_c, 6, 57, 76
11, 7080, Note_on_c, 6, 69, 76
11, 7184, Note_on_c, 6, 57, 0
11, 7184, Note_on_c, 6, 69, 0
11, 7200, Note_on_c, 6, 69, 76
11, 7200, Note_on_c, 6, 57, 76
11, 7304, Note_on_c, 6, 69, 0
11, 7304, Note_on_c, 6, 57, 0
11, 7320, Note_on_c, 6, 76, 76
11, 7664, Note_on_c, 6, 76, 0
11, 7680, Note_on_c, 6, 57, 76
11, 7680, Note_on_c, 6, 69, 76
11, 7784, Note_on_c, 6, 57, 0
11, 7784, Note_on_c, 6, 69, 0
11, 7800, Note_on_c, 6, 69, 76
11, 7800, Note_on_c, 6, 57, 76
11, 7904, Note_on_c, 6, 69, 0
11, 7904, Note_on_c, 6, 57, 0
11, 7920, Note_on_c, 6, 69, 76
11, 7920, Note_on_c, 6, 57, 76
11, 8024, Note_on_c, 6, 69, 0
11, 8024, Note_on_c, 6, 57, 0
11, 8040, Note_on_c, 6, 69, 76
11, 8040, Note_on_c, 6, 57, 76
11, 8144, Note_on_c, 6, 69, 0
11, 8144, Note_on_c, 6, 57, 0
11, 8160, Note_on_c, 6, 69, 76
11, 8160, Note_on_c, 6, 57, 76
11, 8264, Note_on_c, 6, 69, 0
11, 8264, Note_on_c, 6, 57, 0
11, 8280, Note_on_c, 6, 69, 76
11, 8280, Note_on_c, 6, 57, 76
11, 8384, Note_on_c, 6, 69, 0
11, 8384, Note_on_c, 6, 57, 0
11, 8400, Note_on_c, 6, 57, 76
11, 8400, Note_on_c, 6, 69, 76
11, 8519, Note_on_c, 6, 57, 0
11, 8519, Note_on_c, 6, 69, 0
11, 8640, Note_on_c, 6, 69, 76
11, 8744, Note_on_c, 6, 69, 0
11, 8760, Note_on_c, 6, 69, 76
11, 8879, Note_on_c, 6, 69, 0
11, 9000, Note_on_c, 6, 69, 76
11, 9104, Note_on_c, 6, 69, 0
11, 9120, Note_on_c, 6, 69, 76
11, 9239, Note_on_c, 6, 69, 0
11, 9360, Note_on_c, 6, 69, 76
11, 9464, Note_on_c, 6, 69, 0
11, 9480, Note_on_c, 6, 69, 52
11, 9599, Note_on_c, 6, 69, 0
11, 14520, Note_on_c, 6, 76, 76
11, 14864, Note_on_c, 6, 76, 0
11, 14880, Note_on_c, 6, 69, 76
11, 14880, Note_on_c, 6, 57, 76
11, 14984, Note_on_c, 6, 69, 0
11, 14984, Note_on_c, 6, 57, 0
11, 15000, Note_on_c, 6, 57, 76
11, 15000, Note_on_c, 6, 69, 76
11, 15104, Note_on_c, 6, 57, 0
11, 15104, Note_on_c, 6, 69, 0
11, 15120, Note_on_c, 6, 57, 76
11, 15120, Note_on_c, 6, 69, 76
11, 15224, Note_on_c, 6, 57, 0
11, 15224, Note_on_c, 6, 69, 0
11, 15240, Note_on_c, 6, 76, 76
11, 15584, Note_on_c, 6, 76, 0
11, 15600, Note_on_c, 6, 57, 76
11, 15600, Note_on_c, 6, 69, 76
11, 15704, Note_on_c, 6, 57, 0
11, 15704, Note_on_c, 6, 69, 0
11, 15720, Note_on_c, 6, 69, 76
11, 15720, Note_on_c, 6, 57, 76
11, 15824, Note_on_c, 6, 69, 0
11, 15824, Note_on_c, 6, 57, 0
11, 15840, Note_on_c, 6, 69, 76
11, 15840, Note_on_c, 6, 57, 76
11, 15944, Note_on_c, 6, 69, 0
11, 15944, Note_on_c, 6, 57, 0
11, 15960, Note_on_c, 6, 76, 76
11, 16304, Note_on_c, 6, 76, 0
11, 16320, Note_on_c, 6, 57, 76
11, 16320, Note_on_c, 6, 69, 76
11, 16424, Note_on_c, 6, 57, 0
11, 16424, Note_on_c, 6, 69, 0
11, 16440, Note_on_c, 6, 57, 76
11, 16440, Note_on_c, 6, 69, 76
11, 16544, Note_on_c, 6, 57, 0
11, 16544, Note_on_c, 6, 69, 0
11, 16560, Note_on_c, 6, 57, 76
11, 16560, Note_on_c, 6, 69, 76
11, 16664, Note_on_c, 6, 57, 0
11, 16664, Note_on_c, 6, 69, 0
11, 16680, Note_on_c, 6, 57, 76
11, 16680, Note_on_c, 6, 69, 76
11, 16784, Note_on_c, 6, 57, 0
11, 16784, Note_on_c, 6, 69, 0
11, 16800, Note_on_c, 6, 69, 76
11, 16800, Note_on_c, 6, 57, 76
11, 16904, Note_on_c, 6, 69, 0
11, 16904, Note_on_c, 6, 57, 0
11, 16920, Note_on_c, 6, 57, 76
11, 16920, Note_on_c, 6, 69, 76
11, 17024, Note_on_c, 6, 57, 0
11, 17024, Note_on_c, 6, 69, 0
11, 17040, Note_on_c, 6, 57, 76
11, 17040, Note_on_c, 6, 69, 76
11, 17159, Note_on_c, 6, 57, 0
11, 17159, Note_on_c, 6, 69, 0
11, 24120, Note_on_c, 6, 62, 84
11, 24120, Note_on_c, 6, 74, 84
11, 24224, Note_on_c, 6, 62, 0
11, 24224, Note_on_c, 6, 74, 0
11, 24240, Note_on_c, 6, 62, 84
11, 24240, Note_on_c, 6, 74, 84
11, 24359, Note_on_c, 6, 62, 0
11, 24359, Note_on_c, 6, 74, 0
11, 29880, Note_on_c, 6, 69, 84
11, 29984, Note_on_c, 6, 69, 0
11, 30000, Note_on_c, 6, 69, 84
11, 30119, Note_on_c, 6, 69, 0
11, 40320, Note_on_c, 6, 57, 76
11, 40320, Note_on_c, 6, 69, 76
11, 40424, Note_on_c, 6, 57, 0
11, 40424, Note_on_c, 6, 69, 0
11, 40440, Note_on_c, 6, 69, 76
11, 40440, Note_on_c, 6, 57, 76
11, 40559, Note_on_c, 6, 69, 0
11, 40559, Note_on_c, 6, 57, 0
11, 40680, Note_on_c, 6, 69, 76
11, 40680, Note_on_c, 6, 57, 76
11, 40784, Note_on_c, 6, 69, 0
11, 40784, Note_on_c, 6, 57, 0
11, 40800, Note_on_c, 6, 57, 76
11, 40800, Note_on_c, 6, 69, 76
11, 40919, Note_on_c, 6, 57, 0
11, 40919, Note_on_c, 6, 69, 0
11, 41040, Note_on_c, 6, 69, 76
11, 41040, Note_on_c, 6, 57, 76
11, 41144, Note_on_c, 6, 69, 0
11, 41144, Note_on_c, 6, 57, 0
11, 41160, Note_on_c, 6, 69, 84
11, 41160, Note_on_c, 6, 57, 84
11, 41264, Note_on_c, 6, 69, 0
11, 41264, Note_on_c, 6, 57, 0
11, 41280, Note_on_c, 6, 57, 84
11, 41280, Note_on_c, 6, 69, 84
11, 41384, Note_on_c, 6, 57, 0
11, 41384, Note_on_c, 6, 69, 0
11, 41400, Note_on_c, 6, 69, 84
11, 41400, Note_on_c, 6, 57, 84
11, 41504, Note_on_c, 6, 69, 0
11, 41504, Note_on_c, 6, 57, 0
11, 41520, Note_on_c, 6, 57, 84
11, 41520, Note_on_c, 6, 69, 84
11, 41624, Note_on_c, 6, 57, 0
11, 41624, Note_on_c, 6, 69, 0
11, 41640, Note_on_c, 6, 69, 84
11, 41640, Note_on_c, 6, 57, 84
11, 41744, Note_on_c, 6, 69, 0
11, 41744, Note_on_c, 6, 57, 0
11, 41760, Note_on_c, 6, 57, 84
11, 41760, Note_on_c, 6, 69, 84
11, 41864, Note_on_c, 6, 57, 0
11, 41864, Note_on_c, 6, 69, 0
11, 41880, Note_on_c, 6, 69, 84
11, 41880, Note_on_c, 6, 57, 84
11, 41984, Note_on_c, 6, 69, 0
11, 41984, Note_on_c, 6, 57, 0
11, 42000, Note_on_c, 6, 69, 84
11, 42000, Note_on_c, 6, 57, 84
11, 42104, Note_on_c, 6, 69, 0
11, 42104, Note_on_c, 6, 57, 0
11, 42120, Note_on_c, 6, 69, 84
11, 42120, Note_on_c, 6, 57, 84
11, 42239, Note_on_c, 6, 69, 0
11, 42239, Note_on_c, 6, 57, 0
11, 43680, Note_on_c, 6, 69, 84
11, 43680, Note_on_c, 6, 57, 84
11, 43784, Note_on_c, 6, 69, 0
11, 43784, Note_on_c, 6, 57, 0
11, 43800, Note_on_c, 6, 69, 84
11, 43800, Note_on_c, 6, 57, 84
11, 43904, Note_on_c, 6, 69, 0
11, 43904, Note_on_c, 6, 57, 0
11, 43920, Note_on_c, 6, 57, 84
11, 43920, Note_on_c, 6, 69, 84
11, 44039, Note_on_c, 6, 57, 0
11, 44039, Note_on_c, 6, 69, 0
11, 53760, Note_on_c, 6, 57, 76
11, 53760, Note_on_c, 6, 69, 76
11, 53864, Note_on_c, 6, 57, 0
11, 53864, Note_on_c, 6, 69, 0
11, 53880, Note_on_c, 6, 69, 76
11, 53880, Note_on_c, 6, 57, 76
11, 53984, Note_on_c, 6, 69, 0
11, 53984, Note_on_c, 6, 57, 0
11, 54000, Note_on_c, 6, 57, 76
11, 54000, Note_on_c, 6, 69, 76
11, 54119, Note_on_c, 6, 57, 0
11, 54119, Note_on_c, 6, 69, 0
11, 54480, Note_on_c, 6, 69, 76
11, 54480, Note_on_c, 6, 57, 76
11, 54584, Note_on_c, 6, 69, 0
11, 54584, Note_on_c, 6, 57, 0
11, 54600, Note_on_c, 6, 69, 76
11, 54600, Note_on_c, 6, 57, 76
11, 54704, Note_on_c, 6, 69, 0
11, 54704, Note_on_c, 6, 57, 0
11, 54720, Note_on_c, 6, 69, 76
11, 54720, Note_on_c, 6, 57, 76
11, 54839, Note_on_c, 6, 69, 0
11, 54839, Note_on_c, 6, 57, 0
11, 55200, Note_on_c, 6, 57, 76
11, 55200, Note_on_c, 6, 69, 76
11, 55304, Note_on_c, 6, 57, 0
11, 55304, Note_on_c, 6, 69, 0
11, 55320, Note_on_c, 6, 69, 76
11, 55320, Note_on_c, 6, 57, 76
11, 55424, Note_on_c, 6, 69, 0
11, 55424, Note_on_c, 6, 57, 0
11, 55440, Note_on_c, 6, 57, 76
11, 55440, Note_on_c, 6, 69, 76
11, 55559, Note_on_c, 6, 57, 0
11, 55559, Note_on_c, 6, 69, 0
11, 55920, Note_on_c, 6, 57, 76
11, 55920, Note_on_c, 6, 69, 76
11, 56024, Note_on_c, 6, 57, 0
11, 56024, Note_on_c, 6, 69, 0
11, 56040, Note_on_c, 6, 57, 76
11, 56040, Note_on_c, 6, 69, 76
11, 56144, Note_on_c, 6, 57, 0
11, 56144, Note_on_c, 6, 69, 0
11, 56160, Note_on_c, 6, 69, 76
11, 56160, Note_on_c, 6, 57, 76
11, 56279, Note_on_c, 6, 69, 0
11, 56279, Note_on_c, 6, 57, 0
11, 56640, Note_on_c, 6, 69, 76
11, 56640, Note_on_c, 6, 57, 76
11, 56744, Note_on_c, 6, 69, 0
11, 56744, Note_on_c, 6, 57, 0
11, 56760, Note_on_c, 6, 57, 76
11, 56760, Note_on_c, 6, 69, 76
11, 56864, Note_on_c, 6, 57, 0
11, 56864, Note_on_c, 6, 69, 0
11, 56880, Note_on_c, 6, 69, 76
11, 56880, Note_on_c, 6, 57, 76
11, 56984, Note_on_c, 6, 69, 0
11, 56984, Note_on_c, 6, 57, 0
11, 57000, Note_on_c, 6, 69, 76
11, 57000, Note_on_c, 6, 57, 76
11, 57104, Note_on_c, 6, 69, 0
11, 57104, Note_on_c, 6, 57, 0
11, 57120, Note_on_c, 6, 69, 76
11, 57120, Note_on_c, 6, 57, 76
11, 57224, Note_on_c, 6, 69, 0
11, 57224, Note_on_c, 6, 57, 0
11, 57240, Note_on_c, 6, 57, 76
11, 57240, Note_on_c, 6, 69, 76
11, 57344, Note_on_c, 6, 57, 0
11, 57344, Note_on_c, 6, 69, 0
11, 57360, Note_on_c, 6, 69, 76
11, 57360, Note_on_c, 6, 57, 76
11, 57479, Note_on_c, 6, 69, 0
11, 57479, Note_on_c, 6, 57, 0
11, 59040, Note_on_c, 6, 69, 84
11, 59144, Note_on_c, 6, 69, 0
11, 59160, Note_on_c, 6, 69, 84
11, 59279, Note_on_c, 6, 69, 0
11, 59400, Note_on_c, 6, 69, 84
11, 59504, Note_on_c, 6, 69, 0
11, 59520, Note_on_c, 6, 69, 84
11, 59639, Note_on_c, 6, 69, 0
11, 59760, Note_on_c, 6, 69, 84
11, 59864, Note_on_c, 6, 69, 0
11, 59880, Note_on_c, 6, 69, 84
11, 59999, Note_on_c, 6, 69, 0
11, 60120, Note_on_c, 6, 69, 84
11, 60224, Note_on_c, 6, 69, 0
11, 60240, Note_on_c, 6, 69, 84
11, 60359, Note_on_c, 6, 69, 0
11, 60480, Note_on_c, 6, 69, 84
11, 60584, Note_on_c, 6, 69, 0
11, 60600, Note_on_c, 6, 69, 84
11, 60719, Note_on_c, 6, 69, 0
11, 68760, Note_on_c, 6, 62, 84
11, 68760, Note_on_c, 6, 74, 84
11, 68864, Note_on_c, 6, 62, 0
11, 68864, Note_on_c, 6, 74, 0
11, 68880, Note_on_c, 6, 62, 84
11, 68880, Note_on_c, 6, 74, 84
11, 68999, Note_on_c, 6, 62, 0
11, 68999, Note_on_c, 6, 74, 0
11, 74520, Note_on_c, 6, 69, 84
11, 74624, Note_on_c, 6, 69, 0
11, 74640, Note_on_c, 6, 69, 84
11, 74759, Note_on_c, 6, 69, 0
11, 84960, Note_on_c, 6, 69, 76
11, 84960, Note_on_c, 6, 57, 76
11, 85064, Note_on_c, 6, 69, 0
11, 85064, Note_on_c, 6, 57, 0
11, 85080, Note_on_c, 6, 69, 76
11, 85080, Note_on_c, 6, 57, 76
11, 85199, Note_on_c, 6, 69, 0
11, 85199, Note_on_c, 6, 57, 0
11, 85320, Note_on_c, 6, 69, 76
11, 85320, Note_on_c, 6, 57, 76
11, 85424, Note_on_c, 6, 69, 0
11, 85424, Note_on_c, 6, 57, 0
11, 85440, Note_on_c, 6, 57, 76
11, 85440, Note_on_c, 6, 69, 76
11, 85559, Note_on_c, 6, 57, 0
11, 85559, Note_on_c, 6, 69, 0
11, 85680, Note_on_c, 6, 69, 76
11, 85680, Note_on_c, 6, 57, 76
11, 85784, Note_on_c, 6, 69, 0
11, 85784, Note_on_c, 6, 57, 0
11, 85800, Note_on_c, 6, 69, 84
11, 85800, Note_on_c, 6, 57, 84
11, 85904, Note_on_c, 6, 69, 0
11, 85904, Note_on_c, 6, 57, 0
11, 85920, Note_on_c, 6, 69, 84
11, 85920, Note_on_c, 6, 57, 84
11, 86024, Note_on_c, 6, 69, 0
11, 86024, Note_on_c, 6, 57, 0
11, 86040, Note_on_c, 6, 57, 84
11, 86040, Note_on_c, 6, 69, 84
11, 86144, Note_on_c, 6, 57, 0
11, 86144, Note_on_c, 6, 69, 0
11, 86160, Note_on_c, 6, 57, 84
11, 86160, Note_on_c, 6, 69, 84
11, 86264, Note_on_c, 6, 57, 0
11, 86264, Note_on_c, 6, 69, 0
11, 86280, Note_on_c, 6, 69, 84
11, 86280, Note_on_c, 6, 57, 84
11, 86384, Note_on_c, 6, 69, 0
11, 86384, Note_on_c, 6, 57, 0
11, 86400, Note_on_c, 6, 57, 84
11, 86400, Note_on_c, 6, 69, 84
11, 86504, Note_on_c, 6, 57, 0
11, 86504, Note_on_c, 6, 69, 0
11, 86520, Note_on_c, 6, 57, 84
11, 86520, Note_on_c, 6, 69, 84
11, 86624, Note_on_c, 6, 57, 0
11, 86624, Note_on_c, 6, 69, 0
11, 86640, Note_on_c, 6, 69, 84
11, 86640, Note_on_c, 6, 57, 84
11, 86744, Note_on_c, 6, 69, 0
11, 86744, Note_on_c, 6, 57, 0
11, 86760, Note_on_c, 6, 57, 84
11, 86760, Note_on_c, 6, 69, 84
11, 86879, Note_on_c, 6, 57, 0
11, 86879, Note_on_c, 6, 69, 0
11, 88320, Note_on_c, 6, 57, 84
11, 88320, Note_on_c, 6, 69, 84
11, 88424, Note_on_c, 6, 57, 0
11, 88424, Note_on_c, 6, 69, 0
11, 88440, Note_on_c, 6, 69, 84
11, 88440, Note_on_c, 6, 57, 84
11, 88544, Note_on_c, 6, 69, 0
11, 88544, Note_on_c, 6, 57, 0
11, 88560, Note_on_c, 6, 57, 84
11, 88560, Note_on_c, 6, 69, 84
11, 88679, Note_on_c, 6, 57, 0
11, 88679, Note_on_c, 6, 69, 0
11, 98400, Note_on_c, 6, 57, 76
11, 98400, Note_on_c, 6, 69, 76
11, 98504, Note_on_c, 6, 57, 0
11, 98504, Note_on_c, 6, 69, 0
11, 98520, Note_on_c, 6, 57, 76
11, 98520, Note_on_c, 6, 69, 76
11, 98624, Note_on_c, 6, 57, 0
11, 98624, Note_on_c, 6, 69, 0
11, 98640, Note_on_c, 6, 69, 76
11, 98640, Note_on_c, 6, 57, 76
11, 98759, Note_on_c, 6, 69, 0
11, 98759, Note_on_c, 6, 57, 0
11, 99120, Note_on_c, 6, 57, 76
11, 99120, Note_on_c, 6, 69, 76
11, 99224, Note_on_c, 6, 57, 0
11, 99224, Note_on_c, 6, 69, 0
11, 99240, Note_on_c, 6, 69, 76
11, 99240, Note_on_c, 6, 57, 76
11, 99344, Note_on_c, 6, 69, 0
11, 99344, Note_on_c, 6, 57, 0
11, 99360, Note_on_c, 6, 57, 76
11, 99360, Note_on_c, 6, 69, 76
11, 99479, Note_on_c, 6, 57, 0
11, 99479, Note_on_c, 6, 69, 0
11, 99840, Note_on_c, 6, 69, 76
11, 99840, Note_on_c, 6, 57, 76
11, 99944, Note_on_c, 6, 69, 0
11, 99944, Note_on_c, 6, 57, 0
11, 99960, Note_on_c, 6, 57, 76
11, 99960, Note_on_c, 6, 69, 76
11, 100064, Note_on_c, 6, 57, 0
11, 100064, Note_on_c, 6, 69, 0
11, 100080, Note_on_c, 6, 57, 76
11, 100080, Note_on_c, 6, 69, 76
11, 100199, Note_on_c, 6, 57, 0
11, 100199, Note_on_c, 6, 69, 0
11, 100560, Note_on_c, 6, 69, 76
11, 100560, Note_on_c, 6, 57, 76
11, 100664, Note_on_c, 6, 69, 0
11, 100664, Note_on_c, 6, 57, 0
11, 100680, Note_on_c, 6, 57, 76
11, 100680, Note_on_c, 6, 69, 76
11, 100784, Note_on_c, 6, 57, 0
11, 100784, Note_on_c, 6, 69, 0
11, 100800, Note_on_c, 6, 57, 76
11, 100800, Note_on_c, 6, 69, 76
11, 100919, Note_on_c, 6, 57, 0
11, 100919, Note_on_c, 6, 69, 0
11, 101280, Note_on_c, 6, 69, 76
11, 101280, Note_on_c, 6, 57, 76
11, 101384, Note_on_c, 6, 69, 0
11, 101384, Note_on_c, 6, 57, 0
11, 101400, Note_on_c, 6, 57, 76
11, 101400, Note_on_c, 6, 69, 76
11, 101504, Note_on_c, 6, 57, 0
11, 101504, Note_on_c, 6, 69, 0
11, 101520, Note_on_c, 6, 57, 76
11, 101520, Note_on_c, 6, 69, 76
11, 101624, Note_on_c, 6, 57, 0
11, 101624, Note_on_c, 6, 69, 0
11, 101640, Note_on_c, 6, 69, 76
11, 101640, Note_on_c, 6, 57, 76
11, 101744, Note_on_c, 6, 69, 0
11, 101744, Note_on_c, 6, 57, 0
11, 101760, Note_on_c, 6, 69, 76
11, 101760, Note_on_c, 6, 57, 76
11, 101864, Note_on_c, 6, 69, 0
11, 101864, Note_on_c, 6, 57, 0
11, 101880, Note_on_c, 6, 69, 76
11, 101880, Note_on_c, 6, 57, 76
11, 101984, Note_on_c, 6, 69, 0
11, 101984, Note_on_c, 6, 57, 0
11, 102000, Note_on_c, 6, 57, 76
11, 102000, Note_on_c, 6, 69, 76
11, 102119, Note_on_c, 6, 57, 0
11, 102119, Note_on_c, 6, 69, 0
11, 103680, Note_on_c, 6, 69, 84
11, 103784, Note_on_c, 6, 69, 0
11, 103800, Note_on_c, 6, 69, 84
11, 103919, Note_on_c, 6, 69, 0
11, 104040, Note_on_c, 6, 69, 84
11, 104144, Note_on_c, 6, 69, 0
11, 104160, Note_on_c, 6, 69, 84
11, 104279, Note_on_c, 6, 69, 0
11, 104400, Note_on_c, 6, 69, 84
11, 104504, Note_on_c, 6, 69, 0
11, 104520, Note_on_c, 6, 69, 84
11, 104639, Note_on_c, 6, 69, 0
11, 104760, Note_on_c, 6, 69, 84
11, 104864, Note_on_c, 6, 69, 0
11, 104880, Note_on_c, 6, 69, 84
11, 104999, Note_on_c, 6, 69, 0
11, 105120, Note_on_c, 6, 69, 84
11, 105224, Note_on_c, 6, 69, 0
11, 105240, Note_on_c, 6, 69, 84
11, 105359, Note_on_c, 6, 69, 0
11, 148440, Note_on_c, 6, 69, 84
11, 148440, Note_on_c, 6, 81, 84
11, 153339, Note_on_c, 6, 69, 0
11, 153339, Note_on_c, 6, 81, 0
11, 153360, Note_on_c, 6, 81, 84
11, 153360, Note_on_c, 6, 69, 84
11, 153459, Note_on_c, 6, 81, 0
11, 153459, Note_on_c, 6, 69, 0
11, 153480, Note_on_c, 6, 69, 84
11, 153480, Note_on_c, 6, 81, 84
11, 154059, Note_on_c, 6, 69, 0
11, 154059, Note_on_c, 6, 81, 0
11, 154080, Note_on_c, 6, 69, 84
11, 154080, Note_on_c, 6, 81, 84
11, 154179, Note_on_c, 6, 69, 0
11, 154179, Note_on_c, 6, 81, 0
11, 154200, Note_on_c, 6, 81, 84
11, 154200, Note_on_c, 6, 69, 84
11, 158739, Note_on_c, 6, 81, 0
11, 158739, Note_on_c, 6, 69, 0
11, 158760, Note_on_c, 6, 78, 84
11, 158760, Note_on_c, 6, 66, 84
11, 158979, Note_on_c, 6, 78, 0
11, 158979, Note_on_c, 6, 66, 0
11, 159000, Note_on_c, 6, 62, 84
11, 159000, Note_on_c, 6, 74, 84
11, 159219, Note_on_c, 6, 62, 0
11, 159219, Note_on_c, 6, 74, 0
11, 159240, Note_on_c, 6, 57, 84
11, 159240, Note_on_c, 6, 69, 84
11, 159479, Note_on_c, 6, 57, 0
11, 159479, Note_on_c, 6, 69, 0
11, 178680, Note_on_c, 6, 69, 84
11, 178680, Note_on_c, 6, 81, 84
11, 183579, Note_on_c, 6, 69, 0
11, 183579, Note_on_c, 6, 81, 0
11, 183600, Note_on_c, 6, 69, 84
11, 183600, Note_on_c, 6, 81, 84
11, 183699, Note_on_c, 6, 69, 0
11, 183699, Note_on_c, 6, 81, 0
11, 183720, Note_on_c, 6, 69, 84
11, 183720, Note_on_c, 6, 81, 84
11, 184299, Note_on_c, 6, 69, 0
11, 184299, Note_on_c, 6, 81, 0
11, 184320, Note_on_c, 6, 81, 84
11, 184320, Note_on_c, 6, 69, 84
11, 184419, Note_on_c, 6, 81, 0
11, 184419, Note_on_c, 6, 69, 0
11, 184440, Note_on_c, 6, 69, 84
11, 184440, Note_on_c, 6, 81, 84
11, 188979, Note_on_c, 6, 69, 0
11, 188979, Note_on_c, 6, 81, 0
11, 189000, Note_on_c, 6, 66, 84
11, 189000, Note_on_c, 6, 78, 84
11, 189219, Note_on_c, 6, 66, 0
11, 189219, Note_on_c, 6, 78, 0
11, 189240, Note_on_c, 6, 62, 84
11, 189240, Note_on_c, 6, 74, 84
11, 189459, Note_on_c, 6, 62, 0
11, 189459, Note_on_c, 6, 74, 0
11, 189480, Note_on_c, 6, 69, 84
11, 189480, Note_on_c, 6, 57, 84
11, 189719, Note_on_c, 6, 69, 0
11, 189719, Note_on_c, 6, 57, 0
11, 200040, Note_on_c, 6, 69, 76
11, 200144, Note_on_c, 6, 69, 0
11, 200160, Note_on_c, 6, 69, 76
11, 200279, Note_on_c, 6, 69, 0
11, 200400, Note_on_c, 6, 69, 76
11, 200504, Note_on_c, 6, 69, 0
11, 200520, Note_on_c, 6, 69, 76
11, 200639, Note_on_c, 6, 69, 0
11, 200760, Note_on_c, 6, 69, 76
11, 200864, Note_on_c, 6, 69, 0
11, 200880, Note_on_c, 6, 69, 52
11, 200999, Note_on_c, 6, 69, 0
11, 205920, Note_on_c, 6, 76, 76
11, 206264, Note_on_c, 6, 76, 0
11, 206280, Note_on_c, 6, 57, 76
11, 206280, Note_on_c, 6, 69, 76
11, 206384, Note_on_c, 6, 57, 0
11, 206384, Note_on_c, 6, 69, 0
11, 206400, Note_on_c, 6, 69, 76
11, 206400, Note_on_c, 6, 57, 76
11, 206504, Note_on_c, 6, 69, 0
11, 206504, Note_on_c, 6, 57, 0
11, 206520, Note_on_c, 6, 69, 76
11, 206520, Note_on_c, 6, 57, 76
11, 206624, Note_on_c, 6, 69, 0
11, 206624, Note_on_c, 6, 57, 0
11, 206640, Note_on_c, 6, 76, 76
11, 206984, Note_on_c, 6, 76, 0
11, 207000, Note_on_c, 6, 69, 76
11, 207000, Note_on_c, 6, 57, 76
11, 207104, Note_on_c, 6, 69, 0
11, 207104, Note_on_c, 6, 57, 0
11, 207120, Note_on_c, 6, 57, 76
11, 207120, Note_on_c, 6, 69, 76
11, 207224, Note_on_c, 6, 57, 0
11, 207224, Note_on_c, 6, 69, 0
11, 207240, Note_on_c, 6, 69, 76
11, 207240, Note_on_c, 6, 57, 76
11, 207344, Note_on_c, 6, 69, 0
11, 207344, Note_on_c, 6, 57, 0
11, 207360, Note_on_c, 6, 76, 76
11, 207704, Note_on_c, 6, 76, 0
11, 207720, Note_on_c, 6, 69, 76
11, 207720, Note_on_c, 6, 57, 76
11, 207824, Note_on_c, 6, 69, 0
11, 207824, Note_on_c, 6, 57, 0
11, 207840, Note_on_c, 6, 69, 76
11, 207840, Note_on_c, 6, 57, 76
11, 207944, Note_on_c, 6, 69, 0
11, 207944, Note_on_c, 6, 57, 0
11, 207960, Note_on_c, 6, 69, 76
11, 207960, Note_on_c, 6, 57, 76
11, 208064, Note_on_c, 6, 69, 0
11, 208064, Note_on_c, 6, 57, 0
11, 208080, Note_on_c, 6, 57, 76
11, 208080, Note_on_c, 6, 69, 76
11, 208184, Note_on_c, 6, 57, 0
11, 208184, Note_on_c, 6, 69, 0
11, 208200, Note_on_c, 6, 69, 76
11, 208200, Note_on_c, 6, 57, 76
11, 208304, Note_on_c, 6, 69, 0
11, 208304, Note_on_c, 6, 57, 0
11, 208320, Note_on_c, 6, 69, 76
11, 208320, Note_on_c, 6, 57, 76
11, 208424, Note_on_c, 6, 69, 0
11, 208424, Note_on_c, 6, 57, 0
11, 208440, Note_on_c, 6, 69, 76
11, 208440, Note_on_c, 6, 57, 76
11, 208559, Note_on_c, 6, 69, 0
11, 208559, Note_on_c, 6, 57, 0
11, 208680, Note_on_c, 6, 69, 52
11, 208784, Note_on_c, 6, 69, 0
11, 208800, Note_on_c, 6, 69, 52
11, 208919, Note_on_c, 6, 69, 0
11, 209040, Note_on_c, 6, 69, 52
11, 209144, Note_on_c, 6, 69, 0
11, 209160, Note_on_c, 6, 69, 52
11, 209279, Note_on_c, 6, 69, 0
11, 209400, Note_on_c, 6, 69, 52
11, 209504, Note_on_c, 6, 69, 0
11, 209520, Note_on_c, 6, 69, 52
11, 209639, Note_on_c, 6, 69, 0
11, 214560, Note_on_c, 6, 76, 52
11, 214904, Note_on_c, 6, 76, 0
11, 214920, Note_on_c, 6, 69, 52
11, 214920, Note_on_c, 6, 57, 52
11, 215024, Note_on_c, 6, 69, 0
11, 215024, Note_on_c, 6, 57, 0
11, 215040, Note_on_c, 6, 57, 52
11, 215040, Note_on_c, 6, 69, 52
11, 215144, Note_on_c, 6, 57, 0
11, 215144, Note_on_c, 6, 69, 0
11, 215160, Note_on_c, 6, 69, 52
11, 215160, Note_on_c, 6, 57, 52
11, 215264, Note_on_c, 6, 69, 0
11, 215264, Note_on_c, 6, 57, 0
11, 215280, Note_on_c, 6, 76, 52
11, 215624, Note_on_c, 6, 76, 0
11, 215640, Note_on_c, 6, 69, 52
11, 215640, Note_on_c, 6, 57, 52
11, 215744, Note_on_c, 6, 69, 0
11, 215744, Note_on_c, 6, 57, 0
11, 215760, Note_on_c, 6, 57, 52
11, 215760, Note_on_c, 6, 69, 52
11, 215864, Note_on_c, 6, 57, 0
11, 215864, Note_on_c, 6, 69, 0
11, 215880, Note_on_c, 6, 69, 52
11, 215880, Note_on_c, 6, 57, 52
11, 215984, Note_on_c, 6, 69, 0
11, 215984, Note_on_c, 6, 57, 0
11, 216000, Note_on_c, 6, 76, 52
11, 216344, Note_on_c, 6, 76, 0
11, 216360, Note_on_c, 6, 69, 52
11, 216360, Note_on_c, 6, 57, 52
11, 216464, Note_on_c, 6, 69, 0
11, 216464, Note_on_c, 6, 57, 0
11, 216480, Note_on_c, 6, 69, 52
11, 216480, Note_on_c, 6, 57, 52
11, 216584, Note_on_c, 6, 69, 0
11, 216584, Note_on_c, 6, 57, 0
11, 216600, Note_on_c, 6, 69, 52
11, 216600, Note_on_c, 6, 57, 52
11, 216704, Note_on_c, 6, 69, 0
11, 216704, Note_on_c, 6, 57, 0
11, 216720, Note_on_c, 6, 57, 52
11, 216720, Note_on_c, 6, 69, 52
11, 216824, Note_on_c, 6, 57, 0
11, 216824, Note_on_c, 6, 69, 0
11, 216840, Note_on_c, 6, 69, 52
11, 216840, Note_on_c, 6, 57, 52
11, 216944, Note_on_c, 6, 69, 0
11, 216944, Note_on_c, 6, 57, 0
11, 216960, Note_on_c, 6, 69, 52
11, 216960, Note_on_c, 6, 57, 52
11, 217064, Note_on_c, 6, 69, 0
11, 217064, Note_on_c, 6, 57, 0
11, 217080, Note_on_c, 6, 69, 52
11, 217080, Note_on_c, 6, 57, 52
11, 217199, Note_on_c, 6, 69, 0
11, 217199, Note_on_c, 6, 57, 0
11, 224160, Note_on_c, 6, 74, 44
11, 224160, Note_on_c, 6, 62, 44
11, 224264, Note_on_c, 6, 74, 0
11, 224264, Note_on_c, 6, 62, 0
11, 224280, Note_on_c, 6, 62, 44
11, 224280, Note_on_c, 6, 74, 44
11, 224399, Note_on_c, 6, 62, 0
11, 224399, Note_on_c, 6, 74, 0
11, 229920, Note_on_c, 6, 69, 44
11, 230024, Note_on_c, 6, 69, 0
11, 230040, Note_on_c, 6, 69, 44
11, 230159, Note_on_c, 6, 69, 0
11, 240360, Note_on_c, 6, 69, 76
11, 240360, Note_on_c, 6, 57, 76
11, 240464, Note_on_c, 6, 69, 0
11, 240464, Note_on_c, 6, 57, 0
11, 240480, Note_on_c, 6, 57, 76
11, 240480, Note_on_c, 6, 69, 76
11, 240599, Note_on_c, 6, 57, 0
11, 240599, Note_on_c, 6, 69, 0
11, 240720, Note_on_c, 6, 57, 76
11, 240720, Note_on_c, 6, 69, 76
11, 240824, Note_on_c, 6, 57, 0
11, 240824, Note_on_c, 6, 69, 0
11, 240840, Note_on_c, 6, 57, 76
11, 240840, Note_on_c, 6, 69, 76
11, 240959, Note_on_c, 6, 57, 0
11, 240959, Note_on_c, 6, 69, 0
11, 241080, Note_on_c, 6, 69, 76
11, 241080, Note_on_c, 6, 57, 76
11, 241184, Note_on_c, 6, 69, 0
11, 241184, Note_on_c, 6, 57, 0
11, 241200, Note_on_c, 6, 69, 84
11, 241200, Note_on_c, 6, 57, 84
11, 241304, Note_on_c, 6, 69, 0
11, 241304, Note_on_c, 6, 57, 0
11, 241320, Note_on_c, 6, 69, 84
11, 241320, Note_on_c, 6, 57, 84
11, 241424, Note_on_c, 6, 69, 0
11, 241424, Note_on_c, 6, 57, 0
11, 241440, Note_on_c, 6, 69, 84
11, 241440, Note_on_c, 6, 57, 84
11, 241544, Note_on_c, 6, 69, 0
11, 241544, Note_on_c, 6, 57, 0
11, 241560, Note_on_c, 6, 69, 84
11, 241560, Note_on_c, 6, 57, 84
11, 241664, Note_on_c, 6, 69, 0
11, 241664, Note_on_c, 6, 57, 0
11, 241680, Note_on_c, 6, 69, 84
11, 241680, Note_on_c, 6, 57, 84
11, 241784, Note_on_c, 6, 69, 0
11, 241784, Note_on_c, 6, 57, 0
11, 241800, Note_on_c, 6, 57, 84
11, 241800, Note_on_c, 6, 69, 84
11, 241904, Note_on_c, 6, 57, 0
11, 241904, Note_on_c, 6, 69, 0
11, 241920, Note_on_c, 6, 69, 84
11, 241920, Note_on_c, 6, 57, 84
11, 242024, Note_on_c, 6, 69, 0
11, 242024, Note_on_c, 6, 57, 0
11, 242040, Note_on_c, 6, 57, 84
11, 242040, Note_on_c, 6, 69, 84
11, 242144, Note_on_c, 6, 57, 0
11, 242144, Note_on_c, 6, 69, 0
11, 242160, Note_on_c, 6, 69, 84
11, 242160, Note_on_c, 6, 57, 84
11, 242279, Note_on_c, 6, 69, 0
11, 242279, Note_on_c, 6, 57, 0
11, 243720, Note_on_c, 6, 69, 84
11, 243720, Note_on_c, 6, 57, 84
11, 243824, Note_on_c, 6, 69, 0
11, 243824, Note_on_c, 6, 57, 0
11, 243840, Note_on_c, 6, 57, 84
11, 243840, Note_on_c, 6, 69, 84
11, 243944, Note_on_c, 6, 57, 0
11, 243944, Note_on_c, 6, 69, 0
11, 243960, Note_on_c, 6, 69, 84
11, 243960, Note_on_c, 6, 57, 84
11, 244079, Note_on_c, 6, 69, 0
11, 244079, Note_on_c, 6, 57, 0
11, 253800, Note_on_c, 6, 57, 76
11, 253800, Note_on_c, 6, 69, 76
11, 253904, Note_on_c, 6, 57, 0
11, 253904, Note_on_c, 6, 69, 0
11, 253920, Note_on_c, 6, 69, 76
11, 253920, Note_on_c, 6, 57, 76
11, 254024, Note_on_c, 6, 69, 0
11, 254024, Note_on_c, 6, 57, 0
11, 254040, Note_on_c, 6, 69, 76
11, 254040, Note_on_c, 6, 57, 76
11, 254159, Note_on_c, 6, 69, 0
11, 254159, Note_on_c, 6, 57, 0
11, 254520, Note_on_c, 6, 69, 76
11, 254520, Note_on_c, 6, 57, 76
11, 254624, Note_on_c, 6, 69, 0
11, 254624, Note_on_c, 6, 57, 0
11, 254640, Note_on_c, 6, 57, 76
11, 254640, Note_on_c, 6, 69, 76
11, 254744, Note_on_c, 6, 57, 0
11, 254744, Note_on_c, 6, 69, 0
11, 254760, Note_on_c, 6, 57, 76
11, 254760, Note_on_c, 6, 69, 76
11, 254879, Note_on_c, 6, 57, 0
11, 254879, Note_on_c, 6, 69, 0
11, 255240, Note_on_c, 6, 69, 76
11, 255240, Note_on_c, 6, 57, 76
11, 255344, Note_on_c, 6, 69, 0
11, 255344, Note_on_c, 6, 57, 0
11, 255360, Note_on_c, 6, 69, 76
11, 255360, Note_on_c, 6, 57, 76
11, 255464, Note_on_c, 6, 69, 0
11, 255464, Note_on_c, 6, 57, 0
11, 255480, Note_on_c, 6, 57, 76
11, 255480, Note_on_c, 6, 69, 76
11, 255599, Note_on_c, 6, 57, 0
11, 255599, Note_on_c, 6, 69, 0
11, 255960, Note_on_c, 6, 69, 76
11, 255960, Note_on_c, 6, 57, 76
11, 256064, Note_on_c, 6, 69, 0
11, 256064, Note_on_c, 6, 57, 0
11, 256080, Note_on_c, 6, 57, 76
11, 256080, Note_on_c, 6, 69, 76
11, 256184, Note_on_c, 6, 57, 0
11, 256184, Note_on_c, 6, 69, 0
11, 256200, Note_on_c, 6, 69, 76
11, 256200, Note_on_c, 6, 57, 76
11, 256319, Note_on_c, 6, 69, 0
11, 256319, Note_on_c, 6, 57, 0
11, 256680, Note_on_c, 6, 69, 76
11, 256680, Note_on_c, 6, 57, 76
11, 256784, Note_on_c, 6, 69, 0
11, 256784, Note_on_c, 6, 57, 0
11, 256800, Note_on_c, 6, 69, 76
11, 256800, Note_on_c, 6, 57, 76
11, 256904, Note_on_c, 6, 69, 0
11, 256904, Note_on_c, 6, 57, 0
11, 256920, Note_on_c, 6, 57, 76
11, 256920, Note_on_c, 6, 69, 76
11, 257024, Note_on_c, 6, 57, 0
11, 257024, Note_on_c, 6, 69, 0
11, 257040, Note_on_c, 6, 69, 76
11, 257040, Note_on_c, 6, 57, 76
11, 257144, Note_on_c, 6, 69, 0
11, 257144, Note_on_c, 6, 57, 0
11, 257160, Note_on_c, 6, 57, 76
11, 257160, Note_on_c, 6, 69, 76
11, 257264, Note_on_c, 6, 57, 0
11, 257264, Note_on_c, 6, 69, 0
11, 257280, Note_on_c, 6, 57, 76
11, 257280, Note_on_c, 6, 69, 76
11, 257384, Note_on_c, 6, 57, 0
11, 257384, Note_on_c, 6, 69, 0
11, 257400, Note_on_c, 6, 69, 76
11, 257400, Note_on_c, 6, 57, 76
11, 257519, Note_on_c, 6, 69, 0
11, 257519, Note_on_c, 6, 57, 0
11, 259080, Note_on_c, 6, 69, 76
11, 259184, Note_on_c, 6, 69, 0
11, 259200, Note_on_c, 6, 69, 76
11, 259319, Note_on_c, 6, 69, 0
11, 259440, Note_on_c, 6, 69, 76
11, 259544, Note_on_c, 6, 69, 0
11, 259560, Note_on_c, 6, 69, 76
11, 259679, Note_on_c, 6, 69, 0
11, 259800, Note_on_c, 6, 69, 76
11, 259904, Note_on_c, 6, 69, 0
11, 259920, Note_on_c, 6, 69, 76
11, 260039, Note_on_c, 6, 69, 0
11, 260160, Note_on_c, 6, 69, 76
11, 260264, Note_on_c, 6, 69, 0
11, 260280, Note_on_c, 6, 69, 76
11, 260399, Note_on_c, 6, 69, 0
11, 260520, Note_on_c, 6, 69, 76
11, 260624, Note_on_c, 6, 69, 0
11, 260640, Note_on_c, 6, 69, 76
11, 260759, Note_on_c, 6, 69, 0
11, 303840, Note_on_c, 6, 69, 84
11, 303840, Note_on_c, 6, 81, 84
11, 308739, Note_on_c, 6, 69, 0
11, 308739, Note_on_c, 6, 81, 0
11, 308760, Note_on_c, 6, 81, 84
11, 308760, Note_on_c, 6, 69, 84
11, 308859, Note_on_c, 6, 81, 0
11, 308859, Note_on_c, 6, 69, 0
11, 308880, Note_on_c, 6, 81, 84
11, 308880, Note_on_c, 6, 69, 84
11, 309459, Note_on_c, 6, 81, 0
11, 309459, Note_on_c, 6, 69, 0
11, 309480, Note_on_c, 6, 69, 84
11, 309480, Note_on_c, 6, 81, 84
11, 309579, Note_on_c, 6, 69, 0
11, 309579, Note_on_c, 6, 81, 0
11, 309600, Note_on_c, 6, 69, 84
11, 309600, Note_on_c, 6, 81, 84
11, 314139, Note_on_c, 6, 69, 0
11, 314139, Note_on_c, 6, 81, 0
11, 314160, Note_on_c, 6, 66, 84
11, 314160, Note_on_c, 6, 78, 84
11, 314379, Note_on_c, 6, 66, 0
11, 314379, Note_on_c, 6, 78, 0
11, 314400, Note_on_c, 6, 62, 84
11, 314400, Note_on_c, 6, 74, 84
11, 314619, Note_on_c, 6, 62, 0
11, 314619, Note_on_c, 6, 74, 0
11, 314640, Note_on_c, 6, 69, 84
11, 314640, Note_on_c, 6, 57, 84
11, 314879, Note_on_c, 6, 69, 0
11, 314879, Note_on_c, 6, 57, 0
11, 334080, Note_on_c, 6, 81, 84
11, 334080, Note_on_c, 6, 69, 84
11, 338979, Note_on_c, 6, 81, 0
11, 338979, Note_on_c, 6, 69, 0
11, 339000, Note_on_c, 6, 81, 84
11, 339000, Note_on_c, 6, 69, 84
11, 339099, Note_on_c, 6, 81, 0
11, 339099, Note_on_c, 6, 69, 0
11, 339120, Note_on_c, 6, 69, 84
11, 339120, Note_on_c, 6, 81, 84
11, 339699, Note_on_c, 6, 69, 0
11, 339699, Note_on_c, 6, 81, 0
11, 339720, Note_on_c, 6, 81, 84
11, 339720, Note_on_c, 6, 69, 84
11, 339819, Note_on_c, 6, 81, 0
11, 339819, Note_on_c, 6, 69, 0
11, 339840, Note_on_c, 6, 81, 84
11, 339840, Note_on_c, 6, 69, 84
11, 344379, Note_on_c, 6, 81, 0
11, 344379, Note_on_c, 6, 69, 0
11, 344400, Note_on_c, 6, 78, 84
11, 344400, Note_on_c, 6, 66, 84
11, 344619, Note_on_c, 6, 78, 0
11, 344619, Note_on_c, 6, 66, 0
11, 344640, Note_on_c, 6, 62, 84
11, 344640, Note_on_c, 6, 74, 84
11, 344859, Note_on_c, 6, 62, 0
11, 344859, Note_on_c, 6, 74, 0
11, 344880, Note_on_c, 6, 69, 84
11, 344880, Note_on_c, 6, 57, 84
11, 345119, Note_on_c, 6, 69, 0
11, 345119, Note_on_c, 6, 57, 0
11, 355440, Note_on_c, 6, 69, 76
11, 355544, Note_on_c, 6, 69, 0
11, 355560, Note_on_c, 6, 69, 76
11, 355679, Note_on_c, 6, 69, 0
11, 355800, Note_on_c, 6, 69, 76
11, 355904, Note_on_c, 6, 69, 0
11, 355920, Note_on_c, 6, 69, 76
11, 356039, Note_on_c, 6, 69, 0
11, 356160, Note_on_c, 6, 69, 76
11, 356264, Note_on_c, 6, 69, 0
11, 356280, Note_on_c, 6, 69, 52
11, 356399, Note_on_c, 6, 69, 0
11, 361320, Note_on_c, 6, 76, 76
11, 361664, Note_on_c, 6, 76, 0
11, 361680, Note_on_c, 6, 57, 76
11, 361680, Note_on_c, 6, 69, 76
11, 361784, Note_on_c, 6, 57, 0
11, 361784, Note_on_c, 6, 69, 0
11, 361800, Note_on_c, 6, 69, 76
11, 361800, Note_on_c, 6, 57, 76
11, 361904, Note_on_c, 6, 69, 0
11, 361904, Note_on_c, 6, 57, 0
11, 361920, Note_on_c, 6, 57, 76
11, 361920, Note_on_c, 6, 69, 76
11, 362024, Note_on_c, 6, 57, 0
11, 362024, Note_on_c, 6, 69, 0
11, 362040, Note_on_c, 6, 76, 76
11, 362384, Note_on_c, 6, 76, 0
11, 362400, Note_on_c, 6, 57, 76
11, 362400, Note_on_c, 6, 69, 76
11, 362504, Note_on_c, 6, 57, 0
11, 362504, Note_on_c, 6, 69, 0
11, 362520, Note_on_c, 6, 69, 76
11, 362520, Note_on_c, 6, 57, 76
11, 362624, Note_on_c, 6, 69, 0
11, 362624, Note_on_c, 6, 57, 0
11, 362640, Note_on_c, 6, 57, 76
11, 362640, Note_on_c, 6, 69, 76
11, 362744, Note_on_c, 6, 57, 0
11, 362744, Note_on_c, 6, 69, 0
11, 362760, Note_on_c, 6, 76, 76
11, 363104, Note_on_c, 6, 76, 0
11, 363120, Note_on_c, 6, 69, 76
11, 363120, Note_on_c, 6, 57, 76
11, 363224, Note_on_c, 6, 69, 0
11, 363224, Note_on_c, 6, 57, 0
11, 363240, Note_on_c, 6, 57, 76
11, 363240, Note_on_c, 6, 69, 76
11, 363344, Note_on_c, 6, 57, 0
11, 363344, Note_on_c, 6, 69, 0
11, 363360, Note_on_c, 6, 57, 76
11, 363360, Note_on_c, 6, 69, 76
11, 363464, Note_on_c, 6, 57, 0
11, 363464, Note_on_c, 6, 69, 0
11, 363480, Note_on_c, 6, 57, 76
11, 363480, Note_on_c, 6, 69, 76
11, 363584, Note_on_c, 6, 57, 0
11, 363584, Note_on_c, 6, 69, 0
11, 363600, Note_on_c, 6, 57, 76
11, 363600, Note_on_c, 6, 69, 76
11, 363704, Note_on_c, 6, 57, 0
11, 363704, Note_on_c, 6, 69, 0
11, 363720, Note_on_c, 6, 69, 76
11, 363720, Note_on_c, 6, 57, 76
11, 363824, Note_on_c, 6, 69, 0
11, 363824, Note_on_c, 6, 57, 0
11, 363840, Note_on_c, 6, 69, 76
11, 363840, Note_on_c, 6, 57, 76
11, 363959, Note_on_c, 6, 69, 0
11, 363959, Note_on_c, 6, 57, 0
11, 370920, Note_on_c, 6, 62, 84
11, 370920, Note_on_c, 6, 74, 84
11, 371024, Note_on_c, 6, 62, 0
11, 371024, Note_on_c, 6, 74, 0
11, 371040, Note_on_c, 6, 74, 84
11, 371040, Note_on_c, 6, 62, 84
11, 371159, Note_on_c, 6, 74, 0
11, 371159, Note_on_c, 6, 62, 0
11, 376680, Note_on_c, 6, 69, 84
11, 376784, Note_on_c, 6, 69, 0
11, 376800, Note_on_c, 6, 69, 84
11, 376919, Note_on_c, 6, 69, 0
11, 387120, Note_on_c, 6, 69, 76
11, 387120, Note_on_c, 6, 57, 76
11, 387224, Note_on_c, 6, 69, 0
11, 387224, Note_on_c, 6, 57, 0
11, 387240, Note_on_c, 6, 57, 76
11, 387240, Note_on_c, 6, 69, 76
11, 387359, Note_on_c, 6, 57, 0
11, 387359, Note_on_c, 6, 69, 0
11, 387480, Note_on_c, 6, 69, 76
11, 387480, Note_on_c, 6, 57, 76
11, 387584, Note_on_c, 6, 69, 0
11, 387584, Note_on_c, 6, 57, 0
11, 387600, Note_on_c, 6, 69, 76
11, 387600, Note_on_c, 6, 57, 76
11, 387719, Note_on_c, 6, 69, 0
11, 387719, Note_on_c, 6, 57, 0
11, 387840, Note_on_c, 6, 69, 76
11, 387840, Note_on_c, 6, 57, 76
11, 387944, Note_on_c, 6, 69, 0
11, 387944, Note_on_c, 6, 57, 0
11, 387960, Note_on_c, 6, 69, 84
11, 387960, Note_on_c, 6, 57, 84
11, 388064, Note_on_c, 6, 69, 0
11, 388064, Note_on_c, 6, 57, 0
11, 388080, Note_on_c, 6, 57, 84
11, 388080, Note_on_c, 6, 69, 84
11, 388184, Note_on_c, 6, 57, 0
11, 388184, Note_on_c, 6, 69, 0
11, 388200, Note_on_c, 6, 57, 84
11, 388200, Note_on_c, 6, 69, 84
11, 388304, Note_on_c, 6, 57, 0
11, 388304, Note_on_c, 6, 69, 0
11, 388320, Note_on_c, 6, 69, 84
11, 388320, Note_on_c, 6, 57, 84
11, 388424, Note_on_c, 6, 69, 0
11, 388424, Note_on_c, 6, 57, 0
11, 388440, Note_on_c, 6, 57, 84
11, 388440, Note_on_c, 6, 69, 84
11, 388544, Note_on_c, 6, 57, 0
11, 388544, Note_on_c, 6, 69, 0
11, 388560, Note_on_c, 6, 57, 84
11, 388560, Note_on_c, 6, 69, 84
11, 388664, Note_on_c, 6, 57, 0
11, 388664, Note_on_c, 6, 69, 0
11, 388680, Note_on_c, 6, 69, 84
11, 388680, Note_on_c, 6, 57, 84
11, 388784, Note_on_c, 6, 69, 0
11, 388784, Note_on_c, 6, 57, 0
11, 388800, Note_on_c, 6, 69, 84
11, 388800, Note_on_c, 6, 57, 84
11, 388904, Note_on_c, 6, 69, 0
11, 388904, Note_on_c, 6, 57, 0
11, 388920, Note_on_c, 6, 57, 84
11, 388920, Note_on_c, 6, 69, 84
11, 389039, Note_on_c, 6, 57, 0
11, 389039, Note_on_c, 6, 69, 0
11, 390480, Note_on_c, 6, 57, 84
11, 390480, Note_on_c, 6, 69, 84
11, 390584, Note_on_c, 6, 57, 0
11, 390584, Note_on_c, 6, 69, 0
11, 390600, Note_on_c, 6, 57, 84
11, 390600, Note_on_c, 6, 69, 84
11, 390704, Note_on_c, 6, 57, 0
11, 390704, Note_on_c, 6, 69, 0
11, 390720, Note_on_c, 6, 69, 84
11, 390720, Note_on_c, 6, 57, 84
11, 390839, Note_on_c, 6, 69, 0
11, 390839, Note_on_c, 6, 57, 0
11, 400560, Note_on_c, 6, 57, 76
11, 400560, Note_on_c, 6, 69, 76
11, 400664, Note_on_c, 6, 57, 0
11, 400664, Note_on_c, 6, 69, 0
11, 400680, Note_on_c, 6, 57, 76
11, 400680, Note_on_c, 6, 69, 76
11, 400784, Note_on_c, 6, 57, 0
11, 400784, Note_on_c, 6, 69, 0
11, 400800, Note_on_c, 6, 57, 76
11, 400800, Note_on_c, 6, 69, 76
11, 400919, Note_on_c, 6, 57, 0
11, 400919, Note_on_c, 6, 69, 0
11, 401280, Note_on_c, 6, 57, 76
11, 401280, Note_on_c, 6, 69, 76
11, 401384, Note_on_c, 6, 57, 0
11, 401384, Note_on_c, 6, 69, 0
11, 401400, Note_on_c, 6, 57, 76
11, 401400, Note_on_c, 6, 69, 76
11, 401504, Note_on_c, 6, 57, 0
11, 401504, Note_on_c, 6, 69, 0
11, 401520, Note_on_c, 6, 69, 76
11, 401520, Note_on_c, 6, 57, 76
11, 401639, Note_on_c, 6, 69, 0
11, 401639, Note_on_c, 6, 57, 0
11, 402000, Note_on_c, 6, 69, 76
11, 402000, Note_on_c, 6, 57, 76
11, 402104, Note_on_c, 6, 69, 0
11, 402104, Note_on_c, 6, 57, 0
11, 402120, Note_on_c, 6, 69, 76
11, 402120, Note_on_c, 6, 57, 76
11, 402224, Note_on_c, 6, 69, 0
11, 402224, Note_on_c, 6, 57, 0
11, 402240, Note_on_c, 6, 69, 76
11, 402240, Note_on_c, 6, 57, 76
11, 402359, Note_on_c, 6, 69, 0
11, 402359, Note_on_c, 6, 57, 0
11, 402720, Note_on_c, 6, 69, 76
11, 402720, Note_on_c, 6, 57, 76
11, 402824, Note_on_c, 6, 69, 0
11, 402824, Note_on_c, 6, 57, 0
11, 402840, Note_on_c, 6, 57, 76
11, 402840, Note_on_c, 6, 69, 76
11, 402944, Note_on_c, 6, 57, 0
11, 402944, Note_on_c, 6, 69, 0
11, 402960, Note_on_c, 6, 57, 76
11, 402960, Note_on_c, 6, 69, 76
11, 403079, Note_on_c, 6, 57, 0
11, 403079, Note_on_c, 6, 69, 0
11, 403440, Note_on_c, 6, 57, 76
11, 403440, Note_on_c, 6, 69, 76
11, 403544, Note_on_c, 6, 57, 0
11, 403544, Note_on_c, 6, 69, 0
11, 403560, Note_on_c, 6, 69, 76
11, 403560, Note_on_c, 6, 57, 76
11, 403664, Note_on_c, 6, 69, 0
11, 403664, Note_on_c, 6, 57, 0
11, 403680, Note_on_c, 6, 69, 76
11, 403680, Note_on_c, 6, 57, 76
11, 403784, Note_on_c, 6, 69, 0
11, 403784, Note_on_c, 6, 57, 0
11, 403800, Note_on_c, 6, 69, 76
11, 403800, Note_on_c, 6, 57, 76
11, 403904, Note_on_c, 6, 69, 0
11, 403904, Note_on_c, 6, 57, 0
11, 403920, Note_on_c, 6, 57, 76
11, 403920, Note_on_c, 6, 69, 76
11, 404024, Note_on_c, 6, 57, 0
11, 404024, Note_on_c, 6, 69, 0
11, 404040, Note_on_c, 6, 57, 76
11, 404040, Note_on_c, 6, 69, 76
11, 404144, Note_on_c, 6, 57, 0
11, 404144, Note_on_c, 6, 69, 0
11, 404160, Note_on_c, 6, 69, 76
11, 404160, Note_on_c, 6, 57, 76
11, 404279, Note_on_c, 6, 69, 0
11, 404279, Note_on_c, 6, 57, 0
11, 405840, Note_on_c, 6, 69, 84
11, 405944, Note_on_c, 6, 69, 0
11, 405960, Note_on_c, 6, 69, 84
11, 406079, Note_on_c, 6, 69, 0
11, 406200, Note_on_c, 6, 69, 84
11, 406304, Note_on_c, 6, 69, 0
11, 406320, Note_on_c, 6, 69, 84
11, 406439, Note_on_c, 6, 69, 0
11, 406560, Note_on_c, 6, 69, 84
11, 406664, Note_on_c, 6, 69, 0
11, 406680, Note_on_c, 6, 69, 84
11, 406799, Note_on_c, 6, 69, 0
11, 406920, Note_on_c, 6, 69, 84
11, 407024, Note_on_c, 6, 69, 0
11, 407040, Note_on_c, 6, 69, 84
11, 407159, Note_on_c, 6, 69, 0
11, 407280, Note_on_c, 6, 69, 84
11, 407384, Note_on_c, 6, 69, 0
11, 407400, Note_on_c, 6, 69, 84
11, 407519, Note_on_c, 6, 69, 0
11, 411720, Note_on_c, 6, 74, 84
11, 411720, Note_on_c, 6, 62, 84
11, 411839, Note_on_c, 6, 74, 0
11, 411839, Note_on_c, 6, 62, 0
11, 412080, Note_on_c, 6, 74, 84
11, 412080, Note_on_c, 6, 62, 84
11, 412199, Note_on_c, 6, 74, 0
11, 412199, Note_on_c, 6, 62, 0
11, 412800, Note_on_c, 6, 76, 84
11, 412919, Note_on_c, 6, 76, 0
11, 413160, Note_on_c, 6, 57, 84
11, 413160, Note_on_c, 6, 69, 84
11, 413279, Note_on_c, 6, 57, 0
11, 413279, Note_on_c, 6, 69, 0
11, 413279, End_track
12, 0, Start_track
12, 0, Title_t, "Timpani"
12, 0, MIDI_port, 0
12, 0, Program_c, 8, 47
12, 0, Control_c, 8, 7, 96
12, 0, Control_c, 8, 10, 25
12, 0, Control_c, 8, 11, 127
12, 0, Note_on_c, 8, 53, 76
12, 119, Note_on_c, 8, 53, 0
12, 120, Note_on_c, 8, 53, 76
12, 239, Note_on_c, 8, 53, 0
12, 360, Note_on_c, 8, 53, 76
12, 479, Note_on_c, 8, 53, 0
12, 480, Note_on_c, 8, 53, 76
12, 599, Note_on_c, 8, 53, 0
12, 720, Note_on_c, 8, 53, 76
12, 839, Note_on_c, 8, 53, 0
12, 840, Note_on_c, 8, 53, 52
12, 959, Note_on_c, 8, 53, 0
12, 6240, Note_on_c, 8, 45, 76
12, 6359, Note_on_c, 8, 45, 0
12, 6360, Note_on_c, 8, 45, 76
12, 6479, Note_on_c, 8, 45, 0
12, 6480, Note_on_c, 8, 45, 76
12, 6599, Note_on_c, 8, 45, 0
12, 6960, Note_on_c, 8, 45, 76
12, 7079, Note_on_c, 8, 45, 0
12, 7080, Note_on_c, 8, 45, 76
12, 7199, Note_on_c, 8, 45, 0
12, 7200, Note_on_c, 8, 45, 76
12, 7319, Note_on_c, 8, 45, 0
12, 7680, Note_on_c, 8, 45, 76
12, 7799, Note_on_c, 8, 45, 0
12, 7800, Note_on_c, 8, 45, 76
12, 7919, Note_on_c, 8, 45, 0
12, 7920, Note_on_c, 8, 45, 76
12, 8039, Note_on_c, 8, 45, 0
12, 8040, Note_on_c, 8, 45, 76
12, 8159, Note_on_c, 8, 45, 0
12, 8160, Note_on_c, 8, 45, 76
12, 8279, Note_on_c, 8, 45, 0
12, 8280, Note_on_c, 8, 45, 76
12, 8399, Note_on_c, 8, 45, 0
12, 8400, Note_on_c, 8, 45, 76
12, 8519, Note_on_c, 8, 45, 0
12, 8640, Note_on_c, 8, 53, 76
12, 8759, Note_on_c, 8, 53, 0
12, 8760, Note_on_c, 8, 53, 76
12, 8879, Note_on_c, 8, 53, 0
12, 9000, Note_on_c, 8, 53, 76
12, 9119, Note_on_c, 8, 53, 0
12, 9120, Note_on_c, 8, 53, 76
12, 9239, Note_on_c, 8, 53, 0
12, 9360, Note_on_c, 8, 53, 76
12, 9479, Note_on_c, 8, 53, 0
12, 9480, Note_on_c, 8, 53, 52
12, 9599, Note_on_c, 8, 53, 0
12, 14880, Note_on_c, 8, 45, 76
12, 14999, Note_on_c, 8, 45, 0
12, 15000, Note_on_c, 8, 45, 76
12, 15119, Note_on_c, 8, 45, 0
12, 15120, Note_on_c, 8, 45, 76
12, 15239, Note_on_c, 8, 45, 0
12, 15600, Note_on_c, 8, 45, 76
12, 15719, Note_on_c, 8, 45, 0
12, 15720, Note_on_c, 8, 45, 76
12, 15839, Note_on_c, 8, 45, 0
12, 15840, Note_on_c, 8, 45, 76
12, 15959, Note_on_c, 8, 45, 0
12, 16320, Note_on_c, 8, 45, 76
12, 16439, Note_on_c, 8, 45, 0
12, 16440, Note_on_c, 8, 45, 76
12, 16559, Note_on_c, 8, 45, 0
12, 16560, Note_on_c, 8, 45, 76
12, 16679, Note_on_c, 8, 45, 0
12, 16680, Note_on_c, 8, 45, 76
12, 16799, Note_on_c, 8, 45, 0
12, 16800, Note_on_c, 8, 45, 76
12, 16919, Note_on_c, 8, 45, 0
12, 16920, Note_on_c, 8, 45, 76
12, 17039, Note_on_c, 8, 45, 0
12, 17040, Note_on_c, 8, 45, 76
12, 17159, Note_on_c, 8, 45, 0
12, 17280, Note_on_c, 8, 45, 76
12, 17399, Note_on_c, 8, 45, 0
12, 17400, Note_on_c, 8, 45, 76
12, 17519, Note_on_c, 8, 45, 0
12, 29880, Note_on_c, 8, 53, 84
12, 29999, Note_on_c, 8, 53, 0
12, 30000, Note_on_c, 8, 53, 84
12, 30119, Note_on_c, 8, 53, 0
12, 40320, Note_on_c, 8, 53, 76
12, 40439, Note_on_c, 8, 53, 0
12, 40440, Note_on_c, 8, 53, 76
12, 40559, Note_on_c, 8, 53, 0
12, 40680, Note_on_c, 8, 53, 76
12, 40799, Note_on_c, 8, 53, 0
12, 40800, Note_on_c, 8, 53, 76
12, 40919, Note_on_c, 8, 53, 0
12, 41040, Note_on_c, 8, 53, 76
12, 41159, Note_on_c, 8, 53, 0
12, 41160, Note_on_c, 8, 53, 84
12, 41279, Note_on_c, 8, 53, 0
12, 41280, Note_on_c, 8, 53, 84
12, 41399, Note_on_c, 8, 53, 0
12, 41400, Note_on_c, 8, 53, 84
12, 41519, Note_on_c, 8, 53, 0
12, 41520, Note_on_c, 8, 53, 84
12, 41639, Note_on_c, 8, 53, 0
12, 41640, Note_on_c, 8, 53, 84
12, 41759, Note_on_c, 8, 53, 0
12, 41760, Note_on_c, 8, 53, 84
12, 41879, Note_on_c, 8, 53, 0
12, 41880, Note_on_c, 8, 53, 84
12, 41999, Note_on_c, 8, 53, 0
12, 42000, Note_on_c, 8, 53, 84
12, 42119, Note_on_c, 8, 53, 0
12, 42120, Note_on_c, 8, 53, 84
12, 42239, Note_on_c, 8, 53, 0
12, 43680, Note_on_c, 8, 53, 84
12, 43799, Note_on_c, 8, 53, 0
12, 43800, Note_on_c, 8, 53, 84
12, 43919, Note_on_c, 8, 53, 0
12, 43920, Note_on_c, 8, 53, 84
12, 44039, Note_on_c, 8, 53, 0
12, 44760, Note_on_c, 8, 53, 44
12, 44879, Note_on_c, 8, 53, 0
12, 44880, Note_on_c, 8, 53, 44
12, 44999, Note_on_c, 8, 53, 0
12, 45000, Note_on_c, 8, 53, 44
12, 45119, Note_on_c, 8, 53, 0
12, 46560, Note_on_c, 8, 53, 44
12, 46679, Note_on_c, 8, 53, 0
12, 46680, Note_on_c, 8, 53, 44
12, 46799, Note_on_c, 8, 53, 0
12, 46800, Note_on_c, 8, 53, 44
12, 46919, Note_on_c, 8, 53, 0
12, 53760, Note_on_c, 8, 53, 76
12, 53879, Note_on_c, 8, 53, 0
12, 53880, Note_on_c, 8, 53, 76
12, 53999, Note_on_c, 8, 53, 0
12, 54000, Note_on_c, 8, 53, 76
12, 54119, Note_on_c, 8, 53, 0
12, 54480, Note_on_c, 8, 53, 76
12, 54599, Note_on_c, 8, 53, 0
12, 54600, Note_on_c, 8, 53, 76
12, 54719, Note_on_c, 8, 53, 0
12, 54720, Note_on_c, 8, 53, 76
12, 54839, Note_on_c, 8, 53, 0
12, 55200, Note_on_c, 8, 53, 76
12, 55319, Note_on_c, 8, 53, 0
12, 55320, Note_on_c, 8, 53, 76
12, 55439, Note_on_c, 8, 53, 0
12, 55440, Note_on_c, 8, 53, 76
12, 55559, Note_on_c, 8, 53, 0
12, 55920, Note_on_c, 8, 53, 76
12, 56039, Note_on_c, 8, 53, 0
12, 56040, Note_on_c, 8, 53, 76
12, 56159, Note_on_c, 8, 53, 0
12, 56160, Note_on_c, 8, 53, 76
12, 56279, Note_on_c, 8, 53, 0
12, 56640, Note_on_c, 8, 53, 76
12, 56759, Note_on_c, 8, 53, 0
12, 56760, Note_on_c, 8, 53, 76
12, 56879, Note_on_c, 8, 53, 0
12, 56880, Note_on_c, 8, 53, 76
12, 56999, Note_on_c, 8, 53, 0
12, 57000, Note_on_c, 8, 53, 76
12, 57119, Note_on_c, 8, 53, 0
12, 57120, Note_on_c, 8, 53, 76
12, 57239, Note_on_c, 8, 53, 0
12, 57240, Note_on_c, 8, 53, 76
12, 57359, Note_on_c, 8, 53, 0
12, 57360, Note_on_c, 8, 53, 76
12, 57479, Note_on_c, 8, 53, 0
12, 57600, Note_on_c, 8, 53, 76
12, 57719, Note_on_c, 8, 53, 0
12, 57720, Note_on_c, 8, 53, 76
12, 57839, Note_on_c, 8, 53, 0
12, 59040, Note_on_c, 8, 53, 84
12, 59159, Note_on_c, 8, 53, 0
12, 59160, Note_on_c, 8, 45, 84
12, 59279, Note_on_c, 8, 45, 0
12, 59400, Note_on_c, 8, 53, 84
12, 59519, Note_on_c, 8, 53, 0
12, 59520, Note_on_c, 8, 45, 84
12, 59639, Note_on_c, 8, 45, 0
12, 59760, Note_on_c, 8, 53, 84
12, 59879, Note_on_c, 8, 53, 0
12, 59880, Note_on_c, 8, 45, 84
12, 59999, Note_on_c, 8, 45, 0
12, 60120, Note_on_c, 8, 53, 84
12, 60239, Note_on_c, 8, 53, 0
12, 60240, Note_on_c, 8, 45, 84
12, 60359, Note_on_c, 8, 45, 0
12, 60480, Note_on_c, 8, 53, 84
12, 60599, Note_on_c, 8, 53, 0
12, 60600, Note_on_c, 8, 45, 84
12, 60719, Note_on_c, 8, 45, 0
12, 61920, Note_on_c, 8, 45, 76
12, 62039, Note_on_c, 8, 45, 0
12, 62040, Note_on_c, 8, 45, 76
12, 62159, Note_on_c, 8, 45, 0
12, 74520, Note_on_c, 8, 53, 84
12, 74639, Note_on_c, 8, 53, 0
12, 74640, Note_on_c, 8, 53, 84
12, 74759, Note_on_c, 8, 53, 0
12, 84960, Note_on_c, 8, 53, 76
12, 85079, Note_on_c, 8, 53, 0
12, 85080, Note_on_c, 8, 53, 76
12, 85199, Note_on_c, 8, 53, 0
12, 85320, Note_on_c, 8, 53, 76
12, 85439, Note_on_c, 8, 53, 0
12, 85440, Note_on_c, 8, 53, 76
12, 85559, Note_on_c, 8, 53, 0
12, 85680, Note_on_c, 8, 53, 76
12, 85799, Note_on_c, 8, 53, 0
12, 85800, Note_on_c, 8, 53, 84
12, 85919, Note_on_c, 8, 53, 0
12, 85920, Note_on_c, 8, 53, 84
12, 86039, Note_on_c, 8, 53, 0
12, 86040, Note_on_c, 8, 53, 84
12, 86159, Note_on_c, 8, 53, 0
12, 86160, Note_on_c, 8, 53, 84
12, 86279, Note_on_c, 8, 53, 0
12, 86280, Note_on_c, 8, 53, 84
12, 86399, Note_on_c, 8, 53, 0
12, 86400, Note_on_c, 8, 53, 84
12, 86519, Note_on_c, 8, 53, 0
12, 86520, Note_on_c, 8, 53, 84
12, 86639, Note_on_c, 8, 53, 0
12, 86640, Note_on_c, 8, 53, 84
12, 86759, Note_on_c, 8, 53, 0
12, 86760, Note_on_c, 8, 53, 84
12, 86879, Note_on_c, 8, 53, 0
12, 88320, Note_on_c, 8, 53, 84
12, 88439, Note_on_c, 8, 53, 0
12, 88440, Note_on_c, 8, 53, 84
12, 88559, Note_on_c, 8, 53, 0
12, 88560, Note_on_c, 8, 53, 84
12, 88679, Note_on_c, 8, 53, 0
12, 89400, Note_on_c, 8, 53, 44
12, 89519, Note_on_c, 8, 53, 0
12, 89520, Note_on_c, 8, 53, 44
12, 89639, Note_on_c, 8, 53, 0
12, 89640, Note_on_c, 8, 53, 44
12, 89759, Note_on_c, 8, 53, 0
12, 91200, Note_on_c, 8, 53, 44
12, 91319, Note_on_c, 8, 53, 0
12, 91320, Note_on_c, 8, 53, 44
12, 91439, Note_on_c, 8, 53, 0
12, 91440, Note_on_c, 8, 53, 44
12, 91559, Note_on_c, 8, 53, 0
12, 98400, Note_on_c, 8, 53, 76
12, 98519, Note_on_c, 8, 53, 0
12, 98520, Note_on_c, 8, 53, 76
12, 98639, Note_on_c, 8, 53, 0
12, 98640, Note_on_c, 8, 53, 76
12, 98759, Note_on_c, 8, 53, 0
12, 99120, Note_on_c, 8, 53, 76
12, 99239, Note_on_c, 8, 53, 0
12, 99240, Note_on_c, 8, 53, 76
12, 99359, Note_on_c, 8, 53, 0
12, 99360, Note_on_c, 8, 53, 76
12, 99479, Note_on_c, 8, 53, 0
12, 99840, Note_on_c, 8, 53, 76
12, 99959, Note_on_c, 8, 53, 0
12, 99960, Note_on_c, 8, 53, 76
12, 100079, Note_on_c, 8, 53, 0
12, 100080, Note_on_c, 8, 53, 76
12, 100199, Note_on_c, 8, 53, 0
12, 100560, Note_on_c, 8, 53, 76
12, 100679, Note_on_c, 8, 53, 0
12, 100680, Note_on_c, 8, 53, 76
12, 100799, Note_on_c, 8, 53, 0
12, 100800, Note_on_c, 8, 53, 76
12, 100919, Note_on_c, 8, 53, 0
12, 101280, Note_on_c, 8, 53, 76
12, 101399, Note_on_c, 8, 53, 0
12, 101400, Note_on_c, 8, 53, 76
12, 101519, Note_on_c, 8, 53, 0
12, 101520, Note_on_c, 8, 53, 76
12, 101639, Note_on_c, 8, 53, 0
12, 101640, Note_on_c, 8, 53, 76
12, 101759, Note_on_c, 8, 53, 0
12, 101760, Note_on_c, 8, 53, 76
12, 101879, Note_on_c, 8, 53, 0
12, 101880, Note_on_c, 8, 53, 76
12, 101999, Note_on_c, 8, 53, 0
12, 102000, Note_on_c, 8, 53, 76
12, 102119, Note_on_c, 8, 53, 0
12, 102240, Note_on_c, 8, 53, 76
12, 102359, Note_on_c, 8, 53, 0
12, 102360, Note_on_c, 8, 53, 76
12, 102479, Note_on_c, 8, 53, 0
12, 103680, Note_on_c, 8, 53, 84
12, 103799, Note_on_c, 8, 53, 0
12, 103800, Note_on_c, 8, 45, 84
12, 103919, Note_on_c, 8, 45, 0
12, 104040, Note_on_c, 8, 53, 84
12, 104159, Note_on_c, 8, 53, 0
12, 104160, Note_on_c, 8, 45, 84
12, 104279, Note_on_c, 8, 45, 0
12, 104400, Note_on_c, 8, 53, 84
12, 104519, Note_on_c, 8, 53, 0
12, 104520, Note_on_c, 8, 45, 84
12, 104639, Note_on_c, 8, 45, 0
12, 104760, Note_on_c, 8, 53, 84
12, 104879, Note_on_c, 8, 53, 0
12, 104880, Note_on_c, 8, 45, 84
12, 104999, Note_on_c, 8, 45, 0
12, 105120, Note_on_c, 8, 53, 84
12, 105239, Note_on_c, 8, 53, 0
12, 105240, Note_on_c, 8, 45, 84
12, 105359, Note_on_c, 8, 45, 0
12, 148440, Note_on_c, 8, 45, 80
12, 148499, Note_on_c, 8, 45, 0
12, 148500, Note_on_c, 8, 45, 84
12, 148559, Note_on_c, 8, 45, 0
12, 148560, Note_on_c, 8, 45, 81
12, 148619, Note_on_c, 8, 45, 0
12, 148620, Note_on_c, 8, 45, 86
12, 148679, Note_on_c, 8, 45, 0
12, 148680, Note_on_c, 8, 45, 84
12, 148739, Note_on_c, 8, 45, 0
12, 148740, Note_on_c, 8, 45, 83
12, 148799, Note_on_c, 8, 45, 0
12, 148800, Note_on_c, 8, 45, 82
12, 148859, Note_on_c, 8, 45, 0
12, 148860, Note_on_c, 8, 45, 87
12, 148919, Note_on_c, 8, 45, 0
12, 148920, Note_on_c, 8, 45, 86
12, 148979, Note_on_c, 8, 45, 0
12, 148980, Note_on_c, 8, 45, 85
12, 149039, Note_on_c, 8, 45, 0
12, 149040, Note_on_c, 8, 45, 81
12, 149099, Note_on_c, 8, 45, 0
12, 149100, Note_on_c, 8, 45, 86
12, 149159, Note_on_c, 8, 45, 0
12, 149160, Note_on_c, 8, 45, 85
12, 149219, Note_on_c, 8, 45, 0
12, 149220, Note_on_c, 8, 45, 84
12, 149279, Note_on_c, 8, 45, 0
12, 149280, Note_on_c, 8, 45, 82
12, 149339, Note_on_c, 8, 45, 0
12, 149340, Note_on_c, 8, 45, 80
12, 149399, Note_on_c, 8, 45, 0
12, 149400, Note_on_c, 8, 45, 80
12, 149459, Note_on_c, 8, 45, 0
12, 149460, Note_on_c, 8, 45, 82
12, 149519, Note_on_c, 8, 45, 0
12, 149520, Note_on_c, 8, 45, 81
12, 149579, Note_on_c, 8, 45, 0
12, 149580, Note_on_c, 8, 45, 81
12, 149639, Note_on_c, 8, 45, 0
12, 149640, Note_on_c, 8, 45, 87
12, 149699, Note_on_c, 8, 45, 0
12, 149700, Note_on_c, 8, 45, 83
12, 149759, Note_on_c, 8, 45, 0
12, 149760, Note_on_c, 8, 45, 80
12, 149819, Note_on_c, 8, 45, 0
12, 149820, Note_on_c, 8, 45, 80
12, 149879, Note_on_c, 8, 45, 0
12, 149880, Note_on_c, 8, 45, 80
12, 149939, Note_on_c, 8, 45, 0
12, 149940, Note_on_c, 8, 45, 83
12, 149999, Note_on_c, 8, 45, 0
12, 150000, Note_on_c, 8, 45, 84
12, 150059, Note_on_c, 8, 45, 0
12, 150060, Note_on_c, 8, 45, 84
12, 150119, Note_on_c, 8, 45, 0
12, 150120, Note_on_c, 8, 45, 84
12, 150179, Note_on_c, 8, 45, 0
12, 150180, Note_on_c, 8, 45, 84
12, 150239, Note_on_c, 8, 45, 0
12, 150240, Note_on_c, 8, 45, 81
12, 150299, Note_on_c, 8, 45, 0
12, 150300, Note_on_c, 8, 45, 85
12, 150359, Note_on_c, 8, 45, 0
12, 150360, Note_on_c, 8, 45, 83
12, 150419, Note_on_c, 8, 45, 0
12, 150420, Note_on_c, 8, 45, 82
12, 150479, Note_on_c, 8, 45, 0
12, 150480, Note_on_c, 8, 45, 80
12, 150539, Note_on_c, 8, 45, 0
12, 150540, Note_on_c, 8, 45, 84
12, 150599, Note_on_c, 8, 45, 0
12, 150600, Note_on_c, 8, 45, 86
12, 150659, Note_on_c, 8, 45, 0
12, 150660, Note_on_c, 8, 45, 86
12, 150719, Note_on_c, 8, 45, 0
12, 150720, Note_on_c, 8, 45, 84
12, 150779, Note_on_c, 8, 45, 0
12, 150780, Note_on_c, 8, 45, 82
12, 150839, Note_on_c, 8, 45, 0
12, 150840, Note_on_c, 8, 45, 87
12, 150899, Note_on_c, 8, 45, 0
12, 150900, Note_on_c, 8, 45, 85
12, 150959, Note_on_c, 8, 45, 0
12, 150960, Note_on_c, 8, 45, 87
12, 151019, Note_on_c, 8, 45, 0
12, 151020, Note_on_c, 8, 45, 87
12, 151079, Note_on_c, 8, 45, 0
12, 151080, Note_on_c, 8, 45, 84
12, 151139, Note_on_c, 8, 45, 0
12, 151140, Note_on_c, 8, 45, 81
12, 151199, Note_on_c, 8, 45, 0
12, 151200, Note_on_c, 8, 45, 83
12, 151259, Note_on_c, 8, 45, 0
12, 151260, Note_on_c, 8, 45, 81
12, 151319, Note_on_c, 8, 45, 0
12, 151320, Note_on_c, 8, 45, 86
12, 151379, Note_on_c, 8, 45, 0
12, 151380, Note_on_c, 8, 45, 81
12, 151439, Note_on_c, 8, 45, 0
12, 151440, Note_on_c, 8, 45, 86
12, 151499, Note_on_c, 8, 45, 0
12, 151500, Note_on_c, 8, 45, 86
12, 151559, Note_on_c, 8, 45, 0
12, 151560, Note_on_c, 8, 45, 87
12, 151619, Note_on_c, 8, 45, 0
12, 151620, Note_on_c, 8, 45, 87
12, 151679, Note_on_c, 8, 45, 0
12, 151680, Note_on_c, 8, 45, 84
12, 151739, Note_on_c, 8, 45, 0
12, 151740, Note_on_c, 8, 45, 83
12, 151799, Note_on_c, 8, 45, 0
12, 151800, Note_on_c, 8, 45, 82
12, 151859, Note_on_c, 8, 45, 0
12, 151860, Note_on_c, 8, 45, 82
12, 151919, Note_on_c, 8, 45, 0
12, 151920, Note_on_c, 8, 45, 86
12, 151979, Note_on_c, 8, 45, 0
12, 151980, Note_on_c, 8, 45, 80
12, 152039, Note_on_c, 8, 45, 0
12, 152040, Note_on_c, 8, 45, 83
12, 152099, Note_on_c, 8, 45, 0
12, 152100, Note_on_c, 8, 45, 80
12, 152159, Note_on_c, 8, 45, 0
12, 152160, Note_on_c, 8, 45, 85
12, 152219, Note_on_c, 8, 45, 0
12, 152220, Note_on_c, 8, 45, 80
12, 152279, Note_on_c, 8, 45, 0
12, 152280, Note_on_c, 8, 45, 80
12, 152339, Note_on_c, 8, 45, 0
12, 152340, Note_on_c, 8, 45, 87
12, 152399, Note_on_c, 8, 45, 0
12, 152400, Note_on_c, 8, 45, 82
12, 152459, Note_on_c, 8, 45, 0
12, 152460, Note_on_c, 8, 45, 82
12, 152519, Note_on_c, 8, 45, 0
12, 152520, Note_on_c, 8, 45, 84
12, 152579, Note_on_c, 8, 45, 0
12, 152580, Note_on_c, 8, 45, 85
12, 152639, Note_on_c, 8, 45, 0
12, 152640, Note_on_c, 8, 45, 86
12, 152699, Note_on_c, 8, 45, 0
12, 152700, Note_on_c, 8, 45, 85
12, 152759, Note_on_c, 8, 45, 0
12, 152760, Note_on_c, 8, 45, 83
12, 152819, Note_on_c, 8, 45, 0
12, 152820, Note_on_c, 8, 45, 81
12, 152879, Note_on_c, 8, 45, 0
12, 152880, Note_on_c, 8, 45, 85
12, 152939, Note_on_c, 8, 45, 0
12, 152940, Note_on_c, 8, 45, 83
12, 152999, Note_on_c, 8, 45, 0
12, 153000, Note_on_c, 8, 45, 83
12, 153059, Note_on_c, 8, 45, 0
12, 153060, Note_on_c, 8, 45, 87
12, 153119, Note_on_c, 8, 45, 0
12, 153120, Note_on_c, 8, 45, 85
12, 153179, Note_on_c, 8, 45, 0
12, 153180, Note_on_c, 8, 45, 80
12, 153239, Note_on_c, 8, 45, 0
12, 153240, Note_on_c, 8, 45, 84
12, 153299, Note_on_c, 8, 45, 0
12, 153300, Note_on_c, 8, 45, 83
12, 153359, Note_on_c, 8, 45, 0
12, 153360, Note_on_c, 8, 45, 85
12, 153479, Note_on_c, 8, 45, 0
12, 153480, Note_on_c, 8, 45, 84
12, 153539, Note_on_c, 8, 45, 0
12, 153540, Note_on_c, 8, 45, 84
12, 153599, Note_on_c, 8, 45, 0
12, 153600, Note_on_c, 8, 45, 82
12, 153659, Note_on_c, 8, 45, 0
12, 153660, Note_on_c, 8, 45, 81
12, 153719, Note_on_c, 8, 45, 0
12, 153720, Note_on_c, 8, 45, 81
12, 153779, Note_on_c, 8, 45, 0
12, 153780, Note_on_c, 8, 45, 83
12, 153839, Note_on_c, 8, 45, 0
12, 153840, Note_on_c, 8, 45, 86
12, 153899, Note_on_c, 8, 45, 0
12, 153900, Note_on_c, 8, 45, 84
12, 153959, Note_on_c, 8, 45, 0
12, 153960, Note_on_c, 8, 45, 87
12, 154019, Note_on_c, 8, 45, 0
12, 154020, Note_on_c, 8, 45, 86
12, 154079, Note_on_c, 8, 45, 0
12, 154080, Note_on_c, 8, 45, 84
12, 154199, Note_on_c, 8, 45, 0
12, 154200, Note_on_c, 8, 45, 81
12, 154259, Note_on_c, 8, 45, 0
12, 154260, Note_on_c, 8, 45, 85
12, 154319, Note_on_c, 8, 45, 0
12, 154320, Note_on_c, 8, 45, 83
12, 154379, Note_on_c, 8, 45, 0
12, 154380, Note_on_c, 8, 45, 80
12, 154439, Note_on_c, 8, 45, 0
12, 154440, Note_on_c, 8, 45, 85
12, 154499, Note_on_c, 8, 45, 0
12, 154500, Note_on_c, 8, 45, 84
12, 154559, Note_on_c, 8, 45, 0
12, 154560, Note_on_c, 8, 45, 81
12, 154619, Note_on_c, 8, 45, 0
12, 154620, Note_on_c, 8, 45, 87
12, 154679, Note_on_c, 8, 45, 0
12, 154680, Note_on_c, 8, 45, 81
12, 154739, Note_on_c, 8, 45, 0
12, 154740, Note_on_c, 8, 45, 87
12, 154799, Note_on_c, 8, 45, 0
12, 154800, Note_on_c, 8, 45, 85
12, 154859, Note_on_c, 8, 45, 0
12, 154860, Note_on_c, 8, 45, 82
12, 154919, Note_on_c, 8, 45, 0
12, 154920, Note_on_c, 8, 45, 83
12, 154979, Note_on_c, 8, 45, 0
12, 154980, Note_on_c, 8, 45, 80
12, 155039, Note_on_c, 8, 45, 0
12, 155040, Note_on_c, 8, 45, 87
12, 155099, Note_on_c, 8, 45, 0
12, 155100, Note_on_c, 8, 45, 85
12, 155159, Note_on_c, 8, 45, 0
12, 155160, Note_on_c, 8, 45, 81
12, 155219, Note_on_c, 8, 45, 0
12, 155220, Note_on_c, 8, 45, 87
12, 155279, Note_on_c, 8, 45, 0
12, 155280, Note_on_c, 8, 45, 86
12, 155339, Note_on_c, 8, 45, 0
12, 155340, Note_on_c, 8, 45, 84
12, 155399, Note_on_c, 8, 45, 0
12, 155400, Note_on_c, 8, 45, 81
12, 155459, Note_on_c, 8, 45, 0
12, 155460, Note_on_c, 8, 45, 81
12, 155519, Note_on_c, 8, 45, 0
12, 155520, Note_on_c, 8, 45, 86
12, 155579, Note_on_c, 8, 45, 0
12, 155580, Note_on_c, 8, 45, 83
12, 155639, Note_on_c, 8, 45, 0
12, 155640, Note_on_c, 8, 45, 81
12, 155699, Note_on_c, 8, 45, 0
12, 155700, Note_on_c, 8, 45, 84
12, 155759, Note_on_c, 8, 45, 0
12, 155760, Note_on_c, 8, 45, 85
12, 155819, Note_on_c, 8, 45, 0
12, 155820, Note_on_c, 8, 45, 83
12, 155879, Note_on_c, 8, 45, 0
12, 155880, Note_on_c, 8, 45, 82
12, 155939, Note_on_c, 8, 45, 0
12, 155940, Note_on_c, 8, 45, 84
12, 155999, Note_on_c, 8, 45, 0
12, 156000, Note_on_c, 8, 45, 85
12, 156059, Note_on_c, 8, 45, 0
12, 156060, Note_on_c, 8, 45, 86
12, 156119, Note_on_c, 8, 45, 0
12, 156120, Note_on_c, 8, 45, 85
12, 156179, Note_on_c, 8, 45, 0
12, 156180, Note_on_c, 8, 45, 83
12, 156239, Note_on_c, 8, 45, 0
12, 156240, Note_on_c, 8, 45, 80
12, 156299, Note_on_c, 8, 45, 0
12, 156300, Note_on_c, 8, 45, 82
12, 156359, Note_on_c, 8, 45, 0
12, 156360, Note_on_c, 8, 45, 86
12, 156419, Note_on_c, 8, 45, 0
12, 156420, Note_on_c, 8, 45, 80
12, 156479, Note_on_c, 8, 45, 0
12, 156480, Note_on_c, 8, 45, 84
12, 156539, Note_on_c, 8, 45, 0
12, 156540, Note_on_c, 8, 45, 85
12, 156599, Note_on_c, 8, 45, 0
12, 156600, Note_on_c, 8, 45, 83
12, 156659, Note_on_c, 8, 45, 0
12, 156660, Note_on_c, 8, 45, 80
12, 156719, Note_on_c, 8, 45, 0
12, 156720, Note_on_c, 8, 45, 87
12, 156779, Note_on_c, 8, 45, 0
12, 156780, Note_on_c, 8, 45, 87
12, 156839, Note_on_c, 8, 45, 0
12, 156840, Note_on_c, 8, 45, 84
12, 156899, Note_on_c, 8, 45, 0
12, 156900, Note_on_c, 8, 45, 82
12, 156959, Note_on_c, 8, 45, 0
12, 156960, Note_on_c, 8, 45, 83
12, 157019, Note_on_c, 8, 45, 0
12, 157020, Note_on_c, 8, 45, 82
12, 157079, Note_on_c, 8, 45, 0
12, 157080, Note_on_c, 8, 45, 86
12, 157139, Note_on_c, 8, 45, 0
12, 157140, Note_on_c, 8, 45, 82
12, 157199, Note_on_c, 8, 45, 0
12, 157200, Note_on_c, 8, 45, 83
12, 157259, Note_on_c, 8, 45, 0
12, 157260, Note_on_c, 8, 45, 82
12, 157319, Note_on_c, 8, 45, 0
12, 157320, Note_on_c, 8, 45, 87
12, 157379, Note_on_c, 8, 45, 0
12, 157380, Note_on_c, 8, 45, 82
12, 157439, Note_on_c, 8, 45, 0
12, 157440, Note_on_c, 8, 45, 85
12, 157499, Note_on_c, 8, 45, 0
12, 157500, Note_on_c, 8, 45, 84
12, 157559, Note_on_c, 8, 45, 0
12, 157560, Note_on_c, 8, 45, 81
12, 157619, Note_on_c, 8, 45, 0
12, 157620, Note_on_c, 8, 45, 86
12, 157679, Note_on_c, 8, 45, 0
12, 157680, Note_on_c, 8, 45, 86
12, 157739, Note_on_c, 8, 45, 0
12, 157740, Note_on_c, 8, 45, 83
12, 157799, Note_on_c, 8, 45, 0
12, 157800, Note_on_c, 8, 45, 84
12, 157859, Note_on_c, 8, 45, 0
12, 157860, Note_on_c, 8, 45, 87
12, 157919, Note_on_c, 8, 45, 0
12, 157920, Note_on_c, 8, 45, 80
12, 157979, Note_on_c, 8, 45, 0
12, 157980, Note_on_c, 8, 45, 87
12, 158039, Note_on_c, 8, 45, 0
12, 158040, Note_on_c, 8, 45, 84
12, 158099, Note_on_c, 8, 45, 0
12, 158100, Note_on_c, 8, 45, 80
12, 158159, Note_on_c, 8, 45, 0
12, 158160, Note_on_c, 8, 45, 84
12, 158219, Note_on_c, 8, 45, 0
12, 158220, Note_on_c, 8, 45, 81
12, 158279, Note_on_c, 8, 45, 0
12, 158280, Note_on_c, 8, 45, 86
12, 158339, Note_on_c, 8, 45, 0
12, 158340, Note_on_c, 8, 45, 85
12, 158399, Note_on_c, 8, 45, 0
12, 158400, Note_on_c, 8, 45, 85
12, 158459, Note_on_c, 8, 45, 0
12, 158460, Note_on_c, 8, 45, 81
12, 158519, Note_on_c, 8, 45, 0
12, 158520, Note_on_c, 8, 45, 84
12, 158759, Note_on_c, 8, 45, 0
12, 178680, Note_on_c, 8, 45, 80
12, 178739, Note_on_c, 8, 45, 0
12, 178740, Note_on_c, 8, 45, 84
12, 178799, Note_on_c, 8, 45, 0
12, 178800, Note_on_c, 8, 45, 81
12, 178859, Note_on_c, 8, 45, 0
12, 178860, Note_on_c, 8, 45, 86
12, 178919, Note_on_c, 8, 45, 0
12, 178920, Note_on_c, 8, 45, 84
12, 178979, Note_on_c, 8, 45, 0
12, 178980, Note_on_c, 8, 45, 83
12, 179039, Note_on_c, 8, 45, 0
12, 179040, Note_on_c, 8, 45, 82
12, 179099, Note_on_c, 8, 45, 0
12, 179100, Note_on_c, 8, 45, 87
12, 179159, Note_on_c, 8, 45, 0
12, 179160, Note_on_c, 8, 45, 86
12, 179219, Note_on_c, 8, 45, 0
12, 179220, Note_on_c, 8, 45, 85
12, 179279, Note_on_c, 8, 45, 0
12, 179280, Note_on_c, 8, 45, 81
12, 179339, Note_on_c, 8, 45, 0
12, 179340, Note_on_c, 8, 45, 86
12, 179399, Note_on_c, 8, 45, 0
12, 179400, Note_on_c, 8, 45, 85
12, 179459, Note_on_c, 8, 45, 0
12, 179460, Note_on_c, 8, 45, 84
12, 179519, Note_on_c, 8, 45, 0
12, 179520, Note_on_c, 8, 45, 82
12, 179579, Note_on_c, 8, 45, 0
12, 179580, Note_on_c, 8, 45, 80
12, 179639, Note_on_c, 8, 45, 0
12, 179640, Note_on_c, 8, 45, 80
12, 179699, Note_on_c, 8, 45, 0
12, 179700, Note_on_c, 8, 45, 82
12, 179759, Note_on_c, 8, 45, 0
12, 179760, Note_on_c, 8, 45, 81
12, 179819, Note_on_c, 8, 45, 0
12, 179820, Note_on_c, 8, 45, 81
12, 179879, Note_on_c, 8, 45, 0
12, 179880, Note_on_c, 8, 45, 87
12, 179939, Note_on_c, 8, 45, 0
12, 179940, Note_on_c, 8, 45, 83
12, 179999, Note_on_c, 8, 45, 0
12, 180000, Note_on_c, 8, 45, 80
12, 180059, Note_on_c, 8, 45, 0
12, 180060, Note_on_c, 8, 45, 80
12, 180119, Note_on_c, 8, 45, 0
12, 180120, Note_on_c, 8, 45, 80
12, 180179, Note_on_c, 8, 45, 0
12, 180180, Note_on_c, 8, 45, 83
12, 180239, Note_on_c, 8, 45, 0
12, 180240, Note_on_c, 8, 45, 84
12, 180299, Note_on_c, 8, 45, 0
12, 180300, Note_on_c, 8, 45, 84
12, 180359, Note_on_c, 8, 45, 0
12, 180360, Note_on_c, 8, 45, 84
12, 180419, Note_on_c, 8, 45, 0
12, 180420, Note_on_c, 8, 45, 84
12, 180479, Note_on_c, 8, 45, 0
12, 180480, Note_on_c, 8, 45, 81
12, 180539, Note_on_c, 8, 45, 0
12, 180540, Note_on_c, 8, 45, 85
12, 180599, Note_on_c, 8, 45, 0
12, 180600, Note_on_c, 8, 45, 83
12, 180659, Note_on_c, 8, 45, 0
12, 180660, Note_on_c, 8, 45, 82
12, 180719, Note_on_c, 8, 45, 0
12, 180720, Note_on_c, 8, 45, 80
12, 180779, Note_on_c, 8, 45, 0
12, 180780, Note_on_c, 8, 45, 84
12, 180839, Note_on_c, 8, 45, 0
12, 180840, Note_on_c, 8, 45, 86
12, 180899, Note_on_c, 8, 45, 0
12, 180900, Note_on_c, 8, 45, 86
12, 180959, Note_on_c, 8, 45, 0
12, 180960, Note_on_c, 8, 45, 84
12, 181019, Note_on_c, 8, 45, 0
12, 181020, Note_on_c, 8, 45, 82
12, 181079, Note_on_c, 8, 45, 0
12, 181080, Note_on_c, 8, 45, 87
12, 181139, Note_on_c, 8, 45, 0
12, 181140, Note_on_c, 8, 45, 85
12, 181199, Note_on_c, 8, 45, 0
12, 181200, Note_on_c, 8, 45, 87
12, 181259, Note_on_c, 8, 45, 0
12, 181260, Note_on_c, 8, 45, 87
12, 181319, Note_on_c, 8, 45, 0
12, 181320, Note_on_c, 8, 45, 84
12, 181379, Note_on_c, 8, 45, 0
12, 181380, Note_on_c, 8, 45, 81
12, 181439, Note_on_c, 8, 45, 0
12, 181440, Note_on_c, 8, 45, 83
12, 181499, Note_on_c, 8, 45, 0
12, 181500, Note_on_c, 8, 45, 81
12, 181559, Note_on_c, 8, 45, 0
12, 181560, Note_on_c, 8, 45, 86
12, 181619, Note_on_c, 8, 45, 0
12, 181620, Note_on_c, 8, 45, 81
12, 181679, Note_on_c, 8, 45, 0
12, 181680, Note_on_c, 8, 45, 86
12, 181739, Note_on_c, 8, 45, 0
12, 181740, Note_on_c, 8, 45, 86
12, 181799, Note_on_c, 8, 45, 0
12, 181800, Note_on_c, 8, 45, 87
12, 181859, Note_on_c, 8, 45, 0
12, 181860, Note_on_c, 8, 45, 87
12, 181919, Note_on_c, 8, 45, 0
12, 181920, Note_on_c, 8, 45, 84
12, 181979, Note_on_c, 8, 45, 0
12, 181980, Note_on_c, 8, 45, 83
12, 182039, Note_on_c, 8, 45, 0
12, 182040, Note_on_c, 8, 45, 82
12, 182099, Note_on_c, 8, 45, 0
12, 182100, Note_on_c, 8, 45, 82
12, 182159, Note_on_c, 8, 45, 0
12, 182160, Note_on_c, 8, 45, 86
12, 182219, Note_on_c, 8, 45, 0
12, 182220, Note_on_c, 8, 45, 80
12, 182279, Note_on_c, 8, 45, 0
12, 182280, Note_on_c, 8, 45, 83
12, 182339, Note_on_c, 8, 45, 0
12, 182340, Note_on_c, 8, 45, 80
12, 182399, Note_on_c, 8, 45, 0
12, 182400, Note_on_c, 8, 45, 85
12, 182459, Note_on_c, 8, 45, 0
12, 182460, Note_on_c, 8, 45, 80
12, 182519, Note_on_c, 8, 45, 0
12, 182520, Note_on_c, 8, 45, 80
12, 182579, Note_on_c, 8, 45, 0
12, 182580, Note_on_c, 8, 45, 87
12, 182639, Note_on_c, 8, 45, 0
12, 182640, Note_on_c, 8, 45, 82
12, 182699, Note_on_c, 8, 45, 0
12, 182700, Note_on_c, 8, 45, 82
12, 182759, Note_on_c, 8, 45, 0
12, 182760, Note_on_c, 8, 45, 84
12, 182819, Note_on_c, 8, 45, 0
12, 182820, Note_on_c, 8, 45, 85
12, 182879, Note_on_c, 8, 45, 0
12, 182880, Note_on_c, 8, 45, 86
12, 182939, Note_on_c, 8, 45, 0
12, 182940, Note_on_c, 8, 45, 85
12, 182999, Note_on_c, 8, 45, 0
12, 183000, Note_on_c, 8, 45, 83
12, 183059, Note_on_c, 8, 45, 0
12, 183060, Note_on_c, 8, 45, 81
12, 183119, Note_on_c, 8, 45, 0
12, 183120, Note_on_c, 8, 45, 85
12, 183179, Note_on_c, 8, 45, 0
12, 183180, Note_on_c, 8, 45, 83
12, 183239, Note_on_c, 8, 45, 0
12, 183240, Note_on_c, 8, 45, 83
12, 183299, Note_on_c, 8, 45, 0
12, 183300, Note_on_c, 8, 45, 87
12, 183359, Note_on_c, 8, 45, 0
12, 183360, Note_on_c, 8, 45, 85
12, 183419, Note_on_c, 8, 45, 0
12, 183420, Note_on_c, 8, 45, 80
12, 183479, Note_on_c, 8, 45, 0
12, 183480, Note_on_c, 8, 45, 84
12, 183539, Note_on_c, 8, 45, 0
12, 183540, Note_on_c, 8, 45, 83
12, 183599, Note_on_c, 8, 45, 0
12, 183600, Note_on_c, 8, 45, 84
12, 183719, Note_on_c, 8, 45, 0
12, 183720, Note_on_c, 8, 45, 84
12, 183779, Note_on_c, 8, 45, 0
12, 183780, Note_on_c, 8, 45, 84
12, 183839, Note_on_c, 8, 45, 0
12, 183840, Note_on_c, 8, 45, 82
12, 183899, Note_on_c, 8, 45, 0
12, 183900, Note_on_c, 8, 45, 81
12, 183959, Note_on_c, 8, 45, 0
12, 183960, Note_on_c, 8, 45, 81
12, 184019, Note_on_c, 8, 45, 0
12, 184020, Note_on_c, 8, 45, 83
12, 184079, Note_on_c, 8, 45, 0
12, 184080, Note_on_c, 8, 45, 86
12, 184139, Note_on_c, 8, 45, 0
12, 184140, Note_on_c, 8, 45, 84
12, 184199, Note_on_c, 8, 45, 0
12, 184200, Note_on_c, 8, 45, 87
12, 184259, Note_on_c, 8, 45, 0
12, 184260, Note_on_c, 8, 45, 86
12, 184319, Note_on_c, 8, 45, 0
12, 184320, Note_on_c, 8, 45, 84
12, 184439, Note_on_c, 8, 45, 0
12, 184440, Note_on_c, 8, 45, 81
12, 184499, Note_on_c, 8, 45, 0
12, 184500, Note_on_c, 8, 45, 85
12, 184559, Note_on_c, 8, 45, 0
12, 184560, Note_on_c, 8, 45, 83
12, 184619, Note_on_c, 8, 45, 0
12, 184620, Note_on_c, 8, 45, 80
12, 184679, Note_on_c, 8, 45, 0
12, 184680, Note_on_c, 8, 45, 85
12, 184739, Note_on_c, 8, 45, 0
12, 184740, Note_on_c, 8, 45, 84
12, 184799, Note_on_c, 8, 45, 0
12, 184800, Note_on_c, 8, 45, 81
12, 184859, Note_on_c, 8, 45, 0
12, 184860, Note_on_c, 8, 45, 87
12, 184919, Note_on_c, 8, 45, 0
12, 184920, Note_on_c, 8, 45, 81
12, 184979, Note_on_c, 8, 45, 0
12, 184980, Note_on_c, 8, 45, 87
12, 185039, Note_on_c, 8, 45, 0
12, 185040, Note_on_c, 8, 45, 85
12, 185099, Note_on_c, 8, 45, 0
12, 185100, Note_on_c, 8, 45, 82
12, 185159, Note_on_c, 8, 45, 0
12, 185160, Note_on_c, 8, 45, 83
12, 185219, Note_on_c, 8, 45, 0
12, 185220, Note_on_c, 8, 45, 80
12, 185279, Note_on_c, 8, 45, 0
12, 185280, Note_on_c, 8, 45, 87
12, 185339, Note_on_c, 8, 45, 0
12, 185340, Note_on_c, 8, 45, 85
12, 185399, Note_on_c, 8, 45, 0
12, 185400, Note_on_c, 8, 45, 81
12, 185459, Note_on_c, 8, 45, 0
12, 185460, Note_on_c, 8, 45, 87
12, 185519, Note_on_c, 8, 45, 0
12, 185520, Note_on_c, 8, 45, 86
12, 185579, Note_on_c, 8, 45, 0
12, 185580, Note_on_c, 8, 45, 84
12, 185639, Note_on_c, 8, 45, 0
12, 185640, Note_on_c, 8, 45, 81
12, 185699, Note_on_c, 8, 45, 0
12, 185700, Note_on_c, 8, 45, 81
12, 185759, Note_on_c, 8, 45, 0
12, 185760, Note_on_c, 8, 45, 86
12, 185819, Note_on_c, 8, 45, 0
12, 185820, Note_on_c, 8, 45, 83
12, 185879, Note_on_c, 8, 45, 0
12, 185880, Note_on_c, 8, 45, 81
12, 185939, Note_on_c, 8, 45, 0
12, 185940, Note_on_c, 8, 45, 84
12, 185999, Note_on_c, 8, 45, 0
12, 186000, Note_on_c, 8, 45, 85
12, 186059, Note_on_c, 8, 45, 0
12, 186060, Note_on_c, 8, 45, 83
12, 186119, Note_on_c, 8, 45, 0
12, 186120, Note_on_c, 8, 45, 82
12, 186179, Note_on_c, 8, 45, 0
12, 186180, Note_on_c, 8, 45, 84
12, 186239, Note_on_c, 8, 45, 0
12, 186240, Note_on_c, 8, 45, 85
12, 186299, Note_on_c, 8, 45, 0
12, 186300, Note_on_c, 8, 45, 86
12, 186359, Note_on_c, 8, 45, 0
12, 186360, Note_on_c, 8, 45, 85
12, 186419, Note_on_c, 8, 45, 0
12, 186420, Note_on_c, 8, 45, 83
12, 186479, Note_on_c, 8, 45, 0
12, 186480, Note_on_c, 8, 45, 80
12, 186539, Note_on_c, 8, 45, 0
12, 186540, Note_on_c, 8, 45, 82
12, 186599, Note_on_c, 8, 45, 0
12, 186600, Note_on_c, 8, 45, 86
12, 186659, Note_on_c, 8, 45, 0
12, 186660, Note_on_c, 8, 45, 80
12, 186719, Note_on_c, 8, 45, 0
12, 186720, Note_on_c, 8, 45, 84
12, 186779, Note_on_c, 8, 45, 0
12, 186780, Note_on_c, 8, 45, 85
12, 186839, Note_on_c, 8, 45, 0
12, 186840, Note_on_c, 8, 45, 83
12, 186899, Note_on_c, 8, 45, 0
12, 186900, Note_on_c, 8, 45, 80
12, 186959, Note_on_c, 8, 45, 0
12, 186960, Note_on_c, 8, 45, 87
12, 187019, Note_on_c, 8, 45, 0
12, 187020, Note_on_c, 8, 45, 87
12, 187079, Note_on_c, 8, 45, 0
12, 187080, Note_on_c, 8, 45, 84
12, 187139, Note_on_c, 8, 45, 0
12, 187140, Note_on_c, 8, 45, 82
12, 187199, Note_on_c, 8, 45, 0
12, 187200, Note_on_c, 8, 45, 83
12, 187259, Note_on_c, 8, 45, 0
12, 187260, Note_on_c, 8, 45, 82
12, 187319, Note_on_c, 8, 45, 0
12, 187320, Note_on_c, 8, 45, 86
12, 187379, Note_on_c, 8, 45, 0
12, 187380, Note_on_c, 8, 45, 82
12, 187439, Note_on_c, 8, 45, 0
12, 187440, Note_on_c, 8, 45, 83
12, 187499, Note_on_c, 8, 45, 0
12, 187500, Note_on_c, 8, 45, 82
12, 187559, Note_on_c, 8, 45, 0
12, 187560, Note_on_c, 8, 45, 87
12, 187619, Note_on_c, 8, 45, 0
12, 187620, Note_on_c, 8, 45, 82
12, 187679, Note_on_c, 8, 45, 0
12, 187680, Note_on_c, 8, 45, 85
12, 187739, Note_on_c, 8, 45, 0
12, 187740, Note_on_c, 8, 45, 84
12, 187799, Note_on_c, 8, 45, 0
12, 187800, Note_on_c, 8, 45, 81
12, 187859, Note_on_c, 8, 45, 0
12, 187860, Note_on_c, 8, 45, 86
12, 187919, Note_on_c, 8, 45, 0
12, 187920, Note_on_c, 8, 45, 86
12, 187979, Note_on_c, 8, 45, 0
12, 187980, Note_on_c, 8, 45, 83
12, 188039, Note_on_c, 8, 45, 0
12, 188040, Note_on_c, 8, 45, 84
12, 188099, Note_on_c, 8, 45, 0
12, 188100, Note_on_c, 8, 45, 87
12, 188159, Note_on_c, 8, 45, 0
12, 188160, Note_on_c, 8, 45, 80
12, 188219, Note_on_c, 8, 45, 0
12, 188220, Note_on_c, 8, 45, 87
12, 188279, Note_on_c, 8, 45, 0
12, 188280, Note_on_c, 8, 45, 84
12, 188339, Note_on_c, 8, 45, 0
12, 188340, Note_on_c, 8, 45, 80
12, 188399, Note_on_c, 8, 45, 0
12, 188400, Note_on_c, 8, 45, 84
12, 188459, Note_on_c, 8, 45, 0
12, 188460, Note_on_c, 8, 45, 81
12, 188519, Note_on_c, 8, 45, 0
12, 188520, Note_on_c, 8, 45, 86
12, 188579, Note_on_c, 8, 45, 0
12, 188580, Note_on_c, 8, 45, 85
12, 188639, Note_on_c, 8, 45, 0
12, 188640, Note_on_c, 8, 45, 85
12, 188699, Note_on_c, 8, 45, 0
12, 188700, Note_on_c, 8, 45, 81
12, 188759, Note_on_c, 8, 45, 0
12, 188760, Note_on_c, 8, 45, 84
12, 188999, Note_on_c, 8, 45, 0
12, 200040, Note_on_c, 8, 53, 76
12, 200159, Note_on_c, 8, 53, 0
12, 200160, Note_on_c, 8, 53, 76
12, 200279, Note_on_c, 8, 53, 0
12, 200400, Note_on_c, 8, 53, 76
12, 200519, Note_on_c, 8, 53, 0
12, 200520, Note_on_c, 8, 53, 76
12, 200639, Note_on_c, 8, 53, 0
12, 200760, Note_on_c, 8, 53, 76
12, 200879, Note_on_c, 8, 53, 0
12, 200880, Note_on_c, 8, 53, 52
12, 200999, Note_on_c, 8, 53, 0
12, 206280, Note_on_c, 8, 45, 76
12, 206399, Note_on_c, 8, 45, 0
12, 206400, Note_on_c, 8, 45, 76
12, 206519, Note_on_c, 8, 45, 0
12, 206520, Note_on_c, 8, 45, 76
12, 206639, Note_on_c, 8, 45, 0
12, 207000, Note_on_c, 8, 45, 76
12, 207119, Note_on_c, 8, 45, 0
12, 207120, Note_on_c, 8, 45, 76
12, 207239, Note_on_c, 8, 45, 0
12, 207240, Note_on_c, 8, 45, 76
12, 207359, Note_on_c, 8, 45, 0
12, 207720, Note_on_c, 8, 45, 76
12, 207839, Note_on_c, 8, 45, 0
12, 207840, Note_on_c, 8, 45, 76
12, 207959, Note_on_c, 8, 45, 0
12, 207960, Note_on_c, 8, 45, 76
12, 208079, Note_on_c, 8, 45, 0
12, 208080, Note_on_c, 8, 45, 76
12, 208199, Note_on_c, 8, 45, 0
12, 208200, Note_on_c, 8, 45, 76
12, 208319, Note_on_c, 8, 45, 0
12, 208320, Note_on_c, 8, 45, 76
12, 208439, Note_on_c, 8, 45, 0
12, 208440, Note_on_c, 8, 45, 76
12, 208559, Note_on_c, 8, 45, 0
12, 208680, Note_on_c, 8, 53, 52
12, 208799, Note_on_c, 8, 53, 0
12, 208800, Note_on_c, 8, 53, 52
12, 208919, Note_on_c, 8, 53, 0
12, 209040, Note_on_c, 8, 53, 52
12, 209159, Note_on_c, 8, 53, 0
12, 209160, Note_on_c, 8, 53, 52
12, 209279, Note_on_c, 8, 53, 0
12, 209400, Note_on_c, 8, 53, 52
12, 209519, Note_on_c, 8, 53, 0
12, 209520, Note_on_c, 8, 53, 52
12, 209639, Note_on_c, 8, 53, 0
12, 214920, Note_on_c, 8, 45, 52
12, 215039, Note_on_c, 8, 45, 0
12, 215040, Note_on_c, 8, 45, 52
12, 215159, Note_on_c, 8, 45, 0
12, 215160, Note_on_c, 8, 45, 52
12, 215279, Note_on_c, 8, 45, 0
12, 215640, Note_on_c, 8, 45, 52
12, 215759, Note_on_c, 8, 45, 0
12, 215760, Note_on_c, 8, 45, 52
12, 215879, Note_on_c, 8, 45, 0
12, 215880, Note_on_c, 8, 45, 52
12, 215999, Note_on_c, 8, 45, 0
12, 216360, Note_on_c, 8, 45, 52
12, 216479, Note_on_c, 8, 45, 0
12, 216480, Note_on_c, 8, 45, 52
12, 216599, Note_on_c, 8, 45, 0
12, 216600, Note_on_c, 8, 45, 52
12, 216719, Note_on_c, 8, 45, 0
12, 216720, Note_on_c, 8, 45, 52
12, 216839, Note_on_c, 8, 45, 0
12, 216840, Note_on_c, 8, 45, 52
12, 216959, Note_on_c, 8, 45, 0
12, 216960, Note_on_c, 8, 45, 52
12, 217079, Note_on_c, 8, 45, 0
12, 217080, Note_on_c, 8, 45, 52
12, 217199, Note_on_c, 8, 45, 0
12, 217320, Note_on_c, 8, 45, 52
12, 217439, Note_on_c, 8, 45, 0
12, 217440, Note_on_c, 8, 45, 52
12, 217559, Note_on_c, 8, 45, 0
12, 229920, Note_on_c, 8, 53, 44
12, 230039, Note_on_c, 8, 53, 0
12, 230040, Note_on_c, 8, 53, 44
12, 230159, Note_on_c, 8, 53, 0
12, 240360, Note_on_c, 8, 53, 76
12, 240479, Note_on_c, 8, 53, 0
12, 240480, Note_on_c, 8, 53, 76
12, 240599, Note_on_c, 8, 53, 0
12, 240720, Note_on_c, 8, 53, 76
12, 240839, Note_on_c, 8, 53, 0
12, 240840, Note_on_c, 8, 53, 76
12, 240959, Note_on_c, 8, 53, 0
12, 241080, Note_on_c, 8, 53, 76
12, 241199, Note_on_c, 8, 53, 0
12, 241200, Note_on_c, 8, 53, 84
12, 241319, Note_on_c, 8, 53, 0
12, 241320, Note_on_c, 8, 53, 84
12, 241439, Note_on_c, 8, 53, 0
12, 241440, Note_on_c, 8, 53, 84
12, 241559, Note_on_c, 8, 53, 0
12, 241560, Note_on_c, 8, 53, 84
12, 241679, Note_on_c, 8, 53, 0
12, 241680, Note_on_c, 8, 53, 84
12, 241799, Note_on_c, 8, 53, 0
12, 241800, Note_on_c, 8, 53, 84
12, 241919, Note_on_c, 8, 53, 0
12, 241920, Note_on_c, 8, 53, 84
12, 242039, Note_on_c, 8, 53, 0
12, 242040, Note_on_c, 8, 53, 84
12, 242159, Note_on_c, 8, 53, 0
12, 242160, Note_on_c, 8, 53, 84
12, 242279, Note_on_c, 8, 53, 0
12, 243720, Note_on_c, 8, 53, 84
12, 243839, Note_on_c, 8, 53, 0
12, 243840, Note_on_c, 8, 53, 84
12, 243959, Note_on_c, 8, 53, 0
12, 243960, Note_on_c, 8, 53, 84
12, 244079, Note_on_c, 8, 53, 0
12, 244800, Note_on_c, 8, 53, 44
12, 244919, Note_on_c, 8, 53, 0
12, 244920, Note_on_c, 8, 53, 44
12, 245039, Note_on_c, 8, 53, 0
12, 245040, Note_on_c, 8, 53, 44
12, 245159, Note_on_c, 8, 53, 0
12, 246600, Note_on_c, 8, 53, 44
12, 246719, Note_on_c, 8, 53, 0
12, 246720, Note_on_c, 8, 53, 44
12, 246839, Note_on_c, 8, 53, 0
12, 246840, Note_on_c, 8, 53, 44
12, 246959, Note_on_c, 8, 53, 0
12, 253800, Note_on_c, 8, 53, 76
12, 253919, Note_on_c, 8, 53, 0
12, 253920, Note_on_c, 8, 53, 76
12, 254039, Note_on_c, 8, 53, 0
12, 254040, Note_on_c, 8, 53, 76
12, 254159, Note_on_c, 8, 53, 0
12, 254520, Note_on_c, 8, 53, 76
12, 254639, Note_on_c, 8, 53, 0
12, 254640, Note_on_c, 8, 53, 76
12, 254759, Note_on_c, 8, 53, 0
12, 254760, Note_on_c, 8, 53, 76
12, 254879, Note_on_c, 8, 53, 0
12, 255240, Note_on_c, 8, 53, 76
12, 255359, Note_on_c, 8, 53, 0
12, 255360, Note_on_c, 8, 53, 76
12, 255479, Note_on_c, 8, 53, 0
12, 255480, Note_on_c, 8, 53, 76
12, 255599, Note_on_c, 8, 53, 0
12, 255960, Note_on_c, 8, 53, 76
12, 256079, Note_on_c, 8, 53, 0
12, 256080, Note_on_c, 8, 53, 76
12, 256199, Note_on_c, 8, 53, 0
12, 256200, Note_on_c, 8, 53, 76
12, 256319, Note_on_c, 8, 53, 0
12, 256680, Note_on_c, 8, 53, 76
12, 256799, Note_on_c, 8, 53, 0
12, 256800, Note_on_c, 8, 53, 76
12, 256919, Note_on_c, 8, 53, 0
12, 256920, Note_on_c, 8, 53, 76
12, 257039, Note_on_c, 8, 53, 0
12, 257040, Note_on_c, 8, 53, 76
12, 257159, Note_on_c, 8, 53, 0
12, 257160, Note_on_c, 8, 53, 76
12, 257279, Note_on_c, 8, 53, 0
12, 257280, Note_on_c, 8, 53, 76
12, 257399, Note_on_c, 8, 53, 0
12, 257400, Note_on_c, 8, 53, 76
12, 257519, Note_on_c, 8, 53, 0
12, 257640, Note_on_c, 8, 53, 76
12, 257759, Note_on_c, 8, 53, 0
12, 257760, Note_on_c, 8, 53, 76
12, 257879, Note_on_c, 8, 53, 0
12, 259080, Note_on_c, 8, 53, 76
12, 259199, Note_on_c, 8, 53, 0
12, 259200, Note_on_c, 8, 45, 76
12, 259319, Note_on_c, 8, 45, 0
12, 259440, Note_on_c, 8, 53, 76
12, 259559, Note_on_c, 8, 53, 0
12, 259560, Note_on_c, 8, 45, 76
12, 259679, Note_on_c, 8, 45, 0
12, 259800, Note_on_c, 8, 53, 76
12, 259919, Note_on_c, 8, 53, 0
12, 259920, Note_on_c, 8, 45, 76
12, 260039, Note_on_c, 8, 45, 0
12, 260160, Note_on_c, 8, 53, 76
12, 260279, Note_on_c, 8, 53, 0
12, 260280, Note_on_c, 8, 45, 76
12, 260399, Note_on_c, 8, 45, 0
12, 260520, Note_on_c, 8, 53, 76
12, 260639, Note_on_c, 8, 53, 0
12, 260640, Note_on_c, 8, 45, 76
12, 260759, Note_on_c, 8, 45, 0
12, 303840, Note_on_c, 8, 45, 80
12, 303899, Note_on_c, 8, 45, 0
12, 303900, Note_on_c, 8, 45, 84
12, 303959, Note_on_c, 8, 45, 0
12, 303960, Note_on_c, 8, 45, 81
12, 304019, Note_on_c, 8, 45, 0
12, 304020, Note_on_c, 8, 45, 86
12, 304079, Note_on_c, 8, 45, 0
12, 304080, Note_on_c, 8, 45, 84
12, 304139, Note_on_c, 8, 45, 0
12, 304140, Note_on_c, 8, 45, 83
12, 304199, Note_on_c, 8, 45, 0
12, 304200, Note_on_c, 8, 45, 82
12, 304259, Note_on_c, 8, 45, 0
12, 304260, Note_on_c, 8, 45, 87
12, 304319, Note_on_c, 8, 45, 0
12, 304320, Note_on_c, 8, 45, 86
12, 304379, Note_on_c, 8, 45, 0
12, 304380, Note_on_c, 8, 45, 85
12, 304439, Note_on_c, 8, 45, 0
12, 304440, Note_on_c, 8, 45, 81
12, 304499, Note_on_c, 8, 45, 0
12, 304500, Note_on_c, 8, 45, 86
12, 304559, Note_on_c, 8, 45, 0
12, 304560, Note_on_c, 8, 45, 85
12, 304619, Note_on_c, 8, 45, 0
12, 304620, Note_on_c, 8, 45, 84
12, 304679, Note_on_c, 8, 45, 0
12, 304680, Note_on_c, 8, 45, 82
12, 304739, Note_on_c, 8, 45, 0
12, 304740, Note_on_c, 8, 45, 80
12, 304799, Note_on_c, 8, 45, 0
12, 304800, Note_on_c, 8, 45, 80
12, 304859, Note_on_c, 8, 45, 0
12, 304860, Note_on_c, 8, 45, 82
12, 304919, Note_on_c, 8, 45, 0
12, 304920, Note_on_c, 8, 45, 81
12, 304979, Note_on_c, 8, 45, 0
12, 304980, Note_on_c, 8, 45, 81
12, 305039, Note_on_c, 8, 45, 0
12, 305040, Note_on_c, 8, 45, 87
12, 305099, Note_on_c, 8, 45, 0
12, 305100, Note_on_c, 8, 45, 83
12, 305159, Note_on_c, 8, 45, 0
12, 305160, Note_on_c, 8, 45, 80
12, 305219, Note_on_c, 8, 45, 0
12, 305220, Note_on_c, 8, 45, 80
12, 305279, Note_on_c, 8, 45, 0
12, 305280, Note_on_c, 8, 45, 80
12, 305339, Note_on_c, 8, 45, 0
12, 305340, Note_on_c, 8, 45, 83
12, 305399, Note_on_c, 8, 45, 0
12, 305400, Note_on_c, 8, 45, 84
12, 305459, Note_on_c, 8, 45, 0
12, 305460, Note_on_c, 8, 45, 84
12, 305519, Note_on_c, 8, 45, 0
12, 305520, Note_on_c, 8, 45, 84
12, 305579, Note_on_c, 8, 45, 0
12, 305580, Note_on_c, 8, 45, 84
12, 305639, Note_on_c, 8, 45, 0
12, 305640, Note_on_c, 8, 45, 81
12, 305699, Note_on_c, 8, 45, 0
12, 305700, Note_on_c, 8, 45, 85
12, 305759, Note_on_c, 8, 45, 0
12, 305760, Note_on_c, 8, 45, 83
12, 305819, Note_on_c, 8, 45, 0
12, 305820, Note_on_c, 8, 45, 82
12, 305879, Note_on_c, 8, 45, 0
12, 305880, Note_on_c, 8, 45, 80
12, 305939, Note_on_c, 8, 45, 0
12, 305940, Note_on_c, 8, 45, 84
12, 305999, Note_on_c, 8, 45, 0
12, 306000, Note_on_c, 8, 45, 86
12, 306059, Note_on_c, 8, 45, 0
12, 306060, Note_on_c, 8, 45, 86
12, 306119, Note_on_c, 8, 45, 0
12, 306120, Note_on_c, 8, 45, 84
12, 306179, Note_on_c, 8, 45, 0
12, 306180, Note_on_c, 8, 45, 82
12, 306239, Note_on_c, 8, 45, 0
12, 306240, Note_on_c, 8, 45, 87
12, 306299, Note_on_c, 8, 45, 0
12, 306300, Note_on_c, 8, 45, 85
12, 306359, Note_on_c, 8, 45, 0
12, 306360, Note_on_c, 8, 45, 87
12, 306419, Note_on_c, 8, 45, 0
12, 306420, Note_on_c, 8, 45, 87
12, 306479, Note_on_c, 8, 45, 0
12, 306480, Note_on_c, 8, 45, 84
12, 306539, Note_on_c, 8, 45, 0
12, 306540, Note_on_c, 8, 45, 81
12, 306599, Note_on_c, 8, 45, 0
12, 306600, Note_on_c, 8, 45, 83
12, 306659, Note_on_c, 8, 45, 0
12, 306660, Note_on_c, 8, 45, 81
12, 306719, Note_on_c, 8, 45, 0
12, 306720, Note_on_c, 8, 45, 86
12, 306779, Note_on_c, 8, 45, 0
12, 306780, Note_on_c, 8, 45, 81
12, 306839, Note_on_c, 8, 45, 0
12, 306840, Note_on_c, 8, 45, 86
12, 306899, Note_on_c, 8, 45, 0
12, 306900, Note_on_c, 8, 45, 86
12, 306959, Note_on_c, 8, 45, 0
12, 306960, Note_on_c, 8, 45, 87
12, 307019, Note_on_c, 8, 45, 0
12, 307020, Note_on_c, 8, 45, 87
12, 307079, Note_on_c, 8, 45, 0
12, 307080, Note_on_c, 8, 45, 84
12, 307139, Note_on_c, 8, 45, 0
12, 307140, Note_on_c, 8, 45, 83
12, 307199, Note_on_c, 8, 45, 0
12, 307200, Note_on_c, 8, 45, 82
12, 307259, Note_on_c, 8, 45, 0
12, 307260, Note_on_c, 8, 45, 82
12, 307319, Note_on_c, 8, 45, 0
12, 307320, Note_on_c, 8, 45, 86
12, 307379, Note_on_c, 8, 45, 0
12, 307380, Note_on_c, 8, 45, 80
12, 307439, Note_on_c, 8, 45, 0
12, 307440, Note_on_c, 8, 45, 83
12, 307499, Note_on_c, 8, 45, 0
12, 307500, Note_on_c, 8, 45, 80
12, 307559, Note_on_c, 8, 45, 0
12, 307560, Note_on_c, 8, 45, 85
12, 307619, Note_on_c, 8, 45, 0
12, 307620, Note_on_c, 8, 45, 80
12, 307679, Note_on_c, 8, 45, 0
12, 307680, Note_on_c, 8, 45, 80
12, 307739, Note_on_c, 8, 45, 0
12, 307740, Note_on_c, 8, 45, 87
12, 307799, Note_on_c, 8, 45, 0
12, 307800, Note_on_c, 8, 45, 82
12, 307859, Note_on_c, 8, 45, 0
12, 307860, Note_on_c, 8, 45, 82
12, 307919, Note_on_c, 8, 45, 0
12, 307920, Note_on_c, 8, 45, 84
12, 307979, Note_on_c, 8, 45, 0
12, 307980, Note_on_c, 8, 45, 85
12, 308039, Note_on_c, 8, 45, 0
12, 308040, Note_on_c, 8, 45, 86
12, 308099, Note_on_c, 8, 45, 0
12, 308100, Note_on_c, 8, 45, 85
12, 308159, Note_on_c, 8, 45, 0
12, 308160, Note_on_c, 8, 45, 83
12, 308219, Note_on_c, 8, 45, 0
12, 308220, Note_on_c, 8, 45, 81
12, 308279, Note_on_c, 8, 45, 0
12, 308280, Note_on_c, 8, 45, 85
12, 308339, Note_on_c, 8, 45, 0
12, 308340, Note_on_c, 8, 45, 83
12, 308399, Note_on_c, 8, 45, 0
12, 308400, Note_on_c, 8, 45, 83
12, 308459, Note_on_c, 8, 45, 0
12, 308460, Note_on_c, 8, 45, 87
12, 308519, Note_on_c, 8, 45, 0
12, 308520, Note_on_c, 8, 45, 85
12, 308579, Note_on_c, 8, 45, 0
12, 308580, Note_on_c, 8, 45, 80
12, 308639, Note_on_c, 8, 45, 0
12, 308640, Note_on_c, 8, 45, 84
12, 308699, Note_on_c, 8, 45, 0
12, 308700, Note_on_c, 8, 45, 83
12, 308759, Note_on_c, 8, 45, 0
12, 308760, Note_on_c, 8, 45, 84
12, 308879, Note_on_c, 8, 45, 0
12, 308880, Note_on_c, 8, 45, 84
12, 308939, Note_on_c, 8, 45, 0
12, 308940, Note_on_c, 8, 45, 84
12, 308999, Note_on_c, 8, 45, 0
12, 309000, Note_on_c, 8, 45, 82
12, 309059, Note_on_c, 8, 45, 0
12, 309060, Note_on_c, 8, 45, 81
12, 309119, Note_on_c, 8, 45, 0
12, 309120, Note_on_c, 8, 45, 81
12, 309179, Note_on_c, 8, 45, 0
12, 309180, Note_on_c, 8, 45, 83
12, 309239, Note_on_c, 8, 45, 0
12, 309240, Note_on_c, 8, 45, 86
12, 309299, Note_on_c, 8, 45, 0
12, 309300, Note_on_c, 8, 45, 84
12, 309359, Note_on_c, 8, 45, 0
12, 309360, Note_on_c, 8, 45, 87
12, 309419, Note_on_c, 8, 45, 0
12, 309420, Note_on_c, 8, 45, 86
12, 309479, Note_on_c, 8, 45, 0
12, 309480, Note_on_c, 8, 45, 84
12, 309599, Note_on_c, 8, 45, 0
12, 309600, Note_on_c, 8, 45, 81
12, 309659, Note_on_c, 8, 45, 0
12, 309660, Note_on_c, 8, 45, 85
12, 309719, Note_on_c, 8, 45, 0
12, 309720, Note_on_c, 8, 45, 83
12, 309779, Note_on_c, 8, 45, 0
12, 309780, Note_on_c, 8, 45, 80
12, 309839, Note_on_c, 8, 45, 0
12, 309840, Note_on_c, 8, 45, 85
12, 309899, Note_on_c, 8, 45, 0
12, 309900, Note_on_c, 8, 45, 84
12, 309959, Note_on_c, 8, 45, 0
12, 309960, Note_on_c, 8, 45, 81
12, 310019, Note_on_c, 8, 45, 0
12, 310020, Note_on_c, 8, 45, 87
12, 310079, Note_on_c, 8, 45, 0
12, 310080, Note_on_c, 8, 45, 81
12, 310139, Note_on_c, 8, 45, 0
12, 310140, Note_on_c, 8, 45, 87
12, 310199, Note_on_c, 8, 45, 0
12, 310200, Note_on_c, 8, 45, 85
12, 310259, Note_on_c, 8, 45, 0
12, 310260, Note_on_c, 8, 45, 82
12, 310319, Note_on_c, 8, 45, 0
12, 310320, Note_on_c, 8, 45, 83
12, 310379, Note_on_c, 8, 45, 0
12, 310380, Note_on_c, 8, 45, 80
12, 310439, Note_on_c, 8, 45, 0
12, 310440, Note_on_c, 8, 45, 87
12, 310499, Note_on_c, 8, 45, 0
12, 310500, Note_on_c, 8, 45, 85
12, 310559, Note_on_c, 8, 45, 0
12, 310560, Note_on_c, 8, 45, 81
12, 310619, Note_on_c, 8, 45, 0
12, 310620, Note_on_c, 8, 45, 87
12, 310679, Note_on_c, 8, 45, 0
12, 310680, Note_on_c, 8, 45, 86
12, 310739, Note_on_c, 8, 45, 0
12, 310740, Note_on_c, 8, 45, 84
12, 310799, Note_on_c, 8, 45, 0
12, 310800, Note_on_c, 8, 45, 81
12, 310859, Note_on_c, 8, 45, 0
12, 310860, Note_on_c, 8, 45, 81
12, 310919, Note_on_c, 8, 45, 0
12, 310920, Note_on_c, 8, 45, 86
12, 310979, Note_on_c, 8, 45, 0
12, 310980, Note_on_c, 8, 45, 83
12, 311039, Note_on_c, 8, 45, 0
12, 311040, Note_on_c, 8, 45, 81
12, 311099, Note_on_c, 8, 45, 0
12, 311100, Note_on_c, 8, 45, 84
12, 311159, Note_on_c, 8, 45, 0
12, 311160, Note_on_c, 8, 45, 85
12, 311219, Note_on_c, 8, 45, 0
12, 311220, Note_on_c, 8, 45, 83
12, 311279, Note_on_c, 8, 45, 0
12, 311280, Note_on_c, 8, 45, 82
12, 311339, Note_on_c, 8, 45, 0
12, 311340, Note_on_c, 8, 45, 84
12, 311399, Note_on_c, 8, 45, 0
12, 311400, Note_on_c, 8, 45, 85
12, 311459, Note_on_c, 8, 45, 0
12, 311460, Note_on_c, 8, 45, 86
12, 311519, Note_on_c, 8, 45, 0
12, 311520, Note_on_c, 8, 45, 85
12, 311579, Note_on_c, 8, 45, 0
12, 311580, Note_on_c, 8, 45, 83
12, 311639, Note_on_c, 8, 45, 0
12, 311640, Note_on_c, 8, 45, 80
12, 311699, Note_on_c, 8, 45, 0
12, 311700, Note_on_c, 8, 45, 82
12, 311759, Note_on_c, 8, 45, 0
12, 311760, Note_on_c, 8, 45, 86
12, 311819, Note_on_c, 8, 45, 0
12, 311820, Note_on_c, 8, 45, 80
12, 311879, Note_on_c, 8, 45, 0
12, 311880, Note_on_c, 8, 45, 84
12, 311939, Note_on_c, 8, 45, 0
12, 311940, Note_on_c, 8, 45, 85
12, 311999, Note_on_c, 8, 45, 0
12, 312000, Note_on_c, 8, 45, 83
12, 312059, Note_on_c, 8, 45, 0
12, 312060, Note_on_c, 8, 45, 80
12, 312119, Note_on_c, 8, 45, 0
12, 312120, Note_on_c, 8, 45, 87
12, 312179, Note_on_c, 8, 45, 0
12, 312180, Note_on_c, 8, 45, 87
12, 312239, Note_on_c, 8, 45, 0
12, 312240, Note_on_c, 8, 45, 84
12, 312299, Note_on_c, 8, 45, 0
12, 312300, Note_on_c, 8, 45, 82
12, 312359, Note_on_c, 8, 45, 0
12, 312360, Note_on_c, 8, 45, 83
12, 312419, Note_on_c, 8, 45, 0
12, 312420, Note_on_c, 8, 45, 82
12, 312479, Note_on_c, 8, 45, 0
12, 312480, Note_on_c, 8, 45, 86
12, 312539, Note_on_c, 8, 45, 0
12, 312540, Note_on_c, 8, 45, 82
12, 312599, Note_on_c, 8, 45, 0
12, 312600, Note_on_c, 8, 45, 83
12, 312659, Note_on_c, 8, 45, 0
12, 312660, Note_on_c, 8, 45, 82
12, 312719, Note_on_c, 8, 45, 0
12, 312720, Note_on_c, 8, 45, 87
12, 312779, Note_on_c, 8, 45, 0
12, 312780, Note_on_c, 8, 45, 82
12, 312839, Note_on_c, 8, 45, 0
12, 312840, Note_on_c, 8, 45, 85
12, 312899, Note_on_c, 8, 45, 0
12, 312900, Note_on_c, 8, 45, 84
12, 312959, Note_on_c, 8, 45, 0
12, 312960, Note_on_c, 8, 45, 81
12, 313019, Note_on_c, 8, 45, 0
12, 313020, Note_on_c, 8, 45, 86
12, 313079, Note_on_c, 8, 45, 0
12, 313080, Note_on_c, 8, 45, 86
12, 313139, Note_on_c, 8, 45, 0
12, 313140, Note_on_c, 8, 45, 83
12, 313199, Note_on_c, 8, 45, 0
12, 313200, Note_on_c, 8, 45, 84
12, 313259, Note_on_c, 8, 45, 0
12, 313260, Note_on_c, 8, 45, 87
12, 313319, Note_on_c, 8, 45, 0
12, 313320, Note_on_c, 8, 45, 80
12, 313379, Note_on_c, 8, 45, 0
12, 313380, Note_on_c, 8, 45, 87
12, 313439, Note_on_c, 8, 45, 0
12, 313440, Note_on_c, 8, 45, 84
12, 313499, Note_on_c, 8, 45, 0
12, 313500, Note_on_c, 8, 45, 80
12, 313559, Note_on_c, 8, 45, 0
12, 313560, Note_on_c, 8, 45, 84
12, 313619, Note_on_c, 8, 45, 0
12, 313620, Note_on_c, 8, 45, 81
12, 313679, Note_on_c, 8, 45, 0
12, 313680, Note_on_c, 8, 45, 86
12, 313739, Note_on_c, 8, 45, 0
12, 313740, Note_on_c, 8, 45, 85
12, 313799, Note_on_c, 8, 45, 0
12, 313800, Note_on_c, 8, 45, 85
12, 313859, Note_on_c, 8, 45, 0
12, 313860, Note_on_c, 8, 45, 81
12, 313919, Note_on_c, 8, 45, 0
12, 313920, Note_on_c, 8, 45, 84
12, 314159, Note_on_c, 8, 45, 0
12, 334080, Note_on_c, 8, 45, 80
12, 334139, Note_on_c, 8, 45, 0
12, 334140, Note_on_c, 8, 45, 80
12, 334199, Note_on_c, 8, 45, 0
12, 334200, Note_on_c, 8, 45, 85
12, 334259, Note_on_c, 8, 45, 0
12, 334260, Note_on_c, 8, 45, 82
12, 334319, Note_on_c, 8, 45, 0
12, 334320, Note_on_c, 8, 45, 87
12, 334379, Note_on_c, 8, 45, 0
12, 334380, Note_on_c, 8, 45, 82
12, 334439, Note_on_c, 8, 45, 0
12, 334440, Note_on_c, 8, 45, 82
12, 334499, Note_on_c, 8, 45, 0
12, 334500, Note_on_c, 8, 45, 81
12, 334559, Note_on_c, 8, 45, 0
12, 334560, Note_on_c, 8, 45, 85
12, 334619, Note_on_c, 8, 45, 0
12, 334620, Note_on_c, 8, 45, 86
12, 334679, Note_on_c, 8, 45, 0
12, 334680, Note_on_c, 8, 45, 85
12, 334739, Note_on_c, 8, 45, 0
12, 334740, Note_on_c, 8, 45, 84
12, 334799, Note_on_c, 8, 45, 0
12, 334800, Note_on_c, 8, 45, 85
12, 334859, Note_on_c, 8, 45, 0
12, 334860, Note_on_c, 8, 45, 82
12, 334919, Note_on_c, 8, 45, 0
12, 334920, Note_on_c, 8, 45, 81
12, 334979, Note_on_c, 8, 45, 0
12, 334980, Note_on_c, 8, 45, 80
12, 335039, Note_on_c, 8, 45, 0
12, 335040, Note_on_c, 8, 45, 80
12, 335099, Note_on_c, 8, 45, 0
12, 335100, Note_on_c, 8, 45, 86
12, 335159, Note_on_c, 8, 45, 0
12, 335160, Note_on_c, 8, 45, 86
12, 335219, Note_on_c, 8, 45, 0
12, 335220, Note_on_c, 8, 45, 81
12, 335279, Note_on_c, 8, 45, 0
12, 335280, Note_on_c, 8, 45, 80
12, 335339, Note_on_c, 8, 45, 0
12, 335340, Note_on_c, 8, 45, 84
12, 335399, Note_on_c, 8, 45, 0
12, 335400, Note_on_c, 8, 45, 80
12, 335459, Note_on_c, 8, 45, 0
12, 335460, Note_on_c, 8, 45, 80
12, 335519, Note_on_c, 8, 45, 0
12, 335520, Note_on_c, 8, 45, 83
12, 335579, Note_on_c, 8, 45, 0
12, 335580, Note_on_c, 8, 45, 86
12, 335639, Note_on_c, 8, 45, 0
12, 335640, Note_on_c, 8, 45, 85
12, 335699, Note_on_c, 8, 45, 0
12, 335700, Note_on_c, 8, 45, 84
12, 335759, Note_on_c, 8, 45, 0
12, 335760, Note_on_c, 8, 45, 80
12, 335819, Note_on_c, 8, 45, 0
12, 335820, Note_on_c, 8, 45, 83
12, 335879, Note_on_c, 8, 45, 0
12, 335880, Note_on_c, 8, 45, 81
12, 335939, Note_on_c, 8, 45, 0
12, 335940, Note_on_c, 8, 45, 85
12, 335999, Note_on_c, 8, 45, 0
12, 336000, Note_on_c, 8, 45, 82
12, 336059, Note_on_c, 8, 45, 0
12, 336060, Note_on_c, 8, 45, 83
12, 336119, Note_on_c, 8, 45, 0
12, 336120, Note_on_c, 8, 45, 81
12, 336179, Note_on_c, 8, 45, 0
12, 336180, Note_on_c, 8, 45, 84
12, 336239, Note_on_c, 8, 45, 0
12, 336240, Note_on_c, 8, 45, 84
12, 336299, Note_on_c, 8, 45, 0
12, 336300, Note_on_c, 8, 45, 85
12, 336359, Note_on_c, 8, 45, 0
12, 336360, Note_on_c, 8, 45, 81
12, 336419, Note_on_c, 8, 45, 0
12, 336420, Note_on_c, 8, 45, 84
12, 336479, Note_on_c, 8, 45, 0
12, 336480, Note_on_c, 8, 45, 87
12, 336539, Note_on_c, 8, 45, 0
12, 336540, Note_on_c, 8, 45, 85
12, 336599, Note_on_c, 8, 45, 0
12, 336600, Note_on_c, 8, 45, 87
12, 336659, Note_on_c, 8, 45, 0
12, 336660, Note_on_c, 8, 45, 81
12, 336719, Note_on_c, 8, 45, 0
12, 336720, Note_on_c, 8, 45, 82
12, 336779, Note_on_c, 8, 45, 0
12, 336780, Note_on_c, 8, 45, 81
12, 336839, Note_on_c, 8, 45, 0
12, 336840, Note_on_c, 8, 45, 87
12, 336899, Note_on_c, 8, 45, 0
12, 336900, Note_on_c, 8, 45, 83
12, 336959, Note_on_c, 8, 45, 0
12, 336960, Note_on_c, 8, 45, 87
12, 337019, Note_on_c, 8, 45, 0
12, 337020, Note_on_c, 8, 45, 80
12, 337079, Note_on_c, 8, 45, 0
12, 337080, Note_on_c, 8, 45, 85
12, 337139, Note_on_c, 8, 45, 0
12, 337140, Note_on_c, 8, 45, 80
12, 337199, Note_on_c, 8, 45, 0
12, 337200, Note_on_c, 8, 45, 83
12, 337259, Note_on_c, 8, 45, 0
12, 337260, Note_on_c, 8, 45, 87
12, 337319, Note_on_c, 8, 45, 0
12, 337320, Note_on_c, 8, 45, 80
12, 337379, Note_on_c, 8, 45, 0
12, 337380, Note_on_c, 8, 45, 87
12, 337439, Note_on_c, 8, 45, 0
12, 337440, Note_on_c, 8, 45, 82
12, 337499, Note_on_c, 8, 45, 0
12, 337500, Note_on_c, 8, 45, 81
12, 337559, Note_on_c, 8, 45, 0
12, 337560, Note_on_c, 8, 45, 86
12, 337619, Note_on_c, 8, 45, 0
12, 337620, Note_on_c, 8, 45, 83
12, 337679, Note_on_c, 8, 45, 0
12, 337680, Note_on_c, 8, 45, 81
12, 337739, Note_on_c, 8, 45, 0
12, 337740, Note_on_c, 8, 45, 85
12, 337799, Note_on_c, 8, 45, 0
12, 337800, Note_on_c, 8, 45, 84
12, 337859, Note_on_c, 8, 45, 0
12, 337860, Note_on_c, 8, 45, 83
12, 337919, Note_on_c, 8, 45, 0
12, 337920, Note_on_c, 8, 45, 83
12, 337979, Note_on_c, 8, 45, 0
12, 337980, Note_on_c, 8, 45, 84
12, 338039, Note_on_c, 8, 45, 0
12, 338040, Note_on_c, 8, 45, 85
12, 338099, Note_on_c, 8, 45, 0
12, 338100, Note_on_c, 8, 45, 86
12, 338159, Note_on_c, 8, 45, 0
12, 338160, Note_on_c, 8, 45, 86
12, 338219, Note_on_c, 8, 45, 0
12, 338220, Note_on_c, 8, 45, 84
12, 338279, Note_on_c, 8, 45, 0
12, 338280, Note_on_c, 8, 45, 85
12, 338339, Note_on_c, 8, 45, 0
12, 338340, Note_on_c, 8, 45, 84
12, 338399, Note_on_c, 8, 45, 0
12, 338400, Note_on_c, 8, 45, 83
12, 338459, Note_on_c, 8, 45, 0
12, 338460, Note_on_c, 8, 45, 81
12, 338519, Note_on_c, 8, 45, 0
12, 338520, Note_on_c, 8, 45, 85
12, 338579, Note_on_c, 8, 45, 0
12, 338580, Note_on_c, 8, 45, 84
12, 338639, Note_on_c, 8, 45, 0
12, 338640, Note_on_c, 8, 45, 87
12, 338699, Note_on_c, 8, 45, 0
12, 338700, Note_on_c, 8, 45, 81
12, 338759, Note_on_c, 8, 45, 0
12, 338760, Note_on_c, 8, 45, 81
12, 338819, Note_on_c, 8, 45, 0
12, 338820, Note_on_c, 8, 45, 84
12, 338879, Note_on_c, 8, 45, 0
12, 338880, Note_on_c, 8, 45, 85
12, 338939, Note_on_c, 8, 45, 0
12, 338940, Note_on_c, 8, 45, 84
12, 338999, Note_on_c, 8, 45, 0
12, 339000, Note_on_c, 8, 45, 84
12, 339119, Note_on_c, 8, 45, 0
12, 339120, Note_on_c, 8, 45, 83
12, 339179, Note_on_c, 8, 45, 0
12, 339180, Note_on_c, 8, 45, 80
12, 339239, Note_on_c, 8, 45, 0
12, 339240, Note_on_c, 8, 45, 85
12, 339299, Note_on_c, 8, 45, 0
12, 339300, Note_on_c, 8, 45, 84
12, 339359, Note_on_c, 8, 45, 0
12, 339360, Note_on_c, 8, 45, 84
12, 339419, Note_on_c, 8, 45, 0
12, 339420, Note_on_c, 8, 45, 85
12, 339479, Note_on_c, 8, 45, 0
12, 339480, Note_on_c, 8, 45, 86
12, 339539, Note_on_c, 8, 45, 0
12, 339540, Note_on_c, 8, 45, 81
12, 339599, Note_on_c, 8, 45, 0
12, 339600, Note_on_c, 8, 45, 84
12, 339659, Note_on_c, 8, 45, 0
12, 339660, Note_on_c, 8, 45, 86
12, 339719, Note_on_c, 8, 45, 0
12, 339720, Note_on_c, 8, 45, 84
12, 339839, Note_on_c, 8, 45, 0
12, 339840, Note_on_c, 8, 45, 84
12, 339899, Note_on_c, 8, 45, 0
12, 339900, Note_on_c, 8, 45, 85
12, 339959, Note_on_c, 8, 45, 0
12, 339960, Note_on_c, 8, 45, 80
12, 340019, Note_on_c, 8, 45, 0
12, 340020, Note_on_c, 8, 45, 85
12, 340079, Note_on_c, 8, 45, 0
12, 340080, Note_on_c, 8, 45, 87
12, 340139, Note_on_c, 8, 45, 0
12, 340140, Note_on_c, 8, 45, 82
12, 340199, Note_on_c, 8, 45, 0
12, 340200, Note_on_c, 8, 45, 84
12, 340259, Note_on_c, 8, 45, 0
12, 340260, Note_on_c, 8, 45, 82
12, 340319, Note_on_c, 8, 45, 0
12, 340320, Note_on_c, 8, 45, 81
12, 340379, Note_on_c, 8, 45, 0
12, 340380, Note_on_c, 8, 45, 80
12, 340439, Note_on_c, 8, 45, 0
12, 340440, Note_on_c, 8, 45, 86
12, 340499, Note_on_c, 8, 45, 0
12, 340500, Note_on_c, 8, 45, 86
12, 340559, Note_on_c, 8, 45, 0
12, 340560, Note_on_c, 8, 45, 85
12, 340619, Note_on_c, 8, 45, 0
12, 340620, Note_on_c, 8, 45, 81
12, 340679, Note_on_c, 8, 45, 0
12, 340680, Note_on_c, 8, 45, 82
12, 340739, Note_on_c, 8, 45, 0
12, 340740, Note_on_c, 8, 45, 80
12, 340799, Note_on_c, 8, 45, 0
12, 340800, Note_on_c, 8, 45, 80
12, 340859, Note_on_c, 8, 45, 0
12, 340860, Note_on_c, 8, 45, 85
12, 340919, Note_on_c, 8, 45, 0
12, 340920, Note_on_c, 8, 45, 86
12, 340979, Note_on_c, 8, 45, 0
12, 340980, Note_on_c, 8, 45, 84
12, 341039, Note_on_c, 8, 45, 0
12, 341040, Note_on_c, 8, 45, 83
12, 341099, Note_on_c, 8, 45, 0
12, 341100, Note_on_c, 8, 45, 83
12, 341159, Note_on_c, 8, 45, 0
12, 341160, Note_on_c, 8, 45, 82
12, 341219, Note_on_c, 8, 45, 0
12, 341220, Note_on_c, 8, 45, 83
12, 341279, Note_on_c, 8, 45, 0
12, 341280, Note_on_c, 8, 45, 84
12, 341339, Note_on_c, 8, 45, 0
12, 341340, Note_on_c, 8, 45, 81
12, 341399, Note_on_c, 8, 45, 0
12, 341400, Note_on_c, 8, 45, 82
12, 341459, Note_on_c, 8, 45, 0
12, 341460, Note_on_c, 8, 45, 85
12, 341519, Note_on_c, 8, 45, 0
12, 341520, Note_on_c, 8, 45, 82
12, 341579, Note_on_c, 8, 45, 0
12, 341580, Note_on_c, 8, 45, 86
12, 341639, Note_on_c, 8, 45, 0
12, 341640, Note_on_c, 8, 45, 87
12, 341699, Note_on_c, 8, 45, 0
12, 341700, Note_on_c, 8, 45, 86
12, 341759, Note_on_c, 8, 45, 0
12, 341760, Note_on_c, 8, 45, 85
12, 341819, Note_on_c, 8, 45, 0
12, 341820, Note_on_c, 8, 45, 82
12, 341879, Note_on_c, 8, 45, 0
12, 341880, Note_on_c, 8, 45, 87
12, 341939, Note_on_c, 8, 45, 0
12, 341940, Note_on_c, 8, 45, 81
12, 341999, Note_on_c, 8, 45, 0
12, 342000, Note_on_c, 8, 45, 80
12, 342059, Note_on_c, 8, 45, 0
12, 342060, Note_on_c, 8, 45, 86
12, 342119, Note_on_c, 8, 45, 0
12, 342120, Note_on_c, 8, 45, 84
12, 342179, Note_on_c, 8, 45, 0
12, 342180, Note_on_c, 8, 45, 84
12, 342239, Note_on_c, 8, 45, 0
12, 342240, Note_on_c, 8, 45, 87
12, 342299, Note_on_c, 8, 45, 0
12, 342300, Note_on_c, 8, 45, 80
12, 342359, Note_on_c, 8, 45, 0
12, 342360, Note_on_c, 8, 45, 87
12, 342419, Note_on_c, 8, 45, 0
12, 342420, Note_on_c, 8, 45, 85
12, 342479, Note_on_c, 8, 45, 0
12, 342480, Note_on_c, 8, 45, 82
12, 342539, Note_on_c, 8, 45, 0
12, 342540, Note_on_c, 8, 45, 80
12, 342599, Note_on_c, 8, 45, 0
12, 342600, Note_on_c, 8, 45, 84
12, 342659, Note_on_c, 8, 45, 0
12, 342660, Note_on_c, 8, 45, 81
12, 342719, Note_on_c, 8, 45, 0
12, 342720, Note_on_c, 8, 45, 82
12, 342779, Note_on_c, 8, 45, 0
12, 342780, Note_on_c, 8, 45, 87
12, 342839, Note_on_c, 8, 45, 0
12, 342840, Note_on_c, 8, 45, 84
12, 342899, Note_on_c, 8, 45, 0
12, 342900, Note_on_c, 8, 45, 85
12, 342959, Note_on_c, 8, 45, 0
12, 342960, Note_on_c, 8, 45, 80
12, 343019, Note_on_c, 8, 45, 0
12, 343020, Note_on_c, 8, 45, 83
12, 343079, Note_on_c, 8, 45, 0
12, 343080, Note_on_c, 8, 45, 83
12, 343139, Note_on_c, 8, 45, 0
12, 343140, Note_on_c, 8, 45, 83
12, 343199, Note_on_c, 8, 45, 0
12, 343200, Note_on_c, 8, 45, 86
12, 343259, Note_on_c, 8, 45, 0
12, 343260, Note_on_c, 8, 45, 84
12, 343319, Note_on_c, 8, 45, 0
12, 343320, Note_on_c, 8, 45, 83
12, 343379, Note_on_c, 8, 45, 0
12, 343380, Note_on_c, 8, 45, 85
12, 343439, Note_on_c, 8, 45, 0
12, 343440, Note_on_c, 8, 45, 84
12, 343499, Note_on_c, 8, 45, 0
12, 343500, Note_on_c, 8, 45, 84
12, 343559, Note_on_c, 8, 45, 0
12, 343560, Note_on_c, 8, 45, 83
12, 343619, Note_on_c, 8, 45, 0
12, 343620, Note_on_c, 8, 45, 80
12, 343679, Note_on_c, 8, 45, 0
12, 343680, Note_on_c, 8, 45, 85
12, 343739, Note_on_c, 8, 45, 0
12, 343740, Note_on_c, 8, 45, 80
12, 343799, Note_on_c, 8, 45, 0
12, 343800, Note_on_c, 8, 45, 84
12, 343859, Note_on_c, 8, 45, 0
12, 343860, Note_on_c, 8, 45, 86
12, 343919, Note_on_c, 8, 45, 0
12, 343920, Note_on_c, 8, 45, 83
12, 343979, Note_on_c, 8, 45, 0
12, 343980, Note_on_c, 8, 45, 85
12, 344039, Note_on_c, 8, 45, 0
12, 344040, Note_on_c, 8, 45, 83
12, 344099, Note_on_c, 8, 45, 0
12, 344100, Note_on_c, 8, 45, 83
12, 344159, Note_on_c, 8, 45, 0
12, 344160, Note_on_c, 8, 45, 84
12, 344399, Note_on_c, 8, 45, 0
12, 355440, Note_on_c, 8, 53, 76
12, 355559, Note_on_c, 8, 53, 0
12, 355560, Note_on_c, 8, 53, 76
12, 355679, Note_on_c, 8, 53, 0
12, 355800, Note_on_c, 8, 53, 76
12, 355919, Note_on_c, 8, 53, 0
12, 355920, Note_on_c, 8, 53, 76
12, 356039, Note_on_c, 8, 53, 0
12, 356160, Note_on_c, 8, 53, 76
12, 356279, Note_on_c, 8, 53, 0
12, 356280, Note_on_c, 8, 53, 52
12, 356399, Note_on_c, 8, 53, 0
12, 361680, Note_on_c, 8, 45, 76
12, 361799, Note_on_c, 8, 45, 0
12, 361800, Note_on_c, 8, 45, 76
12, 361919, Note_on_c, 8, 45, 0
12, 361920, Note_on_c, 8, 45, 76
12, 362039, Note_on_c, 8, 45, 0
12, 362400, Note_on_c, 8, 45, 76
12, 362519, Note_on_c, 8, 45, 0
12, 362520, Note_on_c, 8, 45, 76
12, 362639, Note_on_c, 8, 45, 0
12, 362640, Note_on_c, 8, 45, 76
12, 362759, Note_on_c, 8, 45, 0
12, 363120, Note_on_c, 8, 45, 76
12, 363239, Note_on_c, 8, 45, 0
12, 363240, Note_on_c, 8, 45, 76
12, 363359, Note_on_c, 8, 45, 0
12, 363360, Note_on_c, 8, 45, 76
12, 363479, Note_on_c, 8, 45, 0
12, 363480, Note_on_c, 8, 45, 76
12, 363599, Note_on_c, 8, 45, 0
12, 363600, Note_on_c, 8, 45, 76
12, 363719, Note_on_c, 8, 45, 0
12, 363720, Note_on_c, 8, 45, 76
12, 363839, Note_on_c, 8, 45, 0
12, 363840, Note_on_c, 8, 45, 76
12, 363959, Note_on_c, 8, 45, 0
12, 364080, Note_on_c, 8, 45, 76
12, 364199, Note_on_c, 8, 45, 0
12, 364200, Note_on_c, 8, 45, 76
12, 364319, Note_on_c, 8, 45, 0
12, 376680, Note_on_c, 8, 53, 84
12, 376799, Note_on_c, 8, 53, 0
12, 376800, Note_on_c, 8, 53, 84
12, 376919, Note_on_c, 8, 53, 0
12, 387120, Note_on_c, 8, 53, 76
12, 387239, Note_on_c, 8, 53, 0
12, 387240, Note_on_c, 8, 53, 76
12, 387359, Note_on_c, 8, 53, 0
12, 387480, Note_on_c, 8, 53, 76
12, 387599, Note_on_c, 8, 53, 0
12, 387600, Note_on_c, 8, 53, 76
12, 387719, Note_on_c, 8, 53, 0
12, 387840, Note_on_c, 8, 53, 76
12, 387959, Note_on_c, 8, 53, 0
12, 387960, Note_on_c, 8, 53, 84
12, 388079, Note_on_c, 8, 53, 0
12, 388080, Note_on_c, 8, 53, 84
12, 388199, Note_on_c, 8, 53, 0
12, 388200, Note_on_c, 8, 53, 84
12, 388319, Note_on_c, 8, 53, 0
12, 388320, Note_on_c, 8, 53, 84
12, 388439, Note_on_c, 8, 53, 0
12, 388440, Note_on_c, 8, 53, 84
12, 388559, Note_on_c, 8, 53, 0
12, 388560, Note_on_c, 8, 53, 84
12, 388679, Note_on_c, 8, 53, 0
12, 388680, Note_on_c, 8, 53, 84
12, 388799, Note_on_c, 8, 53, 0
12, 388800, Note_on_c, 8, 53, 84
12, 388919, Note_on_c, 8, 53, 0
12, 388920, Note_on_c, 8, 53, 84
12, 389039, Note_on_c, 8, 53, 0
12, 390480, Note_on_c, 8, 53, 84
12, 390599, Note_on_c, 8, 53, 0
12, 390600, Note_on_c, 8, 53, 84
12, 390719, Note_on_c, 8, 53, 0
12, 390720, Note_on_c, 8, 53, 84
12, 390839, Note_on_c, 8, 53, 0
12, 391560, Note_on_c, 8, 53, 44
12, 391679, Note_on_c, 8, 53, 0
12, 391680, Note_on_c, 8, 53, 44
12, 391799, Note_on_c, 8, 53, 0
12, 391800, Note_on_c, 8, 53, 44
12, 391919, Note_on_c, 8, 53, 0
12, 393360, Note_on_c, 8, 53, 44
12, 393479, Note_on_c, 8, 53, 0
12, 393480, Note_on_c, 8, 53, 44
12, 393599, Note_on_c, 8, 53, 0
12, 393600, Note_on_c, 8, 53, 44
12, 393719, Note_on_c, 8, 53, 0
12, 400560, Note_on_c, 8, 53, 76
12, 400679, Note_on_c, 8, 53, 0
12, 400680, Note_on_c, 8, 53, 76
12, 400799, Note_on_c, 8, 53, 0
12, 400800, Note_on_c, 8, 53, 76
12, 400919, Note_on_c, 8, 53, 0
12, 401280, Note_on_c, 8, 53, 76
12, 401399, Note_on_c, 8, 53, 0
12, 401400, Note_on_c, 8, 53, 76
12, 401519, Note_on_c, 8, 53, 0
12, 401520, Note_on_c, 8, 53, 76
12, 401639, Note_on_c, 8, 53, 0
12, 402000, Note_on_c, 8, 53, 76
12, 402119, Note_on_c, 8, 53, 0
12, 402120, Note_on_c, 8, 53, 76
12, 402239, Note_on_c, 8, 53, 0
12, 402240, Note_on_c, 8, 53, 76
12, 402359, Note_on_c, 8, 53, 0
12, 402720, Note_on_c, 8, 53, 76
12, 402839, Note_on_c, 8, 53, 0
12, 402840, Note_on_c, 8, 53, 76
12, 402959, Note_on_c, 8, 53, 0
12, 402960, Note_on_c, 8, 53, 76
12, 403079, Note_on_c, 8, 53, 0
12, 403440, Note_on_c, 8, 53, 76
12, 403559, Note_on_c, 8, 53, 0
12, 403560, Note_on_c, 8, 53, 76
12, 403679, Note_on_c, 8, 53, 0
12, 403680, Note_on_c, 8, 53, 76
12, 403799, Note_on_c, 8, 53, 0
12, 403800, Note_on_c, 8, 53, 76
12, 403919, Note_on_c, 8, 53, 0
12, 403920, Note_on_c, 8, 53, 76
12, 404039, Note_on_c, 8, 53, 0
12, 404040, Note_on_c, 8, 53, 76
12, 404159, Note_on_c, 8, 53, 0
12, 404160, Note_on_c, 8, 53, 76
12, 404279, Note_on_c, 8, 53, 0
12, 404400, Note_on_c, 8, 53, 76
12, 404519, Note_on_c, 8, 53, 0
12, 404520, Note_on_c, 8, 53, 76
12, 404639, Note_on_c, 8, 53, 0
12, 405840, Note_on_c, 8, 53, 84
12, 405959, Note_on_c, 8, 53, 0
12, 405960, Note_on_c, 8, 45, 84
12, 406079, Note_on_c, 8, 45, 0
12, 406200, Note_on_c, 8, 53, 84
12, 406319, Note_on_c, 8, 53, 0
12, 406320, Note_on_c, 8, 45, 84
12, 406439, Note_on_c, 8, 45, 0
12, 406560, Note_on_c, 8, 53, 84
12, 406679, Note_on_c, 8, 53, 0
12, 406680, Note_on_c, 8, 45, 84
12, 406799, Note_on_c, 8, 45, 0
12, 406920, Note_on_c, 8, 53, 84
12, 407039, Note_on_c, 8, 53, 0
12, 407040, Note_on_c, 8, 45, 84
12, 407159, Note_on_c, 8, 45, 0
12, 407280, Note_on_c, 8, 53, 84
12, 407399, Note_on_c, 8, 53, 0
12, 407400, Note_on_c, 8, 45, 84
12, 407519, Note_on_c, 8, 45, 0
12, 413160, Note_on_c, 8, 53, 84
12, 413279, Note_on_c, 8, 53, 0
12, 413279, End_track
13, 0, Start_track
13, 0, Title_t, "Violin I"
13, 0, MIDI_port, 0
13, 0, Program_c, 10, 48
13, 0, Control_c, 10, 7, 96
13, 0, Control_c, 10, 10, 48
13, 0, Control_c, 10, 11, 127
13, 0, Note_on_c, 10, 65, 76
13, 71, Note_on_c, 10, 65, 0
13, 80, Note_on_c, 10, 65, 76
13, 119, Note_on_c, 10, 65, 0
13, 120, Note_on_c, 10, 69, 76
13, 239, Note_on_c, 10, 69, 0
13, 240, Note_on_c, 10, 65, 76
13, 299, Note_on_c, 10, 65, 0
13, 360, Note_on_c, 10, 69, 76
13, 431, Note_on_c, 10, 69, 0
13, 440, Note_on_c, 10, 69, 76
13, 479, Note_on_c, 10, 69, 0
13, 480, Note_on_c, 10, 72, 76
13, 599, Note_on_c, 10, 72, 0
13, 600, Note_on_c, 10, 69, 76
13, 659, Note_on_c, 10, 69, 0
13, 720, Note_on_c, 10, 72, 76
13, 824, Note_on_c, 10, 72, 0
13, 840, Note_on_c, 10, 77, 52
13, 929, Note_on_c, 10, 77, 0
13, 960, Note_on_c, 10, 77, 52
13, 1049, Note_on_c, 10, 77, 0
13, 1080, Note_on_c, 10, 76, 52
13, 1169, Note_on_c, 10, 76, 0
13, 1200, Note_on_c, 10, 74, 52
13, 1289, Note_on_c, 10, 74, 0
13, 1320, Note_on_c, 10, 74, 52
13, 1409, Note_on_c, 10, 74, 0
13, 1440, Note_on_c, 10, 72, 52
13, 1529, Note_on_c, 10, 72, 0
13, 1560, Note_on_c, 10, 70, 52
13, 1649, Note_on_c, 10, 70, 0
13, 1680, Note_on_c, 10, 70, 52
13, 1769, Note_on_c, 10, 70, 0
13, 1800, Note_on_c, 10, 69, 52
13, 1889, Note_on_c, 10, 69, 0
13, 1920, Note_on_c, 10, 67, 52
13, 2264, Note_on_c, 10, 67, 0
13, 2280, Note_on_c, 10, 79, 52
13, 2369, Note_on_c, 10, 79, 0
13, 2400, Note_on_c, 10, 79, 52
13, 2489, Note_on_c, 10, 79, 0
13, 2520, Note_on_c, 10, 77, 52
13, 2609, Note_on_c, 10, 77, 0
13, 2640, Note_on_c, 10, 76, 52
13, 2729, Note_on_c, 10, 76, 0
13, 2760, Note_on_c, 10, 76, 52
13, 2849, Note_on_c, 10, 76, 0
13, 2880, Note_on_c, 10, 74, 52
13, 2969, Note_on_c, 10, 74, 0
13, 3000, Note_on_c, 10, 72, 52
13, 3089, Note_on_c, 10, 72, 0
13, 3120, Note_on_c, 10, 72, 52
13, 3209, Note_on_c, 10, 72, 0
13, 3240, Note_on_c, 10, 70, 52
13, 3329, Note_on_c, 10, 70, 0
13, 3360, Note_on_c, 10, 69, 52
13, 3704, Note_on_c, 10, 69, 0
13, 3720, Note_on_c, 10, 67, 52
13, 3809, Note_on_c, 10, 67, 0
13, 3840, Note_on_c, 10, 67, 52
13, 3929, Note_on_c, 10, 67, 0
13, 3960, Note_on_c, 10, 65, 52
13, 4049, Note_on_c, 10, 65, 0
13, 4080, Note_on_c, 10, 70, 52
13, 4319, Note_on_c, 10, 70, 0
13, 4320, Note_on_c, 10, 69, 52
13, 4424, Note_on_c, 10, 69, 0
13, 4440, Note_on_c, 10, 67, 52
13, 4529, Note_on_c, 10, 67, 0
13, 4560, Note_on_c, 10, 67, 56
13, 4649, Note_on_c, 10, 67, 0
13, 4680, Note_on_c, 10, 65, 60
13, 4769, Note_on_c, 10, 65, 0
13, 4800, Note_on_c, 10, 70, 64
13, 5039, Note_on_c, 10, 70, 0
13, 5040, Note_on_c, 10, 69, 72
13, 5144, Note_on_c, 10, 69, 0
13, 5160, Note_on_c, 10, 74, 84
13, 5399, Note_on_c, 10, 74, 0
13, 5400, Note_on_c, 10, 73, 76
13, 5504, Note_on_c, 10, 73, 0
13, 5520, Note_on_c, 10, 77, 84
13, 5759, Note_on_c, 10, 77, 0
13, 5760, Note_on_c, 10, 76, 76
13, 5864, Note_on_c, 10, 76, 0
13, 5880, Note_on_c, 10, 80, 76
13, 5924, Note_on_c, 10, 80, 0
13, 5925, Note_on_c, 10, 81, 76
13, 5969, Note_on_c, 10, 81, 0
13, 5970, Note_on_c, 10, 80, 76
13, 6014, Note_on_c, 10, 80, 0
13, 6015, Note_on_c, 10, 81, 76
13, 6059, Note_on_c, 10, 81, 0
13, 6060, Note_on_c, 10, 80, 76
13, 6104, Note_on_c, 10, 80, 0
13, 6105, Note_on_c, 10, 81, 76
13, 6149, Note_on_c, 10, 81, 0
13, 6150, Note_on_c, 10, 78, 76
13, 6194, Note_on_c, 10, 78, 0
13, 6195, Note_on_c, 10, 80, 76
13, 6239, Note_on_c, 10, 80, 0
13, 6240, Note_on_c, 10, 81, 76
13, 6329, Note_on_c, 10, 81, 0
13, 6360, Note_on_c, 10, 76, 76
13, 6449, Note_on_c, 10, 76, 0
13, 6480, Note_on_c, 10, 73, 76
13, 6569, Note_on_c, 10, 73, 0
13, 6600, Note_on_c, 10, 74, 76
13, 6644, Note_on_c, 10, 74, 0
13, 6645, Note_on_c, 10, 76, 76
13, 6689, Note_on_c, 10, 76, 0
13, 6690, Note_on_c, 10, 74, 76
13, 6734, Note_on_c, 10, 74, 0
13, 6735, Note_on_c, 10, 76, 76
13, 6779, Note_on_c, 10, 76, 0
13, 6780, Note_on_c, 10, 74, 76
13, 6824, Note_on_c, 10, 74, 0
13, 6825, Note_on_c, 10, 76, 76
13, 6869, Note_on_c, 10, 76, 0
13, 6870, Note_on_c, 10, 73, 76
13, 6914, Note_on_c, 10, 73, 0
13, 6915, Note_on_c, 10, 74, 76
13, 6959, Note_on_c, 10, 74, 0
13, 6960, Note_on_c, 10, 73, 76
13, 7049, Note_on_c, 10, 73, 0
13, 7080, Note_on_c, 10, 76, 76
13, 7169, Note_on_c, 10, 76, 0
13, 7200, Note_on_c, 10, 81, 76
13, 7289, Note_on_c, 10, 81, 0
13, 7320, Note_on_c, 10, 80, 76
13, 7364, Note_on_c, 10, 80, 0
13, 7365, Note_on_c, 10, 81, 76
13, 7409, Note_on_c, 10, 81, 0
13, 7410, Note_on_c, 10, 80, 76
13, 7454, Note_on_c, 10, 80, 0
13, 7455, Note_on_c, 10, 81, 76
13, 7499, Note_on_c, 10, 81, 0
13, 7500, Note_on_c, 10, 80, 76
13, 7544, Note_on_c, 10, 80, 0
13, 7545, Note_on_c, 10, 81, 76
13, 7589, Note_on_c, 10, 81, 0
13, 7590, Note_on_c, 10, 78, 76
13, 7634, Note_on_c, 10, 78, 0
13, 7635, Note_on_c, 10, 80, 76
13, 7679, Note_on_c, 10, 80, 0
13, 7680, Note_on_c, 10, 81, 76
13, 7769, Note_on_c, 10, 81, 0
13, 7800, Note_on_c, 10, 76, 76
13, 7889, Note_on_c, 10, 76, 0
13, 7920, Note_on_c, 10, 73, 76
13, 8009, Note_on_c, 10, 73, 0
13, 8040, Note_on_c, 10, 69, 76
13, 8129, Note_on_c, 10, 69, 0
13, 8160, Note_on_c, 10, 64, 76
13, 8249, Note_on_c, 10, 64, 0
13, 8280, Note_on_c, 10, 61, 76
13, 8369, Note_on_c, 10, 61, 0
13, 8400, Note_on_c, 10, 57, 76
13, 8489, Note_on_c, 10, 57, 0
13, 8640, Note_on_c, 10, 65, 76
13, 8711, Note_on_c, 10, 65, 0
13, 8720, Note_on_c, 10, 65, 76
13, 8759, Note_on_c, 10, 65, 0
13, 8760, Note_on_c, 10, 69, 76
13, 8879, Note_on_c, 10, 69, 0
13, 8880, Note_on_c, 10, 65, 76
13, 8939, Note_on_c, 10, 65, 0
13, 9000, Note_on_c, 10, 69, 76
13, 9071, Note_on_c, 10, 69, 0
13, 9080, Note_on_c, 10, 69, 76
13, 9119, Note_on_c, 10, 69, 0
13, 9120, Note_on_c, 10, 72, 76
13, 9239, Note_on_c, 10, 72, 0
13, 9240, Note_on_c, 10, 69, 76
13, 9299, Note_on_c, 10, 69, 0
13, 9360, Note_on_c, 10, 72, 76
13, 9464, Note_on_c, 10, 72, 0
13, 9480, Note_on_c, 10, 77, 52
13, 9569, Note_on_c, 10, 77, 0
13, 9600, Note_on_c, 10, 77, 52
13, 9689, Note_on_c, 10, 77, 0
13, 9720, Note_on_c, 10, 76, 52
13, 9809, Note_on_c, 10, 76, 0
13, 9840, Note_on_c, 10, 74, 52
13, 9929, Note_on_c, 10, 74, 0
13, 9960, Note_on_c, 10, 74, 52
13, 10049, Note_on_c, 10, 74, 0
13, 10080, Note_on_c, 10, 72, 52
13, 10169, Note_on_c, 10, 72, 0
13, 10200, Note_on_c, 10, 70, 52
13, 10289, Note_on_c, 10, 70, 0
13, 10320, Note_on_c, 10, 70, 52
13, 10409, Note_on_c, 10, 70, 0
13, 10440, Note_on_c, 10, 69, 52
13, 10529, Note_on_c, 10, 69, 0
13, 10560, Note_on_c, 10, 67, 52
13, 10904, Note_on_c, 10, 67, 0
13, 10920, Note_on_c, 10, 79, 52
13, 11009, Note_on_c, 10, 79, 0
13, 11040, Note_on_c, 10, 79, 52
13, 11129, Note_on_c, 10, 79, 0
13, 11160, Note_on_c, 10, 77, 52
13, 11249, Note_on_c, 10, 77, 0
13, 11280, Note_on_c, 10, 76, 52
13, 11369, Note_on_c, 10, 76, 0
13, 11400, Note_on_c, 10, 76, 52
13, 11489, Note_on_c, 10, 76, 0
13, 11520, Note_on_c, 10, 74, 52
13, 11609, Note_on_c, 10, 74, 0
13, 11640, Note_on_c, 10, 72, 52
13, 11729, Note_on_c, 10, 72, 0
13, 11760, Note_on_c, 10, 72, 52
13, 11849, Note_on_c, 10, 72, 0
13, 11880, Note_on_c, 10, 70, 52
13, 11969, Note_on_c, 10, 70, 0
13, 12000, Note_on_c, 10, 69, 52
13, 12344, Note_on_c, 10, 69, 0
13, 12360, Note_on_c, 10, 67, 52
13, 12449, Note_on_c, 10, 67, 0
13, 12480, Note_on_c, 10, 67, 52
13, 12569, Note_on_c, 10, 67, 0
13, 12600, Note_on_c, 10, 65, 52
13, 12689, Note_on_c, 10, 65, 0
13, 12720, Note_on_c, 10, 70, 52
13, 12959, Note_on_c, 10, 70, 0
13, 12960, Note_on_c, 10, 69, 52
13, 13064, Note_on_c, 10, 69, 0
13, 13080, Note_on_c, 10, 67, 52
13, 13169, Note_on_c, 10, 67, 0
13, 13200, Note_on_c, 10, 67, 56
13, 13289, Note_on_c, 10, 67, 0
13, 13320, Note_on_c, 10, 65, 60
13, 13409, Note_on_c, 10, 65, 0
13, 13440, Note_on_c, 10, 70, 64
13, 13679, Note_on_c, 10, 70, 0
13, 13680, Note_on_c, 10, 69, 72
13, 13784, Note_on_c, 10, 69, 0
13, 13800, Note_on_c, 10, 74, 84
13, 14039, Note_on_c, 10, 74, 0
13, 14040, Note_on_c, 10, 73, 76
13, 14144, Note_on_c, 10, 73, 0
13, 14160, Note_on_c, 10, 77, 84
13, 14399, Note_on_c, 10, 77, 0
13, 14400, Note_on_c, 10, 76, 76
13, 14504, Note_on_c, 10, 76, 0
13, 14520, Note_on_c, 10, 80, 76
13, 14564, Note_on_c, 10, 80, 0
13, 14565, Note_on_c, 10, 81, 76
13, 14609, Note_on_c, 10, 81, 0
13, 14610, Note_on_c, 10, 80, 76
13, 14654, Note_on_c, 10, 80, 0
13, 14655, Note_on_c, 10, 81, 76
13, 14699, Note_on_c, 10, 81, 0
13, 14700, Note_on_c, 10, 80, 76
13, 14744, Note_on_c, 10, 80, 0
13, 14745, Note_on_c, 10, 81, 76
13, 14789, Note_on_c, 10, 81, 0
13, 14790, Note_on_c, 10, 78, 76
13, 14834, Note_on_c, 10, 78, 0
13, 14835, Note_on_c, 10, 80, 76
13, 14879, Note_on_c, 10, 80, 0
13, 14880, Note_on_c, 10, 81, 76
13, 14969, Note_on_c, 10, 81, 0
13, 15000, Note_on_c, 10, 76, 76
13, 15089, Note_on_c, 10, 76, 0
13, 15120, Note_on_c, 10, 73, 76
13, 15209, Note_on_c, 10, 73, 0
13, 15240, Note_on_c, 10, 74, 76
13, 15284, Note_on_c, 10, 74, 0
13, 15285, Note_on_c, 10, 76, 76
13, 15329, Note_on_c, 10, 76, 0
13, 15330, Note_on_c, 10, 74, 76
13, 15374, Note_on_c, 10, 74, 0
13, 15375, Note_on_c, 10, 76, 76
13, 15419, Note_on_c, 10, 76, 0
13, 15420, Note_on_c, 10, 74, 76
13, 15464, Note_on_c, 10, 74, 0
13, 15465, Note_on_c, 10, 76, 76
13, 15509, Note_on_c, 10, 76, 0
13, 15510, Note_on_c, 10, 73, 76
13, 15554, Note_on_c, 10, 73, 0
13, 15555, Note_on_c, 10, 74, 76
13, 15599, Note_on_c, 10, 74, 0
13, 15600, Note_on_c, 10, 73, 76
13, 15689, Note_on_c, 10, 73, 0
13, 15720, Note_on_c, 10, 76, 76
13, 15809, Note_on_c, 10, 76, 0
13, 15840, Note_on_c, 10, 81, 76
13, 15929, Note_on_c, 10, 81, 0
13, 15960, Note_on_c, 10, 80, 76
13, 16004, Note_on_c, 10, 80, 0
13, 16005, Note_on_c, 10, 81, 76
13, 16049, Note_on_c, 10, 81, 0
13, 16050, Note_on_c, 10, 80, 76
13, 16094, Note_on_c, 10, 80, 0
13, 16095, Note_on_c, 10, 81, 76
13, 16139, Note_on_c, 10, 81, 0
13, 16140, Note_on_c, 10, 80, 76
13, 16184, Note_on_c, 10, 80, 0
13, 16185, Note_on_c, 10, 81, 76
13, 16229, Note_on_c, 10, 81, 0
13, 16230, Note_on_c, 10, 78, 76
13, 16274, Note_on_c, 10, 78, 0
13, 16275, Note_on_c, 10, 80, 76
13, 16319, Note_on_c, 10, 80, 0
13, 16320, Note_on_c, 10, 81, 76
13, 16409, Note_on_c, 10, 81, 0
13, 16440, Note_on_c, 10, 76, 76
13, 16529, Note_on_c, 10, 76, 0
13, 16560, Note_on_c, 10, 73, 76
13, 16649, Note_on_c, 10, 73, 0
13, 16680, Note_on_c, 10, 69, 76
13, 16769, Note_on_c, 10, 69, 0
13, 16800, Note_on_c, 10, 64, 76
13, 16889, Note_on_c, 10, 64, 0
13, 16920, Note_on_c, 10, 61, 76
13, 17009, Note_on_c, 10, 61, 0
13, 17040, Note_on_c, 10, 57, 76
13, 17129, Note_on_c, 10, 57, 0
13, 18360, Note_on_c, 10, 81, 76
13, 18431, Note_on_c, 10, 81, 0
13, 18440, Note_on_c, 10, 81, 76
13, 18479, Note_on_c, 10, 81, 0
13, 18480, Note_on_c, 10, 85, 84
13, 18599, Note_on_c, 10, 85, 0
13, 18600, Note_on_c, 10, 81, 76
13, 18659, Note_on_c, 10, 81, 0
13, 21720, Note_on_c, 10, 79, 44
13, 21959, Note_on_c, 10, 79, 0
13, 21960, Note_on_c, 10, 78, 44
13, 22064, Note_on_c, 10, 78, 0
13, 22080, Note_on_c, 10, 79, 44
13, 22319, Note_on_c, 10, 79, 0
13, 22320, Note_on_c, 10, 78, 44
13, 22424, Note_on_c, 10, 78, 0
13, 22440, Note_on_c, 10, 79, 44
13, 22679, Note_on_c, 10, 79, 0
13, 22680, Note_on_c, 10, 78, 44
13, 22784, Note_on_c, 10, 78, 0
13, 22800, Note_on_c, 10, 79, 44
13, 23039, Note_on_c, 10, 79, 0
13, 23040, Note_on_c, 10, 78, 44
13, 23159, Note_on_c, 10, 78, 0
13, 24120, Note_on_c, 10, 83, 84
13, 24224, Note_on_c, 10, 83, 0
13, 24240, Note_on_c, 10, 86, 84
13, 24359, Note_on_c, 10, 86, 0
13, 24360, Note_on_c, 10, 83, 84
13, 24419, Note_on_c, 10, 83, 0
13, 27480, Note_on_c, 10, 82, 44
13, 27719, Note_on_c, 10, 82, 0
13, 27720, Note_on_c, 10, 81, 44
13, 27824, Note_on_c, 10, 81, 0
13, 27840, Note_on_c, 10, 82, 44
13, 28079, Note_on_c, 10, 82, 0
13, 28080, Note_on_c, 10, 81, 44
13, 28184, Note_on_c, 10, 81, 0
13, 28200, Note_on_c, 10, 82, 44
13, 28439, Note_on_c, 10, 82, 0
13, 28440, Note_on_c, 10, 81, 44
13, 28544, Note_on_c, 10, 81, 0
13, 28560, Note_on_c, 10, 82, 44
13, 28799, Note_on_c, 10, 82, 0
13, 28800, Note_on_c, 10, 81, 44
13, 28919, Note_on_c, 10, 81, 0
13, 29880, Note_on_c, 10, 81, 84
13, 29984, Note_on_c, 10, 81, 0
13, 30000, Note_on_c, 10, 84, 84
13, 30119, Note_on_c, 10, 84, 0
13, 30120, Note_on_c, 10, 81, 84
13, 30179, Note_on_c, 10, 81, 0
13, 30240, Note_on_c, 10, 74, 52
13, 30344, Note_on_c, 10, 74, 0
13, 30360, Note_on_c, 10, 75, 52
13, 30449, Note_on_c, 10, 75, 0
13, 30480, Note_on_c, 10, 75, 52
13, 30569, Note_on_c, 10, 75, 0
13, 30600, Note_on_c, 10, 74, 52
13, 30689, Note_on_c, 10, 74, 0
13, 30720, Note_on_c, 10, 79, 52
13, 30959, Note_on_c, 10, 79, 0
13, 30960, Note_on_c, 10, 77, 52
13, 31064, Note_on_c, 10, 77, 0
13, 31080, Note_on_c, 10, 75, 52
13, 31169, Note_on_c, 10, 75, 0
13, 31200, Note_on_c, 10, 75, 52
13, 31289, Note_on_c, 10, 75, 0
13, 31320, Note_on_c, 10, 74, 52
13, 31409, Note_on_c, 10, 74, 0
13, 31440, Note_on_c, 10, 79, 52
13, 31679, Note_on_c, 10, 79, 0
13, 31680, Note_on_c, 10, 77, 52
13, 31784, Note_on_c, 10, 77, 0
13, 31800, Note_on_c, 10, 77, 52
13, 31919, Note_on_c, 10, 77, 0
13, 32040, Program_c, 10, 45
13, 32160, Note_on_c, 10, 62, 44
13, 32160, Note_on_c, 10, 70, 44
13, 32279, Note_on_c, 10, 62, 0
13, 32279, Note_on_c, 10, 70, 0
13, 32520, Note_on_c, 10, 70, 44
13, 32520, Note_on_c, 10, 62, 44
13, 32639, Note_on_c, 10, 70, 0
13, 32639, Note_on_c, 10, 62, 0
13, 32880, Note_on_c, 10, 70, 44
13, 32880, Note_on_c, 10, 62, 44
13, 32999, Note_on_c, 10, 70, 0
13, 32999, Note_on_c, 10, 62, 0
13, 33240, Note_on_c, 10, 65, 44
13, 33240, Note_on_c, 10, 72, 44
13, 33359, Note_on_c, 10, 65, 0
13, 33359, Note_on_c, 10, 72, 0
13, 33600, Note_on_c, 10, 72, 44
13, 33600, Note_on_c, 10, 65, 44
13, 33719, Note_on_c, 10, 72, 0
13, 33719, Note_on_c, 10, 65, 0
13, 33960, Note_on_c, 10, 65, 44
13, 33960, Note_on_c, 10, 72, 44
13, 34079, Note_on_c, 10, 65, 0
13, 34079, Note_on_c, 10, 72, 0
13, 34320, Note_on_c, 10, 72, 44
13, 34320, Note_on_c, 10, 65, 44
13, 34439, Note_on_c, 10, 72, 0
13, 34439, Note_on_c, 10, 65, 0
13, 34680, Note_on_c, 10, 65, 44
13, 34680, Note_on_c, 10, 74, 44
13, 34799, Note_on_c, 10, 65, 0
13, 34799, Note_on_c, 10, 74, 0
13, 34920, Program_c, 10, 48
13, 35040, Note_on_c, 10, 65, 52
13, 35129, Note_on_c, 10, 65, 0
13, 35160, Note_on_c, 10, 70, 52
13, 35249, Note_on_c, 10, 70, 0
13, 35280, Note_on_c, 10, 70, 53
13, 35369, Note_on_c, 10, 70, 0
13, 35400, Note_on_c, 10, 65, 53
13, 35489, Note_on_c, 10, 65, 0
13, 35520, Note_on_c, 10, 70, 54
13, 35609, Note_on_c, 10, 70, 0
13, 35640, Note_on_c, 10, 70, 54
13, 35729, Note_on_c, 10, 70, 0
13, 35760, Note_on_c, 10, 65, 55
13, 35849, Note_on_c, 10, 65, 0
13, 35880, Note_on_c, 10, 70, 55
13, 35969, Note_on_c, 10, 70, 0
13, 36000, Note_on_c, 10, 70, 56
13, 36089, Note_on_c, 10, 70, 0
13, 36120, Note_on_c, 10, 72, 56
13, 36209, Note_on_c, 10, 72, 0
13, 36240, Note_on_c, 10, 72, 57
13, 36329, Note_on_c, 10, 72, 0
13, 36360, Note_on_c, 10, 72, 58
13, 36449, Note_on_c, 10, 72, 0
13, 36480, Note_on_c, 10, 69, 58
13, 36569, Note_on_c, 10, 69, 0
13, 36600, Note_on_c, 10, 69, 59
13, 36689, Note_on_c, 10, 69, 0
13, 36720, Note_on_c, 10, 72, 59
13, 36809, Note_on_c, 10, 72, 0
13, 36840, Note_on_c, 10, 69, 60
13, 36929, Note_on_c, 10, 69, 0
13, 36960, Note_on_c, 10, 69, 60
13, 37049, Note_on_c, 10, 69, 0
13, 37080, Note_on_c, 10, 72, 61
13, 37169, Note_on_c, 10, 72, 0
13, 37200, Note_on_c, 10, 69, 61
13, 37289, Note_on_c, 10, 69, 0
13, 37320, Note_on_c, 10, 69, 62
13, 37409, Note_on_c, 10, 69, 0
13, 37440, Note_on_c, 10, 72, 62
13, 37529, Note_on_c, 10, 72, 0
13, 37560, Note_on_c, 10, 70, 63
13, 37649, Note_on_c, 10, 70, 0
13, 37680, Note_on_c, 10, 70, 64
13, 37769, Note_on_c, 10, 70, 0
13, 37800, Note_on_c, 10, 74, 64
13, 37889, Note_on_c, 10, 74, 0
13, 39360, Note_on_c, 10, 67, 71
13, 39449, Note_on_c, 10, 67, 0
13, 39480, Note_on_c, 10, 67, 72
13, 39569, Note_on_c, 10, 67, 0
13, 39600, Note_on_c, 10, 69, 72
13, 39689, Note_on_c, 10, 69, 0
13, 39720, Note_on_c, 10, 70, 73
13, 39809, Note_on_c, 10, 70, 0
13, 39840, Note_on_c, 10, 70, 73
13, 39929, Note_on_c, 10, 70, 0
13, 39960, Note_on_c, 10, 72, 74
13, 40049, Note_on_c, 10, 72, 0
13, 40080, Note_on_c, 10, 74, 74
13, 40169, Note_on_c, 10, 74, 0
13, 40200, Note_on_c, 10, 76, 75
13, 40289, Note_on_c, 10, 76, 0
13, 40320, Note_on_c, 10, 77, 76
13, 40379, Note_on_c, 10, 77, 0
13, 40400, Note_on_c, 10, 77, 76
13, 40439, Note_on_c, 10, 77, 0
13, 40440, Note_on_c, 10, 81, 76
13, 40559, Note_on_c, 10, 81, 0
13, 40560, Note_on_c, 10, 77, 76
13, 40619, Note_on_c, 10, 77, 0
13, 40680, Note_on_c, 10, 81, 76
13, 40739, Note_on_c, 10, 81, 0
13, 40760, Note_on_c, 10, 81, 76
13, 40799, Note_on_c, 10, 81, 0
13, 40800, Note_on_c, 10, 84, 76
13, 40919, Note_on_c, 10, 84, 0
13, 40920, Note_on_c, 10, 81, 76
13, 40979, Note_on_c, 10, 81, 0
13, 41040, Note_on_c, 10, 84, 76
13, 41144, Note_on_c, 10, 84, 0
13, 41160, Note_on_c, 10, 89, 84
13, 41249, Note_on_c, 10, 89, 0
13, 41280, Note_on_c, 10, 89, 84
13, 41369, Note_on_c, 10, 89, 0
13, 41400, Note_on_c, 10, 88, 84
13, 41489, Note_on_c, 10, 88, 0
13, 41520, Note_on_c, 10, 86, 84
13, 41609, Note_on_c, 10, 86, 0
13, 41640, Note_on_c, 10, 86, 84
13, 41729, Note_on_c, 10, 86, 0
13, 41760, Note_on_c, 10, 84, 84
13, 41849, Note_on_c, 10, 84, 0
13, 41880, Note_on_c, 10, 82, 84
13, 41969, Note_on_c, 10, 82, 0
13, 42000, Note_on_c, 10, 82, 84
13, 42089, Note_on_c, 10, 82, 0
13, 42120, Note_on_c, 10, 81, 84
13, 42209, Note_on_c, 10, 81, 0
13, 42240, Note_on_c, 10, 79, 84
13, 42584, Note_on_c, 10, 79, 0
13, 42600, Note_on_c, 10, 91, 84
13, 42689, Note_on_c, 10, 91, 0
13, 42720, Note_on_c, 10, 91, 84
13, 42809, Note_on_c, 10, 91, 0
13, 42840, Note_on_c, 10, 89, 84
13, 42929, Note_on_c, 10, 89, 0
13, 42960, Note_on_c, 10, 88, 84
13, 43049, Note_on_c, 10, 88, 0
13, 43080, Note_on_c, 10, 88, 84
13, 43169, Note_on_c, 10, 88, 0
13, 43200, Note_on_c, 10, 86, 84
13, 43289, Note_on_c, 10, 86, 0
13, 43320, Note_on_c, 10, 84, 84
13, 43409, Note_on_c, 10, 84, 0
13, 43440, Note_on_c, 10, 84, 84
13, 43529, Note_on_c, 10, 84, 0
13, 43560, Note_on_c, 10, 82, 84
13, 43649, Note_on_c, 10, 82, 0
13, 43680, Note_on_c, 10, 81, 84
13, 44024, Note_on_c, 10, 81, 0
13, 44040, Note_on_c, 10, 77, 52
13, 44399, Note_on_c, 10, 77, 0
13, 44400, Note_on_c, 10, 77, 52
13, 44759, Note_on_c, 10, 77, 0
13, 44760, Note_on_c, 10, 77, 52
13, 45239, Note_on_c, 10, 77, 0
13, 45240, Note_on_c, 10, 79, 52
13, 45344, Note_on_c, 10, 79, 0
13, 45360, Note_on_c, 10, 79, 52
13, 45449, Note_on_c, 10, 79, 0
13, 45480, Note_on_c, 10, 79, 52
13, 45839, Note_on_c, 10, 79, 0
13, 45840, Note_on_c, 10, 79, 52
13, 46199, Note_on_c, 10, 79, 0
13, 46200, Note_on_c, 10, 79, 52
13, 46679, Note_on_c, 10, 79, 0
13, 46680, Note_on_c, 10, 81, 52
13, 46784, Note_on_c, 10, 81, 0
13, 46800, Note_on_c, 10, 81, 52
13, 46889, Note_on_c, 10, 81, 0
13, 46920, Note_on_c, 10, 67, 52
13, 47009, Note_on_c, 10, 67, 0
13, 47040, Note_on_c, 10, 67, 52
13, 47129, Note_on_c, 10, 67, 0
13, 47160, Note_on_c, 10, 65, 52
13, 47249, Note_on_c, 10, 65, 0
13, 47280, Note_on_c, 10, 70, 52
13, 47519, Note_on_c, 10, 70, 0
13, 47520, Note_on_c, 10, 69, 52
13, 47639, Note_on_c, 10, 69, 0
13, 48240, Control_c, 10, 11, 80
13, 48360, Note_on_c, 10, 67, 76
13, 48400, Control_c, 10, 11, 83
13, 48440, Control_c, 10, 11, 85
13, 48449, Note_on_c, 10, 67, 0
13, 48480, Note_on_c, 10, 67, 76
13, 48480, Control_c, 10, 11, 88
13, 48520, Control_c, 10, 11, 90
13, 48560, Control_c, 10, 11, 93
13, 48569, Note_on_c, 10, 67, 0
13, 48600, Note_on_c, 10, 65, 76
13, 48600, Control_c, 10, 11, 96
13, 48640, Control_c, 10, 11, 98
13, 48680, Control_c, 10, 11, 101
13, 48689, Note_on_c, 10, 65, 0
13, 48720, Control_c, 10, 11, 104
13, 48720, Note_on_c, 10, 70, 76
13, 48760, Control_c, 10, 11, 106
13, 48800, Control_c, 10, 11, 109
13, 48840, Control_c, 10, 11, 111
13, 48880, Control_c, 10, 11, 114
13, 48920, Control_c, 10, 11, 117
13, 48959, Note_on_c, 10, 70, 0
13, 48960, Note_on_c, 10, 69, 76
13, 48960, Control_c, 10, 11, 119
13, 49000, Control_c, 10, 11, 122
13, 49040, Control_c, 10, 11, 127
13, 49064, Note_on_c, 10, 69, 0
13, 49080, Note_on_c, 10, 74, 76
13, 49319, Note_on_c, 10, 74, 0
13, 49320, Note_on_c, 10, 72, 76
13, 49424, Note_on_c, 10, 72, 0
13, 49440, Note_on_c, 10, 77, 84
13, 49679, Note_on_c, 10, 77, 0
13, 49680, Note_on_c, 10, 76, 76
13, 49784, Note_on_c, 10, 76, 0
13, 49800, Note_on_c, 10, 81, 84
13, 50039, Note_on_c, 10, 81, 0
13, 50040, Note_on_c, 10, 79, 76
13, 50144, Note_on_c, 10, 79, 0
13, 50160, Note_on_c, 10, 83, 84
13, 50399, Note_on_c, 10, 83, 0
13, 50400, Note_on_c, 10, 84, 76
13, 50504, Note_on_c, 10, 84, 0
13, 50520, Note_on_c, 10, 83, 52
13, 50564, Note_on_c, 10, 83, 0
13, 50565, Note_on_c, 10, 84, 52
13, 50609, Note_on_c, 10, 84, 0
13, 50610, Note_on_c, 10, 83, 52
13, 50654, Note_on_c, 10, 83, 0
13, 50655, Note_on_c, 10, 84, 52
13, 50699, Note_on_c, 10, 84, 0
13, 50700, Note_on_c, 10, 83, 52
13, 50744, Note_on_c, 10, 83, 0
13, 50745, Note_on_c, 10, 84, 52
13, 50789, Note_on_c, 10, 84, 0
13, 50790, Note_on_c, 10, 81, 52
13, 50834, Note_on_c, 10, 81, 0
13, 50835, Note_on_c, 10, 83, 52
13, 50879, Note_on_c, 10, 83, 0
13, 50880, Note_on_c, 10, 84, 52
13, 50969, Note_on_c, 10, 84, 0
13, 51000, Note_on_c, 10, 79, 52
13, 51089, Note_on_c, 10, 79, 0
13, 51120, Note_on_c, 10, 76, 52
13, 51209, Note_on_c, 10, 76, 0
13, 51240, Note_on_c, 10, 77, 52
13, 51284, Note_on_c, 10, 77, 0
13, 51285, Note_on_c, 10, 79, 52
13, 51329, Note_on_c, 10, 79, 0
13, 51330, Note_on_c, 10, 77, 52
13, 51374, Note_on_c, 10, 77, 0
13, 51375, Note_on_c, 10, 79, 52
13, 51419, Note_on_c, 10, 79, 0
13, 51420, Note_on_c, 10, 77, 52
13, 51464, Note_on_c, 10, 77, 0
13, 51465, Note_on_c, 10, 79, 52
13, 51509, Note_on_c, 10, 79, 0
13, 51510, Note_on_c, 10, 76, 52
13, 51554, Note_on_c, 10, 76, 0
13, 51555, Note_on_c, 10, 77, 52
13, 51599, Note_on_c, 10, 77, 0
13, 51600, Note_on_c, 10, 76, 52
13, 51689, Note_on_c, 10, 76, 0
13, 51720, Note_on_c, 10, 79, 52
13, 51809, Note_on_c, 10, 79, 0
13, 51840, Note_on_c, 10, 84, 52
13, 51929, Note_on_c, 10, 84, 0
13, 51960, Note_on_c, 10, 83, 52
13, 52004, Note_on_c, 10, 83, 0
13, 52005, Note_on_c, 10, 84, 53
13, 52049, Note_on_c, 10, 84, 0
13, 52050, Note_on_c, 10, 83, 54
13, 52094, Note_on_c, 10, 83, 0
13, 52095, Note_on_c, 10, 84, 55
13, 52139, Note_on_c, 10, 84, 0
13, 52140, Note_on_c, 10, 83, 56
13, 52184, Note_on_c, 10, 83, 0
13, 52185, Note_on_c, 10, 84, 57
13, 52229, Note_on_c, 10, 84, 0
13, 52230, Note_on_c, 10, 81, 58
13, 52274, Note_on_c, 10, 81, 0
13, 52275, Note_on_c, 10, 83, 59
13, 52319, Note_on_c, 10, 83, 0
13, 52320, Note_on_c, 10, 84, 60
13, 52409, Note_on_c, 10, 84, 0
13, 52440, Note_on_c, 10, 79, 62
13, 52529, Note_on_c, 10, 79, 0
13, 52560, Note_on_c, 10, 76, 65
13, 52649, Note_on_c, 10, 76, 0
13, 52680, Note_on_c, 10, 83, 68
13, 52724, Note_on_c, 10, 83, 0
13, 52725, Note_on_c, 10, 84, 69
13, 52769, Note_on_c, 10, 84, 0
13, 52770, Note_on_c, 10, 83, 70
13, 52814, Note_on_c, 10, 83, 0
13, 52815, Note_on_c, 10, 84, 71
13, 52859, Note_on_c, 10, 84, 0
13, 52860, Note_on_c, 10, 83, 72
13, 52904, Note_on_c, 10, 83, 0
13, 52905, Note_on_c, 10, 84, 73
13, 52949, Note_on_c, 10, 84, 0
13, 52950, Note_on_c, 10, 81, 74
13, 52994, Note_on_c, 10, 81, 0
13, 52995, Note_on_c, 10, 83, 75
13, 53039, Note_on_c, 10, 83, 0
13, 53040, Note_on_c, 10, 84, 76
13, 53129, Note_on_c, 10, 84, 0
13, 53160, Note_on_c, 10, 79, 78
13, 53249, Note_on_c, 10, 79, 0
13, 53280, Note_on_c, 10, 76, 81
13, 53369, Note_on_c, 10, 76, 0
13, 53400, Note_on_c, 10, 76, 84
13, 53444, Note_on_c, 10, 76, 0
13, 53445, Note_on_c, 10, 77, 84
13, 53489, Note_on_c, 10, 77, 0
13, 53490, Note_on_c, 10, 76, 84
13, 53534, Note_on_c, 10, 76, 0
13, 53535, Note_on_c, 10, 77, 84
13, 53579, Note_on_c, 10, 77, 0
13, 53580, Note_on_c, 10, 76, 84
13, 53624, Note_on_c, 10, 76, 0
13, 53625, Note_on_c, 10, 77, 84
13, 53669, Note_on_c, 10, 77, 0
13, 53670, Note_on_c, 10, 74, 84
13, 53714, Note_on_c, 10, 74, 0
13, 53715, Note_on_c, 10, 76, 84
13, 53759, Note_on_c, 10, 76, 0
13, 53760, Note_on_c, 10, 77, 84
13, 53849, Note_on_c, 10, 77, 0
13, 53880, Note_on_c, 10, 72, 84
13, 53969, Note_on_c, 10, 72, 0
13, 54000, Note_on_c, 10, 69, 84
13, 54089, Note_on_c, 10, 69, 0
13, 54120, Note_on_c, 10, 70, 84
13, 54164, Note_on_c, 10, 70, 0
13, 54165, Note_on_c, 10, 72, 84
13, 54209, Note_on_c, 10, 72, 0
13, 54210, Note_on_c, 10, 70, 84
13, 54254, Note_on_c, 10, 70, 0
13, 54255, Note_on_c, 10, 72, 84
13, 54299, Note_on_c, 10, 72, 0
13, 54300, Note_on_c, 10, 70, 84
13, 54344, Note_on_c, 10, 70, 0
13, 54345, Note_on_c, 10, 72, 84
13, 54389, Note_on_c, 10, 72, 0
13, 54390, Note_on_c, 10, 69, 84
13, 54434, Note_on_c, 10, 69, 0
13, 54435, Note_on_c, 10, 70, 84
13, 54479, Note_on_c, 10, 70, 0
13, 54480, Note_on_c, 10, 69, 84
13, 54569, Note_on_c, 10, 69, 0
13, 54600, Note_on_c, 10, 72, 84
13, 54689, Note_on_c, 10, 72, 0
13, 54720, Note_on_c, 10, 77, 84
13, 54809, Note_on_c, 10, 77, 0
13, 54840, Note_on_c, 10, 76, 84
13, 54884, Note_on_c, 10, 76, 0
13, 54885, Note_on_c, 10, 77, 84
13, 54929, Note_on_c, 10, 77, 0
13, 54930, Note_on_c, 10, 76, 84
13, 54974, Note_on_c, 10, 76, 0
13, 54975, Note_on_c, 10, 77, 84
13, 55019, Note_on_c, 10, 77, 0
13, 55020, Note_on_c, 10, 76, 84
13, 55064, Note_on_c, 10, 76, 0
13, 55065, Note_on_c, 10, 77, 84
13, 55109, Note_on_c, 10, 77, 0
13, 55110, Note_on_c, 10, 74, 84
13, 55154, Note_on_c, 10, 74, 0
13, 55155, Note_on_c, 10, 76, 84
13, 55199, Note_on_c, 10, 76, 0
13, 55200, Note_on_c, 10, 77, 84
13, 55289, Note_on_c, 10, 77, 0
13, 55320, Note_on_c, 10, 72, 84
13, 55409, Note_on_c, 10, 72, 0
13, 55440, Note_on_c, 10, 69, 84
13, 55529, Note_on_c, 10, 69, 0
13, 55560, Note_on_c, 10, 76, 84
13, 55604, Note_on_c, 10, 76, 0
13, 55605, Note_on_c, 10, 77, 84
13, 55649, Note_on_c, 10, 77, 0
13, 55650, Note_on_c, 10, 76, 84
13, 55694, Note_on_c, 10, 76, 0
13, 55695, Note_on_c, 10, 77, 84
13, 55739, Note_on_c, 10, 77, 0
13, 55740, Note_on_c, 10, 76, 84
13, 55784, Note_on_c, 10, 76, 0
13, 55785, Note_on_c, 10, 77, 84
13, 55829, Note_on_c, 10, 77, 0
13, 55830, Note_on_c, 10, 74, 84
13, 55874, Note_on_c, 10, 74, 0
13, 55875, Note_on_c, 10, 76, 84
13, 55919, Note_on_c, 10, 76, 0
13, 55920, Note_on_c, 10, 77, 84
13, 56009, Note_on_c, 10, 77, 0
13, 56040, Note_on_c, 10, 72, 84
13, 56129, Note_on_c, 10, 72, 0
13, 56160, Note_on_c, 10, 69, 84
13, 56249, Note_on_c, 10, 69, 0
13, 56280, Note_on_c, 10, 76, 84
13, 56324, Note_on_c, 10, 76, 0
13, 56325, Note_on_c, 10, 77, 84
13, 56369, Note_on_c, 10, 77, 0
13, 56370, Note_on_c, 10, 76, 84
13, 56414, Note_on_c, 10, 76, 0
13, 56415, Note_on_c, 10, 77, 84
13, 56459, Note_on_c, 10, 77, 0
13, 56460, Note_on_c, 10, 76, 84
13, 56504, Note_on_c, 10, 76, 0
13, 56505, Note_on_c, 10, 77, 84
13, 56549, Note_on_c, 10, 77, 0
13, 56550, Note_on_c, 10, 74, 84
13, 56594, Note_on_c, 10, 74, 0
13, 56595, Note_on_c, 10, 76, 84
13, 56639, Note_on_c, 10, 76, 0
13, 56640, Note_on_c, 10, 77, 84
13, 56729, Note_on_c, 10, 77, 0
13, 56760, Note_on_c, 10, 72, 84
13, 56849, Note_on_c, 10, 72, 0
13, 56880, Note_on_c, 10, 69, 84
13, 56969, Note_on_c, 10, 69, 0
13, 57000, Note_on_c, 10, 65, 84
13, 57089, Note_on_c, 10, 65, 0
13, 57120, Note_on_c, 10, 60, 84
13, 57209, Note_on_c, 10, 60, 0
13, 57240, Note_on_c, 10, 57, 84
13, 57329, Note_on_c, 10, 57, 0
13, 57360, Note_on_c, 10, 65, 84
13, 57360, Note_on_c, 10, 57, 84
13, 57479, Note_on_c, 10, 65, 0
13, 57479, Note_on_c, 10, 57, 0
13, 58680, Note_on_c, 10, 77, 84
13, 58751, Note_on_c, 10, 77, 0
13, 58760, Note_on_c, 10, 77, 84
13, 58799, Note_on_c, 10, 77, 0
13, 58800, Note_on_c, 10, 81, 92
13, 58919, Note_on_c, 10, 81, 0
13, 58920, Note_on_c, 10, 77, 84
13, 58979, Note_on_c, 10, 77, 0
13, 59040, Note_on_c, 10, 77, 84
13, 59111, Note_on_c, 10, 77, 0
13, 59120, Note_on_c, 10, 77, 84
13, 59159, Note_on_c, 10, 77, 0
13, 59160, Note_on_c, 10, 81, 92
13, 59279, Note_on_c, 10, 81, 0
13, 59280, Note_on_c, 10, 77, 84
13, 59339, Note_on_c, 10, 77, 0
13, 59400, Note_on_c, 10, 77, 84
13, 59471, Note_on_c, 10, 77, 0
13, 59480, Note_on_c, 10, 77, 84
13, 59519, Note_on_c, 10, 77, 0
13, 59520, Note_on_c, 10, 81, 92
13, 59639, Note_on_c, 10, 81, 0
13, 59640, Note_on_c, 10, 77, 84
13, 59744, Note_on_c, 10, 77, 0
13, 59760, Note_on_c, 10, 77, 84
13, 59831, Note_on_c, 10, 77, 0
13, 59840, Note_on_c, 10, 77, 84
13, 59879, Note_on_c, 10, 77, 0
13, 59880, Note_on_c, 10, 81, 92
13, 59999, Note_on_c, 10, 81, 0
13, 60000, Note_on_c, 10, 77, 84
13, 60104, Note_on_c, 10, 77, 0
13, 60120, Note_on_c, 10, 77, 84
13, 60191, Note_on_c, 10, 77, 0
13, 60200, Note_on_c, 10, 77, 84
13, 60239, Note_on_c, 10, 77, 0
13, 60240, Note_on_c, 10, 81, 92
13, 60359, Note_on_c, 10, 81, 0
13, 60360, Note_on_c, 10, 77, 84
13, 60464, Note_on_c, 10, 77, 0
13, 60480, Note_on_c, 10, 77, 84
13, 60569, Note_on_c, 10, 77, 0
13, 60600, Note_on_c, 10, 81, 84
13, 60600, Note_on_c, 10, 69, 84
13, 60959, Note_on_c, 10, 81, 0
13, 60959, Note_on_c, 10, 69, 0
13, 60960, Note_on_c, 10, 69, 84
13, 60960, Note_on_c, 10, 81, 84
13, 61319, Note_on_c, 10, 69, 0
13, 61319, Note_on_c, 10, 81, 0
13, 61320, Note_on_c, 10, 81, 84
13, 61320, Note_on_c, 10, 69, 84
13, 61679, Note_on_c, 10, 81, 0
13, 61679, Note_on_c, 10, 69, 0
13, 61680, Note_on_c, 10, 81, 84
13, 61680, Note_on_c, 10, 69, 84
13, 61919, Note_on_c, 10, 81, 0
13, 61919, Note_on_c, 10, 69, 0
13, 63000, Note_on_c, 10, 81, 76
13, 63071, Note_on_c, 10, 81, 0
13, 63080, Note_on_c, 10, 81, 76
13, 63119, Note_on_c, 10, 81, 0
13, 63120, Note_on_c, 10, 85, 84
13, 63239, Note_on_c, 10, 85, 0
13, 63240, Note_on_c, 10, 81, 76
13, 63299, Note_on_c, 10, 81, 0
13, 66360, Note_on_c, 10, 79, 44
13, 66599, Note_on_c, 10, 79, 0
13, 66600, Note_on_c, 10, 78, 44
13, 66704, Note_on_c, 10, 78, 0
13, 66720, Note_on_c, 10, 79, 44
13, 66959, Note_on_c, 10, 79, 0
13, 66960, Note_on_c, 10, 78, 44
13, 67064, Note_on_c, 10, 78, 0
13, 67080, Note_on_c, 10, 79, 44
13, 67319, Note_on_c, 10, 79, 0
13, 67320, Note_on_c, 10, 78, 44
13, 67424, Note_on_c, 10, 78, 0
13, 67440, Note_on_c, 10, 79, 44
13, 67679, Note_on_c, 10, 79, 0
13, 67680, Note_on_c, 10, 78, 44
13, 67799, Note_on_c, 10, 78, 0
13, 68760, Note_on_c, 10, 83, 84
13, 68864, Note_on_c, 10, 83, 0
13, 68880, Note_on_c, 10, 86, 84
13, 68999, Note_on_c, 10, 86, 0
13, 69000, Note_on_c, 10, 83, 84
13, 69059, Note_on_c, 10, 83, 0
13, 72120, Note_on_c, 10, 82, 44
13, 72359, Note_on_c, 10, 82, 0
13, 72360, Note_on_c, 10, 81, 44
13, 72464, Note_on_c, 10, 81, 0
13, 72480, Note_on_c, 10, 82, 44
13, 72719, Note_on_c, 10, 82, 0
13, 72720, Note_on_c, 10, 81, 44
13, 72824, Note_on_c, 10, 81, 0
13, 72840, Note_on_c, 10, 82, 44
13, 73079, Note_on_c, 10, 82, 0
13, 73080, Note_on_c, 10, 81, 44
13, 73184, Note_on_c, 10, 81, 0
13, 73200, Note_on_c, 10, 82, 44
13, 73439, Note_on_c, 10, 82, 0
13, 73440, Note_on_c, 10, 81, 44
13, 73559, Note_on_c, 10, 81, 0
13, 74520, Note_on_c, 10, 81, 84
13, 74624, Note_on_c, 10, 81, 0
13, 74640, Note_on_c, 10, 84, 84
13, 74759, Note_on_c, 10, 84, 0
13, 74760, Note_on_c, 10, 81, 84
13, 74819, Note_on_c, 10, 81, 0
13, 74880, Note_on_c, 10, 74, 52
13, 74984, Note_on_c, 10, 74, 0
13, 75000, Note_on_c, 10, 75, 52
13, 75089, Note_on_c, 10, 75, 0
13, 75120, Note_on_c, 10, 75, 52
13, 75209, Note_on_c, 10, 75, 0
13, 75240, Note_on_c, 10, 74, 52
13, 75329, Note_on_c, 10, 74, 0
13, 75360, Note_on_c, 10, 79, 52
13, 75599, Note_on_c, 10, 79, 0
13, 75600, Note_on_c, 10, 77, 52
13, 75704, Note_on_c, 10, 77, 0
13, 75720, Note_on_c, 10, 75, 52
13, 75809, Note_on_c, 10, 75, 0
13, 75840, Note_on_c, 10, 75, 52
13, 75929, Note_on_c, 10, 75, 0
13, 75960, Note_on_c, 10, 74, 52
13, 76049, Note_on_c, 10, 74, 0
13, 76080, Note_on_c, 10, 79, 52
13, 76319, Note_on_c, 10, 79, 0
13, 76320, Note_on_c, 10, 77, 52
13, 76424, Note_on_c, 10, 77, 0
13, 76440, Note_on_c, 10, 77, 52
13, 76559, Note_on_c, 10, 77, 0
13, 76680, Program_c, 10, 45
13, 76800, Note_on_c, 10, 70, 44
13, 76800, Note_on_c, 10, 62, 44
13, 76919, Note_on_c, 10, 70, 0
13, 76919, Note_on_c, 10, 62, 0
13, 77160, Note_on_c, 10, 62, 44
13, 77160, Note_on_c, 10, 70, 44
13, 77279, Note_on_c, 10, 62, 0
13, 77279, Note_on_c, 10, 70, 0
13, 77520, Note_on_c, 10, 70, 44
13, 77520, Note_on_c, 10, 62, 44
13, 77639, Note_on_c, 10, 70, 0
13, 77639, Note_on_c, 10, 62, 0
13, 77880, Note_on_c, 10, 72, 44
13, 77880, Note_on_c, 10, 65, 44
13, 77999, Note_on_c, 10, 72, 0
13, 77999, Note_on_c, 10, 65, 0
13, 78240, Note_on_c, 10, 65, 44
13, 78240, Note_on_c, 10, 72, 44
13, 78359, Note_on_c, 10, 65, 0
13, 78359, Note_on_c, 10, 72, 0
13, 78600, Note_on_c, 10, 72, 44
13, 78600, Note_on_c, 10, 65, 44
13, 78719, Note_on_c, 10, 72, 0
13, 78719, Note_on_c, 10, 65, 0
13, 78960, Note_on_c, 10, 65, 44
13, 78960, Note_on_c, 10, 72, 44
13, 79079, Note_on_c, 10, 65, 0
13, 79079, Note_on_c, 10, 72, 0
13, 79320, Note_on_c, 10, 74, 44
13, 79320, Note_on_c, 10, 65, 44
13, 79439, Note_on_c, 10, 74, 0
13, 79439, Note_on_c, 10, 65, 0
13, 79560, Program_c, 10, 48
13, 79680, Note_on_c, 10, 65, 52
13, 79769, Note_on_c, 10, 65, 0
13, 79800, Note_on_c, 10, 70, 52
13, 79889, Note_on_c, 10, 70, 0
13, 79920, Note_on_c, 10, 70, 53
13, 80009, Note_on_c, 10, 70, 0
13, 80040, Note_on_c, 10, 65, 53
13, 80129, Note_on_c, 10, 65, 0
13, 80160, Note_on_c, 10, 70, 54
13, 80249, Note_on_c, 10, 70, 0
13, 80280, Note_on_c, 10, 70, 54
13, 80369, Note_on_c, 10, 70, 0
13, 80400, Note_on_c, 10, 65, 55
13, 80489, Note_on_c, 10, 65, 0
13, 80520, Note_on_c, 10, 70, 55
13, 80609, Note_on_c, 10, 70, 0
13, 80640, Note_on_c, 10, 70, 56
13, 80729, Note_on_c, 10, 70, 0
13, 80760, Note_on_c, 10, 72, 56
13, 80849, Note_on_c, 10, 72, 0
13, 80880, Note_on_c, 10, 72, 57
13, 80969, Note_on_c, 10, 72, 0
13, 81000, Note_on_c, 10, 72, 58
13, 81089, Note_on_c, 10, 72, 0
13, 81120, Note_on_c, 10, 69, 58
13, 81209, Note_on_c, 10, 69, 0
13, 81240, Note_on_c, 10, 69, 59
13, 81329, Note_on_c, 10, 69, 0
13, 81360, Note_on_c, 10, 72, 59
13, 81449, Note_on_c, 10, 72, 0
13, 81480, Note_on_c, 10, 69, 60
13, 81569, Note_on_c, 10, 69, 0
13, 81600, Note_on_c, 10, 69, 60
13, 81689, Note_on_c, 10, 69, 0
13, 81720, Note_on_c, 10, 72, 61
13, 81809, Note_on_c, 10, 72, 0
13, 81840, Note_on_c, 10, 69, 61
13, 81929, Note_on_c, 10, 69, 0
13, 81960, Note_on_c, 10, 69, 62
13, 82049, Note_on_c, 10, 69, 0
13, 82080, Note_on_c, 10, 72, 62
13, 82169, Note_on_c, 10, 72, 0
13, 82200, Note_on_c, 10, 70, 63
13, 82289, Note_on_c, 10, 70, 0
13, 82320, Note_on_c, 10, 70, 64
13, 82409, Note_on_c, 10, 70, 0
13, 82440, Note_on_c, 10, 74, 64
13, 82529, Note_on_c, 10, 74, 0
13, 84000, Note_on_c, 10, 67, 71
13, 84089, Note_on_c, 10, 67, 0
13, 84120, Note_on_c, 10, 67, 72
13, 84209, Note_on_c, 10, 67, 0
13, 84240, Note_on_c, 10, 69, 72
13, 84329, Note_on_c, 10, 69, 0
13, 84360, Note_on_c, 10, 70, 73
13, 84449, Note_on_c, 10, 70, 0
13, 84480, Note_on_c, 10, 70, 73
13, 84569, Note_on_c, 10, 70, 0
13, 84600, Note_on_c, 10, 72, 74
13, 84689, Note_on_c, 10, 72, 0
13, 84720, Note_on_c, 10, 74, 74
13, 84809, Note_on_c, 10, 74, 0
13, 84840, Note_on_c, 10, 76, 75
13, 84929, Note_on_c, 10, 76, 0
13, 84960, Note_on_c, 10, 77, 76
13, 85019, Note_on_c, 10, 77, 0
13, 85040, Note_on_c, 10, 77, 76
13, 85079, Note_on_c, 10, 77, 0
13, 85080, Note_on_c, 10, 81, 76
13, 85199, Note_on_c, 10, 81, 0
13, 85200, Note_on_c, 10, 77, 76
13, 85259, Note_on_c, 10, 77, 0
13, 85320, Note_on_c, 10, 81, 76
13, 85379, Note_on_c, 10, 81, 0
13, 85400, Note_on_c, 10, 81, 76
13, 85439, Note_on_c, 10, 81, 0
13, 85440, Note_on_c, 10, 84, 76
13, 85559, Note_on_c, 10, 84, 0
13, 85560, Note_on_c, 10, 81, 76
13, 85619, Note_on_c, 10, 81, 0
13, 85680, Note_on_c, 10, 84, 76
13, 85784, Note_on_c, 10, 84, 0
13, 85800, Note_on_c, 10, 89, 84
13, 85889, Note_on_c, 10, 89, 0
13, 85920, Note_on_c, 10, 89, 84
13, 86009, Note_on_c, 10, 89, 0
13, 86040, Note_on_c, 10, 88, 84
13, 86129, Note_on_c, 10, 88, 0
13, 86160, Note_on_c, 10, 86, 84
13, 86249, Note_on_c, 10, 86, 0
13, 86280, Note_on_c, 10, 86, 84
13, 86369, Note_on_c, 10, 86, 0
13, 86400, Note_on_c, 10, 84, 84
13, 86489, Note_on_c, 10, 84, 0
13, 86520, Note_on_c, 10, 82, 84
13, 86609, Note_on_c, 10, 82, 0
13, 86640, Note_on_c, 10, 82, 84
13, 86729, Note_on_c, 10, 82, 0
13, 86760, Note_on_c, 10, 81, 84
13, 86849, Note_on_c, 10, 81, 0
13, 86880, Note_on_c, 10, 79, 84
13, 87224, Note_on_c, 10, 79, 0
13, 87240, Note_on_c, 10, 91, 84
13, 87329, Note_on_c, 10, 91, 0
13, 87360, Note_on_c, 10, 91, 84
13, 87449, Note_on_c, 10, 91, 0
13, 87480, Note_on_c, 10, 89, 84
13, 87569, Note_on_c, 10, 89, 0
13, 87600, Note_on_c, 10, 88, 84
13, 87689, Note_on_c, 10, 88, 0
13, 87720, Note_on_c, 10, 88, 84
13, 87809, Note_on_c, 10, 88, 0
13, 87840, Note_on_c, 10, 86, 84
13, 87929, Note_on_c, 10, 86, 0
13, 87960, Note_on_c, 10, 84, 84
13, 88049, Note_on_c, 10, 84, 0
13, 88080, Note_on_c, 10, 84, 84
13, 88169, Note_on_c, 10, 84, 0
13, 88200, Note_on_c, 10, 82, 84
13, 88289, Note_on_c, 10, 82, 0
13, 88320, Note_on_c, 10, 81, 84
13, 88664, Note_on_c, 10, 81, 0
13, 88680, Note_on_c, 10, 77, 52
13, 89039, Note_on_c, 10, 77, 0
13, 89040, Note_on_c, 10, 77, 52
13, 89399, Note_on_c, 10, 77, 0
13, 89400, Note_on_c, 10, 77, 52
13, 89879, Note_on_c, 10, 77, 0
13, 89880, Note_on_c, 10, 79, 52
13, 89984, Note_on_c, 10, 79, 0
13, 90000, Note_on_c, 10, 79, 52
13, 90089, Note_on_c, 10, 79, 0
13, 90120, Note_on_c, 10, 79, 52
13, 90479, Note_on_c, 10, 79, 0
13, 90480, Note_on_c, 10, 79, 52
13, 90839, Note_on_c, 10, 79, 0
13, 90840, Note_on_c, 10, 79, 52
13, 91319, Note_on_c, 10, 79, 0
13, 91320, Note_on_c, 10, 81, 52
13, 91424, Note_on_c, 10, 81, 0
13, 91440, Note_on_c, 10, 81, 52
13, 91529, Note_on_c, 10, 81, 0
13, 91560, Note_on_c, 10, 67, 52
13, 91649, Note_on_c, 10, 67, 0
13, 91680, Note_on_c, 10, 67, 52
13, 91769, Note_on_c, 10, 67, 0
13, 91800, Note_on_c, 10, 65, 52
13, 91889, Note_on_c, 10, 65, 0
13, 91920, Note_on_c, 10, 70, 52
13, 92159, Note_on_c, 10, 70, 0
13, 92160, Note_on_c, 10, 69, 52
13, 92279, Note_on_c, 10, 69, 0
13, 92880, Control_c, 10, 11, 80
13, 93000, Note_on_c, 10, 67, 76
13, 93040, Control_c, 10, 11, 83
13, 93080, Control_c, 10, 11, 85
13, 93089, Note_on_c, 10, 67, 0
13, 93120, Note_on_c, 10, 67, 76
13, 93120, Control_c, 10, 11, 88
13, 93160, Control_c, 10, 11, 90
13, 93200, Control_c, 10, 11, 93
13, 93209, Note_on_c, 10, 67, 0
13, 93240, Control_c, 10, 11, 96
13, 93240, Note_on_c, 10, 65, 76
13, 93280, Control_c, 10, 11, 98
13, 93320, Control_c, 10, 11, 101
13, 93329, Note_on_c, 10, 65, 0
13, 93360, Control_c, 10, 11, 104
13, 93360, Note_on_c, 10, 70, 76
13, 93400, Control_c, 10, 11, 106
13, 93440, Control_c, 10, 11, 109
13, 93480, Control_c, 10, 11, 111
13, 93520, Control_c, 10, 11, 114
13, 93560, Control_c, 10, 11, 117
13, 93599, Note_on_c, 10, 70, 0
13, 93600, Note_on_c, 10, 69, 76
13, 93600, Control_c, 10, 11, 119
13, 93640, Control_c, 10, 11, 122
13, 93680, Control_c, 10, 11, 127
13, 93704, Note_on_c, 10, 69, 0
13, 93720, Note_on_c, 10, 74, 76
13, 93959, Note_on_c, 10, 74, 0
13, 93960, Note_on_c, 10, 72, 76
13, 94064, Note_on_c, 10, 72, 0
13, 94080, Note_on_c, 10, 77, 84
13, 94319, Note_on_c, 10, 77, 0
13, 94320, Note_on_c, 10, 76, 76
13, 94424, Note_on_c, 10, 76, 0
13, 94440, Note_on_c, 10, 81, 84
13, 94679, Note_on_c, 10, 81, 0
13, 94680, Note_on_c, 10, 79, 76
13, 94784, Note_on_c, 10, 79, 0
13, 94800, Note_on_c, 10, 83, 84
13, 95039, Note_on_c, 10, 83, 0
13, 95040, Note_on_c, 10, 84, 76
13, 95144, Note_on_c, 10, 84, 0
13, 95160, Note_on_c, 10, 83, 52
13, 95204, Note_on_c, 10, 83, 0
13, 95205, Note_on_c, 10, 84, 52
13, 95249, Note_on_c, 10, 84, 0
13, 95250, Note_on_c, 10, 83, 52
13, 95294, Note_on_c, 10, 83, 0
13, 95295, Note_on_c, 10, 84, 52
13, 95339, Note_on_c, 10, 84, 0
13, 95340, Note_on_c, 10, 83, 52
13, 95384, Note_on_c, 10, 83, 0
13, 95385, Note_on_c, 10, 84, 52
13, 95429, Note_on_c, 10, 84, 0
13, 95430, Note_on_c, 10, 81, 52
13, 95474, Note_on_c, 10, 81, 0
13, 95475, Note_on_c, 10, 83, 52
13, 95519, Note_on_c, 10, 83, 0
13, 95520, Note_on_c, 10, 84, 52
13, 95609, Note_on_c, 10, 84, 0
13, 95640, Note_on_c, 10, 79, 52
13, 95729, Note_on_c, 10, 79, 0
13, 95760, Note_on_c, 10, 76, 52
13, 95849, Note_on_c, 10, 76, 0
13, 95880, Note_on_c, 10, 77, 52
13, 95924, Note_on_c, 10, 77, 0
13, 95925, Note_on_c, 10, 79, 52
13, 95969, Note_on_c, 10, 79, 0
13, 95970, Note_on_c, 10, 77, 52
13, 96014, Note_on_c, 10, 77, 0
13, 96015, Note_on_c, 10, 79, 52
13, 96059, Note_on_c, 10, 79, 0
13, 96060, Note_on_c, 10, 77, 52
13, 96104, Note_on_c, 10, 77, 0
13, 96105, Note_on_c, 10, 79, 52
13, 96149, Note_on_c, 10, 79, 0
13, 96150, Note_on_c, 10, 76, 52
13, 96194, Note_on_c, 10, 76, 0
13, 96195, Note_on_c, 10, 77, 52
13, 96239, Note_on_c, 10, 77, 0
13, 96240, Note_on_c, 10, 76, 52
13, 96329, Note_on_c, 10, 76, 0
13, 96360, Note_on_c, 10, 79, 52
13, 96449, Note_on_c, 10, 79, 0
13, 96480, Note_on_c, 10, 84, 52
13, 96569, Note_on_c, 10, 84, 0
13, 96600, Note_on_c, 10, 83, 52
13, 96644, Note_on_c, 10, 83, 0
13, 96645, Note_on_c, 10, 84, 53
13, 96689, Note_on_c, 10, 84, 0
13, 96690, Note_on_c, 10, 83, 54
13, 96734, Note_on_c, 10, 83, 0
13, 96735, Note_on_c, 10, 84, 55
13, 96779, Note_on_c, 10, 84, 0
13, 96780, Note_on_c, 10, 83, 56
13, 96824, Note_on_c, 10, 83, 0
13, 96825, Note_on_c, 10, 84, 57
13, 96869, Note_on_c, 10, 84, 0
13, 96870, Note_on_c, 10, 81, 58
13, 96914, Note_on_c, 10, 81, 0
13, 96915, Note_on_c, 10, 83, 59
13, 96959, Note_on_c, 10, 83, 0
13, 96960, Note_on_c, 10, 84, 60
13, 97049, Note_on_c, 10, 84, 0
13, 97080, Note_on_c, 10, 79, 62
13, 97169, Note_on_c, 10, 79, 0
13, 97200, Note_on_c, 10, 76, 65
13, 97289, Note_on_c, 10, 76, 0
13, 97320, Note_on_c, 10, 83, 68
13, 97364, Note_on_c, 10, 83, 0
13, 97365, Note_on_c, 10, 84, 69
13, 97409, Note_on_c, 10, 84, 0
13, 97410, Note_on_c, 10, 83, 70
13, 97454, Note_on_c, 10, 83, 0
13, 97455, Note_on_c, 10, 84, 71
13, 97499, Note_on_c, 10, 84, 0
13, 97500, Note_on_c, 10, 83, 72
13, 97544, Note_on_c, 10, 83, 0
13, 97545, Note_on_c, 10, 84, 73
13, 97589, Note_on_c, 10, 84, 0
13, 97590, Note_on_c, 10, 81, 74
13, 97634, Note_on_c, 10, 81, 0
13, 97635, Note_on_c, 10, 83, 75
13, 97679, Note_on_c, 10, 83, 0
13, 97680, Note_on_c, 10, 84, 76
13, 97769, Note_on_c, 10, 84, 0
13, 97800, Note_on_c, 10, 79, 78
13, 97889, Note_on_c, 10, 79, 0
13, 97920, Note_on_c, 10, 76, 81
13, 98009, Note_on_c, 10, 76, 0
13, 98040, Note_on_c, 10, 76, 84
13, 98084, Note_on_c, 10, 76, 0
13, 98085, Note_on_c, 10, 77, 84
13, 98129, Note_on_c, 10, 77, 0
13, 98130, Note_on_c, 10, 76, 84
13, 98174, Note_on_c, 10, 76, 0
13, 98175, Note_on_c, 10, 77, 84
13, 98219, Note_on_c, 10, 77, 0
13, 98220, Note_on_c, 10, 76, 84
13, 98264, Note_on_c, 10, 76, 0
13, 98265, Note_on_c, 10, 77, 84
13, 98309, Note_on_c, 10, 77, 0
13, 98310, Note_on_c, 10, 74, 84
13, 98354, Note_on_c, 10, 74, 0
13, 98355, Note_on_c, 10, 76, 84
13, 98399, Note_on_c, 10, 76, 0
13, 98400, Note_on_c, 10, 77, 84
13, 98489, Note_on_c, 10, 77, 0
13, 98520, Note_on_c, 10, 72, 84
13, 98609, Note_on_c, 10, 72, 0
13, 98640, Note_on_c, 10, 69, 84
13, 98729, Note_on_c, 10, 69, 0
13, 98760, Note_on_c, 10, 70, 84
13, 98804, Note_on_c, 10, 70, 0
13, 98805, Note_on_c, 10, 72, 84
13, 98849, Note_on_c, 10, 72, 0
13, 98850, Note_on_c, 10, 70, 84
13, 98894, Note_on_c, 10, 70, 0
13, 98895, Note_on_c, 10, 72, 84
13, 98939, Note_on_c, 10, 72, 0
13, 98940, Note_on_c, 10, 70, 84
13, 98984, Note_on_c, 10, 70, 0
13, 98985, Note_on_c, 10, 72, 84
13, 99029, Note_on_c, 10, 72, 0
13, 99030, Note_on_c, 10, 69, 84
13, 99074, Note_on_c, 10, 69, 0
13, 99075, Note_on_c, 10, 70, 84
13, 99119, Note_on_c, 10, 70, 0
13, 99120, Note_on_c, 10, 69, 84
13, 99209, Note_on_c, 10, 69, 0
13, 99240, Note_on_c, 10, 72, 84
13, 99329, Note_on_c, 10, 72, 0
13, 99360, Note_on_c, 10, 77, 84
13, 99449, Note_on_c, 10, 77, 0
13, 99480, Note_on_c, 10, 76, 84
13, 99524, Note_on_c, 10, 76, 0
13, 99525, Note_on_c, 10, 77, 84
13, 99569, Note_on_c, 10, 77, 0
13, 99570, Note_on_c, 10, 76, 84
13, 99614, Note_on_c, 10, 76, 0
13, 99615, Note_on_c, 10, 77, 84
13, 99659, Note_on_c, 10, 77, 0
13, 99660, Note_on_c, 10, 76, 84
13, 99704, Note_on_c, 10, 76, 0
13, 99705, Note_on_c, 10, 77, 84
13, 99749, Note_on_c, 10, 77, 0
13, 99750, Note_on_c, 10, 74, 84
13, 99794, Note_on_c, 10, 74, 0
13, 99795, Note_on_c, 10, 76, 84
13, 99839, Note_on_c, 10, 76, 0
13, 99840, Note_on_c, 10, 77, 84
13, 99929, Note_on_c, 10, 77, 0
13, 99960, Note_on_c, 10, 72, 84
13, 100049, Note_on_c, 10, 72, 0
13, 100080, Note_on_c, 10, 69, 84
13, 100169, Note_on_c, 10, 69, 0
13, 100200, Note_on_c, 10, 76, 84
13, 100244, Note_on_c, 10, 76, 0
13, 100245, Note_on_c, 10, 77, 84
13, 100289, Note_on_c, 10, 77, 0
13, 100290, Note_on_c, 10, 76, 84
13, 100334, Note_on_c, 10, 76, 0
13, 100335, Note_on_c, 10, 77, 84
13, 100379, Note_on_c, 10, 77, 0
13, 100380, Note_on_c, 10, 76, 84
13, 100424, Note_on_c, 10, 76, 0
13, 100425, Note_on_c, 10, 77, 84
13, 100469, Note_on_c, 10, 77, 0
13, 100470, Note_on_c, 10, 74, 84
13, 100514, Note_on_c, 10, 74, 0
13, 100515, Note_on_c, 10, 76, 84
13, 100559, Note_on_c, 10, 76, 0
13, 100560, Note_on_c, 10, 77, 84
13, 100649, Note_on_c, 10, 77, 0
13, 100680, Note_on_c, 10, 72, 84
13, 100769, Note_on_c, 10, 72, 0
13, 100800, Note_on_c, 10, 69, 84
13, 100889, Note_on_c, 10, 69, 0
13, 100920, Note_on_c, 10, 76, 84
13, 100964, Note_on_c, 10, 76, 0
13, 100965, Note_on_c, 10, 77, 84
13, 101009, Note_on_c, 10, 77, 0
13, 101010, Note_on_c, 10, 76, 84
13, 101054, Note_on_c, 10, 76, 0
13, 101055, Note_on_c, 10, 77, 84
13, 101099, Note_on_c, 10, 77, 0
13, 101100, Note_on_c, 10, 76, 84
13, 101144, Note_on_c, 10, 76, 0
13, 101145, Note_on_c, 10, 77, 84
13, 101189, Note_on_c, 10, 77, 0
13, 101190, Note_on_c, 10, 74, 84
13, 101234, Note_on_c, 10, 74, 0
13, 101235, Note_on_c, 10, 76, 84
13, 101279, Note_on_c, 10, 76, 0
13, 101280, Note_on_c, 10, 77, 84
13, 101369, Note_on_c, 10, 77, 0
13, 101400, Note_on_c, 10, 72, 84
13, 101489, Note_on_c, 10, 72, 0
13, 101520, Note_on_c, 10, 69, 84
13, 101609, Note_on_c, 10, 69, 0
13, 101640, Note_on_c, 10, 65, 84
13, 101729, Note_on_c, 10, 65, 0
13, 101760, Note_on_c, 10, 60, 84
13, 101849, Note_on_c, 10, 60, 0
13, 101880, Note_on_c, 10, 57, 84
13, 101969, Note_on_c, 10, 57, 0
13, 102000, Note_on_c, 10, 57, 84
13, 102000, Note_on_c, 10, 65, 84
13, 102119, Note_on_c, 10, 57, 0
13, 102119, Note_on_c, 10, 65, 0
13, 103320, Note_on_c, 10, 77, 84
13, 103391, Note_on_c, 10, 77, 0
13, 103400, Note_on_c, 10, 77, 84
13, 103439, Note_on_c, 10, 77, 0
13, 103440, Note_on_c, 10, 81, 92
13, 103559, Note_on_c, 10, 81, 0
13, 103560, Note_on_c, 10, 77, 84
13, 103619, Note_on_c, 10, 77, 0
13, 103680, Note_on_c, 10, 77, 84
13, 103751, Note_on_c, 10, 77, 0
13, 103760, Note_on_c, 10, 77, 84
13, 103799, Note_on_c, 10, 77, 0
13, 103800, Note_on_c, 10, 81, 92
13, 103919, Note_on_c, 10, 81, 0
13, 103920, Note_on_c, 10, 77, 84
13, 103979, Note_on_c, 10, 77, 0
13, 104040, Note_on_c, 10, 77, 84
13, 104111, Note_on_c, 10, 77, 0
13, 104120, Note_on_c, 10, 77, 84
13, 104159, Note_on_c, 10, 77, 0
13, 104160, Note_on_c, 10, 81, 92
13, 104279, Note_on_c, 10, 81, 0
13, 104280, Note_on_c, 10, 77, 84
13, 104384, Note_on_c, 10, 77, 0
13, 104400, Note_on_c, 10, 77, 84
13, 104471, Note_on_c, 10, 77, 0
13, 104480, Note_on_c, 10, 77, 84
13, 104519, Note_on_c, 10, 77, 0
13, 104520, Note_on_c, 10, 81, 92
13, 104639, Note_on_c, 10, 81, 0
13, 104640, Note_on_c, 10, 77, 84
13, 104744, Note_on_c, 10, 77, 0
13, 104760, Note_on_c, 10, 77, 84
13, 104831, Note_on_c, 10, 77, 0
13, 104840, Note_on_c, 10, 77, 84
13, 104879, Note_on_c, 10, 77, 0
13, 104880, Note_on_c, 10, 81, 92
13, 104999, Note_on_c, 10, 81, 0
13, 105000, Note_on_c, 10, 77, 84
13, 105104, Note_on_c, 10, 77, 0
13, 105120, Note_on_c, 10, 77, 84
13, 105209, Note_on_c, 10, 77, 0
13, 105240, Note_on_c, 10, 81, 84
13, 105240, Control_c, 10, 11, 127
13, 105240, Note_on_c, 10, 69, 84
13, 105280, Control_c, 10, 11, 125
13, 105320, Control_c, 10, 11, 124
13, 105360, Control_c, 10, 11, 122
13, 105400, Control_c, 10, 11, 120
13, 105440, Control_c, 10, 11, 118
13, 105480, Control_c, 10, 11, 117
13, 105520, Control_c, 10, 11, 115
13, 105560, Control_c, 10, 11, 113
13, 105599, Note_on_c, 10, 81, 0
13, 105599, Note_on_c, 10, 69, 0
13, 105600, Control_c, 10, 11, 111
13, 105600, Note_on_c, 10, 81, 84
13, 105600, Note_on_c, 10, 69, 84
13, 105640, Control_c, 10, 11, 110
13, 105680, Control_c, 10, 11, 108
13, 105720, Control_c, 10, 11, 106
13, 105760, Control_c, 10, 11, 104
13, 105800, Control_c, 10, 11, 103
13, 105840, Control_c, 10, 11, 101
13, 105880, Control_c, 10, 11, 99
13, 105920, Control_c, 10, 11, 97
13, 105959, Note_on_c, 10, 81, 0
13, 105959, Note_on_c, 10, 69, 0
13, 105960, Note_on_c, 10, 69, 84
13, 105960, Control_c, 10, 11, 96
13, 105960, Note_on_c, 10, 81, 84
13, 106000, Control_c, 10, 11, 94
13, 106040, Control_c, 10, 11, 92
13, 106080, Control_c, 10, 11, 90
13, 106120, Control_c, 10, 11, 89
13, 106160, Control_c, 10, 11, 87
13, 106200, Control_c, 10, 11, 85
13, 106240, Control_c, 10, 11, 83
13, 106280, Control_c, 10, 11, 82
13, 106319, Note_on_c, 10, 69, 0
13, 106319, Note_on_c, 10, 81, 0
13, 106320, Control_c, 10, 11, 80
13, 106320, Note_on_c, 10, 81, 84
13, 106320, Note_on_c, 10, 69, 84
13, 106360, Control_c, 10, 11, 78
13, 106400, Control_c, 10, 11, 76
13, 106440, Control_c, 10, 11, 75
13, 106480, Control_c, 10, 11, 73
13, 106520, Control_c, 10, 11, 71
13, 106560, Control_c, 10, 11, 69
13, 106600, Control_c, 10, 11, 68
13, 106678, Control_c, 10, 11, 80
13, 106679, Note_on_c, 10, 81, 0
13, 106679, Note_on_c, 10, 69, 0
13, 106680, Note_on_c, 10, 81, 76
13, 107399, Note_on_c, 10, 81, 0
13, 107400, Note_on_c, 10, 81, 76
13, 108119, Note_on_c, 10, 81, 0
13, 108120, Note_on_c, 10, 81, 76
13, 108835, Note_on_c, 10, 81, 0
13, 108838, Control_c, 10, 11, 96
13, 108840, Note_on_c, 10, 81, 68
13, 109559, Note_on_c, 10, 81, 0
13, 109560, Note_on_c, 10, 81, 68
13, 110275, Note_on_c, 10, 81, 0
13, 110278, Control_c, 10, 11, 112
13, 110280, Note_on_c, 10, 81, 60
13, 110999, Note_on_c, 10, 81, 0
13, 111000, Note_on_c, 10, 81, 60
13, 111599, Note_on_c, 10, 81, 0
13, 111600, Note_on_c, 10, 80, 60
13, 111699, Note_on_c, 10, 80, 0
13, 111720, Note_on_c, 10, 81, 60
13, 112319, Note_on_c, 10, 81, 0
13, 112320, Note_on_c, 10, 80, 60
13, 112419, Note_on_c, 10, 80, 0
13, 112438, Control_c, 10, 11, 127
13, 112440, Note_on_c, 10, 81, 52
13, 113159, Note_on_c, 10, 81, 0
13, 113160, Note_on_c, 10, 81, 52
13, 113879, Note_on_c, 10, 81, 0
13, 113880, Note_on_c, 10, 81, 52
13, 114599, Note_on_c, 10, 81, 0
13, 114600, Note_on_c, 10, 81, 52
13, 115319, Note_on_c, 10, 81, 0
13, 115320, Note_on_c, 10, 81, 52
13, 116039, Note_on_c, 10, 81, 0
13, 116040, Note_on_c, 10, 81, 52
13, 116759, Note_on_c, 10, 81, 0
13, 116760, Note_on_c, 10, 81, 52
13, 117239, Note_on_c, 10, 81, 0
13, 117240, Note_on_c, 10, 78, 52
13, 117479, Note_on_c, 10, 78, 0
13, 117480, Note_on_c, 10, 81, 52
13, 117719, Note_on_c, 10, 81, 0
13, 117720, Note_on_c, 10, 79, 52
13, 117959, Note_on_c, 10, 79, 0
13, 117960, Note_on_c, 10, 76, 52
13, 118079, Note_on_c, 10, 76, 0
13, 118080, Note_on_c, 10, 81, 52
13, 118179, Note_on_c, 10, 81, 0
13, 118200, Note_on_c, 10, 81, 52
13, 118919, Note_on_c, 10, 81, 0
13, 118920, Note_on_c, 10, 81, 52
13, 119639, Note_on_c, 10, 81, 0
13, 119640, Note_on_c, 10, 81, 52
13, 120359, Note_on_c, 10, 81, 0
13, 120360, Note_on_c, 10, 81, 52
13, 121079, Note_on_c, 10, 81, 0
13, 121080, Note_on_c, 10, 81, 52
13, 121799, Note_on_c, 10, 81, 0
13, 121800, Note_on_c, 10, 81, 52
13, 122519, Note_on_c, 10, 81, 0
13, 122520, Note_on_c, 10, 81, 52
13, 123119, Note_on_c, 10, 81, 0
13, 123120, Note_on_c, 10, 80, 52
13, 123219, Note_on_c, 10, 80, 0
13, 123240, Note_on_c, 10, 81, 52
13, 123839, Note_on_c, 10, 81, 0
13, 123840, Note_on_c, 10, 80, 52
13, 123939, Note_on_c, 10, 80, 0
13, 123960, Note_on_c, 10, 81, 52
13, 124679, Note_on_c, 10, 81, 0
13, 124680, Note_on_c, 10, 81, 52
13, 125399, Note_on_c, 10, 81, 0
13, 125400, Note_on_c, 10, 81, 52
13, 126119, Note_on_c, 10, 81, 0
13, 126120, Note_on_c, 10, 81, 52
13, 126839, Note_on_c, 10, 81, 0
13, 126840, Note_on_c, 10, 81, 52
13, 127559, Note_on_c, 10, 81, 0
13, 127560, Note_on_c, 10, 81, 52
13, 128279, Note_on_c, 10, 81, 0
13, 128280, Note_on_c, 10, 81, 52
13, 128759, Note_on_c, 10, 81, 0
13, 128760, Note_on_c, 10, 78, 52
13, 128999, Note_on_c, 10, 78, 0
13, 129000, Note_on_c, 10, 81, 52
13, 129239, Note_on_c, 10, 81, 0
13, 129240, Note_on_c, 10, 78, 52
13, 129479, Note_on_c, 10, 78, 0
13, 129480, Note_on_c, 10, 74, 52
13, 129599, Note_on_c, 10, 74, 0
13, 129600, Note_on_c, 10, 81, 52
13, 129699, Note_on_c, 10, 81, 0
13, 129720, Note_on_c, 10, 81, 52
13, 130439, Note_on_c, 10, 81, 0
13, 130440, Note_on_c, 10, 81, 52
13, 131159, Note_on_c, 10, 81, 0
13, 131160, Note_on_c, 10, 81, 52
13, 131879, Note_on_c, 10, 81, 0
13, 131880, Note_on_c, 10, 81, 52
13, 132599, Note_on_c, 10, 81, 0
13, 132600, Note_on_c, 10, 81, 52
13, 133319, Note_on_c, 10, 81, 0
13, 133320, Note_on_c, 10, 81, 52
13, 134039, Note_on_c, 10, 81, 0
13, 134040, Note_on_c, 10, 81, 52
13, 134639, Note_on_c, 10, 81, 0
13, 134640, Note_on_c, 10, 80, 52
13, 134759, Note_on_c, 10, 80, 0
13, 134760, Note_on_c, 10, 81, 52
13, 135359, Note_on_c, 10, 81, 0
13, 135360, Note_on_c, 10, 80, 52
13, 135459, Note_on_c, 10, 80, 0
13, 135480, Note_on_c, 10, 81, 52
13, 136199, Note_on_c, 10, 81, 0
13, 136200, Note_on_c, 10, 81, 52
13, 136919, Note_on_c, 10, 81, 0
13, 136920, Note_on_c, 10, 81, 52
13, 137639, Note_on_c, 10, 81, 0
13, 137640, Note_on_c, 10, 81, 52
13, 138359, Note_on_c, 10, 81, 0
13, 138360, Note_on_c, 10, 81, 52
13, 139079, Note_on_c, 10, 81, 0
13, 139080, Note_on_c, 10, 81, 52
13, 139799, Note_on_c, 10, 81, 0
13, 139800, Note_on_c, 10, 81, 52
13, 140519, Note_on_c, 10, 81, 0
13, 140520, Note_on_c, 10, 81, 52
13, 141119, Note_on_c, 10, 81, 0
13, 141120, Note_on_c, 10, 80, 52
13, 141219, Note_on_c, 10, 80, 0
13, 141240, Note_on_c, 10, 81, 52
13, 141959, Note_on_c, 10, 81, 0
13, 141960, Note_on_c, 10, 81, 52
13, 142559, Note_on_c, 10, 81, 0
13, 142560, Note_on_c, 10, 80, 52
13, 142659, Note_on_c, 10, 80, 0
13, 142678, Control_c, 10, 11, 64
13, 142680, Note_on_c, 10, 81, 84
13, 142771, Control_c, 10, 11, 65
13, 142863, Control_c, 10, 11, 66
13, 142954, Control_c, 10, 11, 67
13, 143046, Control_c, 10, 11, 68
13, 143137, Control_c, 10, 11, 69
13, 143229, Control_c, 10, 11, 70
13, 143320, Control_c, 10, 11, 71
13, 143399, Note_on_c, 10, 81, 0
13, 143400, Note_on_c, 10, 81, 84
13, 143411, Control_c, 10, 11, 72
13, 143503, Control_c, 10, 11, 73
13, 143594, Control_c, 10, 11, 74
13, 143686, Control_c, 10, 11, 75
13, 143777, Control_c, 10, 11, 76
13, 143869, Control_c, 10, 11, 77
13, 143960, Control_c, 10, 11, 78
13, 144051, Control_c, 10, 11, 79
13, 144119, Note_on_c, 10, 81, 0
13, 144120, Note_on_c, 10, 81, 84
13, 144143, Control_c, 10, 11, 80
13, 144234, Control_c, 10, 11, 81
13, 144326, Control_c, 10, 11, 82
13, 144417, Control_c, 10, 11, 83
13, 144509, Control_c, 10, 11, 84
13, 144600, Control_c, 10, 11, 85
13, 144691, Control_c, 10, 11, 86
13, 144783, Control_c, 10, 11, 87
13, 144839, Note_on_c, 10, 81, 0
13, 144840, Note_on_c, 10, 81, 84
13, 144874, Control_c, 10, 11, 88
13, 144966, Control_c, 10, 11, 89
13, 145057, Control_c, 10, 11, 90
13, 145149, Control_c, 10, 11, 91
13, 145240, Control_c, 10, 11, 92
13, 145331, Control_c, 10, 11, 93
13, 145423, Control_c, 10, 11, 94
13, 145514, Control_c, 10, 11, 95
13, 145559, Note_on_c, 10, 81, 0
13, 145560, Note_on_c, 10, 81, 84
13, 145606, Control_c, 10, 11, 96
13, 145697, Control_c, 10, 11, 97
13, 145789, Control_c, 10, 11, 98
13, 145880, Control_c, 10, 11, 99
13, 145971, Control_c, 10, 11, 100
13, 146063, Control_c, 10, 11, 101
13, 146154, Control_c, 10, 11, 102
13, 146246, Control_c, 10, 11, 103
13, 146279, Note_on_c, 10, 81, 0
13, 146280, Note_on_c, 10, 81, 84
13, 146337, Control_c, 10, 11, 104
13, 146429, Control_c, 10, 11, 105
13, 146520, Control_c, 10, 11, 106
13, 146611, Control_c, 10, 11, 107
13, 146703, Control_c, 10, 11, 108
13, 146794, Control_c, 10, 11, 109
13, 146886, Control_c, 10, 11, 110
13, 146977, Control_c, 10, 11, 111
13, 147069, Control_c, 10, 11, 112
13, 147160, Control_c, 10, 11, 113
13, 147219, Note_on_c, 10, 81, 0
13, 147240, Note_on_c, 10, 85, 84
13, 147251, Control_c, 10, 11, 114
13, 147343, Control_c, 10, 11, 115
13, 147434, Control_c, 10, 11, 116
13, 147526, Control_c, 10, 11, 117
13, 147617, Control_c, 10, 11, 118
13, 147699, Note_on_c, 10, 85, 0
13, 147709, Control_c, 10, 11, 119
13, 147720, Note_on_c, 10, 85, 84
13, 147800, Control_c, 10, 11, 120
13, 147891, Control_c, 10, 11, 121
13, 147983, Control_c, 10, 11, 122
13, 148074, Control_c, 10, 11, 123
13, 148166, Control_c, 10, 11, 124
13, 148179, Note_on_c, 10, 85, 0
13, 148200, Note_on_c, 10, 85, 84
13, 148257, Control_c, 10, 11, 125
13, 148349, Control_c, 10, 11, 127
13, 148419, Note_on_c, 10, 85, 0
13, 148440, Note_on_c, 10, 74, 84
13, 148440, Note_on_c, 10, 86, 84
13, 149039, Note_on_c, 10, 74, 0
13, 149039, Note_on_c, 10, 86, 0
13, 149040, Note_on_c, 10, 85, 84
13, 149159, Note_on_c, 10, 85, 0
13, 149160, Note_on_c, 10, 86, 84
13, 149160, Note_on_c, 10, 74, 84
13, 149399, Note_on_c, 10, 86, 0
13, 149399, Note_on_c, 10, 74, 0
13, 149880, Note_on_c, 10, 86, 84
13, 149880, Note_on_c, 10, 74, 84
13, 150479, Note_on_c, 10, 86, 0
13, 150479, Note_on_c, 10, 74, 0
13, 150480, Note_on_c, 10, 85, 84
13, 150599, Note_on_c, 10, 85, 0
13, 150600, Note_on_c, 10, 74, 84
13, 150600, Note_on_c, 10, 86, 84
13, 150839, Note_on_c, 10, 74, 0
13, 150839, Note_on_c, 10, 86, 0
13, 151320, Note_on_c, 10, 86, 84
13, 151559, Note_on_c, 10, 86, 0
13, 151560, Note_on_c, 10, 74, 84
13, 151799, Note_on_c, 10, 74, 0
13, 151800, Note_on_c, 10, 76, 84
13, 152019, Note_on_c, 10, 76, 0
13, 152040, Note_on_c, 10, 78, 84
13, 152279, Note_on_c, 10, 78, 0
13, 152280, Note_on_c, 10, 79, 84
13, 152499, Note_on_c, 10, 79, 0
13, 152520, Note_on_c, 10, 78, 84
13, 152699, Note_on_c, 10, 78, 0
13, 152760, Note_on_c, 10, 57, 84
13, 152760, Note_on_c, 10, 69, 84
13, 152760, Note_on_c, 10, 76, 84
13, 152760, Note_on_c, 10, 64, 84
13, 152999, Note_on_c, 10, 57, 0
13, 152999, Note_on_c, 10, 69, 0
13, 152999, Note_on_c, 10, 76, 0
13, 152999, Note_on_c, 10, 64, 0
13, 154200, Note_on_c, 10, 76, 84
13, 154200, Note_on_c, 10, 88, 84
13, 154799, Note_on_c, 10, 76, 0
13, 154799, Note_on_c, 10, 88, 0
13, 154800, Note_on_c, 10, 87, 84
13, 154919, Note_on_c, 10, 87, 0
13, 154920, Note_on_c, 10, 76, 84
13, 154920, Note_on_c, 10, 88, 84
13, 155159, Note_on_c, 10, 76, 0
13, 155159, Note_on_c, 10, 88, 0
13, 155640, Note_on_c, 10, 76, 84
13, 155640, Note_on_c, 10, 88, 84
13, 156239, Note_on_c, 10, 76, 0
13, 156239, Note_on_c, 10, 88, 0
13, 156240, Note_on_c, 10, 87, 84
13, 156359, Note_on_c, 10, 87, 0
13, 156360, Note_on_c, 10, 76, 84
13, 156360, Note_on_c, 10, 88, 84
13, 156599, Note_on_c, 10, 76, 0
13, 156599, Note_on_c, 10, 88, 0
13, 157080, Note_on_c, 10, 88, 84
13, 157319, Note_on_c, 10, 88, 0
13, 157320, Note_on_c, 10, 76, 84
13, 157559, Note_on_c, 10, 76, 0
13, 157560, Note_on_c, 10, 78, 84
13, 157799, Note_on_c, 10, 78, 0
13, 157800, Note_on_c, 10, 81, 84
13, 158039, Note_on_c, 10, 81, 0
13, 158040, Note_on_c, 10, 79, 84
13, 158259, Note_on_c, 10, 79, 0
13, 158280, Note_on_c, 10, 67, 84
13, 158280, Note_on_c, 10, 76, 84
13, 158459, Note_on_c, 10, 67, 0
13, 158459, Note_on_c, 10, 76, 0
13, 158520, Note_on_c, 10, 74, 84
13, 158520, Note_on_c, 10, 66, 84
13, 158520, Note_on_c, 10, 57, 84
13, 158759, Note_on_c, 10, 74, 0
13, 158759, Note_on_c, 10, 66, 0
13, 158759, Note_on_c, 10, 57, 0
13, 159960, Note_on_c, 10, 81, 52
13, 160679, Note_on_c, 10, 81, 0
13, 160680, Note_on_c, 10, 81, 52
13, 161399, Note_on_c, 10, 81, 0
13, 161400, Note_on_c, 10, 81, 52
13, 162119, Note_on_c, 10, 81, 0
13, 162120, Note_on_c, 10, 81, 52
13, 162839, Note_on_c, 10, 81, 0
13, 162840, Note_on_c, 10, 81, 52
13, 163559, Note_on_c, 10, 81, 0
13, 163560, Note_on_c, 10, 81, 52
13, 164279, Note_on_c, 10, 81, 0
13, 164280, Note_on_c, 10, 81, 52
13, 164879, Note_on_c, 10, 81, 0
13, 164880, Note_on_c, 10, 80, 52
13, 164999, Note_on_c, 10, 80, 0
13, 165000, Note_on_c, 10, 81, 52
13, 165599, Note_on_c, 10, 81, 0
13, 165600, Note_on_c, 10, 80, 52
13, 165699, Note_on_c, 10, 80, 0
13, 165720, Note_on_c, 10, 81, 52
13, 166439, Note_on_c, 10, 81, 0
13, 166440, Note_on_c, 10, 81, 52
13, 167159, Note_on_c, 10, 81, 0
13, 167160, Note_on_c, 10, 81, 52
13, 167879, Note_on_c, 10, 81, 0
13, 167880, Note_on_c, 10, 81, 52
13, 168599, Note_on_c, 10, 81, 0
13, 168600, Note_on_c, 10, 81, 52
13, 169319, Note_on_c, 10, 81, 0
13, 169320, Note_on_c, 10, 81, 52
13, 170039, Note_on_c, 10, 81, 0
13, 170040, Note_on_c, 10, 81, 52
13, 170759, Note_on_c, 10, 81, 0
13, 170760, Note_on_c, 10, 81, 52
13, 171359, Note_on_c, 10, 81, 0
13, 171360, Note_on_c, 10, 80, 52
13, 171459, Note_on_c, 10, 80, 0
13, 171480, Note_on_c, 10, 81, 52
13, 172199, Note_on_c, 10, 81, 0
13, 172200, Note_on_c, 10, 81, 52
13, 172799, Note_on_c, 10, 81, 0
13, 172800, Note_on_c, 10, 80, 52
13, 172899, Note_on_c, 10, 80, 0
13, 172918, Control_c, 10, 11, 64
13, 172920, Note_on_c, 10, 81, 84
13, 173011, Control_c, 10, 11, 65
13, 173103, Control_c, 10, 11, 66
13, 173194, Control_c, 10, 11, 67
13, 173286, Control_c, 10, 11, 68
13, 173377, Control_c, 10, 11, 69
13, 173469, Control_c, 10, 11, 70
13, 173560, Control_c, 10, 11, 71
13, 173639, Note_on_c, 10, 81, 0
13, 173640, Note_on_c, 10, 81, 84
13, 173651, Control_c, 10, 11, 72
13, 173743, Control_c, 10, 11, 73
13, 173834, Control_c, 10, 11, 74
13, 173926, Control_c, 10, 11, 75
13, 174017, Control_c, 10, 11, 76
13, 174109, Control_c, 10, 11, 77
13, 174200, Control_c, 10, 11, 78
13, 174291, Control_c, 10, 11, 79
13, 174359, Note_on_c, 10, 81, 0
13, 174360, Note_on_c, 10, 81, 84
13, 174383, Control_c, 10, 11, 80
13, 174474, Control_c, 10, 11, 81
13, 174566, Control_c, 10, 11, 82
13, 174657, Control_c, 10, 11, 83
13, 174749, Control_c, 10, 11, 84
13, 174840, Control_c, 10, 11, 85
13, 174931, Control_c, 10, 11, 86
13, 175023, Control_c, 10, 11, 87
13, 175079, Note_on_c, 10, 81, 0
13, 175080, Note_on_c, 10, 81, 84
13, 175114, Control_c, 10, 11, 88
13, 175206, Control_c, 10, 11, 89
13, 175297, Control_c, 10, 11, 90
13, 175389, Control_c, 10, 11, 91
13, 175480, Control_c, 10, 11, 92
13, 175571, Control_c, 10, 11, 93
13, 175663, Control_c, 10, 11, 94
13, 175754, Control_c, 10, 11, 95
13, 175799, Note_on_c, 10, 81, 0
13, 175800, Note_on_c, 10, 81, 84
13, 175846, Control_c, 10, 11, 96
13, 175937, Control_c, 10, 11, 97
13, 176029, Control_c, 10, 11, 98
13, 176120, Control_c, 10, 11, 99
13, 176211, Control_c, 10, 11, 100
13, 176303, Control_c, 10, 11, 101
13, 176394, Control_c, 10, 11, 102
13, 176486, Control_c, 10, 11, 103
13, 176519, Note_on_c, 10, 81, 0
13, 176520, Note_on_c, 10, 81, 84
13, 176577, Control_c, 10, 11, 104
13, 176669, Control_c, 10, 11, 105
13, 176760, Control_c, 10, 11, 106
13, 176851, Control_c, 10, 11, 107
13, 176943, Control_c, 10, 11, 108
13, 177034, Control_c, 10, 11, 109
13, 177126, Control_c, 10, 11, 110
13, 177217, Control_c, 10, 11, 111
13, 177309, Control_c, 10, 11, 112
13, 177400, Control_c, 10, 11, 113
13, 177459, Note_on_c, 10, 81, 0
13, 177480, Note_on_c, 10, 85, 84
13, 177491, Control_c, 10, 11, 114
13, 177583, Control_c, 10, 11, 115
13, 177674, Control_c, 10, 11, 116
13, 177766, Control_c, 10, 11, 117
13, 177857, Control_c, 10, 11, 118
13, 177939, Note_on_c, 10, 85, 0
13, 177949, Control_c, 10, 11, 119
13, 177960, Note_on_c, 10, 85, 84
13, 178040, Control_c, 10, 11, 120
13, 178131, Control_c, 10, 11, 121
13, 178223, Control_c, 10, 11, 122
13, 178314, Control_c, 10, 11, 123
13, 178406, Control_c, 10, 11, 124
13, 178419, Note_on_c, 10, 85, 0
13, 178440, Note_on_c, 10, 85, 84
13, 178497, Control_c, 10, 11, 125
13, 178589, Control_c, 10, 11, 127
13, 178659, Note_on_c, 10, 85, 0
13, 178680, Note_on_c, 10, 86, 84
13, 178680, Note_on_c, 10, 74, 84
13, 179279, Note_on_c, 10, 86, 0
13, 179279, Note_on_c, 10, 74, 0
13, 179280, Note_on_c, 10, 85, 84
13, 179399, Note_on_c, 10, 85, 0
13, 179400, Note_on_c, 10, 74, 84
13, 179400, Note_on_c, 10, 86, 84
13, 179639, Note_on_c, 10, 74, 0
13, 179639, Note_on_c, 10, 86, 0
13, 180120, Note_on_c, 10, 86, 84
13, 180120, Note_on_c, 10, 74, 84
13, 180719, Note_on_c, 10, 86, 0
13, 180719, Note_on_c, 10, 74, 0
13, 180720, Note_on_c, 10, 85, 84
13, 180839, Note_on_c, 10, 85, 0
13, 180840, Note_on_c, 10, 86, 84
13, 180840, Note_on_c, 10, 74, 84
13, 181079, Note_on_c, 10, 86, 0
13, 181079, Note_on_c, 10, 74, 0
13, 181560, Note_on_c, 10, 86, 84
13, 181799, Note_on_c, 10, 86, 0
13, 181800, Note_on_c, 10, 74, 84
13, 182039, Note_on_c, 10, 74, 0
13, 182040, Note_on_c, 10, 76, 84
13, 182259, Note_on_c, 10, 76, 0
13, 182280, Note_on_c, 10, 78, 84
13, 182519, Note_on_c, 10, 78, 0
13, 182520, Note_on_c, 10, 79, 84
13, 182739, Note_on_c, 10, 79, 0
13, 182760, Note_on_c, 10, 78, 84
13, 182939, Note_on_c, 10, 78, 0
13, 183000, Note_on_c, 10, 76, 84
13, 183000, Note_on_c, 10, 57, 84
13, 183000, Note_on_c, 10, 69, 84
13, 183000, Note_on_c, 10, 64, 84
13, 183239, Note_on_c, 10, 76, 0
13, 183239, Note_on_c, 10, 57, 0
13, 183239, Note_on_c, 10, 69, 0
13, 183239, Note_on_c, 10, 64, 0
13, 184440, Note_on_c, 10, 88, 84
13, 184440, Note_on_c, 10, 76, 84
13, 185039, Note_on_c, 10, 88, 0
13, 185039, Note_on_c, 10, 76, 0
13, 185040, Note_on_c, 10, 87, 84
13, 185159, Note_on_c, 10, 87, 0
13, 185160, Note_on_c, 10, 76, 84
13, 185160, Note_on_c, 10, 88, 84
13, 185399, Note_on_c, 10, 76, 0
13, 185399, Note_on_c, 10, 88, 0
13, 185880, Note_on_c, 10, 88, 84
13, 185880, Note_on_c, 10, 76, 84
13, 186479, Note_on_c, 10, 88, 0
13, 186479, Note_on_c, 10, 76, 0
13, 186480, Note_on_c, 10, 87, 84
13, 186599, Note_on_c, 10, 87, 0
13, 186600, Note_on_c, 10, 88, 84
13, 186600, Note_on_c, 10, 76, 84
13, 186839, Note_on_c, 10, 88, 0
13, 186839, Note_on_c, 10, 76, 0
13, 187320, Note_on_c, 10, 88, 84
13, 187559, Note_on_c, 10, 88, 0
13, 187560, Note_on_c, 10, 76, 84
13, 187799, Note_on_c, 10, 76, 0
13, 187800, Note_on_c, 10, 78, 84
13, 188039, Note_on_c, 10, 78, 0
13, 188040, Note_on_c, 10, 81, 84
13, 188279, Note_on_c, 10, 81, 0
13, 188280, Note_on_c, 10, 79, 84
13, 188499, Note_on_c, 10, 79, 0
13, 188520, Note_on_c, 10, 76, 84
13, 188520, Note_on_c, 10, 67, 84
13, 188699, Note_on_c, 10, 76, 0
13, 188699, Note_on_c, 10, 67, 0
13, 188760, Note_on_c, 10, 57, 84
13, 188760, Note_on_c, 10, 66, 84
13, 188760, Note_on_c, 10, 74, 84
13, 188999, Note_on_c, 10, 57, 0
13, 188999, Note_on_c, 10, 66, 0
13, 188999, Note_on_c, 10, 74, 0
13, 190200, Note_on_c, 10, 66, 52
13, 190919, Note_on_c, 10, 66, 0
13, 190920, Note_on_c, 10, 66, 52
13, 191619, Note_on_c, 10, 66, 0
13, 191640, Note_on_c, 10, 67, 52
13, 191640, Control_c, 10, 11, 127
13, 191872, Control_c, 10, 11, 126
13, 192105, Control_c, 10, 11, 125
13, 192337, Control_c, 10, 11, 124
13, 192359, Note_on_c, 10, 67, 0
13, 192360, Note_on_c, 10, 67, 52
13, 192569, Control_c, 10, 11, 123
13, 192801, Control_c, 10, 11, 122
13, 193034, Control_c, 10, 11, 121
13, 193059, Note_on_c, 10, 67, 0
13, 193080, Note_on_c, 10, 66, 52
13, 193266, Control_c, 10, 11, 120
13, 193498, Control_c, 10, 11, 119
13, 193730, Control_c, 10, 11, 118
13, 193799, Note_on_c, 10, 66, 0
13, 193800, Note_on_c, 10, 66, 52
13, 193963, Control_c, 10, 11, 117
13, 194195, Control_c, 10, 11, 116
13, 194427, Control_c, 10, 11, 115
13, 194499, Note_on_c, 10, 66, 0
13, 194520, Note_on_c, 10, 64, 52
13, 194659, Control_c, 10, 11, 114
13, 194892, Control_c, 10, 11, 113
13, 195124, Control_c, 10, 11, 112
13, 195239, Note_on_c, 10, 64, 0
13, 195240, Note_on_c, 10, 64, 52
13, 195356, Control_c, 10, 11, 111
13, 195588, Control_c, 10, 11, 110
13, 195821, Control_c, 10, 11, 109
13, 195939, Note_on_c, 10, 64, 0
13, 195960, Note_on_c, 10, 66, 52
13, 196053, Control_c, 10, 11, 108
13, 196285, Control_c, 10, 11, 107
13, 196517, Control_c, 10, 11, 106
13, 196679, Note_on_c, 10, 66, 0
13, 196680, Note_on_c, 10, 66, 52
13, 196750, Control_c, 10, 11, 105
13, 196982, Control_c, 10, 11, 104
13, 197214, Control_c, 10, 11, 103
13, 197379, Note_on_c, 10, 66, 0
13, 197400, Note_on_c, 10, 67, 52
13, 197446, Control_c, 10, 11, 102
13, 197679, Control_c, 10, 11, 101
13, 197911, Control_c, 10, 11, 100
13, 198119, Note_on_c, 10, 67, 0
13, 198120, Note_on_c, 10, 67, 52
13, 198143, Control_c, 10, 11, 99
13, 198375, Control_c, 10, 11, 98
13, 198608, Control_c, 10, 11, 96
13, 198819, Note_on_c, 10, 67, 0
13, 198840, Note_on_c, 10, 67, 52
13, 199559, Note_on_c, 10, 67, 0
13, 199560, Note_on_c, 10, 67, 52
13, 200019, Note_on_c, 10, 67, 0
13, 200038, Control_c, 10, 11, 127
13, 200040, Note_on_c, 10, 65, 76
13, 200111, Note_on_c, 10, 65, 0
13, 200120, Note_on_c, 10, 65, 76
13, 200159, Note_on_c, 10, 65, 0
13, 200160, Note_on_c, 10, 69, 76
13, 200279, Note_on_c, 10, 69, 0
13, 200280, Note_on_c, 10, 65, 76
13, 200339, Note_on_c, 10, 65, 0
13, 200400, Note_on_c, 10, 69, 76
13, 200471, Note_on_c, 10, 69, 0
13, 200480, Note_on_c, 10, 69, 76
13, 200519, Note_on_c, 10, 69, 0
13, 200520, Note_on_c, 10, 72, 76
13, 200639, Note_on_c, 10, 72, 0
13, 200640, Note_on_c, 10, 69, 76
13, 200699, Note_on_c, 10, 69, 0
13, 200760, Note_on_c, 10, 72, 76
13, 200864, Note_on_c, 10, 72, 0
13, 200880, Note_on_c, 10, 77, 52
13, 200969, Note_on_c, 10, 77, 0
13, 201000, Note_on_c, 10, 77, 52
13, 201089, Note_on_c, 10, 77, 0
13, 201120, Note_on_c, 10, 76, 52
13, 201209, Note_on_c, 10, 76, 0
13, 201240, Note_on_c, 10, 74, 52
13, 201329, Note_on_c, 10, 74, 0
13, 201360, Note_on_c, 10, 74, 52
13, 201449, Note_on_c, 10, 74, 0
13, 201480, Note_on_c, 10, 72, 52
13, 201569, Note_on_c, 10, 72, 0
13, 201600, Note_on_c, 10, 70, 52
13, 201689, Note_on_c, 10, 70, 0
13, 201720, Note_on_c, 10, 70, 52
13, 201809, Note_on_c, 10, 70, 0
13, 201840, Note_on_c, 10, 69, 52
13, 201929, Note_on_c, 10, 69, 0
13, 201960, Note_on_c, 10, 67, 52
13, 202304, Note_on_c, 10, 67, 0
13, 202320, Note_on_c, 10, 79, 52
13, 202409, Note_on_c, 10, 79, 0
13, 202440, Note_on_c, 10, 79, 52
13, 202529, Note_on_c, 10, 79, 0
13, 202560, Note_on_c, 10, 77, 52
13, 202649, Note_on_c, 10, 77, 0
13, 202680, Note_on_c, 10, 76, 52
13, 202769, Note_on_c, 10, 76, 0
13, 202800, Note_on_c, 10, 76, 52
13, 202889, Note_on_c, 10, 76, 0
13, 202920, Note_on_c, 10, 74, 52
13, 203009, Note_on_c, 10, 74, 0
13, 203040, Note_on_c, 10, 72, 52
13, 203129, Note_on_c, 10, 72, 0
13, 203160, Note_on_c, 10, 72, 52
13, 203249, Note_on_c, 10, 72, 0
13, 203280, Note_on_c, 10, 70, 52
13, 203369, Note_on_c, 10, 70, 0
13, 203400, Note_on_c, 10, 69, 52
13, 203744, Note_on_c, 10, 69, 0
13, 203760, Note_on_c, 10, 67, 52
13, 203849, Note_on_c, 10, 67, 0
13, 203880, Note_on_c, 10, 67, 52
13, 203969, Note_on_c, 10, 67, 0
13, 204000, Note_on_c, 10, 65, 52
13, 204089, Note_on_c, 10, 65, 0
13, 204120, Note_on_c, 10, 70, 52
13, 204359, Note_on_c, 10, 70, 0
13, 204360, Note_on_c, 10, 69, 52
13, 204464, Note_on_c, 10, 69, 0
13, 204480, Note_on_c, 10, 67, 52
13, 204569, Note_on_c, 10, 67, 0
13, 204600, Note_on_c, 10, 67, 56
13, 204689, Note_on_c, 10, 67, 0
13, 204720, Note_on_c, 10, 65, 60
13, 204809, Note_on_c, 10, 65, 0
13, 204840, Note_on_c, 10, 70, 64
13, 205079, Note_on_c, 10, 70, 0
13, 205080, Note_on_c, 10, 69, 72
13, 205184, Note_on_c, 10, 69, 0
13, 205200, Note_on_c, 10, 74, 84
13, 205439, Note_on_c, 10, 74, 0
13, 205440, Note_on_c, 10, 73, 76
13, 205544, Note_on_c, 10, 73, 0
13, 205560, Note_on_c, 10, 77, 84
13, 205799, Note_on_c, 10, 77, 0
13, 205800, Note_on_c, 10, 76, 76
13, 205904, Note_on_c, 10, 76, 0
13, 205920, Note_on_c, 10, 80, 76
13, 205964, Note_on_c, 10, 80, 0
13, 205965, Note_on_c, 10, 81, 76
13, 206009, Note_on_c, 10, 81, 0
13, 206010, Note_on_c, 10, 80, 76
13, 206054, Note_on_c, 10, 80, 0
13, 206055, Note_on_c, 10, 81, 76
13, 206099, Note_on_c, 10, 81, 0
13, 206100, Note_on_c, 10, 80, 76
13, 206144, Note_on_c, 10, 80, 0
13, 206145, Note_on_c, 10, 81, 76
13, 206189, Note_on_c, 10, 81, 0
13, 206190, Note_on_c, 10, 78, 76
13, 206234, Note_on_c, 10, 78, 0
13, 206235, Note_on_c, 10, 80, 76
13, 206279, Note_on_c, 10, 80, 0
13, 206280, Note_on_c, 10, 81, 76
13, 206369, Note_on_c, 10, 81, 0
13, 206400, Note_on_c, 10, 76, 76
13, 206489, Note_on_c, 10, 76, 0
13, 206520, Note_on_c, 10, 73, 76
13, 206609, Note_on_c, 10, 73, 0
13, 206640, Note_on_c, 10, 74, 76
13, 206684, Note_on_c, 10, 74, 0
13, 206685, Note_on_c, 10, 76, 76
13, 206729, Note_on_c, 10, 76, 0
13, 206730, Note_on_c, 10, 74, 76
13, 206774, Note_on_c, 10, 74, 0
13, 206775, Note_on_c, 10, 76, 76
13, 206819, Note_on_c, 10, 76, 0
13, 206820, Note_on_c, 10, 74, 76
13, 206864, Note_on_c, 10, 74, 0
13, 206865, Note_on_c, 10, 76, 76
13, 206909, Note_on_c, 10, 76, 0
13, 206910, Note_on_c, 10, 73, 76
13, 206954, Note_on_c, 10, 73, 0
13, 206955, Note_on_c, 10, 74, 76
13, 206999, Note_on_c, 10, 74, 0
13, 207000, Note_on_c, 10, 73, 76
13, 207089, Note_on_c, 10, 73, 0
13, 207120, Note_on_c, 10, 76, 76
13, 207209, Note_on_c, 10, 76, 0
13, 207240, Note_on_c, 10, 81, 76
13, 207329, Note_on_c, 10, 81, 0
13, 207360, Note_on_c, 10, 80, 76
13, 207404, Note_on_c, 10, 80, 0
13, 207405, Note_on_c, 10, 81, 76
13, 207449, Note_on_c, 10, 81, 0
13, 207450, Note_on_c, 10, 80, 76
13, 207494, Note_on_c, 10, 80, 0
13, 207495, Note_on_c, 10, 81, 76
13, 207539, Note_on_c, 10, 81, 0
13, 207540, Note_on_c, 10, 80, 76
13, 207584, Note_on_c, 10, 80, 0
13, 207585, Note_on_c, 10, 81, 76
13, 207629, Note_on_c, 10, 81, 0
13, 207630, Note_on_c, 10, 78, 76
13, 207674, Note_on_c, 10, 78, 0
13, 207675, Note_on_c, 10, 80, 76
13, 207719, Note_on_c, 10, 80, 0
13, 207720, Note_on_c, 10, 81, 76
13, 207809, Note_on_c, 10, 81, 0
13, 207840, Note_on_c, 10, 76, 76
13, 207929, Note_on_c, 10, 76, 0
13, 207960, Note_on_c, 10, 73, 76
13, 208049, Note_on_c, 10, 73, 0
13, 208080, Note_on_c, 10, 69, 76
13, 208169, Note_on_c, 10, 69, 0
13, 208200, Note_on_c, 10, 64, 76
13, 208289, Note_on_c, 10, 64, 0
13, 208320, Note_on_c, 10, 61, 76
13, 208409, Note_on_c, 10, 61, 0
13, 208440, Note_on_c, 10, 57, 76
13, 208529, Note_on_c, 10, 57, 0
13, 208680, Note_on_c, 10, 65, 52
13, 208751, Note_on_c, 10, 65, 0
13, 208760, Note_on_c, 10, 65, 52
13, 208799, Note_on_c, 10, 65, 0
13, 208800, Note_on_c, 10, 69, 52
13, 208919, Note_on_c, 10, 69, 0
13, 208920, Note_on_c, 10, 65, 52
13, 208979, Note_on_c, 10, 65, 0
13, 209040, Note_on_c, 10, 69, 52
13, 209111, Note_on_c, 10, 69, 0
13, 209120, Note_on_c, 10, 69, 52
13, 209159, Note_on_c, 10, 69, 0
13, 209160, Note_on_c, 10, 72, 52
13, 209279, Note_on_c, 10, 72, 0
13, 209280, Note_on_c, 10, 69, 52
13, 209339, Note_on_c, 10, 69, 0
13, 209400, Note_on_c, 10, 72, 52
13, 209504, Note_on_c, 10, 72, 0
13, 209520, Note_on_c, 10, 77, 52
13, 209609, Note_on_c, 10, 77, 0
13, 209640, Note_on_c, 10, 77, 52
13, 209729, Note_on_c, 10, 77, 0
13, 209760, Note_on_c, 10, 76, 52
13, 209849, Note_on_c, 10, 76, 0
13, 209880, Note_on_c, 10, 74, 52
13, 209969, Note_on_c, 10, 74, 0
13, 210000, Note_on_c, 10, 74, 52
13, 210089, Note_on_c, 10, 74, 0
13, 210120, Note_on_c, 10, 72, 52
13, 210209, Note_on_c, 10, 72, 0
13, 210240, Note_on_c, 10, 70, 52
13, 210329, Note_on_c, 10, 70, 0
13, 210360, Note_on_c, 10, 70, 52
13, 210449, Note_on_c, 10, 70, 0
13, 210480, Note_on_c, 10, 69, 52
13, 210569, Note_on_c, 10, 69, 0
13, 210600, Note_on_c, 10, 67, 52
13, 210944, Note_on_c, 10, 67, 0
13, 210960, Note_on_c, 10, 79, 52
13, 211049, Note_on_c, 10, 79, 0
13, 211080, Note_on_c, 10, 79, 52
13, 211169, Note_on_c, 10, 79, 0
13, 211200, Note_on_c, 10, 77, 52
13, 211289, Note_on_c, 10, 77, 0
13, 211320, Note_on_c, 10, 76, 52
13, 211409, Note_on_c, 10, 76, 0
13, 211440, Note_on_c, 10, 76, 52
13, 211529, Note_on_c, 10, 76, 0
13, 211560, Note_on_c, 10, 74, 52
13, 211649, Note_on_c, 10, 74, 0
13, 211680, Note_on_c, 10, 72, 52
13, 211769, Note_on_c, 10, 72, 0
13, 211800, Note_on_c, 10, 72, 52
13, 211889, Note_on_c, 10, 72, 0
13, 211920, Note_on_c, 10, 70, 52
13, 212009, Note_on_c, 10, 70, 0
13, 212040, Note_on_c, 10, 69, 52
13, 212384, Note_on_c, 10, 69, 0
13, 212400, Note_on_c, 10, 67, 52
13, 212489, Note_on_c, 10, 67, 0
13, 212520, Note_on_c, 10, 67, 52
13, 212609, Note_on_c, 10, 67, 0
13, 212640, Note_on_c, 10, 65, 52
13, 212729, Note_on_c, 10, 65, 0
13, 212760, Note_on_c, 10, 70, 52
13, 212999, Note_on_c, 10, 70, 0
13, 213000, Note_on_c, 10, 69, 52
13, 213104, Note_on_c, 10, 69, 0
13, 213120, Note_on_c, 10, 67, 52
13, 213209, Note_on_c, 10, 67, 0
13, 213240, Note_on_c, 10, 67, 52
13, 213329, Note_on_c, 10, 67, 0
13, 213360, Note_on_c, 10, 65, 52
13, 213449, Note_on_c, 10, 65, 0
13, 213480, Note_on_c, 10, 70, 52
13, 213719, Note_on_c, 10, 70, 0
13, 213720, Note_on_c, 10, 69, 52
13, 213824, Note_on_c, 10, 69, 0
13, 213840, Note_on_c, 10, 74, 52
13, 214079, Note_on_c, 10, 74, 0
13, 214080, Note_on_c, 10, 73, 52
13, 214184, Note_on_c, 10, 73, 0
13, 214200, Note_on_c, 10, 77, 52
13, 214439, Note_on_c, 10, 77, 0
13, 214440, Note_on_c, 10, 76, 52
13, 214544, Note_on_c, 10, 76, 0
13, 214560, Note_on_c, 10, 80, 52
13, 214604, Note_on_c, 10, 80, 0
13, 214605, Note_on_c, 10, 81, 52
13, 214649, Note_on_c, 10, 81, 0
13, 214650, Note_on_c, 10, 80, 52
13, 214694, Note_on_c, 10, 80, 0
13, 214695, Note_on_c, 10, 81, 52
13, 214739, Note_on_c, 10, 81, 0
13, 214740, Note_on_c, 10, 80, 52
13, 214784, Note_on_c, 10, 80, 0
13, 214785, Note_on_c, 10, 81, 52
13, 214829, Note_on_c, 10, 81, 0
13, 214830, Note_on_c, 10, 78, 52
13, 214874, Note_on_c, 10, 78, 0
13, 214875, Note_on_c, 10, 80, 52
13, 214919, Note_on_c, 10, 80, 0
13, 214920, Note_on_c, 10, 81, 52
13, 215009, Note_on_c, 10, 81, 0
13, 215040, Note_on_c, 10, 76, 52
13, 215129, Note_on_c, 10, 76, 0
13, 215160, Note_on_c, 10, 73, 52
13, 215249, Note_on_c, 10, 73, 0
13, 215280, Note_on_c, 10, 74, 52
13, 215324, Note_on_c, 10, 74, 0
13, 215325, Note_on_c, 10, 76, 52
13, 215369, Note_on_c, 10, 76, 0
13, 215370, Note_on_c, 10, 74, 52
13, 215414, Note_on_c, 10, 74, 0
13, 215415, Note_on_c, 10, 76, 52
13, 215459, Note_on_c, 10, 76, 0
13, 215460, Note_on_c, 10, 74, 52
13, 215504, Note_on_c, 10, 74, 0
13, 215505, Note_on_c, 10, 76, 52
13, 215549, Note_on_c, 10, 76, 0
13, 215550, Note_on_c, 10, 73, 52
13, 215594, Note_on_c, 10, 73, 0
13, 215595, Note_on_c, 10, 74, 52
13, 215639, Note_on_c, 10, 74, 0
13, 215640, Note_on_c, 10, 73, 52
13, 215729, Note_on_c, 10, 73, 0
13, 215760, Note_on_c, 10, 76, 52
13, 215849, Note_on_c, 10, 76, 0
13, 215880, Note_on_c, 10, 81, 52
13, 215969, Note_on_c, 10, 81, 0
13, 216000, Note_on_c, 10, 80, 52
13, 216044, Note_on_c, 10, 80, 0
13, 216045, Note_on_c, 10, 81, 52
13, 216089, Note_on_c, 10, 81, 0
13, 216090, Note_on_c, 10, 80, 52
13, 216134, Note_on_c, 10, 80, 0
13, 216135, Note_on_c, 10, 81, 52
13, 216179, Note_on_c, 10, 81, 0
13, 216180, Note_on_c, 10, 80, 52
13, 216224, Note_on_c, 10, 80, 0
13, 216225, Note_on_c, 10, 81, 52
13, 216269, Note_on_c, 10, 81, 0
13, 216270, Note_on_c, 10, 78, 52
13, 216314, Note_on_c, 10, 78, 0
13, 216315, Note_on_c, 10, 80, 52
13, 216359, Note_on_c, 10, 80, 0
13, 216360, Note_on_c, 10, 81, 52
13, 216449, Note_on_c, 10, 81, 0
13, 216480, Note_on_c, 10, 76, 52
13, 216569, Note_on_c, 10, 76, 0
13, 216600, Note_on_c, 10, 73, 52
13, 216689, Note_on_c, 10, 73, 0
13, 216720, Note_on_c, 10, 69, 52
13, 216809, Note_on_c, 10, 69, 0
13, 216840, Note_on_c, 10, 64, 52
13, 216929, Note_on_c, 10, 64, 0
13, 216960, Note_on_c, 10, 61, 52
13, 217049, Note_on_c, 10, 61, 0
13, 217080, Note_on_c, 10, 57, 52
13, 217169, Note_on_c, 10, 57, 0
13, 218400, Note_on_c, 10, 81, 52
13, 218471, Note_on_c, 10, 81, 0
13, 218480, Note_on_c, 10, 81, 52
13, 218519, Note_on_c, 10, 81, 0
13, 218520, Note_on_c, 10, 85, 52
13, 218639, Note_on_c, 10, 85, 0
13, 218640, Note_on_c, 10, 81, 52
13, 218699, Note_on_c, 10, 81, 0
13, 221760, Note_on_c, 10, 79, 44
13, 221999, Note_on_c, 10, 79, 0
13, 222000, Note_on_c, 10, 78, 44
13, 222104, Note_on_c, 10, 78, 0
13, 222120, Note_on_c, 10, 79, 44
13, 222359, Note_on_c, 10, 79, 0
13, 222360, Note_on_c, 10, 78, 44
13, 222464, Note_on_c, 10, 78, 0
13, 222480, Note_on_c, 10, 79, 44
13, 222719, Note_on_c, 10, 79, 0
13, 222720, Note_on_c, 10, 78, 44
13, 222824, Note_on_c, 10, 78, 0
13, 222840, Note_on_c, 10, 79, 44
13, 223079, Note_on_c, 10, 79, 0
13, 223080, Note_on_c, 10, 78, 44
13, 223199, Note_on_c, 10, 78, 0
13, 224160, Note_on_c, 10, 83, 44
13, 224264, Note_on_c, 10, 83, 0
13, 224280, Note_on_c, 10, 86, 44
13, 224399, Note_on_c, 10, 86, 0
13, 224400, Note_on_c, 10, 83, 44
13, 224459, Note_on_c, 10, 83, 0
13, 227520, Note_on_c, 10, 82, 44
13, 227759, Note_on_c, 10, 82, 0
13, 227760, Note_on_c, 10, 81, 44
13, 227864, Note_on_c, 10, 81, 0
13, 227880, Note_on_c, 10, 82, 44
13, 228119, Note_on_c, 10, 82, 0
13, 228120, Note_on_c, 10, 81, 44
13, 228224, Note_on_c, 10, 81, 0
13, 228240, Note_on_c, 10, 82, 44
13, 228479, Note_on_c, 10, 82, 0
13, 228480, Note_on_c, 10, 81, 44
13, 228584, Note_on_c, 10, 81, 0
13, 228600, Note_on_c, 10, 82, 44
13, 228839, Note_on_c, 10, 82, 0
13, 228840, Note_on_c, 10, 81, 44
13, 228959, Note_on_c, 10, 81, 0
13, 229920, Note_on_c, 10, 81, 44
13, 230024, Note_on_c, 10, 81, 0
13, 230040, Note_on_c, 10, 84, 44
13, 230159, Note_on_c, 10, 84, 0
13, 230160, Note_on_c, 10, 81, 44
13, 230219, Note_on_c, 10, 81, 0
13, 230280, Note_on_c, 10, 74, 44
13, 230384, Note_on_c, 10, 74, 0
13, 230400, Note_on_c, 10, 75, 44
13, 230489, Note_on_c, 10, 75, 0
13, 230520, Note_on_c, 10, 75, 44
13, 230609, Note_on_c, 10, 75, 0
13, 230640, Note_on_c, 10, 74, 44
13, 230729, Note_on_c, 10, 74, 0
13, 230760, Note_on_c, 10, 79, 44
13, 230999, Note_on_c, 10, 79, 0
13, 231000, Note_on_c, 10, 77, 44
13, 231104, Note_on_c, 10, 77, 0
13, 231120, Note_on_c, 10, 75, 44
13, 231209, Note_on_c, 10, 75, 0
13, 231240, Note_on_c, 10, 75, 44
13, 231329, Note_on_c, 10, 75, 0
13, 231360, Note_on_c, 10, 74, 44
13, 231449, Note_on_c, 10, 74, 0
13, 231480, Note_on_c, 10, 79, 44
13, 231719, Note_on_c, 10, 79, 0
13, 231720, Note_on_c, 10, 77, 44
13, 231824, Note_on_c, 10, 77, 0
13, 231840, Note_on_c, 10, 77, 44
13, 231959, Note_on_c, 10, 77, 0
13, 232080, Program_c, 10, 45
13, 232200, Note_on_c, 10, 62, 40
13, 232200, Note_on_c, 10, 70, 40
13, 232319, Note_on_c, 10, 62, 0
13, 232319, Note_on_c, 10, 70, 0
13, 232560, Note_on_c, 10, 62, 40
13, 232560, Note_on_c, 10, 70, 40
13, 232679, Note_on_c, 10, 62, 0
13, 232679, Note_on_c, 10, 70, 0
13, 232920, Note_on_c, 10, 70, 40
13, 232920, Note_on_c, 10, 62, 40
13, 233039, Note_on_c, 10, 70, 0
13, 233039, Note_on_c, 10, 62, 0
13, 233280, Note_on_c, 10, 65, 40
13, 233280, Note_on_c, 10, 72, 40
13, 233399, Note_on_c, 10, 65, 0
13, 233399, Note_on_c, 10, 72, 0
13, 233640, Note_on_c, 10, 72, 40
13, 233640, Note_on_c, 10, 65, 40
13, 233759, Note_on_c, 10, 72, 0
13, 233759, Note_on_c, 10, 65, 0
13, 234000, Note_on_c, 10, 65, 40
13, 234000, Note_on_c, 10, 72, 40
13, 234119, Note_on_c, 10, 65, 0
13, 234119, Note_on_c, 10, 72, 0
13, 234360, Note_on_c, 10, 72, 40
13, 234360, Note_on_c, 10, 65, 40
13, 234479, Note_on_c, 10, 72, 0
13, 234479, Note_on_c, 10, 65, 0
13, 234720, Note_on_c, 10, 65, 40
13, 234720, Note_on_c, 10, 74, 40
13, 234839, Note_on_c, 10, 65, 0
13, 234839, Note_on_c, 10, 74, 0
13, 234960, Program_c, 10, 48
13, 235080, Note_on_c, 10, 65, 44
13, 235169, Note_on_c, 10, 65, 0
13, 235200, Note_on_c, 10, 70, 44
13, 235289, Note_on_c, 10, 70, 0
13, 235320, Note_on_c, 10, 70, 45
13, 235409, Note_on_c, 10, 70, 0
13, 235440, Note_on_c, 10, 65, 46
13, 235529, Note_on_c, 10, 65, 0
13, 235560, Note_on_c, 10, 70, 46
13, 235649, Note_on_c, 10, 70, 0
13, 235680, Note_on_c, 10, 70, 47
13, 235769, Note_on_c, 10, 70, 0
13, 235800, Note_on_c, 10, 65, 48
13, 235889, Note_on_c, 10, 65, 0
13, 235920, Note_on_c, 10, 70, 49
13, 236009, Note_on_c, 10, 70, 0
13, 236040, Note_on_c, 10, 70, 49
13, 236129, Note_on_c, 10, 70, 0
13, 236160, Note_on_c, 10, 72, 50
13, 236249, Note_on_c, 10, 72, 0
13, 236280, Note_on_c, 10, 72, 51
13, 236369, Note_on_c, 10, 72, 0
13, 236400, Note_on_c, 10, 72, 52
13, 236489, Note_on_c, 10, 72, 0
13, 236520, Note_on_c, 10, 69, 52
13, 236609, Note_on_c, 10, 69, 0
13, 236640, Note_on_c, 10, 69, 53
13, 236729, Note_on_c, 10, 69, 0
13, 236760, Note_on_c, 10, 72, 54
13, 236849, Note_on_c, 10, 72, 0
13, 236880, Note_on_c, 10, 69, 54
13, 236969, Note_on_c, 10, 69, 0
13, 237000, Note_on_c, 10, 69, 55
13, 237089, Note_on_c, 10, 69, 0
13, 237120, Note_on_c, 10, 72, 56
13, 237209, Note_on_c, 10, 72, 0
13, 237240, Note_on_c, 10, 69, 57
13, 237329, Note_on_c, 10, 69, 0
13, 237360, Note_on_c, 10, 69, 57
13, 237449, Note_on_c, 10, 69, 0
13, 237480, Note_on_c, 10, 72, 58
13, 237569, Note_on_c, 10, 72, 0
13, 237600, Note_on_c, 10, 70, 59
13, 237689, Note_on_c, 10, 70, 0
13, 237720, Note_on_c, 10, 70, 60
13, 237809, Note_on_c, 10, 70, 0
13, 237840, Note_on_c, 10, 74, 60
13, 237929, Note_on_c, 10, 74, 0
13, 239400, Note_on_c, 10, 67, 70
13, 239489, Note_on_c, 10, 67, 0
13, 239520, Note_on_c, 10, 67, 70
13, 239609, Note_on_c, 10, 67, 0
13, 239640, Note_on_c, 10, 69, 71
13, 239729, Note_on_c, 10, 69, 0
13, 239760, Note_on_c, 10, 70, 72
13, 239849, Note_on_c, 10, 70, 0
13, 239880, Note_on_c, 10, 70, 73
13, 239969, Note_on_c, 10, 70, 0
13, 240000, Note_on_c, 10, 72, 73
13, 240089, Note_on_c, 10, 72, 0
13, 240120, Note_on_c, 10, 74, 74
13, 240209, Note_on_c, 10, 74, 0
13, 240240, Note_on_c, 10, 76, 75
13, 240329, Note_on_c, 10, 76, 0
13, 240360, Note_on_c, 10, 77, 76
13, 240419, Note_on_c, 10, 77, 0
13, 240440, Note_on_c, 10, 77, 76
13, 240479, Note_on_c, 10, 77, 0
13, 240480, Note_on_c, 10, 81, 76
13, 240599, Note_on_c, 10, 81, 0
13, 240600, Note_on_c, 10, 77, 76
13, 240659, Note_on_c, 10, 77, 0
13, 240720, Note_on_c, 10, 81, 76
13, 240779, Note_on_c, 10, 81, 0
13, 240800, Note_on_c, 10, 81, 76
13, 240839, Note_on_c, 10, 81, 0
13, 240840, Note_on_c, 10, 84, 76
13, 240959, Note_on_c, 10, 84, 0
13, 240960, Note_on_c, 10, 81, 76
13, 241019, Note_on_c, 10, 81, 0
13, 241080, Note_on_c, 10, 84, 76
13, 241184, Note_on_c, 10, 84, 0
13, 241200, Note_on_c, 10, 89, 84
13, 241289, Note_on_c, 10, 89, 0
13, 241320, Note_on_c, 10, 89, 84
13, 241409, Note_on_c, 10, 89, 0
13, 241440, Note_on_c, 10, 88, 84
13, 241529, Note_on_c, 10, 88, 0
13, 241560, Note_on_c, 10, 86, 84
13, 241649, Note_on_c, 10, 86, 0
13, 241680, Note_on_c, 10, 86, 84
13, 241769, Note_on_c, 10, 86, 0
13, 241800, Note_on_c, 10, 84, 84
13, 241889, Note_on_c, 10, 84, 0
13, 241920, Note_on_c, 10, 82, 84
13, 242009, Note_on_c, 10, 82, 0
13, 242040, Note_on_c, 10, 82, 84
13, 242129, Note_on_c, 10, 82, 0
13, 242160, Note_on_c, 10, 81, 84
13, 242249, Note_on_c, 10, 81, 0
13, 242280, Note_on_c, 10, 79, 84
13, 242624, Note_on_c, 10, 79, 0
13, 242640, Note_on_c, 10, 91, 84
13, 242729, Note_on_c, 10, 91, 0
13, 242760, Note_on_c, 10, 91, 84
13, 242849, Note_on_c, 10, 91, 0
13, 242880, Note_on_c, 10, 89, 84
13, 242969, Note_on_c, 10, 89, 0
13, 243000, Note_on_c, 10, 88, 84
13, 243089, Note_on_c, 10, 88, 0
13, 243120, Note_on_c, 10, 88, 84
13, 243209, Note_on_c, 10, 88, 0
13, 243240, Note_on_c, 10, 86, 84
13, 243329, Note_on_c, 10, 86, 0
13, 243360, Note_on_c, 10, 84, 84
13, 243449, Note_on_c, 10, 84, 0
13, 243480, Note_on_c, 10, 84, 84
13, 243569, Note_on_c, 10, 84, 0
13, 243600, Note_on_c, 10, 82, 84
13, 243689, Note_on_c, 10, 82, 0
13, 243720, Note_on_c, 10, 81, 84
13, 244064, Note_on_c, 10, 81, 0
13, 244080, Note_on_c, 10, 77, 52
13, 244439, Note_on_c, 10, 77, 0
13, 244440, Note_on_c, 10, 77, 52
13, 244799, Note_on_c, 10, 77, 0
13, 244800, Note_on_c, 10, 77, 52
13, 245279, Note_on_c, 10, 77, 0
13, 245280, Note_on_c, 10, 79, 52
13, 245384, Note_on_c, 10, 79, 0
13, 245400, Note_on_c, 10, 79, 52
13, 245489, Note_on_c, 10, 79, 0
13, 245520, Note_on_c, 10, 79, 52
13, 245879, Note_on_c, 10, 79, 0
13, 245880, Note_on_c, 10, 79, 52
13, 246239, Note_on_c, 10, 79, 0
13, 246240, Note_on_c, 10, 79, 52
13, 246719, Note_on_c, 10, 79, 0
13, 246720, Note_on_c, 10, 81, 52
13, 246824, Note_on_c, 10, 81, 0
13, 246840, Note_on_c, 10, 81, 52
13, 246929, Note_on_c, 10, 81, 0
13, 246960, Note_on_c, 10, 67, 52
13, 247049, Note_on_c, 10, 67, 0
13, 247080, Note_on_c, 10, 67, 52
13, 247169, Note_on_c, 10, 67, 0
13, 247200, Note_on_c, 10, 65, 52
13, 247289, Note_on_c, 10, 65, 0
13, 247320, Note_on_c, 10, 70, 52
13, 247559, Note_on_c, 10, 70, 0
13, 247560, Note_on_c, 10, 69, 52
13, 247679, Note_on_c, 10, 69, 0
13, 248280, Control_c, 10, 11, 80
13, 248400, Note_on_c, 10, 67, 76
13, 248440, Control_c, 10, 11, 83
13, 248480, Control_c, 10, 11, 85
13, 248489, Note_on_c, 10, 67, 0
13, 248520, Note_on_c, 10, 67, 76
13, 248520, Control_c, 10, 11, 88
13, 248560, Control_c, 10, 11, 90
13, 248600, Control_c, 10, 11, 93
13, 248609, Note_on_c, 10, 67, 0
13, 248640, Control_c, 10, 11, 96
13, 248640, Note_on_c, 10, 65, 76
13, 248680, Control_c, 10, 11, 98
13, 248720, Control_c, 10, 11, 101
13, 248729, Note_on_c, 10, 65, 0
13, 248760, Note_on_c, 10, 70, 76
13, 248760, Control_c, 10, 11, 104
13, 248800, Control_c, 10, 11, 106
13, 248840, Control_c, 10, 11, 109
13, 248880, Control_c, 10, 11, 111
13, 248920, Control_c, 10, 11, 114
13, 248960, Control_c, 10, 11, 117
13, 248999, Note_on_c, 10, 70, 0
13, 249000, Note_on_c, 10, 69, 76
13, 249000, Control_c, 10, 11, 119
13, 249040, Control_c, 10, 11, 122
13, 249080, Control_c, 10, 11, 127
13, 249104, Note_on_c, 10, 69, 0
13, 249120, Note_on_c, 10, 74, 76
13, 249359, Note_on_c, 10, 74, 0
13, 249360, Note_on_c, 10, 72, 76
13, 249464, Note_on_c, 10, 72, 0
13, 249480, Note_on_c, 10, 77, 84
13, 249719, Note_on_c, 10, 77, 0
13, 249720, Note_on_c, 10, 76, 76
13, 249824, Note_on_c, 10, 76, 0
13, 249840, Note_on_c, 10, 81, 84
13, 250079, Note_on_c, 10, 81, 0
13, 250080, Note_on_c, 10, 79, 76
13, 250184, Note_on_c, 10, 79, 0
13, 250200, Note_on_c, 10, 83, 84
13, 250439, Note_on_c, 10, 83, 0
13, 250440, Note_on_c, 10, 84, 76
13, 250544, Note_on_c, 10, 84, 0
13, 250560, Note_on_c, 10, 83, 52
13, 250604, Note_on_c, 10, 83, 0
13, 250605, Note_on_c, 10, 84, 52
13, 250649, Note_on_c, 10, 84, 0
13, 250650, Note_on_c, 10, 83, 52
13, 250694, Note_on_c, 10, 83, 0
13, 250695, Note_on_c, 10, 84, 52
13, 250739, Note_on_c, 10, 84, 0
13, 250740, Note_on_c, 10, 83, 52
13, 250784, Note_on_c, 10, 83, 0
13, 250785, Note_on_c, 10, 84, 52
13, 250829, Note_on_c, 10, 84, 0
13, 250830, Note_on_c, 10, 81, 52
13, 250874, Note_on_c, 10, 81, 0
13, 250875, Note_on_c, 10, 83, 52
13, 250919, Note_on_c, 10, 83, 0
13, 250920, Note_on_c, 10, 84, 52
13, 251009, Note_on_c, 10, 84, 0
13, 251040, Note_on_c, 10, 79, 52
13, 251129, Note_on_c, 10, 79, 0
13, 251160, Note_on_c, 10, 76, 52
13, 251249, Note_on_c, 10, 76, 0
13, 251280, Note_on_c, 10, 77, 52
13, 251324, Note_on_c, 10, 77, 0
13, 251325, Note_on_c, 10, 79, 52
13, 251369, Note_on_c, 10, 79, 0
13, 251370, Note_on_c, 10, 77, 52
13, 251414, Note_on_c, 10, 77, 0
13, 251415, Note_on_c, 10, 79, 52
13, 251459, Note_on_c, 10, 79, 0
13, 251460, Note_on_c, 10, 77, 52
13, 251504, Note_on_c, 10, 77, 0
13, 251505, Note_on_c, 10, 79, 52
13, 251549, Note_on_c, 10, 79, 0
13, 251550, Note_on_c, 10, 76, 52
13, 251594, Note_on_c, 10, 76, 0
13, 251595, Note_on_c, 10, 77, 52
13, 251639, Note_on_c, 10, 77, 0
13, 251640, Note_on_c, 10, 76, 52
13, 251729, Note_on_c, 10, 76, 0
13, 251760, Note_on_c, 10, 79, 52
13, 251849, Note_on_c, 10, 79, 0
13, 251880, Note_on_c, 10, 84, 52
13, 251969, Note_on_c, 10, 84, 0
13, 252000, Note_on_c, 10, 83, 52
13, 252044, Note_on_c, 10, 83, 0
13, 252045, Note_on_c, 10, 84, 53
13, 252089, Note_on_c, 10, 84, 0
13, 252090, Note_on_c, 10, 83, 54
13, 252134, Note_on_c, 10, 83, 0
13, 252135, Note_on_c, 10, 84, 55
13, 252179, Note_on_c, 10, 84, 0
13, 252180, Note_on_c, 10, 83, 56
13, 252224, Note_on_c, 10, 83, 0
13, 252225, Note_on_c, 10, 84, 57
13, 252269, Note_on_c, 10, 84, 0
13, 252270, Note_on_c, 10, 81, 58
13, 252314, Note_on_c, 10, 81, 0
13, 252315, Note_on_c, 10, 83, 59
13, 252359, Note_on_c, 10, 83, 0
13, 252360, Note_on_c, 10, 84, 60
13, 252449, Note_on_c, 10, 84, 0
13, 252480, Note_on_c, 10, 79, 62
13, 252569, Note_on_c, 10, 79, 0
13, 252600, Note_on_c, 10, 76, 65
13, 252689, Note_on_c, 10, 76, 0
13, 252720, Note_on_c, 10, 83, 68
13, 252764, Note_on_c, 10, 83, 0
13, 252765, Note_on_c, 10, 84, 69
13, 252809, Note_on_c, 10, 84, 0
13, 252810, Note_on_c, 10, 83, 70
13, 252854, Note_on_c, 10, 83, 0
13, 252855, Note_on_c, 10, 84, 71
13, 252899, Note_on_c, 10, 84, 0
13, 252900, Note_on_c, 10, 83, 72
13, 252944, Note_on_c, 10, 83, 0
13, 252945, Note_on_c, 10, 84, 73
13, 252989, Note_on_c, 10, 84, 0
13, 252990, Note_on_c, 10, 81, 74
13, 253034, Note_on_c, 10, 81, 0
13, 253035, Note_on_c, 10, 83, 75
13, 253079, Note_on_c, 10, 83, 0
13, 253080, Note_on_c, 10, 84, 76
13, 253169, Note_on_c, 10, 84, 0
13, 253200, Note_on_c, 10, 79, 78
13, 253289, Note_on_c, 10, 79, 0
13, 253320, Note_on_c, 10, 76, 81
13, 253409, Note_on_c, 10, 76, 0
13, 253440, Note_on_c, 10, 76, 84
13, 253484, Note_on_c, 10, 76, 0
13, 253485, Note_on_c, 10, 77, 84
13, 253529, Note_on_c, 10, 77, 0
13, 253530, Note_on_c, 10, 76, 84
13, 253574, Note_on_c, 10, 76, 0
13, 253575, Note_on_c, 10, 77, 84
13, 253619, Note_on_c, 10, 77, 0
13, 253620, Note_on_c, 10, 76, 84
13, 253664, Note_on_c, 10, 76, 0
13, 253665, Note_on_c, 10, 77, 84
13, 253709, Note_on_c, 10, 77, 0
13, 253710, Note_on_c, 10, 74, 84
13, 253754, Note_on_c, 10, 74, 0
13, 253755, Note_on_c, 10, 76, 84
13, 253799, Note_on_c, 10, 76, 0
13, 253800, Note_on_c, 10, 77, 84
13, 253889, Note_on_c, 10, 77, 0
13, 253920, Note_on_c, 10, 72, 84
13, 254009, Note_on_c, 10, 72, 0
13, 254040, Note_on_c, 10, 69, 84
13, 254129, Note_on_c, 10, 69, 0
13, 254160, Note_on_c, 10, 70, 84
13, 254204, Note_on_c, 10, 70, 0
13, 254205, Note_on_c, 10, 72, 84
13, 254249, Note_on_c, 10, 72, 0
13, 254250, Note_on_c, 10, 70, 84
13, 254294, Note_on_c, 10, 70, 0
13, 254295, Note_on_c, 10, 72, 84
13, 254339, Note_on_c, 10, 72, 0
13, 254340, Note_on_c, 10, 70, 84
13, 254384, Note_on_c, 10, 70, 0
13, 254385, Note_on_c, 10, 72, 84
13, 254429, Note_on_c, 10, 72, 0
13, 254430, Note_on_c, 10, 69, 84
13, 254474, Note_on_c, 10, 69, 0
13, 254475, Note_on_c, 10, 70, 84
13, 254519, Note_on_c, 10, 70, 0
13, 254520, Note_on_c, 10, 69, 84
13, 254609, Note_on_c, 10, 69, 0
13, 254640, Note_on_c, 10, 72, 84
13, 254729, Note_on_c, 10, 72, 0
13, 254760, Note_on_c, 10, 77, 84
13, 254849, Note_on_c, 10, 77, 0
13, 254880, Note_on_c, 10, 76, 84
13, 254924, Note_on_c, 10, 76, 0
13, 254925, Note_on_c, 10, 77, 84
13, 254969, Note_on_c, 10, 77, 0
13, 254970, Note_on_c, 10, 76, 84
13, 255014, Note_on_c, 10, 76, 0
13, 255015, Note_on_c, 10, 77, 84
13, 255059, Note_on_c, 10, 77, 0
13, 255060, Note_on_c, 10, 76, 84
13, 255104, Note_on_c, 10, 76, 0
13, 255105, Note_on_c, 10, 77, 84
13, 255149, Note_on_c, 10, 77, 0
13, 255150, Note_on_c, 10, 74, 84
13, 255194, Note_on_c, 10, 74, 0
13, 255195, Note_on_c, 10, 76, 84
13, 255239, Note_on_c, 10, 76, 0
13, 255240, Note_on_c, 10, 77, 84
13, 255329, Note_on_c, 10, 77, 0
13, 255360, Note_on_c, 10, 72, 84
13, 255449, Note_on_c, 10, 72, 0
13, 255480, Note_on_c, 10, 69, 84
13, 255569, Note_on_c, 10, 69, 0
13, 255600, Note_on_c, 10, 76, 84
13, 255644, Note_on_c, 10, 76, 0
13, 255645, Note_on_c, 10, 77, 84
13, 255689, Note_on_c, 10, 77, 0
13, 255690, Note_on_c, 10, 76, 84
13, 255734, Note_on_c, 10, 76, 0
13, 255735, Note_on_c, 10, 77, 84
13, 255779, Note_on_c, 10, 77, 0
13, 255780, Note_on_c, 10, 76, 84
13, 255824, Note_on_c, 10, 76, 0
13, 255825, Note_on_c, 10, 77, 84
13, 255869, Note_on_c, 10, 77, 0
13, 255870, Note_on_c, 10, 74, 84
13, 255914, Note_on_c, 10, 74, 0
13, 255915, Note_on_c, 10, 76, 84
13, 255959, Note_on_c, 10, 76, 0
13, 255960, Note_on_c, 10, 77, 84
13, 256049, Note_on_c, 10, 77, 0
13, 256080, Note_on_c, 10, 72, 84
13, 256169, Note_on_c, 10, 72, 0
13, 256200, Note_on_c, 10, 69, 84
13, 256289, Note_on_c, 10, 69, 0
13, 256320, Note_on_c, 10, 76, 84
13, 256364, Note_on_c, 10, 76, 0
13, 256365, Note_on_c, 10, 77, 84
13, 256409, Note_on_c, 10, 77, 0
13, 256410, Note_on_c, 10, 76, 84
13, 256454, Note_on_c, 10, 76, 0
13, 256455, Note_on_c, 10, 77, 84
13, 256499, Note_on_c, 10, 77, 0
13, 256500, Note_on_c, 10, 76, 84
13, 256544, Note_on_c, 10, 76, 0
13, 256545, Note_on_c, 10, 77, 84
13, 256589, Note_on_c, 10, 77, 0
13, 256590, Note_on_c, 10, 74, 84
13, 256634, Note_on_c, 10, 74, 0
13, 256635, Note_on_c, 10, 76, 84
13, 256679, Note_on_c, 10, 76, 0
13, 256680, Note_on_c, 10, 77, 84
13, 256769, Note_on_c, 10, 77, 0
13, 256800, Note_on_c, 10, 72, 84
13, 256889, Note_on_c, 10, 72, 0
13, 256920, Note_on_c, 10, 69, 84
13, 257009, Note_on_c, 10, 69, 0
13, 257040, Note_on_c, 10, 65, 84
13, 257129, Note_on_c, 10, 65, 0
13, 257160, Note_on_c, 10, 60, 84
13, 257249, Note_on_c, 10, 60, 0
13, 257280, Note_on_c, 10, 57, 84
13, 257369, Note_on_c, 10, 57, 0
13, 257400, Note_on_c, 10, 57, 84
13, 257400, Note_on_c, 10, 65, 84
13, 257519, Note_on_c, 10, 57, 0
13, 257519, Note_on_c, 10, 65, 0
13, 258720, Note_on_c, 10, 77, 84
13, 258791, Note_on_c, 10, 77, 0
13, 258800, Note_on_c, 10, 77, 84
13, 258839, Note_on_c, 10, 77, 0
13, 258840, Note_on_c, 10, 81, 92
13, 258959, Note_on_c, 10, 81, 0
13, 258960, Note_on_c, 10, 77, 84
13, 259019, Note_on_c, 10, 77, 0
13, 259080, Note_on_c, 10, 77, 84
13, 259151, Note_on_c, 10, 77, 0
13, 259160, Note_on_c, 10, 77, 84
13, 259199, Note_on_c, 10, 77, 0
13, 259200, Note_on_c, 10, 81, 92
13, 259319, Note_on_c, 10, 81, 0
13, 259320, Note_on_c, 10, 77, 84
13, 259379, Note_on_c, 10, 77, 0
13, 259440, Note_on_c, 10, 77, 84
13, 259511, Note_on_c, 10, 77, 0
13, 259520, Note_on_c, 10, 77, 84
13, 259559, Note_on_c, 10, 77, 0
13, 259560, Note_on_c, 10, 81, 92
13, 259679, Note_on_c, 10, 81, 0
13, 259680, Note_on_c, 10, 77, 84
13, 259784, Note_on_c, 10, 77, 0
13, 259800, Note_on_c, 10, 77, 84
13, 259871, Note_on_c, 10, 77, 0
13, 259880, Note_on_c, 10, 77, 84
13, 259919, Note_on_c, 10, 77, 0
13, 259920, Note_on_c, 10, 81, 92
13, 260039, Note_on_c, 10, 81, 0
13, 260040, Note_on_c, 10, 77, 84
13, 260144, Note_on_c, 10, 77, 0
13, 260160, Note_on_c, 10, 77, 84
13, 260231, Note_on_c, 10, 77, 0
13, 260240, Note_on_c, 10, 77, 84
13, 260279, Note_on_c, 10, 77, 0
13, 260280, Note_on_c, 10, 81, 92
13, 260399, Note_on_c, 10, 81, 0
13, 260400, Note_on_c, 10, 77, 84
13, 260504, Note_on_c, 10, 77, 0
13, 260520, Note_on_c, 10, 77, 84
13, 260609, Note_on_c, 10, 77, 0
13, 260640, Note_on_c, 10, 81, 84
13, 260640, Note_on_c, 10, 69, 84
13, 260640, Control_c, 10, 11, 127
13, 260680, Control_c, 10, 11, 125
13, 260720, Control_c, 10, 11, 124
13, 260760, Control_c, 10, 11, 122
13, 260800, Control_c, 10, 11, 120
13, 260840, Control_c, 10, 11, 118
13, 260880, Control_c, 10, 11, 117
13, 260920, Control_c, 10, 11, 115
13, 260960, Control_c, 10, 11, 113
13, 260999, Note_on_c, 10, 81, 0
13, 260999, Note_on_c, 10, 69, 0
13, 261000, Note_on_c, 10, 81, 84
13, 261000, Note_on_c, 10, 69, 84
13, 261000, Control_c, 10, 11, 111
13, 261040, Control_c, 10, 11, 110
13, 261080, Control_c, 10, 11, 108
13, 261120, Control_c, 10, 11, 106
13, 261160, Control_c, 10, 11, 104
13, 261200, Control_c, 10, 11, 103
13, 261240, Control_c, 10, 11, 101
13, 261280, Control_c, 10, 11, 99
13, 261320, Control_c, 10, 11, 97
13, 261359, Note_on_c, 10, 81, 0
13, 261359, Note_on_c, 10, 69, 0
13, 261360, Control_c, 10, 11, 96
13, 261360, Note_on_c, 10, 81, 84
13, 261360, Note_on_c, 10, 69, 84
13, 261400, Control_c, 10, 11, 94
13, 261440, Control_c, 10, 11, 92
13, 261480, Control_c, 10, 11, 90
13, 261520, Control_c, 10, 11, 89
13, 261560, Control_c, 10, 11, 87
13, 261600, Control_c, 10, 11, 85
13, 261640, Control_c, 10, 11, 83
13, 261680, Control_c, 10, 11, 82
13, 261719, Note_on_c, 10, 81, 0
13, 261719, Note_on_c, 10, 69, 0
13, 261720, Control_c, 10, 11, 80
13, 261720, Note_on_c, 10, 81, 84
13, 261720, Note_on_c, 10, 69, 84
13, 261760, Control_c, 10, 11, 78
13, 261800, Control_c, 10, 11, 76
13, 261840, Control_c, 10, 11, 75
13, 261880, Control_c, 10, 11, 73
13, 261920, Control_c, 10, 11, 71
13, 261960, Control_c, 10, 11, 69
13, 262000, Control_c, 10, 11, 68
13, 262078, Control_c, 10, 11, 80
13, 262079, Note_on_c, 10, 81, 0
13, 262079, Note_on_c, 10, 69, 0
13, 262080, Note_on_c, 10, 81, 76
13, 262799, Note_on_c, 10, 81, 0
13, 262800, Note_on_c, 10, 81, 76
13, 263519, Note_on_c, 10, 81, 0
13, 263520, Note_on_c, 10, 81, 76
13, 264235, Note_on_c, 10, 81, 0
13, 264238, Control_c, 10, 11, 96
13, 264240, Note_on_c, 10, 81, 68
13, 264959, Note_on_c, 10, 81, 0
13, 264960, Note_on_c, 10, 81, 68
13, 265675, Note_on_c, 10, 81, 0
13, 265678, Control_c, 10, 11, 112
13, 265680, Note_on_c, 10, 81, 60
13, 266399, Note_on_c, 10, 81, 0
13, 266400, Note_on_c, 10, 81, 60
13, 266999, Note_on_c, 10, 81, 0
13, 267000, Note_on_c, 10, 80, 60
13, 267099, Note_on_c, 10, 80, 0
13, 267120, Note_on_c, 10, 81, 60
13, 267719, Note_on_c, 10, 81, 0
13, 267720, Note_on_c, 10, 80, 60
13, 267819, Note_on_c, 10, 80, 0
13, 267838, Control_c, 10, 11, 127
13, 267840, Note_on_c, 10, 81, 52
13, 268559, Note_on_c, 10, 81, 0
13, 268560, Note_on_c, 10, 81, 52
13, 269279, Note_on_c, 10, 81, 0
13, 269280, Note_on_c, 10, 81, 52
13, 269999, Note_on_c, 10, 81, 0
13, 270000, Note_on_c, 10, 81, 52
13, 270719, Note_on_c, 10, 81, 0
13, 270720, Note_on_c, 10, 81, 52
13, 271439, Note_on_c, 10, 81, 0
13, 271440, Note_on_c, 10, 81, 52
13, 272159, Note_on_c, 10, 81, 0
13, 272160, Note_on_c, 10, 81, 52
13, 272639, Note_on_c, 10, 81, 0
13, 272640, Note_on_c, 10, 78, 52
13, 272879, Note_on_c, 10, 78, 0
13, 272880, Note_on_c, 10, 81, 52
13, 273119, Note_on_c, 10, 81, 0
13, 273120, Note_on_c, 10, 79, 52
13, 273359, Note_on_c, 10, 79, 0
13, 273360, Note_on_c, 10, 76, 52
13, 273479, Note_on_c, 10, 76, 0
13, 273480, Note_on_c, 10, 81, 52
13, 273579, Note_on_c, 10, 81, 0
13, 273600, Note_on_c, 10, 81, 52
13, 274319, Note_on_c, 10, 81, 0
13, 274320, Note_on_c, 10, 81, 52
13, 275039, Note_on_c, 10, 81, 0
13, 275040, Note_on_c, 10, 81, 52
13, 275759, Note_on_c, 10, 81, 0
13, 275760, Note_on_c, 10, 81, 52
13, 276479, Note_on_c, 10, 81, 0
13, 276480, Note_on_c, 10, 81, 52
13, 277199, Note_on_c, 10, 81, 0
13, 277200, Note_on_c, 10, 81, 52
13, 277919, Note_on_c, 10, 81, 0
13, 277920, Note_on_c, 10, 81, 52
13, 278519, Note_on_c, 10, 81, 0
13, 278520, Note_on_c, 10, 80, 52
13, 278619, Note_on_c, 10, 80, 0
13, 278640, Note_on_c, 10, 81, 52
13, 279239, Note_on_c, 10, 81, 0
13, 279240, Note_on_c, 10, 80, 52
13, 279339, Note_on_c, 10, 80, 0
13, 279360, Note_on_c, 10, 81, 52
13, 280079, Note_on_c, 10, 81, 0
13, 280080, Note_on_c, 10, 81, 52
13, 280799, Note_on_c, 10, 81, 0
13, 280800, Note_on_c, 10, 81, 52
13, 281519, Note_on_c, 10, 81, 0
13, 281520, Note_on_c, 10, 81, 52
13, 282239, Note_on_c, 10, 81, 0
13, 282240, Note_on_c, 10, 81, 52
13, 282959, Note_on_c, 10, 81, 0
13, 282960, Note_on_c, 10, 81, 52
13, 283679, Note_on_c, 10, 81, 0
13, 283680, Note_on_c, 10, 81, 52
13, 284159, Note_on_c, 10, 81, 0
13, 284160, Note_on_c, 10, 78, 52
13, 284399, Note_on_c, 10, 78, 0
13, 284400, Note_on_c, 10, 81, 52
13, 284639, Note_on_c, 10, 81, 0
13, 284640, Note_on_c, 10, 78, 52
13, 284879, Note_on_c, 10, 78, 0
13, 284880, Note_on_c, 10, 74, 52
13, 284999, Note_on_c, 10, 74, 0
13, 285000, Note_on_c, 10, 81, 52
13, 285099, Note_on_c, 10, 81, 0
13, 285120, Note_on_c, 10, 81, 52
13, 285839, Note_on_c, 10, 81, 0
13, 285840, Note_on_c, 10, 81, 52
13, 286559, Note_on_c, 10, 81, 0
13, 286560, Note_on_c, 10, 81, 52
13, 287279, Note_on_c, 10, 81, 0
13, 287280, Note_on_c, 10, 81, 52
13, 287999, Note_on_c, 10, 81, 0
13, 288000, Note_on_c, 10, 81, 52
13, 288719, Note_on_c, 10, 81, 0
13, 288720, Note_on_c, 10, 81, 52
13, 289439, Note_on_c, 10, 81, 0
13, 289440, Note_on_c, 10, 81, 52
13, 290039, Note_on_c, 10, 81, 0
13, 290040, Note_on_c, 10, 80, 52
13, 290159, Note_on_c, 10, 80, 0
13, 290160, Note_on_c, 10, 81, 52
13, 290759, Note_on_c, 10, 81, 0
13, 290760, Note_on_c, 10, 80, 52
13, 290859, Note_on_c, 10, 80, 0
13, 290880, Note_on_c, 10, 81, 52
13, 291599, Note_on_c, 10, 81, 0
13, 291600, Note_on_c, 10, 81, 52
13, 292319, Note_on_c, 10, 81, 0
13, 292320, Note_on_c, 10, 81, 52
13, 293039, Note_on_c, 10, 81, 0
13, 293040, Note_on_c, 10, 81, 52
13, 293759, Note_on_c, 10, 81, 0
13, 293760, Note_on_c, 10, 81, 52
13, 294479, Note_on_c, 10, 81, 0
13, 294480, Note_on_c, 10, 81, 52
13, 295199, Note_on_c, 10, 81, 0
13, 295200, Note_on_c, 10, 81, 52
13, 295919, Note_on_c, 10, 81, 0
13, 295920, Note_on_c, 10, 81, 52
13, 296519, Note_on_c, 10, 81, 0
13, 296520, Note_on_c, 10, 80, 52
13, 296619, Note_on_c, 10, 80, 0
13, 296640, Note_on_c, 10, 81, 52
13, 297359, Note_on_c, 10, 81, 0
13, 297360, Note_on_c, 10, 81, 52
13, 297959, Note_on_c, 10, 81, 0
13, 297960, Note_on_c, 10, 80, 52
13, 298059, Note_on_c, 10, 80, 0
13, 298078, Control_c, 10, 11, 64
13, 298080, Note_on_c, 10, 81, 84
13, 298171, Control_c, 10, 11, 65
13, 298263, Control_c, 10, 11, 66
13, 298354, Control_c, 10, 11, 67
13, 298446, Control_c, 10, 11, 68
13, 298537, Control_c, 10, 11, 69
13, 298629, Control_c, 10, 11, 70
13, 298720, Control_c, 10, 11, 71
13, 298799, Note_on_c, 10, 81, 0
13, 298800, Note_on_c, 10, 81, 84
13, 298811, Control_c, 10, 11, 72
13, 298903, Control_c, 10, 11, 73
13, 298994, Control_c, 10, 11, 74
13, 299086, Control_c, 10, 11, 75
13, 299177, Control_c, 10, 11, 76
13, 299269, Control_c, 10, 11, 77
13, 299360, Control_c, 10, 11, 78
13, 299451, Control_c, 10, 11, 79
13, 299519, Note_on_c, 10, 81, 0
13, 299520, Note_on_c, 10, 81, 84
13, 299543, Control_c, 10, 11, 80
13, 299634, Control_c, 10, 11, 81
13, 299726, Control_c, 10, 11, 82
13, 299817, Control_c, 10, 11, 83
13, 299909, Control_c, 10, 11, 84
13, 300000, Control_c, 10, 11, 85
13, 300091, Control_c, 10, 11, 86
13, 300183, Control_c, 10, 11, 87
13, 300239, Note_on_c, 10, 81, 0
13, 300240, Note_on_c, 10, 81, 84
13, 300274, Control_c, 10, 11, 88
13, 300366, Control_c, 10, 11, 89
13, 300457, Control_c, 10, 11, 90
13, 300549, Control_c, 10, 11, 91
13, 300640, Control_c, 10, 11, 92
13, 300731, Control_c, 10, 11, 93
13, 300823, Control_c, 10, 11, 94
13, 300914, Control_c, 10, 11, 95
13, 300959, Note_on_c, 10, 81, 0
13, 300960, Note_on_c, 10, 81, 84
13, 301006, Control_c, 10, 11, 96
13, 301097, Control_c, 10, 11, 97
13, 301189, Control_c, 10, 11, 98
13, 301280, Control_c, 10, 11, 99
13, 301371, Control_c, 10, 11, 100
13, 301463, Control_c, 10, 11, 101
13, 301554, Control_c, 10, 11, 102
13, 301646, Control_c, 10, 11, 103
13, 301679, Note_on_c, 10, 81, 0
13, 301680, Note_on_c, 10, 81, 84
13, 301737, Control_c, 10, 11, 104
13, 301829, Control_c, 10, 11, 105
13, 301920, Control_c, 10, 11, 106
13, 302011, Control_c, 10, 11, 107
13, 302103, Control_c, 10, 11, 108
13, 302194, Control_c, 10, 11, 109
13, 302286, Control_c, 10, 11, 110
13, 302377, Control_c, 10, 11, 111
13, 302469, Control_c, 10, 11, 112
13, 302560, Control_c, 10, 11, 113
13, 302619, Note_on_c, 10, 81, 0
13, 302640, Note_on_c, 10, 85, 84
13, 302651, Control_c, 10, 11, 114
13, 302743, Control_c, 10, 11, 115
13, 302834, Control_c, 10, 11, 116
13, 302926, Control_c, 10, 11, 117
13, 303017, Control_c, 10, 11, 118
13, 303099, Note_on_c, 10, 85, 0
13, 303109, Control_c, 10, 11, 119
13, 303120, Note_on_c, 10, 85, 84
13, 303200, Control_c, 10, 11, 120
13, 303291, Control_c, 10, 11, 121
13, 303383, Control_c, 10, 11, 122
13, 303474, Control_c, 10, 11, 123
13, 303566, Control_c, 10, 11, 124
13, 303579, Note_on_c, 10, 85, 0
13, 303600, Note_on_c, 10, 85, 84
13, 303657, Control_c, 10, 11, 125
13, 303749, Control_c, 10, 11, 127
13, 303819, Note_on_c, 10, 85, 0
13, 303840, Note_on_c, 10, 74, 84
13, 303840, Note_on_c, 10, 86, 84
13, 304439, Note_on_c, 10, 74, 0
13, 304439, Note_on_c, 10, 86, 0
13, 304440, Note_on_c, 10, 85, 84
13, 304559, Note_on_c, 10, 85, 0
13, 304560, Note_on_c, 10, 86, 84
13, 304560, Note_on_c, 10, 74, 84
13, 304799, Note_on_c, 10, 86, 0
13, 304799, Note_on_c, 10, 74, 0
13, 305280, Note_on_c, 10, 86, 84
13, 305280, Note_on_c, 10, 74, 84
13, 305879, Note_on_c, 10, 86, 0
13, 305879, Note_on_c, 10, 74, 0
13, 305880, Note_on_c, 10, 85, 84
13, 305999, Note_on_c, 10, 85, 0
13, 306000, Note_on_c, 10, 74, 84
13, 306000, Note_on_c, 10, 86, 84
13, 306239, Note_on_c, 10, 74, 0
13, 306239, Note_on_c, 10, 86, 0
13, 306720, Note_on_c, 10, 86, 84
13, 306959, Note_on_c, 10, 86, 0
13, 306960, Note_on_c, 10, 74, 84
13, 307199, Note_on_c, 10, 74, 0
13, 307200, Note_on_c, 10, 76, 84
13, 307419, Note_on_c, 10, 76, 0
13, 307440, Note_on_c, 10, 78, 84
13, 307679, Note_on_c, 10, 78, 0
13, 307680, Note_on_c, 10, 79, 84
13, 307899, Note_on_c, 10, 79, 0
13, 307920, Note_on_c, 10, 78, 84
13, 308099, Note_on_c, 10, 78, 0
13, 308160, Note_on_c, 10, 64, 84
13, 308160, Note_on_c, 10, 69, 84
13, 308160, Note_on_c, 10, 76, 84
13, 308160, Note_on_c, 10, 57, 84
13, 308399, Note_on_c, 10, 64, 0
13, 308399, Note_on_c, 10, 69, 0
13, 308399, Note_on_c, 10, 76, 0
13, 308399, Note_on_c, 10, 57, 0
13, 309600, Note_on_c, 10, 88, 84
13, 309600, Note_on_c, 10, 76, 84
13, 310199, Note_on_c, 10, 88, 0
13, 310199, Note_on_c, 10, 76, 0
13, 310200, Note_on_c, 10, 87, 84
13, 310319, Note_on_c, 10, 87, 0
13, 310320, Note_on_c, 10, 76, 84
13, 310320, Note_on_c, 10, 88, 84
13, 310559, Note_on_c, 10, 76, 0
13, 310559, Note_on_c, 10, 88, 0
13, 311040, Note_on_c, 10, 88, 84
13, 311040, Note_on_c, 10, 76, 84
13, 311639, Note_on_c, 10, 88, 0
13, 311639, Note_on_c, 10, 76, 0
13, 311640, Note_on_c, 10, 87, 84
13, 311759, Note_on_c, 10, 87, 0
13, 311760, Note_on_c, 10, 76, 84
13, 311760, Note_on_c, 10, 88, 84
13, 311999, Note_on_c, 10, 76, 0
13, 311999, Note_on_c, 10, 88, 0
13, 312480, Note_on_c, 10, 88, 84
13, 312719, Note_on_c, 10, 88, 0
13, 312720, Note_on_c, 10, 76, 84
13, 312959, Note_on_c, 10, 76, 0
13, 312960, Note_on_c, 10, 78, 84
13, 313199, Note_on_c, 10, 78, 0
13, 313200, Note_on_c, 10, 81, 84
13, 313439, Note_on_c, 10, 81, 0
13, 313440, Note_on_c, 10, 79, 84
13, 313659, Note_on_c, 10, 79, 0
13, 313680, Note_on_c, 10, 76, 84
13, 313680, Note_on_c, 10, 67, 84
13, 313859, Note_on_c, 10, 76, 0
13, 313859, Note_on_c, 10, 67, 0
13, 313920, Note_on_c, 10, 74, 84
13, 313920, Note_on_c, 10, 57, 84
13, 313920, Note_on_c, 10, 66, 84
13, 314159, Note_on_c, 10, 74, 0
13, 314159, Note_on_c, 10, 57, 0
13, 314159, Note_on_c, 10, 66, 0
13, 315360, Note_on_c, 10, 81, 52
13, 316079, Note_on_c, 10, 81, 0
13, 316080, Note_on_c, 10, 81, 52
13, 316799, Note_on_c, 10, 81, 0
13, 316800, Note_on_c, 10, 81, 52
13, 317519, Note_on_c, 10, 81, 0
13, 317520, Note_on_c, 10, 81, 52
13, 318239, Note_on_c, 10, 81, 0
13, 318240, Note_on_c, 10, 81, 52
13, 318959, Note_on_c, 10, 81, 0
13, 318960, Note_on_c, 10, 81, 52
13, 319679, Note_on_c, 10, 81, 0
13, 319680, Note_on_c, 10, 81, 52
13, 320279, Note_on_c, 10, 81, 0
13, 320280, Note_on_c, 10, 80, 52
13, 320399, Note_on_c, 10, 80, 0
13, 320400, Note_on_c, 10, 81, 52
13, 320999, Note_on_c, 10, 81, 0
13, 321000, Note_on_c, 10, 80, 52
13, 321099, Note_on_c, 10, 80, 0
13, 321120, Note_on_c, 10, 81, 52
13, 321839, Note_on_c, 10, 81, 0
13, 321840, Note_on_c, 10, 81, 52
13, 322559, Note_on_c, 10, 81, 0
13, 322560, Note_on_c, 10, 81, 52
13, 323279, Note_on_c, 10, 81, 0
13, 323280, Note_on_c, 10, 81, 52
13, 323999, Note_on_c, 10, 81, 0
13, 324000, Note_on_c, 10, 81, 52
13, 324719, Note_on_c, 10, 81, 0
13, 324720, Note_on_c, 10, 81, 52
13, 325439, Note_on_c, 10, 81, 0
13, 325440, Note_on_c, 10, 81, 52
13, 326159, Note_on_c, 10, 81, 0
13, 326160, Note_on_c, 10, 81, 52
13, 326759, Note_on_c, 10, 81, 0
13, 326760, Note_on_c, 10, 80, 52
13, 326859, Note_on_c, 10, 80, 0
13, 326880, Note_on_c, 10, 81, 52
13, 327599, Note_on_c, 10, 81, 0
13, 327600, Note_on_c, 10, 81, 52
13, 328199, Note_on_c, 10, 81, 0
13, 328200, Note_on_c, 10, 80, 52
13, 328299, Note_on_c, 10, 80, 0
13, 328318, Control_c, 10, 11, 64
13, 328320, Note_on_c, 10, 81, 84
13, 328411, Control_c, 10, 11, 65
13, 328503, Control_c, 10, 11, 66
13, 328594, Control_c, 10, 11, 67
13, 328686, Control_c, 10, 11, 68
13, 328777, Control_c, 10, 11, 69
13, 328869, Control_c, 10, 11, 70
13, 328960, Control_c, 10, 11, 71
13, 329039, Note_on_c, 10, 81, 0
13, 329040, Note_on_c, 10, 81, 84
13, 329051, Control_c, 10, 11, 72
13, 329143, Control_c, 10, 11, 73
13, 329234, Control_c, 10, 11, 74
13, 329326, Control_c, 10, 11, 75
13, 329417, Control_c, 10, 11, 76
13, 329509, Control_c, 10, 11, 77
13, 329600, Control_c, 10, 11, 78
13, 329691, Control_c, 10, 11, 79
13, 329759, Note_on_c, 10, 81, 0
13, 329760, Note_on_c, 10, 81, 84
13, 329783, Control_c, 10, 11, 80
13, 329874, Control_c, 10, 11, 81
13, 329966, Control_c, 10, 11, 82
13, 330057, Control_c, 10, 11, 83
13, 330149, Control_c, 10, 11, 84
13, 330240, Control_c, 10, 11, 85
13, 330331, Control_c, 10, 11, 86
13, 330423, Control_c, 10, 11, 87
13, 330479, Note_on_c, 10, 81, 0
13, 330480, Note_on_c, 10, 81, 84
13, 330514, Control_c, 10, 11, 88
13, 330606, Control_c, 10, 11, 89
13, 330697, Control_c, 10, 11, 90
13, 330789, Control_c, 10, 11, 91
13, 330880, Control_c, 10, 11, 92
13, 330971, Control_c, 10, 11, 93
13, 331063, Control_c, 10, 11, 94
13, 331154, Control_c, 10, 11, 95
13, 331199, Note_on_c, 10, 81, 0
13, 331200, Note_on_c, 10, 81, 84
13, 331246, Control_c, 10, 11, 96
13, 331337, Control_c, 10, 11, 97
13, 331429, Control_c, 10, 11, 98
13, 331520, Control_c, 10, 11, 99
13, 331611, Control_c, 10, 11, 100
13, 331703, Control_c, 10, 11, 101
13, 331794, Control_c, 10, 11, 102
13, 331886, Control_c, 10, 11, 103
13, 331919, Note_on_c, 10, 81, 0
13, 331920, Note_on_c, 10, 81, 84
13, 331977, Control_c, 10, 11, 104
13, 332069, Control_c, 10, 11, 105
13, 332160, Control_c, 10, 11, 106
13, 332251, Control_c, 10, 11, 107
13, 332343, Control_c, 10, 11, 108
13, 332434, Control_c, 10, 11, 109
13, 332526, Control_c, 10, 11, 110
13, 332617, Control_c, 10, 11, 111
13, 332709, Control_c, 10, 11, 112
13, 332800, Control_c, 10, 11, 113
13, 332859, Note_on_c, 10, 81, 0
13, 332880, Note_on_c, 10, 85, 84
13, 332891, Control_c, 10, 11, 114
13, 332983, Control_c, 10, 11, 115
13, 333074, Control_c, 10, 11, 116
13, 333166, Control_c, 10, 11, 117
13, 333257, Control_c, 10, 11, 118
13, 333339, Note_on_c, 10, 85, 0
13, 333349, Control_c, 10, 11, 119
13, 333360, Note_on_c, 10, 85, 84
13, 333440, Control_c, 10, 11, 120
13, 333531, Control_c, 10, 11, 121
13, 333623, Control_c, 10, 11, 122
13, 333714, Control_c, 10, 11, 123
13, 333806, Control_c, 10, 11, 124
13, 333819, Note_on_c, 10, 85, 0
13, 333840, Note_on_c, 10, 85, 84
13, 333897, Control_c, 10, 11, 125
13, 333989, Control_c, 10, 11, 127
13, 334059, Note_on_c, 10, 85, 0
13, 334080, Note_on_c, 10, 86, 84
13, 334080, Note_on_c, 10, 74, 84
13, 334679, Note_on_c, 10, 86, 0
13, 334679, Note_on_c, 10, 74, 0
13, 334680, Note_on_c, 10, 85, 84
13, 334799, Note_on_c, 10, 85, 0
13, 334800, Note_on_c, 10, 74, 84
13, 334800, Note_on_c, 10, 86, 84
13, 335039, Note_on_c, 10, 74, 0
13, 335039, Note_on_c, 10, 86, 0
13, 335520, Note_on_c, 10, 74, 84
13, 335520, Note_on_c, 10, 86, 84
13, 336119, Note_on_c, 10, 74, 0
13, 336119, Note_on_c, 10, 86, 0
13, 336120, Note_on_c, 10, 85, 84
13, 336239, Note_on_c, 10, 85, 0
13, 336240, Note_on_c, 10, 86, 84
13, 336240, Note_on_c, 10, 74, 84
13, 336479, Note_on_c, 10, 86, 0
13, 336479, Note_on_c, 10, 74, 0
13, 336960, Note_on_c, 10, 86, 84
13, 337199, Note_on_c, 10, 86, 0
13, 337200, Note_on_c, 10, 74, 84
13, 337439, Note_on_c, 10, 74, 0
13, 337440, Note_on_c, 10, 76, 84
13, 337659, Note_on_c, 10, 76, 0
13, 337680, Note_on_c, 10, 78, 84
13, 337919, Note_on_c, 10, 78, 0
13, 337920, Note_on_c, 10, 79, 84
13, 338139, Note_on_c, 10, 79, 0
13, 338160, Note_on_c, 10, 78, 84
13, 338339, Note_on_c, 10, 78, 0
13, 338400, Note_on_c, 10, 64, 84
13, 338400, Note_on_c, 10, 69, 84
13, 338400, Note_on_c, 10, 57, 84
13, 338400, Note_on_c, 10, 76, 84
13, 338639, Note_on_c, 10, 64, 0
13, 338639, Note_on_c, 10, 69, 0
13, 338639, Note_on_c, 10, 57, 0
13, 338639, Note_on_c, 10, 76, 0
13, 339840, Note_on_c, 10, 76, 84
13, 339840, Note_on_c, 10, 88, 84
13, 340439, Note_on_c, 10, 76, 0
13, 340439, Note_on_c, 10, 88, 0
13, 340440, Note_on_c, 10, 87, 84
13, 340559, Note_on_c, 10, 87, 0
13, 340560, Note_on_c, 10, 76, 84
13, 340560, Note_on_c, 10, 88, 84
13, 340799, Note_on_c, 10, 76, 0
13, 340799, Note_on_c, 10, 88, 0
13, 341280, Note_on_c, 10, 76, 84
13, 341280, Note_on_c, 10, 88, 84
13, 341879, Note_on_c, 10, 76, 0
13, 341879, Note_on_c, 10, 88, 0
13, 341880, Note_on_c, 10, 87, 84
13, 341999, Note_on_c, 10, 87, 0
13, 342000, Note_on_c, 10, 88, 84
13, 342000, Note_on_c, 10, 76, 84
13, 342239, Note_on_c, 10, 88, 0
13, 342239, Note_on_c, 10, 76, 0
13, 342720, Note_on_c, 10, 88, 84
13, 342959, Note_on_c, 10, 88, 0
13, 342960, Note_on_c, 10, 76, 84
13, 343199, Note_on_c, 10, 76, 0
13, 343200, Note_on_c, 10, 78, 84
13, 343439, Note_on_c, 10, 78, 0
13, 343440, Note_on_c, 10, 81, 84
13, 343679, Note_on_c, 10, 81, 0
13, 343680, Note_on_c, 10, 79, 84
13, 343899, Note_on_c, 10, 79, 0
13, 343920, Note_on_c, 10, 67, 84
13, 343920, Note_on_c, 10, 76, 84
13, 344099, Note_on_c, 10, 67, 0
13, 344099, Note_on_c, 10, 76, 0
13, 344160, Note_on_c, 10, 57, 84
13, 344160, Note_on_c, 10, 74, 84
13, 344160, Note_on_c, 10, 66, 84
13, 344399, Note_on_c, 10, 57, 0
13, 344399, Note_on_c, 10, 74, 0
13, 344399, Note_on_c, 10, 66, 0
13, 345600, Note_on_c, 10, 66, 52
13, 346319, Note_on_c, 10, 66, 0
13, 346320, Note_on_c, 10, 66, 52
13, 347019, Note_on_c, 10, 66, 0
13, 347040, Note_on_c, 10, 67, 52
13, 347040, Control_c, 10, 11, 127
13, 347272, Control_c, 10, 11, 126
13, 347505, Control_c, 10, 11, 125
13, 347737, Control_c, 10, 11, 124
13, 347759, Note_on_c, 10, 67, 0
13, 347760, Note_on_c, 10, 67, 52
13, 347969, Control_c, 10, 11, 123
13, 348201, Control_c, 10, 11, 122
13, 348434, Control_c, 10, 11, 121
13, 348459, Note_on_c, 10, 67, 0
13, 348480, Note_on_c, 10, 66, 52
13, 348666, Control_c, 10, 11, 120
13, 348898, Control_c, 10, 11, 119
13, 349130, Control_c, 10, 11, 118
13, 349199, Note_on_c, 10, 66, 0
13, 349200, Note_on_c, 10, 66, 52
13, 349363, Control_c, 10, 11, 117
13, 349595, Control_c, 10, 11, 116
13, 349827, Control_c, 10, 11, 115
13, 349899, Note_on_c, 10, 66, 0
13, 349920, Note_on_c, 10, 64, 52
13, 350059, Control_c, 10, 11, 114
13, 350292, Control_c, 10, 11, 113
13, 350524, Control_c, 10, 11, 112
13, 350639, Note_on_c, 10, 64, 0
13, 350640, Note_on_c, 10, 64, 52
13, 350756, Control_c, 10, 11, 111
13, 350988, Control_c, 10, 11, 110
13, 351221, Control_c, 10, 11, 109
13, 351339, Note_on_c, 10, 64, 0
13, 351360, Note_on_c, 10, 66, 52
13, 351453, Control_c, 10, 11, 108
13, 351685, Control_c, 10, 11, 107
13, 351917, Control_c, 10, 11, 106
13, 352079, Note_on_c, 10, 66, 0
13, 352080, Note_on_c, 10, 66, 52
13, 352150, Control_c, 10, 11, 105
13, 352382, Control_c, 10, 11, 104
13, 352614, Control_c, 10, 11, 103
13, 352779, Note_on_c, 10, 66, 0
13, 352800, Note_on_c, 10, 67, 52
13, 352846, Control_c, 10, 11, 102
13, 353079, Control_c, 10, 11, 101
13, 353311, Control_c, 10, 11, 100
13, 353519, Note_on_c, 10, 67, 0
13, 353520, Note_on_c, 10, 67, 52
13, 353543, Control_c, 10, 11, 99
13, 353775, Control_c, 10, 11, 98
13, 354008, Control_c, 10, 11, 96
13, 354219, Note_on_c, 10, 67, 0
13, 354240, Note_on_c, 10, 67, 52
13, 354959, Note_on_c, 10, 67, 0
13, 354960, Note_on_c, 10, 67, 52
13, 355419, Note_on_c, 10, 67, 0
13, 355438, Control_c, 10, 11, 127
13, 355440, Note_on_c, 10, 65, 76
13, 355511, Note_on_c, 10, 65, 0
13, 355520, Note_on_c, 10, 65, 76
13, 355559, Note_on_c, 10, 65, 0
13, 355560, Note_on_c, 10, 69, 76
13, 355679, Note_on_c, 10, 69, 0
13, 355680, Note_on_c, 10, 65, 76
13, 355739, Note_on_c, 10, 65, 0
13, 355800, Note_on_c, 10, 69, 76
13, 355871, Note_on_c, 10, 69, 0
13, 355880, Note_on_c, 10, 69, 76
13, 355919, Note_on_c, 10, 69, 0
13, 355920, Note_on_c, 10, 72, 76
13, 356039, Note_on_c, 10, 72, 0
13, 356040, Note_on_c, 10, 69, 76
13, 356099, Note_on_c, 10, 69, 0
13, 356160, Note_on_c, 10, 72, 76
13, 356264, Note_on_c, 10, 72, 0
13, 356280, Note_on_c, 10, 77, 52
13, 356369, Note_on_c, 10, 77, 0
13, 356400, Note_on_c, 10, 77, 52
13, 356489, Note_on_c, 10, 77, 0
13, 356520, Note_on_c, 10, 76, 52
13, 356609, Note_on_c, 10, 76, 0
13, 356640, Note_on_c, 10, 74, 52
13, 356729, Note_on_c, 10, 74, 0
13, 356760, Note_on_c, 10, 74, 52
13, 356849, Note_on_c, 10, 74, 0
13, 356880, Note_on_c, 10, 72, 52
13, 356969, Note_on_c, 10, 72, 0
13, 357000, Note_on_c, 10, 70, 52
13, 357089, Note_on_c, 10, 70, 0
13, 357120, Note_on_c, 10, 70, 52
13, 357209, Note_on_c, 10, 70, 0
13, 357240, Note_on_c, 10, 69, 52
13, 357329, Note_on_c, 10, 69, 0
13, 357360, Note_on_c, 10, 67, 52
13, 357704, Note_on_c, 10, 67, 0
13, 357720, Note_on_c, 10, 79, 52
13, 357809, Note_on_c, 10, 79, 0
13, 357840, Note_on_c, 10, 79, 52
13, 357929, Note_on_c, 10, 79, 0
13, 357960, Note_on_c, 10, 77, 52
13, 358049, Note_on_c, 10, 77, 0
13, 358080, Note_on_c, 10, 76, 52
13, 358169, Note_on_c, 10, 76, 0
13, 358200, Note_on_c, 10, 76, 52
13, 358289, Note_on_c, 10, 76, 0
13, 358320, Note_on_c, 10, 74, 52
13, 358409, Note_on_c, 10, 74, 0
13, 358440, Note_on_c, 10, 72, 52
13, 358529, Note_on_c, 10, 72, 0
13, 358560, Note_on_c, 10, 72, 52
13, 358649, Note_on_c, 10, 72, 0
13, 358680, Note_on_c, 10, 70, 52
13, 358769, Note_on_c, 10, 70, 0
13, 358800, Note_on_c, 10, 69, 52
13, 359144, Note_on_c, 10, 69, 0
13, 359160, Note_on_c, 10, 67, 52
13, 359249, Note_on_c, 10, 67, 0
13, 359280, Note_on_c, 10, 67, 52
13, 359369, Note_on_c, 10, 67, 0
13, 359400, Note_on_c, 10, 65, 52
13, 359489, Note_on_c, 10, 65, 0
13, 359520, Note_on_c, 10, 70, 52
13, 359759, Note_on_c, 10, 70, 0
13, 359760, Note_on_c, 10, 69, 52
13, 359864, Note_on_c, 10, 69, 0
13, 359880, Note_on_c, 10, 67, 52
13, 359969, Note_on_c, 10, 67, 0
13, 360000, Note_on_c, 10, 67, 56
13, 360089, Note_on_c, 10, 67, 0
13, 360120, Note_on_c, 10, 65, 60
13, 360209, Note_on_c, 10, 65, 0
13, 360240, Note_on_c, 10, 70, 64
13, 360479, Note_on_c, 10, 70, 0
13, 360480, Note_on_c, 10, 69, 72
13, 360584, Note_on_c, 10, 69, 0
13, 360600, Note_on_c, 10, 74, 84
13, 360839, Note_on_c, 10, 74, 0
13, 360840, Note_on_c, 10, 73, 76
13, 360944, Note_on_c, 10, 73, 0
13, 360960, Note_on_c, 10, 77, 84
13, 361199, Note_on_c, 10, 77, 0
13, 361200, Note_on_c, 10, 76, 76
13, 361304, Note_on_c, 10, 76, 0
13, 361320, Note_on_c, 10, 80, 76
13, 361364, Note_on_c, 10, 80, 0
13, 361365, Note_on_c, 10, 81, 76
13, 361409, Note_on_c, 10, 81, 0
13, 361410, Note_on_c, 10, 80, 76
13, 361454, Note_on_c, 10, 80, 0
13, 361455, Note_on_c, 10, 81, 76
13, 361499, Note_on_c, 10, 81, 0
13, 361500, Note_on_c, 10, 80, 76
13, 361544, Note_on_c, 10, 80, 0
13, 361545, Note_on_c, 10, 81, 76
13, 361589, Note_on_c, 10, 81, 0
13, 361590, Note_on_c, 10, 78, 76
13, 361634, Note_on_c, 10, 78, 0
13, 361635, Note_on_c, 10, 80, 76
13, 361679, Note_on_c, 10, 80, 0
13, 361680, Note_on_c, 10, 81, 76
13, 361769, Note_on_c, 10, 81, 0
13, 361800, Note_on_c, 10, 76, 76
13, 361889, Note_on_c, 10, 76, 0
13, 361920, Note_on_c, 10, 73, 76
13, 362009, Note_on_c, 10, 73, 0
13, 362040, Note_on_c, 10, 74, 76
13, 362084, Note_on_c, 10, 74, 0
13, 362085, Note_on_c, 10, 76, 76
13, 362129, Note_on_c, 10, 76, 0
13, 362130, Note_on_c, 10, 74, 76
13, 362174, Note_on_c, 10, 74, 0
13, 362175, Note_on_c, 10, 76, 76
13, 362219, Note_on_c, 10, 76, 0
13, 362220, Note_on_c, 10, 74, 76
13, 362264, Note_on_c, 10, 74, 0
13, 362265, Note_on_c, 10, 76, 76
13, 362309, Note_on_c, 10, 76, 0
13, 362310, Note_on_c, 10, 73, 76
13, 362354, Note_on_c, 10, 73, 0
13, 362355, Note_on_c, 10, 74, 76
13, 362399, Note_on_c, 10, 74, 0
13, 362400, Note_on_c, 10, 73, 76
13, 362489, Note_on_c, 10, 73, 0
13, 362520, Note_on_c, 10, 76, 76
13, 362609, Note_on_c, 10, 76, 0
13, 362640, Note_on_c, 10, 81, 76
13, 362729, Note_on_c, 10, 81, 0
13, 362760, Note_on_c, 10, 80, 76
13, 362804, Note_on_c, 10, 80, 0
13, 362805, Note_on_c, 10, 81, 76
13, 362849, Note_on_c, 10, 81, 0
13, 362850, Note_on_c, 10, 80, 76
13, 362894, Note_on_c, 10, 80, 0
13, 362895, Note_on_c, 10, 81, 76
13, 362939, Note_on_c, 10, 81, 0
13, 362940, Note_on_c, 10, 80, 76
13, 362984, Note_on_c, 10, 80, 0
13, 362985, Note_on_c, 10, 81, 76
13, 363029, Note_on_c, 10, 81, 0
13, 363030, Note_on_c, 10, 78, 76
13, 363074, Note_on_c, 10, 78, 0
13, 363075, Note_on_c, 10, 80, 76
13, 363119, Note_on_c, 10, 80, 0
13, 363120, Note_on_c, 10, 81, 76
13, 363209, Note_on_c, 10, 81, 0
13, 363240, Note_on_c, 10, 76, 76
13, 363329, Note_on_c, 10, 76, 0
13, 363360, Note_on_c, 10, 73, 76
13, 363449, Note_on_c, 10, 73, 0
13, 363480, Note_on_c, 10, 69, 76
13, 363569, Note_on_c, 10, 69, 0
13, 363600, Note_on_c, 10, 64, 76
13, 363689, Note_on_c, 10, 64, 0
13, 363720, Note_on_c, 10, 61, 76
13, 363809, Note_on_c, 10, 61, 0
13, 363840, Note_on_c, 10, 57, 76
13, 363929, Note_on_c, 10, 57, 0
13, 365160, Note_on_c, 10, 81, 76
13, 365231, Note_on_c, 10, 81, 0
13, 365240, Note_on_c, 10, 81, 76
13, 365279, Note_on_c, 10, 81, 0
13, 365280, Note_on_c, 10, 85, 84
13, 365399, Note_on_c, 10, 85, 0
13, 365400, Note_on_c, 10, 81, 76
13, 365459, Note_on_c, 10, 81, 0
13, 368520, Note_on_c, 10, 79, 44
13, 368759, Note_on_c, 10, 79, 0
13, 368760, Note_on_c, 10, 78, 44
13, 368864, Note_on_c, 10, 78, 0
13, 368880, Note_on_c, 10, 79, 44
13, 369119, Note_on_c, 10, 79, 0
13, 369120, Note_on_c, 10, 78, 44
13, 369224, Note_on_c, 10, 78, 0
13, 369240, Note_on_c, 10, 79, 44
13, 369479, Note_on_c, 10, 79, 0
13, 369480, Note_on_c, 10, 78, 44
13, 369584, Note_on_c, 10, 78, 0
13, 369600, Note_on_c, 10, 79, 44
13, 369839, Note_on_c, 10, 79, 0
13, 369840, Note_on_c, 10, 78, 44
13, 369959, Note_on_c, 10, 78, 0
13, 370920, Note_on_c, 10, 83, 84
13, 371024, Note_on_c, 10, 83, 0
13, 371040, Note_on_c, 10, 86, 84
13, 371159, Note_on_c, 10, 86, 0
13, 371160, Note_on_c, 10, 83, 84
13, 371219, Note_on_c, 10, 83, 0
13, 374280, Note_on_c, 10, 82, 44
13, 374519, Note_on_c, 10, 82, 0
13, 374520, Note_on_c, 10, 81, 44
13, 374624, Note_on_c, 10, 81, 0
13, 374640, Note_on_c, 10, 82, 44
13, 374879, Note_on_c, 10, 82, 0
13, 374880, Note_on_c, 10, 81, 44
13, 374984, Note_on_c, 10, 81, 0
13, 375000, Note_on_c, 10, 82, 44
13, 375239, Note_on_c, 10, 82, 0
13, 375240, Note_on_c, 10, 81, 44
13, 375344, Note_on_c, 10, 81, 0
13, 375360, Note_on_c, 10, 82, 44
13, 375599, Note_on_c, 10, 82, 0
13, 375600, Note_on_c, 10, 81, 44
13, 375719, Note_on_c, 10, 81, 0
13, 376680, Note_on_c, 10, 81, 84
13, 376784, Note_on_c, 10, 81, 0
13, 376800, Note_on_c, 10, 84, 84
13, 376919, Note_on_c, 10, 84, 0
13, 376920, Note_on_c, 10, 81, 84
13, 376979, Note_on_c, 10, 81, 0
13, 377040, Note_on_c, 10, 74, 52
13, 377144, Note_on_c, 10, 74, 0
13, 377160, Note_on_c, 10, 75, 52
13, 377249, Note_on_c, 10, 75, 0
13, 377280, Note_on_c, 10, 75, 52
13, 377369, Note_on_c, 10, 75, 0
13, 377400, Note_on_c, 10, 74, 52
13, 377489, Note_on_c, 10, 74, 0
13, 377520, Note_on_c, 10, 79, 52
13, 377759, Note_on_c, 10, 79, 0
13, 377760, Note_on_c, 10, 77, 52
13, 377864, Note_on_c, 10, 77, 0
13, 377880, Note_on_c, 10, 75, 52
13, 377969, Note_on_c, 10, 75, 0
13, 378000, Note_on_c, 10, 75, 52
13, 378089, Note_on_c, 10, 75, 0
13, 378120, Note_on_c, 10, 74, 52
13, 378209, Note_on_c, 10, 74, 0
13, 378240, Note_on_c, 10, 79, 52
13, 378479, Note_on_c, 10, 79, 0
13, 378480, Note_on_c, 10, 77, 52
13, 378584, Note_on_c, 10, 77, 0
13, 378600, Note_on_c, 10, 77, 52
13, 378719, Note_on_c, 10, 77, 0
13, 378840, Program_c, 10, 45
13, 378960, Note_on_c, 10, 70, 44
13, 378960, Note_on_c, 10, 62, 44
13, 379079, Note_on_c, 10, 70, 0
13, 379079, Note_on_c, 10, 62, 0
13, 379320, Note_on_c, 10, 70, 44
13, 379320, Note_on_c, 10, 62, 44
13, 379439, Note_on_c, 10, 70, 0
13, 379439, Note_on_c, 10, 62, 0
13, 379680, Note_on_c, 10, 62, 44
13, 379680, Note_on_c, 10, 70, 44
13, 379799, Note_on_c, 10, 62, 0
13, 379799, Note_on_c, 10, 70, 0
13, 380040, Note_on_c, 10, 72, 44
13, 380040, Note_on_c, 10, 65, 44
13, 380159, Note_on_c, 10, 72, 0
13, 380159, Note_on_c, 10, 65, 0
13, 380400, Note_on_c, 10, 72, 44
13, 380400, Note_on_c, 10, 65, 44
13, 380519, Note_on_c, 10, 72, 0
13, 380519, Note_on_c, 10, 65, 0
13, 380760, Note_on_c, 10, 72, 44
13, 380760, Note_on_c, 10, 65, 44
13, 380879, Note_on_c, 10, 72, 0
13, 380879, Note_on_c, 10, 65, 0
13, 381120, Note_on_c, 10, 65, 44
13, 381120, Note_on_c, 10, 72, 44
13, 381239, Note_on_c, 10, 65, 0
13, 381239, Note_on_c, 10, 72, 0
13, 381480, Note_on_c, 10, 65, 44
13, 381480, Note_on_c, 10, 74, 44
13, 381599, Note_on_c, 10, 65, 0
13, 381599, Note_on_c, 10, 74, 0
13, 381720, Program_c, 10, 48
13, 381840, Note_on_c, 10, 65, 52
13, 381929, Note_on_c, 10, 65, 0
13, 381960, Note_on_c, 10, 70, 52
13, 382049, Note_on_c, 10, 70, 0
13, 382080, Note_on_c, 10, 70, 53
13, 382169, Note_on_c, 10, 70, 0
13, 382200, Note_on_c, 10, 65, 53
13, 382289, Note_on_c, 10, 65, 0
13, 382320, Note_on_c, 10, 70, 54
13, 382409, Note_on_c, 10, 70, 0
13, 382440, Note_on_c, 10, 70, 54
13, 382529, Note_on_c, 10, 70, 0
13, 382560, Note_on_c, 10, 65, 55
13, 382649, Note_on_c, 10, 65, 0
13, 382680, Note_on_c, 10, 70, 55
13, 382769, Note_on_c, 10, 70, 0
13, 382800, Note_on_c, 10, 70, 56
13, 382889, Note_on_c, 10, 70, 0
13, 382920, Note_on_c, 10, 72, 56
13, 383009, Note_on_c, 10, 72, 0
13, 383040, Note_on_c, 10, 72, 57
13, 383129, Note_on_c, 10, 72, 0
13, 383160, Note_on_c, 10, 72, 58
13, 383249, Note_on_c, 10, 72, 0
13, 383280, Note_on_c, 10, 69, 58
13, 383369, Note_on_c, 10, 69, 0
13, 383400, Note_on_c, 10, 69, 59
13, 383489, Note_on_c, 10, 69, 0
13, 383520, Note_on_c, 10, 72, 59
13, 383609, Note_on_c, 10, 72, 0
13, 383640, Note_on_c, 10, 69, 60
13, 383729, Note_on_c, 10, 69, 0
13, 383760, Note_on_c, 10, 69, 60
13, 383849, Note_on_c, 10, 69, 0
13, 383880, Note_on_c, 10, 72, 61
13, 383969, Note_on_c, 10, 72, 0
13, 384000, Note_on_c, 10, 69, 61
13, 384089, Note_on_c, 10, 69, 0
13, 384120, Note_on_c, 10, 69, 62
13, 384209, Note_on_c, 10, 69, 0
13, 384240, Note_on_c, 10, 72, 62
13, 384329, Note_on_c, 10, 72, 0
13, 384360, Note_on_c, 10, 70, 63
13, 384449, Note_on_c, 10, 70, 0
13, 384480, Note_on_c, 10, 70, 64
13, 384569, Note_on_c, 10, 70, 0
13, 384600, Note_on_c, 10, 74, 64
13, 384689, Note_on_c, 10, 74, 0
13, 386160, Note_on_c, 10, 67, 71
13, 386249, Note_on_c, 10, 67, 0
13, 386280, Note_on_c, 10, 67, 72
13, 386369, Note_on_c, 10, 67, 0
13, 386400, Note_on_c, 10, 69, 72
13, 386489, Note_on_c, 10, 69, 0
13, 386520, Note_on_c, 10, 70, 73
13, 386609, Note_on_c, 10, 70, 0
13, 386640, Note_on_c, 10, 70, 73
13, 386729, Note_on_c, 10, 70, 0
13, 386760, Note_on_c, 10, 72, 74
13, 386849, Note_on_c, 10, 72, 0
13, 386880, Note_on_c, 10, 74, 74
13, 386969, Note_on_c, 10, 74, 0
13, 387000, Note_on_c, 10, 76, 75
13, 387089, Note_on_c, 10, 76, 0
13, 387120, Note_on_c, 10, 77, 76
13, 387179, Note_on_c, 10, 77, 0
13, 387200, Note_on_c, 10, 77, 76
13, 387239, Note_on_c, 10, 77, 0
13, 387240, Note_on_c, 10, 81, 76
13, 387359, Note_on_c, 10, 81, 0
13, 387360, Note_on_c, 10, 77, 76
13, 387419, Note_on_c, 10, 77, 0
13, 387480, Note_on_c, 10, 81, 76
13, 387539, Note_on_c, 10, 81, 0
13, 387560, Note_on_c, 10, 81, 76
13, 387599, Note_on_c, 10, 81, 0
13, 387600, Note_on_c, 10, 84, 76
13, 387719, Note_on_c, 10, 84, 0
13, 387720, Note_on_c, 10, 81, 76
13, 387779, Note_on_c, 10, 81, 0
13, 387840, Note_on_c, 10, 84, 76
13, 387944, Note_on_c, 10, 84, 0
13, 387960, Note_on_c, 10, 89, 84
13, 388049, Note_on_c, 10, 89, 0
13, 388080, Note_on_c, 10, 89, 84
13, 388169, Note_on_c, 10, 89, 0
13, 388200, Note_on_c, 10, 88, 84
13, 388289, Note_on_c, 10, 88, 0
13, 388320, Note_on_c, 10, 86, 84
13, 388409, Note_on_c, 10, 86, 0
13, 388440, Note_on_c, 10, 86, 84
13, 388529, Note_on_c, 10, 86, 0
13, 388560, Note_on_c, 10, 84, 84
13, 388649, Note_on_c, 10, 84, 0
13, 388680, Note_on_c, 10, 82, 84
13, 388769, Note_on_c, 10, 82, 0
13, 388800, Note_on_c, 10, 82, 84
13, 388889, Note_on_c, 10, 82, 0
13, 388920, Note_on_c, 10, 81, 84
13, 389009, Note_on_c, 10, 81, 0
13, 389040, Note_on_c, 10, 79, 84
13, 389384, Note_on_c, 10, 79, 0
13, 389400, Note_on_c, 10, 91, 84
13, 389489, Note_on_c, 10, 91, 0
13, 389520, Note_on_c, 10, 91, 84
13, 389609, Note_on_c, 10, 91, 0
13, 389640, Note_on_c, 10, 89, 84
13, 389729, Note_on_c, 10, 89, 0
13, 389760, Note_on_c, 10, 88, 84
13, 389849, Note_on_c, 10, 88, 0
13, 389880, Note_on_c, 10, 88, 84
13, 389969, Note_on_c, 10, 88, 0
13, 390000, Note_on_c, 10, 86, 84
13, 390089, Note_on_c, 10, 86, 0
13, 390120, Note_on_c, 10, 84, 84
13, 390209, Note_on_c, 10, 84, 0
13, 390240, Note_on_c, 10, 84, 84
13, 390329, Note_on_c, 10, 84, 0
13, 390360, Note_on_c, 10, 82, 84
13, 390449, Note_on_c, 10, 82, 0
13, 390480, Note_on_c, 10, 81, 84
13, 390824, Note_on_c, 10, 81, 0
13, 390840, Note_on_c, 10, 77, 52
13, 391199, Note_on_c, 10, 77, 0
13, 391200, Note_on_c, 10, 77, 52
13, 391559, Note_on_c, 10, 77, 0
13, 391560, Note_on_c, 10, 77, 52
13, 392039, Note_on_c, 10, 77, 0
13, 392040, Note_on_c, 10, 79, 52
13, 392144, Note_on_c, 10, 79, 0
13, 392160, Note_on_c, 10, 79, 52
13, 392249, Note_on_c, 10, 79, 0
13, 392280, Note_on_c, 10, 79, 52
13, 392639, Note_on_c, 10, 79, 0
13, 392640, Note_on_c, 10, 79, 52
13, 392999, Note_on_c, 10, 79, 0
13, 393000, Note_on_c, 10, 79, 52
13, 393479, Note_on_c, 10, 79, 0
13, 393480, Note_on_c, 10, 81, 52
13, 393584, Note_on_c, 10, 81, 0
13, 393600, Note_on_c, 10, 81, 52
13, 393689, Note_on_c, 10, 81, 0
13, 393720, Note_on_c, 10, 67, 52
13, 393809, Note_on_c, 10, 67, 0
13, 393840, Note_on_c, 10, 67, 52
13, 393929, Note_on_c, 10, 67, 0
13, 393960, Note_on_c, 10, 65, 52
13, 394049, Note_on_c, 10, 65, 0
13, 394080, Note_on_c, 10, 70, 52
13, 394319, Note_on_c, 10, 70, 0
13, 394320, Note_on_c, 10, 69, 52
13, 394439, Note_on_c, 10, 69, 0
13, 395040, Control_c, 10, 11, 80
13, 395160, Note_on_c, 10, 67, 76
13, 395200, Control_c, 10, 11, 83
13, 395240, Control_c, 10, 11, 85
13, 395249, Note_on_c, 10, 67, 0
13, 395280, Note_on_c, 10, 67, 76
13, 395280, Control_c, 10, 11, 88
13, 395320, Control_c, 10, 11, 90
13, 395360, Control_c, 10, 11, 93
13, 395369, Note_on_c, 10, 67, 0
13, 395400, Note_on_c, 10, 65, 76
13, 395400, Control_c, 10, 11, 96
13, 395440, Control_c, 10, 11, 98
13, 395480, Control_c, 10, 11, 101
13, 395489, Note_on_c, 10, 65, 0
13, 395520, Control_c, 10, 11, 104
13, 395520, Note_on_c, 10, 70, 76
13, 395560, Control_c, 10, 11, 106
13, 395600, Control_c, 10, 11, 109
13, 395640, Control_c, 10, 11, 111
13, 395680, Control_c, 10, 11, 114
13, 395720, Control_c, 10, 11, 117
13, 395759, Note_on_c, 10, 70, 0
13, 395760, Control_c, 10, 11, 119
13, 395760, Note_on_c, 10, 69, 76
13, 395800, Control_c, 10, 11, 122
13, 395840, Control_c, 10, 11, 127
13, 395864, Note_on_c, 10, 69, 0
13, 395880, Note_on_c, 10, 74, 76
13, 396119, Note_on_c, 10, 74, 0
13, 396120, Note_on_c, 10, 72, 76
13, 396224, Note_on_c, 10, 72, 0
13, 396240, Note_on_c, 10, 77, 84
13, 396479, Note_on_c, 10, 77, 0
13, 396480, Note_on_c, 10, 76, 76
13, 396584, Note_on_c, 10, 76, 0
13, 396600, Note_on_c, 10, 81, 84
13, 396839, Note_on_c, 10, 81, 0
13, 396840, Note_on_c, 10, 79, 76
13, 396944, Note_on_c, 10, 79, 0
13, 396960, Note_on_c, 10, 83, 84
13, 397199, Note_on_c, 10, 83, 0
13, 397200, Note_on_c, 10, 84, 76
13, 397304, Note_on_c, 10, 84, 0
13, 397320, Note_on_c, 10, 83, 52
13, 397364, Note_on_c, 10, 83, 0
13, 397365, Note_on_c, 10, 84, 52
13, 397409, Note_on_c, 10, 84, 0
13, 397410, Note_on_c, 10, 83, 52
13, 397454, Note_on_c, 10, 83, 0
13, 397455, Note_on_c, 10, 84, 52
13, 397499, Note_on_c, 10, 84, 0
13, 397500, Note_on_c, 10, 83, 52
13, 397544, Note_on_c, 10, 83, 0
13, 397545, Note_on_c, 10, 84, 52
13, 397589, Note_on_c, 10, 84, 0
13, 397590, Note_on_c, 10, 81, 52
13, 397634, Note_on_c, 10, 81, 0
13, 397635, Note_on_c, 10, 83, 52
13, 397679, Note_on_c, 10, 83, 0
13, 397680, Note_on_c, 10, 84, 52
13, 397769, Note_on_c, 10, 84, 0
13, 397800, Note_on_c, 10, 79, 52
13, 397889, Note_on_c, 10, 79, 0
13, 397920, Note_on_c, 10, 76, 52
13, 398009, Note_on_c, 10, 76, 0
13, 398040, Note_on_c, 10, 77, 52
13, 398084, Note_on_c, 10, 77, 0
13, 398085, Note_on_c, 10, 79, 52
13, 398129, Note_on_c, 10, 79, 0
13, 398130, Note_on_c, 10, 77, 52
13, 398174, Note_on_c, 10, 77, 0
13, 398175, Note_on_c, 10, 79, 52
13, 398219, Note_on_c, 10, 79, 0
13, 398220, Note_on_c, 10, 77, 52
13, 398264, Note_on_c, 10, 77, 0
13, 398265, Note_on_c, 10, 79, 52
13, 398309, Note_on_c, 10, 79, 0
13, 398310, Note_on_c, 10, 76, 52
13, 398354, Note_on_c, 10, 76, 0
13, 398355, Note_on_c, 10, 77, 52
13, 398399, Note_on_c, 10, 77, 0
13, 398400, Note_on_c, 10, 76, 52
13, 398489, Note_on_c, 10, 76, 0
13, 398520, Note_on_c, 10, 79, 52
13, 398609, Note_on_c, 10, 79, 0
13, 398640, Note_on_c, 10, 84, 52
13, 398729, Note_on_c, 10, 84, 0
13, 398760, Note_on_c, 10, 83, 52
13, 398804, Note_on_c, 10, 83, 0
13, 398805, Note_on_c, 10, 84, 53
13, 398849, Note_on_c, 10, 84, 0
13, 398850, Note_on_c, 10, 83, 54
13, 398894, Note_on_c, 10, 83, 0
13, 398895, Note_on_c, 10, 84, 55
13, 398939, Note_on_c, 10, 84, 0
13, 398940, Note_on_c, 10, 83, 56
13, 398984, Note_on_c, 10, 83, 0
13, 398985, Note_on_c, 10, 84, 57
13, 399029, Note_on_c, 10, 84, 0
13, 399030, Note_on_c, 10, 81, 58
13, 399074, Note_on_c, 10, 81, 0
13, 399075, Note_on_c, 10, 83, 59
13, 399119, Note_on_c, 10, 83, 0
13, 399120, Note_on_c, 10, 84, 60
13, 399209, Note_on_c, 10, 84, 0
13, 399240, Note_on_c, 10, 79, 62
13, 399329, Note_on_c, 10, 79, 0
13, 399360, Note_on_c, 10, 76, 65
13, 399449, Note_on_c, 10, 76, 0
13, 399480, Note_on_c, 10, 83, 68
13, 399524, Note_on_c, 10, 83, 0
13, 399525, Note_on_c, 10, 84, 69
13, 399569, Note_on_c, 10, 84, 0
13, 399570, Note_on_c, 10, 83, 70
13, 399614, Note_on_c, 10, 83, 0
13, 399615, Note_on_c, 10, 84, 71
13, 399659, Note_on_c, 10, 84, 0
13, 399660, Note_on_c, 10, 83, 72
13, 399704, Note_on_c, 10, 83, 0
13, 399705, Note_on_c, 10, 84, 73
13, 399749, Note_on_c, 10, 84, 0
13, 399750, Note_on_c, 10, 81, 74
13, 399794, Note_on_c, 10, 81, 0
13, 399795, Note_on_c, 10, 83, 75
13, 399839, Note_on_c, 10, 83, 0
13, 399840, Note_on_c, 10, 84, 76
13, 399929, Note_on_c, 10, 84, 0
13, 399960, Note_on_c, 10, 79, 78
13, 400049, Note_on_c, 10, 79, 0
13, 400080, Note_on_c, 10, 76, 81
13, 400169, Note_on_c, 10, 76, 0
13, 400200, Note_on_c, 10, 76, 84
13, 400244, Note_on_c, 10, 76, 0
13, 400245, Note_on_c, 10, 77, 84
13, 400289, Note_on_c, 10, 77, 0
13, 400290, Note_on_c, 10, 76, 84
13, 400334, Note_on_c, 10, 76, 0
13, 400335, Note_on_c, 10, 77, 84
13, 400379, Note_on_c, 10, 77, 0
13, 400380, Note_on_c, 10, 76, 84
13, 400424, Note_on_c, 10, 76, 0
13, 400425, Note_on_c, 10, 77, 84
13, 400469, Note_on_c, 10, 77, 0
13, 400470, Note_on_c, 10, 74, 84
13, 400514, Note_on_c, 10, 74, 0
13, 400515, Note_on_c, 10, 76, 84
13, 400559, Note_on_c, 10, 76, 0
13, 400560, Note_on_c, 10, 77, 84
13, 400649, Note_on_c, 10, 77, 0
13, 400680, Note_on_c, 10, 72, 84
13, 400769, Note_on_c, 10, 72, 0
13, 400800, Note_on_c, 10, 69, 84
13, 400889, Note_on_c, 10, 69, 0
13, 400920, Note_on_c, 10, 70, 84
13, 400964, Note_on_c, 10, 70, 0
13, 400965, Note_on_c, 10, 72, 84
13, 401009, Note_on_c, 10, 72, 0
13, 401010, Note_on_c, 10, 70, 84
13, 401054, Note_on_c, 10, 70, 0
13, 401055, Note_on_c, 10, 72, 84
13, 401099, Note_on_c, 10, 72, 0
13, 401100, Note_on_c, 10, 70, 84
13, 401144, Note_on_c, 10, 70, 0
13, 401145, Note_on_c, 10, 72, 84
13, 401189, Note_on_c, 10, 72, 0
13, 401190, Note_on_c, 10, 69, 84
13, 401234, Note_on_c, 10, 69, 0
13, 401235, Note_on_c, 10, 70, 84
13, 401279, Note_on_c, 10, 70, 0
13, 401280, Note_on_c, 10, 69, 84
13, 401369, Note_on_c, 10, 69, 0
13, 401400, Note_on_c, 10, 72, 84
13, 401489, Note_on_c, 10, 72, 0
13, 401520, Note_on_c, 10, 77, 84
13, 401609, Note_on_c, 10, 77, 0
13, 401640, Note_on_c, 10, 76, 84
13, 401684, Note_on_c, 10, 76, 0
13, 401685, Note_on_c, 10, 77, 84
13, 401729, Note_on_c, 10, 77, 0
13, 401730, Note_on_c, 10, 76, 84
13, 401774, Note_on_c, 10, 76, 0
13, 401775, Note_on_c, 10, 77, 84
13, 401819, Note_on_c, 10, 77, 0
13, 401820, Note_on_c, 10, 76, 84
13, 401864, Note_on_c, 10, 76, 0
13, 401865, Note_on_c, 10, 77, 84
13, 401909, Note_on_c, 10, 77, 0
13, 401910, Note_on_c, 10, 74, 84
13, 401954, Note_on_c, 10, 74, 0
13, 401955, Note_on_c, 10, 76, 84
13, 401999, Note_on_c, 10, 76, 0
13, 402000, Note_on_c, 10, 77, 84
13, 402089, Note_on_c, 10, 77, 0
13, 402120, Note_on_c, 10, 72, 84
13, 402209, Note_on_c, 10, 72, 0
13, 402240, Note_on_c, 10, 69, 84
13, 402329, Note_on_c, 10, 69, 0
13, 402360, Note_on_c, 10, 76, 84
13, 402404, Note_on_c, 10, 76, 0
13, 402405, Note_on_c, 10, 77, 84
13, 402449, Note_on_c, 10, 77, 0
13, 402450, Note_on_c, 10, 76, 84
13, 402494, Note_on_c, 10, 76, 0
13, 402495, Note_on_c, 10, 77, 84
13, 402539, Note_on_c, 10, 77, 0
13, 402540, Note_on_c, 10, 76, 84
13, 402584, Note_on_c, 10, 76, 0
13, 402585, Note_on_c, 10, 77, 84
13, 402629, Note_on_c, 10, 77, 0
13, 402630, Note_on_c, 10, 74, 84
13, 402674, Note_on_c, 10, 74, 0
13, 402675, Note_on_c, 10, 76, 84
13, 402719, Note_on_c, 10, 76, 0
13, 402720, Note_on_c, 10, 77, 84
13, 402809, Note_on_c, 10, 77, 0
13, 402840, Note_on_c, 10, 72, 84
13, 402929, Note_on_c, 10, 72, 0
13, 402960, Note_on_c, 10, 69, 84
13, 403049, Note_on_c, 10, 69, 0
13, 403080, Note_on_c, 10, 76, 84
13, 403124, Note_on_c, 10, 76, 0
13, 403125, Note_on_c, 10, 77, 84
13, 403169, Note_on_c, 10, 77, 0
13, 403170, Note_on_c, 10, 76, 84
13, 403214, Note_on_c, 10, 76, 0
13, 403215, Note_on_c, 10, 77, 84
13, 403259, Note_on_c, 10, 77, 0
13, 403260, Note_on_c, 10, 76, 84
13, 403304, Note_on_c, 10, 76, 0
13, 403305, Note_on_c, 10, 77, 84
13, 403349, Note_on_c, 10, 77, 0
13, 403350, Note_on_c, 10, 74, 84
13, 403394, Note_on_c, 10, 74, 0
13, 403395, Note_on_c, 10, 76, 84
13, 403439, Note_on_c, 10, 76, 0
13, 403440, Note_on_c, 10, 77, 84
13, 403529, Note_on_c, 10, 77, 0
13, 403560, Note_on_c, 10, 72, 84
13, 403649, Note_on_c, 10, 72, 0
13, 403680, Note_on_c, 10, 69, 84
13, 403769, Note_on_c, 10, 69, 0
13, 403800, Note_on_c, 10, 65, 84
13, 403889, Note_on_c, 10, 65, 0
13, 403920, Note_on_c, 10, 60, 84
13, 404009, Note_on_c, 10, 60, 0
13, 404040, Note_on_c, 10, 57, 84
13, 404129, Note_on_c, 10, 57, 0
13, 404160, Note_on_c, 10, 65, 84
13, 404160, Note_on_c, 10, 57, 84
13, 404279, Note_on_c, 10, 65, 0
13, 404279, Note_on_c, 10, 57, 0
13, 405480, Note_on_c, 10, 77, 84
13, 405551, Note_on_c, 10, 77, 0
13, 405560, Note_on_c, 10, 77, 84
13, 405599, Note_on_c, 10, 77, 0
13, 405600, Note_on_c, 10, 81, 92
13, 405719, Note_on_c, 10, 81, 0
13, 405720, Note_on_c, 10, 77, 84
13, 405779, Note_on_c, 10, 77, 0
13, 405840, Note_on_c, 10, 77, 84
13, 405911, Note_on_c, 10, 77, 0
13, 405920, Note_on_c, 10, 77, 84
13, 405959, Note_on_c, 10, 77, 0
13, 405960, Note_on_c, 10, 81, 92
13, 406079, Note_on_c, 10, 81, 0
13, 406080, Note_on_c, 10, 77, 84
13, 406139, Note_on_c, 10, 77, 0
13, 406200, Note_on_c, 10, 77, 84
13, 406271, Note_on_c, 10, 77, 0
13, 406280, Note_on_c, 10, 77, 84
13, 406319, Note_on_c, 10, 77, 0
13, 406320, Note_on_c, 10, 81, 92
13, 406439, Note_on_c, 10, 81, 0
13, 406440, Note_on_c, 10, 77, 84
13, 406544, Note_on_c, 10, 77, 0
13, 406560, Note_on_c, 10, 77, 84
13, 406631, Note_on_c, 10, 77, 0
13, 406640, Note_on_c, 10, 77, 84
13, 406679, Note_on_c, 10, 77, 0
13, 406680, Note_on_c, 10, 81, 92
13, 406799, Note_on_c, 10, 81, 0
13, 406800, Note_on_c, 10, 77, 84
13, 406904, Note_on_c, 10, 77, 0
13, 406920, Note_on_c, 10, 77, 84
13, 406991, Note_on_c, 10, 77, 0
13, 407000, Note_on_c, 10, 77, 84
13, 407039, Note_on_c, 10, 77, 0
13, 407040, Note_on_c, 10, 81, 92
13, 407159, Note_on_c, 10, 81, 0
13, 407160, Note_on_c, 10, 77, 84
13, 407264, Note_on_c, 10, 77, 0
13, 407280, Note_on_c, 10, 77, 84
13, 407369, Note_on_c, 10, 77, 0
13, 407400, Note_on_c, 10, 81, 84
13, 407400, Control_c, 10, 11, 127
13, 407440, Control_c, 10, 11, 125
13, 407480, Control_c, 10, 11, 124
13, 407520, Control_c, 10, 11, 122
13, 407560, Control_c, 10, 11, 120
13, 407600, Control_c, 10, 11, 118
13, 407640, Control_c, 10, 11, 117
13, 407680, Control_c, 10, 11, 115
13, 407720, Control_c, 10, 11, 113
13, 407759, Note_on_c, 10, 81, 0
13, 407760, Note_on_c, 10, 81, 84
13, 407760, Control_c, 10, 11, 111
13, 407800, Control_c, 10, 11, 110
13, 407840, Control_c, 10, 11, 108
13, 407880, Control_c, 10, 11, 106
13, 407920, Control_c, 10, 11, 104
13, 407960, Control_c, 10, 11, 103
13, 408000, Control_c, 10, 11, 101
13, 408040, Control_c, 10, 11, 99
13, 408080, Control_c, 10, 11, 97
13, 408119, Note_on_c, 10, 81, 0
13, 408120, Note_on_c, 10, 81, 84
13, 408120, Control_c, 10, 11, 96
13, 408160, Control_c, 10, 11, 94
13, 408200, Control_c, 10, 11, 92
13, 408240, Control_c, 10, 11, 90
13, 408280, Control_c, 10, 11, 89
13, 408320, Control_c, 10, 11, 87
13, 408360, Control_c, 10, 11, 85
13, 408400, Control_c, 10, 11, 83
13, 408440, Control_c, 10, 11, 82
13, 408479, Note_on_c, 10, 81, 0
13, 408480, Note_on_c, 10, 81, 84
13, 408480, Control_c, 10, 11, 80
13, 408520, Control_c, 10, 11, 78
13, 408560, Control_c, 10, 11, 76
13, 408600, Control_c, 10, 11, 75
13, 408640, Control_c, 10, 11, 73
13, 408680, Control_c, 10, 11, 71
13, 408720, Control_c, 10, 11, 69
13, 408760, Control_c, 10, 11, 68
13, 408835, Note_on_c, 10, 81, 0
13, 408838, Control_c, 10, 11, 64
13, 408840, Note_on_c, 10, 81, 84
13, 409559, Note_on_c, 10, 81, 0
13, 409560, Note_on_c, 10, 81, 84
13, 410279, Note_on_c, 10, 81, 0
13, 410280, Note_on_c, 10, 81, 84
13, 410999, Note_on_c, 10, 81, 0
13, 411000, Note_on_c, 10, 81, 84
13, 411699, Note_on_c, 10, 81, 0
13, 411718, Control_c, 10, 11, 127
13, 411720, Note_on_c, 10, 82, 84
13, 411839, Note_on_c, 10, 82, 0
13, 412080, Note_on_c, 10, 83, 84
13, 412199, Note_on_c, 10, 83, 0
13, 412440, Note_on_c, 10, 84, 84
13, 412559, Note_on_c, 10, 84, 0
13, 412800, Note_on_c, 10, 76, 84
13, 412800, Note_on_c, 10, 70, 84
13, 412800, Note_on_c, 10, 67, 84
13, 412919, Note_on_c, 10, 76, 0
13, 412919, Note_on_c, 10, 70, 0
13, 412919, Note_on_c, 10, 67, 0
13, 413160, Note_on_c, 10, 77, 84
13, 413160, Note_on_c, 10, 69, 84
13, 413160, Note_on_c, 10, 65, 84
13, 413279, Note_on_c, 10, 77, 0
13, 413279, Note_on_c, 10, 69, 0
13, 413279, Note_on_c, 10, 65, 0
13, 413279, End_track
14, 0, Start_track
14, 0, Title_t, "Violin II"
14, 0, MIDI_port, 0
14, 0, Program_c, 11, 48
14, 0, Control_c, 11, 7, 96
14, 0, Control_c, 11, 10, 24
14, 0, Control_c, 11, 11, 127
14, 0, Note_on_c, 11, 65, 76
14, 71, Note_on_c, 11, 65, 0
14, 80, Note_on_c, 11, 65, 76
14, 119, Note_on_c, 11, 65, 0
14, 120, Note_on_c, 11, 69, 76
14, 239, Note_on_c, 11, 69, 0
14, 240, Note_on_c, 11, 65, 76
14, 299, Note_on_c, 11, 65, 0
14, 360, Note_on_c, 11, 65, 76
14, 431, Note_on_c, 11, 65, 0
14, 440, Note_on_c, 11, 65, 76
14, 479, Note_on_c, 11, 65, 0
14, 480, Note_on_c, 11, 69, 76
14, 599, Note_on_c, 11, 69, 0
14, 600, Note_on_c, 11, 65, 76
14, 659, Note_on_c, 11, 65, 0
14, 720, Note_on_c, 11, 69, 76
14, 824, Note_on_c, 11, 69, 0
14, 840, Note_on_c, 11, 69, 52
14, 929, Note_on_c, 11, 69, 0
14, 960, Note_on_c, 11, 69, 52
14, 1049, Note_on_c, 11, 69, 0
14, 1080, Note_on_c, 11, 72, 52
14, 1169, Note_on_c, 11, 72, 0
14, 1200, Note_on_c, 11, 70, 52
14, 1289, Note_on_c, 11, 70, 0
14, 1320, Note_on_c, 11, 70, 52
14, 1409, Note_on_c, 11, 70, 0
14, 1440, Note_on_c, 11, 69, 52
14, 1529, Note_on_c, 11, 69, 0
14, 1560, Note_on_c, 11, 67, 52
14, 1649, Note_on_c, 11, 67, 0
14, 1680, Note_on_c, 11, 67, 52
14, 1769, Note_on_c, 11, 67, 0
14, 1800, Note_on_c, 11, 65, 52
14, 1889, Note_on_c, 11, 65, 0
14, 1920, Note_on_c, 11, 64, 52
14, 2264, Note_on_c, 11, 64, 0
14, 2280, Note_on_c, 11, 76, 52
14, 2369, Note_on_c, 11, 76, 0
14, 2400, Note_on_c, 11, 76, 52
14, 2489, Note_on_c, 11, 76, 0
14, 2520, Note_on_c, 11, 74, 52
14, 2609, Note_on_c, 11, 74, 0
14, 2640, Note_on_c, 11, 72, 52
14, 2729, Note_on_c, 11, 72, 0
14, 2760, Note_on_c, 11, 72, 52
14, 2849, Note_on_c, 11, 72, 0
14, 2880, Note_on_c, 11, 70, 52
14, 2969, Note_on_c, 11, 70, 0
14, 3000, Note_on_c, 11, 69, 52
14, 3089, Note_on_c, 11, 69, 0
14, 3120, Note_on_c, 11, 69, 52
14, 3209, Note_on_c, 11, 69, 0
14, 3240, Note_on_c, 11, 67, 52
14, 3329, Note_on_c, 11, 67, 0
14, 3360, Note_on_c, 11, 65, 52
14, 3704, Note_on_c, 11, 65, 0
14, 3720, Note_on_c, 11, 64, 52
14, 3809, Note_on_c, 11, 64, 0
14, 3840, Note_on_c, 11, 64, 52
14, 3929, Note_on_c, 11, 64, 0
14, 3960, Note_on_c, 11, 65, 52
14, 4049, Note_on_c, 11, 65, 0
14, 4080, Note_on_c, 11, 64, 52
14, 4319, Note_on_c, 11, 64, 0
14, 4320, Note_on_c, 11, 65, 52
14, 4424, Note_on_c, 11, 65, 0
14, 4440, Note_on_c, 11, 64, 52
14, 4529, Note_on_c, 11, 64, 0
14, 4560, Note_on_c, 11, 64, 56
14, 4649, Note_on_c, 11, 64, 0
14, 4680, Note_on_c, 11, 65, 60
14, 4769, Note_on_c, 11, 65, 0
14, 4800, Note_on_c, 11, 64, 64
14, 5039, Note_on_c, 11, 64, 0
14, 5040, Note_on_c, 11, 65, 72
14, 5144, Note_on_c, 11, 65, 0
14, 5160, Note_on_c, 11, 68, 84
14, 5399, Note_on_c, 11, 68, 0
14, 5400, Note_on_c, 11, 69, 76
14, 5504, Note_on_c, 11, 69, 0
14, 5520, Note_on_c, 11, 59, 84
14, 5759, Note_on_c, 11, 59, 0
14, 5760, Note_on_c, 11, 61, 76
14, 5864, Note_on_c, 11, 61, 0
14, 5880, Note_on_c, 11, 68, 76
14, 5984, Note_on_c, 11, 68, 0
14, 6000, Note_on_c, 11, 71, 76
14, 6104, Note_on_c, 11, 71, 0
14, 6120, Note_on_c, 11, 71, 76
14, 6224, Note_on_c, 11, 71, 0
14, 6240, Note_on_c, 11, 69, 76
14, 6344, Note_on_c, 11, 69, 0
14, 6360, Note_on_c, 11, 73, 76
14, 6464, Note_on_c, 11, 73, 0
14, 6480, Note_on_c, 11, 73, 76
14, 6584, Note_on_c, 11, 73, 0
14, 6600, Note_on_c, 11, 71, 76
14, 6704, Note_on_c, 11, 71, 0
14, 6720, Note_on_c, 11, 64, 76
14, 6824, Note_on_c, 11, 64, 0
14, 6840, Note_on_c, 11, 71, 76
14, 6944, Note_on_c, 11, 71, 0
14, 6960, Note_on_c, 11, 69, 76
14, 7064, Note_on_c, 11, 69, 0
14, 7080, Note_on_c, 11, 73, 76
14, 7184, Note_on_c, 11, 73, 0
14, 7200, Note_on_c, 11, 73, 76
14, 7304, Note_on_c, 11, 73, 0
14, 7320, Note_on_c, 11, 68, 76
14, 7424, Note_on_c, 11, 68, 0
14, 7440, Note_on_c, 11, 71, 76
14, 7544, Note_on_c, 11, 71, 0
14, 7560, Note_on_c, 11, 71, 76
14, 7664, Note_on_c, 11, 71, 0
14, 7680, Note_on_c, 11, 69, 76
14, 7769, Note_on_c, 11, 69, 0
14, 7800, Note_on_c, 11, 76, 76
14, 7889, Note_on_c, 11, 76, 0
14, 7920, Note_on_c, 11, 73, 76
14, 8009, Note_on_c, 11, 73, 0
14, 8040, Note_on_c, 11, 69, 76
14, 8129, Note_on_c, 11, 69, 0
14, 8160, Note_on_c, 11, 64, 76
14, 8249, Note_on_c, 11, 64, 0
14, 8280, Note_on_c, 11, 61, 76
14, 8369, Note_on_c, 11, 61, 0
14, 8400, Note_on_c, 11, 57, 76
14, 8489, Note_on_c, 11, 57, 0
14, 8640, Note_on_c, 11, 65, 76
14, 8711, Note_on_c, 11, 65, 0
14, 8720, Note_on_c, 11, 65, 76
14, 8759, Note_on_c, 11, 65, 0
14, 8760, Note_on_c, 11, 69, 76
14, 8879, Note_on_c, 11, 69, 0
14, 8880, Note_on_c, 11, 65, 76
14, 8939, Note_on_c, 11, 65, 0
14, 9000, Note_on_c, 11, 65, 76
14, 9071, Note_on_c, 11, 65, 0
14, 9080, Note_on_c, 11, 65, 76
14, 9119, Note_on_c, 11, 65, 0
14, 9120, Note_on_c, 11, 69, 76
14, 9239, Note_on_c, 11, 69, 0
14, 9240, Note_on_c, 11, 65, 76
14, 9299, Note_on_c, 11, 65, 0
14, 9360, Note_on_c, 11, 69, 76
14, 9464, Note_on_c, 11, 69, 0
14, 9480, Note_on_c, 11, 69, 52
14, 9569, Note_on_c, 11, 69, 0
14, 9600, Note_on_c, 11, 69, 52
14, 9689, Note_on_c, 11, 69, 0
14, 9720, Note_on_c, 11, 72, 52
14, 9809, Note_on_c, 11, 72, 0
14, 9840, Note_on_c, 11, 70, 52
14, 9929, Note_on_c, 11, 70, 0
14, 9960, Note_on_c, 11, 70, 52
14, 10049, Note_on_c, 11, 70, 0
14, 10080, Note_on_c, 11, 69, 52
14, 10169, Note_on_c, 11, 69, 0
14, 10200, Note_on_c, 11, 67, 52
14, 10289, Note_on_c, 11, 67, 0
14, 10320, Note_on_c, 11, 67, 52
14, 10409, Note_on_c, 11, 67, 0
14, 10440, Note_on_c, 11, 65, 52
14, 10529, Note_on_c, 11, 65, 0
14, 10560, Note_on_c, 11, 64, 52
14, 10904, Note_on_c, 11, 64, 0
14, 10920, Note_on_c, 11, 76, 52
14, 11009, Note_on_c, 11, 76, 0
14, 11040, Note_on_c, 11, 76, 52
14, 11129, Note_on_c, 11, 76, 0
14, 11160, Note_on_c, 11, 74, 52
14, 11249, Note_on_c, 11, 74, 0
14, 11280, Note_on_c, 11, 72, 52
14, 11369, Note_on_c, 11, 72, 0
14, 11400, Note_on_c, 11, 72, 52
14, 11489, Note_on_c, 11, 72, 0
14, 11520, Note_on_c, 11, 70, 52
14, 11609, Note_on_c, 11, 70, 0
14, 11640, Note_on_c, 11, 69, 52
14, 11729, Note_on_c, 11, 69, 0
14, 11760, Note_on_c, 11, 69, 52
14, 11849, Note_on_c, 11, 69, 0
14, 11880, Note_on_c, 11, 67, 52
14, 11969, Note_on_c, 11, 67, 0
14, 12000, Note_on_c, 11, 65, 52
14, 12344, Note_on_c, 11, 65, 0
14, 12360, Note_on_c, 11, 64, 52
14, 12449, Note_on_c, 11, 64, 0
14, 12480, Note_on_c, 11, 64, 52
14, 12569, Note_on_c, 11, 64, 0
14, 12600, Note_on_c, 11, 65, 52
14, 12689, Note_on_c, 11, 65, 0
14, 12720, Note_on_c, 11, 64, 52
14, 12959, Note_on_c, 11, 64, 0
14, 12960, Note_on_c, 11, 65, 52
14, 13064, Note_on_c, 11, 65, 0
14, 13080, Note_on_c, 11, 64, 52
14, 13169, Note_on_c, 11, 64, 0
14, 13200, Note_on_c, 11, 64, 56
14, 13289, Note_on_c, 11, 64, 0
14, 13320, Note_on_c, 11, 65, 60
14, 13409, Note_on_c, 11, 65, 0
14, 13440, Note_on_c, 11, 64, 64
14, 13679, Note_on_c, 11, 64, 0
14, 13680, Note_on_c, 11, 65, 72
14, 13784, Note_on_c, 11, 65, 0
14, 13800, Note_on_c, 11, 68, 84
14, 14039, Note_on_c, 11, 68, 0
14, 14040, Note_on_c, 11, 69, 76
14, 14144, Note_on_c, 11, 69, 0
14, 14160, Note_on_c, 11, 59, 84
14, 14399, Note_on_c, 11, 59, 0
14, 14400, Note_on_c, 11, 61, 76
14, 14504, Note_on_c, 11, 61, 0
14, 14520, Note_on_c, 11, 68, 76
14, 14624, Note_on_c, 11, 68, 0
14, 14640, Note_on_c, 11, 71, 76
14, 14744, Note_on_c, 11, 71, 0
14, 14760, Note_on_c, 11, 71, 76
14, 14864, Note_on_c, 11, 71, 0
14, 14880, Note_on_c, 11, 69, 76
14, 14984, Note_on_c, 11, 69, 0
14, 15000, Note_on_c, 11, 73, 76
14, 15104, Note_on_c, 11, 73, 0
14, 15120, Note_on_c, 11, 73, 76
14, 15224, Note_on_c, 11, 73, 0
14, 15240, Note_on_c, 11, 71, 76
14, 15344, Note_on_c, 11, 71, 0
14, 15360, Note_on_c, 11, 64, 76
14, 15464, Note_on_c, 11, 64, 0
14, 15480, Note_on_c, 11, 71, 76
14, 15584, Note_on_c, 11, 71, 0
14, 15600, Note_on_c, 11, 69, 76
14, 15704, Note_on_c, 11, 69, 0
14, 15720, Note_on_c, 11, 73, 76
14, 15824, Note_on_c, 11, 73, 0
14, 15840, Note_on_c, 11, 73, 76
14, 15944, Note_on_c, 11, 73, 0
14, 15960, Note_on_c, 11, 68, 76
14, 16064, Note_on_c, 11, 68, 0
14, 16080, Note_on_c, 11, 71, 76
14, 16184, Note_on_c, 11, 71, 0
14, 16200, Note_on_c, 11, 71, 76
14, 16304, Note_on_c, 11, 71, 0
14, 16320, Note_on_c, 11, 69, 76
14, 16409, Note_on_c, 11, 69, 0
14, 16440, Note_on_c, 11, 76, 76
14, 16529, Note_on_c, 11, 76, 0
14, 16560, Note_on_c, 11, 73, 76
14, 16649, Note_on_c, 11, 73, 0
14, 16680, Note_on_c, 11, 69, 76
14, 16769, Note_on_c, 11, 69, 0
14, 16800, Note_on_c, 11, 64, 76
14, 16889, Note_on_c, 11, 64, 0
14, 16920, Note_on_c, 11, 61, 76
14, 17009, Note_on_c, 11, 61, 0
14, 17040, Note_on_c, 11, 57, 76
14, 17129, Note_on_c, 11, 57, 0
14, 18000, Note_on_c, 11, 69, 76
14, 18071, Note_on_c, 11, 69, 0
14, 18080, Note_on_c, 11, 69, 76
14, 18119, Note_on_c, 11, 69, 0
14, 18120, Note_on_c, 11, 73, 84
14, 18239, Note_on_c, 11, 73, 0
14, 18240, Note_on_c, 11, 69, 76
14, 18299, Note_on_c, 11, 69, 0
14, 21720, Note_on_c, 11, 73, 44
14, 21959, Note_on_c, 11, 73, 0
14, 21960, Note_on_c, 11, 74, 44
14, 22064, Note_on_c, 11, 74, 0
14, 22080, Note_on_c, 11, 73, 44
14, 22319, Note_on_c, 11, 73, 0
14, 22320, Note_on_c, 11, 74, 44
14, 22424, Note_on_c, 11, 74, 0
14, 22440, Note_on_c, 11, 73, 44
14, 22679, Note_on_c, 11, 73, 0
14, 22680, Note_on_c, 11, 74, 44
14, 22784, Note_on_c, 11, 74, 0
14, 22800, Note_on_c, 11, 73, 44
14, 23039, Note_on_c, 11, 73, 0
14, 23040, Note_on_c, 11, 74, 44
14, 23159, Note_on_c, 11, 74, 0
14, 24120, Note_on_c, 11, 71, 84
14, 24224, Note_on_c, 11, 71, 0
14, 24240, Note_on_c, 11, 74, 84
14, 24359, Note_on_c, 11, 74, 0
14, 24360, Note_on_c, 11, 71, 84
14, 24419, Note_on_c, 11, 71, 0
14, 27480, Note_on_c, 11, 76, 44
14, 27719, Note_on_c, 11, 76, 0
14, 27720, Note_on_c, 11, 77, 44
14, 27824, Note_on_c, 11, 77, 0
14, 27840, Note_on_c, 11, 76, 44
14, 28079, Note_on_c, 11, 76, 0
14, 28080, Note_on_c, 11, 77, 44
14, 28184, Note_on_c, 11, 77, 0
14, 28200, Note_on_c, 11, 76, 44
14, 28439, Note_on_c, 11, 76, 0
14, 28440, Note_on_c, 11, 77, 44
14, 28544, Note_on_c, 11, 77, 0
14, 28560, Note_on_c, 11, 76, 44
14, 28799, Note_on_c, 11, 76, 0
14, 28800, Note_on_c, 11, 77, 44
14, 28919, Note_on_c, 11, 77, 0
14, 29880, Note_on_c, 11, 69, 84
14, 29984, Note_on_c, 11, 69, 0
14, 30000, Note_on_c, 11, 72, 84
14, 30119, Note_on_c, 11, 72, 0
14, 30120, Note_on_c, 11, 69, 84
14, 30179, Note_on_c, 11, 69, 0
14, 30240, Note_on_c, 11, 70, 52
14, 30344, Note_on_c, 11, 70, 0
14, 30360, Note_on_c, 11, 70, 52
14, 30449, Note_on_c, 11, 70, 0
14, 30480, Note_on_c, 11, 70, 52
14, 30569, Note_on_c, 11, 70, 0
14, 30600, Note_on_c, 11, 70, 52
14, 30689, Note_on_c, 11, 70, 0
14, 30720, Note_on_c, 11, 70, 52
14, 30944, Note_on_c, 11, 70, 0
14, 30960, Note_on_c, 11, 70, 52
14, 31064, Note_on_c, 11, 70, 0
14, 31080, Note_on_c, 11, 70, 52
14, 31169, Note_on_c, 11, 70, 0
14, 31200, Note_on_c, 11, 70, 52
14, 31289, Note_on_c, 11, 70, 0
14, 31320, Note_on_c, 11, 70, 52
14, 31409, Note_on_c, 11, 70, 0
14, 31440, Note_on_c, 11, 70, 52
14, 31664, Note_on_c, 11, 70, 0
14, 31680, Note_on_c, 11, 70, 52
14, 31784, Note_on_c, 11, 70, 0
14, 31800, Note_on_c, 11, 62, 52
14, 31889, Note_on_c, 11, 62, 0
14, 31920, Note_on_c, 11, 65, 52
14, 32009, Note_on_c, 11, 65, 0
14, 32040, Note_on_c, 11, 65, 52
14, 32129, Note_on_c, 11, 65, 0
14, 32160, Note_on_c, 11, 62, 52
14, 32249, Note_on_c, 11, 62, 0
14, 32280, Note_on_c, 11, 65, 52
14, 32369, Note_on_c, 11, 65, 0
14, 32400, Note_on_c, 11, 65, 52
14, 32489, Note_on_c, 11, 65, 0
14, 32520, Note_on_c, 11, 62, 52
14, 32609, Note_on_c, 11, 62, 0
14, 32640, Note_on_c, 11, 65, 52
14, 32729, Note_on_c, 11, 65, 0
14, 32760, Note_on_c, 11, 65, 52
14, 32849, Note_on_c, 11, 65, 0
14, 32880, Note_on_c, 11, 62, 52
14, 32969, Note_on_c, 11, 62, 0
14, 33000, Note_on_c, 11, 65, 52
14, 33089, Note_on_c, 11, 65, 0
14, 33120, Note_on_c, 11, 65, 52
14, 33209, Note_on_c, 11, 65, 0
14, 33240, Note_on_c, 11, 60, 52
14, 33329, Note_on_c, 11, 60, 0
14, 33360, Note_on_c, 11, 60, 52
14, 33449, Note_on_c, 11, 60, 0
14, 33480, Note_on_c, 11, 65, 52
14, 33569, Note_on_c, 11, 65, 0
14, 33600, Note_on_c, 11, 60, 52
14, 33689, Note_on_c, 11, 60, 0
14, 33720, Note_on_c, 11, 60, 52
14, 33809, Note_on_c, 11, 60, 0
14, 33840, Note_on_c, 11, 65, 52
14, 33929, Note_on_c, 11, 65, 0
14, 33960, Note_on_c, 11, 60, 52
14, 34049, Note_on_c, 11, 60, 0
14, 34080, Note_on_c, 11, 60, 52
14, 34169, Note_on_c, 11, 60, 0
14, 34200, Note_on_c, 11, 65, 52
14, 34289, Note_on_c, 11, 65, 0
14, 34320, Note_on_c, 11, 60, 52
14, 34409, Note_on_c, 11, 60, 0
14, 34440, Note_on_c, 11, 60, 52
14, 34529, Note_on_c, 11, 60, 0
14, 34560, Note_on_c, 11, 65, 52
14, 34649, Note_on_c, 11, 65, 0
14, 34680, Note_on_c, 11, 65, 52
14, 34769, Note_on_c, 11, 65, 0
14, 34800, Note_on_c, 11, 65, 52
14, 34889, Note_on_c, 11, 65, 0
14, 34920, Note_on_c, 11, 65, 52
14, 35009, Note_on_c, 11, 65, 0
14, 35040, Note_on_c, 11, 62, 52
14, 35129, Note_on_c, 11, 62, 0
14, 35160, Note_on_c, 11, 62, 52
14, 35249, Note_on_c, 11, 62, 0
14, 35280, Note_on_c, 11, 65, 53
14, 35369, Note_on_c, 11, 65, 0
14, 35400, Note_on_c, 11, 62, 53
14, 35489, Note_on_c, 11, 62, 0
14, 35520, Note_on_c, 11, 62, 54
14, 35609, Note_on_c, 11, 62, 0
14, 35640, Note_on_c, 11, 65, 54
14, 35729, Note_on_c, 11, 65, 0
14, 35760, Note_on_c, 11, 62, 55
14, 35849, Note_on_c, 11, 62, 0
14, 35880, Note_on_c, 11, 62, 55
14, 35969, Note_on_c, 11, 62, 0
14, 36000, Note_on_c, 11, 65, 56
14, 36089, Note_on_c, 11, 65, 0
14, 36120, Note_on_c, 11, 65, 56
14, 36209, Note_on_c, 11, 65, 0
14, 36240, Note_on_c, 11, 65, 57
14, 36329, Note_on_c, 11, 65, 0
14, 36360, Note_on_c, 11, 65, 58
14, 36449, Note_on_c, 11, 65, 0
14, 36480, Note_on_c, 11, 65, 58
14, 36569, Note_on_c, 11, 65, 0
14, 36600, Note_on_c, 11, 65, 59
14, 36689, Note_on_c, 11, 65, 0
14, 36720, Note_on_c, 11, 69, 59
14, 36809, Note_on_c, 11, 69, 0
14, 36840, Note_on_c, 11, 65, 60
14, 36929, Note_on_c, 11, 65, 0
14, 36960, Note_on_c, 11, 65, 60
14, 37049, Note_on_c, 11, 65, 0
14, 37080, Note_on_c, 11, 69, 61
14, 37169, Note_on_c, 11, 69, 0
14, 37200, Note_on_c, 11, 65, 61
14, 37289, Note_on_c, 11, 65, 0
14, 37320, Note_on_c, 11, 65, 62
14, 37409, Note_on_c, 11, 65, 0
14, 37440, Note_on_c, 11, 69, 62
14, 37529, Note_on_c, 11, 69, 0
14, 37560, Note_on_c, 11, 65, 63
14, 37649, Note_on_c, 11, 65, 0
14, 37680, Note_on_c, 11, 65, 64
14, 37769, Note_on_c, 11, 65, 0
14, 37800, Note_on_c, 11, 70, 64
14, 37889, Note_on_c, 11, 70, 0
14, 38640, Note_on_c, 11, 67, 68
14, 38729, Note_on_c, 11, 67, 0
14, 38760, Note_on_c, 11, 67, 68
14, 38849, Note_on_c, 11, 67, 0
14, 38880, Note_on_c, 11, 65, 69
14, 38969, Note_on_c, 11, 65, 0
14, 39000, Note_on_c, 11, 64, 70
14, 39089, Note_on_c, 11, 64, 0
14, 39120, Note_on_c, 11, 64, 70
14, 39209, Note_on_c, 11, 64, 0
14, 39240, Note_on_c, 11, 62, 71
14, 39329, Note_on_c, 11, 62, 0
14, 39360, Note_on_c, 11, 60, 71
14, 39449, Note_on_c, 11, 60, 0
14, 39480, Note_on_c, 11, 60, 72
14, 39569, Note_on_c, 11, 60, 0
14, 39600, Note_on_c, 11, 58, 72
14, 39689, Note_on_c, 11, 58, 0
14, 39720, Note_on_c, 11, 57, 73
14, 39809, Note_on_c, 11, 57, 0
14, 39840, Note_on_c, 11, 57, 73
14, 39929, Note_on_c, 11, 57, 0
14, 39960, Note_on_c, 11, 55, 74
14, 40049, Note_on_c, 11, 55, 0
14, 40080, Note_on_c, 11, 65, 74
14, 40169, Note_on_c, 11, 65, 0
14, 40200, Note_on_c, 11, 64, 75
14, 40289, Note_on_c, 11, 64, 0
14, 40320, Note_on_c, 11, 65, 76
14, 40379, Note_on_c, 11, 65, 0
14, 40400, Note_on_c, 11, 65, 76
14, 40439, Note_on_c, 11, 65, 0
14, 40440, Note_on_c, 11, 69, 76
14, 40559, Note_on_c, 11, 69, 0
14, 40560, Note_on_c, 11, 65, 76
14, 40619, Note_on_c, 11, 65, 0
14, 40680, Note_on_c, 11, 69, 76
14, 40739, Note_on_c, 11, 69, 0
14, 40760, Note_on_c, 11, 69, 76
14, 40799, Note_on_c, 11, 69, 0
14, 40800, Note_on_c, 11, 72, 76
14, 40919, Note_on_c, 11, 72, 0
14, 40920, Note_on_c, 11, 69, 76
14, 40979, Note_on_c, 11, 69, 0
14, 41040, Note_on_c, 11, 72, 76
14, 41144, Note_on_c, 11, 72, 0
14, 41160, Note_on_c, 11, 77, 84
14, 41249, Note_on_c, 11, 77, 0
14, 41280, Note_on_c, 11, 77, 84
14, 41369, Note_on_c, 11, 77, 0
14, 41400, Note_on_c, 11, 76, 84
14, 41489, Note_on_c, 11, 76, 0
14, 41520, Note_on_c, 11, 74, 84
14, 41609, Note_on_c, 11, 74, 0
14, 41640, Note_on_c, 11, 74, 84
14, 41729, Note_on_c, 11, 74, 0
14, 41760, Note_on_c, 11, 72, 84
14, 41849, Note_on_c, 11, 72, 0
14, 41880, Note_on_c, 11, 70, 84
14, 41969, Note_on_c, 11, 70, 0
14, 42000, Note_on_c, 11, 70, 84
14, 42089, Note_on_c, 11, 70, 0
14, 42120, Note_on_c, 11, 69, 84
14, 42209, Note_on_c, 11, 69, 0
14, 42240, Note_on_c, 11, 67, 84
14, 42584, Note_on_c, 11, 67, 0
14, 42600, Note_on_c, 11, 79, 84
14, 42689, Note_on_c, 11, 79, 0
14, 42720, Note_on_c, 11, 79, 84
14, 42809, Note_on_c, 11, 79, 0
14, 42840, Note_on_c, 11, 77, 84
14, 42929, Note_on_c, 11, 77, 0
14, 42960, Note_on_c, 11, 76, 84
14, 43049, Note_on_c, 11, 76, 0
14, 43080, Note_on_c, 11, 76, 84
14, 43169, Note_on_c, 11, 76, 0
14, 43200, Note_on_c, 11, 74, 84
14, 43289, Note_on_c, 11, 74, 0
14, 43320, Note_on_c, 11, 72, 84
14, 43409, Note_on_c, 11, 72, 0
14, 43440, Note_on_c, 11, 72, 84
14, 43529, Note_on_c, 11, 72, 0
14, 43560, Note_on_c, 11, 70, 84
14, 43649, Note_on_c, 11, 70, 0
14, 43680, Note_on_c, 11, 69, 84
14, 44024, Note_on_c, 11, 69, 0
14, 44040, Note_on_c, 11, 69, 52
14, 44399, Note_on_c, 11, 69, 0
14, 44400, Note_on_c, 11, 69, 52
14, 44759, Note_on_c, 11, 69, 0
14, 44760, Note_on_c, 11, 69, 52
14, 45239, Note_on_c, 11, 69, 0
14, 45240, Note_on_c, 11, 72, 52
14, 45344, Note_on_c, 11, 72, 0
14, 45360, Note_on_c, 11, 72, 52
14, 45449, Note_on_c, 11, 72, 0
14, 45480, Note_on_c, 11, 72, 52
14, 45839, Note_on_c, 11, 72, 0
14, 45840, Note_on_c, 11, 72, 52
14, 46199, Note_on_c, 11, 72, 0
14, 46200, Note_on_c, 11, 72, 52
14, 46679, Note_on_c, 11, 72, 0
14, 46680, Note_on_c, 11, 77, 52
14, 46784, Note_on_c, 11, 77, 0
14, 46800, Note_on_c, 11, 77, 52
14, 46889, Note_on_c, 11, 77, 0
14, 46920, Note_on_c, 11, 64, 52
14, 47009, Note_on_c, 11, 64, 0
14, 47040, Note_on_c, 11, 64, 52
14, 47129, Note_on_c, 11, 64, 0
14, 47160, Note_on_c, 11, 65, 52
14, 47249, Note_on_c, 11, 65, 0
14, 47280, Note_on_c, 11, 64, 52
14, 47519, Note_on_c, 11, 64, 0
14, 47520, Note_on_c, 11, 65, 52
14, 47639, Note_on_c, 11, 65, 0
14, 48240, Control_c, 11, 11, 80
14, 48360, Note_on_c, 11, 64, 76
14, 48400, Control_c, 11, 11, 83
14, 48440, Control_c, 11, 11, 85
14, 48449, Note_on_c, 11, 64, 0
14, 48480, Control_c, 11, 11, 88
14, 48480, Note_on_c, 11, 64, 76
14, 48520, Control_c, 11, 11, 90
14, 48560, Control_c, 11, 11, 93
14, 48569, Note_on_c, 11, 64, 0
14, 48600, Control_c, 11, 11, 96
14, 48600, Note_on_c, 11, 65, 76
14, 48640, Control_c, 11, 11, 98
14, 48680, Control_c, 11, 11, 101
14, 48689, Note_on_c, 11, 65, 0
14, 48720, Note_on_c, 11, 64, 76
14, 48720, Control_c, 11, 11, 104
14, 48760, Control_c, 11, 11, 106
14, 48800, Control_c, 11, 11, 109
14, 48840, Control_c, 11, 11, 111
14, 48880, Control_c, 11, 11, 114
14, 48920, Control_c, 11, 11, 117
14, 48959, Note_on_c, 11, 64, 0
14, 48960, Note_on_c, 11, 65, 76
14, 48960, Control_c, 11, 11, 119
14, 49000, Control_c, 11, 11, 122
14, 49040, Control_c, 11, 11, 127
14, 49064, Note_on_c, 11, 65, 0
14, 49080, Note_on_c, 11, 65, 76
14, 49304, Note_on_c, 11, 65, 0
14, 49320, Note_on_c, 11, 65, 76
14, 49424, Note_on_c, 11, 65, 0
14, 49440, Note_on_c, 11, 71, 84
14, 49679, Note_on_c, 11, 71, 0
14, 49680, Note_on_c, 11, 72, 76
14, 49784, Note_on_c, 11, 72, 0
14, 49800, Note_on_c, 11, 72, 84
14, 50024, Note_on_c, 11, 72, 0
14, 50040, Note_on_c, 11, 72, 76
14, 50144, Note_on_c, 11, 72, 0
14, 50160, Note_on_c, 11, 77, 84
14, 50399, Note_on_c, 11, 77, 0
14, 50400, Note_on_c, 11, 76, 76
14, 50504, Note_on_c, 11, 76, 0
14, 50520, Note_on_c, 11, 65, 52
14, 50624, Note_on_c, 11, 65, 0
14, 50640, Note_on_c, 11, 65, 52
14, 50744, Note_on_c, 11, 65, 0
14, 50760, Note_on_c, 11, 67, 52
14, 50864, Note_on_c, 11, 67, 0
14, 50880, Note_on_c, 11, 64, 52
14, 50984, Note_on_c, 11, 64, 0
14, 51000, Note_on_c, 11, 64, 52
14, 51104, Note_on_c, 11, 64, 0
14, 51120, Note_on_c, 11, 67, 52
14, 51224, Note_on_c, 11, 67, 0
14, 51240, Note_on_c, 11, 62, 52
14, 51344, Note_on_c, 11, 62, 0
14, 51360, Note_on_c, 11, 62, 52
14, 51464, Note_on_c, 11, 62, 0
14, 51480, Note_on_c, 11, 67, 52
14, 51584, Note_on_c, 11, 67, 0
14, 51600, Note_on_c, 11, 64, 52
14, 51704, Note_on_c, 11, 64, 0
14, 51720, Note_on_c, 11, 64, 52
14, 51824, Note_on_c, 11, 64, 0
14, 51840, Note_on_c, 11, 67, 52
14, 51944, Note_on_c, 11, 67, 0
14, 51960, Note_on_c, 11, 65, 52
14, 52064, Note_on_c, 11, 65, 0
14, 52080, Note_on_c, 11, 65, 54
14, 52184, Note_on_c, 11, 65, 0
14, 52200, Note_on_c, 11, 67, 57
14, 52304, Note_on_c, 11, 67, 0
14, 52320, Note_on_c, 11, 64, 60
14, 52424, Note_on_c, 11, 64, 0
14, 52440, Note_on_c, 11, 67, 62
14, 52544, Note_on_c, 11, 67, 0
14, 52560, Note_on_c, 11, 67, 65
14, 52664, Note_on_c, 11, 67, 0
14, 52680, Note_on_c, 11, 65, 68
14, 52784, Note_on_c, 11, 65, 0
14, 52800, Note_on_c, 11, 65, 70
14, 52904, Note_on_c, 11, 65, 0
14, 52920, Note_on_c, 11, 67, 73
14, 53024, Note_on_c, 11, 67, 0
14, 53040, Note_on_c, 11, 64, 76
14, 53144, Note_on_c, 11, 64, 0
14, 53160, Note_on_c, 11, 64, 78
14, 53264, Note_on_c, 11, 64, 0
14, 53280, Note_on_c, 11, 67, 81
14, 53384, Note_on_c, 11, 67, 0
14, 53400, Note_on_c, 11, 67, 84
14, 53444, Note_on_c, 11, 67, 0
14, 53445, Note_on_c, 11, 69, 84
14, 53489, Note_on_c, 11, 69, 0
14, 53490, Note_on_c, 11, 67, 84
14, 53534, Note_on_c, 11, 67, 0
14, 53535, Note_on_c, 11, 69, 84
14, 53579, Note_on_c, 11, 69, 0
14, 53580, Note_on_c, 11, 67, 84
14, 53624, Note_on_c, 11, 67, 0
14, 53625, Note_on_c, 11, 69, 84
14, 53669, Note_on_c, 11, 69, 0
14, 53670, Note_on_c, 11, 65, 84
14, 53714, Note_on_c, 11, 65, 0
14, 53715, Note_on_c, 11, 67, 84
14, 53759, Note_on_c, 11, 67, 0
14, 53760, Note_on_c, 11, 65, 84
14, 53849, Note_on_c, 11, 65, 0
14, 53880, Note_on_c, 11, 69, 84
14, 53969, Note_on_c, 11, 69, 0
14, 54000, Note_on_c, 11, 65, 84
14, 54089, Note_on_c, 11, 65, 0
14, 54120, Note_on_c, 11, 67, 84
14, 54164, Note_on_c, 11, 67, 0
14, 54165, Note_on_c, 11, 69, 84
14, 54209, Note_on_c, 11, 69, 0
14, 54210, Note_on_c, 11, 67, 84
14, 54254, Note_on_c, 11, 67, 0
14, 54255, Note_on_c, 11, 69, 84
14, 54299, Note_on_c, 11, 69, 0
14, 54300, Note_on_c, 11, 67, 84
14, 54344, Note_on_c, 11, 67, 0
14, 54345, Note_on_c, 11, 69, 84
14, 54389, Note_on_c, 11, 69, 0
14, 54390, Note_on_c, 11, 65, 84
14, 54434, Note_on_c, 11, 65, 0
14, 54435, Note_on_c, 11, 67, 84
14, 54479, Note_on_c, 11, 67, 0
14, 54480, Note_on_c, 11, 65, 84
14, 54569, Note_on_c, 11, 65, 0
14, 54600, Note_on_c, 11, 69, 84
14, 54689, Note_on_c, 11, 69, 0
14, 54720, Note_on_c, 11, 65, 84
14, 54809, Note_on_c, 11, 65, 0
14, 54840, Note_on_c, 11, 67, 84
14, 54884, Note_on_c, 11, 67, 0
14, 54885, Note_on_c, 11, 69, 84
14, 54929, Note_on_c, 11, 69, 0
14, 54930, Note_on_c, 11, 67, 84
14, 54974, Note_on_c, 11, 67, 0
14, 54975, Note_on_c, 11, 69, 84
14, 55019, Note_on_c, 11, 69, 0
14, 55020, Note_on_c, 11, 67, 84
14, 55064, Note_on_c, 11, 67, 0
14, 55065, Note_on_c, 11, 69, 84
14, 55109, Note_on_c, 11, 69, 0
14, 55110, Note_on_c, 11, 65, 84
14, 55154, Note_on_c, 11, 65, 0
14, 55155, Note_on_c, 11, 67, 84
14, 55199, Note_on_c, 11, 67, 0
14, 55200, Note_on_c, 11, 65, 84
14, 55289, Note_on_c, 11, 65, 0
14, 55320, Note_on_c, 11, 69, 84
14, 55409, Note_on_c, 11, 69, 0
14, 55440, Note_on_c, 11, 65, 84
14, 55529, Note_on_c, 11, 65, 0
14, 55560, Note_on_c, 11, 67, 84
14, 55604, Note_on_c, 11, 67, 0
14, 55605, Note_on_c, 11, 69, 84
14, 55649, Note_on_c, 11, 69, 0
14, 55650, Note_on_c, 11, 67, 84
14, 55694, Note_on_c, 11, 67, 0
14, 55695, Note_on_c, 11, 69, 84
14, 55739, Note_on_c, 11, 69, 0
14, 55740, Note_on_c, 11, 67, 84
14, 55784, Note_on_c, 11, 67, 0
14, 55785, Note_on_c, 11, 69, 84
14, 55829, Note_on_c, 11, 69, 0
14, 55830, Note_on_c, 11, 65, 84
14, 55874, Note_on_c, 11, 65, 0
14, 55875, Note_on_c, 11, 67, 84
14, 55919, Note_on_c, 11, 67, 0
14, 55920, Note_on_c, 11, 65, 84
14, 56009, Note_on_c, 11, 65, 0
14, 56040, Note_on_c, 11, 69, 84
14, 56129, Note_on_c, 11, 69, 0
14, 56160, Note_on_c, 11, 65, 84
14, 56249, Note_on_c, 11, 65, 0
14, 56280, Note_on_c, 11, 67, 84
14, 56324, Note_on_c, 11, 67, 0
14, 56325, Note_on_c, 11, 69, 84
14, 56369, Note_on_c, 11, 69, 0
14, 56370, Note_on_c, 11, 67, 84
14, 56414, Note_on_c, 11, 67, 0
14, 56415, Note_on_c, 11, 69, 84
14, 56459, Note_on_c, 11, 69, 0
14, 56460, Note_on_c, 11, 67, 84
14, 56504, Note_on_c, 11, 67, 0
14, 56505, Note_on_c, 11, 69, 84
14, 56549, Note_on_c, 11, 69, 0
14, 56550, Note_on_c, 11, 65, 84
14, 56594, Note_on_c, 11, 65, 0
14, 56595, Note_on_c, 11, 67, 84
14, 56639, Note_on_c, 11, 67, 0
14, 56640, Note_on_c, 11, 65, 84
14, 56729, Note_on_c, 11, 65, 0
14, 56760, Note_on_c, 11, 72, 84
14, 56849, Note_on_c, 11, 72, 0
14, 56880, Note_on_c, 11, 69, 84
14, 56969, Note_on_c, 11, 69, 0
14, 57000, Note_on_c, 11, 65, 84
14, 57089, Note_on_c, 11, 65, 0
14, 57120, Note_on_c, 11, 60, 84
14, 57209, Note_on_c, 11, 60, 0
14, 57240, Note_on_c, 11, 57, 84
14, 57329, Note_on_c, 11, 57, 0
14, 57360, Note_on_c, 11, 65, 84
14, 57360, Note_on_c, 11, 57, 84
14, 57479, Note_on_c, 11, 65, 0
14, 57479, Note_on_c, 11, 57, 0
14, 58320, Note_on_c, 11, 65, 84
14, 58391, Note_on_c, 11, 65, 0
14, 58400, Note_on_c, 11, 65, 84
14, 58439, Note_on_c, 11, 65, 0
14, 58440, Note_on_c, 11, 69, 92
14, 58559, Note_on_c, 11, 69, 0
14, 58560, Note_on_c, 11, 65, 84
14, 58619, Note_on_c, 11, 65, 0
14, 58680, Note_on_c, 11, 65, 84
14, 58751, Note_on_c, 11, 65, 0
14, 58760, Note_on_c, 11, 65, 84
14, 58799, Note_on_c, 11, 65, 0
14, 58800, Note_on_c, 11, 69, 92
14, 58919, Note_on_c, 11, 69, 0
14, 58920, Note_on_c, 11, 65, 84
14, 58979, Note_on_c, 11, 65, 0
14, 59040, Note_on_c, 11, 65, 84
14, 59111, Note_on_c, 11, 65, 0
14, 59120, Note_on_c, 11, 65, 84
14, 59159, Note_on_c, 11, 65, 0
14, 59160, Note_on_c, 11, 69, 92
14, 59279, Note_on_c, 11, 69, 0
14, 59280, Note_on_c, 11, 65, 84
14, 59339, Note_on_c, 11, 65, 0
14, 59400, Note_on_c, 11, 65, 84
14, 59471, Note_on_c, 11, 65, 0
14, 59480, Note_on_c, 11, 65, 84
14, 59519, Note_on_c, 11, 65, 0
14, 59520, Note_on_c, 11, 69, 92
14, 59639, Note_on_c, 11, 69, 0
14, 59640, Note_on_c, 11, 65, 84
14, 59744, Note_on_c, 11, 65, 0
14, 59760, Note_on_c, 11, 65, 84
14, 59831, Note_on_c, 11, 65, 0
14, 59840, Note_on_c, 11, 65, 84
14, 59879, Note_on_c, 11, 65, 0
14, 59880, Note_on_c, 11, 69, 92
14, 59999, Note_on_c, 11, 69, 0
14, 60000, Note_on_c, 11, 65, 84
14, 60104, Note_on_c, 11, 65, 0
14, 60120, Note_on_c, 11, 65, 84
14, 60191, Note_on_c, 11, 65, 0
14, 60200, Note_on_c, 11, 65, 84
14, 60239, Note_on_c, 11, 65, 0
14, 60240, Note_on_c, 11, 69, 92
14, 60359, Note_on_c, 11, 69, 0
14, 60360, Note_on_c, 11, 65, 84
14, 60464, Note_on_c, 11, 65, 0
14, 60480, Note_on_c, 11, 65, 84
14, 60569, Note_on_c, 11, 65, 0
14, 60600, Note_on_c, 11, 69, 84
14, 60600, Note_on_c, 11, 81, 84
14, 60959, Note_on_c, 11, 69, 0
14, 60959, Note_on_c, 11, 81, 0
14, 60960, Note_on_c, 11, 69, 84
14, 60960, Note_on_c, 11, 81, 84
14, 61319, Note_on_c, 11, 69, 0
14, 61319, Note_on_c, 11, 81, 0
14, 61320, Note_on_c, 11, 69, 84
14, 61320, Note_on_c, 11, 81, 84
14, 61679, Note_on_c, 11, 69, 0
14, 61679, Note_on_c, 11, 81, 0
14, 61680, Note_on_c, 11, 81, 84
14, 61680, Note_on_c, 11, 69, 84
14, 61919, Note_on_c, 11, 81, 0
14, 61919, Note_on_c, 11, 69, 0
14, 62640, Note_on_c, 11, 69, 76
14, 62711, Note_on_c, 11, 69, 0
14, 62720, Note_on_c, 11, 69, 76
14, 62759, Note_on_c, 11, 69, 0
14, 62760, Note_on_c, 11, 73, 84
14, 62879, Note_on_c, 11, 73, 0
14, 62880, Note_on_c, 11, 69, 76
14, 62939, Note_on_c, 11, 69, 0
14, 66360, Note_on_c, 11, 73, 44
14, 66599, Note_on_c, 11, 73, 0
14, 66600, Note_on_c, 11, 74, 44
14, 66704, Note_on_c, 11, 74, 0
14, 66720, Note_on_c, 11, 73, 44
14, 66959, Note_on_c, 11, 73, 0
14, 66960, Note_on_c, 11, 74, 44
14, 67064, Note_on_c, 11, 74, 0
14, 67080, Note_on_c, 11, 73, 44
14, 67319, Note_on_c, 11, 73, 0
14, 67320, Note_on_c, 11, 74, 44
14, 67424, Note_on_c, 11, 74, 0
14, 67440, Note_on_c, 11, 73, 44
14, 67679, Note_on_c, 11, 73, 0
14, 67680, Note_on_c, 11, 74, 44
14, 67799, Note_on_c, 11, 74, 0
14, 68760, Note_on_c, 11, 71, 84
14, 68864, Note_on_c, 11, 71, 0
14, 68880, Note_on_c, 11, 74, 84
14, 68999, Note_on_c, 11, 74, 0
14, 69000, Note_on_c, 11, 71, 84
14, 69059, Note_on_c, 11, 71, 0
14, 72120, Note_on_c, 11, 76, 44
14, 72359, Note_on_c, 11, 76, 0
14, 72360, Note_on_c, 11, 77, 44
14, 72464, Note_on_c, 11, 77, 0
14, 72480, Note_on_c, 11, 76, 44
14, 72719, Note_on_c, 11, 76, 0
14, 72720, Note_on_c, 11, 77, 44
14, 72824, Note_on_c, 11, 77, 0
14, 72840, Note_on_c, 11, 76, 44
14, 73079, Note_on_c, 11, 76, 0
14, 73080, Note_on_c, 11, 77, 44
14, 73184, Note_on_c, 11, 77, 0
14, 73200, Note_on_c, 11, 76, 44
14, 73439, Note_on_c, 11, 76, 0
14, 73440, Note_on_c, 11, 77, 44
14, 73559, Note_on_c, 11, 77, 0
14, 74520, Note_on_c, 11, 69, 84
14, 74624, Note_on_c, 11, 69, 0
14, 74640, Note_on_c, 11, 72, 84
14, 74759, Note_on_c, 11, 72, 0
14, 74760, Note_on_c, 11, 69, 84
14, 74819, Note_on_c, 11, 69, 0
14, 74880, Note_on_c, 11, 70, 52
14, 74984, Note_on_c, 11, 70, 0
14, 75000, Note_on_c, 11, 70, 52
14, 75089, Note_on_c, 11, 70, 0
14, 75120, Note_on_c, 11, 70, 52
14, 75209, Note_on_c, 11, 70, 0
14, 75240, Note_on_c, 11, 70, 52
14, 75329, Note_on_c, 11, 70, 0
14, 75360, Note_on_c, 11, 70, 52
14, 75584, Note_on_c, 11, 70, 0
14, 75600, Note_on_c, 11, 70, 52
14, 75704, Note_on_c, 11, 70, 0
14, 75720, Note_on_c, 11, 70, 52
14, 75809, Note_on_c, 11, 70, 0
14, 75840, Note_on_c, 11, 70, 52
14, 75929, Note_on_c, 11, 70, 0
14, 75960, Note_on_c, 11, 70, 52
14, 76049, Note_on_c, 11, 70, 0
14, 76080, Note_on_c, 11, 70, 52
14, 76304, Note_on_c, 11, 70, 0
14, 76320, Note_on_c, 11, 70, 52
14, 76424, Note_on_c, 11, 70, 0
14, 76440, Note_on_c, 11, 62, 52
14, 76529, Note_on_c, 11, 62, 0
14, 76560, Note_on_c, 11, 65, 52
14, 76649, Note_on_c, 11, 65, 0
14, 76680, Note_on_c, 11, 65, 52
14, 76769, Note_on_c, 11, 65, 0
14, 76800, Note_on_c, 11, 62, 52
14, 76889, Note_on_c, 11, 62, 0
14, 76920, Note_on_c, 11, 65, 52
14, 77009, Note_on_c, 11, 65, 0
14, 77040, Note_on_c, 11, 65, 52
14, 77129, Note_on_c, 11, 65, 0
14, 77160, Note_on_c, 11, 62, 52
14, 77249, Note_on_c, 11, 62, 0
14, 77280, Note_on_c, 11, 65, 52
14, 77369, Note_on_c, 11, 65, 0
14, 77400, Note_on_c, 11, 65, 52
14, 77489, Note_on_c, 11, 65, 0
14, 77520, Note_on_c, 11, 62, 52
14, 77609, Note_on_c, 11, 62, 0
14, 77640, Note_on_c, 11, 65, 52
14, 77729, Note_on_c, 11, 65, 0
14, 77760, Note_on_c, 11, 65, 52
14, 77849, Note_on_c, 11, 65, 0
14, 77880, Note_on_c, 11, 60, 52
14, 77969, Note_on_c, 11, 60, 0
14, 78000, Note_on_c, 11, 60, 52
14, 78089, Note_on_c, 11, 60, 0
14, 78120, Note_on_c, 11, 65, 52
14, 78209, Note_on_c, 11, 65, 0
14, 78240, Note_on_c, 11, 60, 52
14, 78329, Note_on_c, 11, 60, 0
14, 78360, Note_on_c, 11, 60, 52
14, 78449, Note_on_c, 11, 60, 0
14, 78480, Note_on_c, 11, 65, 52
14, 78569, Note_on_c, 11, 65, 0
14, 78600, Note_on_c, 11, 60, 52
14, 78689, Note_on_c, 11, 60, 0
14, 78720, Note_on_c, 11, 60, 52
14, 78809, Note_on_c, 11, 60, 0
14, 78840, Note_on_c, 11, 65, 52
14, 78929, Note_on_c, 11, 65, 0
14, 78960, Note_on_c, 11, 60, 52
14, 79049, Note_on_c, 11, 60, 0
14, 79080, Note_on_c, 11, 60, 52
14, 79169, Note_on_c, 11, 60, 0
14, 79200, Note_on_c, 11, 65, 52
14, 79289, Note_on_c, 11, 65, 0
14, 79320, Note_on_c, 11, 65, 52
14, 79409, Note_on_c, 11, 65, 0
14, 79440, Note_on_c, 11, 65, 52
14, 79529, Note_on_c, 11, 65, 0
14, 79560, Note_on_c, 11, 65, 52
14, 79649, Note_on_c, 11, 65, 0
14, 79680, Note_on_c, 11, 62, 52
14, 79769, Note_on_c, 11, 62, 0
14, 79800, Note_on_c, 11, 62, 52
14, 79889, Note_on_c, 11, 62, 0
14, 79920, Note_on_c, 11, 65, 53
14, 80009, Note_on_c, 11, 65, 0
14, 80040, Note_on_c, 11, 62, 53
14, 80129, Note_on_c, 11, 62, 0
14, 80160, Note_on_c, 11, 62, 54
14, 80249, Note_on_c, 11, 62, 0
14, 80280, Note_on_c, 11, 65, 54
14, 80369, Note_on_c, 11, 65, 0
14, 80400, Note_on_c, 11, 62, 55
14, 80489, Note_on_c, 11, 62, 0
14, 80520, Note_on_c, 11, 62, 55
14, 80609, Note_on_c, 11, 62, 0
14, 80640, Note_on_c, 11, 65, 56
14, 80729, Note_on_c, 11, 65, 0
14, 80760, Note_on_c, 11, 65, 56
14, 80849, Note_on_c, 11, 65, 0
14, 80880, Note_on_c, 11, 65, 57
14, 80969, Note_on_c, 11, 65, 0
14, 81000, Note_on_c, 11, 65, 58
14, 81089, Note_on_c, 11, 65, 0
14, 81120, Note_on_c, 11, 65, 58
14, 81209, Note_on_c, 11, 65, 0
14, 81240, Note_on_c, 11, 65, 59
14, 81329, Note_on_c, 11, 65, 0
14, 81360, Note_on_c, 11, 69, 59
14, 81449, Note_on_c, 11, 69, 0
14, 81480, Note_on_c, 11, 65, 60
14, 81569, Note_on_c, 11, 65, 0
14, 81600, Note_on_c, 11, 65, 60
14, 81689, Note_on_c, 11, 65, 0
14, 81720, Note_on_c, 11, 69, 61
14, 81809, Note_on_c, 11, 69, 0
14, 81840, Note_on_c, 11, 65, 61
14, 81929, Note_on_c, 11, 65, 0
14, 81960, Note_on_c, 11, 65, 62
14, 82049, Note_on_c, 11, 65, 0
14, 82080, Note_on_c, 11, 69, 62
14, 82169, Note_on_c, 11, 69, 0
14, 82200, Note_on_c, 11, 65, 63
14, 82289, Note_on_c, 11, 65, 0
14, 82320, Note_on_c, 11, 65, 64
14, 82409, Note_on_c, 11, 65, 0
14, 82440, Note_on_c, 11, 70, 64
14, 82529, Note_on_c, 11, 70, 0
14, 83280, Note_on_c, 11, 67, 68
14, 83369, Note_on_c, 11, 67, 0
14, 83400, Note_on_c, 11, 67, 68
14, 83489, Note_on_c, 11, 67, 0
14, 83520, Note_on_c, 11, 65, 69
14, 83609, Note_on_c, 11, 65, 0
14, 83640, Note_on_c, 11, 64, 70
14, 83729, Note_on_c, 11, 64, 0
14, 83760, Note_on_c, 11, 64, 70
14, 83849, Note_on_c, 11, 64, 0
14, 83880, Note_on_c, 11, 62, 71
14, 83969, Note_on_c, 11, 62, 0
14, 84000, Note_on_c, 11, 60, 71
14, 84089, Note_on_c, 11, 60, 0
14, 84120, Note_on_c, 11, 60, 72
14, 84209, Note_on_c, 11, 60, 0
14, 84240, Note_on_c, 11, 58, 72
14, 84329, Note_on_c, 11, 58, 0
14, 84360, Note_on_c, 11, 57, 73
14, 84449, Note_on_c, 11, 57, 0
14, 84480, Note_on_c, 11, 57, 73
14, 84569, Note_on_c, 11, 57, 0
14, 84600, Note_on_c, 11, 55, 74
14, 84689, Note_on_c, 11, 55, 0
14, 84720, Note_on_c, 11, 65, 74
14, 84809, Note_on_c, 11, 65, 0
14, 84840, Note_on_c, 11, 64, 75
14, 84929, Note_on_c, 11, 64, 0
14, 84960, Note_on_c, 11, 65, 76
14, 85019, Note_on_c, 11, 65, 0
14, 85040, Note_on_c, 11, 65, 76
14, 85079, Note_on_c, 11, 65, 0
14, 85080, Note_on_c, 11, 69, 76
14, 85199, Note_on_c, 11, 69, 0
14, 85200, Note_on_c, 11, 65, 76
14, 85259, Note_on_c, 11, 65, 0
14, 85320, Note_on_c, 11, 69, 76
14, 85379, Note_on_c, 11, 69, 0
14, 85400, Note_on_c, 11, 69, 76
14, 85439, Note_on_c, 11, 69, 0
14, 85440, Note_on_c, 11, 72, 76
14, 85559, Note_on_c, 11, 72, 0
14, 85560, Note_on_c, 11, 69, 76
14, 85619, Note_on_c, 11, 69, 0
14, 85680, Note_on_c, 11, 72, 76
14, 85784, Note_on_c, 11, 72, 0
14, 85800, Note_on_c, 11, 77, 84
14, 85889, Note_on_c, 11, 77, 0
14, 85920, Note_on_c, 11, 77, 84
14, 86009, Note_on_c, 11, 77, 0
14, 86040, Note_on_c, 11, 76, 84
14, 86129, Note_on_c, 11, 76, 0
14, 86160, Note_on_c, 11, 74, 84
14, 86249, Note_on_c, 11, 74, 0
14, 86280, Note_on_c, 11, 74, 84
14, 86369, Note_on_c, 11, 74, 0
14, 86400, Note_on_c, 11, 72, 84
14, 86489, Note_on_c, 11, 72, 0
14, 86520, Note_on_c, 11, 70, 84
14, 86609, Note_on_c, 11, 70, 0
14, 86640, Note_on_c, 11, 70, 84
14, 86729, Note_on_c, 11, 70, 0
14, 86760, Note_on_c, 11, 69, 84
14, 86849, Note_on_c, 11, 69, 0
14, 86880, Note_on_c, 11, 67, 84
14, 87224, Note_on_c, 11, 67, 0
14, 87240, Note_on_c, 11, 79, 84
14, 87329, Note_on_c, 11, 79, 0
14, 87360, Note_on_c, 11, 79, 84
14, 87449, Note_on_c, 11, 79, 0
14, 87480, Note_on_c, 11, 77, 84
14, 87569, Note_on_c, 11, 77, 0
14, 87600, Note_on_c, 11, 76, 84
14, 87689, Note_on_c, 11, 76, 0
14, 87720, Note_on_c, 11, 76, 84
14, 87809, Note_on_c, 11, 76, 0
14, 87840, Note_on_c, 11, 74, 84
14, 87929, Note_on_c, 11, 74, 0
14, 87960, Note_on_c, 11, 72, 84
14, 88049, Note_on_c, 11, 72, 0
14, 88080, Note_on_c, 11, 72, 84
14, 88169, Note_on_c, 11, 72, 0
14, 88200, Note_on_c, 11, 70, 84
14, 88289, Note_on_c, 11, 70, 0
14, 88320, Note_on_c, 11, 69, 84
14, 88664, Note_on_c, 11, 69, 0
14, 88680, Note_on_c, 11, 69, 52
14, 89039, Note_on_c, 11, 69, 0
14, 89040, Note_on_c, 11, 69, 52
14, 89399, Note_on_c, 11, 69, 0
14, 89400, Note_on_c, 11, 69, 52
14, 89879, Note_on_c, 11, 69, 0
14, 89880, Note_on_c, 11, 72, 52
14, 89984, Note_on_c, 11, 72, 0
14, 90000, Note_on_c, 11, 72, 52
14, 90089, Note_on_c, 11, 72, 0
14, 90120, Note_on_c, 11, 72, 52
14, 90479, Note_on_c, 11, 72, 0
14, 90480, Note_on_c, 11, 72, 52
14, 90839, Note_on_c, 11, 72, 0
14, 90840, Note_on_c, 11, 72, 52
14, 91319, Note_on_c, 11, 72, 0
14, 91320, Note_on_c, 11, 77, 52
14, 91424, Note_on_c, 11, 77, 0
14, 91440, Note_on_c, 11, 77, 52
14, 91529, Note_on_c, 11, 77, 0
14, 91560, Note_on_c, 11, 64, 52
14, 91649, Note_on_c, 11, 64, 0
14, 91680, Note_on_c, 11, 64, 52
14, 91769, Note_on_c, 11, 64, 0
14, 91800, Note_on_c, 11, 65, 52
14, 91889, Note_on_c, 11, 65, 0
14, 91920, Note_on_c, 11, 64, 52
14, 92159, Note_on_c, 11, 64, 0
14, 92160, Note_on_c, 11, 65, 52
14, 92279, Note_on_c, 11, 65, 0
14, 92880, Control_c, 11, 11, 80
14, 93000, Note_on_c, 11, 64, 76
14, 93040, Control_c, 11, 11, 83
14, 93080, Control_c, 11, 11, 85
14, 93089, Note_on_c, 11, 64, 0
14, 93120, Note_on_c, 11, 64, 76
14, 93120, Control_c, 11, 11, 88
14, 93160, Control_c, 11, 11, 90
14, 93200, Control_c, 11, 11, 93
14, 93209, Note_on_c, 11, 64, 0
14, 93240, Note_on_c, 11, 65, 76
14, 93240, Control_c, 11, 11, 96
14, 93280, Control_c, 11, 11, 98
14, 93320, Control_c, 11, 11, 101
14, 93329, Note_on_c, 11, 65, 0
14, 93360, Control_c, 11, 11, 104
14, 93360, Note_on_c, 11, 64, 76
14, 93400, Control_c, 11, 11, 106
14, 93440, Control_c, 11, 11, 109
14, 93480, Control_c, 11, 11, 111
14, 93520, Control_c, 11, 11, 114
14, 93560, Control_c, 11, 11, 117
14, 93599, Note_on_c, 11, 64, 0
14, 93600, Note_on_c, 11, 65, 76
14, 93600, Control_c, 11, 11, 119
14, 93640, Control_c, 11, 11, 122
14, 93680, Control_c, 11, 11, 127
14, 93704, Note_on_c, 11, 65, 0
14, 93720, Note_on_c, 11, 65, 76
14, 93944, Note_on_c, 11, 65, 0
14, 93960, Note_on_c, 11, 65, 76
14, 94064, Note_on_c, 11, 65, 0
14, 94080, Note_on_c, 11, 71, 84
14, 94319, Note_on_c, 11, 71, 0
14, 94320, Note_on_c, 11, 72, 76
14, 94424, Note_on_c, 11, 72, 0
14, 94440, Note_on_c, 11, 72, 84
14, 94664, Note_on_c, 11, 72, 0
14, 94680, Note_on_c, 11, 72, 76
14, 94784, Note_on_c, 11, 72, 0
14, 94800, Note_on_c, 11, 77, 84
14, 95039, Note_on_c, 11, 77, 0
14, 95040, Note_on_c, 11, 76, 76
14, 95144, Note_on_c, 11, 76, 0
14, 95160, Note_on_c, 11, 65, 52
14, 95264, Note_on_c, 11, 65, 0
14, 95280, Note_on_c, 11, 65, 52
14, 95384, Note_on_c, 11, 65, 0
14, 95400, Note_on_c, 11, 67, 52
14, 95504, Note_on_c, 11, 67, 0
14, 95520, Note_on_c, 11, 64, 52
14, 95624, Note_on_c, 11, 64, 0
14, 95640, Note_on_c, 11, 64, 52
14, 95744, Note_on_c, 11, 64, 0
14, 95760, Note_on_c, 11, 67, 52
14, 95864, Note_on_c, 11, 67, 0
14, 95880, Note_on_c, 11, 62, 52
14, 95984, Note_on_c, 11, 62, 0
14, 96000, Note_on_c, 11, 62, 52
14, 96104, Note_on_c, 11, 62, 0
14, 96120, Note_on_c, 11, 67, 52
14, 96224, Note_on_c, 11, 67, 0
14, 96240, Note_on_c, 11, 64, 52
14, 96344, Note_on_c, 11, 64, 0
14, 96360, Note_on_c, 11, 64, 52
14, 96464, Note_on_c, 11, 64, 0
14, 96480, Note_on_c, 11, 67, 52
14, 96584, Note_on_c, 11, 67, 0
14, 96600, Note_on_c, 11, 65, 52
14, 96704, Note_on_c, 11, 65, 0
14, 96720, Note_on_c, 11, 65, 54
14, 96824, Note_on_c, 11, 65, 0
14, 96840, Note_on_c, 11, 67, 57
14, 96944, Note_on_c, 11, 67, 0
14, 96960, Note_on_c, 11, 64, 60
14, 97064, Note_on_c, 11, 64, 0
14, 97080, Note_on_c, 11, 67, 62
14, 97184, Note_on_c, 11, 67, 0
14, 97200, Note_on_c, 11, 67, 65
14, 97304, Note_on_c, 11, 67, 0
14, 97320, Note_on_c, 11, 65, 68
14, 97424, Note_on_c, 11, 65, 0
14, 97440, Note_on_c, 11, 65, 70
14, 97544, Note_on_c, 11, 65, 0
14, 97560, Note_on_c, 11, 67, 73
14, 97664, Note_on_c, 11, 67, 0
14, 97680, Note_on_c, 11, 64, 76
14, 97784, Note_on_c, 11, 64, 0
14, 97800, Note_on_c, 11, 64, 78
14, 97904, Note_on_c, 11, 64, 0
14, 97920, Note_on_c, 11, 67, 81
14, 98024, Note_on_c, 11, 67, 0
14, 98040, Note_on_c, 11, 67, 84
14, 98084, Note_on_c, 11, 67, 0
14, 98085, Note_on_c, 11, 69, 84
14, 98129, Note_on_c, 11, 69, 0
14, 98130, Note_on_c, 11, 67, 84
14, 98174, Note_on_c, 11, 67, 0
14, 98175, Note_on_c, 11, 69, 84
14, 98219, Note_on_c, 11, 69, 0
14, 98220, Note_on_c, 11, 67, 84
14, 98264, Note_on_c, 11, 67, 0
14, 98265, Note_on_c, 11, 69, 84
14, 98309, Note_on_c, 11, 69, 0
14, 98310, Note_on_c, 11, 65, 84
14, 98354, Note_on_c, 11, 65, 0
14, 98355, Note_on_c, 11, 67, 84
14, 98399, Note_on_c, 11, 67, 0
14, 98400, Note_on_c, 11, 65, 84
14, 98489, Note_on_c, 11, 65, 0
14, 98520, Note_on_c, 11, 69, 84
14, 98609, Note_on_c, 11, 69, 0
14, 98640, Note_on_c, 11, 65, 84
14, 98729, Note_on_c, 11, 65, 0
14, 98760, Note_on_c, 11, 67, 84
14, 98804, Note_on_c, 11, 67, 0
14, 98805, Note_on_c, 11, 69, 84
14, 98849, Note_on_c, 11, 69, 0
14, 98850, Note_on_c, 11, 67, 84
14, 98894, Note_on_c, 11, 67, 0
14, 98895, Note_on_c, 11, 69, 84
14, 98939, Note_on_c, 11, 69, 0
14, 98940, Note_on_c, 11, 67, 84
14, 98984, Note_on_c, 11, 67, 0
14, 98985, Note_on_c, 11, 69, 84
14, 99029, Note_on_c, 11, 69, 0
14, 99030, Note_on_c, 11, 65, 84
14, 99074, Note_on_c, 11, 65, 0
14, 99075, Note_on_c, 11, 67, 84
14, 99119, Note_on_c, 11, 67, 0
14, 99120, Note_on_c, 11, 65, 84
14, 99209, Note_on_c, 11, 65, 0
14, 99240, Note_on_c, 11, 69, 84
14, 99329, Note_on_c, 11, 69, 0
14, 99360, Note_on_c, 11, 65, 84
14, 99449, Note_on_c, 11, 65, 0
14, 99480, Note_on_c, 11, 67, 84
14, 99524, Note_on_c, 11, 67, 0
14, 99525, Note_on_c, 11, 69, 84
14, 99569, Note_on_c, 11, 69, 0
14, 99570, Note_on_c, 11, 67, 84
14, 99614, Note_on_c, 11, 67, 0
14, 99615, Note_on_c, 11, 69, 84
14, 99659, Note_on_c, 11, 69, 0
14, 99660, Note_on_c, 11, 67, 84
14, 99704, Note_on_c, 11, 67, 0
14, 99705, Note_on_c, 11, 69, 84
14, 99749, Note_on_c, 11, 69, 0
14, 99750, Note_on_c, 11, 65, 84
14, 99794, Note_on_c, 11, 65, 0
14, 99795, Note_on_c, 11, 67, 84
14, 99839, Note_on_c, 11, 67, 0
14, 99840, Note_on_c, 11, 65, 84
14, 99929, Note_on_c, 11, 65, 0
14, 99960, Note_on_c, 11, 69, 84
14, 100049, Note_on_c, 11, 69, 0
14, 100080, Note_on_c, 11, 65, 84
14, 100169, Note_on_c, 11, 65, 0
14, 100200, Note_on_c, 11, 67, 84
14, 100244, Note_on_c, 11, 67, 0
14, 100245, Note_on_c, 11, 69, 84
14, 100289, Note_on_c, 11, 69, 0
14, 100290, Note_on_c, 11, 67, 84
14, 100334, Note_on_c, 11, 67, 0
14, 100335, Note_on_c, 11, 69, 84
14, 100379, Note_on_c, 11, 69, 0
14, 100380, Note_on_c, 11, 67, 84
14, 100424, Note_on_c, 11, 67, 0
14, 100425, Note_on_c, 11, 69, 84
14, 100469, Note_on_c, 11, 69, 0
14, 100470, Note_on_c, 11, 65, 84
14, 100514, Note_on_c, 11, 65, 0
14, 100515, Note_on_c, 11, 67, 84
14, 100559, Note_on_c, 11, 67, 0
14, 100560, Note_on_c, 11, 65, 84
14, 100649, Note_on_c, 11, 65, 0
14, 100680, Note_on_c, 11, 69, 84
14, 100769, Note_on_c, 11, 69, 0
14, 100800, Note_on_c, 11, 65, 84
14, 100889, Note_on_c, 11, 65, 0
14, 100920, Note_on_c, 11, 67, 84
14, 100964, Note_on_c, 11, 67, 0
14, 100965, Note_on_c, 11, 69, 84
14, 101009, Note_on_c, 11, 69, 0
14, 101010, Note_on_c, 11, 67, 84
14, 101054, Note_on_c, 11, 67, 0
14, 101055, Note_on_c, 11, 69, 84
14, 101099, Note_on_c, 11, 69, 0
14, 101100, Note_on_c, 11, 67, 84
14, 101144, Note_on_c, 11, 67, 0
14, 101145, Note_on_c, 11, 69, 84
14, 101189, Note_on_c, 11, 69, 0
14, 101190, Note_on_c, 11, 65, 84
14, 101234, Note_on_c, 11, 65, 0
14, 101235, Note_on_c, 11, 67, 84
14, 101279, Note_on_c, 11, 67, 0
14, 101280, Note_on_c, 11, 65, 84
14, 101369, Note_on_c, 11, 65, 0
14, 101400, Note_on_c, 11, 72, 84
14, 101489, Note_on_c, 11, 72, 0
14, 101520, Note_on_c, 11, 69, 84
14, 101609, Note_on_c, 11, 69, 0
14, 101640, Note_on_c, 11, 65, 84
14, 101729, Note_on_c, 11, 65, 0
14, 101760, Note_on_c, 11, 60, 84
14, 101849, Note_on_c, 11, 60, 0
14, 101880, Note_on_c, 11, 57, 84
14, 101969, Note_on_c, 11, 57, 0
14, 102000, Note_on_c, 11, 65, 84
14, 102000, Note_on_c, 11, 57, 84
14, 102119, Note_on_c, 11, 65, 0
14, 102119, Note_on_c, 11, 57, 0
14, 102960, Note_on_c, 11, 65, 84
14, 103031, Note_on_c, 11, 65, 0
14, 103040, Note_on_c, 11, 65, 84
14, 103079, Note_on_c, 11, 65, 0
14, 103080, Note_on_c, 11, 69, 92
14, 103199, Note_on_c, 11, 69, 0
14, 103200, Note_on_c, 11, 65, 84
14, 103259, Note_on_c, 11, 65, 0
14, 103320, Note_on_c, 11, 65, 84
14, 103391, Note_on_c, 11, 65, 0
14, 103400, Note_on_c, 11, 65, 84
14, 103439, Note_on_c, 11, 65, 0
14, 103440, Note_on_c, 11, 69, 92
14, 103559, Note_on_c, 11, 69, 0
14, 103560, Note_on_c, 11, 65, 84
14, 103619, Note_on_c, 11, 65, 0
14, 103680, Note_on_c, 11, 65, 84
14, 103751, Note_on_c, 11, 65, 0
14, 103760, Note_on_c, 11, 65, 84
14, 103799, Note_on_c, 11, 65, 0
14, 103800, Note_on_c, 11, 69, 92
14, 103919, Note_on_c, 11, 69, 0
14, 103920, Note_on_c, 11, 65, 84
14, 103979, Note_on_c, 11, 65, 0
14, 104040, Note_on_c, 11, 65, 84
14, 104111, Note_on_c, 11, 65, 0
14, 104120, Note_on_c, 11, 65, 84
14, 104159, Note_on_c, 11, 65, 0
14, 104160, Note_on_c, 11, 69, 92
14, 104279, Note_on_c, 11, 69, 0
14, 104280, Note_on_c, 11, 65, 84
14, 104384, Note_on_c, 11, 65, 0
14, 104400, Note_on_c, 11, 65, 84
14, 104471, Note_on_c, 11, 65, 0
14, 104480, Note_on_c, 11, 65, 84
14, 104519, Note_on_c, 11, 65, 0
14, 104520, Note_on_c, 11, 69, 92
14, 104639, Note_on_c, 11, 69, 0
14, 104640, Note_on_c, 11, 65, 84
14, 104744, Note_on_c, 11, 65, 0
14, 104760, Note_on_c, 11, 65, 84
14, 104831, Note_on_c, 11, 65, 0
14, 104840, Note_on_c, 11, 65, 84
14, 104879, Note_on_c, 11, 65, 0
14, 104880, Note_on_c, 11, 69, 92
14, 104999, Note_on_c, 11, 69, 0
14, 105000, Note_on_c, 11, 65, 84
14, 105104, Note_on_c, 11, 65, 0
14, 105120, Note_on_c, 11, 65, 84
14, 105209, Note_on_c, 11, 65, 0
14, 105240, Note_on_c, 11, 81, 84
14, 105240, Note_on_c, 11, 69, 84
14, 105240, Control_c, 11, 11, 127
14, 105280, Control_c, 11, 11, 125
14, 105320, Control_c, 11, 11, 124
14, 105360, Control_c, 11, 11, 122
14, 105400, Control_c, 11, 11, 120
14, 105440, Control_c, 11, 11, 118
14, 105480, Control_c, 11, 11, 117
14, 105520, Control_c, 11, 11, 115
14, 105560, Control_c, 11, 11, 113
14, 105599, Note_on_c, 11, 81, 0
14, 105599, Note_on_c, 11, 69, 0
14, 105600, Control_c, 11, 11, 111
14, 105600, Note_on_c, 11, 69, 84
14, 105600, Note_on_c, 11, 81, 84
14, 105640, Control_c, 11, 11, 110
14, 105680, Control_c, 11, 11, 108
14, 105720, Control_c, 11, 11, 106
14, 105760, Control_c, 11, 11, 104
14, 105800, Control_c, 11, 11, 103
14, 105840, Control_c, 11, 11, 101
14, 105880, Control_c, 11, 11, 99
14, 105920, Control_c, 11, 11, 97
14, 105959, Note_on_c, 11, 69, 0
14, 105959, Note_on_c, 11, 81, 0
14, 105960, Control_c, 11, 11, 96
14, 105960, Note_on_c, 11, 69, 84
14, 105960, Note_on_c, 11, 81, 84
14, 106000, Control_c, 11, 11, 94
14, 106040, Control_c, 11, 11, 92
14, 106080, Control_c, 11, 11, 90
14, 106120, Control_c, 11, 11, 89
14, 106160, Control_c, 11, 11, 87
14, 106200, Control_c, 11, 11, 85
14, 106240, Control_c, 11, 11, 83
14, 106280, Control_c, 11, 11, 82
14, 106319, Note_on_c, 11, 69, 0
14, 106319, Note_on_c, 11, 81, 0
14, 106320, Note_on_c, 11, 81, 84
14, 106320, Note_on_c, 11, 69, 84
14, 106320, Control_c, 11, 11, 80
14, 106360, Control_c, 11, 11, 78
14, 106400, Control_c, 11, 11, 76
14, 106440, Control_c, 11, 11, 75
14, 106480, Control_c, 11, 11, 73
14, 106520, Control_c, 11, 11, 71
14, 106560, Control_c, 11, 11, 69
14, 106600, Control_c, 11, 11, 68
14, 106678, Control_c, 11, 11, 80
14, 106679, Note_on_c, 11, 81, 0
14, 106679, Note_on_c, 11, 69, 0
14, 106680, Note_on_c, 11, 69, 76
14, 107399, Note_on_c, 11, 69, 0
14, 107400, Note_on_c, 11, 69, 76
14, 108119, Note_on_c, 11, 69, 0
14, 108120, Note_on_c, 11, 69, 76
14, 108835, Note_on_c, 11, 69, 0
14, 108838, Control_c, 11, 11, 96
14, 108840, Note_on_c, 11, 69, 68
14, 109559, Note_on_c, 11, 69, 0
14, 109560, Note_on_c, 11, 69, 68
14, 110275, Note_on_c, 11, 69, 0
14, 110278, Control_c, 11, 11, 112
14, 110280, Note_on_c, 11, 69, 60
14, 110999, Note_on_c, 11, 69, 0
14, 111000, Note_on_c, 11, 69, 60
14, 111599, Note_on_c, 11, 69, 0
14, 111600, Note_on_c, 11, 68, 60
14, 111699, Note_on_c, 11, 68, 0
14, 111720, Note_on_c, 11, 69, 60
14, 112319, Note_on_c, 11, 69, 0
14, 112320, Note_on_c, 11, 68, 60
14, 112419, Note_on_c, 11, 68, 0
14, 112438, Control_c, 11, 11, 127
14, 112440, Note_on_c, 11, 69, 52
14, 113159, Note_on_c, 11, 69, 0
14, 113160, Note_on_c, 11, 69, 52
14, 113879, Note_on_c, 11, 69, 0
14, 113880, Note_on_c, 11, 69, 52
14, 114599, Note_on_c, 11, 69, 0
14, 114600, Note_on_c, 11, 69, 52
14, 115319, Note_on_c, 11, 69, 0
14, 115320, Note_on_c, 11, 69, 52
14, 116039, Note_on_c, 11, 69, 0
14, 116040, Note_on_c, 11, 69, 52
14, 116759, Note_on_c, 11, 69, 0
14, 116760, Note_on_c, 11, 69, 52
14, 117239, Note_on_c, 11, 69, 0
14, 117240, Note_on_c, 11, 66, 52
14, 117479, Note_on_c, 11, 66, 0
14, 117480, Note_on_c, 11, 69, 52
14, 117719, Note_on_c, 11, 69, 0
14, 117720, Note_on_c, 11, 67, 52
14, 117959, Note_on_c, 11, 67, 0
14, 117960, Note_on_c, 11, 64, 52
14, 118079, Note_on_c, 11, 64, 0
14, 118080, Note_on_c, 11, 69, 52
14, 118179, Note_on_c, 11, 69, 0
14, 118200, Note_on_c, 11, 69, 52
14, 118919, Note_on_c, 11, 69, 0
14, 118920, Note_on_c, 11, 69, 52
14, 119639, Note_on_c, 11, 69, 0
14, 119640, Note_on_c, 11, 69, 52
14, 120359, Note_on_c, 11, 69, 0
14, 120360, Note_on_c, 11, 69, 52
14, 121079, Note_on_c, 11, 69, 0
14, 121080, Note_on_c, 11, 69, 52
14, 121799, Note_on_c, 11, 69, 0
14, 121800, Note_on_c, 11, 69, 52
14, 122519, Note_on_c, 11, 69, 0
14, 122520, Note_on_c, 11, 69, 52
14, 123119, Note_on_c, 11, 69, 0
14, 123120, Note_on_c, 11, 68, 52
14, 123219, Note_on_c, 11, 68, 0
14, 123240, Note_on_c, 11, 69, 52
14, 123839, Note_on_c, 11, 69, 0
14, 123840, Note_on_c, 11, 68, 52
14, 123939, Note_on_c, 11, 68, 0
14, 123960, Note_on_c, 11, 69, 52
14, 124679, Note_on_c, 11, 69, 0
14, 124680, Note_on_c, 11, 69, 52
14, 125399, Note_on_c, 11, 69, 0
14, 125400, Note_on_c, 11, 69, 52
14, 126119, Note_on_c, 11, 69, 0
14, 126120, Note_on_c, 11, 69, 52
14, 126839, Note_on_c, 11, 69, 0
14, 126840, Note_on_c, 11, 69, 52
14, 127559, Note_on_c, 11, 69, 0
14, 127560, Note_on_c, 11, 69, 52
14, 128279, Note_on_c, 11, 69, 0
14, 128280, Note_on_c, 11, 69, 52
14, 128759, Note_on_c, 11, 69, 0
14, 128760, Note_on_c, 11, 66, 52
14, 128999, Note_on_c, 11, 66, 0
14, 129000, Note_on_c, 11, 69, 52
14, 129239, Note_on_c, 11, 69, 0
14, 129240, Note_on_c, 11, 66, 52
14, 129479, Note_on_c, 11, 66, 0
14, 129480, Note_on_c, 11, 62, 52
14, 129599, Note_on_c, 11, 62, 0
14, 129600, Note_on_c, 11, 69, 52
14, 129699, Note_on_c, 11, 69, 0
14, 129720, Note_on_c, 11, 69, 52
14, 130439, Note_on_c, 11, 69, 0
14, 130440, Note_on_c, 11, 69, 52
14, 131159, Note_on_c, 11, 69, 0
14, 131160, Note_on_c, 11, 69, 52
14, 131879, Note_on_c, 11, 69, 0
14, 131880, Note_on_c, 11, 69, 52
14, 132599, Note_on_c, 11, 69, 0
14, 132600, Note_on_c, 11, 69, 52
14, 133319, Note_on_c, 11, 69, 0
14, 133320, Note_on_c, 11, 69, 52
14, 134039, Note_on_c, 11, 69, 0
14, 134040, Note_on_c, 11, 69, 52
14, 134639, Note_on_c, 11, 69, 0
14, 134640, Note_on_c, 11, 68, 52
14, 134759, Note_on_c, 11, 68, 0
14, 134760, Note_on_c, 11, 69, 52
14, 135359, Note_on_c, 11, 69, 0
14, 135360, Note_on_c, 11, 68, 52
14, 135459, Note_on_c, 11, 68, 0
14, 135480, Note_on_c, 11, 69, 52
14, 136199, Note_on_c, 11, 69, 0
14, 136200, Note_on_c, 11, 69, 52
14, 136919, Note_on_c, 11, 69, 0
14, 136920, Note_on_c, 11, 69, 52
14, 137639, Note_on_c, 11, 69, 0
14, 137640, Note_on_c, 11, 69, 52
14, 138359, Note_on_c, 11, 69, 0
14, 138360, Note_on_c, 11, 69, 52
14, 139079, Note_on_c, 11, 69, 0
14, 139080, Note_on_c, 11, 69, 52
14, 139799, Note_on_c, 11, 69, 0
14, 139800, Note_on_c, 11, 69, 52
14, 140519, Note_on_c, 11, 69, 0
14, 140520, Note_on_c, 11, 69, 52
14, 141119, Note_on_c, 11, 69, 0
14, 141120, Note_on_c, 11, 68, 52
14, 141219, Note_on_c, 11, 68, 0
14, 141240, Note_on_c, 11, 69, 52
14, 141959, Note_on_c, 11, 69, 0
14, 141960, Note_on_c, 11, 69, 52
14, 142559, Note_on_c, 11, 69, 0
14, 142560, Note_on_c, 11, 68, 52
14, 142659, Note_on_c, 11, 68, 0
14, 142678, Control_c, 11, 11, 64
14, 142680, Note_on_c, 11, 69, 84
14, 142771, Control_c, 11, 11, 65
14, 142863, Control_c, 11, 11, 66
14, 142954, Control_c, 11, 11, 67
14, 143046, Control_c, 11, 11, 68
14, 143137, Control_c, 11, 11, 69
14, 143229, Control_c, 11, 11, 70
14, 143320, Control_c, 11, 11, 71
14, 143399, Note_on_c, 11, 69, 0
14, 143400, Note_on_c, 11, 69, 84
14, 143411, Control_c, 11, 11, 72
14, 143503, Control_c, 11, 11, 73
14, 143594, Control_c, 11, 11, 74
14, 143686, Control_c, 11, 11, 75
14, 143777, Control_c, 11, 11, 76
14, 143869, Control_c, 11, 11, 77
14, 143960, Control_c, 11, 11, 78
14, 144051, Control_c, 11, 11, 79
14, 144119, Note_on_c, 11, 69, 0
14, 144120, Note_on_c, 11, 69, 84
14, 144143, Control_c, 11, 11, 80
14, 144234, Control_c, 11, 11, 81
14, 144326, Control_c, 11, 11, 82
14, 144417, Control_c, 11, 11, 83
14, 144509, Control_c, 11, 11, 84
14, 144600, Control_c, 11, 11, 85
14, 144691, Control_c, 11, 11, 86
14, 144783, Control_c, 11, 11, 87
14, 144839, Note_on_c, 11, 69, 0
14, 144840, Note_on_c, 11, 69, 84
14, 144874, Control_c, 11, 11, 88
14, 144966, Control_c, 11, 11, 89
14, 145057, Control_c, 11, 11, 90
14, 145149, Control_c, 11, 11, 91
14, 145240, Control_c, 11, 11, 92
14, 145331, Control_c, 11, 11, 93
14, 145423, Control_c, 11, 11, 94
14, 145514, Control_c, 11, 11, 95
14, 145559, Note_on_c, 11, 69, 0
14, 145560, Note_on_c, 11, 69, 84
14, 145606, Control_c, 11, 11, 96
14, 145697, Control_c, 11, 11, 97
14, 145789, Control_c, 11, 11, 98
14, 145880, Control_c, 11, 11, 99
14, 145971, Control_c, 11, 11, 100
14, 146063, Control_c, 11, 11, 101
14, 146154, Control_c, 11, 11, 102
14, 146246, Control_c, 11, 11, 103
14, 146279, Note_on_c, 11, 69, 0
14, 146280, Note_on_c, 11, 69, 84
14, 146337, Control_c, 11, 11, 104
14, 146429, Control_c, 11, 11, 105
14, 146520, Control_c, 11, 11, 106
14, 146611, Control_c, 11, 11, 107
14, 146703, Control_c, 11, 11, 108
14, 146794, Control_c, 11, 11, 109
14, 146886, Control_c, 11, 11, 110
14, 146977, Control_c, 11, 11, 111
14, 147069, Control_c, 11, 11, 112
14, 147160, Control_c, 11, 11, 113
14, 147219, Note_on_c, 11, 69, 0
14, 147240, Note_on_c, 11, 73, 84
14, 147251, Control_c, 11, 11, 114
14, 147343, Control_c, 11, 11, 115
14, 147434, Control_c, 11, 11, 116
14, 147526, Control_c, 11, 11, 117
14, 147617, Control_c, 11, 11, 118
14, 147699, Note_on_c, 11, 73, 0
14, 147709, Control_c, 11, 11, 119
14, 147720, Note_on_c, 11, 73, 84
14, 147800, Control_c, 11, 11, 120
14, 147891, Control_c, 11, 11, 121
14, 147983, Control_c, 11, 11, 122
14, 148074, Control_c, 11, 11, 123
14, 148166, Control_c, 11, 11, 124
14, 148179, Note_on_c, 11, 73, 0
14, 148200, Note_on_c, 11, 85, 84
14, 148257, Control_c, 11, 11, 125
14, 148349, Control_c, 11, 11, 127
14, 148419, Note_on_c, 11, 85, 0
14, 148440, Note_on_c, 11, 74, 84
14, 148440, Note_on_c, 11, 86, 84
14, 149039, Note_on_c, 11, 74, 0
14, 149039, Note_on_c, 11, 86, 0
14, 149040, Note_on_c, 11, 85, 84
14, 149159, Note_on_c, 11, 85, 0
14, 149160, Note_on_c, 11, 74, 84
14, 149160, Note_on_c, 11, 86, 84
14, 149399, Note_on_c, 11, 74, 0
14, 149399, Note_on_c, 11, 86, 0
14, 149880, Note_on_c, 11, 74, 84
14, 149880, Note_on_c, 11, 86, 84
14, 150479, Note_on_c, 11, 74, 0
14, 150479, Note_on_c, 11, 86, 0
14, 150480, Note_on_c, 11, 85, 84
14, 150599, Note_on_c, 11, 85, 0
14, 150600, Note_on_c, 11, 86, 84
14, 150600, Note_on_c, 11, 74, 84
14, 150839, Note_on_c, 11, 86, 0
14, 150839, Note_on_c, 11, 74, 0
14, 151320, Note_on_c, 11, 86, 84
14, 151559, Note_on_c, 11, 86, 0
14, 151560, Note_on_c, 11, 74, 84
14, 151799, Note_on_c, 11, 74, 0
14, 151800, Note_on_c, 11, 73, 84
14, 152019, Note_on_c, 11, 73, 0
14, 152040, Note_on_c, 11, 74, 84
14, 152279, Note_on_c, 11, 74, 0
14, 152280, Note_on_c, 11, 73, 84
14, 152280, Note_on_c, 11, 64, 84
14, 152499, Note_on_c, 11, 73, 0
14, 152499, Note_on_c, 11, 64, 0
14, 152520, Note_on_c, 11, 74, 84
14, 152520, Note_on_c, 11, 66, 84
14, 152699, Note_on_c, 11, 74, 0
14, 152699, Note_on_c, 11, 66, 0
14, 152760, Note_on_c, 11, 73, 84
14, 152760, Note_on_c, 11, 64, 84
14, 152999, Note_on_c, 11, 73, 0
14, 152999, Note_on_c, 11, 64, 0
14, 154200, Note_on_c, 11, 76, 84
14, 154799, Note_on_c, 11, 76, 0
14, 154800, Note_on_c, 11, 75, 84
14, 154919, Note_on_c, 11, 75, 0
14, 154920, Note_on_c, 11, 76, 84
14, 155159, Note_on_c, 11, 76, 0
14, 155640, Note_on_c, 11, 76, 84
14, 156239, Note_on_c, 11, 76, 0
14, 156240, Note_on_c, 11, 75, 84
14, 156359, Note_on_c, 11, 75, 0
14, 156360, Note_on_c, 11, 76, 84
14, 156599, Note_on_c, 11, 76, 0
14, 157080, Note_on_c, 11, 76, 84
14, 157319, Note_on_c, 11, 76, 0
14, 157320, Note_on_c, 11, 73, 84
14, 157559, Note_on_c, 11, 73, 0
14, 157560, Note_on_c, 11, 74, 84
14, 157799, Note_on_c, 11, 74, 0
14, 157800, Note_on_c, 11, 71, 84
14, 158039, Note_on_c, 11, 71, 0
14, 158040, Note_on_c, 11, 73, 84
14, 158259, Note_on_c, 11, 73, 0
14, 158280, Note_on_c, 11, 76, 84
14, 158280, Note_on_c, 11, 67, 84
14, 158459, Note_on_c, 11, 76, 0
14, 158459, Note_on_c, 11, 67, 0
14, 158520, Note_on_c, 11, 57, 84
14, 158520, Note_on_c, 11, 66, 84
14, 158520, Note_on_c, 11, 74, 84
14, 158759, Note_on_c, 11, 57, 0
14, 158759, Note_on_c, 11, 66, 0
14, 158759, Note_on_c, 11, 74, 0
14, 159960, Note_on_c, 11, 69, 52
14, 160679, Note_on_c, 11, 69, 0
14, 160680, Note_on_c, 11, 69, 52
14, 161399, Note_on_c, 11, 69, 0
14, 161400, Note_on_c, 11, 69, 52
14, 162119, Note_on_c, 11, 69, 0
14, 162120, Note_on_c, 11, 69, 52
14, 162839, Note_on_c, 11, 69, 0
14, 162840, Note_on_c, 11, 69, 52
14, 163559, Note_on_c, 11, 69, 0
14, 163560, Note_on_c, 11, 69, 52
14, 164279, Note_on_c, 11, 69, 0
14, 164280, Note_on_c, 11, 69, 52
14, 164879, Note_on_c, 11, 69, 0
14, 164880, Note_on_c, 11, 68, 52
14, 164999, Note_on_c, 11, 68, 0
14, 165000, Note_on_c, 11, 69, 52
14, 165599, Note_on_c, 11, 69, 0
14, 165600, Note_on_c, 11, 68, 52
14, 165699, Note_on_c, 11, 68, 0
14, 165720, Note_on_c, 11, 69, 52
14, 166439, Note_on_c, 11, 69, 0
14, 166440, Note_on_c, 11, 69, 52
14, 167159, Note_on_c, 11, 69, 0
14, 167160, Note_on_c, 11, 69, 52
14, 167879, Note_on_c, 11, 69, 0
14, 167880, Note_on_c, 11, 69, 52
14, 168599, Note_on_c, 11, 69, 0
14, 168600, Note_on_c, 11, 69, 52
14, 169319, Note_on_c, 11, 69, 0
14, 169320, Note_on_c, 11, 69, 52
14, 170039, Note_on_c, 11, 69, 0
14, 170040, Note_on_c, 11, 69, 52
14, 170759, Note_on_c, 11, 69, 0
14, 170760, Note_on_c, 11, 69, 52
14, 171359, Note_on_c, 11, 69, 0
14, 171360, Note_on_c, 11, 68, 52
14, 171459, Note_on_c, 11, 68, 0
14, 171480, Note_on_c, 11, 69, 52
14, 172199, Note_on_c, 11, 69, 0
14, 172200, Note_on_c, 11, 69, 52
14, 172799, Note_on_c, 11, 69, 0
14, 172800, Note_on_c, 11, 68, 52
14, 172899, Note_on_c, 11, 68, 0
14, 172918, Control_c, 11, 11, 64
14, 172920, Note_on_c, 11, 69, 84
14, 173011, Control_c, 11, 11, 65
14, 173103, Control_c, 11, 11, 66
14, 173194, Control_c, 11, 11, 67
14, 173286, Control_c, 11, 11, 68
14, 173377, Control_c, 11, 11, 69
14, 173469, Control_c, 11, 11, 70
14, 173560, Control_c, 11, 11, 71
14, 173639, Note_on_c, 11, 69, 0
14, 173640, Note_on_c, 11, 69, 84
14, 173651, Control_c, 11, 11, 72
14, 173743, Control_c, 11, 11, 73
14, 173834, Control_c, 11, 11, 74
14, 173926, Control_c, 11, 11, 75
14, 174017, Control_c, 11, 11, 76
14, 174109, Control_c, 11, 11, 77
14, 174200, Control_c, 11, 11, 78
14, 174291, Control_c, 11, 11, 79
14, 174359, Note_on_c, 11, 69, 0
14, 174360, Note_on_c, 11, 69, 84
14, 174383, Control_c, 11, 11, 80
14, 174474, Control_c, 11, 11, 81
14, 174566, Control_c, 11, 11, 82
14, 174657, Control_c, 11, 11, 83
14, 174749, Control_c, 11, 11, 84
14, 174840, Control_c, 11, 11, 85
14, 174931, Control_c, 11, 11, 86
14, 175023, Control_c, 11, 11, 87
14, 175079, Note_on_c, 11, 69, 0
14, 175080, Note_on_c, 11, 69, 84
14, 175114, Control_c, 11, 11, 88
14, 175206, Control_c, 11, 11, 89
14, 175297, Control_c, 11, 11, 90
14, 175389, Control_c, 11, 11, 91
14, 175480, Control_c, 11, 11, 92
14, 175571, Control_c, 11, 11, 93
14, 175663, Control_c, 11, 11, 94
14, 175754, Control_c, 11, 11, 95
14, 175799, Note_on_c, 11, 69, 0
14, 175800, Note_on_c, 11, 69, 84
14, 175846, Control_c, 11, 11, 96
14, 175937, Control_c, 11, 11, 97
14, 176029, Control_c, 11, 11, 98
14, 176120, Control_c, 11, 11, 99
14, 176211, Control_c, 11, 11, 100
14, 176303, Control_c, 11, 11, 101
14, 176394, Control_c, 11, 11, 102
14, 176486, Control_c, 11, 11, 103
14, 176519, Note_on_c, 11, 69, 0
14, 176520, Note_on_c, 11, 69, 84
14, 176577, Control_c, 11, 11, 104
14, 176669, Control_c, 11, 11, 105
14, 176760, Control_c, 11, 11, 106
14, 176851, Control_c, 11, 11, 107
14, 176943, Control_c, 11, 11, 108
14, 177034, Control_c, 11, 11, 109
14, 177126, Control_c, 11, 11, 110
14, 177217, Control_c, 11, 11, 111
14, 177309, Control_c, 11, 11, 112
14, 177400, Control_c, 11, 11, 113
14, 177459, Note_on_c, 11, 69, 0
14, 177480, Note_on_c, 11, 73, 84
14, 177491, Control_c, 11, 11, 114
14, 177583, Control_c, 11, 11, 115
14, 177674, Control_c, 11, 11, 116
14, 177766, Control_c, 11, 11, 117
14, 177857, Control_c, 11, 11, 118
14, 177939, Note_on_c, 11, 73, 0
14, 177949, Control_c, 11, 11, 119
14, 177960, Note_on_c, 11, 73, 84
14, 178040, Control_c, 11, 11, 120
14, 178131, Control_c, 11, 11, 121
14, 178223, Control_c, 11, 11, 122
14, 178314, Control_c, 11, 11, 123
14, 178406, Control_c, 11, 11, 124
14, 178419, Note_on_c, 11, 73, 0
14, 178440, Note_on_c, 11, 85, 84
14, 178497, Control_c, 11, 11, 125
14, 178589, Control_c, 11, 11, 127
14, 178659, Note_on_c, 11, 85, 0
14, 178680, Note_on_c, 11, 86, 84
14, 178680, Note_on_c, 11, 74, 84
14, 179279, Note_on_c, 11, 86, 0
14, 179279, Note_on_c, 11, 74, 0
14, 179280, Note_on_c, 11, 85, 84
14, 179399, Note_on_c, 11, 85, 0
14, 179400, Note_on_c, 11, 74, 84
14, 179400, Note_on_c, 11, 86, 84
14, 179639, Note_on_c, 11, 74, 0
14, 179639, Note_on_c, 11, 86, 0
14, 180120, Note_on_c, 11, 86, 84
14, 180120, Note_on_c, 11, 74, 84
14, 180719, Note_on_c, 11, 86, 0
14, 180719, Note_on_c, 11, 74, 0
14, 180720, Note_on_c, 11, 85, 84
14, 180839, Note_on_c, 11, 85, 0
14, 180840, Note_on_c, 11, 74, 84
14, 180840, Note_on_c, 11, 86, 84
14, 181079, Note_on_c, 11, 74, 0
14, 181079, Note_on_c, 11, 86, 0
14, 181560, Note_on_c, 11, 86, 84
14, 181799, Note_on_c, 11, 86, 0
14, 181800, Note_on_c, 11, 74, 84
14, 182039, Note_on_c, 11, 74, 0
14, 182040, Note_on_c, 11, 73, 84
14, 182259, Note_on_c, 11, 73, 0
14, 182280, Note_on_c, 11, 74, 84
14, 182519, Note_on_c, 11, 74, 0
14, 182520, Note_on_c, 11, 64, 84
14, 182520, Note_on_c, 11, 73, 84
14, 182739, Note_on_c, 11, 64, 0
14, 182739, Note_on_c, 11, 73, 0
14, 182760, Note_on_c, 11, 74, 84
14, 182760, Note_on_c, 11, 66, 84
14, 182939, Note_on_c, 11, 74, 0
14, 182939, Note_on_c, 11, 66, 0
14, 183000, Note_on_c, 11, 73, 84
14, 183000, Note_on_c, 11, 64, 84
14, 183239, Note_on_c, 11, 73, 0
14, 183239, Note_on_c, 11, 64, 0
14, 184440, Note_on_c, 11, 76, 84
14, 185039, Note_on_c, 11, 76, 0
14, 185040, Note_on_c, 11, 75, 84
14, 185159, Note_on_c, 11, 75, 0
14, 185160, Note_on_c, 11, 76, 84
14, 185399, Note_on_c, 11, 76, 0
14, 185880, Note_on_c, 11, 76, 84
14, 186479, Note_on_c, 11, 76, 0
14, 186480, Note_on_c, 11, 75, 84
14, 186599, Note_on_c, 11, 75, 0
14, 186600, Note_on_c, 11, 76, 84
14, 186839, Note_on_c, 11, 76, 0
14, 187320, Note_on_c, 11, 76, 84
14, 187559, Note_on_c, 11, 76, 0
14, 187560, Note_on_c, 11, 73, 84
14, 187799, Note_on_c, 11, 73, 0
14, 187800, Note_on_c, 11, 74, 84
14, 188039, Note_on_c, 11, 74, 0
14, 188040, Note_on_c, 11, 71, 84
14, 188279, Note_on_c, 11, 71, 0
14, 188280, Note_on_c, 11, 73, 84
14, 188499, Note_on_c, 11, 73, 0
14, 188520, Note_on_c, 11, 76, 84
14, 188520, Note_on_c, 11, 67, 84
14, 188699, Note_on_c, 11, 76, 0
14, 188699, Note_on_c, 11, 67, 0
14, 188760, Note_on_c, 11, 66, 84
14, 188760, Note_on_c, 11, 57, 84
14, 188760, Note_on_c, 11, 74, 84
14, 188999, Note_on_c, 11, 66, 0
14, 188999, Note_on_c, 11, 57, 0
14, 188999, Note_on_c, 11, 74, 0
14, 190200, Note_on_c, 11, 62, 52
14, 190919, Note_on_c, 11, 62, 0
14, 190920, Note_on_c, 11, 62, 52
14, 191619, Note_on_c, 11, 62, 0
14, 191640, Note_on_c, 11, 64, 52
14, 191640, Control_c, 11, 11, 127
14, 191872, Control_c, 11, 11, 126
14, 192105, Control_c, 11, 11, 125
14, 192337, Control_c, 11, 11, 124
14, 192359, Note_on_c, 11, 64, 0
14, 192360, Note_on_c, 11, 64, 52
14, 192569, Control_c, 11, 11, 123
14, 192801, Control_c, 11, 11, 122
14, 193034, Control_c, 11, 11, 121
14, 193059, Note_on_c, 11, 64, 0
14, 193080, Note_on_c, 11, 62, 52
14, 193266, Control_c, 11, 11, 120
14, 193498, Control_c, 11, 11, 119
14, 193730, Control_c, 11, 11, 118
14, 193799, Note_on_c, 11, 62, 0
14, 193800, Note_on_c, 11, 62, 52
14, 193963, Control_c, 11, 11, 117
14, 194195, Control_c, 11, 11, 116
14, 194427, Control_c, 11, 11, 115
14, 194499, Note_on_c, 11, 62, 0
14, 194520, Note_on_c, 11, 61, 52
14, 194659, Control_c, 11, 11, 114
14, 194892, Control_c, 11, 11, 113
14, 195124, Control_c, 11, 11, 112
14, 195239, Note_on_c, 11, 61, 0
14, 195240, Note_on_c, 11, 61, 52
14, 195356, Control_c, 11, 11, 111
14, 195588, Control_c, 11, 11, 110
14, 195821, Control_c, 11, 11, 109
14, 195939, Note_on_c, 11, 61, 0
14, 195960, Note_on_c, 11, 62, 52
14, 196053, Control_c, 11, 11, 108
14, 196285, Control_c, 11, 11, 107
14, 196517, Control_c, 11, 11, 106
14, 196679, Note_on_c, 11, 62, 0
14, 196680, Note_on_c, 11, 62, 52
14, 196750, Control_c, 11, 11, 105
14, 196982, Control_c, 11, 11, 104
14, 197214, Control_c, 11, 11, 103
14, 197379, Note_on_c, 11, 62, 0
14, 197400, Note_on_c, 11, 64, 52
14, 197446, Control_c, 11, 11, 102
14, 197679, Control_c, 11, 11, 101
14, 197911, Control_c, 11, 11, 100
14, 198119, Note_on_c, 11, 64, 0
14, 198120, Note_on_c, 11, 64, 52
14, 198143, Control_c, 11, 11, 99
14, 198375, Control_c, 11, 11, 98
14, 198608, Control_c, 11, 11, 96
14, 198819, Note_on_c, 11, 64, 0
14, 198840, Note_on_c, 11, 64, 52
14, 199559, Note_on_c, 11, 64, 0
14, 199560, Note_on_c, 11, 64, 52
14, 200019, Note_on_c, 11, 64, 0
14, 200038, Control_c, 11, 11, 127
14, 200040, Note_on_c, 11, 65, 76
14, 200111, Note_on_c, 11, 65, 0
14, 200120, Note_on_c, 11, 65, 76
14, 200159, Note_on_c, 11, 65, 0
14, 200160, Note_on_c, 11, 69, 76
14, 200279, Note_on_c, 11, 69, 0
14, 200280, Note_on_c, 11, 65, 76
14, 200339, Note_on_c, 11, 65, 0
14, 200400, Note_on_c, 11, 65, 76
14, 200471, Note_on_c, 11, 65, 0
14, 200480, Note_on_c, 11, 65, 76
14, 200519, Note_on_c, 11, 65, 0
14, 200520, Note_on_c, 11, 69, 76
14, 200639, Note_on_c, 11, 69, 0
14, 200640, Note_on_c, 11, 65, 76
14, 200699, Note_on_c, 11, 65, 0
14, 200760, Note_on_c, 11, 69, 76
14, 200864, Note_on_c, 11, 69, 0
14, 200880, Note_on_c, 11, 69, 52
14, 200969, Note_on_c, 11, 69, 0
14, 201000, Note_on_c, 11, 69, 52
14, 201089, Note_on_c, 11, 69, 0
14, 201120, Note_on_c, 11, 72, 52
14, 201209, Note_on_c, 11, 72, 0
14, 201240, Note_on_c, 11, 70, 52
14, 201329, Note_on_c, 11, 70, 0
14, 201360, Note_on_c, 11, 70, 52
14, 201449, Note_on_c, 11, 70, 0
14, 201480, Note_on_c, 11, 69, 52
14, 201569, Note_on_c, 11, 69, 0
14, 201600, Note_on_c, 11, 67, 52
14, 201689, Note_on_c, 11, 67, 0
14, 201720, Note_on_c, 11, 67, 52
14, 201809, Note_on_c, 11, 67, 0
14, 201840, Note_on_c, 11, 65, 52
14, 201929, Note_on_c, 11, 65, 0
14, 201960, Note_on_c, 11, 64, 52
14, 202304, Note_on_c, 11, 64, 0
14, 202320, Note_on_c, 11, 76, 52
14, 202409, Note_on_c, 11, 76, 0
14, 202440, Note_on_c, 11, 76, 52
14, 202529, Note_on_c, 11, 76, 0
14, 202560, Note_on_c, 11, 74, 52
14, 202649, Note_on_c, 11, 74, 0
14, 202680, Note_on_c, 11, 72, 52
14, 202769, Note_on_c, 11, 72, 0
14, 202800, Note_on_c, 11, 72, 52
14, 202889, Note_on_c, 11, 72, 0
14, 202920, Note_on_c, 11, 70, 52
14, 203009, Note_on_c, 11, 70, 0
14, 203040, Note_on_c, 11, 69, 52
14, 203129, Note_on_c, 11, 69, 0
14, 203160, Note_on_c, 11, 69, 52
14, 203249, Note_on_c, 11, 69, 0
14, 203280, Note_on_c, 11, 67, 52
14, 203369, Note_on_c, 11, 67, 0
14, 203400, Note_on_c, 11, 65, 52
14, 203744, Note_on_c, 11, 65, 0
14, 203760, Note_on_c, 11, 64, 52
14, 203849, Note_on_c, 11, 64, 0
14, 203880, Note_on_c, 11, 64, 52
14, 203969, Note_on_c, 11, 64, 0
14, 204000, Note_on_c, 11, 65, 52
14, 204089, Note_on_c, 11, 65, 0
14, 204120, Note_on_c, 11, 64, 52
14, 204359, Note_on_c, 11, 64, 0
14, 204360, Note_on_c, 11, 65, 52
14, 204464, Note_on_c, 11, 65, 0
14, 204480, Note_on_c, 11, 64, 52
14, 204569, Note_on_c, 11, 64, 0
14, 204600, Note_on_c, 11, 64, 56
14, 204689, Note_on_c, 11, 64, 0
14, 204720, Note_on_c, 11, 65, 60
14, 204809, Note_on_c, 11, 65, 0
14, 204840, Note_on_c, 11, 64, 64
14, 205079, Note_on_c, 11, 64, 0
14, 205080, Note_on_c, 11, 65, 72
14, 205184, Note_on_c, 11, 65, 0
14, 205200, Note_on_c, 11, 68, 84
14, 205439, Note_on_c, 11, 68, 0
14, 205440, Note_on_c, 11, 69, 76
14, 205544, Note_on_c, 11, 69, 0
14, 205560, Note_on_c, 11, 59, 84
14, 205799, Note_on_c, 11, 59, 0
14, 205800, Note_on_c, 11, 61, 76
14, 205904, Note_on_c, 11, 61, 0
14, 205920, Note_on_c, 11, 68, 76
14, 206024, Note_on_c, 11, 68, 0
14, 206040, Note_on_c, 11, 71, 76
14, 206144, Note_on_c, 11, 71, 0
14, 206160, Note_on_c, 11, 71, 76
14, 206264, Note_on_c, 11, 71, 0
14, 206280, Note_on_c, 11, 69, 76
14, 206384, Note_on_c, 11, 69, 0
14, 206400, Note_on_c, 11, 73, 76
14, 206504, Note_on_c, 11, 73, 0
14, 206520, Note_on_c, 11, 73, 76
14, 206624, Note_on_c, 11, 73, 0
14, 206640, Note_on_c, 11, 71, 76
14, 206744, Note_on_c, 11, 71, 0
14, 206760, Note_on_c, 11, 64, 76
14, 206864, Note_on_c, 11, 64, 0
14, 206880, Note_on_c, 11, 71, 76
14, 206984, Note_on_c, 11, 71, 0
14, 207000, Note_on_c, 11, 69, 76
14, 207104, Note_on_c, 11, 69, 0
14, 207120, Note_on_c, 11, 73, 76
14, 207224, Note_on_c, 11, 73, 0
14, 207240, Note_on_c, 11, 73, 76
14, 207344, Note_on_c, 11, 73, 0
14, 207360, Note_on_c, 11, 68, 76
14, 207464, Note_on_c, 11, 68, 0
14, 207480, Note_on_c, 11, 71, 76
14, 207584, Note_on_c, 11, 71, 0
14, 207600, Note_on_c, 11, 71, 76
14, 207704, Note_on_c, 11, 71, 0
14, 207720, Note_on_c, 11, 69, 76
14, 207809, Note_on_c, 11, 69, 0
14, 207840, Note_on_c, 11, 76, 76
14, 207929, Note_on_c, 11, 76, 0
14, 207960, Note_on_c, 11, 73, 76
14, 208049, Note_on_c, 11, 73, 0
14, 208080, Note_on_c, 11, 69, 76
14, 208169, Note_on_c, 11, 69, 0
14, 208200, Note_on_c, 11, 64, 76
14, 208289, Note_on_c, 11, 64, 0
14, 208320, Note_on_c, 11, 61, 76
14, 208409, Note_on_c, 11, 61, 0
14, 208440, Note_on_c, 11, 57, 76
14, 208529, Note_on_c, 11, 57, 0
14, 208680, Note_on_c, 11, 65, 52
14, 208751, Note_on_c, 11, 65, 0
14, 208760, Note_on_c, 11, 65, 52
14, 208799, Note_on_c, 11, 65, 0
14, 208800, Note_on_c, 11, 69, 52
14, 208919, Note_on_c, 11, 69, 0
14, 208920, Note_on_c, 11, 65, 52
14, 208979, Note_on_c, 11, 65, 0
14, 209040, Note_on_c, 11, 65, 52
14, 209111, Note_on_c, 11, 65, 0
14, 209120, Note_on_c, 11, 65, 52
14, 209159, Note_on_c, 11, 65, 0
14, 209160, Note_on_c, 11, 69, 52
14, 209279, Note_on_c, 11, 69, 0
14, 209280, Note_on_c, 11, 65, 52
14, 209339, Note_on_c, 11, 65, 0
14, 209400, Note_on_c, 11, 69, 52
14, 209504, Note_on_c, 11, 69, 0
14, 209520, Note_on_c, 11, 69, 52
14, 209609, Note_on_c, 11, 69, 0
14, 209640, Note_on_c, 11, 69, 52
14, 209729, Note_on_c, 11, 69, 0
14, 209760, Note_on_c, 11, 72, 52
14, 209849, Note_on_c, 11, 72, 0
14, 209880, Note_on_c, 11, 70, 52
14, 209969, Note_on_c, 11, 70, 0
14, 210000, Note_on_c, 11, 70, 52
14, 210089, Note_on_c, 11, 70, 0
14, 210120, Note_on_c, 11, 69, 52
14, 210209, Note_on_c, 11, 69, 0
14, 210240, Note_on_c, 11, 67, 52
14, 210329, Note_on_c, 11, 67, 0
14, 210360, Note_on_c, 11, 67, 52
14, 210449, Note_on_c, 11, 67, 0
14, 210480, Note_on_c, 11, 65, 52
14, 210569, Note_on_c, 11, 65, 0
14, 210600, Note_on_c, 11, 64, 52
14, 210944, Note_on_c, 11, 64, 0
14, 210960, Note_on_c, 11, 76, 52
14, 211049, Note_on_c, 11, 76, 0
14, 211080, Note_on_c, 11, 76, 52
14, 211169, Note_on_c, 11, 76, 0
14, 211200, Note_on_c, 11, 74, 52
14, 211289, Note_on_c, 11, 74, 0
14, 211320, Note_on_c, 11, 72, 52
14, 211409, Note_on_c, 11, 72, 0
14, 211440, Note_on_c, 11, 72, 52
14, 211529, Note_on_c, 11, 72, 0
14, 211560, Note_on_c, 11, 70, 52
14, 211649, Note_on_c, 11, 70, 0
14, 211680, Note_on_c, 11, 69, 52
14, 211769, Note_on_c, 11, 69, 0
14, 211800, Note_on_c, 11, 69, 52
14, 211889, Note_on_c, 11, 69, 0
14, 211920, Note_on_c, 11, 67, 52
14, 212009, Note_on_c, 11, 67, 0
14, 212040, Note_on_c, 11, 65, 52
14, 212384, Note_on_c, 11, 65, 0
14, 212400, Note_on_c, 11, 64, 52
14, 212489, Note_on_c, 11, 64, 0
14, 212520, Note_on_c, 11, 64, 52
14, 212609, Note_on_c, 11, 64, 0
14, 212640, Note_on_c, 11, 65, 52
14, 212729, Note_on_c, 11, 65, 0
14, 212760, Note_on_c, 11, 64, 52
14, 212999, Note_on_c, 11, 64, 0
14, 213000, Note_on_c, 11, 65, 52
14, 213104, Note_on_c, 11, 65, 0
14, 213120, Note_on_c, 11, 64, 52
14, 213209, Note_on_c, 11, 64, 0
14, 213240, Note_on_c, 11, 64, 52
14, 213329, Note_on_c, 11, 64, 0
14, 213360, Note_on_c, 11, 65, 52
14, 213449, Note_on_c, 11, 65, 0
14, 213480, Note_on_c, 11, 64, 52
14, 213719, Note_on_c, 11, 64, 0
14, 213720, Note_on_c, 11, 65, 52
14, 213824, Note_on_c, 11, 65, 0
14, 213840, Note_on_c, 11, 68, 52
14, 214079, Note_on_c, 11, 68, 0
14, 214080, Note_on_c, 11, 69, 52
14, 214184, Note_on_c, 11, 69, 0
14, 214200, Note_on_c, 11, 59, 52
14, 214439, Note_on_c, 11, 59, 0
14, 214440, Note_on_c, 11, 61, 52
14, 214544, Note_on_c, 11, 61, 0
14, 214560, Note_on_c, 11, 68, 52
14, 214664, Note_on_c, 11, 68, 0
14, 214680, Note_on_c, 11, 71, 52
14, 214784, Note_on_c, 11, 71, 0
14, 214800, Note_on_c, 11, 71, 52
14, 214904, Note_on_c, 11, 71, 0
14, 214920, Note_on_c, 11, 69, 52
14, 215024, Note_on_c, 11, 69, 0
14, 215040, Note_on_c, 11, 73, 52
14, 215144, Note_on_c, 11, 73, 0
14, 215160, Note_on_c, 11, 73, 52
14, 215264, Note_on_c, 11, 73, 0
14, 215280, Note_on_c, 11, 71, 52
14, 215384, Note_on_c, 11, 71, 0
14, 215400, Note_on_c, 11, 64, 52
14, 215504, Note_on_c, 11, 64, 0
14, 215520, Note_on_c, 11, 71, 52
14, 215624, Note_on_c, 11, 71, 0
14, 215640, Note_on_c, 11, 69, 52
14, 215744, Note_on_c, 11, 69, 0
14, 215760, Note_on_c, 11, 73, 52
14, 215864, Note_on_c, 11, 73, 0
14, 215880, Note_on_c, 11, 73, 52
14, 215984, Note_on_c, 11, 73, 0
14, 216000, Note_on_c, 11, 68, 52
14, 216104, Note_on_c, 11, 68, 0
14, 216120, Note_on_c, 11, 71, 52
14, 216224, Note_on_c, 11, 71, 0
14, 216240, Note_on_c, 11, 71, 52
14, 216344, Note_on_c, 11, 71, 0
14, 216360, Note_on_c, 11, 69, 52
14, 216449, Note_on_c, 11, 69, 0
14, 216480, Note_on_c, 11, 76, 52
14, 216569, Note_on_c, 11, 76, 0
14, 216600, Note_on_c, 11, 73, 52
14, 216689, Note_on_c, 11, 73, 0
14, 216720, Note_on_c, 11, 69, 52
14, 216809, Note_on_c, 11, 69, 0
14, 216840, Note_on_c, 11, 64, 52
14, 216929, Note_on_c, 11, 64, 0
14, 216960, Note_on_c, 11, 61, 52
14, 217049, Note_on_c, 11, 61, 0
14, 217080, Note_on_c, 11, 57, 52
14, 217169, Note_on_c, 11, 57, 0
14, 218040, Note_on_c, 11, 69, 52
14, 218111, Note_on_c, 11, 69, 0
14, 218120, Note_on_c, 11, 69, 52
14, 218159, Note_on_c, 11, 69, 0
14, 218160, Note_on_c, 11, 73, 52
14, 218279, Note_on_c, 11, 73, 0
14, 218280, Note_on_c, 11, 69, 52
14, 218339, Note_on_c, 11, 69, 0
14, 221760, Note_on_c, 11, 73, 44
14, 221999, Note_on_c, 11, 73, 0
14, 222000, Note_on_c, 11, 74, 44
14, 222104, Note_on_c, 11, 74, 0
14, 222120, Note_on_c, 11, 73, 44
14, 222359, Note_on_c, 11, 73, 0
14, 222360, Note_on_c, 11, 74, 44
14, 222464, Note_on_c, 11, 74, 0
14, 222480, Note_on_c, 11, 73, 44
14, 222719, Note_on_c, 11, 73, 0
14, 222720, Note_on_c, 11, 74, 44
14, 222824, Note_on_c, 11, 74, 0
14, 222840, Note_on_c, 11, 73, 44
14, 223079, Note_on_c, 11, 73, 0
14, 223080, Note_on_c, 11, 74, 44
14, 223199, Note_on_c, 11, 74, 0
14, 224160, Note_on_c, 11, 71, 44
14, 224264, Note_on_c, 11, 71, 0
14, 224280, Note_on_c, 11, 74, 44
14, 224399, Note_on_c, 11, 74, 0
14, 224400, Note_on_c, 11, 71, 44
14, 224459, Note_on_c, 11, 71, 0
14, 227520, Note_on_c, 11, 76, 44
14, 227759, Note_on_c, 11, 76, 0
14, 227760, Note_on_c, 11, 77, 44
14, 227864, Note_on_c, 11, 77, 0
14, 227880, Note_on_c, 11, 76, 44
14, 228119, Note_on_c, 11, 76, 0
14, 228120, Note_on_c, 11, 77, 44
14, 228224, Note_on_c, 11, 77, 0
14, 228240, Note_on_c, 11, 76, 44
14, 228479, Note_on_c, 11, 76, 0
14, 228480, Note_on_c, 11, 77, 44
14, 228584, Note_on_c, 11, 77, 0
14, 228600, Note_on_c, 11, 76, 44
14, 228839, Note_on_c, 11, 76, 0
14, 228840, Note_on_c, 11, 77, 44
14, 228959, Note_on_c, 11, 77, 0
14, 229920, Note_on_c, 11, 69, 44
14, 230024, Note_on_c, 11, 69, 0
14, 230040, Note_on_c, 11, 72, 44
14, 230159, Note_on_c, 11, 72, 0
14, 230160, Note_on_c, 11, 69, 44
14, 230219, Note_on_c, 11, 69, 0
14, 230280, Note_on_c, 11, 70, 44
14, 230384, Note_on_c, 11, 70, 0
14, 230400, Note_on_c, 11, 70, 44
14, 230489, Note_on_c, 11, 70, 0
14, 230520, Note_on_c, 11, 70, 44
14, 230609, Note_on_c, 11, 70, 0
14, 230640, Note_on_c, 11, 70, 44
14, 230729, Note_on_c, 11, 70, 0
14, 230760, Note_on_c, 11, 70, 44
14, 230984, Note_on_c, 11, 70, 0
14, 231000, Note_on_c, 11, 70, 44
14, 231104, Note_on_c, 11, 70, 0
14, 231120, Note_on_c, 11, 70, 44
14, 231209, Note_on_c, 11, 70, 0
14, 231240, Note_on_c, 11, 70, 44
14, 231329, Note_on_c, 11, 70, 0
14, 231360, Note_on_c, 11, 70, 44
14, 231449, Note_on_c, 11, 70, 0
14, 231480, Note_on_c, 11, 70, 44
14, 231704, Note_on_c, 11, 70, 0
14, 231720, Note_on_c, 11, 70, 44
14, 231824, Note_on_c, 11, 70, 0
14, 231840, Note_on_c, 11, 62, 44
14, 231929, Note_on_c, 11, 62, 0
14, 231960, Note_on_c, 11, 65, 44
14, 232049, Note_on_c, 11, 65, 0
14, 232080, Note_on_c, 11, 65, 44
14, 232169, Note_on_c, 11, 65, 0
14, 232200, Note_on_c, 11, 62, 44
14, 232289, Note_on_c, 11, 62, 0
14, 232320, Note_on_c, 11, 65, 44
14, 232409, Note_on_c, 11, 65, 0
14, 232440, Note_on_c, 11, 65, 44
14, 232529, Note_on_c, 11, 65, 0
14, 232560, Note_on_c, 11, 62, 44
14, 232649, Note_on_c, 11, 62, 0
14, 232680, Note_on_c, 11, 65, 44
14, 232769, Note_on_c, 11, 65, 0
14, 232800, Note_on_c, 11, 65, 44
14, 232889, Note_on_c, 11, 65, 0
14, 232920, Note_on_c, 11, 62, 44
14, 233009, Note_on_c, 11, 62, 0
14, 233040, Note_on_c, 11, 65, 44
14, 233129, Note_on_c, 11, 65, 0
14, 233160, Note_on_c, 11, 65, 44
14, 233249, Note_on_c, 11, 65, 0
14, 233280, Note_on_c, 11, 60, 44
14, 233369, Note_on_c, 11, 60, 0
14, 233400, Note_on_c, 11, 60, 44
14, 233489, Note_on_c, 11, 60, 0
14, 233520, Note_on_c, 11, 65, 44
14, 233609, Note_on_c, 11, 65, 0
14, 233640, Note_on_c, 11, 60, 44
14, 233729, Note_on_c, 11, 60, 0
14, 233760, Note_on_c, 11, 60, 44
14, 233849, Note_on_c, 11, 60, 0
14, 233880, Note_on_c, 11, 65, 44
14, 233969, Note_on_c, 11, 65, 0
14, 234000, Note_on_c, 11, 60, 44
14, 234089, Note_on_c, 11, 60, 0
14, 234120, Note_on_c, 11, 60, 44
14, 234209, Note_on_c, 11, 60, 0
14, 234240, Note_on_c, 11, 65, 44
14, 234329, Note_on_c, 11, 65, 0
14, 234360, Note_on_c, 11, 60, 44
14, 234449, Note_on_c, 11, 60, 0
14, 234480, Note_on_c, 11, 60, 44
14, 234569, Note_on_c, 11, 60, 0
14, 234600, Note_on_c, 11, 65, 44
14, 234689, Note_on_c, 11, 65, 0
14, 234720, Note_on_c, 11, 65, 44
14, 234809, Note_on_c, 11, 65, 0
14, 234840, Note_on_c, 11, 65, 44
14, 234929, Note_on_c, 11, 65, 0
14, 234960, Note_on_c, 11, 65, 44
14, 235049, Note_on_c, 11, 65, 0
14, 235080, Note_on_c, 11, 62, 44
14, 235169, Note_on_c, 11, 62, 0
14, 235200, Note_on_c, 11, 62, 44
14, 235289, Note_on_c, 11, 62, 0
14, 235320, Note_on_c, 11, 65, 45
14, 235409, Note_on_c, 11, 65, 0
14, 235440, Note_on_c, 11, 62, 46
14, 235529, Note_on_c, 11, 62, 0
14, 235560, Note_on_c, 11, 62, 46
14, 235649, Note_on_c, 11, 62, 0
14, 235680, Note_on_c, 11, 65, 47
14, 235769, Note_on_c, 11, 65, 0
14, 235800, Note_on_c, 11, 62, 48
14, 235889, Note_on_c, 11, 62, 0
14, 235920, Note_on_c, 11, 62, 49
14, 236009, Note_on_c, 11, 62, 0
14, 236040, Note_on_c, 11, 65, 49
14, 236129, Note_on_c, 11, 65, 0
14, 236160, Note_on_c, 11, 65, 50
14, 236249, Note_on_c, 11, 65, 0
14, 236280, Note_on_c, 11, 65, 51
14, 236369, Note_on_c, 11, 65, 0
14, 236400, Note_on_c, 11, 65, 52
14, 236489, Note_on_c, 11, 65, 0
14, 236520, Note_on_c, 11, 65, 52
14, 236609, Note_on_c, 11, 65, 0
14, 236640, Note_on_c, 11, 65, 53
14, 236729, Note_on_c, 11, 65, 0
14, 236760, Note_on_c, 11, 69, 54
14, 236849, Note_on_c, 11, 69, 0
14, 236880, Note_on_c, 11, 65, 54
14, 236969, Note_on_c, 11, 65, 0
14, 237000, Note_on_c, 11, 65, 55
14, 237089, Note_on_c, 11, 65, 0
14, 237120, Note_on_c, 11, 69, 56
14, 237209, Note_on_c, 11, 69, 0
14, 237240, Note_on_c, 11, 65, 57
14, 237329, Note_on_c, 11, 65, 0
14, 237360, Note_on_c, 11, 65, 57
14, 237449, Note_on_c, 11, 65, 0
14, 237480, Note_on_c, 11, 69, 58
14, 237569, Note_on_c, 11, 69, 0
14, 237600, Note_on_c, 11, 65, 59
14, 237689, Note_on_c, 11, 65, 0
14, 237720, Note_on_c, 11, 65, 60
14, 237809, Note_on_c, 11, 65, 0
14, 237840, Note_on_c, 11, 70, 60
14, 237929, Note_on_c, 11, 70, 0
14, 238680, Note_on_c, 11, 67, 65
14, 238769, Note_on_c, 11, 67, 0
14, 238800, Note_on_c, 11, 67, 66
14, 238889, Note_on_c, 11, 67, 0
14, 238920, Note_on_c, 11, 65, 67
14, 239009, Note_on_c, 11, 65, 0
14, 239040, Note_on_c, 11, 64, 68
14, 239129, Note_on_c, 11, 64, 0
14, 239160, Note_on_c, 11, 64, 68
14, 239249, Note_on_c, 11, 64, 0
14, 239280, Note_on_c, 11, 62, 69
14, 239369, Note_on_c, 11, 62, 0
14, 239400, Note_on_c, 11, 60, 70
14, 239489, Note_on_c, 11, 60, 0
14, 239520, Note_on_c, 11, 60, 70
14, 239609, Note_on_c, 11, 60, 0
14, 239640, Note_on_c, 11, 58, 71
14, 239729, Note_on_c, 11, 58, 0
14, 239760, Note_on_c, 11, 57, 72
14, 239849, Note_on_c, 11, 57, 0
14, 239880, Note_on_c, 11, 57, 73
14, 239969, Note_on_c, 11, 57, 0
14, 240000, Note_on_c, 11, 55, 73
14, 240089, Note_on_c, 11, 55, 0
14, 240120, Note_on_c, 11, 65, 74
14, 240209, Note_on_c, 11, 65, 0
14, 240240, Note_on_c, 11, 64, 75
14, 240329, Note_on_c, 11, 64, 0
14, 240360, Note_on_c, 11, 65, 76
14, 240419, Note_on_c, 11, 65, 0
14, 240440, Note_on_c, 11, 65, 76
14, 240479, Note_on_c, 11, 65, 0
14, 240480, Note_on_c, 11, 69, 76
14, 240599, Note_on_c, 11, 69, 0
14, 240600, Note_on_c, 11, 65, 76
14, 240659, Note_on_c, 11, 65, 0
14, 240720, Note_on_c, 11, 69, 76
14, 240779, Note_on_c, 11, 69, 0
14, 240800, Note_on_c, 11, 69, 76
14, 240839, Note_on_c, 11, 69, 0
14, 240840, Note_on_c, 11, 72, 76
14, 240959, Note_on_c, 11, 72, 0
14, 240960, Note_on_c, 11, 69, 76
14, 241019, Note_on_c, 11, 69, 0
14, 241080, Note_on_c, 11, 72, 76
14, 241184, Note_on_c, 11, 72, 0
14, 241200, Note_on_c, 11, 77, 84
14, 241289, Note_on_c, 11, 77, 0
14, 241320, Note_on_c, 11, 77, 84
14, 241409, Note_on_c, 11, 77, 0
14, 241440, Note_on_c, 11, 76, 84
14, 241529, Note_on_c, 11, 76, 0
14, 241560, Note_on_c, 11, 74, 84
14, 241649, Note_on_c, 11, 74, 0
14, 241680, Note_on_c, 11, 74, 84
14, 241769, Note_on_c, 11, 74, 0
14, 241800, Note_on_c, 11, 72, 84
14, 241889, Note_on_c, 11, 72, 0
14, 241920, Note_on_c, 11, 70, 84
14, 242009, Note_on_c, 11, 70, 0
14, 242040, Note_on_c, 11, 70, 84
14, 242129, Note_on_c, 11, 70, 0
14, 242160, Note_on_c, 11, 69, 84
14, 242249, Note_on_c, 11, 69, 0
14, 242280, Note_on_c, 11, 67, 84
14, 242624, Note_on_c, 11, 67, 0
14, 242640, Note_on_c, 11, 79, 84
14, 242729, Note_on_c, 11, 79, 0
14, 242760, Note_on_c, 11, 79, 84
14, 242849, Note_on_c, 11, 79, 0
14, 242880, Note_on_c, 11, 77, 84
14, 242969, Note_on_c, 11, 77, 0
14, 243000, Note_on_c, 11, 76, 84
14, 243089, Note_on_c, 11, 76, 0
14, 243120, Note_on_c, 11, 76, 84
14, 243209, Note_on_c, 11, 76, 0
14, 243240, Note_on_c, 11, 74, 84
14, 243329, Note_on_c, 11, 74, 0
14, 243360, Note_on_c, 11, 72, 84
14, 243449, Note_on_c, 11, 72, 0
14, 243480, Note_on_c, 11, 72, 84
14, 243569, Note_on_c, 11, 72, 0
14, 243600, Note_on_c, 11, 70, 84
14, 243689, Note_on_c, 11, 70, 0
14, 243720, Note_on_c, 11, 69, 84
14, 244064, Note_on_c, 11, 69, 0
14, 244080, Note_on_c, 11, 69, 52
14, 244439, Note_on_c, 11, 69, 0
14, 244440, Note_on_c, 11, 69, 52
14, 244799, Note_on_c, 11, 69, 0
14, 244800, Note_on_c, 11, 69, 52
14, 245279, Note_on_c, 11, 69, 0
14, 245280, Note_on_c, 11, 72, 52
14, 245384, Note_on_c, 11, 72, 0
14, 245400, Note_on_c, 11, 72, 52
14, 245489, Note_on_c, 11, 72, 0
14, 245520, Note_on_c, 11, 72, 52
14, 245879, Note_on_c, 11, 72, 0
14, 245880, Note_on_c, 11, 72, 52
14, 246239, Note_on_c, 11, 72, 0
14, 246240, Note_on_c, 11, 72, 52
14, 246719, Note_on_c, 11, 72, 0
14, 246720, Note_on_c, 11, 77, 52
14, 246824, Note_on_c, 11, 77, 0
14, 246840, Note_on_c, 11, 77, 52
14, 246929, Note_on_c, 11, 77, 0
14, 246960, Note_on_c, 11, 64, 52
14, 247049, Note_on_c, 11, 64, 0
14, 247080, Note_on_c, 11, 64, 52
14, 247169, Note_on_c, 11, 64, 0
14, 247200, Note_on_c, 11, 65, 52
14, 247289, Note_on_c, 11, 65, 0
14, 247320, Note_on_c, 11, 64, 52
14, 247559, Note_on_c, 11, 64, 0
14, 247560, Note_on_c, 11, 65, 52
14, 247679, Note_on_c, 11, 65, 0
14, 248280, Control_c, 11, 11, 80
14, 248400, Note_on_c, 11, 64, 76
14, 248440, Control_c, 11, 11, 83
14, 248480, Control_c, 11, 11, 85
14, 248489, Note_on_c, 11, 64, 0
14, 248520, Control_c, 11, 11, 88
14, 248520, Note_on_c, 11, 64, 76
14, 248560, Control_c, 11, 11, 90
14, 248600, Control_c, 11, 11, 93
14, 248609, Note_on_c, 11, 64, 0
14, 248640, Note_on_c, 11, 65, 76
14, 248640, Control_c, 11, 11, 96
14, 248680, Control_c, 11, 11, 98
14, 248720, Control_c, 11, 11, 101
14, 248729, Note_on_c, 11, 65, 0
14, 248760, Note_on_c, 11, 64, 76
14, 248760, Control_c, 11, 11, 104
14, 248800, Control_c, 11, 11, 106
14, 248840, Control_c, 11, 11, 109
14, 248880, Control_c, 11, 11, 111
14, 248920, Control_c, 11, 11, 114
14, 248960, Control_c, 11, 11, 117
14, 248999, Note_on_c, 11, 64, 0
14, 249000, Control_c, 11, 11, 119
14, 249000, Note_on_c, 11, 65, 76
14, 249040, Control_c, 11, 11, 122
14, 249080, Control_c, 11, 11, 127
14, 249104, Note_on_c, 11, 65, 0
14, 249120, Note_on_c, 11, 65, 76
14, 249344, Note_on_c, 11, 65, 0
14, 249360, Note_on_c, 11, 65, 76
14, 249464, Note_on_c, 11, 65, 0
14, 249480, Note_on_c, 11, 71, 84
14, 249719, Note_on_c, 11, 71, 0
14, 249720, Note_on_c, 11, 72, 76
14, 249824, Note_on_c, 11, 72, 0
14, 249840, Note_on_c, 11, 72, 84
14, 250064, Note_on_c, 11, 72, 0
14, 250080, Note_on_c, 11, 72, 76
14, 250184, Note_on_c, 11, 72, 0
14, 250200, Note_on_c, 11, 77, 84
14, 250439, Note_on_c, 11, 77, 0
14, 250440, Note_on_c, 11, 76, 76
14, 250544, Note_on_c, 11, 76, 0
14, 250560, Note_on_c, 11, 65, 52
14, 250664, Note_on_c, 11, 65, 0
14, 250680, Note_on_c, 11, 65, 52
14, 250784, Note_on_c, 11, 65, 0
14, 250800, Note_on_c, 11, 67, 52
14, 250904, Note_on_c, 11, 67, 0
14, 250920, Note_on_c, 11, 64, 52
14, 251024, Note_on_c, 11, 64, 0
14, 251040, Note_on_c, 11, 64, 52
14, 251144, Note_on_c, 11, 64, 0
14, 251160, Note_on_c, 11, 67, 52
14, 251264, Note_on_c, 11, 67, 0
14, 251280, Note_on_c, 11, 62, 52
14, 251384, Note_on_c, 11, 62, 0
14, 251400, Note_on_c, 11, 62, 52
14, 251504, Note_on_c, 11, 62, 0
14, 251520, Note_on_c, 11, 67, 52
14, 251624, Note_on_c, 11, 67, 0
14, 251640, Note_on_c, 11, 64, 52
14, 251744, Note_on_c, 11, 64, 0
14, 251760, Note_on_c, 11, 64, 52
14, 251864, Note_on_c, 11, 64, 0
14, 251880, Note_on_c, 11, 67, 52
14, 251984, Note_on_c, 11, 67, 0
14, 252000, Note_on_c, 11, 65, 52
14, 252104, Note_on_c, 11, 65, 0
14, 252120, Note_on_c, 11, 65, 54
14, 252224, Note_on_c, 11, 65, 0
14, 252240, Note_on_c, 11, 67, 57
14, 252344, Note_on_c, 11, 67, 0
14, 252360, Note_on_c, 11, 64, 60
14, 252464, Note_on_c, 11, 64, 0
14, 252480, Note_on_c, 11, 67, 62
14, 252584, Note_on_c, 11, 67, 0
14, 252600, Note_on_c, 11, 67, 65
14, 252704, Note_on_c, 11, 67, 0
14, 252720, Note_on_c, 11, 65, 68
14, 252824, Note_on_c, 11, 65, 0
14, 252840, Note_on_c, 11, 65, 70
14, 252944, Note_on_c, 11, 65, 0
14, 252960, Note_on_c, 11, 67, 73
14, 253064, Note_on_c, 11, 67, 0
14, 253080, Note_on_c, 11, 64, 76
14, 253184, Note_on_c, 11, 64, 0
14, 253200, Note_on_c, 11, 64, 78
14, 253304, Note_on_c, 11, 64, 0
14, 253320, Note_on_c, 11, 67, 81
14, 253424, Note_on_c, 11, 67, 0
14, 253440, Note_on_c, 11, 67, 84
14, 253484, Note_on_c, 11, 67, 0
14, 253485, Note_on_c, 11, 69, 84
14, 253529, Note_on_c, 11, 69, 0
14, 253530, Note_on_c, 11, 67, 84
14, 253574, Note_on_c, 11, 67, 0
14, 253575, Note_on_c, 11, 69, 84
14, 253619, Note_on_c, 11, 69, 0
14, 253620, Note_on_c, 11, 67, 84
14, 253664, Note_on_c, 11, 67, 0
14, 253665, Note_on_c, 11, 69, 84
14, 253709, Note_on_c, 11, 69, 0
14, 253710, Note_on_c, 11, 65, 84
14, 253754, Note_on_c, 11, 65, 0
14, 253755, Note_on_c, 11, 67, 84
14, 253799, Note_on_c, 11, 67, 0
14, 253800, Note_on_c, 11, 65, 84
14, 253889, Note_on_c, 11, 65, 0
14, 253920, Note_on_c, 11, 69, 84
14, 254009, Note_on_c, 11, 69, 0
14, 254040, Note_on_c, 11, 65, 84
14, 254129, Note_on_c, 11, 65, 0
14, 254160, Note_on_c, 11, 67, 84
14, 254204, Note_on_c, 11, 67, 0
14, 254205, Note_on_c, 11, 69, 84
14, 254249, Note_on_c, 11, 69, 0
14, 254250, Note_on_c, 11, 67, 84
14, 254294, Note_on_c, 11, 67, 0
14, 254295, Note_on_c, 11, 69, 84
14, 254339, Note_on_c, 11, 69, 0
14, 254340, Note_on_c, 11, 67, 84
14, 254384, Note_on_c, 11, 67, 0
14, 254385, Note_on_c, 11, 69, 84
14, 254429, Note_on_c, 11, 69, 0
14, 254430, Note_on_c, 11, 65, 84
14, 254474, Note_on_c, 11, 65, 0
14, 254475, Note_on_c, 11, 67, 84
14, 254519, Note_on_c, 11, 67, 0
14, 254520, Note_on_c, 11, 65, 84
14, 254609, Note_on_c, 11, 65, 0
14, 254640, Note_on_c, 11, 69, 84
14, 254729, Note_on_c, 11, 69, 0
14, 254760, Note_on_c, 11, 65, 84
14, 254849, Note_on_c, 11, 65, 0
14, 254880, Note_on_c, 11, 67, 84
14, 254924, Note_on_c, 11, 67, 0
14, 254925, Note_on_c, 11, 69, 84
14, 254969, Note_on_c, 11, 69, 0
14, 254970, Note_on_c, 11, 67, 84
14, 255014, Note_on_c, 11, 67, 0
14, 255015, Note_on_c, 11, 69, 84
14, 255059, Note_on_c, 11, 69, 0
14, 255060, Note_on_c, 11, 67, 84
14, 255104, Note_on_c, 11, 67, 0
14, 255105, Note_on_c, 11, 69, 84
14, 255149, Note_on_c, 11, 69, 0
14, 255150, Note_on_c, 11, 65, 84
14, 255194, Note_on_c, 11, 65, 0
14, 255195, Note_on_c, 11, 67, 84
14, 255239, Note_on_c, 11, 67, 0
14, 255240, Note_on_c, 11, 65, 84
14, 255329, Note_on_c, 11, 65, 0
14, 255360, Note_on_c, 11, 69, 84
14, 255449, Note_on_c, 11, 69, 0
14, 255480, Note_on_c, 11, 65, 84
14, 255569, Note_on_c, 11, 65, 0
14, 255600, Note_on_c, 11, 67, 84
14, 255644, Note_on_c, 11, 67, 0
14, 255645, Note_on_c, 11, 69, 84
14, 255689, Note_on_c, 11, 69, 0
14, 255690, Note_on_c, 11, 67, 84
14, 255734, Note_on_c, 11, 67, 0
14, 255735, Note_on_c, 11, 69, 84
14, 255779, Note_on_c, 11, 69, 0
14, 255780, Note_on_c, 11, 67, 84
14, 255824, Note_on_c, 11, 67, 0
14, 255825, Note_on_c, 11, 69, 84
14, 255869, Note_on_c, 11, 69, 0
14, 255870, Note_on_c, 11, 65, 84
14, 255914, Note_on_c, 11, 65, 0
14, 255915, Note_on_c, 11, 67, 84
14, 255959, Note_on_c, 11, 67, 0
14, 255960, Note_on_c, 11, 65, 84
14, 256049, Note_on_c, 11, 65, 0
14, 256080, Note_on_c, 11, 69, 84
14, 256169, Note_on_c, 11, 69, 0
14, 256200, Note_on_c, 11, 65, 84
14, 256289, Note_on_c, 11, 65, 0
14, 256320, Note_on_c, 11, 67, 84
14, 256364, Note_on_c, 11, 67, 0
14, 256365, Note_on_c, 11, 69, 84
14, 256409, Note_on_c, 11, 69, 0
14, 256410, Note_on_c, 11, 67, 84
14, 256454, Note_on_c, 11, 67, 0
14, 256455, Note_on_c, 11, 69, 84
14, 256499, Note_on_c, 11, 69, 0
14, 256500, Note_on_c, 11, 67, 84
14, 256544, Note_on_c, 11, 67, 0
14, 256545, Note_on_c, 11, 69, 84
14, 256589, Note_on_c, 11, 69, 0
14, 256590, Note_on_c, 11, 65, 84
14, 256634, Note_on_c, 11, 65, 0
14, 256635, Note_on_c, 11, 67, 84
14, 256679, Note_on_c, 11, 67, 0
14, 256680, Note_on_c, 11, 65, 84
14, 256769, Note_on_c, 11, 65, 0
14, 256800, Note_on_c, 11, 72, 84
14, 256889, Note_on_c, 11, 72, 0
14, 256920, Note_on_c, 11, 69, 84
14, 257009, Note_on_c, 11, 69, 0
14, 257040, Note_on_c, 11, 65, 84
14, 257129, Note_on_c, 11, 65, 0
14, 257160, Note_on_c, 11, 60, 84
14, 257249, Note_on_c, 11, 60, 0
14, 257280, Note_on_c, 11, 57, 84
14, 257369, Note_on_c, 11, 57, 0
14, 257400, Note_on_c, 11, 57, 84
14, 257400, Note_on_c, 11, 65, 84
14, 257519, Note_on_c, 11, 57, 0
14, 257519, Note_on_c, 11, 65, 0
14, 258360, Note_on_c, 11, 65, 84
14, 258431, Note_on_c, 11, 65, 0
14, 258440, Note_on_c, 11, 65, 84
14, 258479, Note_on_c, 11, 65, 0
14, 258480, Note_on_c, 11, 69, 92
14, 258599, Note_on_c, 11, 69, 0
14, 258600, Note_on_c, 11, 65, 84
14, 258659, Note_on_c, 11, 65, 0
14, 258720, Note_on_c, 11, 65, 84
14, 258791, Note_on_c, 11, 65, 0
14, 258800, Note_on_c, 11, 65, 84
14, 258839, Note_on_c, 11, 65, 0
14, 258840, Note_on_c, 11, 69, 92
14, 258959, Note_on_c, 11, 69, 0
14, 258960, Note_on_c, 11, 65, 84
14, 259019, Note_on_c, 11, 65, 0
14, 259080, Note_on_c, 11, 65, 84
14, 259151, Note_on_c, 11, 65, 0
14, 259160, Note_on_c, 11, 65, 84
14, 259199, Note_on_c, 11, 65, 0
14, 259200, Note_on_c, 11, 69, 92
14, 259319, Note_on_c, 11, 69, 0
14, 259320, Note_on_c, 11, 65, 84
14, 259379, Note_on_c, 11, 65, 0
14, 259440, Note_on_c, 11, 65, 84
14, 259511, Note_on_c, 11, 65, 0
14, 259520, Note_on_c, 11, 65, 84
14, 259559, Note_on_c, 11, 65, 0
14, 259560, Note_on_c, 11, 69, 92
14, 259679, Note_on_c, 11, 69, 0
14, 259680, Note_on_c, 11, 65, 84
14, 259784, Note_on_c, 11, 65, 0
14, 259800, Note_on_c, 11, 65, 84
14, 259871, Note_on_c, 11, 65, 0
14, 259880, Note_on_c, 11, 65, 84
14, 259919, Note_on_c, 11, 65, 0
14, 259920, Note_on_c, 11, 69, 92
14, 260039, Note_on_c, 11, 69, 0
14, 260040, Note_on_c, 11, 65, 84
14, 260144, Note_on_c, 11, 65, 0
14, 260160, Note_on_c, 11, 65, 84
14, 260231, Note_on_c, 11, 65, 0
14, 260240, Note_on_c, 11, 65, 84
14, 260279, Note_on_c, 11, 65, 0
14, 260280, Note_on_c, 11, 69, 92
14, 260399, Note_on_c, 11, 69, 0
14, 260400, Note_on_c, 11, 65, 84
14, 260504, Note_on_c, 11, 65, 0
14, 260520, Note_on_c, 11, 65, 84
14, 260609, Note_on_c, 11, 65, 0
14, 260640, Control_c, 11, 11, 127
14, 260640, Note_on_c, 11, 69, 84
14, 260640, Note_on_c, 11, 81, 84
14, 260680, Control_c, 11, 11, 125
14, 260720, Control_c, 11, 11, 124
14, 260760, Control_c, 11, 11, 122
14, 260800, Control_c, 11, 11, 120
14, 260840, Control_c, 11, 11, 118
14, 260880, Control_c, 11, 11, 117
14, 260920, Control_c, 11, 11, 115
14, 260960, Control_c, 11, 11, 113
14, 260999, Note_on_c, 11, 69, 0
14, 260999, Note_on_c, 11, 81, 0
14, 261000, Note_on_c, 11, 69, 84
14, 261000, Control_c, 11, 11, 111
14, 261000, Note_on_c, 11, 81, 84
14, 261040, Control_c, 11, 11, 110
14, 261080, Control_c, 11, 11, 108
14, 261120, Control_c, 11, 11, 106
14, 261160, Control_c, 11, 11, 104
14, 261200, Control_c, 11, 11, 103
14, 261240, Control_c, 11, 11, 101
14, 261280, Control_c, 11, 11, 99
14, 261320, Control_c, 11, 11, 97
14, 261359, Note_on_c, 11, 69, 0
14, 261359, Note_on_c, 11, 81, 0
14, 261360, Control_c, 11, 11, 96
14, 261360, Note_on_c, 11, 81, 84
14, 261360, Note_on_c, 11, 69, 84
14, 261400, Control_c, 11, 11, 94
14, 261440, Control_c, 11, 11, 92
14, 261480, Control_c, 11, 11, 90
14, 261520, Control_c, 11, 11, 89
14, 261560, Control_c, 11, 11, 87
14, 261600, Control_c, 11, 11, 85
14, 261640, Control_c, 11, 11, 83
14, 261680, Control_c, 11, 11, 82
14, 261719, Note_on_c, 11, 81, 0
14, 261719, Note_on_c, 11, 69, 0
14, 261720, Note_on_c, 11, 81, 84
14, 261720, Note_on_c, 11, 69, 84
14, 261720, Control_c, 11, 11, 80
14, 261760, Control_c, 11, 11, 78
14, 261800, Control_c, 11, 11, 76
14, 261840, Control_c, 11, 11, 75
14, 261880, Control_c, 11, 11, 73
14, 261920, Control_c, 11, 11, 71
14, 261960, Control_c, 11, 11, 69
14, 262000, Control_c, 11, 11, 68
14, 262078, Control_c, 11, 11, 80
14, 262079, Note_on_c, 11, 81, 0
14, 262079, Note_on_c, 11, 69, 0
14, 262080, Note_on_c, 11, 69, 76
14, 262799, Note_on_c, 11, 69, 0
14, 262800, Note_on_c, 11, 69, 76
14, 263519, Note_on_c, 11, 69, 0
14, 263520, Note_on_c, 11, 69, 76
14, 264235, Note_on_c, 11, 69, 0
14, 264238, Control_c, 11, 11, 96
14, 264240, Note_on_c, 11, 69, 68
14, 264959, Note_on_c, 11, 69, 0
14, 264960, Note_on_c, 11, 69, 68
14, 265675, Note_on_c, 11, 69, 0
14, 265678, Control_c, 11, 11, 112
14, 265680, Note_on_c, 11, 69, 60
14, 266399, Note_on_c, 11, 69, 0
14, 266400, Note_on_c, 11, 69, 60
14, 266999, Note_on_c, 11, 69, 0
14, 267000, Note_on_c, 11, 68, 60
14, 267099, Note_on_c, 11, 68, 0
14, 267120, Note_on_c, 11, 69, 60
14, 267719, Note_on_c, 11, 69, 0
14, 267720, Note_on_c, 11, 68, 60
14, 267819, Note_on_c, 11, 68, 0
14, 267838, Control_c, 11, 11, 127
14, 267840, Note_on_c, 11, 69, 52
14, 268559, Note_on_c, 11, 69, 0
14, 268560, Note_on_c, 11, 69, 52
14, 269279, Note_on_c, 11, 69, 0
14, 269280, Note_on_c, 11, 69, 52
14, 269999, Note_on_c, 11, 69, 0
14, 270000, Note_on_c, 11, 69, 52
14, 270719, Note_on_c, 11, 69, 0
14, 270720, Note_on_c, 11, 69, 52
14, 271439, Note_on_c, 11, 69, 0
14, 271440, Note_on_c, 11, 69, 52
14, 272159, Note_on_c, 11, 69, 0
14, 272160, Note_on_c, 11, 69, 52
14, 272639, Note_on_c, 11, 69, 0
14, 272640, Note_on_c, 11, 66, 52
14, 272879, Note_on_c, 11, 66, 0
14, 272880, Note_on_c, 11, 69, 52
14, 273119, Note_on_c, 11, 69, 0
14, 273120, Note_on_c, 11, 67, 52
14, 273359, Note_on_c, 11, 67, 0
14, 273360, Note_on_c, 11, 64, 52
14, 273479, Note_on_c, 11, 64, 0
14, 273480, Note_on_c, 11, 69, 52
14, 273579, Note_on_c, 11, 69, 0
14, 273600, Note_on_c, 11, 69, 52
14, 274319, Note_on_c, 11, 69, 0
14, 274320, Note_on_c, 11, 69, 52
14, 275039, Note_on_c, 11, 69, 0
14, 275040, Note_on_c, 11, 69, 52
14, 275759, Note_on_c, 11, 69, 0
14, 275760, Note_on_c, 11, 69, 52
14, 276479, Note_on_c, 11, 69, 0
14, 276480, Note_on_c, 11, 69, 52
14, 277199, Note_on_c, 11, 69, 0
14, 277200, Note_on_c, 11, 69, 52
14, 277919, Note_on_c, 11, 69, 0
14, 277920, Note_on_c, 11, 69, 52
14, 278519, Note_on_c, 11, 69, 0
14, 278520, Note_on_c, 11, 68, 52
14, 278619, Note_on_c, 11, 68, 0
14, 278640, Note_on_c, 11, 69, 52
14, 279239, Note_on_c, 11, 69, 0
14, 279240, Note_on_c, 11, 68, 52
14, 279339, Note_on_c, 11, 68, 0
14, 279360, Note_on_c, 11, 69, 52
14, 280079, Note_on_c, 11, 69, 0
14, 280080, Note_on_c, 11, 69, 52
14, 280799, Note_on_c, 11, 69, 0
14, 280800, Note_on_c, 11, 69, 52
14, 281519, Note_on_c, 11, 69, 0
14, 281520, Note_on_c, 11, 69, 52
14, 282239, Note_on_c, 11, 69, 0
14, 282240, Note_on_c, 11, 69, 52
14, 282959, Note_on_c, 11, 69, 0
14, 282960, Note_on_c, 11, 69, 52
14, 283679, Note_on_c, 11, 69, 0
14, 283680, Note_on_c, 11, 69, 52
14, 284159, Note_on_c, 11, 69, 0
14, 284160, Note_on_c, 11, 66, 52
14, 284399, Note_on_c, 11, 66, 0
14, 284400, Note_on_c, 11, 69, 52
14, 284639, Note_on_c, 11, 69, 0
14, 284640, Note_on_c, 11, 66, 52
14, 284879, Note_on_c, 11, 66, 0
14, 284880, Note_on_c, 11, 62, 52
14, 284999, Note_on_c, 11, 62, 0
14, 285000, Note_on_c, 11, 69, 52
14, 285099, Note_on_c, 11, 69, 0
14, 285120, Note_on_c, 11, 69, 52
14, 285839, Note_on_c, 11, 69, 0
14, 285840, Note_on_c, 11, 69, 52
14, 286559, Note_on_c, 11, 69, 0
14, 286560, Note_on_c, 11, 69, 52
14, 287279, Note_on_c, 11, 69, 0
14, 287280, Note_on_c, 11, 69, 52
14, 287999, Note_on_c, 11, 69, 0
14, 288000, Note_on_c, 11, 69, 52
14, 288719, Note_on_c, 11, 69, 0
14, 288720, Note_on_c, 11, 69, 52
14, 289439, Note_on_c, 11, 69, 0
14, 289440, Note_on_c, 11, 69, 52
14, 290039, Note_on_c, 11, 69, 0
14, 290040, Note_on_c, 11, 68, 52
14, 290159, Note_on_c, 11, 68, 0
14, 290160, Note_on_c, 11, 69, 52
14, 290759, Note_on_c, 11, 69, 0
14, 290760, Note_on_c, 11, 68, 52
14, 290859, Note_on_c, 11, 68, 0
14, 290880, Note_on_c, 11, 69, 52
14, 291599, Note_on_c, 11, 69, 0
14, 291600, Note_on_c, 11, 69, 52
14, 292319, Note_on_c, 11, 69, 0
14, 292320, Note_on_c, 11, 69, 52
14, 293039, Note_on_c, 11, 69, 0
14, 293040, Note_on_c, 11, 69, 52
14, 293759, Note_on_c, 11, 69, 0
14, 293760, Note_on_c, 11, 69, 52
14, 294479, Note_on_c, 11, 69, 0
14, 294480, Note_on_c, 11, 69, 52
14, 295199, Note_on_c, 11, 69, 0
14, 295200, Note_on_c, 11, 69, 52
14, 295919, Note_on_c, 11, 69, 0
14, 295920, Note_on_c, 11, 69, 52
14, 296519, Note_on_c, 11, 69, 0
14, 296520, Note_on_c, 11, 68, 52
14, 296619, Note_on_c, 11, 68, 0
14, 296640, Note_on_c, 11, 69, 52
14, 297359, Note_on_c, 11, 69, 0
14, 297360, Note_on_c, 11, 69, 52
14, 297959, Note_on_c, 11, 69, 0
14, 297960, Note_on_c, 11, 68, 52
14, 298059, Note_on_c, 11, 68, 0
14, 298078, Control_c, 11, 11, 64
14, 298080, Note_on_c, 11, 69, 84
14, 298171, Control_c, 11, 11, 65
14, 298263, Control_c, 11, 11, 66
14, 298354, Control_c, 11, 11, 67
14, 298446, Control_c, 11, 11, 68
14, 298537, Control_c, 11, 11, 69
14, 298629, Control_c, 11, 11, 70
14, 298720, Control_c, 11, 11, 71
14, 298799, Note_on_c, 11, 69, 0
14, 298800, Note_on_c, 11, 69, 84
14, 298811, Control_c, 11, 11, 72
14, 298903, Control_c, 11, 11, 73
14, 298994, Control_c, 11, 11, 74
14, 299086, Control_c, 11, 11, 75
14, 299177, Control_c, 11, 11, 76
14, 299269, Control_c, 11, 11, 77
14, 299360, Control_c, 11, 11, 78
14, 299451, Control_c, 11, 11, 79
14, 299519, Note_on_c, 11, 69, 0
14, 299520, Note_on_c, 11, 69, 84
14, 299543, Control_c, 11, 11, 80
14, 299634, Control_c, 11, 11, 81
14, 299726, Control_c, 11, 11, 82
14, 299817, Control_c, 11, 11, 83
14, 299909, Control_c, 11, 11, 84
14, 300000, Control_c, 11, 11, 85
14, 300091, Control_c, 11, 11, 86
14, 300183, Control_c, 11, 11, 87
14, 300239, Note_on_c, 11, 69, 0
14, 300240, Note_on_c, 11, 69, 84
14, 300274, Control_c, 11, 11, 88
14, 300366, Control_c, 11, 11, 89
14, 300457, Control_c, 11, 11, 90
14, 300549, Control_c, 11, 11, 91
14, 300640, Control_c, 11, 11, 92
14, 300731, Control_c, 11, 11, 93
14, 300823, Control_c, 11, 11, 94
14, 300914, Control_c, 11, 11, 95
14, 300959, Note_on_c, 11, 69, 0
14, 300960, Note_on_c, 11, 69, 84
14, 301006, Control_c, 11, 11, 96
14, 301097, Control_c, 11, 11, 97
14, 301189, Control_c, 11, 11, 98
14, 301280, Control_c, 11, 11, 99
14, 301371, Control_c, 11, 11, 100
14, 301463, Control_c, 11, 11, 101
14, 301554, Control_c, 11, 11, 102
14, 301646, Control_c, 11, 11, 103
14, 301679, Note_on_c, 11, 69, 0
14, 301680, Note_on_c, 11, 69, 84
14, 301737, Control_c, 11, 11, 104
14, 301829, Control_c, 11, 11, 105
14, 301920, Control_c, 11, 11, 106
14, 302011, Control_c, 11, 11, 107
14, 302103, Control_c, 11, 11, 108
14, 302194, Control_c, 11, 11, 109
14, 302286, Control_c, 11, 11, 110
14, 302377, Control_c, 11, 11, 111
14, 302469, Control_c, 11, 11, 112
14, 302560, Control_c, 11, 11, 113
14, 302619, Note_on_c, 11, 69, 0
14, 302640, Note_on_c, 11, 73, 84
14, 302651, Control_c, 11, 11, 114
14, 302743, Control_c, 11, 11, 115
14, 302834, Control_c, 11, 11, 116
14, 302926, Control_c, 11, 11, 117
14, 303017, Control_c, 11, 11, 118
14, 303099, Note_on_c, 11, 73, 0
14, 303109, Control_c, 11, 11, 119
14, 303120, Note_on_c, 11, 73, 84
14, 303200, Control_c, 11, 11, 120
14, 303291, Control_c, 11, 11, 121
14, 303383, Control_c, 11, 11, 122
14, 303474, Control_c, 11, 11, 123
14, 303566, Control_c, 11, 11, 124
14, 303579, Note_on_c, 11, 73, 0
14, 303600, Note_on_c, 11, 85, 84
14, 303657, Control_c, 11, 11, 125
14, 303749, Control_c, 11, 11, 127
14, 303819, Note_on_c, 11, 85, 0
14, 303840, Note_on_c, 11, 86, 84
14, 303840, Note_on_c, 11, 74, 84
14, 304439, Note_on_c, 11, 86, 0
14, 304439, Note_on_c, 11, 74, 0
14, 304440, Note_on_c, 11, 85, 84
14, 304559, Note_on_c, 11, 85, 0
14, 304560, Note_on_c, 11, 86, 84
14, 304560, Note_on_c, 11, 74, 84
14, 304799, Note_on_c, 11, 86, 0
14, 304799, Note_on_c, 11, 74, 0
14, 305280, Note_on_c, 11, 86, 84
14, 305280, Note_on_c, 11, 74, 84
14, 305879, Note_on_c, 11, 86, 0
14, 305879, Note_on_c, 11, 74, 0
14, 305880, Note_on_c, 11, 85, 84
14, 305999, Note_on_c, 11, 85, 0
14, 306000, Note_on_c, 11, 74, 84
14, 306000, Note_on_c, 11, 86, 84
14, 306239, Note_on_c, 11, 74, 0
14, 306239, Note_on_c, 11, 86, 0
14, 306720, Note_on_c, 11, 86, 84
14, 306959, Note_on_c, 11, 86, 0
14, 306960, Note_on_c, 11, 74, 84
14, 307199, Note_on_c, 11, 74, 0
14, 307200, Note_on_c, 11, 73, 84
14, 307419, Note_on_c, 11, 73, 0
14, 307440, Note_on_c, 11, 74, 84
14, 307679, Note_on_c, 11, 74, 0
14, 307680, Note_on_c, 11, 73, 84
14, 307680, Note_on_c, 11, 64, 84
14, 307899, Note_on_c, 11, 73, 0
14, 307899, Note_on_c, 11, 64, 0
14, 307920, Note_on_c, 11, 66, 84
14, 307920, Note_on_c, 11, 74, 84
14, 308099, Note_on_c, 11, 66, 0
14, 308099, Note_on_c, 11, 74, 0
14, 308160, Note_on_c, 11, 73, 84
14, 308160, Note_on_c, 11, 64, 84
14, 308399, Note_on_c, 11, 73, 0
14, 308399, Note_on_c, 11, 64, 0
14, 309600, Note_on_c, 11, 76, 84
14, 310199, Note_on_c, 11, 76, 0
14, 310200, Note_on_c, 11, 75, 84
14, 310319, Note_on_c, 11, 75, 0
14, 310320, Note_on_c, 11, 76, 84
14, 310559, Note_on_c, 11, 76, 0
14, 311040, Note_on_c, 11, 76, 84
14, 311639, Note_on_c, 11, 76, 0
14, 311640, Note_on_c, 11, 75, 84
14, 311759, Note_on_c, 11, 75, 0
14, 311760, Note_on_c, 11, 76, 84
14, 311999, Note_on_c, 11, 76, 0
14, 312480, Note_on_c, 11, 76, 84
14, 312719, Note_on_c, 11, 76, 0
14, 312720, Note_on_c, 11, 73, 84
14, 312959, Note_on_c, 11, 73, 0
14, 312960, Note_on_c, 11, 74, 84
14, 313199, Note_on_c, 11, 74, 0
14, 313200, Note_on_c, 11, 71, 84
14, 313439, Note_on_c, 11, 71, 0
14, 313440, Note_on_c, 11, 73, 84
14, 313659, Note_on_c, 11, 73, 0
14, 313680, Note_on_c, 11, 76, 84
14, 313680, Note_on_c, 11, 67, 84
14, 313859, Note_on_c, 11, 76, 0
14, 313859, Note_on_c, 11, 67, 0
14, 313920, Note_on_c, 11, 66, 84
14, 313920, Note_on_c, 11, 57, 84
14, 313920, Note_on_c, 11, 74, 84
14, 314159, Note_on_c, 11, 66, 0
14, 314159, Note_on_c, 11, 57, 0
14, 314159, Note_on_c, 11, 74, 0
14, 315360, Note_on_c, 11, 69, 52
14, 316079, Note_on_c, 11, 69, 0
14, 316080, Note_on_c, 11, 69, 52
14, 316799, Note_on_c, 11, 69, 0
14, 316800, Note_on_c, 11, 69, 52
14, 317519, Note_on_c, 11, 69, 0
14, 317520, Note_on_c, 11, 69, 52
14, 318239, Note_on_c, 11, 69, 0
14, 318240, Note_on_c, 11, 69, 52
14, 318959, Note_on_c, 11, 69, 0
14, 318960, Note_on_c, 11, 69, 52
14, 319679, Note_on_c, 11, 69, 0
14, 319680, Note_on_c, 11, 69, 52
14, 320279, Note_on_c, 11, 69, 0
14, 320280, Note_on_c, 11, 68, 52
14, 320399, Note_on_c, 11, 68, 0
14, 320400, Note_on_c, 11, 69, 52
14, 320999, Note_on_c, 11, 69, 0
14, 321000, Note_on_c, 11, 68, 52
14, 321099, Note_on_c, 11, 68, 0
14, 321120, Note_on_c, 11, 69, 52
14, 321839, Note_on_c, 11, 69, 0
14, 321840, Note_on_c, 11, 69, 52
14, 322559, Note_on_c, 11, 69, 0
14, 322560, Note_on_c, 11, 69, 52
14, 323279, Note_on_c, 11, 69, 0
14, 323280, Note_on_c, 11, 69, 52
14, 323999, Note_on_c, 11, 69, 0
14, 324000, Note_on_c, 11, 69, 52
14, 324719, Note_on_c, 11, 69, 0
14, 324720, Note_on_c, 11, 69, 52
14, 325439, Note_on_c, 11, 69, 0
14, 325440, Note_on_c, 11, 69, 52
14, 326159, Note_on_c, 11, 69, 0
14, 326160, Note_on_c, 11, 69, 52
14, 326759, Note_on_c, 11, 69, 0
14, 326760, Note_on_c, 11, 68, 52
14, 326859, Note_on_c, 11, 68, 0
14, 326880, Note_on_c, 11, 69, 52
14, 327599, Note_on_c, 11, 69, 0
14, 327600, Note_on_c, 11, 69, 52
14, 328199, Note_on_c, 11, 69, 0
14, 328200, Note_on_c, 11, 68, 52
14, 328299, Note_on_c, 11, 68, 0
14, 328318, Control_c, 11, 11, 64
14, 328320, Note_on_c, 11, 69, 84
14, 328411, Control_c, 11, 11, 65
14, 328503, Control_c, 11, 11, 66
14, 328594, Control_c, 11, 11, 67
14, 328686, Control_c, 11, 11, 68
14, 328777, Control_c, 11, 11, 69
14, 328869, Control_c, 11, 11, 70
14, 328960, Control_c, 11, 11, 71
14, 329039, Note_on_c, 11, 69, 0
14, 329040, Note_on_c, 11, 69, 84
14, 329051, Control_c, 11, 11, 72
14, 329143, Control_c, 11, 11, 73
14, 329234, Control_c, 11, 11, 74
14, 329326, Control_c, 11, 11, 75
14, 329417, Control_c, 11, 11, 76
14, 329509, Control_c, 11, 11, 77
14, 329600, Control_c, 11, 11, 78
14, 329691, Control_c, 11, 11, 79
14, 329759, Note_on_c, 11, 69, 0
14, 329760, Note_on_c, 11, 69, 84
14, 329783, Control_c, 11, 11, 80
14, 329874, Control_c, 11, 11, 81
14, 329966, Control_c, 11, 11, 82
14, 330057, Control_c, 11, 11, 83
14, 330149, Control_c, 11, 11, 84
14, 330240, Control_c, 11, 11, 85
14, 330331, Control_c, 11, 11, 86
14, 330423, Control_c, 11, 11, 87
14, 330479, Note_on_c, 11, 69, 0
14, 330480, Note_on_c, 11, 69, 84
14, 330514, Control_c, 11, 11, 88
14, 330606, Control_c, 11, 11, 89
14, 330697, Control_c, 11, 11, 90
14, 330789, Control_c, 11, 11, 91
14, 330880, Control_c, 11, 11, 92
14, 330971, Control_c, 11, 11, 93
14, 331063, Control_c, 11, 11, 94
14, 331154, Control_c, 11, 11, 95
14, 331199, Note_on_c, 11, 69, 0
14, 331200, Note_on_c, 11, 69, 84
14, 331246, Control_c, 11, 11, 96
14, 331337, Control_c, 11, 11, 97
14, 331429, Control_c, 11, 11, 98
14, 331520, Control_c, 11, 11, 99
14, 331611, Control_c, 11, 11, 100
14, 331703, Control_c, 11, 11, 101
14, 331794, Control_c, 11, 11, 102
14, 331886, Control_c, 11, 11, 103
14, 331919, Note_on_c, 11, 69, 0
14, 331920, Note_on_c, 11, 69, 84
14, 331977, Control_c, 11, 11, 104
14, 332069, Control_c, 11, 11, 105
14, 332160, Control_c, 11, 11, 106
14, 332251, Control_c, 11, 11, 107
14, 332343, Control_c, 11, 11, 108
14, 332434, Control_c, 11, 11, 109
14, 332526, Control_c, 11, 11, 110
14, 332617, Control_c, 11, 11, 111
14, 332709, Control_c, 11, 11, 112
14, 332800, Control_c, 11, 11, 113
14, 332859, Note_on_c, 11, 69, 0
14, 332880, Note_on_c, 11, 73, 84
14, 332891, Control_c, 11, 11, 114
14, 332983, Control_c, 11, 11, 115
14, 333074, Control_c, 11, 11, 116
14, 333166, Control_c, 11, 11, 117
14, 333257, Control_c, 11, 11, 118
14, 333339, Note_on_c, 11, 73, 0
14, 333349, Control_c, 11, 11, 119
14, 333360, Note_on_c, 11, 73, 84
14, 333440, Control_c, 11, 11, 120
14, 333531, Control_c, 11, 11, 121
14, 333623, Control_c, 11, 11, 122
14, 333714, Control_c, 11, 11, 123
14, 333806, Control_c, 11, 11, 124
14, 333819, Note_on_c, 11, 73, 0
14, 333840, Note_on_c, 11, 85, 84
14, 333897, Control_c, 11, 11, 125
14, 333989, Control_c, 11, 11, 127
14, 334059, Note_on_c, 11, 85, 0
14, 334080, Note_on_c, 11, 74, 84
14, 334080, Note_on_c, 11, 86, 84
14, 334679, Note_on_c, 11, 74, 0
14, 334679, Note_on_c, 11, 86, 0
14, 334680, Note_on_c, 11, 85, 84
14, 334799, Note_on_c, 11, 85, 0
14, 334800, Note_on_c, 11, 74, 84
14, 334800, Note_on_c, 11, 86, 84
14, 335039, Note_on_c, 11, 74, 0
14, 335039, Note_on_c, 11, 86, 0
14, 335520, Note_on_c, 11, 86, 84
14, 335520, Note_on_c, 11, 74, 84
14, 336119, Note_on_c, 11, 86, 0
14, 336119, Note_on_c, 11, 74, 0
14, 336120, Note_on_c, 11, 85, 84
14, 336239, Note_on_c, 11, 85, 0
14, 336240, Note_on_c, 11, 86, 84
14, 336240, Note_on_c, 11, 74, 84
14, 336479, Note_on_c, 11, 86, 0
14, 336479, Note_on_c, 11, 74, 0
14, 336960, Note_on_c, 11, 86, 84
14, 337199, Note_on_c, 11, 86, 0
14, 337200, Note_on_c, 11, 74, 84
14, 337439, Note_on_c, 11, 74, 0
14, 337440, Note_on_c, 11, 73, 84
14, 337659, Note_on_c, 11, 73, 0
14, 337680, Note_on_c, 11, 74, 84
14, 337919, Note_on_c, 11, 74, 0
14, 337920, Note_on_c, 11, 73, 84
14, 337920, Note_on_c, 11, 64, 84
14, 338139, Note_on_c, 11, 73, 0
14, 338139, Note_on_c, 11, 64, 0
14, 338160, Note_on_c, 11, 66, 84
14, 338160, Note_on_c, 11, 74, 84
14, 338339, Note_on_c, 11, 66, 0
14, 338339, Note_on_c, 11, 74, 0
14, 338400, Note_on_c, 11, 73, 84
14, 338400, Note_on_c, 11, 64, 84
14, 338639, Note_on_c, 11, 73, 0
14, 338639, Note_on_c, 11, 64, 0
14, 339840, Note_on_c, 11, 76, 84
14, 340439, Note_on_c, 11, 76, 0
14, 340440, Note_on_c, 11, 75, 84
14, 340559, Note_on_c, 11, 75, 0
14, 340560, Note_on_c, 11, 76, 84
14, 340799, Note_on_c, 11, 76, 0
14, 341280, Note_on_c, 11, 76, 84
14, 341879, Note_on_c, 11, 76, 0
14, 341880, Note_on_c, 11, 75, 84
14, 341999, Note_on_c, 11, 75, 0
14, 342000, Note_on_c, 11, 76, 84
14, 342239, Note_on_c, 11, 76, 0
14, 342720, Note_on_c, 11, 76, 84
14, 342959, Note_on_c, 11, 76, 0
14, 342960, Note_on_c, 11, 73, 84
14, 343199, Note_on_c, 11, 73, 0
14, 343200, Note_on_c, 11, 74, 84
14, 343439, Note_on_c, 11, 74, 0
14, 343440, Note_on_c, 11, 71, 84
14, 343679, Note_on_c, 11, 71, 0
14, 343680, Note_on_c, 11, 73, 84
14, 343899, Note_on_c, 11, 73, 0
14, 343920, Note_on_c, 11, 67, 84
14, 343920, Note_on_c, 11, 76, 84
14, 344099, Note_on_c, 11, 67, 0
14, 344099, Note_on_c, 11, 76, 0
14, 344160, Note_on_c, 11, 57, 84
14, 344160, Note_on_c, 11, 66, 84
14, 344160, Note_on_c, 11, 74, 84
14, 344399, Note_on_c, 11, 57, 0
14, 344399, Note_on_c, 11, 66, 0
14, 344399, Note_on_c, 11, 74, 0
14, 345600, Note_on_c, 11, 62, 52
14, 346319, Note_on_c, 11, 62, 0
14, 346320, Note_on_c, 11, 62, 52
14, 347019, Note_on_c, 11, 62, 0
14, 347040, Note_on_c, 11, 64, 52
14, 347040, Control_c, 11, 11, 127
14, 347272, Control_c, 11, 11, 126
14, 347505, Control_c, 11, 11, 125
14, 347737, Control_c, 11, 11, 124
14, 347759, Note_on_c, 11, 64, 0
14, 347760, Note_on_c, 11, 64, 52
14, 347969, Control_c, 11, 11, 123
14, 348201, Control_c, 11, 11, 122
14, 348434, Control_c, 11, 11, 121
14, 348459, Note_on_c, 11, 64, 0
14, 348480, Note_on_c, 11, 62, 52
14, 348666, Control_c, 11, 11, 120
14, 348898, Control_c, 11, 11, 119
14, 349130, Control_c, 11, 11, 118
14, 349199, Note_on_c, 11, 62, 0
14, 349200, Note_on_c, 11, 62, 52
14, 349363, Control_c, 11, 11, 117
14, 349595, Control_c, 11, 11, 116
14, 349827, Control_c, 11, 11, 115
14, 349899, Note_on_c, 11, 62, 0
14, 349920, Note_on_c, 11, 61, 52
14, 350059, Control_c, 11, 11, 114
14, 350292, Control_c, 11, 11, 113
14, 350524, Control_c, 11, 11, 112
14, 350639, Note_on_c, 11, 61, 0
14, 350640, Note_on_c, 11, 61, 52
14, 350756, Control_c, 11, 11, 111
14, 350988, Control_c, 11, 11, 110
14, 351221, Control_c, 11, 11, 109
14, 351339, Note_on_c, 11, 61, 0
14, 351360, Note_on_c, 11, 62, 52
14, 351453, Control_c, 11, 11, 108
14, 351685, Control_c, 11, 11, 107
14, 351917, Control_c, 11, 11, 106
14, 352079, Note_on_c, 11, 62, 0
14, 352080, Note_on_c, 11, 62, 52
14, 352150, Control_c, 11, 11, 105
14, 352382, Control_c, 11, 11, 104
14, 352614, Control_c, 11, 11, 103
14, 352779, Note_on_c, 11, 62, 0
14, 352800, Note_on_c, 11, 64, 52
14, 352846, Control_c, 11, 11, 102
14, 353079, Control_c, 11, 11, 101
14, 353311, Control_c, 11, 11, 100
14, 353519, Note_on_c, 11, 64, 0
14, 353520, Note_on_c, 11, 64, 52
14, 353543, Control_c, 11, 11, 99
14, 353775, Control_c, 11, 11, 98
14, 354008, Control_c, 11, 11, 96
14, 354219, Note_on_c, 11, 64, 0
14, 354240, Note_on_c, 11, 64, 52
14, 354959, Note_on_c, 11, 64, 0
14, 354960, Note_on_c, 11, 64, 52
14, 355419, Note_on_c, 11, 64, 0
14, 355438, Control_c, 11, 11, 127
14, 355440, Note_on_c, 11, 65, 76
14, 355511, Note_on_c, 11, 65, 0
14, 355520, Note_on_c, 11, 65, 76
14, 355559, Note_on_c, 11, 65, 0
14, 355560, Note_on_c, 11, 69, 76
14, 355679, Note_on_c, 11, 69, 0
14, 355680, Note_on_c, 11, 65, 76
14, 355739, Note_on_c, 11, 65, 0
14, 355800, Note_on_c, 11, 65, 76
14, 355871, Note_on_c, 11, 65, 0
14, 355880, Note_on_c, 11, 65, 76
14, 355919, Note_on_c, 11, 65, 0
14, 355920, Note_on_c, 11, 69, 76
14, 356039, Note_on_c, 11, 69, 0
14, 356040, Note_on_c, 11, 65, 76
14, 356099, Note_on_c, 11, 65, 0
14, 356160, Note_on_c, 11, 69, 76
14, 356264, Note_on_c, 11, 69, 0
14, 356280, Note_on_c, 11, 69, 52
14, 356369, Note_on_c, 11, 69, 0
14, 356400, Note_on_c, 11, 69, 52
14, 356489, Note_on_c, 11, 69, 0
14, 356520, Note_on_c, 11, 72, 52
14, 356609, Note_on_c, 11, 72, 0
14, 356640, Note_on_c, 11, 70, 52
14, 356729, Note_on_c, 11, 70, 0
14, 356760, Note_on_c, 11, 70, 52
14, 356849, Note_on_c, 11, 70, 0
14, 356880, Note_on_c, 11, 69, 52
14, 356969, Note_on_c, 11, 69, 0
14, 357000, Note_on_c, 11, 67, 52
14, 357089, Note_on_c, 11, 67, 0
14, 357120, Note_on_c, 11, 67, 52
14, 357209, Note_on_c, 11, 67, 0
14, 357240, Note_on_c, 11, 65, 52
14, 357329, Note_on_c, 11, 65, 0
14, 357360, Note_on_c, 11, 64, 52
14, 357704, Note_on_c, 11, 64, 0
14, 357720, Note_on_c, 11, 76, 52
14, 357809, Note_on_c, 11, 76, 0
14, 357840, Note_on_c, 11, 76, 52
14, 357929, Note_on_c, 11, 76, 0
14, 357960, Note_on_c, 11, 74, 52
14, 358049, Note_on_c, 11, 74, 0
14, 358080, Note_on_c, 11, 72, 52
14, 358169, Note_on_c, 11, 72, 0
14, 358200, Note_on_c, 11, 72, 52
14, 358289, Note_on_c, 11, 72, 0
14, 358320, Note_on_c, 11, 70, 52
14, 358409, Note_on_c, 11, 70, 0
14, 358440, Note_on_c, 11, 69, 52
14, 358529, Note_on_c, 11, 69, 0
14, 358560, Note_on_c, 11, 69, 52
14, 358649, Note_on_c, 11, 69, 0
14, 358680, Note_on_c, 11, 67, 52
14, 358769, Note_on_c, 11, 67, 0
14, 358800, Note_on_c, 11, 65, 52
14, 359144, Note_on_c, 11, 65, 0
14, 359160, Note_on_c, 11, 64, 52
14, 359249, Note_on_c, 11, 64, 0
14, 359280, Note_on_c, 11, 64, 52
14, 359369, Note_on_c, 11, 64, 0
14, 359400, Note_on_c, 11, 65, 52
14, 359489, Note_on_c, 11, 65, 0
14, 359520, Note_on_c, 11, 64, 52
14, 359759, Note_on_c, 11, 64, 0
14, 359760, Note_on_c, 11, 65, 52
14, 359864, Note_on_c, 11, 65, 0
14, 359880, Note_on_c, 11, 64, 52
14, 359969, Note_on_c, 11, 64, 0
14, 360000, Note_on_c, 11, 64, 56
14, 360089, Note_on_c, 11, 64, 0
14, 360120, Note_on_c, 11, 65, 60
14, 360209, Note_on_c, 11, 65, 0
14, 360240, Note_on_c, 11, 64, 64
14, 360479, Note_on_c, 11, 64, 0
14, 360480, Note_on_c, 11, 65, 72
14, 360584, Note_on_c, 11, 65, 0
14, 360600, Note_on_c, 11, 68, 84
14, 360839, Note_on_c, 11, 68, 0
14, 360840, Note_on_c, 11, 69, 76
14, 360944, Note_on_c, 11, 69, 0
14, 360960, Note_on_c, 11, 59, 84
14, 361199, Note_on_c, 11, 59, 0
14, 361200, Note_on_c, 11, 61, 76
14, 361304, Note_on_c, 11, 61, 0
14, 361320, Note_on_c, 11, 68, 76
14, 361424, Note_on_c, 11, 68, 0
14, 361440, Note_on_c, 11, 71, 76
14, 361544, Note_on_c, 11, 71, 0
14, 361560, Note_on_c, 11, 71, 76
14, 361664, Note_on_c, 11, 71, 0
14, 361680, Note_on_c, 11, 69, 76
14, 361784, Note_on_c, 11, 69, 0
14, 361800, Note_on_c, 11, 73, 76
14, 361904, Note_on_c, 11, 73, 0
14, 361920, Note_on_c, 11, 73, 76
14, 362024, Note_on_c, 11, 73, 0
14, 362040, Note_on_c, 11, 71, 76
14, 362144, Note_on_c, 11, 71, 0
14, 362160, Note_on_c, 11, 64, 76
14, 362264, Note_on_c, 11, 64, 0
14, 362280, Note_on_c, 11, 71, 76
14, 362384, Note_on_c, 11, 71, 0
14, 362400, Note_on_c, 11, 69, 76
14, 362504, Note_on_c, 11, 69, 0
14, 362520, Note_on_c, 11, 73, 76
14, 362624, Note_on_c, 11, 73, 0
14, 362640, Note_on_c, 11, 73, 76
14, 362744, Note_on_c, 11, 73, 0
14, 362760, Note_on_c, 11, 68, 76
14, 362864, Note_on_c, 11, 68, 0
14, 362880, Note_on_c, 11, 71, 76
14, 362984, Note_on_c, 11, 71, 0
14, 363000, Note_on_c, 11, 71, 76
14, 363104, Note_on_c, 11, 71, 0
14, 363120, Note_on_c, 11, 69, 76
14, 363209, Note_on_c, 11, 69, 0
14, 363240, Note_on_c, 11, 76, 76
14, 363329, Note_on_c, 11, 76, 0
14, 363360, Note_on_c, 11, 73, 76
14, 363449, Note_on_c, 11, 73, 0
14, 363480, Note_on_c, 11, 69, 76
14, 363569, Note_on_c, 11, 69, 0
14, 363600, Note_on_c, 11, 64, 76
14, 363689, Note_on_c, 11, 64, 0
14, 363720, Note_on_c, 11, 61, 76
14, 363809, Note_on_c, 11, 61, 0
14, 363840, Note_on_c, 11, 57, 76
14, 363929, Note_on_c, 11, 57, 0
14, 364800, Note_on_c, 11, 69, 76
14, 364871, Note_on_c, 11, 69, 0
14, 364880, Note_on_c, 11, 69, 76
14, 364919, Note_on_c, 11, 69, 0
14, 364920, Note_on_c, 11, 73, 84
14, 365039, Note_on_c, 11, 73, 0
14, 365040, Note_on_c, 11, 69, 76
14, 365099, Note_on_c, 11, 69, 0
14, 368520, Note_on_c, 11, 73, 44
14, 368759, Note_on_c, 11, 73, 0
14, 368760, Note_on_c, 11, 74, 44
14, 368864, Note_on_c, 11, 74, 0
14, 368880, Note_on_c, 11, 73, 44
14, 369119, Note_on_c, 11, 73, 0
14, 369120, Note_on_c, 11, 74, 44
14, 369224, Note_on_c, 11, 74, 0
14, 369240, Note_on_c, 11, 73, 44
14, 369479, Note_on_c, 11, 73, 0
14, 369480, Note_on_c, 11, 74, 44
14, 369584, Note_on_c, 11, 74, 0
14, 369600, Note_on_c, 11, 73, 44
14, 369839, Note_on_c, 11, 73, 0
14, 369840, Note_on_c, 11, 74, 44
14, 369959, Note_on_c, 11, 74, 0
14, 370920, Note_on_c, 11, 71, 84
14, 371024, Note_on_c, 11, 71, 0
14, 371040, Note_on_c, 11, 74, 84
14, 371159, Note_on_c, 11, 74, 0
14, 371160, Note_on_c, 11, 71, 84
14, 371219, Note_on_c, 11, 71, 0
14, 374280, Note_on_c, 11, 76, 44
14, 374519, Note_on_c, 11, 76, 0
14, 374520, Note_on_c, 11, 77, 44
14, 374624, Note_on_c, 11, 77, 0
14, 374640, Note_on_c, 11, 76, 44
14, 374879, Note_on_c, 11, 76, 0
14, 374880, Note_on_c, 11, 77, 44
14, 374984, Note_on_c, 11, 77, 0
14, 375000, Note_on_c, 11, 76, 44
14, 375239, Note_on_c, 11, 76, 0
14, 375240, Note_on_c, 11, 77, 44
14, 375344, Note_on_c, 11, 77, 0
14, 375360, Note_on_c, 11, 76, 44
14, 375599, Note_on_c, 11, 76, 0
14, 375600, Note_on_c, 11, 77, 44
14, 375719, Note_on_c, 11, 77, 0
14, 376680, Note_on_c, 11, 69, 84
14, 376784, Note_on_c, 11, 69, 0
14, 376800, Note_on_c, 11, 72, 84
14, 376919, Note_on_c, 11, 72, 0
14, 376920, Note_on_c, 11, 69, 84
14, 376979, Note_on_c, 11, 69, 0
14, 377040, Note_on_c, 11, 70, 52
14, 377144, Note_on_c, 11, 70, 0
14, 377160, Note_on_c, 11, 70, 52
14, 377249, Note_on_c, 11, 70, 0
14, 377280, Note_on_c, 11, 70, 52
14, 377369, Note_on_c, 11, 70, 0
14, 377400, Note_on_c, 11, 70, 52
14, 377489, Note_on_c, 11, 70, 0
14, 377520, Note_on_c, 11, 70, 52
14, 377744, Note_on_c, 11, 70, 0
14, 377760, Note_on_c, 11, 70, 52
14, 377864, Note_on_c, 11, 70, 0
14, 377880, Note_on_c, 11, 70, 52
14, 377969, Note_on_c, 11, 70, 0
14, 378000, Note_on_c, 11, 70, 52
14, 378089, Note_on_c, 11, 70, 0
14, 378120, Note_on_c, 11, 70, 52
14, 378209, Note_on_c, 11, 70, 0
14, 378240, Note_on_c, 11, 70, 52
14, 378464, Note_on_c, 11, 70, 0
14, 378480, Note_on_c, 11, 70, 52
14, 378584, Note_on_c, 11, 70, 0
14, 378600, Note_on_c, 11, 62, 52
14, 378689, Note_on_c, 11, 62, 0
14, 378720, Note_on_c, 11, 65, 52
14, 378809, Note_on_c, 11, 65, 0
14, 378840, Note_on_c, 11, 65, 52
14, 378929, Note_on_c, 11, 65, 0
14, 378960, Note_on_c, 11, 62, 52
14, 379049, Note_on_c, 11, 62, 0
14, 379080, Note_on_c, 11, 65, 52
14, 379169, Note_on_c, 11, 65, 0
14, 379200, Note_on_c, 11, 65, 52
14, 379289, Note_on_c, 11, 65, 0
14, 379320, Note_on_c, 11, 62, 52
14, 379409, Note_on_c, 11, 62, 0
14, 379440, Note_on_c, 11, 65, 52
14, 379529, Note_on_c, 11, 65, 0
14, 379560, Note_on_c, 11, 65, 52
14, 379649, Note_on_c, 11, 65, 0
14, 379680, Note_on_c, 11, 62, 52
14, 379769, Note_on_c, 11, 62, 0
14, 379800, Note_on_c, 11, 65, 52
14, 379889, Note_on_c, 11, 65, 0
14, 379920, Note_on_c, 11, 65, 52
14, 380009, Note_on_c, 11, 65, 0
14, 380040, Note_on_c, 11, 60, 52
14, 380129, Note_on_c, 11, 60, 0
14, 380160, Note_on_c, 11, 60, 52
14, 380249, Note_on_c, 11, 60, 0
14, 380280, Note_on_c, 11, 65, 52
14, 380369, Note_on_c, 11, 65, 0
14, 380400, Note_on_c, 11, 60, 52
14, 380489, Note_on_c, 11, 60, 0
14, 380520, Note_on_c, 11, 60, 52
14, 380609, Note_on_c, 11, 60, 0
14, 380640, Note_on_c, 11, 65, 52
14, 380729, Note_on_c, 11, 65, 0
14, 380760, Note_on_c, 11, 60, 52
14, 380849, Note_on_c, 11, 60, 0
14, 380880, Note_on_c, 11, 60, 52
14, 380969, Note_on_c, 11, 60, 0
14, 381000, Note_on_c, 11, 65, 52
14, 381089, Note_on_c, 11, 65, 0
14, 381120, Note_on_c, 11, 60, 52
14, 381209, Note_on_c, 11, 60, 0
14, 381240, Note_on_c, 11, 60, 52
14, 381329, Note_on_c, 11, 60, 0
14, 381360, Note_on_c, 11, 65, 52
14, 381449, Note_on_c, 11, 65, 0
14, 381480, Note_on_c, 11, 65, 52
14, 381569, Note_on_c, 11, 65, 0
14, 381600, Note_on_c, 11, 65, 52
14, 381689, Note_on_c, 11, 65, 0
14, 381720, Note_on_c, 11, 65, 52
14, 381809, Note_on_c, 11, 65, 0
14, 381840, Note_on_c, 11, 62, 52
14, 381929, Note_on_c, 11, 62, 0
14, 381960, Note_on_c, 11, 62, 52
14, 382049, Note_on_c, 11, 62, 0
14, 382080, Note_on_c, 11, 65, 53
14, 382169, Note_on_c, 11, 65, 0
14, 382200, Note_on_c, 11, 62, 53
14, 382289, Note_on_c, 11, 62, 0
14, 382320, Note_on_c, 11, 62, 54
14, 382409, Note_on_c, 11, 62, 0
14, 382440, Note_on_c, 11, 65, 54
14, 382529, Note_on_c, 11, 65, 0
14, 382560, Note_on_c, 11, 62, 55
14, 382649, Note_on_c, 11, 62, 0
14, 382680, Note_on_c, 11, 62, 55
14, 382769, Note_on_c, 11, 62, 0
14, 382800, Note_on_c, 11, 65, 56
14, 382889, Note_on_c, 11, 65, 0
14, 382920, Note_on_c, 11, 65, 56
14, 383009, Note_on_c, 11, 65, 0
14, 383040, Note_on_c, 11, 65, 57
14, 383129, Note_on_c, 11, 65, 0
14, 383160, Note_on_c, 11, 65, 58
14, 383249, Note_on_c, 11, 65, 0
14, 383280, Note_on_c, 11, 65, 58
14, 383369, Note_on_c, 11, 65, 0
14, 383400, Note_on_c, 11, 65, 59
14, 383489, Note_on_c, 11, 65, 0
14, 383520, Note_on_c, 11, 69, 59
14, 383609, Note_on_c, 11, 69, 0
14, 383640, Note_on_c, 11, 65, 60
14, 383729, Note_on_c, 11, 65, 0
14, 383760, Note_on_c, 11, 65, 60
14, 383849, Note_on_c, 11, 65, 0
14, 383880, Note_on_c, 11, 69, 61
14, 383969, Note_on_c, 11, 69, 0
14, 384000, Note_on_c, 11, 65, 61
14, 384089, Note_on_c, 11, 65, 0
14, 384120, Note_on_c, 11, 65, 62
14, 384209, Note_on_c, 11, 65, 0
14, 384240, Note_on_c, 11, 69, 62
14, 384329, Note_on_c, 11, 69, 0
14, 384360, Note_on_c, 11, 65, 63
14, 384449, Note_on_c, 11, 65, 0
14, 384480, Note_on_c, 11, 65, 64
14, 384569, Note_on_c, 11, 65, 0
14, 384600, Note_on_c, 11, 70, 64
14, 384689, Note_on_c, 11, 70, 0
14, 385440, Note_on_c, 11, 67, 68
14, 385529, Note_on_c, 11, 67, 0
14, 385560, Note_on_c, 11, 67, 68
14, 385649, Note_on_c, 11, 67, 0
14, 385680, Note_on_c, 11, 65, 69
14, 385769, Note_on_c, 11, 65, 0
14, 385800, Note_on_c, 11, 64, 70
14, 385889, Note_on_c, 11, 64, 0
14, 385920, Note_on_c, 11, 64, 70
14, 386009, Note_on_c, 11, 64, 0
14, 386040, Note_on_c, 11, 62, 71
14, 386129, Note_on_c, 11, 62, 0
14, 386160, Note_on_c, 11, 60, 71
14, 386249, Note_on_c, 11, 60, 0
14, 386280, Note_on_c, 11, 60, 72
14, 386369, Note_on_c, 11, 60, 0
14, 386400, Note_on_c, 11, 58, 72
14, 386489, Note_on_c, 11, 58, 0
14, 386520, Note_on_c, 11, 57, 73
14, 386609, Note_on_c, 11, 57, 0
14, 386640, Note_on_c, 11, 57, 73
14, 386729, Note_on_c, 11, 57, 0
14, 386760, Note_on_c, 11, 55, 74
14, 386849, Note_on_c, 11, 55, 0
14, 386880, Note_on_c, 11, 65, 74
14, 386969, Note_on_c, 11, 65, 0
14, 387000, Note_on_c, 11, 64, 75
14, 387089, Note_on_c, 11, 64, 0
14, 387120, Note_on_c, 11, 65, 76
14, 387179, Note_on_c, 11, 65, 0
14, 387200, Note_on_c, 11, 65, 76
14, 387239, Note_on_c, 11, 65, 0
14, 387240, Note_on_c, 11, 69, 76
14, 387359, Note_on_c, 11, 69, 0
14, 387360, Note_on_c, 11, 65, 76
14, 387419, Note_on_c, 11, 65, 0
14, 387480, Note_on_c, 11, 69, 76
14, 387539, Note_on_c, 11, 69, 0
14, 387560, Note_on_c, 11, 69, 76
14, 387599, Note_on_c, 11, 69, 0
14, 387600, Note_on_c, 11, 72, 76
14, 387719, Note_on_c, 11, 72, 0
14, 387720, Note_on_c, 11, 69, 76
14, 387779, Note_on_c, 11, 69, 0
14, 387840, Note_on_c, 11, 72, 76
14, 387944, Note_on_c, 11, 72, 0
14, 387960, Note_on_c, 11, 77, 84
14, 388049, Note_on_c, 11, 77, 0
14, 388080, Note_on_c, 11, 77, 84
14, 388169, Note_on_c, 11, 77, 0
14, 388200, Note_on_c, 11, 76, 84
14, 388289, Note_on_c, 11, 76, 0
14, 388320, Note_on_c, 11, 74, 84
14, 388409, Note_on_c, 11, 74, 0
14, 388440, Note_on_c, 11, 74, 84
14, 388529, Note_on_c, 11, 74, 0
14, 388560, Note_on_c, 11, 72, 84
14, 388649, Note_on_c, 11, 72, 0
14, 388680, Note_on_c, 11, 70, 84
14, 388769, Note_on_c, 11, 70, 0
14, 388800, Note_on_c, 11, 70, 84
14, 388889, Note_on_c, 11, 70, 0
14, 388920, Note_on_c, 11, 69, 84
14, 389009, Note_on_c, 11, 69, 0
14, 389040, Note_on_c, 11, 67, 84
14, 389384, Note_on_c, 11, 67, 0
14, 389400, Note_on_c, 11, 79, 84
14, 389489, Note_on_c, 11, 79, 0
14, 389520, Note_on_c, 11, 79, 84
14, 389609, Note_on_c, 11, 79, 0
14, 389640, Note_on_c, 11, 77, 84
14, 389729, Note_on_c, 11, 77, 0
14, 389760, Note_on_c, 11, 76, 84
14, 389849, Note_on_c, 11, 76, 0
14, 389880, Note_on_c, 11, 76, 84
14, 389969, Note_on_c, 11, 76, 0
14, 390000, Note_on_c, 11, 74, 84
14, 390089, Note_on_c, 11, 74, 0
14, 390120, Note_on_c, 11, 72, 84
14, 390209, Note_on_c, 11, 72, 0
14, 390240, Note_on_c, 11, 72, 84
14, 390329, Note_on_c, 11, 72, 0
14, 390360, Note_on_c, 11, 70, 84
14, 390449, Note_on_c, 11, 70, 0
14, 390480, Note_on_c, 11, 69, 84
14, 390824, Note_on_c, 11, 69, 0
14, 390840, Note_on_c, 11, 69, 52
14, 391199, Note_on_c, 11, 69, 0
14, 391200, Note_on_c, 11, 69, 52
14, 391559, Note_on_c, 11, 69, 0
14, 391560, Note_on_c, 11, 69, 52
14, 392039, Note_on_c, 11, 69, 0
14, 392040, Note_on_c, 11, 72, 52
14, 392144, Note_on_c, 11, 72, 0
14, 392160, Note_on_c, 11, 72, 52
14, 392249, Note_on_c, 11, 72, 0
14, 392280, Note_on_c, 11, 72, 52
14, 392639, Note_on_c, 11, 72, 0
14, 392640, Note_on_c, 11, 72, 52
14, 392999, Note_on_c, 11, 72, 0
14, 393000, Note_on_c, 11, 72, 52
14, 393479, Note_on_c, 11, 72, 0
14, 393480, Note_on_c, 11, 77, 52
14, 393584, Note_on_c, 11, 77, 0
14, 393600, Note_on_c, 11, 77, 52
14, 393689, Note_on_c, 11, 77, 0
14, 393720, Note_on_c, 11, 64, 52
14, 393809, Note_on_c, 11, 64, 0
14, 393840, Note_on_c, 11, 64, 52
14, 393929, Note_on_c, 11, 64, 0
14, 393960, Note_on_c, 11, 65, 52
14, 394049, Note_on_c, 11, 65, 0
14, 394080, Note_on_c, 11, 64, 52
14, 394319, Note_on_c, 11, 64, 0
14, 394320, Note_on_c, 11, 65, 52
14, 394439, Note_on_c, 11, 65, 0
14, 395040, Control_c, 11, 11, 80
14, 395160, Note_on_c, 11, 64, 76
14, 395200, Control_c, 11, 11, 83
14, 395240, Control_c, 11, 11, 85
14, 395249, Note_on_c, 11, 64, 0
14, 395280, Note_on_c, 11, 64, 76
14, 395280, Control_c, 11, 11, 88
14, 395320, Control_c, 11, 11, 90
14, 395360, Control_c, 11, 11, 93
14, 395369, Note_on_c, 11, 64, 0
14, 395400, Control_c, 11, 11, 96
14, 395400, Note_on_c, 11, 65, 76
14, 395440, Control_c, 11, 11, 98
14, 395480, Control_c, 11, 11, 101
14, 395489, Note_on_c, 11, 65, 0
14, 395520, Control_c, 11, 11, 104
14, 395520, Note_on_c, 11, 64, 76
14, 395560, Control_c, 11, 11, 106
14, 395600, Control_c, 11, 11, 109
14, 395640, Control_c, 11, 11, 111
14, 395680, Control_c, 11, 11, 114
14, 395720, Control_c, 11, 11, 117
14, 395759, Note_on_c, 11, 64, 0
14, 395760, Control_c, 11, 11, 119
14, 395760, Note_on_c, 11, 65, 76
14, 395800, Control_c, 11, 11, 122
14, 395840, Control_c, 11, 11, 127
14, 395864, Note_on_c, 11, 65, 0
14, 395880, Note_on_c, 11, 65, 76
14, 396104, Note_on_c, 11, 65, 0
14, 396120, Note_on_c, 11, 65, 76
14, 396224, Note_on_c, 11, 65, 0
14, 396240, Note_on_c, 11, 71, 84
14, 396479, Note_on_c, 11, 71, 0
14, 396480, Note_on_c, 11, 72, 76
14, 396584, Note_on_c, 11, 72, 0
14, 396600, Note_on_c, 11, 72, 84
14, 396824, Note_on_c, 11, 72, 0
14, 396840, Note_on_c, 11, 72, 76
14, 396944, Note_on_c, 11, 72, 0
14, 396960, Note_on_c, 11, 77, 84
14, 397199, Note_on_c, 11, 77, 0
14, 397200, Note_on_c, 11, 76, 76
14, 397304, Note_on_c, 11, 76, 0
14, 397320, Note_on_c, 11, 65, 52
14, 397424, Note_on_c, 11, 65, 0
14, 397440, Note_on_c, 11, 65, 52
14, 397544, Note_on_c, 11, 65, 0
14, 397560, Note_on_c, 11, 67, 52
14, 397664, Note_on_c, 11, 67, 0
14, 397680, Note_on_c, 11, 64, 52
14, 397784, Note_on_c, 11, 64, 0
14, 397800, Note_on_c, 11, 64, 52
14, 397904, Note_on_c, 11, 64, 0
14, 397920, Note_on_c, 11, 67, 52
14, 398024, Note_on_c, 11, 67, 0
14, 398040, Note_on_c, 11, 62, 52
14, 398144, Note_on_c, 11, 62, 0
14, 398160, Note_on_c, 11, 62, 52
14, 398264, Note_on_c, 11, 62, 0
14, 398280, Note_on_c, 11, 67, 52
14, 398384, Note_on_c, 11, 67, 0
14, 398400, Note_on_c, 11, 64, 52
14, 398504, Note_on_c, 11, 64, 0
14, 398520, Note_on_c, 11, 64, 52
14, 398624, Note_on_c, 11, 64, 0
14, 398640, Note_on_c, 11, 67, 52
14, 398744, Note_on_c, 11, 67, 0
14, 398760, Note_on_c, 11, 65, 52
14, 398864, Note_on_c, 11, 65, 0
14, 398880, Note_on_c, 11, 65, 54
14, 398984, Note_on_c, 11, 65, 0
14, 399000, Note_on_c, 11, 67, 57
14, 399104, Note_on_c, 11, 67, 0
14, 399120, Note_on_c, 11, 64, 60
14, 399224, Note_on_c, 11, 64, 0
14, 399240, Note_on_c, 11, 67, 62
14, 399344, Note_on_c, 11, 67, 0
14, 399360, Note_on_c, 11, 67, 65
14, 399464, Note_on_c, 11, 67, 0
14, 399480, Note_on_c, 11, 65, 68
14, 399584, Note_on_c, 11, 65, 0
14, 399600, Note_on_c, 11, 65, 70
14, 399704, Note_on_c, 11, 65, 0
14, 399720, Note_on_c, 11, 67, 73
14, 399824, Note_on_c, 11, 67, 0
14, 399840, Note_on_c, 11, 64, 76
14, 399944, Note_on_c, 11, 64, 0
14, 399960, Note_on_c, 11, 64, 78
14, 400064, Note_on_c, 11, 64, 0
14, 400080, Note_on_c, 11, 67, 81
14, 400184, Note_on_c, 11, 67, 0
14, 400200, Note_on_c, 11, 67, 84
14, 400244, Note_on_c, 11, 67, 0
14, 400245, Note_on_c, 11, 69, 84
14, 400289, Note_on_c, 11, 69, 0
14, 400290, Note_on_c, 11, 67, 84
14, 400334, Note_on_c, 11, 67, 0
14, 400335, Note_on_c, 11, 69, 84
14, 400379, Note_on_c, 11, 69, 0
14, 400380, Note_on_c, 11, 67, 84
14, 400424, Note_on_c, 11, 67, 0
14, 400425, Note_on_c, 11, 69, 84
14, 400469, Note_on_c, 11, 69, 0
14, 400470, Note_on_c, 11, 65, 84
14, 400514, Note_on_c, 11, 65, 0
14, 400515, Note_on_c, 11, 67, 84
14, 400559, Note_on_c, 11, 67, 0
14, 400560, Note_on_c, 11, 65, 84
14, 400649, Note_on_c, 11, 65, 0
14, 400680, Note_on_c, 11, 69, 84
14, 400769, Note_on_c, 11, 69, 0
14, 400800, Note_on_c, 11, 65, 84
14, 400889, Note_on_c, 11, 65, 0
14, 400920, Note_on_c, 11, 67, 84
14, 400964, Note_on_c, 11, 67, 0
14, 400965, Note_on_c, 11, 69, 84
14, 401009, Note_on_c, 11, 69, 0
14, 401010, Note_on_c, 11, 67, 84
14, 401054, Note_on_c, 11, 67, 0
14, 401055, Note_on_c, 11, 69, 84
14, 401099, Note_on_c, 11, 69, 0
14, 401100, Note_on_c, 11, 67, 84
14, 401144, Note_on_c, 11, 67, 0
14, 401145, Note_on_c, 11, 69, 84
14, 401189, Note_on_c, 11, 69, 0
14, 401190, Note_on_c, 11, 65, 84
14, 401234, Note_on_c, 11, 65, 0
14, 401235, Note_on_c, 11, 67, 84
14, 401279, Note_on_c, 11, 67, 0
14, 401280, Note_on_c, 11, 65, 84
14, 401369, Note_on_c, 11, 65, 0
14, 401400, Note_on_c, 11, 69, 84
14, 401489, Note_on_c, 11, 69, 0
14, 401520, Note_on_c, 11, 65, 84
14, 401609, Note_on_c, 11, 65, 0
14, 401640, Note_on_c, 11, 67, 84
14, 401684, Note_on_c, 11, 67, 0
14, 401685, Note_on_c, 11, 69, 84
14, 401729, Note_on_c, 11, 69, 0
14, 401730, Note_on_c, 11, 67, 84
14, 401774, Note_on_c, 11, 67, 0
14, 401775, Note_on_c, 11, 69, 84
14, 401819, Note_on_c, 11, 69, 0
14, 401820, Note_on_c, 11, 67, 84
14, 401864, Note_on_c, 11, 67, 0
14, 401865, Note_on_c, 11, 69, 84
14, 401909, Note_on_c, 11, 69, 0
14, 401910, Note_on_c, 11, 65, 84
14, 401954, Note_on_c, 11, 65, 0
14, 401955, Note_on_c, 11, 67, 84
14, 401999, Note_on_c, 11, 67, 0
14, 402000, Note_on_c, 11, 65, 84
14, 402089, Note_on_c, 11, 65, 0
14, 402120, Note_on_c, 11, 69, 84
14, 402209, Note_on_c, 11, 69, 0
14, 402240, Note_on_c, 11, 65, 84
14, 402329, Note_on_c, 11, 65, 0
14, 402360, Note_on_c, 11, 67, 84
14, 402404, Note_on_c, 11, 67, 0
14, 402405, Note_on_c, 11, 69, 84
14, 402449, Note_on_c, 11, 69, 0
14, 402450, Note_on_c, 11, 67, 84
14, 402494, Note_on_c, 11, 67, 0
14, 402495, Note_on_c, 11, 69, 84
14, 402539, Note_on_c, 11, 69, 0
14, 402540, Note_on_c, 11, 67, 84
14, 402584, Note_on_c, 11, 67, 0
14, 402585, Note_on_c, 11, 69, 84
14, 402629, Note_on_c, 11, 69, 0
14, 402630, Note_on_c, 11, 65, 84
14, 402674, Note_on_c, 11, 65, 0
14, 402675, Note_on_c, 11, 67, 84
14, 402719, Note_on_c, 11, 67, 0
14, 402720, Note_on_c, 11, 65, 84
14, 402809, Note_on_c, 11, 65, 0
14, 402840, Note_on_c, 11, 69, 84
14, 402929, Note_on_c, 11, 69, 0
14, 402960, Note_on_c, 11, 65, 84
14, 403049, Note_on_c, 11, 65, 0
14, 403080, Note_on_c, 11, 67, 84
14, 403124, Note_on_c, 11, 67, 0
14, 403125, Note_on_c, 11, 69, 84
14, 403169, Note_on_c, 11, 69, 0
14, 403170, Note_on_c, 11, 67, 84
14, 403214, Note_on_c, 11, 67, 0
14, 403215, Note_on_c, 11, 69, 84
14, 403259, Note_on_c, 11, 69, 0
14, 403260, Note_on_c, 11, 67, 84
14, 403304, Note_on_c, 11, 67, 0
14, 403305, Note_on_c, 11, 69, 84
14, 403349, Note_on_c, 11, 69, 0
14, 403350, Note_on_c, 11, 65, 84
14, 403394, Note_on_c, 11, 65, 0
14, 403395, Note_on_c, 11, 67, 84
14, 403439, Note_on_c, 11, 67, 0
14, 403440, Note_on_c, 11, 65, 84
14, 403529, Note_on_c, 11, 65, 0
14, 403560, Note_on_c, 11, 72, 84
14, 403649, Note_on_c, 11, 72, 0
14, 403680, Note_on_c, 11, 69, 84
14, 403769, Note_on_c, 11, 69, 0
14, 403800, Note_on_c, 11, 65, 84
14, 403889, Note_on_c, 11, 65, 0
14, 403920, Note_on_c, 11, 60, 84
14, 404009, Note_on_c, 11, 60, 0
14, 404040, Note_on_c, 11, 57, 84
14, 404129, Note_on_c, 11, 57, 0
14, 404160, Note_on_c, 11, 65, 84
14, 404160, Note_on_c, 11, 57, 84
14, 404279, Note_on_c, 11, 65, 0
14, 404279, Note_on_c, 11, 57, 0
14, 405120, Note_on_c, 11, 65, 84
14, 405191, Note_on_c, 11, 65, 0
14, 405200, Note_on_c, 11, 65, 84
14, 405239, Note_on_c, 11, 65, 0
14, 405240, Note_on_c, 11, 69, 92
14, 405359, Note_on_c, 11, 69, 0
14, 405360, Note_on_c, 11, 65, 84
14, 405419, Note_on_c, 11, 65, 0
14, 405480, Note_on_c, 11, 65, 84
14, 405551, Note_on_c, 11, 65, 0
14, 405560, Note_on_c, 11, 65, 84
14, 405599, Note_on_c, 11, 65, 0
14, 405600, Note_on_c, 11, 69, 92
14, 405719, Note_on_c, 11, 69, 0
14, 405720, Note_on_c, 11, 65, 84
14, 405779, Note_on_c, 11, 65, 0
14, 405840, Note_on_c, 11, 65, 84
14, 405911, Note_on_c, 11, 65, 0
14, 405920, Note_on_c, 11, 65, 84
14, 405959, Note_on_c, 11, 65, 0
14, 405960, Note_on_c, 11, 69, 92
14, 406079, Note_on_c, 11, 69, 0
14, 406080, Note_on_c, 11, 65, 84
14, 406139, Note_on_c, 11, 65, 0
14, 406200, Note_on_c, 11, 65, 84
14, 406271, Note_on_c, 11, 65, 0
14, 406280, Note_on_c, 11, 65, 84
14, 406319, Note_on_c, 11, 65, 0
14, 406320, Note_on_c, 11, 69, 92
14, 406439, Note_on_c, 11, 69, 0
14, 406440, Note_on_c, 11, 65, 84
14, 406544, Note_on_c, 11, 65, 0
14, 406560, Note_on_c, 11, 65, 84
14, 406631, Note_on_c, 11, 65, 0
14, 406640, Note_on_c, 11, 65, 84
14, 406679, Note_on_c, 11, 65, 0
14, 406680, Note_on_c, 11, 69, 92
14, 406799, Note_on_c, 11, 69, 0
14, 406800, Note_on_c, 11, 65, 84
14, 406904, Note_on_c, 11, 65, 0
14, 406920, Note_on_c, 11, 65, 84
14, 406991, Note_on_c, 11, 65, 0
14, 407000, Note_on_c, 11, 65, 84
14, 407039, Note_on_c, 11, 65, 0
14, 407040, Note_on_c, 11, 69, 92
14, 407159, Note_on_c, 11, 69, 0
14, 407160, Note_on_c, 11, 65, 84
14, 407264, Note_on_c, 11, 65, 0
14, 407280, Note_on_c, 11, 65, 84
14, 407369, Note_on_c, 11, 65, 0
14, 407400, Control_c, 11, 11, 127
14, 407400, Note_on_c, 11, 69, 84
14, 407440, Control_c, 11, 11, 125
14, 407480, Control_c, 11, 11, 124
14, 407520, Control_c, 11, 11, 122
14, 407560, Control_c, 11, 11, 120
14, 407600, Control_c, 11, 11, 118
14, 407640, Control_c, 11, 11, 117
14, 407680, Control_c, 11, 11, 115
14, 407720, Control_c, 11, 11, 113
14, 407759, Note_on_c, 11, 69, 0
14, 407760, Control_c, 11, 11, 111
14, 407760, Note_on_c, 11, 69, 84
14, 407800, Control_c, 11, 11, 110
14, 407840, Control_c, 11, 11, 108
14, 407880, Control_c, 11, 11, 106
14, 407920, Control_c, 11, 11, 104
14, 407960, Control_c, 11, 11, 103
14, 408000, Control_c, 11, 11, 101
14, 408040, Control_c, 11, 11, 99
14, 408080, Control_c, 11, 11, 97
14, 408119, Note_on_c, 11, 69, 0
14, 408120, Note_on_c, 11, 69, 84
14, 408120, Control_c, 11, 11, 96
14, 408160, Control_c, 11, 11, 94
14, 408200, Control_c, 11, 11, 92
14, 408240, Control_c, 11, 11, 90
14, 408280, Control_c, 11, 11, 89
14, 408320, Control_c, 11, 11, 87
14, 408360, Control_c, 11, 11, 85
14, 408400, Control_c, 11, 11, 83
14, 408440, Control_c, 11, 11, 82
14, 408479, Note_on_c, 11, 69, 0
14, 408480, Control_c, 11, 11, 80
14, 408480, Note_on_c, 11, 69, 84
14, 408520, Control_c, 11, 11, 78
14, 408560, Control_c, 11, 11, 76
14, 408600, Control_c, 11, 11, 75
14, 408640, Control_c, 11, 11, 73
14, 408680, Control_c, 11, 11, 71
14, 408720, Control_c, 11, 11, 69
14, 408760, Control_c, 11, 11, 68
14, 408838, Control_c, 11, 11, 64
14, 408839, Note_on_c, 11, 69, 0
14, 408840, Note_on_c, 11, 69, 84
14, 409559, Note_on_c, 11, 69, 0
14, 409560, Note_on_c, 11, 69, 84
14, 410279, Note_on_c, 11, 69, 0
14, 410280, Note_on_c, 11, 69, 84
14, 410999, Note_on_c, 11, 69, 0
14, 411000, Note_on_c, 11, 69, 84
14, 411699, Note_on_c, 11, 69, 0
14, 411718, Control_c, 11, 11, 127
14, 411720, Note_on_c, 11, 70, 84
14, 411839, Note_on_c, 11, 70, 0
14, 412080, Note_on_c, 11, 71, 84
14, 412199, Note_on_c, 11, 71, 0
14, 412440, Note_on_c, 11, 72, 84
14, 412559, Note_on_c, 11, 72, 0
14, 412800, Note_on_c, 11, 76, 84
14, 412800, Note_on_c, 11, 70, 84
14, 412800, Note_on_c, 11, 67, 84
14, 412919, Note_on_c, 11, 76, 0
14, 412919, Note_on_c, 11, 70, 0
14, 412919, Note_on_c, 11, 67, 0
14, 413160, Note_on_c, 11, 77, 84
14, 413160, Note_on_c, 11, 69, 84
14, 413160, Note_on_c, 11, 65, 84
14, 413279, Note_on_c, 11, 77, 0
14, 413279, Note_on_c, 11, 69, 0
14, 413279, Note_on_c, 11, 65, 0
14, 413279, End_track
15, 0, Start_track
15, 0, Title_t, "Viola "
15, 0, MIDI_port, 0
15, 0, Program_c, 12, 48
15, 0, Control_c, 12, 11, 127
15, 0, Control_c, 12, 10, 70
15, 0, Control_c, 12, 7, 96
15, 0, Note_on_c, 12, 53, 76
15, 71, Note_on_c, 12, 53, 0
15, 80, Note_on_c, 12, 53, 76
15, 119, Note_on_c, 12, 53, 0
15, 120, Note_on_c, 12, 57, 76
15, 239, Note_on_c, 12, 57, 0
15, 240, Note_on_c, 12, 53, 76
15, 299, Note_on_c, 12, 53, 0
15, 360, Note_on_c, 12, 53, 76
15, 360, Note_on_c, 12, 57, 76
15, 431, Note_on_c, 12, 53, 0
15, 431, Note_on_c, 12, 57, 0
15, 440, Note_on_c, 12, 53, 76
15, 440, Note_on_c, 12, 57, 76
15, 479, Note_on_c, 12, 53, 0
15, 479, Note_on_c, 12, 57, 0
15, 480, Note_on_c, 12, 60, 76
15, 480, Note_on_c, 12, 57, 76
15, 599, Note_on_c, 12, 60, 0
15, 599, Note_on_c, 12, 57, 0
15, 600, Note_on_c, 12, 57, 76
15, 600, Note_on_c, 12, 53, 76
15, 659, Note_on_c, 12, 57, 0
15, 659, Note_on_c, 12, 53, 0
15, 720, Note_on_c, 12, 60, 76
15, 720, Note_on_c, 12, 57, 76
15, 824, Note_on_c, 12, 60, 0
15, 824, Note_on_c, 12, 57, 0
15, 840, Note_on_c, 12, 53, 52
15, 840, Note_on_c, 12, 57, 52
15, 929, Note_on_c, 12, 53, 0
15, 929, Note_on_c, 12, 57, 0
15, 960, Note_on_c, 12, 57, 52
15, 960, Note_on_c, 12, 53, 52
15, 1049, Note_on_c, 12, 57, 0
15, 1049, Note_on_c, 12, 53, 0
15, 1080, Note_on_c, 12, 60, 52
15, 1080, Note_on_c, 12, 57, 52
15, 1169, Note_on_c, 12, 60, 0
15, 1169, Note_on_c, 12, 57, 0
15, 1200, Note_on_c, 12, 57, 52
15, 1200, Note_on_c, 12, 53, 52
15, 1289, Note_on_c, 12, 57, 0
15, 1289, Note_on_c, 12, 53, 0
15, 1320, Note_on_c, 12, 57, 52
15, 1320, Note_on_c, 12, 53, 52
15, 1409, Note_on_c, 12, 57, 0
15, 1409, Note_on_c, 12, 53, 0
15, 1440, Note_on_c, 12, 60, 52
15, 1440, Note_on_c, 12, 57, 52
15, 1529, Note_on_c, 12, 60, 0
15, 1529, Note_on_c, 12, 57, 0
15, 1560, Note_on_c, 12, 53, 52
15, 1560, Note_on_c, 12, 57, 52
15, 1649, Note_on_c, 12, 53, 0
15, 1649, Note_on_c, 12, 57, 0
15, 1680, Note_on_c, 12, 57, 52
15, 1680, Note_on_c, 12, 53, 52
15, 1769, Note_on_c, 12, 57, 0
15, 1769, Note_on_c, 12, 53, 0
15, 1800, Note_on_c, 12, 57, 52
15, 1800, Note_on_c, 12, 60, 52
15, 1889, Note_on_c, 12, 57, 0
15, 1889, Note_on_c, 12, 60, 0
15, 1920, Note_on_c, 12, 48, 52
15, 1920, Note_on_c, 12, 55, 52
15, 2024, Note_on_c, 12, 48, 0
15, 2024, Note_on_c, 12, 55, 0
15, 2040, Note_on_c, 12, 48, 52
15, 2040, Note_on_c, 12, 55, 52
15, 2144, Note_on_c, 12, 48, 0
15, 2144, Note_on_c, 12, 55, 0
15, 2160, Note_on_c, 12, 60, 52
15, 2160, Note_on_c, 12, 48, 52
15, 2264, Note_on_c, 12, 60, 0
15, 2264, Note_on_c, 12, 48, 0
15, 2280, Note_on_c, 12, 55, 52
15, 2280, Note_on_c, 12, 48, 52
15, 2384, Note_on_c, 12, 55, 0
15, 2384, Note_on_c, 12, 48, 0
15, 2400, Note_on_c, 12, 48, 52
15, 2400, Note_on_c, 12, 55, 52
15, 2504, Note_on_c, 12, 48, 0
15, 2504, Note_on_c, 12, 55, 0
15, 2520, Note_on_c, 12, 60, 52
15, 2520, Note_on_c, 12, 48, 52
15, 2624, Note_on_c, 12, 60, 0
15, 2624, Note_on_c, 12, 48, 0
15, 2640, Note_on_c, 12, 48, 52
15, 2640, Note_on_c, 12, 55, 52
15, 2744, Note_on_c, 12, 48, 0
15, 2744, Note_on_c, 12, 55, 0
15, 2760, Note_on_c, 12, 55, 52
15, 2760, Note_on_c, 12, 48, 52
15, 2864, Note_on_c, 12, 55, 0
15, 2864, Note_on_c, 12, 48, 0
15, 2880, Note_on_c, 12, 60, 52
15, 2880, Note_on_c, 12, 48, 52
15, 2984, Note_on_c, 12, 60, 0
15, 2984, Note_on_c, 12, 48, 0
15, 3000, Note_on_c, 12, 48, 52
15, 3000, Note_on_c, 12, 55, 52
15, 3104, Note_on_c, 12, 48, 0
15, 3104, Note_on_c, 12, 55, 0
15, 3120, Note_on_c, 12, 55, 52
15, 3120, Note_on_c, 12, 48, 52
15, 3224, Note_on_c, 12, 55, 0
15, 3224, Note_on_c, 12, 48, 0
15, 3240, Note_on_c, 12, 48, 52
15, 3240, Note_on_c, 12, 60, 52
15, 3344, Note_on_c, 12, 48, 0
15, 3344, Note_on_c, 12, 60, 0
15, 3360, Note_on_c, 12, 53, 52
15, 3360, Note_on_c, 12, 57, 52
15, 3464, Note_on_c, 12, 53, 0
15, 3464, Note_on_c, 12, 57, 0
15, 3480, Note_on_c, 12, 53, 52
15, 3480, Note_on_c, 12, 57, 52
15, 3584, Note_on_c, 12, 53, 0
15, 3584, Note_on_c, 12, 57, 0
15, 3600, Note_on_c, 12, 57, 52
15, 3600, Note_on_c, 12, 60, 52
15, 3704, Note_on_c, 12, 57, 0
15, 3704, Note_on_c, 12, 60, 0
15, 3720, Note_on_c, 12, 48, 52
15, 3809, Note_on_c, 12, 48, 0
15, 3840, Note_on_c, 12, 60, 52
15, 3929, Note_on_c, 12, 60, 0
15, 3960, Note_on_c, 12, 60, 52
15, 4049, Note_on_c, 12, 60, 0
15, 4080, Note_on_c, 12, 60, 52
15, 4304, Note_on_c, 12, 60, 0
15, 4320, Note_on_c, 12, 60, 52
15, 4424, Note_on_c, 12, 60, 0
15, 4440, Note_on_c, 12, 48, 52
15, 4529, Note_on_c, 12, 48, 0
15, 4560, Note_on_c, 12, 60, 56
15, 4649, Note_on_c, 12, 60, 0
15, 4680, Note_on_c, 12, 60, 60
15, 4769, Note_on_c, 12, 60, 0
15, 4800, Note_on_c, 12, 60, 64
15, 5024, Note_on_c, 12, 60, 0
15, 5040, Note_on_c, 12, 60, 72
15, 5144, Note_on_c, 12, 60, 0
15, 5160, Note_on_c, 12, 62, 84
15, 5399, Note_on_c, 12, 62, 0
15, 5400, Note_on_c, 12, 64, 76
15, 5504, Note_on_c, 12, 64, 0
15, 5520, Note_on_c, 12, 68, 84
15, 5759, Note_on_c, 12, 68, 0
15, 5760, Note_on_c, 12, 69, 76
15, 5864, Note_on_c, 12, 69, 0
15, 5880, Note_on_c, 12, 62, 76
15, 5880, Note_on_c, 12, 59, 76
15, 5984, Note_on_c, 12, 62, 0
15, 5984, Note_on_c, 12, 59, 0
15, 6000, Note_on_c, 12, 64, 76
15, 6000, Note_on_c, 12, 62, 76
15, 6104, Note_on_c, 12, 64, 0
15, 6104, Note_on_c, 12, 62, 0
15, 6120, Note_on_c, 12, 64, 76
15, 6120, Note_on_c, 12, 62, 76
15, 6224, Note_on_c, 12, 64, 0
15, 6224, Note_on_c, 12, 62, 0
15, 6240, Note_on_c, 12, 61, 76
15, 6240, Note_on_c, 12, 57, 76
15, 6344, Note_on_c, 12, 61, 0
15, 6344, Note_on_c, 12, 57, 0
15, 6360, Note_on_c, 12, 61, 76
15, 6360, Note_on_c, 12, 64, 76
15, 6464, Note_on_c, 12, 61, 0
15, 6464, Note_on_c, 12, 64, 0
15, 6480, Note_on_c, 12, 64, 76
15, 6480, Note_on_c, 12, 61, 76
15, 6584, Note_on_c, 12, 64, 0
15, 6584, Note_on_c, 12, 61, 0
15, 6600, Note_on_c, 12, 59, 76
15, 6600, Note_on_c, 12, 56, 76
15, 6704, Note_on_c, 12, 59, 0
15, 6704, Note_on_c, 12, 56, 0
15, 6720, Note_on_c, 12, 64, 76
15, 6720, Note_on_c, 12, 59, 76
15, 6824, Note_on_c, 12, 64, 0
15, 6824, Note_on_c, 12, 59, 0
15, 6840, Note_on_c, 12, 59, 76
15, 6840, Note_on_c, 12, 64, 76
15, 6944, Note_on_c, 12, 59, 0
15, 6944, Note_on_c, 12, 64, 0
15, 6960, Note_on_c, 12, 61, 76
15, 6960, Note_on_c, 12, 57, 76
15, 7064, Note_on_c, 12, 61, 0
15, 7064, Note_on_c, 12, 57, 0
15, 7080, Note_on_c, 12, 64, 76
15, 7080, Note_on_c, 12, 61, 76
15, 7184, Note_on_c, 12, 64, 0
15, 7184, Note_on_c, 12, 61, 0
15, 7200, Note_on_c, 12, 61, 76
15, 7200, Note_on_c, 12, 64, 76
15, 7304, Note_on_c, 12, 61, 0
15, 7304, Note_on_c, 12, 64, 0
15, 7320, Note_on_c, 12, 59, 76
15, 7320, Note_on_c, 12, 62, 76
15, 7424, Note_on_c, 12, 59, 0
15, 7424, Note_on_c, 12, 62, 0
15, 7440, Note_on_c, 12, 64, 76
15, 7440, Note_on_c, 12, 62, 76
15, 7544, Note_on_c, 12, 64, 0
15, 7544, Note_on_c, 12, 62, 0
15, 7560, Note_on_c, 12, 62, 76
15, 7560, Note_on_c, 12, 64, 76
15, 7664, Note_on_c, 12, 62, 0
15, 7664, Note_on_c, 12, 64, 0
15, 7680, Note_on_c, 12, 61, 76
15, 7680, Note_on_c, 12, 57, 76
15, 7769, Note_on_c, 12, 61, 0
15, 7769, Note_on_c, 12, 57, 0
15, 7800, Note_on_c, 12, 76, 76
15, 7889, Note_on_c, 12, 76, 0
15, 7920, Note_on_c, 12, 73, 76
15, 8009, Note_on_c, 12, 73, 0
15, 8040, Note_on_c, 12, 69, 76
15, 8129, Note_on_c, 12, 69, 0
15, 8160, Note_on_c, 12, 64, 76
15, 8249, Note_on_c, 12, 64, 0
15, 8280, Note_on_c, 12, 61, 76
15, 8369, Note_on_c, 12, 61, 0
15, 8400, Note_on_c, 12, 57, 76
15, 8489, Note_on_c, 12, 57, 0
15, 8640, Note_on_c, 12, 53, 76
15, 8711, Note_on_c, 12, 53, 0
15, 8720, Note_on_c, 12, 53, 76
15, 8759, Note_on_c, 12, 53, 0
15, 8760, Note_on_c, 12, 57, 76
15, 8879, Note_on_c, 12, 57, 0
15, 8880, Note_on_c, 12, 53, 76
15, 8939, Note_on_c, 12, 53, 0
15, 9000, Note_on_c, 12, 57, 76
15, 9000, Note_on_c, 12, 53, 76
15, 9071, Note_on_c, 12, 57, 0
15, 9071, Note_on_c, 12, 53, 0
15, 9080, Note_on_c, 12, 53, 76
15, 9080, Note_on_c, 12, 57, 76
15, 9119, Note_on_c, 12, 53, 0
15, 9119, Note_on_c, 12, 57, 0
15, 9120, Note_on_c, 12, 57, 76
15, 9120, Note_on_c, 12, 60, 76
15, 9239, Note_on_c, 12, 57, 0
15, 9239, Note_on_c, 12, 60, 0
15, 9240, Note_on_c, 12, 57, 76
15, 9240, Note_on_c, 12, 53, 76
15, 9299, Note_on_c, 12, 57, 0
15, 9299, Note_on_c, 12, 53, 0
15, 9360, Note_on_c, 12, 60, 76
15, 9360, Note_on_c, 12, 57, 76
15, 9464, Note_on_c, 12, 60, 0
15, 9464, Note_on_c, 12, 57, 0
15, 9480, Note_on_c, 12, 53, 52
15, 9480, Note_on_c, 12, 57, 52
15, 9569, Note_on_c, 12, 53, 0
15, 9569, Note_on_c, 12, 57, 0
15, 9600, Note_on_c, 12, 53, 52
15, 9600, Note_on_c, 12, 57, 52
15, 9689, Note_on_c, 12, 53, 0
15, 9689, Note_on_c, 12, 57, 0
15, 9720, Note_on_c, 12, 60, 52
15, 9720, Note_on_c, 12, 57, 52
15, 9809, Note_on_c, 12, 60, 0
15, 9809, Note_on_c, 12, 57, 0
15, 9840, Note_on_c, 12, 53, 52
15, 9840, Note_on_c, 12, 57, 52
15, 9929, Note_on_c, 12, 53, 0
15, 9929, Note_on_c, 12, 57, 0
15, 9960, Note_on_c, 12, 57, 52
15, 9960, Note_on_c, 12, 53, 52
15, 10049, Note_on_c, 12, 57, 0
15, 10049, Note_on_c, 12, 53, 0
15, 10080, Note_on_c, 12, 57, 52
15, 10080, Note_on_c, 12, 60, 52
15, 10169, Note_on_c, 12, 57, 0
15, 10169, Note_on_c, 12, 60, 0
15, 10200, Note_on_c, 12, 53, 52
15, 10200, Note_on_c, 12, 57, 52
15, 10289, Note_on_c, 12, 53, 0
15, 10289, Note_on_c, 12, 57, 0
15, 10320, Note_on_c, 12, 57, 52
15, 10320, Note_on_c, 12, 53, 52
15, 10409, Note_on_c, 12, 57, 0
15, 10409, Note_on_c, 12, 53, 0
15, 10440, Note_on_c, 12, 57, 52
15, 10440, Note_on_c, 12, 60, 52
15, 10529, Note_on_c, 12, 57, 0
15, 10529, Note_on_c, 12, 60, 0
15, 10560, Note_on_c, 12, 55, 52
15, 10560, Note_on_c, 12, 48, 52
15, 10664, Note_on_c, 12, 55, 0
15, 10664, Note_on_c, 12, 48, 0
15, 10680, Note_on_c, 12, 55, 52
15, 10680, Note_on_c, 12, 48, 52
15, 10784, Note_on_c, 12, 55, 0
15, 10784, Note_on_c, 12, 48, 0
15, 10800, Note_on_c, 12, 48, 52
15, 10800, Note_on_c, 12, 60, 52
15, 10904, Note_on_c, 12, 48, 0
15, 10904, Note_on_c, 12, 60, 0
15, 10920, Note_on_c, 12, 48, 52
15, 10920, Note_on_c, 12, 55, 52
15, 11024, Note_on_c, 12, 48, 0
15, 11024, Note_on_c, 12, 55, 0
15, 11040, Note_on_c, 12, 48, 52
15, 11040, Note_on_c, 12, 55, 52
15, 11144, Note_on_c, 12, 48, 0
15, 11144, Note_on_c, 12, 55, 0
15, 11160, Note_on_c, 12, 48, 52
15, 11160, Note_on_c, 12, 60, 52
15, 11264, Note_on_c, 12, 48, 0
15, 11264, Note_on_c, 12, 60, 0
15, 11280, Note_on_c, 12, 55, 52
15, 11280, Note_on_c, 12, 48, 52
15, 11384, Note_on_c, 12, 55, 0
15, 11384, Note_on_c, 12, 48, 0
15, 11400, Note_on_c, 12, 55, 52
15, 11400, Note_on_c, 12, 48, 52
15, 11504, Note_on_c, 12, 55, 0
15, 11504, Note_on_c, 12, 48, 0
15, 11520, Note_on_c, 12, 48, 52
15, 11520, Note_on_c, 12, 60, 52
15, 11624, Note_on_c, 12, 48, 0
15, 11624, Note_on_c, 12, 60, 0
15, 11640, Note_on_c, 12, 48, 52
15, 11640, Note_on_c, 12, 55, 52
15, 11744, Note_on_c, 12, 48, 0
15, 11744, Note_on_c, 12, 55, 0
15, 11760, Note_on_c, 12, 55, 52
15, 11760, Note_on_c, 12, 48, 52
15, 11864, Note_on_c, 12, 55, 0
15, 11864, Note_on_c, 12, 48, 0
15, 11880, Note_on_c, 12, 48, 52
15, 11880, Note_on_c, 12, 60, 52
15, 11984, Note_on_c, 12, 48, 0
15, 11984, Note_on_c, 12, 60, 0
15, 12000, Note_on_c, 12, 57, 52
15, 12000, Note_on_c, 12, 53, 52
15, 12104, Note_on_c, 12, 57, 0
15, 12104, Note_on_c, 12, 53, 0
15, 12120, Note_on_c, 12, 53, 52
15, 12120, Note_on_c, 12, 57, 52
15, 12224, Note_on_c, 12, 53, 0
15, 12224, Note_on_c, 12, 57, 0
15, 12240, Note_on_c, 12, 60, 52
15, 12240, Note_on_c, 12, 57, 52
15, 12344, Note_on_c, 12, 60, 0
15, 12344, Note_on_c, 12, 57, 0
15, 12360, Note_on_c, 12, 48, 52
15, 12449, Note_on_c, 12, 48, 0
15, 12480, Note_on_c, 12, 60, 52
15, 12569, Note_on_c, 12, 60, 0
15, 12600, Note_on_c, 12, 60, 52
15, 12689, Note_on_c, 12, 60, 0
15, 12720, Note_on_c, 12, 60, 52
15, 12944, Note_on_c, 12, 60, 0
15, 12960, Note_on_c, 12, 60, 52
15, 13064, Note_on_c, 12, 60, 0
15, 13080, Note_on_c, 12, 48, 52
15, 13169, Note_on_c, 12, 48, 0
15, 13200, Note_on_c, 12, 60, 56
15, 13289, Note_on_c, 12, 60, 0
15, 13320, Note_on_c, 12, 60, 60
15, 13409, Note_on_c, 12, 60, 0
15, 13440, Note_on_c, 12, 60, 64
15, 13664, Note_on_c, 12, 60, 0
15, 13680, Note_on_c, 12, 60, 72
15, 13784, Note_on_c, 12, 60, 0
15, 13800, Note_on_c, 12, 62, 84
15, 14039, Note_on_c, 12, 62, 0
15, 14040, Note_on_c, 12, 64, 76
15, 14144, Note_on_c, 12, 64, 0
15, 14160, Note_on_c, 12, 68, 84
15, 14399, Note_on_c, 12, 68, 0
15, 14400, Note_on_c, 12, 69, 76
15, 14504, Note_on_c, 12, 69, 0
15, 14520, Note_on_c, 12, 59, 76
15, 14520, Note_on_c, 12, 62, 76
15, 14624, Note_on_c, 12, 59, 0
15, 14624, Note_on_c, 12, 62, 0
15, 14640, Note_on_c, 12, 62, 76
15, 14640, Note_on_c, 12, 64, 76
15, 14744, Note_on_c, 12, 62, 0
15, 14744, Note_on_c, 12, 64, 0
15, 14760, Note_on_c, 12, 64, 76
15, 14760, Note_on_c, 12, 62, 76
15, 14864, Note_on_c, 12, 64, 0
15, 14864, Note_on_c, 12, 62, 0
15, 14880, Note_on_c, 12, 57, 76
15, 14880, Note_on_c, 12, 61, 76
15, 14984, Note_on_c, 12, 57, 0
15, 14984, Note_on_c, 12, 61, 0
15, 15000, Note_on_c, 12, 64, 76
15, 15000, Note_on_c, 12, 61, 76
15, 15104, Note_on_c, 12, 64, 0
15, 15104, Note_on_c, 12, 61, 0
15, 15120, Note_on_c, 12, 64, 76
15, 15120, Note_on_c, 12, 61, 76
15, 15224, Note_on_c, 12, 64, 0
15, 15224, Note_on_c, 12, 61, 0
15, 15240, Note_on_c, 12, 59, 76
15, 15240, Note_on_c, 12, 56, 76
15, 15344, Note_on_c, 12, 59, 0
15, 15344, Note_on_c, 12, 56, 0
15, 15360, Note_on_c, 12, 59, 76
15, 15360, Note_on_c, 12, 64, 76
15, 15464, Note_on_c, 12, 59, 0
15, 15464, Note_on_c, 12, 64, 0
15, 15480, Note_on_c, 12, 59, 76
15, 15480, Note_on_c, 12, 64, 76
15, 15584, Note_on_c, 12, 59, 0
15, 15584, Note_on_c, 12, 64, 0
15, 15600, Note_on_c, 12, 61, 76
15, 15600, Note_on_c, 12, 57, 76
15, 15704, Note_on_c, 12, 61, 0
15, 15704, Note_on_c, 12, 57, 0
15, 15720, Note_on_c, 12, 61, 76
15, 15720, Note_on_c, 12, 64, 76
15, 15824, Note_on_c, 12, 61, 0
15, 15824, Note_on_c, 12, 64, 0
15, 15840, Note_on_c, 12, 61, 76
15, 15840, Note_on_c, 12, 64, 76
15, 15944, Note_on_c, 12, 61, 0
15, 15944, Note_on_c, 12, 64, 0
15, 15960, Note_on_c, 12, 59, 76
15, 15960, Note_on_c, 12, 62, 76
15, 16064, Note_on_c, 12, 59, 0
15, 16064, Note_on_c, 12, 62, 0
15, 16080, Note_on_c, 12, 62, 76
15, 16080, Note_on_c, 12, 64, 76
15, 16184, Note_on_c, 12, 62, 0
15, 16184, Note_on_c, 12, 64, 0
15, 16200, Note_on_c, 12, 64, 76
15, 16200, Note_on_c, 12, 62, 76
15, 16304, Note_on_c, 12, 64, 0
15, 16304, Note_on_c, 12, 62, 0
15, 16320, Note_on_c, 12, 61, 76
15, 16320, Note_on_c, 12, 57, 76
15, 16409, Note_on_c, 12, 61, 0
15, 16409, Note_on_c, 12, 57, 0
15, 16440, Note_on_c, 12, 76, 76
15, 16529, Note_on_c, 12, 76, 0
15, 16560, Note_on_c, 12, 73, 76
15, 16649, Note_on_c, 12, 73, 0
15, 16680, Note_on_c, 12, 69, 76
15, 16769, Note_on_c, 12, 69, 0
15, 16800, Note_on_c, 12, 64, 76
15, 16889, Note_on_c, 12, 64, 0
15, 16920, Note_on_c, 12, 61, 76
15, 17009, Note_on_c, 12, 61, 0
15, 17040, Note_on_c, 12, 57, 76
15, 17129, Note_on_c, 12, 57, 0
15, 17640, Note_on_c, 12, 57, 76
15, 17711, Note_on_c, 12, 57, 0
15, 17720, Note_on_c, 12, 57, 76
15, 17759, Note_on_c, 12, 57, 0
15, 17760, Note_on_c, 12, 61, 84
15, 17879, Note_on_c, 12, 61, 0
15, 17880, Note_on_c, 12, 57, 76
15, 17939, Note_on_c, 12, 57, 0
15, 21720, Note_on_c, 12, 64, 44
15, 21959, Note_on_c, 12, 64, 0
15, 21960, Note_on_c, 12, 62, 44
15, 22064, Note_on_c, 12, 62, 0
15, 22080, Note_on_c, 12, 64, 44
15, 22319, Note_on_c, 12, 64, 0
15, 22320, Note_on_c, 12, 62, 44
15, 22424, Note_on_c, 12, 62, 0
15, 22440, Note_on_c, 12, 64, 44
15, 22679, Note_on_c, 12, 64, 0
15, 22680, Note_on_c, 12, 62, 44
15, 22784, Note_on_c, 12, 62, 0
15, 22800, Note_on_c, 12, 64, 44
15, 23039, Note_on_c, 12, 64, 0
15, 23040, Note_on_c, 12, 62, 44
15, 23159, Note_on_c, 12, 62, 0
15, 24120, Note_on_c, 12, 62, 84
15, 24224, Note_on_c, 12, 62, 0
15, 24240, Note_on_c, 12, 65, 84
15, 24359, Note_on_c, 12, 65, 0
15, 24360, Note_on_c, 12, 62, 84
15, 24419, Note_on_c, 12, 62, 0
15, 27480, Note_on_c, 12, 67, 44
15, 27719, Note_on_c, 12, 67, 0
15, 27720, Note_on_c, 12, 65, 44
15, 27824, Note_on_c, 12, 65, 0
15, 27840, Note_on_c, 12, 67, 44
15, 28079, Note_on_c, 12, 67, 0
15, 28080, Note_on_c, 12, 65, 44
15, 28184, Note_on_c, 12, 65, 0
15, 28200, Note_on_c, 12, 67, 44
15, 28439, Note_on_c, 12, 67, 0
15, 28440, Note_on_c, 12, 65, 44
15, 28544, Note_on_c, 12, 65, 0
15, 28560, Note_on_c, 12, 67, 44
15, 28799, Note_on_c, 12, 67, 0
15, 28800, Note_on_c, 12, 65, 44
15, 28904, Note_on_c, 12, 65, 0
15, 28920, Note_on_c, 12, 60, 44
15, 29279, Note_on_c, 12, 60, 0
15, 29280, Note_on_c, 12, 60, 44
15, 29639, Note_on_c, 12, 60, 0
15, 29640, Note_on_c, 12, 60, 44
15, 29864, Note_on_c, 12, 60, 0
15, 29880, Note_on_c, 12, 60, 84
15, 29984, Note_on_c, 12, 60, 0
15, 30000, Note_on_c, 12, 63, 84
15, 30119, Note_on_c, 12, 63, 0
15, 30120, Note_on_c, 12, 60, 84
15, 30179, Note_on_c, 12, 60, 0
15, 30240, Note_on_c, 12, 65, 52
15, 30344, Note_on_c, 12, 65, 0
15, 30360, Note_on_c, 12, 67, 52
15, 30449, Note_on_c, 12, 67, 0
15, 30480, Note_on_c, 12, 67, 52
15, 30569, Note_on_c, 12, 67, 0
15, 30600, Note_on_c, 12, 65, 52
15, 30689, Note_on_c, 12, 65, 0
15, 30720, Note_on_c, 12, 63, 52
15, 30959, Note_on_c, 12, 63, 0
15, 30960, Note_on_c, 12, 62, 52
15, 31064, Note_on_c, 12, 62, 0
15, 31080, Note_on_c, 12, 67, 52
15, 31169, Note_on_c, 12, 67, 0
15, 31200, Note_on_c, 12, 67, 52
15, 31289, Note_on_c, 12, 67, 0
15, 31320, Note_on_c, 12, 65, 52
15, 31409, Note_on_c, 12, 65, 0
15, 31440, Note_on_c, 12, 65, 52
15, 31559, Note_on_c, 12, 65, 0
15, 31560, Note_on_c, 12, 62, 52
15, 31619, Note_on_c, 12, 62, 0
15, 31680, Note_on_c, 12, 65, 52
15, 31784, Note_on_c, 12, 65, 0
15, 31800, Note_on_c, 12, 58, 52
15, 31889, Note_on_c, 12, 58, 0
15, 31920, Note_on_c, 12, 62, 52
15, 32009, Note_on_c, 12, 62, 0
15, 32040, Note_on_c, 12, 62, 52
15, 32129, Note_on_c, 12, 62, 0
15, 32160, Note_on_c, 12, 58, 52
15, 32249, Note_on_c, 12, 58, 0
15, 32280, Note_on_c, 12, 62, 52
15, 32369, Note_on_c, 12, 62, 0
15, 32400, Note_on_c, 12, 62, 52
15, 32489, Note_on_c, 12, 62, 0
15, 32520, Note_on_c, 12, 58, 52
15, 32609, Note_on_c, 12, 58, 0
15, 32640, Note_on_c, 12, 62, 52
15, 32729, Note_on_c, 12, 62, 0
15, 32760, Note_on_c, 12, 62, 52
15, 32849, Note_on_c, 12, 62, 0
15, 32880, Note_on_c, 12, 58, 52
15, 32969, Note_on_c, 12, 58, 0
15, 33000, Note_on_c, 12, 62, 52
15, 33089, Note_on_c, 12, 62, 0
15, 33120, Note_on_c, 12, 62, 52
15, 33209, Note_on_c, 12, 62, 0
15, 33240, Note_on_c, 12, 53, 52
15, 33329, Note_on_c, 12, 53, 0
15, 33360, Note_on_c, 12, 53, 52
15, 33449, Note_on_c, 12, 53, 0
15, 33480, Note_on_c, 12, 60, 52
15, 33569, Note_on_c, 12, 60, 0
15, 33600, Note_on_c, 12, 53, 52
15, 33689, Note_on_c, 12, 53, 0
15, 33720, Note_on_c, 12, 53, 52
15, 33809, Note_on_c, 12, 53, 0
15, 33840, Note_on_c, 12, 60, 52
15, 33929, Note_on_c, 12, 60, 0
15, 33960, Note_on_c, 12, 53, 52
15, 34049, Note_on_c, 12, 53, 0
15, 34080, Note_on_c, 12, 53, 52
15, 34169, Note_on_c, 12, 53, 0
15, 34200, Note_on_c, 12, 60, 52
15, 34289, Note_on_c, 12, 60, 0
15, 34320, Note_on_c, 12, 53, 52
15, 34409, Note_on_c, 12, 53, 0
15, 34440, Note_on_c, 12, 53, 52
15, 34529, Note_on_c, 12, 53, 0
15, 34560, Note_on_c, 12, 60, 52
15, 34649, Note_on_c, 12, 60, 0
15, 34680, Note_on_c, 12, 53, 52
15, 34769, Note_on_c, 12, 53, 0
15, 34800, Note_on_c, 12, 53, 52
15, 34889, Note_on_c, 12, 53, 0
15, 34920, Note_on_c, 12, 53, 52
15, 35009, Note_on_c, 12, 53, 0
15, 35040, Note_on_c, 12, 53, 52
15, 35040, Note_on_c, 12, 50, 52
15, 35129, Note_on_c, 12, 53, 0
15, 35129, Note_on_c, 12, 50, 0
15, 35160, Note_on_c, 12, 50, 52
15, 35160, Note_on_c, 12, 53, 52
15, 35249, Note_on_c, 12, 50, 0
15, 35249, Note_on_c, 12, 53, 0
15, 35280, Note_on_c, 12, 58, 53
15, 35280, Note_on_c, 12, 53, 53
15, 35369, Note_on_c, 12, 58, 0
15, 35369, Note_on_c, 12, 53, 0
15, 35400, Note_on_c, 12, 53, 53
15, 35400, Note_on_c, 12, 50, 53
15, 35489, Note_on_c, 12, 53, 0
15, 35489, Note_on_c, 12, 50, 0
15, 35520, Note_on_c, 12, 50, 54
15, 35520, Note_on_c, 12, 53, 54
15, 35609, Note_on_c, 12, 50, 0
15, 35609, Note_on_c, 12, 53, 0
15, 35640, Note_on_c, 12, 53, 54
15, 35640, Note_on_c, 12, 58, 54
15, 35729, Note_on_c, 12, 53, 0
15, 35729, Note_on_c, 12, 58, 0
15, 35760, Note_on_c, 12, 53, 55
15, 35760, Note_on_c, 12, 50, 55
15, 35849, Note_on_c, 12, 53, 0
15, 35849, Note_on_c, 12, 50, 0
15, 35880, Note_on_c, 12, 50, 55
15, 35880, Note_on_c, 12, 53, 55
15, 35969, Note_on_c, 12, 50, 0
15, 35969, Note_on_c, 12, 53, 0
15, 36000, Note_on_c, 12, 53, 56
15, 36000, Note_on_c, 12, 58, 56
15, 36089, Note_on_c, 12, 53, 0
15, 36089, Note_on_c, 12, 58, 0
15, 36120, Note_on_c, 12, 53, 56
15, 36120, Note_on_c, 12, 60, 56
15, 36209, Note_on_c, 12, 53, 0
15, 36209, Note_on_c, 12, 60, 0
15, 36240, Note_on_c, 12, 53, 57
15, 36240, Note_on_c, 12, 60, 57
15, 36329, Note_on_c, 12, 53, 0
15, 36329, Note_on_c, 12, 60, 0
15, 36360, Note_on_c, 12, 53, 58
15, 36360, Note_on_c, 12, 60, 58
15, 36449, Note_on_c, 12, 53, 0
15, 36449, Note_on_c, 12, 60, 0
15, 36480, Note_on_c, 12, 53, 58
15, 36480, Note_on_c, 12, 57, 58
15, 36569, Note_on_c, 12, 53, 0
15, 36569, Note_on_c, 12, 57, 0
15, 36600, Note_on_c, 12, 57, 59
15, 36600, Note_on_c, 12, 53, 59
15, 36689, Note_on_c, 12, 57, 0
15, 36689, Note_on_c, 12, 53, 0
15, 36720, Note_on_c, 12, 57, 59
15, 36720, Note_on_c, 12, 60, 59
15, 36809, Note_on_c, 12, 57, 0
15, 36809, Note_on_c, 12, 60, 0
15, 36840, Note_on_c, 12, 57, 60
15, 36840, Note_on_c, 12, 53, 60
15, 36929, Note_on_c, 12, 57, 0
15, 36929, Note_on_c, 12, 53, 0
15, 36960, Note_on_c, 12, 57, 60
15, 36960, Note_on_c, 12, 53, 60
15, 37049, Note_on_c, 12, 57, 0
15, 37049, Note_on_c, 12, 53, 0
15, 37080, Note_on_c, 12, 60, 61
15, 37080, Note_on_c, 12, 57, 61
15, 37169, Note_on_c, 12, 60, 0
15, 37169, Note_on_c, 12, 57, 0
15, 37200, Note_on_c, 12, 53, 61
15, 37200, Note_on_c, 12, 57, 61
15, 37289, Note_on_c, 12, 53, 0
15, 37289, Note_on_c, 12, 57, 0
15, 37320, Note_on_c, 12, 57, 62
15, 37320, Note_on_c, 12, 53, 62
15, 37409, Note_on_c, 12, 57, 0
15, 37409, Note_on_c, 12, 53, 0
15, 37440, Note_on_c, 12, 60, 62
15, 37440, Note_on_c, 12, 57, 62
15, 37529, Note_on_c, 12, 60, 0
15, 37529, Note_on_c, 12, 57, 0
15, 37560, Note_on_c, 12, 53, 63
15, 37560, Note_on_c, 12, 58, 63
15, 37649, Note_on_c, 12, 53, 0
15, 37649, Note_on_c, 12, 58, 0
15, 37680, Note_on_c, 12, 53, 64
15, 37680, Note_on_c, 12, 58, 64
15, 37769, Note_on_c, 12, 53, 0
15, 37769, Note_on_c, 12, 58, 0
15, 37800, Note_on_c, 12, 58, 64
15, 37800, Note_on_c, 12, 62, 64
15, 37889, Note_on_c, 12, 58, 0
15, 37889, Note_on_c, 12, 62, 0
15, 38280, Note_on_c, 12, 65, 66
15, 38369, Note_on_c, 12, 65, 0
15, 38400, Note_on_c, 12, 65, 67
15, 38489, Note_on_c, 12, 65, 0
15, 38520, Note_on_c, 12, 64, 67
15, 38609, Note_on_c, 12, 64, 0
15, 38640, Note_on_c, 12, 62, 68
15, 38729, Note_on_c, 12, 62, 0
15, 38760, Note_on_c, 12, 62, 68
15, 38849, Note_on_c, 12, 62, 0
15, 38880, Note_on_c, 12, 60, 69
15, 38969, Note_on_c, 12, 60, 0
15, 39000, Note_on_c, 12, 58, 70
15, 39089, Note_on_c, 12, 58, 0
15, 39120, Note_on_c, 12, 58, 70
15, 39209, Note_on_c, 12, 58, 0
15, 39240, Note_on_c, 12, 57, 71
15, 39329, Note_on_c, 12, 57, 0
15, 39360, Note_on_c, 12, 55, 71
15, 39449, Note_on_c, 12, 55, 0
15, 39480, Note_on_c, 12, 55, 72
15, 39569, Note_on_c, 12, 55, 0
15, 39600, Note_on_c, 12, 53, 72
15, 39689, Note_on_c, 12, 53, 0
15, 39720, Note_on_c, 12, 52, 73
15, 39809, Note_on_c, 12, 52, 0
15, 39840, Note_on_c, 12, 52, 73
15, 39929, Note_on_c, 12, 52, 0
15, 39960, Note_on_c, 12, 50, 74
15, 40049, Note_on_c, 12, 50, 0
15, 40080, Note_on_c, 12, 48, 74
15, 40169, Note_on_c, 12, 48, 0
15, 40200, Note_on_c, 12, 58, 75
15, 40289, Note_on_c, 12, 58, 0
15, 40320, Note_on_c, 12, 57, 76
15, 40409, Note_on_c, 12, 57, 0
15, 40440, Note_on_c, 12, 57, 76
15, 40559, Note_on_c, 12, 57, 0
15, 40560, Note_on_c, 12, 53, 76
15, 40619, Note_on_c, 12, 53, 0
15, 40680, Note_on_c, 12, 57, 76
15, 40739, Note_on_c, 12, 57, 0
15, 40760, Note_on_c, 12, 57, 76
15, 40799, Note_on_c, 12, 57, 0
15, 40800, Note_on_c, 12, 57, 76
15, 40800, Note_on_c, 12, 60, 76
15, 40919, Note_on_c, 12, 57, 0
15, 40919, Note_on_c, 12, 60, 0
15, 40920, Note_on_c, 12, 53, 76
15, 40920, Note_on_c, 12, 57, 76
15, 40979, Note_on_c, 12, 53, 0
15, 40979, Note_on_c, 12, 57, 0
15, 41040, Note_on_c, 12, 57, 76
15, 41040, Note_on_c, 12, 60, 76
15, 41144, Note_on_c, 12, 57, 0
15, 41144, Note_on_c, 12, 60, 0
15, 41160, Note_on_c, 12, 53, 84
15, 41519, Note_on_c, 12, 53, 0
15, 41520, Note_on_c, 12, 53, 84
15, 41879, Note_on_c, 12, 53, 0
15, 41880, Note_on_c, 12, 53, 84
15, 42359, Note_on_c, 12, 53, 0
15, 42360, Note_on_c, 12, 52, 84
15, 42464, Note_on_c, 12, 52, 0
15, 42480, Note_on_c, 12, 52, 84
15, 42569, Note_on_c, 12, 52, 0
15, 42600, Note_on_c, 12, 52, 84
15, 42959, Note_on_c, 12, 52, 0
15, 42960, Note_on_c, 12, 52, 84
15, 43319, Note_on_c, 12, 52, 0
15, 43320, Note_on_c, 12, 52, 84
15, 43799, Note_on_c, 12, 52, 0
15, 43800, Note_on_c, 12, 53, 84
15, 43904, Note_on_c, 12, 53, 0
15, 43920, Note_on_c, 12, 53, 84
15, 44009, Note_on_c, 12, 53, 0
15, 44040, Note_on_c, 12, 57, 52
15, 44040, Note_on_c, 12, 65, 52
15, 44399, Note_on_c, 12, 57, 0
15, 44399, Note_on_c, 12, 65, 0
15, 44400, Note_on_c, 12, 57, 52
15, 44400, Note_on_c, 12, 65, 52
15, 44759, Note_on_c, 12, 57, 0
15, 44759, Note_on_c, 12, 65, 0
15, 44760, Note_on_c, 12, 65, 52
15, 44760, Note_on_c, 12, 57, 52
15, 45239, Note_on_c, 12, 65, 0
15, 45239, Note_on_c, 12, 57, 0
15, 45240, Note_on_c, 12, 67, 52
15, 45240, Note_on_c, 12, 60, 52
15, 45344, Note_on_c, 12, 67, 0
15, 45344, Note_on_c, 12, 60, 0
15, 45360, Note_on_c, 12, 67, 52
15, 45360, Note_on_c, 12, 60, 52
15, 45449, Note_on_c, 12, 67, 0
15, 45449, Note_on_c, 12, 60, 0
15, 45480, Note_on_c, 12, 67, 52
15, 45480, Note_on_c, 12, 60, 52
15, 45839, Note_on_c, 12, 67, 0
15, 45839, Note_on_c, 12, 60, 0
15, 45840, Note_on_c, 12, 60, 52
15, 45840, Note_on_c, 12, 67, 52
15, 46199, Note_on_c, 12, 60, 0
15, 46199, Note_on_c, 12, 67, 0
15, 46200, Note_on_c, 12, 60, 52
15, 46200, Note_on_c, 12, 67, 52
15, 46679, Note_on_c, 12, 60, 0
15, 46679, Note_on_c, 12, 67, 0
15, 46680, Note_on_c, 12, 69, 52
15, 46680, Note_on_c, 12, 65, 52
15, 46784, Note_on_c, 12, 69, 0
15, 46784, Note_on_c, 12, 65, 0
15, 46800, Note_on_c, 12, 69, 52
15, 46800, Note_on_c, 12, 65, 52
15, 46889, Note_on_c, 12, 69, 0
15, 46889, Note_on_c, 12, 65, 0
15, 46920, Note_on_c, 12, 60, 52
15, 47009, Note_on_c, 12, 60, 0
15, 47040, Note_on_c, 12, 60, 52
15, 47129, Note_on_c, 12, 60, 0
15, 47160, Note_on_c, 12, 60, 52
15, 47249, Note_on_c, 12, 60, 0
15, 47280, Note_on_c, 12, 60, 52
15, 47504, Note_on_c, 12, 60, 0
15, 47520, Note_on_c, 12, 60, 52
15, 47639, Note_on_c, 12, 60, 0
15, 48240, Control_c, 12, 11, 80
15, 48360, Note_on_c, 12, 60, 76
15, 48400, Control_c, 12, 11, 83
15, 48440, Control_c, 12, 11, 85
15, 48449, Note_on_c, 12, 60, 0
15, 48480, Control_c, 12, 11, 88
15, 48480, Note_on_c, 12, 60, 76
15, 48520, Control_c, 12, 11, 90
15, 48560, Control_c, 12, 11, 93
15, 48569, Note_on_c, 12, 60, 0
15, 48600, Note_on_c, 12, 60, 76
15, 48600, Control_c, 12, 11, 96
15, 48640, Control_c, 12, 11, 98
15, 48680, Control_c, 12, 11, 101
15, 48689, Note_on_c, 12, 60, 0
15, 48720, Control_c, 12, 11, 104
15, 48720, Note_on_c, 12, 60, 76
15, 48760, Control_c, 12, 11, 106
15, 48800, Control_c, 12, 11, 109
15, 48840, Control_c, 12, 11, 111
15, 48880, Control_c, 12, 11, 114
15, 48920, Control_c, 12, 11, 117
15, 48944, Note_on_c, 12, 60, 0
15, 48960, Control_c, 12, 11, 119
15, 48960, Note_on_c, 12, 60, 76
15, 49000, Control_c, 12, 11, 122
15, 49040, Control_c, 12, 11, 127
15, 49064, Note_on_c, 12, 60, 0
15, 49080, Note_on_c, 12, 58, 76
15, 49319, Note_on_c, 12, 58, 0
15, 49320, Note_on_c, 12, 65, 76
15, 49424, Note_on_c, 12, 65, 0
15, 49440, Note_on_c, 12, 53, 84
15, 49679, Note_on_c, 12, 53, 0
15, 49680, Note_on_c, 12, 60, 76
15, 49784, Note_on_c, 12, 60, 0
15, 49800, Note_on_c, 12, 60, 84
15, 50039, Note_on_c, 12, 60, 0
15, 50040, Note_on_c, 12, 67, 76
15, 50144, Note_on_c, 12, 67, 0
15, 50160, Note_on_c, 12, 67, 84
15, 50384, Note_on_c, 12, 67, 0
15, 50400, Note_on_c, 12, 67, 76
15, 50504, Note_on_c, 12, 67, 0
15, 50520, Note_on_c, 12, 62, 52
15, 50624, Note_on_c, 12, 62, 0
15, 50640, Note_on_c, 12, 62, 52
15, 50744, Note_on_c, 12, 62, 0
15, 50760, Note_on_c, 12, 65, 52
15, 50864, Note_on_c, 12, 65, 0
15, 50880, Note_on_c, 12, 60, 52
15, 50984, Note_on_c, 12, 60, 0
15, 51000, Note_on_c, 12, 60, 52
15, 51104, Note_on_c, 12, 60, 0
15, 51120, Note_on_c, 12, 64, 52
15, 51224, Note_on_c, 12, 64, 0
15, 51240, Note_on_c, 12, 59, 52
15, 51344, Note_on_c, 12, 59, 0
15, 51360, Note_on_c, 12, 59, 52
15, 51464, Note_on_c, 12, 59, 0
15, 51480, Note_on_c, 12, 62, 52
15, 51584, Note_on_c, 12, 62, 0
15, 51600, Note_on_c, 12, 60, 52
15, 51704, Note_on_c, 12, 60, 0
15, 51720, Note_on_c, 12, 60, 52
15, 51824, Note_on_c, 12, 60, 0
15, 51840, Note_on_c, 12, 64, 52
15, 51944, Note_on_c, 12, 64, 0
15, 51960, Note_on_c, 12, 62, 52
15, 52064, Note_on_c, 12, 62, 0
15, 52080, Note_on_c, 12, 62, 54
15, 52184, Note_on_c, 12, 62, 0
15, 52200, Note_on_c, 12, 65, 57
15, 52304, Note_on_c, 12, 65, 0
15, 52320, Note_on_c, 12, 60, 60
15, 52424, Note_on_c, 12, 60, 0
15, 52440, Note_on_c, 12, 64, 62
15, 52544, Note_on_c, 12, 64, 0
15, 52560, Note_on_c, 12, 64, 65
15, 52664, Note_on_c, 12, 64, 0
15, 52680, Note_on_c, 12, 62, 68
15, 52784, Note_on_c, 12, 62, 0
15, 52800, Note_on_c, 12, 62, 70
15, 52904, Note_on_c, 12, 62, 0
15, 52920, Note_on_c, 12, 65, 73
15, 53024, Note_on_c, 12, 65, 0
15, 53040, Note_on_c, 12, 60, 76
15, 53144, Note_on_c, 12, 60, 0
15, 53160, Note_on_c, 12, 60, 78
15, 53264, Note_on_c, 12, 60, 0
15, 53280, Note_on_c, 12, 64, 81
15, 53384, Note_on_c, 12, 64, 0
15, 53400, Note_on_c, 12, 58, 84
15, 53444, Note_on_c, 12, 58, 0
15, 53445, Note_on_c, 12, 60, 84
15, 53489, Note_on_c, 12, 60, 0
15, 53490, Note_on_c, 12, 58, 84
15, 53534, Note_on_c, 12, 58, 0
15, 53535, Note_on_c, 12, 60, 84
15, 53579, Note_on_c, 12, 60, 0
15, 53580, Note_on_c, 12, 58, 84
15, 53624, Note_on_c, 12, 58, 0
15, 53625, Note_on_c, 12, 60, 84
15, 53669, Note_on_c, 12, 60, 0
15, 53670, Note_on_c, 12, 57, 84
15, 53714, Note_on_c, 12, 57, 0
15, 53715, Note_on_c, 12, 58, 84
15, 53759, Note_on_c, 12, 58, 0
15, 53760, Note_on_c, 12, 57, 84
15, 53849, Note_on_c, 12, 57, 0
15, 53880, Note_on_c, 12, 57, 84
15, 53880, Note_on_c, 12, 60, 84
15, 53969, Note_on_c, 12, 57, 0
15, 53969, Note_on_c, 12, 60, 0
15, 54000, Note_on_c, 12, 57, 84
15, 54000, Note_on_c, 12, 53, 84
15, 54089, Note_on_c, 12, 57, 0
15, 54089, Note_on_c, 12, 53, 0
15, 54120, Note_on_c, 12, 58, 84
15, 54120, Note_on_c, 12, 55, 84
15, 54164, Note_on_c, 12, 58, 0
15, 54164, Note_on_c, 12, 55, 0
15, 54165, Note_on_c, 12, 60, 84
15, 54165, Note_on_c, 12, 57, 84
15, 54209, Note_on_c, 12, 60, 0
15, 54209, Note_on_c, 12, 57, 0
15, 54210, Note_on_c, 12, 55, 84
15, 54210, Note_on_c, 12, 58, 84
15, 54254, Note_on_c, 12, 55, 0
15, 54254, Note_on_c, 12, 58, 0
15, 54255, Note_on_c, 12, 60, 84
15, 54255, Note_on_c, 12, 57, 84
15, 54299, Note_on_c, 12, 60, 0
15, 54299, Note_on_c, 12, 57, 0
15, 54300, Note_on_c, 12, 58, 84
15, 54300, Note_on_c, 12, 55, 84
15, 54344, Note_on_c, 12, 58, 0
15, 54344, Note_on_c, 12, 55, 0
15, 54345, Note_on_c, 12, 60, 84
15, 54345, Note_on_c, 12, 57, 84
15, 54389, Note_on_c, 12, 60, 0
15, 54389, Note_on_c, 12, 57, 0
15, 54390, Note_on_c, 12, 57, 84
15, 54390, Note_on_c, 12, 53, 84
15, 54434, Note_on_c, 12, 57, 0
15, 54434, Note_on_c, 12, 53, 0
15, 54435, Note_on_c, 12, 55, 84
15, 54435, Note_on_c, 12, 58, 84
15, 54479, Note_on_c, 12, 55, 0
15, 54479, Note_on_c, 12, 58, 0
15, 54480, Note_on_c, 12, 57, 84
15, 54480, Note_on_c, 12, 53, 84
15, 54569, Note_on_c, 12, 57, 0
15, 54569, Note_on_c, 12, 53, 0
15, 54600, Note_on_c, 12, 60, 84
15, 54600, Note_on_c, 12, 57, 84
15, 54689, Note_on_c, 12, 60, 0
15, 54689, Note_on_c, 12, 57, 0
15, 54720, Note_on_c, 12, 53, 84
15, 54720, Note_on_c, 12, 57, 84
15, 54809, Note_on_c, 12, 53, 0
15, 54809, Note_on_c, 12, 57, 0
15, 54840, Note_on_c, 12, 58, 84
15, 54884, Note_on_c, 12, 58, 0
15, 54885, Note_on_c, 12, 60, 84
15, 54929, Note_on_c, 12, 60, 0
15, 54930, Note_on_c, 12, 58, 84
15, 54974, Note_on_c, 12, 58, 0
15, 54975, Note_on_c, 12, 60, 84
15, 55019, Note_on_c, 12, 60, 0
15, 55020, Note_on_c, 12, 58, 84
15, 55064, Note_on_c, 12, 58, 0
15, 55065, Note_on_c, 12, 60, 84
15, 55109, Note_on_c, 12, 60, 0
15, 55110, Note_on_c, 12, 57, 84
15, 55154, Note_on_c, 12, 57, 0
15, 55155, Note_on_c, 12, 58, 84
15, 55199, Note_on_c, 12, 58, 0
15, 55200, Note_on_c, 12, 57, 84
15, 55289, Note_on_c, 12, 57, 0
15, 55320, Note_on_c, 12, 60, 84
15, 55320, Note_on_c, 12, 57, 84
15, 55409, Note_on_c, 12, 60, 0
15, 55409, Note_on_c, 12, 57, 0
15, 55440, Note_on_c, 12, 53, 84
15, 55440, Note_on_c, 12, 57, 84
15, 55529, Note_on_c, 12, 53, 0
15, 55529, Note_on_c, 12, 57, 0
15, 55560, Note_on_c, 12, 58, 84
15, 55604, Note_on_c, 12, 58, 0
15, 55605, Note_on_c, 12, 60, 84
15, 55649, Note_on_c, 12, 60, 0
15, 55650, Note_on_c, 12, 58, 84
15, 55694, Note_on_c, 12, 58, 0
15, 55695, Note_on_c, 12, 60, 84
15, 55739, Note_on_c, 12, 60, 0
15, 55740, Note_on_c, 12, 58, 84
15, 55784, Note_on_c, 12, 58, 0
15, 55785, Note_on_c, 12, 60, 84
15, 55829, Note_on_c, 12, 60, 0
15, 55830, Note_on_c, 12, 57, 84
15, 55874, Note_on_c, 12, 57, 0
15, 55875, Note_on_c, 12, 58, 84
15, 55919, Note_on_c, 12, 58, 0
15, 55920, Note_on_c, 12, 57, 84
15, 56009, Note_on_c, 12, 57, 0
15, 56040, Note_on_c, 12, 57, 84
15, 56040, Note_on_c, 12, 60, 84
15, 56129, Note_on_c, 12, 57, 0
15, 56129, Note_on_c, 12, 60, 0
15, 56160, Note_on_c, 12, 53, 84
15, 56160, Note_on_c, 12, 57, 84
15, 56249, Note_on_c, 12, 53, 0
15, 56249, Note_on_c, 12, 57, 0
15, 56280, Note_on_c, 12, 58, 84
15, 56324, Note_on_c, 12, 58, 0
15, 56325, Note_on_c, 12, 60, 84
15, 56369, Note_on_c, 12, 60, 0
15, 56370, Note_on_c, 12, 58, 84
15, 56414, Note_on_c, 12, 58, 0
15, 56415, Note_on_c, 12, 60, 84
15, 56459, Note_on_c, 12, 60, 0
15, 56460, Note_on_c, 12, 58, 84
15, 56504, Note_on_c, 12, 58, 0
15, 56505, Note_on_c, 12, 60, 84
15, 56549, Note_on_c, 12, 60, 0
15, 56550, Note_on_c, 12, 57, 84
15, 56594, Note_on_c, 12, 57, 0
15, 56595, Note_on_c, 12, 58, 84
15, 56639, Note_on_c, 12, 58, 0
15, 56640, Note_on_c, 12, 57, 84
15, 56729, Note_on_c, 12, 57, 0
15, 56760, Note_on_c, 12, 72, 84
15, 56849, Note_on_c, 12, 72, 0
15, 56880, Note_on_c, 12, 69, 84
15, 56969, Note_on_c, 12, 69, 0
15, 57000, Note_on_c, 12, 65, 84
15, 57089, Note_on_c, 12, 65, 0
15, 57120, Note_on_c, 12, 60, 84
15, 57209, Note_on_c, 12, 60, 0
15, 57240, Note_on_c, 12, 57, 84
15, 57329, Note_on_c, 12, 57, 0
15, 57360, Note_on_c, 12, 53, 84
15, 57479, Note_on_c, 12, 53, 0
15, 57960, Note_on_c, 12, 53, 84
15, 58019, Note_on_c, 12, 53, 0
15, 58040, Note_on_c, 12, 53, 84
15, 58079, Note_on_c, 12, 53, 0
15, 58080, Note_on_c, 12, 57, 92
15, 58199, Note_on_c, 12, 57, 0
15, 58200, Note_on_c, 12, 53, 84
15, 58259, Note_on_c, 12, 53, 0
15, 59040, Note_on_c, 12, 53, 84
15, 59111, Note_on_c, 12, 53, 0
15, 59120, Note_on_c, 12, 53, 84
15, 59159, Note_on_c, 12, 53, 0
15, 59160, Note_on_c, 12, 57, 92
15, 59279, Note_on_c, 12, 57, 0
15, 59280, Note_on_c, 12, 53, 84
15, 59339, Note_on_c, 12, 53, 0
15, 59400, Note_on_c, 12, 53, 84
15, 59471, Note_on_c, 12, 53, 0
15, 59480, Note_on_c, 12, 53, 84
15, 59519, Note_on_c, 12, 53, 0
15, 59520, Note_on_c, 12, 57, 92
15, 59639, Note_on_c, 12, 57, 0
15, 59640, Note_on_c, 12, 53, 84
15, 59744, Note_on_c, 12, 53, 0
15, 59760, Note_on_c, 12, 53, 84
15, 59831, Note_on_c, 12, 53, 0
15, 59840, Note_on_c, 12, 53, 84
15, 59879, Note_on_c, 12, 53, 0
15, 59880, Note_on_c, 12, 57, 92
15, 59999, Note_on_c, 12, 57, 0
15, 60000, Note_on_c, 12, 53, 84
15, 60104, Note_on_c, 12, 53, 0
15, 60120, Note_on_c, 12, 53, 84
15, 60191, Note_on_c, 12, 53, 0
15, 60200, Note_on_c, 12, 53, 84
15, 60239, Note_on_c, 12, 53, 0
15, 60240, Note_on_c, 12, 57, 92
15, 60359, Note_on_c, 12, 57, 0
15, 60360, Note_on_c, 12, 53, 84
15, 60464, Note_on_c, 12, 53, 0
15, 60480, Note_on_c, 12, 53, 84
15, 60569, Note_on_c, 12, 53, 0
15, 60600, Note_on_c, 12, 57, 84
15, 60959, Note_on_c, 12, 57, 0
15, 60960, Note_on_c, 12, 57, 84
15, 61319, Note_on_c, 12, 57, 0
15, 61320, Note_on_c, 12, 57, 84
15, 61679, Note_on_c, 12, 57, 0
15, 61680, Note_on_c, 12, 57, 84
15, 61919, Note_on_c, 12, 57, 0
15, 62280, Note_on_c, 12, 57, 76
15, 62351, Note_on_c, 12, 57, 0
15, 62360, Note_on_c, 12, 57, 76
15, 62399, Note_on_c, 12, 57, 0
15, 62400, Note_on_c, 12, 61, 84
15, 62519, Note_on_c, 12, 61, 0
15, 62520, Note_on_c, 12, 57, 76
15, 62579, Note_on_c, 12, 57, 0
15, 66360, Note_on_c, 12, 64, 44
15, 66599, Note_on_c, 12, 64, 0
15, 66600, Note_on_c, 12, 62, 44
15, 66704, Note_on_c, 12, 62, 0
15, 66720, Note_on_c, 12, 64, 44
15, 66959, Note_on_c, 12, 64, 0
15, 66960, Note_on_c, 12, 62, 44
15, 67064, Note_on_c, 12, 62, 0
15, 67080, Note_on_c, 12, 64, 44
15, 67319, Note_on_c, 12, 64, 0
15, 67320, Note_on_c, 12, 62, 44
15, 67424, Note_on_c, 12, 62, 0
15, 67440, Note_on_c, 12, 64, 44
15, 67679, Note_on_c, 12, 64, 0
15, 67680, Note_on_c, 12, 62, 44
15, 67799, Note_on_c, 12, 62, 0
15, 68760, Note_on_c, 12, 62, 84
15, 68864, Note_on_c, 12, 62, 0
15, 68880, Note_on_c, 12, 65, 84
15, 68999, Note_on_c, 12, 65, 0
15, 69000, Note_on_c, 12, 62, 84
15, 69059, Note_on_c, 12, 62, 0
15, 72120, Note_on_c, 12, 67, 44
15, 72359, Note_on_c, 12, 67, 0
15, 72360, Note_on_c, 12, 65, 44
15, 72464, Note_on_c, 12, 65, 0
15, 72480, Note_on_c, 12, 67, 44
15, 72719, Note_on_c, 12, 67, 0
15, 72720, Note_on_c, 12, 65, 44
15, 72824, Note_on_c, 12, 65, 0
15, 72840, Note_on_c, 12, 67, 44
15, 73079, Note_on_c, 12, 67, 0
15, 73080, Note_on_c, 12, 65, 44
15, 73184, Note_on_c, 12, 65, 0
15, 73200, Note_on_c, 12, 67, 44
15, 73439, Note_on_c, 12, 67, 0
15, 73440, Note_on_c, 12, 65, 44
15, 73544, Note_on_c, 12, 65, 0
15, 73560, Note_on_c, 12, 60, 44
15, 73919, Note_on_c, 12, 60, 0
15, 73920, Note_on_c, 12, 60, 44
15, 74279, Note_on_c, 12, 60, 0
15, 74280, Note_on_c, 12, 60, 44
15, 74504, Note_on_c, 12, 60, 0
15, 74520, Note_on_c, 12, 60, 84
15, 74624, Note_on_c, 12, 60, 0
15, 74640, Note_on_c, 12, 63, 84
15, 74759, Note_on_c, 12, 63, 0
15, 74760, Note_on_c, 12, 60, 84
15, 74819, Note_on_c, 12, 60, 0
15, 74880, Note_on_c, 12, 65, 52
15, 74984, Note_on_c, 12, 65, 0
15, 75000, Note_on_c, 12, 67, 52
15, 75089, Note_on_c, 12, 67, 0
15, 75120, Note_on_c, 12, 67, 52
15, 75209, Note_on_c, 12, 67, 0
15, 75240, Note_on_c, 12, 65, 52
15, 75329, Note_on_c, 12, 65, 0
15, 75360, Note_on_c, 12, 63, 52
15, 75599, Note_on_c, 12, 63, 0
15, 75600, Note_on_c, 12, 62, 52
15, 75704, Note_on_c, 12, 62, 0
15, 75720, Note_on_c, 12, 67, 52
15, 75809, Note_on_c, 12, 67, 0
15, 75840, Note_on_c, 12, 67, 52
15, 75929, Note_on_c, 12, 67, 0
15, 75960, Note_on_c, 12, 65, 52
15, 76049, Note_on_c, 12, 65, 0
15, 76080, Note_on_c, 12, 65, 52
15, 76199, Note_on_c, 12, 65, 0
15, 76200, Note_on_c, 12, 62, 52
15, 76259, Note_on_c, 12, 62, 0
15, 76320, Note_on_c, 12, 65, 52
15, 76424, Note_on_c, 12, 65, 0
15, 76440, Note_on_c, 12, 58, 52
15, 76529, Note_on_c, 12, 58, 0
15, 76560, Note_on_c, 12, 62, 52
15, 76649, Note_on_c, 12, 62, 0
15, 76680, Note_on_c, 12, 62, 52
15, 76769, Note_on_c, 12, 62, 0
15, 76800, Note_on_c, 12, 58, 52
15, 76889, Note_on_c, 12, 58, 0
15, 76920, Note_on_c, 12, 62, 52
15, 77009, Note_on_c, 12, 62, 0
15, 77040, Note_on_c, 12, 62, 52
15, 77129, Note_on_c, 12, 62, 0
15, 77160, Note_on_c, 12, 58, 52
15, 77249, Note_on_c, 12, 58, 0
15, 77280, Note_on_c, 12, 62, 52
15, 77369, Note_on_c, 12, 62, 0
15, 77400, Note_on_c, 12, 62, 52
15, 77489, Note_on_c, 12, 62, 0
15, 77520, Note_on_c, 12, 58, 52
15, 77609, Note_on_c, 12, 58, 0
15, 77640, Note_on_c, 12, 62, 52
15, 77729, Note_on_c, 12, 62, 0
15, 77760, Note_on_c, 12, 62, 52
15, 77849, Note_on_c, 12, 62, 0
15, 77880, Note_on_c, 12, 53, 52
15, 77969, Note_on_c, 12, 53, 0
15, 78000, Note_on_c, 12, 53, 52
15, 78089, Note_on_c, 12, 53, 0
15, 78120, Note_on_c, 12, 60, 52
15, 78209, Note_on_c, 12, 60, 0
15, 78240, Note_on_c, 12, 53, 52
15, 78329, Note_on_c, 12, 53, 0
15, 78360, Note_on_c, 12, 53, 52
15, 78449, Note_on_c, 12, 53, 0
15, 78480, Note_on_c, 12, 60, 52
15, 78569, Note_on_c, 12, 60, 0
15, 78600, Note_on_c, 12, 53, 52
15, 78689, Note_on_c, 12, 53, 0
15, 78720, Note_on_c, 12, 53, 52
15, 78809, Note_on_c, 12, 53, 0
15, 78840, Note_on_c, 12, 60, 52
15, 78929, Note_on_c, 12, 60, 0
15, 78960, Note_on_c, 12, 53, 52
15, 79049, Note_on_c, 12, 53, 0
15, 79080, Note_on_c, 12, 53, 52
15, 79169, Note_on_c, 12, 53, 0
15, 79200, Note_on_c, 12, 60, 52
15, 79289, Note_on_c, 12, 60, 0
15, 79320, Note_on_c, 12, 53, 52
15, 79409, Note_on_c, 12, 53, 0
15, 79440, Note_on_c, 12, 53, 52
15, 79529, Note_on_c, 12, 53, 0
15, 79560, Note_on_c, 12, 53, 52
15, 79649, Note_on_c, 12, 53, 0
15, 79680, Note_on_c, 12, 50, 52
15, 79680, Note_on_c, 12, 53, 52
15, 79769, Note_on_c, 12, 50, 0
15, 79769, Note_on_c, 12, 53, 0
15, 79800, Note_on_c, 12, 50, 52
15, 79800, Note_on_c, 12, 53, 52
15, 79889, Note_on_c, 12, 50, 0
15, 79889, Note_on_c, 12, 53, 0
15, 79920, Note_on_c, 12, 53, 53
15, 79920, Note_on_c, 12, 58, 53
15, 80009, Note_on_c, 12, 53, 0
15, 80009, Note_on_c, 12, 58, 0
15, 80040, Note_on_c, 12, 50, 53
15, 80040, Note_on_c, 12, 53, 53
15, 80129, Note_on_c, 12, 50, 0
15, 80129, Note_on_c, 12, 53, 0
15, 80160, Note_on_c, 12, 53, 54
15, 80160, Note_on_c, 12, 50, 54
15, 80249, Note_on_c, 12, 53, 0
15, 80249, Note_on_c, 12, 50, 0
15, 80280, Note_on_c, 12, 58, 54
15, 80280, Note_on_c, 12, 53, 54
15, 80369, Note_on_c, 12, 58, 0
15, 80369, Note_on_c, 12, 53, 0
15, 80400, Note_on_c, 12, 53, 55
15, 80400, Note_on_c, 12, 50, 55
15, 80489, Note_on_c, 12, 53, 0
15, 80489, Note_on_c, 12, 50, 0
15, 80520, Note_on_c, 12, 50, 55
15, 80520, Note_on_c, 12, 53, 55
15, 80609, Note_on_c, 12, 50, 0
15, 80609, Note_on_c, 12, 53, 0
15, 80640, Note_on_c, 12, 53, 56
15, 80640, Note_on_c, 12, 58, 56
15, 80729, Note_on_c, 12, 53, 0
15, 80729, Note_on_c, 12, 58, 0
15, 80760, Note_on_c, 12, 53, 56
15, 80760, Note_on_c, 12, 60, 56
15, 80849, Note_on_c, 12, 53, 0
15, 80849, Note_on_c, 12, 60, 0
15, 80880, Note_on_c, 12, 60, 57
15, 80880, Note_on_c, 12, 53, 57
15, 80969, Note_on_c, 12, 60, 0
15, 80969, Note_on_c, 12, 53, 0
15, 81000, Note_on_c, 12, 60, 58
15, 81000, Note_on_c, 12, 53, 58
15, 81089, Note_on_c, 12, 60, 0
15, 81089, Note_on_c, 12, 53, 0
15, 81120, Note_on_c, 12, 53, 58
15, 81120, Note_on_c, 12, 57, 58
15, 81209, Note_on_c, 12, 53, 0
15, 81209, Note_on_c, 12, 57, 0
15, 81240, Note_on_c, 12, 53, 59
15, 81240, Note_on_c, 12, 57, 59
15, 81329, Note_on_c, 12, 53, 0
15, 81329, Note_on_c, 12, 57, 0
15, 81360, Note_on_c, 12, 60, 59
15, 81360, Note_on_c, 12, 57, 59
15, 81449, Note_on_c, 12, 60, 0
15, 81449, Note_on_c, 12, 57, 0
15, 81480, Note_on_c, 12, 53, 60
15, 81480, Note_on_c, 12, 57, 60
15, 81569, Note_on_c, 12, 53, 0
15, 81569, Note_on_c, 12, 57, 0
15, 81600, Note_on_c, 12, 57, 60
15, 81600, Note_on_c, 12, 53, 60
15, 81689, Note_on_c, 12, 57, 0
15, 81689, Note_on_c, 12, 53, 0
15, 81720, Note_on_c, 12, 57, 61
15, 81720, Note_on_c, 12, 60, 61
15, 81809, Note_on_c, 12, 57, 0
15, 81809, Note_on_c, 12, 60, 0
15, 81840, Note_on_c, 12, 53, 61
15, 81840, Note_on_c, 12, 57, 61
15, 81929, Note_on_c, 12, 53, 0
15, 81929, Note_on_c, 12, 57, 0
15, 81960, Note_on_c, 12, 53, 62
15, 81960, Note_on_c, 12, 57, 62
15, 82049, Note_on_c, 12, 53, 0
15, 82049, Note_on_c, 12, 57, 0
15, 82080, Note_on_c, 12, 57, 62
15, 82080, Note_on_c, 12, 60, 62
15, 82169, Note_on_c, 12, 57, 0
15, 82169, Note_on_c, 12, 60, 0
15, 82200, Note_on_c, 12, 53, 63
15, 82200, Note_on_c, 12, 58, 63
15, 82289, Note_on_c, 12, 53, 0
15, 82289, Note_on_c, 12, 58, 0
15, 82320, Note_on_c, 12, 58, 64
15, 82320, Note_on_c, 12, 53, 64
15, 82409, Note_on_c, 12, 58, 0
15, 82409, Note_on_c, 12, 53, 0
15, 82440, Note_on_c, 12, 62, 64
15, 82440, Note_on_c, 12, 58, 64
15, 82529, Note_on_c, 12, 62, 0
15, 82529, Note_on_c, 12, 58, 0
15, 82920, Note_on_c, 12, 65, 66
15, 83009, Note_on_c, 12, 65, 0
15, 83040, Note_on_c, 12, 65, 67
15, 83129, Note_on_c, 12, 65, 0
15, 83160, Note_on_c, 12, 64, 67
15, 83249, Note_on_c, 12, 64, 0
15, 83280, Note_on_c, 12, 62, 68
15, 83369, Note_on_c, 12, 62, 0
15, 83400, Note_on_c, 12, 62, 68
15, 83489, Note_on_c, 12, 62, 0
15, 83520, Note_on_c, 12, 60, 69
15, 83609, Note_on_c, 12, 60, 0
15, 83640, Note_on_c, 12, 58, 70
15, 83729, Note_on_c, 12, 58, 0
15, 83760, Note_on_c, 12, 58, 70
15, 83849, Note_on_c, 12, 58, 0
15, 83880, Note_on_c, 12, 57, 71
15, 83969, Note_on_c, 12, 57, 0
15, 84000, Note_on_c, 12, 55, 71
15, 84089, Note_on_c, 12, 55, 0
15, 84120, Note_on_c, 12, 55, 72
15, 84209, Note_on_c, 12, 55, 0
15, 84240, Note_on_c, 12, 53, 72
15, 84329, Note_on_c, 12, 53, 0
15, 84360, Note_on_c, 12, 52, 73
15, 84449, Note_on_c, 12, 52, 0
15, 84480, Note_on_c, 12, 52, 73
15, 84569, Note_on_c, 12, 52, 0
15, 84600, Note_on_c, 12, 50, 74
15, 84689, Note_on_c, 12, 50, 0
15, 84720, Note_on_c, 12, 48, 74
15, 84809, Note_on_c, 12, 48, 0
15, 84840, Note_on_c, 12, 58, 75
15, 84929, Note_on_c, 12, 58, 0
15, 84960, Note_on_c, 12, 57, 76
15, 85049, Note_on_c, 12, 57, 0
15, 85080, Note_on_c, 12, 57, 76
15, 85199, Note_on_c, 12, 57, 0
15, 85200, Note_on_c, 12, 53, 76
15, 85259, Note_on_c, 12, 53, 0
15, 85320, Note_on_c, 12, 57, 76
15, 85379, Note_on_c, 12, 57, 0
15, 85400, Note_on_c, 12, 57, 76
15, 85439, Note_on_c, 12, 57, 0
15, 85440, Note_on_c, 12, 57, 76
15, 85440, Note_on_c, 12, 60, 76
15, 85559, Note_on_c, 12, 57, 0
15, 85559, Note_on_c, 12, 60, 0
15, 85560, Note_on_c, 12, 53, 76
15, 85560, Note_on_c, 12, 57, 76
15, 85619, Note_on_c, 12, 53, 0
15, 85619, Note_on_c, 12, 57, 0
15, 85680, Note_on_c, 12, 60, 76
15, 85680, Note_on_c, 12, 57, 76
15, 85784, Note_on_c, 12, 60, 0
15, 85784, Note_on_c, 12, 57, 0
15, 85800, Note_on_c, 12, 53, 84
15, 86159, Note_on_c, 12, 53, 0
15, 86160, Note_on_c, 12, 53, 84
15, 86519, Note_on_c, 12, 53, 0
15, 86520, Note_on_c, 12, 53, 84
15, 86999, Note_on_c, 12, 53, 0
15, 87000, Note_on_c, 12, 52, 84
15, 87104, Note_on_c, 12, 52, 0
15, 87120, Note_on_c, 12, 52, 84
15, 87209, Note_on_c, 12, 52, 0
15, 87240, Note_on_c, 12, 52, 84
15, 87599, Note_on_c, 12, 52, 0
15, 87600, Note_on_c, 12, 52, 84
15, 87959, Note_on_c, 12, 52, 0
15, 87960, Note_on_c, 12, 52, 84
15, 88439, Note_on_c, 12, 52, 0
15, 88440, Note_on_c, 12, 53, 84
15, 88544, Note_on_c, 12, 53, 0
15, 88560, Note_on_c, 12, 53, 84
15, 88649, Note_on_c, 12, 53, 0
15, 88680, Note_on_c, 12, 57, 52
15, 88680, Note_on_c, 12, 65, 52
15, 89039, Note_on_c, 12, 57, 0
15, 89039, Note_on_c, 12, 65, 0
15, 89040, Note_on_c, 12, 65, 52
15, 89040, Note_on_c, 12, 57, 52
15, 89399, Note_on_c, 12, 65, 0
15, 89399, Note_on_c, 12, 57, 0
15, 89400, Note_on_c, 12, 65, 52
15, 89400, Note_on_c, 12, 57, 52
15, 89879, Note_on_c, 12, 65, 0
15, 89879, Note_on_c, 12, 57, 0
15, 89880, Note_on_c, 12, 67, 52
15, 89880, Note_on_c, 12, 60, 52
15, 89984, Note_on_c, 12, 67, 0
15, 89984, Note_on_c, 12, 60, 0
15, 90000, Note_on_c, 12, 67, 52
15, 90000, Note_on_c, 12, 60, 52
15, 90089, Note_on_c, 12, 67, 0
15, 90089, Note_on_c, 12, 60, 0
15, 90120, Note_on_c, 12, 60, 52
15, 90120, Note_on_c, 12, 67, 52
15, 90479, Note_on_c, 12, 60, 0
15, 90479, Note_on_c, 12, 67, 0
15, 90480, Note_on_c, 12, 60, 52
15, 90480, Note_on_c, 12, 67, 52
15, 90839, Note_on_c, 12, 60, 0
15, 90839, Note_on_c, 12, 67, 0
15, 90840, Note_on_c, 12, 60, 52
15, 90840, Note_on_c, 12, 67, 52
15, 91319, Note_on_c, 12, 60, 0
15, 91319, Note_on_c, 12, 67, 0
15, 91320, Note_on_c, 12, 65, 52
15, 91320, Note_on_c, 12, 69, 52
15, 91424, Note_on_c, 12, 65, 0
15, 91424, Note_on_c, 12, 69, 0
15, 91440, Note_on_c, 12, 65, 52
15, 91440, Note_on_c, 12, 69, 52
15, 91529, Note_on_c, 12, 65, 0
15, 91529, Note_on_c, 12, 69, 0
15, 91560, Note_on_c, 12, 60, 52
15, 91649, Note_on_c, 12, 60, 0
15, 91680, Note_on_c, 12, 60, 52
15, 91769, Note_on_c, 12, 60, 0
15, 91800, Note_on_c, 12, 60, 52
15, 91889, Note_on_c, 12, 60, 0
15, 91920, Note_on_c, 12, 60, 52
15, 92144, Note_on_c, 12, 60, 0
15, 92160, Note_on_c, 12, 60, 52
15, 92279, Note_on_c, 12, 60, 0
15, 92880, Control_c, 12, 11, 80
15, 93000, Note_on_c, 12, 60, 76
15, 93040, Control_c, 12, 11, 83
15, 93080, Control_c, 12, 11, 85
15, 93089, Note_on_c, 12, 60, 0
15, 93120, Control_c, 12, 11, 88
15, 93120, Note_on_c, 12, 60, 76
15, 93160, Control_c, 12, 11, 90
15, 93200, Control_c, 12, 11, 93
15, 93209, Note_on_c, 12, 60, 0
15, 93240, Note_on_c, 12, 60, 76
15, 93240, Control_c, 12, 11, 96
15, 93280, Control_c, 12, 11, 98
15, 93320, Control_c, 12, 11, 101
15, 93329, Note_on_c, 12, 60, 0
15, 93360, Note_on_c, 12, 60, 76
15, 93360, Control_c, 12, 11, 104
15, 93400, Control_c, 12, 11, 106
15, 93440, Control_c, 12, 11, 109
15, 93480, Control_c, 12, 11, 111
15, 93520, Control_c, 12, 11, 114
15, 93560, Control_c, 12, 11, 117
15, 93584, Note_on_c, 12, 60, 0
15, 93600, Note_on_c, 12, 60, 76
15, 93600, Control_c, 12, 11, 119
15, 93640, Control_c, 12, 11, 122
15, 93680, Control_c, 12, 11, 127
15, 93704, Note_on_c, 12, 60, 0
15, 93720, Note_on_c, 12, 58, 76
15, 93959, Note_on_c, 12, 58, 0
15, 93960, Note_on_c, 12, 65, 76
15, 94064, Note_on_c, 12, 65, 0
15, 94080, Note_on_c, 12, 53, 84
15, 94319, Note_on_c, 12, 53, 0
15, 94320, Note_on_c, 12, 60, 76
15, 94424, Note_on_c, 12, 60, 0
15, 94440, Note_on_c, 12, 60, 84
15, 94679, Note_on_c, 12, 60, 0
15, 94680, Note_on_c, 12, 67, 76
15, 94784, Note_on_c, 12, 67, 0
15, 94800, Note_on_c, 12, 67, 84
15, 95024, Note_on_c, 12, 67, 0
15, 95040, Note_on_c, 12, 67, 76
15, 95144, Note_on_c, 12, 67, 0
15, 95160, Note_on_c, 12, 62, 52
15, 95264, Note_on_c, 12, 62, 0
15, 95280, Note_on_c, 12, 62, 52
15, 95384, Note_on_c, 12, 62, 0
15, 95400, Note_on_c, 12, 65, 52
15, 95504, Note_on_c, 12, 65, 0
15, 95520, Note_on_c, 12, 60, 52
15, 95624, Note_on_c, 12, 60, 0
15, 95640, Note_on_c, 12, 60, 52
15, 95744, Note_on_c, 12, 60, 0
15, 95760, Note_on_c, 12, 64, 52
15, 95864, Note_on_c, 12, 64, 0
15, 95880, Note_on_c, 12, 59, 52
15, 95984, Note_on_c, 12, 59, 0
15, 96000, Note_on_c, 12, 59, 52
15, 96104, Note_on_c, 12, 59, 0
15, 96120, Note_on_c, 12, 62, 52
15, 96224, Note_on_c, 12, 62, 0
15, 96240, Note_on_c, 12, 60, 52
15, 96344, Note_on_c, 12, 60, 0
15, 96360, Note_on_c, 12, 60, 52
15, 96464, Note_on_c, 12, 60, 0
15, 96480, Note_on_c, 12, 64, 52
15, 96584, Note_on_c, 12, 64, 0
15, 96600, Note_on_c, 12, 62, 52
15, 96704, Note_on_c, 12, 62, 0
15, 96720, Note_on_c, 12, 62, 54
15, 96824, Note_on_c, 12, 62, 0
15, 96840, Note_on_c, 12, 65, 57
15, 96944, Note_on_c, 12, 65, 0
15, 96960, Note_on_c, 12, 60, 60
15, 97064, Note_on_c, 12, 60, 0
15, 97080, Note_on_c, 12, 64, 62
15, 97184, Note_on_c, 12, 64, 0
15, 97200, Note_on_c, 12, 64, 65
15, 97304, Note_on_c, 12, 64, 0
15, 97320, Note_on_c, 12, 62, 68
15, 97424, Note_on_c, 12, 62, 0
15, 97440, Note_on_c, 12, 62, 70
15, 97544, Note_on_c, 12, 62, 0
15, 97560, Note_on_c, 12, 65, 73
15, 97664, Note_on_c, 12, 65, 0
15, 97680, Note_on_c, 12, 60, 76
15, 97784, Note_on_c, 12, 60, 0
15, 97800, Note_on_c, 12, 60, 78
15, 97904, Note_on_c, 12, 60, 0
15, 97920, Note_on_c, 12, 64, 81
15, 98024, Note_on_c, 12, 64, 0
15, 98040, Note_on_c, 12, 58, 84
15, 98084, Note_on_c, 12, 58, 0
15, 98085, Note_on_c, 12, 60, 84
15, 98129, Note_on_c, 12, 60, 0
15, 98130, Note_on_c, 12, 58, 84
15, 98174, Note_on_c, 12, 58, 0
15, 98175, Note_on_c, 12, 60, 84
15, 98219, Note_on_c, 12, 60, 0
15, 98220, Note_on_c, 12, 58, 84
15, 98264, Note_on_c, 12, 58, 0
15, 98265, Note_on_c, 12, 60, 84
15, 98309, Note_on_c, 12, 60, 0
15, 98310, Note_on_c, 12, 57, 84
15, 98354, Note_on_c, 12, 57, 0
15, 98355, Note_on_c, 12, 58, 84
15, 98399, Note_on_c, 12, 58, 0
15, 98400, Note_on_c, 12, 57, 84
15, 98489, Note_on_c, 12, 57, 0
15, 98520, Note_on_c, 12, 60, 84
15, 98520, Note_on_c, 12, 57, 84
15, 98609, Note_on_c, 12, 60, 0
15, 98609, Note_on_c, 12, 57, 0
15, 98640, Note_on_c, 12, 57, 84
15, 98640, Note_on_c, 12, 53, 84
15, 98729, Note_on_c, 12, 57, 0
15, 98729, Note_on_c, 12, 53, 0
15, 98760, Note_on_c, 12, 58, 84
15, 98760, Note_on_c, 12, 55, 84
15, 98804, Note_on_c, 12, 58, 0
15, 98804, Note_on_c, 12, 55, 0
15, 98805, Note_on_c, 12, 60, 84
15, 98805, Note_on_c, 12, 57, 84
15, 98849, Note_on_c, 12, 60, 0
15, 98849, Note_on_c, 12, 57, 0
15, 98850, Note_on_c, 12, 55, 84
15, 98850, Note_on_c, 12, 58, 84
15, 98894, Note_on_c, 12, 55, 0
15, 98894, Note_on_c, 12, 58, 0
15, 98895, Note_on_c, 12, 60, 84
15, 98895, Note_on_c, 12, 57, 84
15, 98939, Note_on_c, 12, 60, 0
15, 98939, Note_on_c, 12, 57, 0
15, 98940, Note_on_c, 12, 55, 84
15, 98940, Note_on_c, 12, 58, 84
15, 98984, Note_on_c, 12, 55, 0
15, 98984, Note_on_c, 12, 58, 0
15, 98985, Note_on_c, 12, 60, 84
15, 98985, Note_on_c, 12, 57, 84
15, 99029, Note_on_c, 12, 60, 0
15, 99029, Note_on_c, 12, 57, 0
15, 99030, Note_on_c, 12, 53, 84
15, 99030, Note_on_c, 12, 57, 84
15, 99074, Note_on_c, 12, 53, 0
15, 99074, Note_on_c, 12, 57, 0
15, 99075, Note_on_c, 12, 58, 84
15, 99075, Note_on_c, 12, 55, 84
15, 99119, Note_on_c, 12, 58, 0
15, 99119, Note_on_c, 12, 55, 0
15, 99120, Note_on_c, 12, 57, 84
15, 99120, Note_on_c, 12, 53, 84
15, 99209, Note_on_c, 12, 57, 0
15, 99209, Note_on_c, 12, 53, 0
15, 99240, Note_on_c, 12, 57, 84
15, 99240, Note_on_c, 12, 60, 84
15, 99329, Note_on_c, 12, 57, 0
15, 99329, Note_on_c, 12, 60, 0
15, 99360, Note_on_c, 12, 53, 84
15, 99360, Note_on_c, 12, 57, 84
15, 99449, Note_on_c, 12, 53, 0
15, 99449, Note_on_c, 12, 57, 0
15, 99480, Note_on_c, 12, 58, 84
15, 99524, Note_on_c, 12, 58, 0
15, 99525, Note_on_c, 12, 60, 84
15, 99569, Note_on_c, 12, 60, 0
15, 99570, Note_on_c, 12, 58, 84
15, 99614, Note_on_c, 12, 58, 0
15, 99615, Note_on_c, 12, 60, 84
15, 99659, Note_on_c, 12, 60, 0
15, 99660, Note_on_c, 12, 58, 84
15, 99704, Note_on_c, 12, 58, 0
15, 99705, Note_on_c, 12, 60, 84
15, 99749, Note_on_c, 12, 60, 0
15, 99750, Note_on_c, 12, 57, 84
15, 99794, Note_on_c, 12, 57, 0
15, 99795, Note_on_c, 12, 58, 84
15, 99839, Note_on_c, 12, 58, 0
15, 99840, Note_on_c, 12, 57, 84
15, 99929, Note_on_c, 12, 57, 0
15, 99960, Note_on_c, 12, 57, 84
15, 99960, Note_on_c, 12, 60, 84
15, 100049, Note_on_c, 12, 57, 0
15, 100049, Note_on_c, 12, 60, 0
15, 100080, Note_on_c, 12, 53, 84
15, 100080, Note_on_c, 12, 57, 84
15, 100169, Note_on_c, 12, 53, 0
15, 100169, Note_on_c, 12, 57, 0
15, 100200, Note_on_c, 12, 58, 84
15, 100244, Note_on_c, 12, 58, 0
15, 100245, Note_on_c, 12, 60, 84
15, 100289, Note_on_c, 12, 60, 0
15, 100290, Note_on_c, 12, 58, 84
15, 100334, Note_on_c, 12, 58, 0
15, 100335, Note_on_c, 12, 60, 84
15, 100379, Note_on_c, 12, 60, 0
15, 100380, Note_on_c, 12, 58, 84
15, 100424, Note_on_c, 12, 58, 0
15, 100425, Note_on_c, 12, 60, 84
15, 100469, Note_on_c, 12, 60, 0
15, 100470, Note_on_c, 12, 57, 84
15, 100514, Note_on_c, 12, 57, 0
15, 100515, Note_on_c, 12, 58, 84
15, 100559, Note_on_c, 12, 58, 0
15, 100560, Note_on_c, 12, 57, 84
15, 100649, Note_on_c, 12, 57, 0
15, 100680, Note_on_c, 12, 57, 84
15, 100680, Note_on_c, 12, 60, 84
15, 100769, Note_on_c, 12, 57, 0
15, 100769, Note_on_c, 12, 60, 0
15, 100800, Note_on_c, 12, 57, 84
15, 100800, Note_on_c, 12, 53, 84
15, 100889, Note_on_c, 12, 57, 0
15, 100889, Note_on_c, 12, 53, 0
15, 100920, Note_on_c, 12, 58, 84
15, 100964, Note_on_c, 12, 58, 0
15, 100965, Note_on_c, 12, 60, 84
15, 101009, Note_on_c, 12, 60, 0
15, 101010, Note_on_c, 12, 58, 84
15, 101054, Note_on_c, 12, 58, 0
15, 101055, Note_on_c, 12, 60, 84
15, 101099, Note_on_c, 12, 60, 0
15, 101100, Note_on_c, 12, 58, 84
15, 101144, Note_on_c, 12, 58, 0
15, 101145, Note_on_c, 12, 60, 84
15, 101189, Note_on_c, 12, 60, 0
15, 101190, Note_on_c, 12, 57, 84
15, 101234, Note_on_c, 12, 57, 0
15, 101235, Note_on_c, 12, 58, 84
15, 101279, Note_on_c, 12, 58, 0
15, 101280, Note_on_c, 12, 57, 84
15, 101369, Note_on_c, 12, 57, 0
15, 101400, Note_on_c, 12, 72, 84
15, 101489, Note_on_c, 12, 72, 0
15, 101520, Note_on_c, 12, 69, 84
15, 101609, Note_on_c, 12, 69, 0
15, 101640, Note_on_c, 12, 65, 84
15, 101729, Note_on_c, 12, 65, 0
15, 101760, Note_on_c, 12, 60, 84
15, 101849, Note_on_c, 12, 60, 0
15, 101880, Note_on_c, 12, 57, 84
15, 101969, Note_on_c, 12, 57, 0
15, 102000, Note_on_c, 12, 53, 84
15, 102119, Note_on_c, 12, 53, 0
15, 102600, Note_on_c, 12, 53, 84
15, 102659, Note_on_c, 12, 53, 0
15, 102680, Note_on_c, 12, 53, 84
15, 102719, Note_on_c, 12, 53, 0
15, 102720, Note_on_c, 12, 57, 92
15, 102839, Note_on_c, 12, 57, 0
15, 102840, Note_on_c, 12, 53, 84
15, 102899, Note_on_c, 12, 53, 0
15, 103680, Note_on_c, 12, 53, 84
15, 103751, Note_on_c, 12, 53, 0
15, 103760, Note_on_c, 12, 53, 84
15, 103799, Note_on_c, 12, 53, 0
15, 103800, Note_on_c, 12, 57, 92
15, 103919, Note_on_c, 12, 57, 0
15, 103920, Note_on_c, 12, 53, 84
15, 103979, Note_on_c, 12, 53, 0
15, 104040, Note_on_c, 12, 53, 84
15, 104111, Note_on_c, 12, 53, 0
15, 104120, Note_on_c, 12, 53, 84
15, 104159, Note_on_c, 12, 53, 0
15, 104160, Note_on_c, 12, 57, 92
15, 104279, Note_on_c, 12, 57, 0
15, 104280, Note_on_c, 12, 53, 84
15, 104384, Note_on_c, 12, 53, 0
15, 104400, Note_on_c, 12, 53, 84
15, 104471, Note_on_c, 12, 53, 0
15, 104480, Note_on_c, 12, 53, 84
15, 104519, Note_on_c, 12, 53, 0
15, 104520, Note_on_c, 12, 57, 92
15, 104639, Note_on_c, 12, 57, 0
15, 104640, Note_on_c, 12, 53, 84
15, 104744, Note_on_c, 12, 53, 0
15, 104760, Note_on_c, 12, 53, 84
15, 104831, Note_on_c, 12, 53, 0
15, 104840, Note_on_c, 12, 53, 84
15, 104879, Note_on_c, 12, 53, 0
15, 104880, Note_on_c, 12, 57, 92
15, 104999, Note_on_c, 12, 57, 0
15, 105000, Note_on_c, 12, 53, 84
15, 105104, Note_on_c, 12, 53, 0
15, 105120, Note_on_c, 12, 53, 84
15, 105209, Note_on_c, 12, 53, 0
15, 105240, Note_on_c, 12, 57, 84
15, 105240, Control_c, 12, 11, 127
15, 105280, Control_c, 12, 11, 125
15, 105320, Control_c, 12, 11, 124
15, 105360, Control_c, 12, 11, 122
15, 105400, Control_c, 12, 11, 120
15, 105440, Control_c, 12, 11, 118
15, 105480, Control_c, 12, 11, 117
15, 105520, Control_c, 12, 11, 115
15, 105560, Control_c, 12, 11, 113
15, 105599, Note_on_c, 12, 57, 0
15, 105600, Note_on_c, 12, 57, 84
15, 105600, Control_c, 12, 11, 111
15, 105640, Control_c, 12, 11, 110
15, 105680, Control_c, 12, 11, 108
15, 105720, Control_c, 12, 11, 106
15, 105760, Control_c, 12, 11, 104
15, 105800, Control_c, 12, 11, 103
15, 105840, Control_c, 12, 11, 101
15, 105880, Control_c, 12, 11, 99
15, 105920, Control_c, 12, 11, 97
15, 105959, Note_on_c, 12, 57, 0
15, 105960, Note_on_c, 12, 57, 84
15, 105960, Control_c, 12, 11, 96
15, 106000, Control_c, 12, 11, 94
15, 106040, Control_c, 12, 11, 92
15, 106080, Control_c, 12, 11, 90
15, 106120, Control_c, 12, 11, 89
15, 106160, Control_c, 12, 11, 87
15, 106200, Control_c, 12, 11, 85
15, 106240, Control_c, 12, 11, 83
15, 106280, Control_c, 12, 11, 82
15, 106319, Note_on_c, 12, 57, 0
15, 106320, Control_c, 12, 11, 80
15, 106320, Note_on_c, 12, 57, 84
15, 106360, Control_c, 12, 11, 78
15, 106400, Control_c, 12, 11, 76
15, 106440, Control_c, 12, 11, 75
15, 106480, Control_c, 12, 11, 73
15, 106520, Control_c, 12, 11, 71
15, 106560, Control_c, 12, 11, 69
15, 106600, Control_c, 12, 11, 68
15, 106640, Control_c, 12, 11, 64
15, 106664, Note_on_c, 12, 57, 0
15, 106680, Note_on_c, 12, 50, 84
15, 106919, Note_on_c, 12, 50, 0
15, 107400, Control_c, 12, 11, 127
15, 147000, Control_c, 12, 11, 113
15, 147240, Note_on_c, 12, 57, 84
15, 147251, Control_c, 12, 11, 114
15, 147343, Control_c, 12, 11, 115
15, 147434, Control_c, 12, 11, 116
15, 147526, Control_c, 12, 11, 117
15, 147617, Control_c, 12, 11, 118
15, 147699, Note_on_c, 12, 57, 0
15, 147709, Control_c, 12, 11, 119
15, 147720, Note_on_c, 12, 57, 84
15, 147800, Control_c, 12, 11, 120
15, 147891, Control_c, 12, 11, 121
15, 147983, Control_c, 12, 11, 122
15, 148074, Control_c, 12, 11, 123
15, 148166, Control_c, 12, 11, 124
15, 148179, Note_on_c, 12, 57, 0
15, 148200, Note_on_c, 12, 57, 84
15, 148257, Control_c, 12, 11, 125
15, 148349, Control_c, 12, 11, 127
15, 148419, Note_on_c, 12, 57, 0
15, 148440, Note_on_c, 12, 54, 84
15, 149039, Note_on_c, 12, 54, 0
15, 149040, Note_on_c, 12, 55, 84
15, 149159, Note_on_c, 12, 55, 0
15, 149160, Note_on_c, 12, 54, 84
15, 149399, Note_on_c, 12, 54, 0
15, 149880, Note_on_c, 12, 54, 84
15, 150479, Note_on_c, 12, 54, 0
15, 150480, Note_on_c, 12, 55, 84
15, 150599, Note_on_c, 12, 55, 0
15, 150600, Note_on_c, 12, 54, 84
15, 150839, Note_on_c, 12, 54, 0
15, 151320, Note_on_c, 12, 54, 84
15, 151799, Note_on_c, 12, 54, 0
15, 151800, Note_on_c, 12, 57, 84
15, 152019, Note_on_c, 12, 57, 0
15, 152040, Note_on_c, 12, 62, 84
15, 152279, Note_on_c, 12, 62, 0
15, 152280, Note_on_c, 12, 57, 84
15, 152499, Note_on_c, 12, 57, 0
15, 152520, Note_on_c, 12, 62, 84
15, 152699, Note_on_c, 12, 62, 0
15, 152760, Note_on_c, 12, 57, 84
15, 152999, Note_on_c, 12, 57, 0
15, 154200, Note_on_c, 12, 55, 84
15, 154799, Note_on_c, 12, 55, 0
15, 154800, Note_on_c, 12, 54, 84
15, 154919, Note_on_c, 12, 54, 0
15, 154920, Note_on_c, 12, 55, 84
15, 155159, Note_on_c, 12, 55, 0
15, 155640, Note_on_c, 12, 55, 84
15, 156239, Note_on_c, 12, 55, 0
15, 156240, Note_on_c, 12, 54, 84
15, 156359, Note_on_c, 12, 54, 0
15, 156360, Note_on_c, 12, 55, 84
15, 156599, Note_on_c, 12, 55, 0
15, 157080, Note_on_c, 12, 55, 84
15, 157559, Note_on_c, 12, 55, 0
15, 157560, Note_on_c, 12, 54, 84
15, 157799, Note_on_c, 12, 54, 0
15, 157800, Note_on_c, 12, 52, 84
15, 158039, Note_on_c, 12, 52, 0
15, 158040, Note_on_c, 12, 57, 84
15, 158259, Note_on_c, 12, 57, 0
15, 158280, Note_on_c, 12, 57, 84
15, 158459, Note_on_c, 12, 57, 0
15, 158520, Note_on_c, 12, 62, 84
15, 158520, Note_on_c, 12, 50, 84
15, 158759, Note_on_c, 12, 62, 0
15, 158759, Note_on_c, 12, 50, 0
15, 177240, Control_c, 12, 11, 113
15, 177480, Note_on_c, 12, 57, 84
15, 177491, Control_c, 12, 11, 114
15, 177583, Control_c, 12, 11, 115
15, 177674, Control_c, 12, 11, 116
15, 177766, Control_c, 12, 11, 117
15, 177857, Control_c, 12, 11, 118
15, 177939, Note_on_c, 12, 57, 0
15, 177949, Control_c, 12, 11, 119
15, 177960, Note_on_c, 12, 57, 84
15, 178040, Control_c, 12, 11, 120
15, 178131, Control_c, 12, 11, 121
15, 178223, Control_c, 12, 11, 122
15, 178314, Control_c, 12, 11, 123
15, 178406, Control_c, 12, 11, 124
15, 178419, Note_on_c, 12, 57, 0
15, 178440, Note_on_c, 12, 57, 84
15, 178497, Control_c, 12, 11, 125
15, 178589, Control_c, 12, 11, 127
15, 178659, Note_on_c, 12, 57, 0
15, 178680, Note_on_c, 12, 54, 84
15, 179279, Note_on_c, 12, 54, 0
15, 179280, Note_on_c, 12, 55, 84
15, 179399, Note_on_c, 12, 55, 0
15, 179400, Note_on_c, 12, 54, 84
15, 179639, Note_on_c, 12, 54, 0
15, 180120, Note_on_c, 12, 54, 84
15, 180719, Note_on_c, 12, 54, 0
15, 180720, Note_on_c, 12, 55, 84
15, 180839, Note_on_c, 12, 55, 0
15, 180840, Note_on_c, 12, 54, 84
15, 181079, Note_on_c, 12, 54, 0
15, 181560, Note_on_c, 12, 54, 84
15, 182039, Note_on_c, 12, 54, 0
15, 182040, Note_on_c, 12, 57, 84
15, 182259, Note_on_c, 12, 57, 0
15, 182280, Note_on_c, 12, 62, 84
15, 182519, Note_on_c, 12, 62, 0
15, 182520, Note_on_c, 12, 57, 84
15, 182739, Note_on_c, 12, 57, 0
15, 182760, Note_on_c, 12, 62, 84
15, 182939, Note_on_c, 12, 62, 0
15, 183000, Note_on_c, 12, 57, 84
15, 183239, Note_on_c, 12, 57, 0
15, 184440, Note_on_c, 12, 55, 84
15, 185039, Note_on_c, 12, 55, 0
15, 185040, Note_on_c, 12, 54, 84
15, 185159, Note_on_c, 12, 54, 0
15, 185160, Note_on_c, 12, 55, 84
15, 185399, Note_on_c, 12, 55, 0
15, 185880, Note_on_c, 12, 55, 84
15, 186479, Note_on_c, 12, 55, 0
15, 186480, Note_on_c, 12, 54, 84
15, 186599, Note_on_c, 12, 54, 0
15, 186600, Note_on_c, 12, 55, 84
15, 186839, Note_on_c, 12, 55, 0
15, 187320, Note_on_c, 12, 55, 84
15, 187799, Note_on_c, 12, 55, 0
15, 187800, Note_on_c, 12, 54, 84
15, 188039, Note_on_c, 12, 54, 0
15, 188040, Note_on_c, 12, 52, 84
15, 188279, Note_on_c, 12, 52, 0
15, 188280, Note_on_c, 12, 57, 84
15, 188499, Note_on_c, 12, 57, 0
15, 188520, Note_on_c, 12, 57, 84
15, 188699, Note_on_c, 12, 57, 0
15, 188760, Note_on_c, 12, 50, 84
15, 188760, Note_on_c, 12, 62, 84
15, 188999, Note_on_c, 12, 50, 0
15, 188999, Note_on_c, 12, 62, 0
15, 190200, Note_on_c, 12, 57, 52
15, 190919, Note_on_c, 12, 57, 0
15, 190920, Note_on_c, 12, 57, 52
15, 191639, Note_on_c, 12, 57, 0
15, 191640, Control_c, 12, 11, 127
15, 191640, Note_on_c, 12, 57, 52
15, 191872, Control_c, 12, 11, 126
15, 192105, Control_c, 12, 11, 125
15, 192337, Control_c, 12, 11, 124
15, 192359, Note_on_c, 12, 57, 0
15, 192360, Note_on_c, 12, 57, 52
15, 192569, Control_c, 12, 11, 123
15, 192801, Control_c, 12, 11, 122
15, 193034, Control_c, 12, 11, 121
15, 193079, Note_on_c, 12, 57, 0
15, 193080, Note_on_c, 12, 57, 52
15, 193266, Control_c, 12, 11, 120
15, 193498, Control_c, 12, 11, 119
15, 193730, Control_c, 12, 11, 118
15, 193799, Note_on_c, 12, 57, 0
15, 193800, Note_on_c, 12, 57, 52
15, 193963, Control_c, 12, 11, 117
15, 194195, Control_c, 12, 11, 116
15, 194427, Control_c, 12, 11, 115
15, 194519, Note_on_c, 12, 57, 0
15, 194520, Note_on_c, 12, 57, 52
15, 194659, Control_c, 12, 11, 114
15, 194892, Control_c, 12, 11, 113
15, 195124, Control_c, 12, 11, 112
15, 195239, Note_on_c, 12, 57, 0
15, 195240, Note_on_c, 12, 57, 52
15, 195356, Control_c, 12, 11, 111
15, 195588, Control_c, 12, 11, 110
15, 195821, Control_c, 12, 11, 109
15, 195959, Note_on_c, 12, 57, 0
15, 195960, Note_on_c, 12, 57, 52
15, 196053, Control_c, 12, 11, 108
15, 196285, Control_c, 12, 11, 107
15, 196517, Control_c, 12, 11, 106
15, 196679, Note_on_c, 12, 57, 0
15, 196680, Note_on_c, 12, 57, 52
15, 196750, Control_c, 12, 11, 105
15, 196982, Control_c, 12, 11, 104
15, 197214, Control_c, 12, 11, 103
15, 197399, Note_on_c, 12, 57, 0
15, 197400, Note_on_c, 12, 57, 52
15, 197446, Control_c, 12, 11, 102
15, 197679, Control_c, 12, 11, 101
15, 197911, Control_c, 12, 11, 100
15, 198119, Note_on_c, 12, 57, 0
15, 198120, Note_on_c, 12, 57, 52
15, 198143, Control_c, 12, 11, 99
15, 198375, Control_c, 12, 11, 98
15, 198608, Control_c, 12, 11, 96
15, 198819, Note_on_c, 12, 57, 0
15, 198840, Note_on_c, 12, 58, 52
15, 199559, Note_on_c, 12, 58, 0
15, 199560, Note_on_c, 12, 58, 52
15, 200019, Note_on_c, 12, 58, 0
15, 200038, Control_c, 12, 11, 127
15, 200040, Note_on_c, 12, 53, 76
15, 200111, Note_on_c, 12, 53, 0
15, 200120, Note_on_c, 12, 53, 76
15, 200159, Note_on_c, 12, 53, 0
15, 200160, Note_on_c, 12, 57, 76
15, 200279, Note_on_c, 12, 57, 0
15, 200280, Note_on_c, 12, 53, 76
15, 200339, Note_on_c, 12, 53, 0
15, 200400, Note_on_c, 12, 57, 76
15, 200400, Note_on_c, 12, 53, 76
15, 200471, Note_on_c, 12, 57, 0
15, 200471, Note_on_c, 12, 53, 0
15, 200480, Note_on_c, 12, 57, 76
15, 200480, Note_on_c, 12, 53, 76
15, 200519, Note_on_c, 12, 57, 0
15, 200519, Note_on_c, 12, 53, 0
15, 200520, Note_on_c, 12, 57, 76
15, 200520, Note_on_c, 12, 60, 76
15, 200639, Note_on_c, 12, 57, 0
15, 200639, Note_on_c, 12, 60, 0
15, 200640, Note_on_c, 12, 57, 76
15, 200640, Note_on_c, 12, 53, 76
15, 200699, Note_on_c, 12, 57, 0
15, 200699, Note_on_c, 12, 53, 0
15, 200760, Note_on_c, 12, 60, 76
15, 200760, Note_on_c, 12, 57, 76
15, 200864, Note_on_c, 12, 60, 0
15, 200864, Note_on_c, 12, 57, 0
15, 200880, Note_on_c, 12, 53, 52
15, 200880, Note_on_c, 12, 57, 52
15, 200969, Note_on_c, 12, 53, 0
15, 200969, Note_on_c, 12, 57, 0
15, 201000, Note_on_c, 12, 57, 52
15, 201000, Note_on_c, 12, 53, 52
15, 201089, Note_on_c, 12, 57, 0
15, 201089, Note_on_c, 12, 53, 0
15, 201120, Note_on_c, 12, 57, 52
15, 201120, Note_on_c, 12, 60, 52
15, 201209, Note_on_c, 12, 57, 0
15, 201209, Note_on_c, 12, 60, 0
15, 201240, Note_on_c, 12, 53, 52
15, 201240, Note_on_c, 12, 57, 52
15, 201329, Note_on_c, 12, 53, 0
15, 201329, Note_on_c, 12, 57, 0
15, 201360, Note_on_c, 12, 53, 52
15, 201360, Note_on_c, 12, 57, 52
15, 201449, Note_on_c, 12, 53, 0
15, 201449, Note_on_c, 12, 57, 0
15, 201480, Note_on_c, 12, 57, 52
15, 201480, Note_on_c, 12, 60, 52
15, 201569, Note_on_c, 12, 57, 0
15, 201569, Note_on_c, 12, 60, 0
15, 201600, Note_on_c, 12, 53, 52
15, 201600, Note_on_c, 12, 57, 52
15, 201689, Note_on_c, 12, 53, 0
15, 201689, Note_on_c, 12, 57, 0
15, 201720, Note_on_c, 12, 53, 52
15, 201720, Note_on_c, 12, 57, 52
15, 201809, Note_on_c, 12, 53, 0
15, 201809, Note_on_c, 12, 57, 0
15, 201840, Note_on_c, 12, 60, 52
15, 201840, Note_on_c, 12, 57, 52
15, 201929, Note_on_c, 12, 60, 0
15, 201929, Note_on_c, 12, 57, 0
15, 201960, Note_on_c, 12, 48, 52
15, 201960, Note_on_c, 12, 55, 52
15, 202064, Note_on_c, 12, 48, 0
15, 202064, Note_on_c, 12, 55, 0
15, 202080, Note_on_c, 12, 55, 52
15, 202080, Note_on_c, 12, 48, 52
15, 202184, Note_on_c, 12, 55, 0
15, 202184, Note_on_c, 12, 48, 0
15, 202200, Note_on_c, 12, 60, 52
15, 202200, Note_on_c, 12, 48, 52
15, 202304, Note_on_c, 12, 60, 0
15, 202304, Note_on_c, 12, 48, 0
15, 202320, Note_on_c, 12, 55, 52
15, 202320, Note_on_c, 12, 48, 52
15, 202424, Note_on_c, 12, 55, 0
15, 202424, Note_on_c, 12, 48, 0
15, 202440, Note_on_c, 12, 48, 52
15, 202440, Note_on_c, 12, 55, 52
15, 202544, Note_on_c, 12, 48, 0
15, 202544, Note_on_c, 12, 55, 0
15, 202560, Note_on_c, 12, 48, 52
15, 202560, Note_on_c, 12, 60, 52
15, 202664, Note_on_c, 12, 48, 0
15, 202664, Note_on_c, 12, 60, 0
15, 202680, Note_on_c, 12, 48, 52
15, 202680, Note_on_c, 12, 55, 52
15, 202784, Note_on_c, 12, 48, 0
15, 202784, Note_on_c, 12, 55, 0
15, 202800, Note_on_c, 12, 48, 52
15, 202800, Note_on_c, 12, 55, 52
15, 202904, Note_on_c, 12, 48, 0
15, 202904, Note_on_c, 12, 55, 0
15, 202920, Note_on_c, 12, 48, 52
15, 202920, Note_on_c, 12, 60, 52
15, 203024, Note_on_c, 12, 48, 0
15, 203024, Note_on_c, 12, 60, 0
15, 203040, Note_on_c, 12, 55, 52
15, 203040, Note_on_c, 12, 48, 52
15, 203144, Note_on_c, 12, 55, 0
15, 203144, Note_on_c, 12, 48, 0
15, 203160, Note_on_c, 12, 55, 52
15, 203160, Note_on_c, 12, 48, 52
15, 203264, Note_on_c, 12, 55, 0
15, 203264, Note_on_c, 12, 48, 0
15, 203280, Note_on_c, 12, 48, 52
15, 203280, Note_on_c, 12, 60, 52
15, 203384, Note_on_c, 12, 48, 0
15, 203384, Note_on_c, 12, 60, 0
15, 203400, Note_on_c, 12, 57, 52
15, 203400, Note_on_c, 12, 53, 52
15, 203504, Note_on_c, 12, 57, 0
15, 203504, Note_on_c, 12, 53, 0
15, 203520, Note_on_c, 12, 53, 52
15, 203520, Note_on_c, 12, 57, 52
15, 203624, Note_on_c, 12, 53, 0
15, 203624, Note_on_c, 12, 57, 0
15, 203640, Note_on_c, 12, 60, 52
15, 203640, Note_on_c, 12, 57, 52
15, 203744, Note_on_c, 12, 60, 0
15, 203744, Note_on_c, 12, 57, 0
15, 203760, Note_on_c, 12, 48, 52
15, 203849, Note_on_c, 12, 48, 0
15, 203880, Note_on_c, 12, 60, 52
15, 203969, Note_on_c, 12, 60, 0
15, 204000, Note_on_c, 12, 60, 52
15, 204089, Note_on_c, 12, 60, 0
15, 204120, Note_on_c, 12, 60, 52
15, 204344, Note_on_c, 12, 60, 0
15, 204360, Note_on_c, 12, 60, 52
15, 204464, Note_on_c, 12, 60, 0
15, 204480, Note_on_c, 12, 48, 52
15, 204569, Note_on_c, 12, 48, 0
15, 204600, Note_on_c, 12, 60, 56
15, 204689, Note_on_c, 12, 60, 0
15, 204720, Note_on_c, 12, 60, 60
15, 204809, Note_on_c, 12, 60, 0
15, 204840, Note_on_c, 12, 60, 64
15, 205064, Note_on_c, 12, 60, 0
15, 205080, Note_on_c, 12, 60, 72
15, 205184, Note_on_c, 12, 60, 0
15, 205200, Note_on_c, 12, 62, 84
15, 205439, Note_on_c, 12, 62, 0
15, 205440, Note_on_c, 12, 64, 76
15, 205544, Note_on_c, 12, 64, 0
15, 205560, Note_on_c, 12, 68, 84
15, 205799, Note_on_c, 12, 68, 0
15, 205800, Note_on_c, 12, 69, 76
15, 205904, Note_on_c, 12, 69, 0
15, 205920, Note_on_c, 12, 59, 76
15, 205920, Note_on_c, 12, 62, 76
15, 206024, Note_on_c, 12, 59, 0
15, 206024, Note_on_c, 12, 62, 0
15, 206040, Note_on_c, 12, 62, 76
15, 206040, Note_on_c, 12, 64, 76
15, 206144, Note_on_c, 12, 62, 0
15, 206144, Note_on_c, 12, 64, 0
15, 206160, Note_on_c, 12, 64, 76
15, 206160, Note_on_c, 12, 62, 76
15, 206264, Note_on_c, 12, 64, 0
15, 206264, Note_on_c, 12, 62, 0
15, 206280, Note_on_c, 12, 57, 76
15, 206280, Note_on_c, 12, 61, 76
15, 206384, Note_on_c, 12, 57, 0
15, 206384, Note_on_c, 12, 61, 0
15, 206400, Note_on_c, 12, 64, 76
15, 206400, Note_on_c, 12, 61, 76
15, 206504, Note_on_c, 12, 64, 0
15, 206504, Note_on_c, 12, 61, 0
15, 206520, Note_on_c, 12, 64, 76
15, 206520, Note_on_c, 12, 61, 76
15, 206624, Note_on_c, 12, 64, 0
15, 206624, Note_on_c, 12, 61, 0
15, 206640, Note_on_c, 12, 59, 76
15, 206640, Note_on_c, 12, 56, 76
15, 206744, Note_on_c, 12, 59, 0
15, 206744, Note_on_c, 12, 56, 0
15, 206760, Note_on_c, 12, 64, 76
15, 206760, Note_on_c, 12, 59, 76
15, 206864, Note_on_c, 12, 64, 0
15, 206864, Note_on_c, 12, 59, 0
15, 206880, Note_on_c, 12, 64, 76
15, 206880, Note_on_c, 12, 59, 76
15, 206984, Note_on_c, 12, 64, 0
15, 206984, Note_on_c, 12, 59, 0
15, 207000, Note_on_c, 12, 61, 76
15, 207000, Note_on_c, 12, 57, 76
15, 207104, Note_on_c, 12, 61, 0
15, 207104, Note_on_c, 12, 57, 0
15, 207120, Note_on_c, 12, 64, 76
15, 207120, Note_on_c, 12, 61, 76
15, 207224, Note_on_c, 12, 64, 0
15, 207224, Note_on_c, 12, 61, 0
15, 207240, Note_on_c, 12, 64, 76
15, 207240, Note_on_c, 12, 61, 76
15, 207344, Note_on_c, 12, 64, 0
15, 207344, Note_on_c, 12, 61, 0
15, 207360, Note_on_c, 12, 62, 76
15, 207360, Note_on_c, 12, 59, 76
15, 207464, Note_on_c, 12, 62, 0
15, 207464, Note_on_c, 12, 59, 0
15, 207480, Note_on_c, 12, 62, 76
15, 207480, Note_on_c, 12, 64, 76
15, 207584, Note_on_c, 12, 62, 0
15, 207584, Note_on_c, 12, 64, 0
15, 207600, Note_on_c, 12, 62, 76
15, 207600, Note_on_c, 12, 64, 76
15, 207704, Note_on_c, 12, 62, 0
15, 207704, Note_on_c, 12, 64, 0
15, 207720, Note_on_c, 12, 57, 76
15, 207720, Note_on_c, 12, 61, 76
15, 207809, Note_on_c, 12, 57, 0
15, 207809, Note_on_c, 12, 61, 0
15, 207840, Note_on_c, 12, 76, 76
15, 207929, Note_on_c, 12, 76, 0
15, 207960, Note_on_c, 12, 73, 76
15, 208049, Note_on_c, 12, 73, 0
15, 208080, Note_on_c, 12, 69, 76
15, 208169, Note_on_c, 12, 69, 0
15, 208200, Note_on_c, 12, 64, 76
15, 208289, Note_on_c, 12, 64, 0
15, 208320, Note_on_c, 12, 61, 76
15, 208409, Note_on_c, 12, 61, 0
15, 208440, Note_on_c, 12, 57, 76
15, 208529, Note_on_c, 12, 57, 0
15, 208680, Note_on_c, 12, 53, 52
15, 208751, Note_on_c, 12, 53, 0
15, 208760, Note_on_c, 12, 53, 52
15, 208799, Note_on_c, 12, 53, 0
15, 208800, Note_on_c, 12, 57, 52
15, 208919, Note_on_c, 12, 57, 0
15, 208920, Note_on_c, 12, 53, 52
15, 208979, Note_on_c, 12, 53, 0
15, 209040, Note_on_c, 12, 53, 52
15, 209040, Note_on_c, 12, 57, 52
15, 209111, Note_on_c, 12, 53, 0
15, 209111, Note_on_c, 12, 57, 0
15, 209120, Note_on_c, 12, 53, 52
15, 209120, Note_on_c, 12, 57, 52
15, 209159, Note_on_c, 12, 53, 0
15, 209159, Note_on_c, 12, 57, 0
15, 209160, Note_on_c, 12, 60, 52
15, 209160, Note_on_c, 12, 57, 52
15, 209279, Note_on_c, 12, 60, 0
15, 209279, Note_on_c, 12, 57, 0
15, 209280, Note_on_c, 12, 53, 52
15, 209280, Note_on_c, 12, 57, 52
15, 209339, Note_on_c, 12, 53, 0
15, 209339, Note_on_c, 12, 57, 0
15, 209400, Note_on_c, 12, 57, 52
15, 209400, Note_on_c, 12, 60, 52
15, 209504, Note_on_c, 12, 57, 0
15, 209504, Note_on_c, 12, 60, 0
15, 209520, Note_on_c, 12, 57, 52
15, 209520, Note_on_c, 12, 53, 52
15, 209609, Note_on_c, 12, 57, 0
15, 209609, Note_on_c, 12, 53, 0
15, 209640, Note_on_c, 12, 53, 52
15, 209640, Note_on_c, 12, 57, 52
15, 209729, Note_on_c, 12, 53, 0
15, 209729, Note_on_c, 12, 57, 0
15, 209760, Note_on_c, 12, 60, 52
15, 209760, Note_on_c, 12, 57, 52
15, 209849, Note_on_c, 12, 60, 0
15, 209849, Note_on_c, 12, 57, 0
15, 209880, Note_on_c, 12, 53, 52
15, 209880, Note_on_c, 12, 57, 52
15, 209969, Note_on_c, 12, 53, 0
15, 209969, Note_on_c, 12, 57, 0
15, 210000, Note_on_c, 12, 53, 52
15, 210000, Note_on_c, 12, 57, 52
15, 210089, Note_on_c, 12, 53, 0
15, 210089, Note_on_c, 12, 57, 0
15, 210120, Note_on_c, 12, 57, 52
15, 210120, Note_on_c, 12, 60, 52
15, 210209, Note_on_c, 12, 57, 0
15, 210209, Note_on_c, 12, 60, 0
15, 210240, Note_on_c, 12, 57, 52
15, 210240, Note_on_c, 12, 53, 52
15, 210329, Note_on_c, 12, 57, 0
15, 210329, Note_on_c, 12, 53, 0
15, 210360, Note_on_c, 12, 57, 52
15, 210360, Note_on_c, 12, 53, 52
15, 210449, Note_on_c, 12, 57, 0
15, 210449, Note_on_c, 12, 53, 0
15, 210480, Note_on_c, 12, 60, 52
15, 210480, Note_on_c, 12, 57, 52
15, 210569, Note_on_c, 12, 60, 0
15, 210569, Note_on_c, 12, 57, 0
15, 210600, Note_on_c, 12, 48, 52
15, 210600, Note_on_c, 12, 55, 52
15, 210704, Note_on_c, 12, 48, 0
15, 210704, Note_on_c, 12, 55, 0
15, 210720, Note_on_c, 12, 55, 52
15, 210720, Note_on_c, 12, 48, 52
15, 210824, Note_on_c, 12, 55, 0
15, 210824, Note_on_c, 12, 48, 0
15, 210840, Note_on_c, 12, 48, 52
15, 210840, Note_on_c, 12, 60, 52
15, 210944, Note_on_c, 12, 48, 0
15, 210944, Note_on_c, 12, 60, 0
15, 210960, Note_on_c, 12, 48, 52
15, 210960, Note_on_c, 12, 55, 52
15, 211064, Note_on_c, 12, 48, 0
15, 211064, Note_on_c, 12, 55, 0
15, 211080, Note_on_c, 12, 55, 52
15, 211080, Note_on_c, 12, 48, 52
15, 211184, Note_on_c, 12, 55, 0
15, 211184, Note_on_c, 12, 48, 0
15, 211200, Note_on_c, 12, 60, 52
15, 211200, Note_on_c, 12, 48, 52
15, 211304, Note_on_c, 12, 60, 0
15, 211304, Note_on_c, 12, 48, 0
15, 211320, Note_on_c, 12, 55, 52
15, 211320, Note_on_c, 12, 48, 52
15, 211424, Note_on_c, 12, 55, 0
15, 211424, Note_on_c, 12, 48, 0
15, 211440, Note_on_c, 12, 48, 52
15, 211440, Note_on_c, 12, 55, 52
15, 211544, Note_on_c, 12, 48, 0
15, 211544, Note_on_c, 12, 55, 0
15, 211560, Note_on_c, 12, 60, 52
15, 211560, Note_on_c, 12, 48, 52
15, 211664, Note_on_c, 12, 60, 0
15, 211664, Note_on_c, 12, 48, 0
15, 211680, Note_on_c, 12, 55, 52
15, 211680, Note_on_c, 12, 48, 52
15, 211784, Note_on_c, 12, 55, 0
15, 211784, Note_on_c, 12, 48, 0
15, 211800, Note_on_c, 12, 48, 52
15, 211800, Note_on_c, 12, 55, 52
15, 211904, Note_on_c, 12, 48, 0
15, 211904, Note_on_c, 12, 55, 0
15, 211920, Note_on_c, 12, 48, 52
15, 211920, Note_on_c, 12, 60, 52
15, 212024, Note_on_c, 12, 48, 0
15, 212024, Note_on_c, 12, 60, 0
15, 212040, Note_on_c, 12, 57, 52
15, 212040, Note_on_c, 12, 53, 52
15, 212144, Note_on_c, 12, 57, 0
15, 212144, Note_on_c, 12, 53, 0
15, 212160, Note_on_c, 12, 57, 52
15, 212160, Note_on_c, 12, 53, 52
15, 212264, Note_on_c, 12, 57, 0
15, 212264, Note_on_c, 12, 53, 0
15, 212280, Note_on_c, 12, 60, 52
15, 212280, Note_on_c, 12, 57, 52
15, 212384, Note_on_c, 12, 60, 0
15, 212384, Note_on_c, 12, 57, 0
15, 212400, Note_on_c, 12, 48, 52
15, 212489, Note_on_c, 12, 48, 0
15, 212520, Note_on_c, 12, 60, 52
15, 212609, Note_on_c, 12, 60, 0
15, 212640, Note_on_c, 12, 60, 52
15, 212729, Note_on_c, 12, 60, 0
15, 212760, Note_on_c, 12, 60, 52
15, 212984, Note_on_c, 12, 60, 0
15, 213000, Note_on_c, 12, 60, 52
15, 213104, Note_on_c, 12, 60, 0
15, 213120, Note_on_c, 12, 48, 52
15, 213209, Note_on_c, 12, 48, 0
15, 213240, Note_on_c, 12, 60, 52
15, 213329, Note_on_c, 12, 60, 0
15, 213360, Note_on_c, 12, 60, 52
15, 213449, Note_on_c, 12, 60, 0
15, 213480, Note_on_c, 12, 60, 52
15, 213704, Note_on_c, 12, 60, 0
15, 213720, Note_on_c, 12, 60, 52
15, 213824, Note_on_c, 12, 60, 0
15, 213840, Note_on_c, 12, 62, 52
15, 214079, Note_on_c, 12, 62, 0
15, 214080, Note_on_c, 12, 64, 52
15, 214184, Note_on_c, 12, 64, 0
15, 214200, Note_on_c, 12, 68, 52
15, 214439, Note_on_c, 12, 68, 0
15, 214440, Note_on_c, 12, 69, 52
15, 214544, Note_on_c, 12, 69, 0
15, 214560, Note_on_c, 12, 59, 52
15, 214560, Note_on_c, 12, 62, 52
15, 214664, Note_on_c, 12, 59, 0
15, 214664, Note_on_c, 12, 62, 0
15, 214680, Note_on_c, 12, 64, 52
15, 214680, Note_on_c, 12, 62, 52
15, 214784, Note_on_c, 12, 64, 0
15, 214784, Note_on_c, 12, 62, 0
15, 214800, Note_on_c, 12, 64, 52
15, 214800, Note_on_c, 12, 62, 52
15, 214904, Note_on_c, 12, 64, 0
15, 214904, Note_on_c, 12, 62, 0
15, 214920, Note_on_c, 12, 57, 52
15, 214920, Note_on_c, 12, 61, 52
15, 215024, Note_on_c, 12, 57, 0
15, 215024, Note_on_c, 12, 61, 0
15, 215040, Note_on_c, 12, 61, 52
15, 215040, Note_on_c, 12, 64, 52
15, 215144, Note_on_c, 12, 61, 0
15, 215144, Note_on_c, 12, 64, 0
15, 215160, Note_on_c, 12, 61, 52
15, 215160, Note_on_c, 12, 64, 52
15, 215264, Note_on_c, 12, 61, 0
15, 215264, Note_on_c, 12, 64, 0
15, 215280, Note_on_c, 12, 59, 52
15, 215280, Note_on_c, 12, 56, 52
15, 215384, Note_on_c, 12, 59, 0
15, 215384, Note_on_c, 12, 56, 0
15, 215400, Note_on_c, 12, 64, 52
15, 215400, Note_on_c, 12, 59, 52
15, 215504, Note_on_c, 12, 64, 0
15, 215504, Note_on_c, 12, 59, 0
15, 215520, Note_on_c, 12, 59, 52
15, 215520, Note_on_c, 12, 64, 52
15, 215624, Note_on_c, 12, 59, 0
15, 215624, Note_on_c, 12, 64, 0
15, 215640, Note_on_c, 12, 61, 52
15, 215640, Note_on_c, 12, 57, 52
15, 215744, Note_on_c, 12, 61, 0
15, 215744, Note_on_c, 12, 57, 0
15, 215760, Note_on_c, 12, 64, 52
15, 215760, Note_on_c, 12, 61, 52
15, 215864, Note_on_c, 12, 64, 0
15, 215864, Note_on_c, 12, 61, 0
15, 215880, Note_on_c, 12, 61, 52
15, 215880, Note_on_c, 12, 64, 52
15, 215984, Note_on_c, 12, 61, 0
15, 215984, Note_on_c, 12, 64, 0
15, 216000, Note_on_c, 12, 59, 52
15, 216000, Note_on_c, 12, 62, 52
15, 216104, Note_on_c, 12, 59, 0
15, 216104, Note_on_c, 12, 62, 0
15, 216120, Note_on_c, 12, 64, 52
15, 216120, Note_on_c, 12, 62, 52
15, 216224, Note_on_c, 12, 64, 0
15, 216224, Note_on_c, 12, 62, 0
15, 216240, Note_on_c, 12, 62, 52
15, 216240, Note_on_c, 12, 64, 52
15, 216344, Note_on_c, 12, 62, 0
15, 216344, Note_on_c, 12, 64, 0
15, 216360, Note_on_c, 12, 57, 52
15, 216360, Note_on_c, 12, 61, 52
15, 216449, Note_on_c, 12, 57, 0
15, 216449, Note_on_c, 12, 61, 0
15, 216480, Note_on_c, 12, 76, 52
15, 216569, Note_on_c, 12, 76, 0
15, 216600, Note_on_c, 12, 73, 52
15, 216689, Note_on_c, 12, 73, 0
15, 216720, Note_on_c, 12, 69, 52
15, 216809, Note_on_c, 12, 69, 0
15, 216840, Note_on_c, 12, 64, 52
15, 216929, Note_on_c, 12, 64, 0
15, 216960, Note_on_c, 12, 61, 52
15, 217049, Note_on_c, 12, 61, 0
15, 217080, Note_on_c, 12, 57, 52
15, 217169, Note_on_c, 12, 57, 0
15, 217680, Note_on_c, 12, 57, 52
15, 217751, Note_on_c, 12, 57, 0
15, 217760, Note_on_c, 12, 57, 52
15, 217799, Note_on_c, 12, 57, 0
15, 217800, Note_on_c, 12, 61, 52
15, 217919, Note_on_c, 12, 61, 0
15, 217920, Note_on_c, 12, 57, 52
15, 217979, Note_on_c, 12, 57, 0
15, 221760, Note_on_c, 12, 64, 44
15, 221999, Note_on_c, 12, 64, 0
15, 222000, Note_on_c, 12, 62, 44
15, 222104, Note_on_c, 12, 62, 0
15, 222120, Note_on_c, 12, 64, 44
15, 222359, Note_on_c, 12, 64, 0
15, 222360, Note_on_c, 12, 62, 44
15, 222464, Note_on_c, 12, 62, 0
15, 222480, Note_on_c, 12, 64, 44
15, 222719, Note_on_c, 12, 64, 0
15, 222720, Note_on_c, 12, 62, 44
15, 222824, Note_on_c, 12, 62, 0
15, 222840, Note_on_c, 12, 64, 44
15, 223079, Note_on_c, 12, 64, 0
15, 223080, Note_on_c, 12, 62, 44
15, 223199, Note_on_c, 12, 62, 0
15, 224160, Note_on_c, 12, 62, 44
15, 224264, Note_on_c, 12, 62, 0
15, 224280, Note_on_c, 12, 65, 44
15, 224399, Note_on_c, 12, 65, 0
15, 224400, Note_on_c, 12, 62, 44
15, 224459, Note_on_c, 12, 62, 0
15, 227520, Note_on_c, 12, 67, 44
15, 227759, Note_on_c, 12, 67, 0
15, 227760, Note_on_c, 12, 65, 44
15, 227864, Note_on_c, 12, 65, 0
15, 227880, Note_on_c, 12, 67, 44
15, 228119, Note_on_c, 12, 67, 0
15, 228120, Note_on_c, 12, 65, 44
15, 228224, Note_on_c, 12, 65, 0
15, 228240, Note_on_c, 12, 67, 44
15, 228479, Note_on_c, 12, 67, 0
15, 228480, Note_on_c, 12, 65, 44
15, 228584, Note_on_c, 12, 65, 0
15, 228600, Note_on_c, 12, 67, 44
15, 228839, Note_on_c, 12, 67, 0
15, 228840, Note_on_c, 12, 65, 44
15, 228944, Note_on_c, 12, 65, 0
15, 228960, Note_on_c, 12, 60, 44
15, 229319, Note_on_c, 12, 60, 0
15, 229320, Note_on_c, 12, 60, 44
15, 229679, Note_on_c, 12, 60, 0
15, 229680, Note_on_c, 12, 60, 44
15, 229904, Note_on_c, 12, 60, 0
15, 229920, Note_on_c, 12, 60, 44
15, 230024, Note_on_c, 12, 60, 0
15, 230040, Note_on_c, 12, 63, 44
15, 230159, Note_on_c, 12, 63, 0
15, 230160, Note_on_c, 12, 60, 44
15, 230219, Note_on_c, 12, 60, 0
15, 230280, Note_on_c, 12, 65, 44
15, 230384, Note_on_c, 12, 65, 0
15, 230400, Note_on_c, 12, 67, 44
15, 230489, Note_on_c, 12, 67, 0
15, 230520, Note_on_c, 12, 67, 44
15, 230609, Note_on_c, 12, 67, 0
15, 230640, Note_on_c, 12, 65, 44
15, 230729, Note_on_c, 12, 65, 0
15, 230760, Note_on_c, 12, 63, 44
15, 230999, Note_on_c, 12, 63, 0
15, 231000, Note_on_c, 12, 62, 44
15, 231104, Note_on_c, 12, 62, 0
15, 231120, Note_on_c, 12, 67, 44
15, 231209, Note_on_c, 12, 67, 0
15, 231240, Note_on_c, 12, 67, 44
15, 231329, Note_on_c, 12, 67, 0
15, 231360, Note_on_c, 12, 65, 44
15, 231449, Note_on_c, 12, 65, 0
15, 231480, Note_on_c, 12, 65, 44
15, 231599, Note_on_c, 12, 65, 0
15, 231600, Note_on_c, 12, 62, 44
15, 231659, Note_on_c, 12, 62, 0
15, 231720, Note_on_c, 12, 65, 44
15, 231824, Note_on_c, 12, 65, 0
15, 231840, Note_on_c, 12, 58, 44
15, 231929, Note_on_c, 12, 58, 0
15, 231960, Note_on_c, 12, 62, 44
15, 232049, Note_on_c, 12, 62, 0
15, 232080, Note_on_c, 12, 62, 44
15, 232169, Note_on_c, 12, 62, 0
15, 232200, Note_on_c, 12, 58, 44
15, 232289, Note_on_c, 12, 58, 0
15, 232320, Note_on_c, 12, 62, 44
15, 232409, Note_on_c, 12, 62, 0
15, 232440, Note_on_c, 12, 62, 44
15, 232529, Note_on_c, 12, 62, 0
15, 232560, Note_on_c, 12, 58, 44
15, 232649, Note_on_c, 12, 58, 0
15, 232680, Note_on_c, 12, 62, 44
15, 232769, Note_on_c, 12, 62, 0
15, 232800, Note_on_c, 12, 62, 44
15, 232889, Note_on_c, 12, 62, 0
15, 232920, Note_on_c, 12, 58, 44
15, 233009, Note_on_c, 12, 58, 0
15, 233040, Note_on_c, 12, 62, 44
15, 233129, Note_on_c, 12, 62, 0
15, 233160, Note_on_c, 12, 62, 44
15, 233249, Note_on_c, 12, 62, 0
15, 233280, Note_on_c, 12, 53, 44
15, 233369, Note_on_c, 12, 53, 0
15, 233400, Note_on_c, 12, 53, 44
15, 233489, Note_on_c, 12, 53, 0
15, 233520, Note_on_c, 12, 60, 44
15, 233609, Note_on_c, 12, 60, 0
15, 233640, Note_on_c, 12, 53, 44
15, 233729, Note_on_c, 12, 53, 0
15, 233760, Note_on_c, 12, 53, 44
15, 233849, Note_on_c, 12, 53, 0
15, 233880, Note_on_c, 12, 60, 44
15, 233969, Note_on_c, 12, 60, 0
15, 234000, Note_on_c, 12, 53, 44
15, 234089, Note_on_c, 12, 53, 0
15, 234120, Note_on_c, 12, 53, 44
15, 234209, Note_on_c, 12, 53, 0
15, 234240, Note_on_c, 12, 60, 44
15, 234329, Note_on_c, 12, 60, 0
15, 234360, Note_on_c, 12, 53, 44
15, 234449, Note_on_c, 12, 53, 0
15, 234480, Note_on_c, 12, 53, 44
15, 234569, Note_on_c, 12, 53, 0
15, 234600, Note_on_c, 12, 60, 44
15, 234689, Note_on_c, 12, 60, 0
15, 234720, Note_on_c, 12, 53, 44
15, 234809, Note_on_c, 12, 53, 0
15, 234840, Note_on_c, 12, 53, 44
15, 234929, Note_on_c, 12, 53, 0
15, 234960, Note_on_c, 12, 53, 44
15, 235049, Note_on_c, 12, 53, 0
15, 235080, Note_on_c, 12, 53, 44
15, 235080, Note_on_c, 12, 50, 44
15, 235169, Note_on_c, 12, 53, 0
15, 235169, Note_on_c, 12, 50, 0
15, 235200, Note_on_c, 12, 50, 44
15, 235200, Note_on_c, 12, 53, 44
15, 235289, Note_on_c, 12, 50, 0
15, 235289, Note_on_c, 12, 53, 0
15, 235320, Note_on_c, 12, 58, 45
15, 235320, Note_on_c, 12, 53, 45
15, 235409, Note_on_c, 12, 58, 0
15, 235409, Note_on_c, 12, 53, 0
15, 235440, Note_on_c, 12, 53, 46
15, 235440, Note_on_c, 12, 50, 46
15, 235529, Note_on_c, 12, 53, 0
15, 235529, Note_on_c, 12, 50, 0
15, 235560, Note_on_c, 12, 53, 46
15, 235560, Note_on_c, 12, 50, 46
15, 235649, Note_on_c, 12, 53, 0
15, 235649, Note_on_c, 12, 50, 0
15, 235680, Note_on_c, 12, 53, 47
15, 235680, Note_on_c, 12, 58, 47
15, 235769, Note_on_c, 12, 53, 0
15, 235769, Note_on_c, 12, 58, 0
15, 235800, Note_on_c, 12, 53, 48
15, 235800, Note_on_c, 12, 50, 48
15, 235889, Note_on_c, 12, 53, 0
15, 235889, Note_on_c, 12, 50, 0
15, 235920, Note_on_c, 12, 50, 49
15, 235920, Note_on_c, 12, 53, 49
15, 236009, Note_on_c, 12, 50, 0
15, 236009, Note_on_c, 12, 53, 0
15, 236040, Note_on_c, 12, 58, 49
15, 236040, Note_on_c, 12, 53, 49
15, 236129, Note_on_c, 12, 58, 0
15, 236129, Note_on_c, 12, 53, 0
15, 236160, Note_on_c, 12, 60, 50
15, 236160, Note_on_c, 12, 53, 50
15, 236249, Note_on_c, 12, 60, 0
15, 236249, Note_on_c, 12, 53, 0
15, 236280, Note_on_c, 12, 53, 51
15, 236280, Note_on_c, 12, 60, 51
15, 236369, Note_on_c, 12, 53, 0
15, 236369, Note_on_c, 12, 60, 0
15, 236400, Note_on_c, 12, 60, 52
15, 236400, Note_on_c, 12, 53, 52
15, 236489, Note_on_c, 12, 60, 0
15, 236489, Note_on_c, 12, 53, 0
15, 236520, Note_on_c, 12, 53, 52
15, 236520, Note_on_c, 12, 57, 52
15, 236609, Note_on_c, 12, 53, 0
15, 236609, Note_on_c, 12, 57, 0
15, 236640, Note_on_c, 12, 57, 53
15, 236640, Note_on_c, 12, 53, 53
15, 236729, Note_on_c, 12, 57, 0
15, 236729, Note_on_c, 12, 53, 0
15, 236760, Note_on_c, 12, 60, 54
15, 236760, Note_on_c, 12, 57, 54
15, 236849, Note_on_c, 12, 60, 0
15, 236849, Note_on_c, 12, 57, 0
15, 236880, Note_on_c, 12, 57, 54
15, 236880, Note_on_c, 12, 53, 54
15, 236969, Note_on_c, 12, 57, 0
15, 236969, Note_on_c, 12, 53, 0
15, 237000, Note_on_c, 12, 57, 55
15, 237000, Note_on_c, 12, 53, 55
15, 237089, Note_on_c, 12, 57, 0
15, 237089, Note_on_c, 12, 53, 0
15, 237120, Note_on_c, 12, 57, 56
15, 237120, Note_on_c, 12, 60, 56
15, 237209, Note_on_c, 12, 57, 0
15, 237209, Note_on_c, 12, 60, 0
15, 237240, Note_on_c, 12, 57, 57
15, 237240, Note_on_c, 12, 53, 57
15, 237329, Note_on_c, 12, 57, 0
15, 237329, Note_on_c, 12, 53, 0
15, 237360, Note_on_c, 12, 53, 57
15, 237360, Note_on_c, 12, 57, 57
15, 237449, Note_on_c, 12, 53, 0
15, 237449, Note_on_c, 12, 57, 0
15, 237480, Note_on_c, 12, 57, 58
15, 237480, Note_on_c, 12, 60, 58
15, 237569, Note_on_c, 12, 57, 0
15, 237569, Note_on_c, 12, 60, 0
15, 237600, Note_on_c, 12, 58, 59
15, 237600, Note_on_c, 12, 53, 59
15, 237689, Note_on_c, 12, 58, 0
15, 237689, Note_on_c, 12, 53, 0
15, 237720, Note_on_c, 12, 58, 60
15, 237720, Note_on_c, 12, 53, 60
15, 237809, Note_on_c, 12, 58, 0
15, 237809, Note_on_c, 12, 53, 0
15, 237840, Note_on_c, 12, 62, 60
15, 237840, Note_on_c, 12, 58, 60
15, 237929, Note_on_c, 12, 62, 0
15, 237929, Note_on_c, 12, 58, 0
15, 238320, Note_on_c, 12, 65, 63
15, 238409, Note_on_c, 12, 65, 0
15, 238440, Note_on_c, 12, 65, 64
15, 238529, Note_on_c, 12, 65, 0
15, 238560, Note_on_c, 12, 64, 65
15, 238649, Note_on_c, 12, 64, 0
15, 238680, Note_on_c, 12, 62, 65
15, 238769, Note_on_c, 12, 62, 0
15, 238800, Note_on_c, 12, 62, 66
15, 238889, Note_on_c, 12, 62, 0
15, 238920, Note_on_c, 12, 60, 67
15, 239009, Note_on_c, 12, 60, 0
15, 239040, Note_on_c, 12, 58, 68
15, 239129, Note_on_c, 12, 58, 0
15, 239160, Note_on_c, 12, 58, 68
15, 239249, Note_on_c, 12, 58, 0
15, 239280, Note_on_c, 12, 57, 69
15, 239369, Note_on_c, 12, 57, 0
15, 239400, Note_on_c, 12, 55, 70
15, 239489, Note_on_c, 12, 55, 0
15, 239520, Note_on_c, 12, 55, 70
15, 239609, Note_on_c, 12, 55, 0
15, 239640, Note_on_c, 12, 53, 71
15, 239729, Note_on_c, 12, 53, 0
15, 239760, Note_on_c, 12, 52, 72
15, 239849, Note_on_c, 12, 52, 0
15, 239880, Note_on_c, 12, 52, 73
15, 239969, Note_on_c, 12, 52, 0
15, 240000, Note_on_c, 12, 50, 73
15, 240089, Note_on_c, 12, 50, 0
15, 240120, Note_on_c, 12, 48, 74
15, 240209, Note_on_c, 12, 48, 0
15, 240240, Note_on_c, 12, 58, 75
15, 240329, Note_on_c, 12, 58, 0
15, 240360, Note_on_c, 12, 57, 76
15, 240449, Note_on_c, 12, 57, 0
15, 240480, Note_on_c, 12, 57, 76
15, 240599, Note_on_c, 12, 57, 0
15, 240600, Note_on_c, 12, 53, 76
15, 240659, Note_on_c, 12, 53, 0
15, 240720, Note_on_c, 12, 57, 76
15, 240779, Note_on_c, 12, 57, 0
15, 240800, Note_on_c, 12, 57, 76
15, 240839, Note_on_c, 12, 57, 0
15, 240840, Note_on_c, 12, 60, 76
15, 240840, Note_on_c, 12, 57, 76
15, 240959, Note_on_c, 12, 60, 0
15, 240959, Note_on_c, 12, 57, 0
15, 240960, Note_on_c, 12, 53, 76
15, 240960, Note_on_c, 12, 57, 76
15, 241019, Note_on_c, 12, 53, 0
15, 241019, Note_on_c, 12, 57, 0
15, 241080, Note_on_c, 12, 57, 76
15, 241080, Note_on_c, 12, 60, 76
15, 241184, Note_on_c, 12, 57, 0
15, 241184, Note_on_c, 12, 60, 0
15, 241200, Note_on_c, 12, 53, 84
15, 241559, Note_on_c, 12, 53, 0
15, 241560, Note_on_c, 12, 53, 84
15, 241919, Note_on_c, 12, 53, 0
15, 241920, Note_on_c, 12, 53, 84
15, 242399, Note_on_c, 12, 53, 0
15, 242400, Note_on_c, 12, 52, 84
15, 242504, Note_on_c, 12, 52, 0
15, 242520, Note_on_c, 12, 52, 84
15, 242609, Note_on_c, 12, 52, 0
15, 242640, Note_on_c, 12, 52, 84
15, 242999, Note_on_c, 12, 52, 0
15, 243000, Note_on_c, 12, 52, 84
15, 243359, Note_on_c, 12, 52, 0
15, 243360, Note_on_c, 12, 52, 84
15, 243839, Note_on_c, 12, 52, 0
15, 243840, Note_on_c, 12, 53, 84
15, 243944, Note_on_c, 12, 53, 0
15, 243960, Note_on_c, 12, 53, 84
15, 244049, Note_on_c, 12, 53, 0
15, 244080, Note_on_c, 12, 65, 52
15, 244080, Note_on_c, 12, 57, 52
15, 244439, Note_on_c, 12, 65, 0
15, 244439, Note_on_c, 12, 57, 0
15, 244440, Note_on_c, 12, 65, 52
15, 244440, Note_on_c, 12, 57, 52
15, 244799, Note_on_c, 12, 65, 0
15, 244799, Note_on_c, 12, 57, 0
15, 244800, Note_on_c, 12, 57, 52
15, 244800, Note_on_c, 12, 65, 52
15, 245279, Note_on_c, 12, 57, 0
15, 245279, Note_on_c, 12, 65, 0
15, 245280, Note_on_c, 12, 60, 52
15, 245280, Note_on_c, 12, 67, 52
15, 245384, Note_on_c, 12, 60, 0
15, 245384, Note_on_c, 12, 67, 0
15, 245400, Note_on_c, 12, 60, 52
15, 245400, Note_on_c, 12, 67, 52
15, 245489, Note_on_c, 12, 60, 0
15, 245489, Note_on_c, 12, 67, 0
15, 245520, Note_on_c, 12, 67, 52
15, 245520, Note_on_c, 12, 60, 52
15, 245879, Note_on_c, 12, 67, 0
15, 245879, Note_on_c, 12, 60, 0
15, 245880, Note_on_c, 12, 67, 52
15, 245880, Note_on_c, 12, 60, 52
15, 246239, Note_on_c, 12, 67, 0
15, 246239, Note_on_c, 12, 60, 0
15, 246240, Note_on_c, 12, 67, 52
15, 246240, Note_on_c, 12, 60, 52
15, 246719, Note_on_c, 12, 67, 0
15, 246719, Note_on_c, 12, 60, 0
15, 246720, Note_on_c, 12, 65, 52
15, 246720, Note_on_c, 12, 69, 52
15, 246824, Note_on_c, 12, 65, 0
15, 246824, Note_on_c, 12, 69, 0
15, 246840, Note_on_c, 12, 69, 52
15, 246840, Note_on_c, 12, 65, 52
15, 246929, Note_on_c, 12, 69, 0
15, 246929, Note_on_c, 12, 65, 0
15, 246960, Note_on_c, 12, 60, 52
15, 247049, Note_on_c, 12, 60, 0
15, 247080, Note_on_c, 12, 60, 52
15, 247169, Note_on_c, 12, 60, 0
15, 247200, Note_on_c, 12, 60, 52
15, 247289, Note_on_c, 12, 60, 0
15, 247320, Note_on_c, 12, 60, 52
15, 247544, Note_on_c, 12, 60, 0
15, 247560, Note_on_c, 12, 60, 52
15, 247679, Note_on_c, 12, 60, 0
15, 248280, Control_c, 12, 11, 80
15, 248400, Note_on_c, 12, 60, 76
15, 248440, Control_c, 12, 11, 83
15, 248480, Control_c, 12, 11, 85
15, 248489, Note_on_c, 12, 60, 0
15, 248520, Control_c, 12, 11, 88
15, 248520, Note_on_c, 12, 60, 76
15, 248560, Control_c, 12, 11, 90
15, 248600, Control_c, 12, 11, 93
15, 248609, Note_on_c, 12, 60, 0
15, 248640, Control_c, 12, 11, 96
15, 248640, Note_on_c, 12, 60, 76
15, 248680, Control_c, 12, 11, 98
15, 248720, Control_c, 12, 11, 101
15, 248729, Note_on_c, 12, 60, 0
15, 248760, Control_c, 12, 11, 104
15, 248760, Note_on_c, 12, 60, 76
15, 248800, Control_c, 12, 11, 106
15, 248840, Control_c, 12, 11, 109
15, 248880, Control_c, 12, 11, 111
15, 248920, Control_c, 12, 11, 114
15, 248960, Control_c, 12, 11, 117
15, 248984, Note_on_c, 12, 60, 0
15, 249000, Note_on_c, 12, 60, 76
15, 249000, Control_c, 12, 11, 119
15, 249040, Control_c, 12, 11, 122
15, 249080, Control_c, 12, 11, 127
15, 249104, Note_on_c, 12, 60, 0
15, 249120, Note_on_c, 12, 58, 76
15, 249359, Note_on_c, 12, 58, 0
15, 249360, Note_on_c, 12, 65, 76
15, 249464, Note_on_c, 12, 65, 0
15, 249480, Note_on_c, 12, 53, 84
15, 249719, Note_on_c, 12, 53, 0
15, 249720, Note_on_c, 12, 60, 76
15, 249824, Note_on_c, 12, 60, 0
15, 249840, Note_on_c, 12, 60, 84
15, 250079, Note_on_c, 12, 60, 0
15, 250080, Note_on_c, 12, 67, 76
15, 250184, Note_on_c, 12, 67, 0
15, 250200, Note_on_c, 12, 67, 84
15, 250424, Note_on_c, 12, 67, 0
15, 250440, Note_on_c, 12, 67, 76
15, 250544, Note_on_c, 12, 67, 0
15, 250560, Note_on_c, 12, 62, 52
15, 250664, Note_on_c, 12, 62, 0
15, 250680, Note_on_c, 12, 62, 52
15, 250784, Note_on_c, 12, 62, 0
15, 250800, Note_on_c, 12, 65, 52
15, 250904, Note_on_c, 12, 65, 0
15, 250920, Note_on_c, 12, 60, 52
15, 251024, Note_on_c, 12, 60, 0
15, 251040, Note_on_c, 12, 60, 52
15, 251144, Note_on_c, 12, 60, 0
15, 251160, Note_on_c, 12, 64, 52
15, 251264, Note_on_c, 12, 64, 0
15, 251280, Note_on_c, 12, 59, 52
15, 251384, Note_on_c, 12, 59, 0
15, 251400, Note_on_c, 12, 59, 52
15, 251504, Note_on_c, 12, 59, 0
15, 251520, Note_on_c, 12, 62, 52
15, 251624, Note_on_c, 12, 62, 0
15, 251640, Note_on_c, 12, 60, 52
15, 251744, Note_on_c, 12, 60, 0
15, 251760, Note_on_c, 12, 60, 52
15, 251864, Note_on_c, 12, 60, 0
15, 251880, Note_on_c, 12, 64, 52
15, 251984, Note_on_c, 12, 64, 0
15, 252000, Note_on_c, 12, 62, 52
15, 252104, Note_on_c, 12, 62, 0
15, 252120, Note_on_c, 12, 62, 54
15, 252224, Note_on_c, 12, 62, 0
15, 252240, Note_on_c, 12, 65, 57
15, 252344, Note_on_c, 12, 65, 0
15, 252360, Note_on_c, 12, 60, 60
15, 252464, Note_on_c, 12, 60, 0
15, 252480, Note_on_c, 12, 64, 62
15, 252584, Note_on_c, 12, 64, 0
15, 252600, Note_on_c, 12, 64, 65
15, 252704, Note_on_c, 12, 64, 0
15, 252720, Note_on_c, 12, 62, 68
15, 252824, Note_on_c, 12, 62, 0
15, 252840, Note_on_c, 12, 62, 70
15, 252944, Note_on_c, 12, 62, 0
15, 252960, Note_on_c, 12, 65, 73
15, 253064, Note_on_c, 12, 65, 0
15, 253080, Note_on_c, 12, 60, 76
15, 253184, Note_on_c, 12, 60, 0
15, 253200, Note_on_c, 12, 60, 78
15, 253304, Note_on_c, 12, 60, 0
15, 253320, Note_on_c, 12, 64, 81
15, 253424, Note_on_c, 12, 64, 0
15, 253440, Note_on_c, 12, 58, 84
15, 253484, Note_on_c, 12, 58, 0
15, 253485, Note_on_c, 12, 60, 84
15, 253529, Note_on_c, 12, 60, 0
15, 253530, Note_on_c, 12, 58, 84
15, 253574, Note_on_c, 12, 58, 0
15, 253575, Note_on_c, 12, 60, 84
15, 253619, Note_on_c, 12, 60, 0
15, 253620, Note_on_c, 12, 58, 84
15, 253664, Note_on_c, 12, 58, 0
15, 253665, Note_on_c, 12, 60, 84
15, 253709, Note_on_c, 12, 60, 0
15, 253710, Note_on_c, 12, 57, 84
15, 253754, Note_on_c, 12, 57, 0
15, 253755, Note_on_c, 12, 58, 84
15, 253799, Note_on_c, 12, 58, 0
15, 253800, Note_on_c, 12, 57, 84
15, 253889, Note_on_c, 12, 57, 0
15, 253920, Note_on_c, 12, 57, 84
15, 253920, Note_on_c, 12, 60, 84
15, 254009, Note_on_c, 12, 57, 0
15, 254009, Note_on_c, 12, 60, 0
15, 254040, Note_on_c, 12, 53, 84
15, 254040, Note_on_c, 12, 57, 84
15, 254129, Note_on_c, 12, 53, 0
15, 254129, Note_on_c, 12, 57, 0
15, 254160, Note_on_c, 12, 58, 84
15, 254160, Note_on_c, 12, 55, 84
15, 254204, Note_on_c, 12, 58, 0
15, 254204, Note_on_c, 12, 55, 0
15, 254205, Note_on_c, 12, 60, 84
15, 254205, Note_on_c, 12, 57, 84
15, 254249, Note_on_c, 12, 60, 0
15, 254249, Note_on_c, 12, 57, 0
15, 254250, Note_on_c, 12, 58, 84
15, 254250, Note_on_c, 12, 55, 84
15, 254294, Note_on_c, 12, 58, 0
15, 254294, Note_on_c, 12, 55, 0
15, 254295, Note_on_c, 12, 60, 84
15, 254295, Note_on_c, 12, 57, 84
15, 254339, Note_on_c, 12, 60, 0
15, 254339, Note_on_c, 12, 57, 0
15, 254340, Note_on_c, 12, 55, 84
15, 254340, Note_on_c, 12, 58, 84
15, 254384, Note_on_c, 12, 55, 0
15, 254384, Note_on_c, 12, 58, 0
15, 254385, Note_on_c, 12, 60, 84
15, 254385, Note_on_c, 12, 57, 84
15, 254429, Note_on_c, 12, 60, 0
15, 254429, Note_on_c, 12, 57, 0
15, 254430, Note_on_c, 12, 57, 84
15, 254430, Note_on_c, 12, 53, 84
15, 254474, Note_on_c, 12, 57, 0
15, 254474, Note_on_c, 12, 53, 0
15, 254475, Note_on_c, 12, 55, 84
15, 254475, Note_on_c, 12, 58, 84
15, 254519, Note_on_c, 12, 55, 0
15, 254519, Note_on_c, 12, 58, 0
15, 254520, Note_on_c, 12, 57, 84
15, 254520, Note_on_c, 12, 53, 84
15, 254609, Note_on_c, 12, 57, 0
15, 254609, Note_on_c, 12, 53, 0
15, 254640, Note_on_c, 12, 57, 84
15, 254640, Note_on_c, 12, 60, 84
15, 254729, Note_on_c, 12, 57, 0
15, 254729, Note_on_c, 12, 60, 0
15, 254760, Note_on_c, 12, 53, 84
15, 254760, Note_on_c, 12, 57, 84
15, 254849, Note_on_c, 12, 53, 0
15, 254849, Note_on_c, 12, 57, 0
15, 254880, Note_on_c, 12, 58, 84
15, 254924, Note_on_c, 12, 58, 0
15, 254925, Note_on_c, 12, 60, 84
15, 254969, Note_on_c, 12, 60, 0
15, 254970, Note_on_c, 12, 58, 84
15, 255014, Note_on_c, 12, 58, 0
15, 255015, Note_on_c, 12, 60, 84
15, 255059, Note_on_c, 12, 60, 0
15, 255060, Note_on_c, 12, 58, 84
15, 255104, Note_on_c, 12, 58, 0
15, 255105, Note_on_c, 12, 60, 84
15, 255149, Note_on_c, 12, 60, 0
15, 255150, Note_on_c, 12, 57, 84
15, 255194, Note_on_c, 12, 57, 0
15, 255195, Note_on_c, 12, 58, 84
15, 255239, Note_on_c, 12, 58, 0
15, 255240, Note_on_c, 12, 57, 84
15, 255329, Note_on_c, 12, 57, 0
15, 255360, Note_on_c, 12, 60, 84
15, 255360, Note_on_c, 12, 57, 84
15, 255449, Note_on_c, 12, 60, 0
15, 255449, Note_on_c, 12, 57, 0
15, 255480, Note_on_c, 12, 57, 84
15, 255480, Note_on_c, 12, 53, 84
15, 255569, Note_on_c, 12, 57, 0
15, 255569, Note_on_c, 12, 53, 0
15, 255600, Note_on_c, 12, 58, 84
15, 255644, Note_on_c, 12, 58, 0
15, 255645, Note_on_c, 12, 60, 84
15, 255689, Note_on_c, 12, 60, 0
15, 255690, Note_on_c, 12, 58, 84
15, 255734, Note_on_c, 12, 58, 0
15, 255735, Note_on_c, 12, 60, 84
15, 255779, Note_on_c, 12, 60, 0
15, 255780, Note_on_c, 12, 58, 84
15, 255824, Note_on_c, 12, 58, 0
15, 255825, Note_on_c, 12, 60, 84
15, 255869, Note_on_c, 12, 60, 0
15, 255870, Note_on_c, 12, 57, 84
15, 255914, Note_on_c, 12, 57, 0
15, 255915, Note_on_c, 12, 58, 84
15, 255959, Note_on_c, 12, 58, 0
15, 255960, Note_on_c, 12, 57, 84
15, 256049, Note_on_c, 12, 57, 0
15, 256080, Note_on_c, 12, 57, 84
15, 256080, Note_on_c, 12, 60, 84
15, 256169, Note_on_c, 12, 57, 0
15, 256169, Note_on_c, 12, 60, 0
15, 256200, Note_on_c, 12, 57, 84
15, 256200, Note_on_c, 12, 53, 84
15, 256289, Note_on_c, 12, 57, 0
15, 256289, Note_on_c, 12, 53, 0
15, 256320, Note_on_c, 12, 58, 84
15, 256364, Note_on_c, 12, 58, 0
15, 256365, Note_on_c, 12, 60, 84
15, 256409, Note_on_c, 12, 60, 0
15, 256410, Note_on_c, 12, 58, 84
15, 256454, Note_on_c, 12, 58, 0
15, 256455, Note_on_c, 12, 60, 84
15, 256499, Note_on_c, 12, 60, 0
15, 256500, Note_on_c, 12, 58, 84
15, 256544, Note_on_c, 12, 58, 0
15, 256545, Note_on_c, 12, 60, 84
15, 256589, Note_on_c, 12, 60, 0
15, 256590, Note_on_c, 12, 57, 84
15, 256634, Note_on_c, 12, 57, 0
15, 256635, Note_on_c, 12, 58, 84
15, 256679, Note_on_c, 12, 58, 0
15, 256680, Note_on_c, 12, 57, 84
15, 256769, Note_on_c, 12, 57, 0
15, 256800, Note_on_c, 12, 72, 84
15, 256889, Note_on_c, 12, 72, 0
15, 256920, Note_on_c, 12, 69, 84
15, 257009, Note_on_c, 12, 69, 0
15, 257040, Note_on_c, 12, 65, 84
15, 257129, Note_on_c, 12, 65, 0
15, 257160, Note_on_c, 12, 60, 84
15, 257249, Note_on_c, 12, 60, 0
15, 257280, Note_on_c, 12, 57, 84
15, 257369, Note_on_c, 12, 57, 0
15, 257400, Note_on_c, 12, 53, 84
15, 257519, Note_on_c, 12, 53, 0
15, 258000, Note_on_c, 12, 53, 84
15, 258059, Note_on_c, 12, 53, 0
15, 258080, Note_on_c, 12, 53, 84
15, 258119, Note_on_c, 12, 53, 0
15, 258120, Note_on_c, 12, 57, 92
15, 258239, Note_on_c, 12, 57, 0
15, 258240, Note_on_c, 12, 53, 84
15, 258299, Note_on_c, 12, 53, 0
15, 259080, Note_on_c, 12, 53, 84
15, 259151, Note_on_c, 12, 53, 0
15, 259160, Note_on_c, 12, 53, 84
15, 259199, Note_on_c, 12, 53, 0
15, 259200, Note_on_c, 12, 57, 92
15, 259319, Note_on_c, 12, 57, 0
15, 259320, Note_on_c, 12, 53, 84
15, 259379, Note_on_c, 12, 53, 0
15, 259440, Note_on_c, 12, 53, 84
15, 259511, Note_on_c, 12, 53, 0
15, 259520, Note_on_c, 12, 53, 84
15, 259559, Note_on_c, 12, 53, 0
15, 259560, Note_on_c, 12, 57, 92
15, 259679, Note_on_c, 12, 57, 0
15, 259680, Note_on_c, 12, 53, 84
15, 259784, Note_on_c, 12, 53, 0
15, 259800, Note_on_c, 12, 53, 84
15, 259871, Note_on_c, 12, 53, 0
15, 259880, Note_on_c, 12, 53, 84
15, 259919, Note_on_c, 12, 53, 0
15, 259920, Note_on_c, 12, 57, 92
15, 260039, Note_on_c, 12, 57, 0
15, 260040, Note_on_c, 12, 53, 84
15, 260144, Note_on_c, 12, 53, 0
15, 260160, Note_on_c, 12, 53, 84
15, 260231, Note_on_c, 12, 53, 0
15, 260240, Note_on_c, 12, 53, 84
15, 260279, Note_on_c, 12, 53, 0
15, 260280, Note_on_c, 12, 57, 92
15, 260399, Note_on_c, 12, 57, 0
15, 260400, Note_on_c, 12, 53, 84
15, 260504, Note_on_c, 12, 53, 0
15, 260520, Note_on_c, 12, 53, 84
15, 260609, Note_on_c, 12, 53, 0
15, 260640, Note_on_c, 12, 57, 84
15, 260640, Control_c, 12, 11, 127
15, 260680, Control_c, 12, 11, 125
15, 260720, Control_c, 12, 11, 124
15, 260760, Control_c, 12, 11, 122
15, 260800, Control_c, 12, 11, 120
15, 260840, Control_c, 12, 11, 118
15, 260880, Control_c, 12, 11, 117
15, 260920, Control_c, 12, 11, 115
15, 260960, Control_c, 12, 11, 113
15, 260999, Note_on_c, 12, 57, 0
15, 261000, Control_c, 12, 11, 111
15, 261000, Note_on_c, 12, 57, 84
15, 261040, Control_c, 12, 11, 110
15, 261080, Control_c, 12, 11, 108
15, 261120, Control_c, 12, 11, 106
15, 261160, Control_c, 12, 11, 104
15, 261200, Control_c, 12, 11, 103
15, 261240, Control_c, 12, 11, 101
15, 261280, Control_c, 12, 11, 99
15, 261320, Control_c, 12, 11, 97
15, 261359, Note_on_c, 12, 57, 0
15, 261360, Note_on_c, 12, 57, 84
15, 261360, Control_c, 12, 11, 96
15, 261400, Control_c, 12, 11, 94
15, 261440, Control_c, 12, 11, 92
15, 261480, Control_c, 12, 11, 90
15, 261520, Control_c, 12, 11, 89
15, 261560, Control_c, 12, 11, 87
15, 261600, Control_c, 12, 11, 85
15, 261640, Control_c, 12, 11, 83
15, 261680, Control_c, 12, 11, 82
15, 261719, Note_on_c, 12, 57, 0
15, 261720, Control_c, 12, 11, 80
15, 261720, Note_on_c, 12, 57, 84
15, 261760, Control_c, 12, 11, 78
15, 261800, Control_c, 12, 11, 76
15, 261840, Control_c, 12, 11, 75
15, 261880, Control_c, 12, 11, 73
15, 261920, Control_c, 12, 11, 71
15, 261960, Control_c, 12, 11, 69
15, 262000, Control_c, 12, 11, 68
15, 262040, Control_c, 12, 11, 64
15, 262064, Note_on_c, 12, 57, 0
15, 262080, Note_on_c, 12, 50, 84
15, 262319, Note_on_c, 12, 50, 0
15, 262800, Control_c, 12, 11, 127
15, 302400, Control_c, 12, 11, 113
15, 302640, Note_on_c, 12, 57, 84
15, 302651, Control_c, 12, 11, 114
15, 302743, Control_c, 12, 11, 115
15, 302834, Control_c, 12, 11, 116
15, 302926, Control_c, 12, 11, 117
15, 303017, Control_c, 12, 11, 118
15, 303099, Note_on_c, 12, 57, 0
15, 303109, Control_c, 12, 11, 119
15, 303120, Note_on_c, 12, 57, 84
15, 303200, Control_c, 12, 11, 120
15, 303291, Control_c, 12, 11, 121
15, 303383, Control_c, 12, 11, 122
15, 303474, Control_c, 12, 11, 123
15, 303566, Control_c, 12, 11, 124
15, 303579, Note_on_c, 12, 57, 0
15, 303600, Note_on_c, 12, 57, 84
15, 303657, Control_c, 12, 11, 125
15, 303749, Control_c, 12, 11, 127
15, 303819, Note_on_c, 12, 57, 0
15, 303840, Note_on_c, 12, 54, 84
15, 304439, Note_on_c, 12, 54, 0
15, 304440, Note_on_c, 12, 55, 84
15, 304559, Note_on_c, 12, 55, 0
15, 304560, Note_on_c, 12, 54, 84
15, 304799, Note_on_c, 12, 54, 0
15, 305280, Note_on_c, 12, 54, 84
15, 305879, Note_on_c, 12, 54, 0
15, 305880, Note_on_c, 12, 55, 84
15, 305999, Note_on_c, 12, 55, 0
15, 306000, Note_on_c, 12, 54, 84
15, 306239, Note_on_c, 12, 54, 0
15, 306720, Note_on_c, 12, 54, 84
15, 307199, Note_on_c, 12, 54, 0
15, 307200, Note_on_c, 12, 57, 84
15, 307419, Note_on_c, 12, 57, 0
15, 307440, Note_on_c, 12, 62, 84
15, 307679, Note_on_c, 12, 62, 0
15, 307680, Note_on_c, 12, 57, 84
15, 307899, Note_on_c, 12, 57, 0
15, 307920, Note_on_c, 12, 62, 84
15, 308099, Note_on_c, 12, 62, 0
15, 308160, Note_on_c, 12, 57, 84
15, 308399, Note_on_c, 12, 57, 0
15, 309600, Note_on_c, 12, 55, 84
15, 310199, Note_on_c, 12, 55, 0
15, 310200, Note_on_c, 12, 54, 84
15, 310319, Note_on_c, 12, 54, 0
15, 310320, Note_on_c, 12, 55, 84
15, 310559, Note_on_c, 12, 55, 0
15, 311040, Note_on_c, 12, 55, 84
15, 311639, Note_on_c, 12, 55, 0
15, 311640, Note_on_c, 12, 54, 84
15, 311759, Note_on_c, 12, 54, 0
15, 311760, Note_on_c, 12, 55, 84
15, 311999, Note_on_c, 12, 55, 0
15, 312480, Note_on_c, 12, 55, 84
15, 312959, Note_on_c, 12, 55, 0
15, 312960, Note_on_c, 12, 54, 84
15, 313199, Note_on_c, 12, 54, 0
15, 313200, Note_on_c, 12, 52, 84
15, 313439, Note_on_c, 12, 52, 0
15, 313440, Note_on_c, 12, 57, 84
15, 313659, Note_on_c, 12, 57, 0
15, 313680, Note_on_c, 12, 57, 84
15, 313859, Note_on_c, 12, 57, 0
15, 313920, Note_on_c, 12, 50, 84
15, 313920, Note_on_c, 12, 62, 84
15, 314159, Note_on_c, 12, 50, 0
15, 314159, Note_on_c, 12, 62, 0
15, 332640, Control_c, 12, 11, 113
15, 332880, Note_on_c, 12, 57, 84
15, 332891, Control_c, 12, 11, 114
15, 332983, Control_c, 12, 11, 115
15, 333074, Control_c, 12, 11, 116
15, 333166, Control_c, 12, 11, 117
15, 333257, Control_c, 12, 11, 118
15, 333339, Note_on_c, 12, 57, 0
15, 333349, Control_c, 12, 11, 119
15, 333360, Note_on_c, 12, 57, 84
15, 333440, Control_c, 12, 11, 120
15, 333531, Control_c, 12, 11, 121
15, 333623, Control_c, 12, 11, 122
15, 333714, Control_c, 12, 11, 123
15, 333806, Control_c, 12, 11, 124
15, 333819, Note_on_c, 12, 57, 0
15, 333840, Note_on_c, 12, 57, 84
15, 333897, Control_c, 12, 11, 125
15, 333989, Control_c, 12, 11, 127
15, 334059, Note_on_c, 12, 57, 0
15, 334080, Note_on_c, 12, 54, 84
15, 334679, Note_on_c, 12, 54, 0
15, 334680, Note_on_c, 12, 55, 84
15, 334799, Note_on_c, 12, 55, 0
15, 334800, Note_on_c, 12, 54, 84
15, 335039, Note_on_c, 12, 54, 0
15, 335520, Note_on_c, 12, 54, 84
15, 336119, Note_on_c, 12, 54, 0
15, 336120, Note_on_c, 12, 55, 84
15, 336239, Note_on_c, 12, 55, 0
15, 336240, Note_on_c, 12, 54, 84
15, 336479, Note_on_c, 12, 54, 0
15, 336960, Note_on_c, 12, 54, 84
15, 337439, Note_on_c, 12, 54, 0
15, 337440, Note_on_c, 12, 57, 84
15, 337659, Note_on_c, 12, 57, 0
15, 337680, Note_on_c, 12, 62, 84
15, 337919, Note_on_c, 12, 62, 0
15, 337920, Note_on_c, 12, 57, 84
15, 338139, Note_on_c, 12, 57, 0
15, 338160, Note_on_c, 12, 62, 84
15, 338339, Note_on_c, 12, 62, 0
15, 338400, Note_on_c, 12, 57, 84
15, 338639, Note_on_c, 12, 57, 0
15, 339840, Note_on_c, 12, 55, 84
15, 340439, Note_on_c, 12, 55, 0
15, 340440, Note_on_c, 12, 54, 84
15, 340559, Note_on_c, 12, 54, 0
15, 340560, Note_on_c, 12, 55, 84
15, 340799, Note_on_c, 12, 55, 0
15, 341280, Note_on_c, 12, 55, 84
15, 341879, Note_on_c, 12, 55, 0
15, 341880, Note_on_c, 12, 54, 84
15, 341999, Note_on_c, 12, 54, 0
15, 342000, Note_on_c, 12, 55, 84
15, 342239, Note_on_c, 12, 55, 0
15, 342720, Note_on_c, 12, 55, 84
15, 343199, Note_on_c, 12, 55, 0
15, 343200, Note_on_c, 12, 54, 84
15, 343439, Note_on_c, 12, 54, 0
15, 343440, Note_on_c, 12, 52, 84
15, 343679, Note_on_c, 12, 52, 0
15, 343680, Note_on_c, 12, 57, 84
15, 343899, Note_on_c, 12, 57, 0
15, 343920, Note_on_c, 12, 57, 84
15, 344099, Note_on_c, 12, 57, 0
15, 344160, Note_on_c, 12, 50, 84
15, 344160, Note_on_c, 12, 62, 84
15, 344399, Note_on_c, 12, 50, 0
15, 344399, Note_on_c, 12, 62, 0
15, 345600, Note_on_c, 12, 57, 52
15, 346319, Note_on_c, 12, 57, 0
15, 346320, Note_on_c, 12, 57, 52
15, 347039, Note_on_c, 12, 57, 0
15, 347040, Control_c, 12, 11, 127
15, 347040, Note_on_c, 12, 57, 52
15, 347272, Control_c, 12, 11, 126
15, 347505, Control_c, 12, 11, 125
15, 347737, Control_c, 12, 11, 124
15, 347759, Note_on_c, 12, 57, 0
15, 347760, Note_on_c, 12, 57, 52
15, 347969, Control_c, 12, 11, 123
15, 348201, Control_c, 12, 11, 122
15, 348434, Control_c, 12, 11, 121
15, 348479, Note_on_c, 12, 57, 0
15, 348480, Note_on_c, 12, 57, 52
15, 348666, Control_c, 12, 11, 120
15, 348898, Control_c, 12, 11, 119
15, 349130, Control_c, 12, 11, 118
15, 349199, Note_on_c, 12, 57, 0
15, 349200, Note_on_c, 12, 57, 52
15, 349363, Control_c, 12, 11, 117
15, 349595, Control_c, 12, 11, 116
15, 349827, Control_c, 12, 11, 115
15, 349919, Note_on_c, 12, 57, 0
15, 349920, Note_on_c, 12, 57, 52
15, 350059, Control_c, 12, 11, 114
15, 350292, Control_c, 12, 11, 113
15, 350524, Control_c, 12, 11, 112
15, 350639, Note_on_c, 12, 57, 0
15, 350640, Note_on_c, 12, 57, 52
15, 350756, Control_c, 12, 11, 111
15, 350988, Control_c, 12, 11, 110
15, 351221, Control_c, 12, 11, 109
15, 351359, Note_on_c, 12, 57, 0
15, 351360, Note_on_c, 12, 57, 52
15, 351453, Control_c, 12, 11, 108
15, 351685, Control_c, 12, 11, 107
15, 351917, Control_c, 12, 11, 106
15, 352079, Note_on_c, 12, 57, 0
15, 352080, Note_on_c, 12, 57, 52
15, 352150, Control_c, 12, 11, 105
15, 352382, Control_c, 12, 11, 104
15, 352614, Control_c, 12, 11, 103
15, 352799, Note_on_c, 12, 57, 0
15, 352800, Note_on_c, 12, 57, 52
15, 352846, Control_c, 12, 11, 102
15, 353079, Control_c, 12, 11, 101
15, 353311, Control_c, 12, 11, 100
15, 353519, Note_on_c, 12, 57, 0
15, 353520, Note_on_c, 12, 57, 52
15, 353543, Control_c, 12, 11, 99
15, 353775, Control_c, 12, 11, 98
15, 354008, Control_c, 12, 11, 96
15, 354219, Note_on_c, 12, 57, 0
15, 354240, Note_on_c, 12, 58, 52
15, 354959, Note_on_c, 12, 58, 0
15, 354960, Note_on_c, 12, 58, 52
15, 355419, Note_on_c, 12, 58, 0
15, 355438, Control_c, 12, 11, 127
15, 355440, Note_on_c, 12, 53, 76
15, 355511, Note_on_c, 12, 53, 0
15, 355520, Note_on_c, 12, 53, 76
15, 355559, Note_on_c, 12, 53, 0
15, 355560, Note_on_c, 12, 57, 76
15, 355679, Note_on_c, 12, 57, 0
15, 355680, Note_on_c, 12, 53, 76
15, 355739, Note_on_c, 12, 53, 0
15, 355800, Note_on_c, 12, 57, 76
15, 355800, Note_on_c, 12, 53, 76
15, 355871, Note_on_c, 12, 57, 0
15, 355871, Note_on_c, 12, 53, 0
15, 355880, Note_on_c, 12, 53, 76
15, 355880, Note_on_c, 12, 57, 76
15, 355919, Note_on_c, 12, 53, 0
15, 355919, Note_on_c, 12, 57, 0
15, 355920, Note_on_c, 12, 60, 76
15, 355920, Note_on_c, 12, 57, 76
15, 356039, Note_on_c, 12, 60, 0
15, 356039, Note_on_c, 12, 57, 0
15, 356040, Note_on_c, 12, 57, 76
15, 356040, Note_on_c, 12, 53, 76
15, 356099, Note_on_c, 12, 57, 0
15, 356099, Note_on_c, 12, 53, 0
15, 356160, Note_on_c, 12, 57, 76
15, 356160, Note_on_c, 12, 60, 76
15, 356264, Note_on_c, 12, 57, 0
15, 356264, Note_on_c, 12, 60, 0
15, 356280, Note_on_c, 12, 53, 52
15, 356280, Note_on_c, 12, 57, 52
15, 356369, Note_on_c, 12, 53, 0
15, 356369, Note_on_c, 12, 57, 0
15, 356400, Note_on_c, 12, 57, 52
15, 356400, Note_on_c, 12, 53, 52
15, 356489, Note_on_c, 12, 57, 0
15, 356489, Note_on_c, 12, 53, 0
15, 356520, Note_on_c, 12, 60, 52
15, 356520, Note_on_c, 12, 57, 52
15, 356609, Note_on_c, 12, 60, 0
15, 356609, Note_on_c, 12, 57, 0
15, 356640, Note_on_c, 12, 57, 52
15, 356640, Note_on_c, 12, 53, 52
15, 356729, Note_on_c, 12, 57, 0
15, 356729, Note_on_c, 12, 53, 0
15, 356760, Note_on_c, 12, 57, 52
15, 356760, Note_on_c, 12, 53, 52
15, 356849, Note_on_c, 12, 57, 0
15, 356849, Note_on_c, 12, 53, 0
15, 356880, Note_on_c, 12, 60, 52
15, 356880, Note_on_c, 12, 57, 52
15, 356969, Note_on_c, 12, 60, 0
15, 356969, Note_on_c, 12, 57, 0
15, 357000, Note_on_c, 12, 57, 52
15, 357000, Note_on_c, 12, 53, 52
15, 357089, Note_on_c, 12, 57, 0
15, 357089, Note_on_c, 12, 53, 0
15, 357120, Note_on_c, 12, 53, 52
15, 357120, Note_on_c, 12, 57, 52
15, 357209, Note_on_c, 12, 53, 0
15, 357209, Note_on_c, 12, 57, 0
15, 357240, Note_on_c, 12, 60, 52
15, 357240, Note_on_c, 12, 57, 52
15, 357329, Note_on_c, 12, 60, 0
15, 357329, Note_on_c, 12, 57, 0
15, 357360, Note_on_c, 12, 55, 52
15, 357360, Note_on_c, 12, 48, 52
15, 357464, Note_on_c, 12, 55, 0
15, 357464, Note_on_c, 12, 48, 0
15, 357480, Note_on_c, 12, 48, 52
15, 357480, Note_on_c, 12, 55, 52
15, 357584, Note_on_c, 12, 48, 0
15, 357584, Note_on_c, 12, 55, 0
15, 357600, Note_on_c, 12, 48, 52
15, 357600, Note_on_c, 12, 60, 52
15, 357704, Note_on_c, 12, 48, 0
15, 357704, Note_on_c, 12, 60, 0
15, 357720, Note_on_c, 12, 55, 52
15, 357720, Note_on_c, 12, 48, 52
15, 357824, Note_on_c, 12, 55, 0
15, 357824, Note_on_c, 12, 48, 0
15, 357840, Note_on_c, 12, 55, 52
15, 357840, Note_on_c, 12, 48, 52
15, 357944, Note_on_c, 12, 55, 0
15, 357944, Note_on_c, 12, 48, 0
15, 357960, Note_on_c, 12, 60, 52
15, 357960, Note_on_c, 12, 48, 52
15, 358064, Note_on_c, 12, 60, 0
15, 358064, Note_on_c, 12, 48, 0
15, 358080, Note_on_c, 12, 48, 52
15, 358080, Note_on_c, 12, 55, 52
15, 358184, Note_on_c, 12, 48, 0
15, 358184, Note_on_c, 12, 55, 0
15, 358200, Note_on_c, 12, 55, 52
15, 358200, Note_on_c, 12, 48, 52
15, 358304, Note_on_c, 12, 55, 0
15, 358304, Note_on_c, 12, 48, 0
15, 358320, Note_on_c, 12, 48, 52
15, 358320, Note_on_c, 12, 60, 52
15, 358424, Note_on_c, 12, 48, 0
15, 358424, Note_on_c, 12, 60, 0
15, 358440, Note_on_c, 12, 48, 52
15, 358440, Note_on_c, 12, 55, 52
15, 358544, Note_on_c, 12, 48, 0
15, 358544, Note_on_c, 12, 55, 0
15, 358560, Note_on_c, 12, 48, 52
15, 358560, Note_on_c, 12, 55, 52
15, 358664, Note_on_c, 12, 48, 0
15, 358664, Note_on_c, 12, 55, 0
15, 358680, Note_on_c, 12, 48, 52
15, 358680, Note_on_c, 12, 60, 52
15, 358784, Note_on_c, 12, 48, 0
15, 358784, Note_on_c, 12, 60, 0
15, 358800, Note_on_c, 12, 57, 52
15, 358800, Note_on_c, 12, 53, 52
15, 358904, Note_on_c, 12, 57, 0
15, 358904, Note_on_c, 12, 53, 0
15, 358920, Note_on_c, 12, 53, 52
15, 358920, Note_on_c, 12, 57, 52
15, 359024, Note_on_c, 12, 53, 0
15, 359024, Note_on_c, 12, 57, 0
15, 359040, Note_on_c, 12, 60, 52
15, 359040, Note_on_c, 12, 57, 52
15, 359144, Note_on_c, 12, 60, 0
15, 359144, Note_on_c, 12, 57, 0
15, 359160, Note_on_c, 12, 48, 52
15, 359249, Note_on_c, 12, 48, 0
15, 359280, Note_on_c, 12, 60, 52
15, 359369, Note_on_c, 12, 60, 0
15, 359400, Note_on_c, 12, 60, 52
15, 359489, Note_on_c, 12, 60, 0
15, 359520, Note_on_c, 12, 60, 52
15, 359744, Note_on_c, 12, 60, 0
15, 359760, Note_on_c, 12, 60, 52
15, 359864, Note_on_c, 12, 60, 0
15, 359880, Note_on_c, 12, 48, 52
15, 359969, Note_on_c, 12, 48, 0
15, 360000, Note_on_c, 12, 60, 56
15, 360089, Note_on_c, 12, 60, 0
15, 360120, Note_on_c, 12, 60, 60
15, 360209, Note_on_c, 12, 60, 0
15, 360240, Note_on_c, 12, 60, 64
15, 360464, Note_on_c, 12, 60, 0
15, 360480, Note_on_c, 12, 60, 72
15, 360584, Note_on_c, 12, 60, 0
15, 360600, Note_on_c, 12, 62, 84
15, 360839, Note_on_c, 12, 62, 0
15, 360840, Note_on_c, 12, 64, 76
15, 360944, Note_on_c, 12, 64, 0
15, 360960, Note_on_c, 12, 68, 84
15, 361199, Note_on_c, 12, 68, 0
15, 361200, Note_on_c, 12, 69, 76
15, 361304, Note_on_c, 12, 69, 0
15, 361320, Note_on_c, 12, 62, 76
15, 361320, Note_on_c, 12, 59, 76
15, 361424, Note_on_c, 12, 62, 0
15, 361424, Note_on_c, 12, 59, 0
15, 361440, Note_on_c, 12, 62, 76
15, 361440, Note_on_c, 12, 64, 76
15, 361544, Note_on_c, 12, 62, 0
15, 361544, Note_on_c, 12, 64, 0
15, 361560, Note_on_c, 12, 62, 76
15, 361560, Note_on_c, 12, 64, 76
15, 361664, Note_on_c, 12, 62, 0
15, 361664, Note_on_c, 12, 64, 0
15, 361680, Note_on_c, 12, 57, 76
15, 361680, Note_on_c, 12, 61, 76
15, 361784, Note_on_c, 12, 57, 0
15, 361784, Note_on_c, 12, 61, 0
15, 361800, Note_on_c, 12, 64, 76
15, 361800, Note_on_c, 12, 61, 76
15, 361904, Note_on_c, 12, 64, 0
15, 361904, Note_on_c, 12, 61, 0
15, 361920, Note_on_c, 12, 61, 76
15, 361920, Note_on_c, 12, 64, 76
15, 362024, Note_on_c, 12, 61, 0
15, 362024, Note_on_c, 12, 64, 0
15, 362040, Note_on_c, 12, 59, 76
15, 362040, Note_on_c, 12, 56, 76
15, 362144, Note_on_c, 12, 59, 0
15, 362144, Note_on_c, 12, 56, 0
15, 362160, Note_on_c, 12, 64, 76
15, 362160, Note_on_c, 12, 59, 76
15, 362264, Note_on_c, 12, 64, 0
15, 362264, Note_on_c, 12, 59, 0
15, 362280, Note_on_c, 12, 64, 76
15, 362280, Note_on_c, 12, 59, 76
15, 362384, Note_on_c, 12, 64, 0
15, 362384, Note_on_c, 12, 59, 0
15, 362400, Note_on_c, 12, 57, 76
15, 362400, Note_on_c, 12, 61, 76
15, 362504, Note_on_c, 12, 57, 0
15, 362504, Note_on_c, 12, 61, 0
15, 362520, Note_on_c, 12, 64, 76
15, 362520, Note_on_c, 12, 61, 76
15, 362624, Note_on_c, 12, 64, 0
15, 362624, Note_on_c, 12, 61, 0
15, 362640, Note_on_c, 12, 61, 76
15, 362640, Note_on_c, 12, 64, 76
15, 362744, Note_on_c, 12, 61, 0
15, 362744, Note_on_c, 12, 64, 0
15, 362760, Note_on_c, 12, 62, 76
15, 362760, Note_on_c, 12, 59, 76
15, 362864, Note_on_c, 12, 62, 0
15, 362864, Note_on_c, 12, 59, 0
15, 362880, Note_on_c, 12, 62, 76
15, 362880, Note_on_c, 12, 64, 76
15, 362984, Note_on_c, 12, 62, 0
15, 362984, Note_on_c, 12, 64, 0
15, 363000, Note_on_c, 12, 62, 76
15, 363000, Note_on_c, 12, 64, 76
15, 363104, Note_on_c, 12, 62, 0
15, 363104, Note_on_c, 12, 64, 0
15, 363120, Note_on_c, 12, 57, 76
15, 363120, Note_on_c, 12, 61, 76
15, 363209, Note_on_c, 12, 57, 0
15, 363209, Note_on_c, 12, 61, 0
15, 363240, Note_on_c, 12, 76, 76
15, 363329, Note_on_c, 12, 76, 0
15, 363360, Note_on_c, 12, 73, 76
15, 363449, Note_on_c, 12, 73, 0
15, 363480, Note_on_c, 12, 69, 76
15, 363569, Note_on_c, 12, 69, 0
15, 363600, Note_on_c, 12, 64, 76
15, 363689, Note_on_c, 12, 64, 0
15, 363720, Note_on_c, 12, 61, 76
15, 363809, Note_on_c, 12, 61, 0
15, 363840, Note_on_c, 12, 57, 76
15, 363929, Note_on_c, 12, 57, 0
15, 364440, Note_on_c, 12, 57, 76
15, 364511, Note_on_c, 12, 57, 0
15, 364520, Note_on_c, 12, 57, 76
15, 364559, Note_on_c, 12, 57, 0
15, 364560, Note_on_c, 12, 61, 84
15, 364679, Note_on_c, 12, 61, 0
15, 364680, Note_on_c, 12, 57, 76
15, 364739, Note_on_c, 12, 57, 0
15, 368520, Note_on_c, 12, 64, 44
15, 368759, Note_on_c, 12, 64, 0
15, 368760, Note_on_c, 12, 62, 44
15, 368864, Note_on_c, 12, 62, 0
15, 368880, Note_on_c, 12, 64, 44
15, 369119, Note_on_c, 12, 64, 0
15, 369120, Note_on_c, 12, 62, 44
15, 369224, Note_on_c, 12, 62, 0
15, 369240, Note_on_c, 12, 64, 44
15, 369479, Note_on_c, 12, 64, 0
15, 369480, Note_on_c, 12, 62, 44
15, 369584, Note_on_c, 12, 62, 0
15, 369600, Note_on_c, 12, 64, 44
15, 369839, Note_on_c, 12, 64, 0
15, 369840, Note_on_c, 12, 62, 44
15, 369959, Note_on_c, 12, 62, 0
15, 370920, Note_on_c, 12, 62, 84
15, 371024, Note_on_c, 12, 62, 0
15, 371040, Note_on_c, 12, 65, 84
15, 371159, Note_on_c, 12, 65, 0
15, 371160, Note_on_c, 12, 62, 84
15, 371219, Note_on_c, 12, 62, 0
15, 374280, Note_on_c, 12, 67, 44
15, 374519, Note_on_c, 12, 67, 0
15, 374520, Note_on_c, 12, 65, 44
15, 374624, Note_on_c, 12, 65, 0
15, 374640, Note_on_c, 12, 67, 44
15, 374879, Note_on_c, 12, 67, 0
15, 374880, Note_on_c, 12, 65, 44
15, 374984, Note_on_c, 12, 65, 0
15, 375000, Note_on_c, 12, 67, 44
15, 375239, Note_on_c, 12, 67, 0
15, 375240, Note_on_c, 12, 65, 44
15, 375344, Note_on_c, 12, 65, 0
15, 375360, Note_on_c, 12, 67, 44
15, 375599, Note_on_c, 12, 67, 0
15, 375600, Note_on_c, 12, 65, 44
15, 375704, Note_on_c, 12, 65, 0
15, 375720, Note_on_c, 12, 60, 44
15, 376079, Note_on_c, 12, 60, 0
15, 376080, Note_on_c, 12, 60, 44
15, 376439, Note_on_c, 12, 60, 0
15, 376440, Note_on_c, 12, 60, 44
15, 376664, Note_on_c, 12, 60, 0
15, 376680, Note_on_c, 12, 60, 84
15, 376784, Note_on_c, 12, 60, 0
15, 376800, Note_on_c, 12, 63, 84
15, 376919, Note_on_c, 12, 63, 0
15, 376920, Note_on_c, 12, 60, 84
15, 376979, Note_on_c, 12, 60, 0
15, 377040, Note_on_c, 12, 65, 52
15, 377144, Note_on_c, 12, 65, 0
15, 377160, Note_on_c, 12, 67, 52
15, 377249, Note_on_c, 12, 67, 0
15, 377280, Note_on_c, 12, 67, 52
15, 377369, Note_on_c, 12, 67, 0
15, 377400, Note_on_c, 12, 65, 52
15, 377489, Note_on_c, 12, 65, 0
15, 377520, Note_on_c, 12, 63, 52
15, 377759, Note_on_c, 12, 63, 0
15, 377760, Note_on_c, 12, 62, 52
15, 377864, Note_on_c, 12, 62, 0
15, 377880, Note_on_c, 12, 67, 52
15, 377969, Note_on_c, 12, 67, 0
15, 378000, Note_on_c, 12, 67, 52
15, 378089, Note_on_c, 12, 67, 0
15, 378120, Note_on_c, 12, 65, 52
15, 378209, Note_on_c, 12, 65, 0
15, 378240, Note_on_c, 12, 65, 52
15, 378359, Note_on_c, 12, 65, 0
15, 378360, Note_on_c, 12, 62, 52
15, 378419, Note_on_c, 12, 62, 0
15, 378480, Note_on_c, 12, 65, 52
15, 378584, Note_on_c, 12, 65, 0
15, 378600, Note_on_c, 12, 58, 52
15, 378689, Note_on_c, 12, 58, 0
15, 378720, Note_on_c, 12, 62, 52
15, 378809, Note_on_c, 12, 62, 0
15, 378840, Note_on_c, 12, 62, 52
15, 378929, Note_on_c, 12, 62, 0
15, 378960, Note_on_c, 12, 58, 52
15, 379049, Note_on_c, 12, 58, 0
15, 379080, Note_on_c, 12, 62, 52
15, 379169, Note_on_c, 12, 62, 0
15, 379200, Note_on_c, 12, 62, 52
15, 379289, Note_on_c, 12, 62, 0
15, 379320, Note_on_c, 12, 58, 52
15, 379409, Note_on_c, 12, 58, 0
15, 379440, Note_on_c, 12, 62, 52
15, 379529, Note_on_c, 12, 62, 0
15, 379560, Note_on_c, 12, 62, 52
15, 379649, Note_on_c, 12, 62, 0
15, 379680, Note_on_c, 12, 58, 52
15, 379769, Note_on_c, 12, 58, 0
15, 379800, Note_on_c, 12, 62, 52
15, 379889, Note_on_c, 12, 62, 0
15, 379920, Note_on_c, 12, 62, 52
15, 380009, Note_on_c, 12, 62, 0
15, 380040, Note_on_c, 12, 53, 52
15, 380129, Note_on_c, 12, 53, 0
15, 380160, Note_on_c, 12, 53, 52
15, 380249, Note_on_c, 12, 53, 0
15, 380280, Note_on_c, 12, 60, 52
15, 380369, Note_on_c, 12, 60, 0
15, 380400, Note_on_c, 12, 53, 52
15, 380489, Note_on_c, 12, 53, 0
15, 380520, Note_on_c, 12, 53, 52
15, 380609, Note_on_c, 12, 53, 0
15, 380640, Note_on_c, 12, 60, 52
15, 380729, Note_on_c, 12, 60, 0
15, 380760, Note_on_c, 12, 53, 52
15, 380849, Note_on_c, 12, 53, 0
15, 380880, Note_on_c, 12, 53, 52
15, 380969, Note_on_c, 12, 53, 0
15, 381000, Note_on_c, 12, 60, 52
15, 381089, Note_on_c, 12, 60, 0
15, 381120, Note_on_c, 12, 53, 52
15, 381209, Note_on_c, 12, 53, 0
15, 381240, Note_on_c, 12, 53, 52
15, 381329, Note_on_c, 12, 53, 0
15, 381360, Note_on_c, 12, 60, 52
15, 381449, Note_on_c, 12, 60, 0
15, 381480, Note_on_c, 12, 53, 52
15, 381569, Note_on_c, 12, 53, 0
15, 381600, Note_on_c, 12, 53, 52
15, 381689, Note_on_c, 12, 53, 0
15, 381720, Note_on_c, 12, 53, 52
15, 381809, Note_on_c, 12, 53, 0
15, 381840, Note_on_c, 12, 53, 52
15, 381840, Note_on_c, 12, 50, 52
15, 381929, Note_on_c, 12, 53, 0
15, 381929, Note_on_c, 12, 50, 0
15, 381960, Note_on_c, 12, 50, 52
15, 381960, Note_on_c, 12, 53, 52
15, 382049, Note_on_c, 12, 50, 0
15, 382049, Note_on_c, 12, 53, 0
15, 382080, Note_on_c, 12, 53, 53
15, 382080, Note_on_c, 12, 58, 53
15, 382169, Note_on_c, 12, 53, 0
15, 382169, Note_on_c, 12, 58, 0
15, 382200, Note_on_c, 12, 53, 53
15, 382200, Note_on_c, 12, 50, 53
15, 382289, Note_on_c, 12, 53, 0
15, 382289, Note_on_c, 12, 50, 0
15, 382320, Note_on_c, 12, 50, 54
15, 382320, Note_on_c, 12, 53, 54
15, 382409, Note_on_c, 12, 50, 0
15, 382409, Note_on_c, 12, 53, 0
15, 382440, Note_on_c, 12, 53, 54
15, 382440, Note_on_c, 12, 58, 54
15, 382529, Note_on_c, 12, 53, 0
15, 382529, Note_on_c, 12, 58, 0
15, 382560, Note_on_c, 12, 50, 55
15, 382560, Note_on_c, 12, 53, 55
15, 382649, Note_on_c, 12, 50, 0
15, 382649, Note_on_c, 12, 53, 0
15, 382680, Note_on_c, 12, 53, 55
15, 382680, Note_on_c, 12, 50, 55
15, 382769, Note_on_c, 12, 53, 0
15, 382769, Note_on_c, 12, 50, 0
15, 382800, Note_on_c, 12, 58, 56
15, 382800, Note_on_c, 12, 53, 56
15, 382889, Note_on_c, 12, 58, 0
15, 382889, Note_on_c, 12, 53, 0
15, 382920, Note_on_c, 12, 53, 56
15, 382920, Note_on_c, 12, 60, 56
15, 383009, Note_on_c, 12, 53, 0
15, 383009, Note_on_c, 12, 60, 0
15, 383040, Note_on_c, 12, 60, 57
15, 383040, Note_on_c, 12, 53, 57
15, 383129, Note_on_c, 12, 60, 0
15, 383129, Note_on_c, 12, 53, 0
15, 383160, Note_on_c, 12, 60, 58
15, 383160, Note_on_c, 12, 53, 58
15, 383249, Note_on_c, 12, 60, 0
15, 383249, Note_on_c, 12, 53, 0
15, 383280, Note_on_c, 12, 57, 58
15, 383280, Note_on_c, 12, 53, 58
15, 383369, Note_on_c, 12, 57, 0
15, 383369, Note_on_c, 12, 53, 0
15, 383400, Note_on_c, 12, 57, 59
15, 383400, Note_on_c, 12, 53, 59
15, 383489, Note_on_c, 12, 57, 0
15, 383489, Note_on_c, 12, 53, 0
15, 383520, Note_on_c, 12, 60, 59
15, 383520, Note_on_c, 12, 57, 59
15, 383609, Note_on_c, 12, 60, 0
15, 383609, Note_on_c, 12, 57, 0
15, 383640, Note_on_c, 12, 53, 60
15, 383640, Note_on_c, 12, 57, 60
15, 383729, Note_on_c, 12, 53, 0
15, 383729, Note_on_c, 12, 57, 0
15, 383760, Note_on_c, 12, 57, 60
15, 383760, Note_on_c, 12, 53, 60
15, 383849, Note_on_c, 12, 57, 0
15, 383849, Note_on_c, 12, 53, 0
15, 383880, Note_on_c, 12, 57, 61
15, 383880, Note_on_c, 12, 60, 61
15, 383969, Note_on_c, 12, 57, 0
15, 383969, Note_on_c, 12, 60, 0
15, 384000, Note_on_c, 12, 57, 61
15, 384000, Note_on_c, 12, 53, 61
15, 384089, Note_on_c, 12, 57, 0
15, 384089, Note_on_c, 12, 53, 0
15, 384120, Note_on_c, 12, 53, 62
15, 384120, Note_on_c, 12, 57, 62
15, 384209, Note_on_c, 12, 53, 0
15, 384209, Note_on_c, 12, 57, 0
15, 384240, Note_on_c, 12, 57, 62
15, 384240, Note_on_c, 12, 60, 62
15, 384329, Note_on_c, 12, 57, 0
15, 384329, Note_on_c, 12, 60, 0
15, 384360, Note_on_c, 12, 53, 63
15, 384360, Note_on_c, 12, 58, 63
15, 384449, Note_on_c, 12, 53, 0
15, 384449, Note_on_c, 12, 58, 0
15, 384480, Note_on_c, 12, 58, 64
15, 384480, Note_on_c, 12, 53, 64
15, 384569, Note_on_c, 12, 58, 0
15, 384569, Note_on_c, 12, 53, 0
15, 384600, Note_on_c, 12, 62, 64
15, 384600, Note_on_c, 12, 58, 64
15, 384689, Note_on_c, 12, 62, 0
15, 384689, Note_on_c, 12, 58, 0
15, 385080, Note_on_c, 12, 65, 66
15, 385169, Note_on_c, 12, 65, 0
15, 385200, Note_on_c, 12, 65, 67
15, 385289, Note_on_c, 12, 65, 0
15, 385320, Note_on_c, 12, 64, 67
15, 385409, Note_on_c, 12, 64, 0
15, 385440, Note_on_c, 12, 62, 68
15, 385529, Note_on_c, 12, 62, 0
15, 385560, Note_on_c, 12, 62, 68
15, 385649, Note_on_c, 12, 62, 0
15, 385680, Note_on_c, 12, 60, 69
15, 385769, Note_on_c, 12, 60, 0
15, 385800, Note_on_c, 12, 58, 70
15, 385889, Note_on_c, 12, 58, 0
15, 385920, Note_on_c, 12, 58, 70
15, 386009, Note_on_c, 12, 58, 0
15, 386040, Note_on_c, 12, 57, 71
15, 386129, Note_on_c, 12, 57, 0
15, 386160, Note_on_c, 12, 55, 71
15, 386249, Note_on_c, 12, 55, 0
15, 386280, Note_on_c, 12, 55, 72
15, 386369, Note_on_c, 12, 55, 0
15, 386400, Note_on_c, 12, 53, 72
15, 386489, Note_on_c, 12, 53, 0
15, 386520, Note_on_c, 12, 52, 73
15, 386609, Note_on_c, 12, 52, 0
15, 386640, Note_on_c, 12, 52, 73
15, 386729, Note_on_c, 12, 52, 0
15, 386760, Note_on_c, 12, 50, 74
15, 386849, Note_on_c, 12, 50, 0
15, 386880, Note_on_c, 12, 48, 74
15, 386969, Note_on_c, 12, 48, 0
15, 387000, Note_on_c, 12, 58, 75
15, 387089, Note_on_c, 12, 58, 0
15, 387120, Note_on_c, 12, 57, 76
15, 387209, Note_on_c, 12, 57, 0
15, 387240, Note_on_c, 12, 57, 76
15, 387359, Note_on_c, 12, 57, 0
15, 387360, Note_on_c, 12, 53, 76
15, 387419, Note_on_c, 12, 53, 0
15, 387480, Note_on_c, 12, 57, 76
15, 387539, Note_on_c, 12, 57, 0
15, 387560, Note_on_c, 12, 57, 76
15, 387599, Note_on_c, 12, 57, 0
15, 387600, Note_on_c, 12, 60, 76
15, 387600, Note_on_c, 12, 57, 76
15, 387719, Note_on_c, 12, 60, 0
15, 387719, Note_on_c, 12, 57, 0
15, 387720, Note_on_c, 12, 57, 76
15, 387720, Note_on_c, 12, 53, 76
15, 387779, Note_on_c, 12, 57, 0
15, 387779, Note_on_c, 12, 53, 0
15, 387840, Note_on_c, 12, 60, 76
15, 387840, Note_on_c, 12, 57, 76
15, 387944, Note_on_c, 12, 60, 0
15, 387944, Note_on_c, 12, 57, 0
15, 387960, Note_on_c, 12, 53, 84
15, 388319, Note_on_c, 12, 53, 0
15, 388320, Note_on_c, 12, 53, 84
15, 388679, Note_on_c, 12, 53, 0
15, 388680, Note_on_c, 12, 53, 84
15, 389159, Note_on_c, 12, 53, 0
15, 389160, Note_on_c, 12, 52, 84
15, 389264, Note_on_c, 12, 52, 0
15, 389280, Note_on_c, 12, 52, 84
15, 389369, Note_on_c, 12, 52, 0
15, 389400, Note_on_c, 12, 52, 84
15, 389759, Note_on_c, 12, 52, 0
15, 389760, Note_on_c, 12, 52, 84
15, 390119, Note_on_c, 12, 52, 0
15, 390120, Note_on_c, 12, 52, 84
15, 390599, Note_on_c, 12, 52, 0
15, 390600, Note_on_c, 12, 53, 84
15, 390704, Note_on_c, 12, 53, 0
15, 390720, Note_on_c, 12, 53, 84
15, 390809, Note_on_c, 12, 53, 0
15, 390840, Note_on_c, 12, 65, 52
15, 390840, Note_on_c, 12, 57, 52
15, 391199, Note_on_c, 12, 65, 0
15, 391199, Note_on_c, 12, 57, 0
15, 391200, Note_on_c, 12, 57, 52
15, 391200, Note_on_c, 12, 65, 52
15, 391559, Note_on_c, 12, 57, 0
15, 391559, Note_on_c, 12, 65, 0
15, 391560, Note_on_c, 12, 65, 52
15, 391560, Note_on_c, 12, 57, 52
15, 392039, Note_on_c, 12, 65, 0
15, 392039, Note_on_c, 12, 57, 0
15, 392040, Note_on_c, 12, 67, 52
15, 392040, Note_on_c, 12, 60, 52
15, 392144, Note_on_c, 12, 67, 0
15, 392144, Note_on_c, 12, 60, 0
15, 392160, Note_on_c, 12, 60, 52
15, 392160, Note_on_c, 12, 67, 52
15, 392249, Note_on_c, 12, 60, 0
15, 392249, Note_on_c, 12, 67, 0
15, 392280, Note_on_c, 12, 67, 52
15, 392280, Note_on_c, 12, 60, 52
15, 392639, Note_on_c, 12, 67, 0
15, 392639, Note_on_c, 12, 60, 0
15, 392640, Note_on_c, 12, 60, 52
15, 392640, Note_on_c, 12, 67, 52
15, 392999, Note_on_c, 12, 60, 0
15, 392999, Note_on_c, 12, 67, 0
15, 393000, Note_on_c, 12, 67, 52
15, 393000, Note_on_c, 12, 60, 52
15, 393479, Note_on_c, 12, 67, 0
15, 393479, Note_on_c, 12, 60, 0
15, 393480, Note_on_c, 12, 69, 52
15, 393480, Note_on_c, 12, 65, 52
15, 393584, Note_on_c, 12, 69, 0
15, 393584, Note_on_c, 12, 65, 0
15, 393600, Note_on_c, 12, 65, 52
15, 393600, Note_on_c, 12, 69, 52
15, 393689, Note_on_c, 12, 65, 0
15, 393689, Note_on_c, 12, 69, 0
15, 393720, Note_on_c, 12, 60, 52
15, 393809, Note_on_c, 12, 60, 0
15, 393840, Note_on_c, 12, 60, 52
15, 393929, Note_on_c, 12, 60, 0
15, 393960, Note_on_c, 12, 60, 52
15, 394049, Note_on_c, 12, 60, 0
15, 394080, Note_on_c, 12, 60, 52
15, 394304, Note_on_c, 12, 60, 0
15, 394320, Note_on_c, 12, 60, 52
15, 394439, Note_on_c, 12, 60, 0
15, 395040, Control_c, 12, 11, 80
15, 395160, Note_on_c, 12, 60, 76
15, 395200, Control_c, 12, 11, 83
15, 395240, Control_c, 12, 11, 85
15, 395249, Note_on_c, 12, 60, 0
15, 395280, Control_c, 12, 11, 88
15, 395280, Note_on_c, 12, 60, 76
15, 395320, Control_c, 12, 11, 90
15, 395360, Control_c, 12, 11, 93
15, 395369, Note_on_c, 12, 60, 0
15, 395400, Note_on_c, 12, 60, 76
15, 395400, Control_c, 12, 11, 96
15, 395440, Control_c, 12, 11, 98
15, 395480, Control_c, 12, 11, 101
15, 395489, Note_on_c, 12, 60, 0
15, 395520, Control_c, 12, 11, 104
15, 395520, Note_on_c, 12, 60, 76
15, 395560, Control_c, 12, 11, 106
15, 395600, Control_c, 12, 11, 109
15, 395640, Control_c, 12, 11, 111
15, 395680, Control_c, 12, 11, 114
15, 395720, Control_c, 12, 11, 117
15, 395744, Note_on_c, 12, 60, 0
15, 395760, Note_on_c, 12, 60, 76
15, 395760, Control_c, 12, 11, 119
15, 395800, Control_c, 12, 11, 122
15, 395840, Control_c, 12, 11, 127
15, 395864, Note_on_c, 12, 60, 0
15, 395880, Note_on_c, 12, 58, 76
15, 396119, Note_on_c, 12, 58, 0
15, 396120, Note_on_c, 12, 65, 76
15, 396224, Note_on_c, 12, 65, 0
15, 396240, Note_on_c, 12, 53, 84
15, 396479, Note_on_c, 12, 53, 0
15, 396480, Note_on_c, 12, 60, 76
15, 396584, Note_on_c, 12, 60, 0
15, 396600, Note_on_c, 12, 60, 84
15, 396839, Note_on_c, 12, 60, 0
15, 396840, Note_on_c, 12, 67, 76
15, 396944, Note_on_c, 12, 67, 0
15, 396960, Note_on_c, 12, 67, 84
15, 397184, Note_on_c, 12, 67, 0
15, 397200, Note_on_c, 12, 67, 76
15, 397304, Note_on_c, 12, 67, 0
15, 397320, Note_on_c, 12, 62, 52
15, 397424, Note_on_c, 12, 62, 0
15, 397440, Note_on_c, 12, 62, 52
15, 397544, Note_on_c, 12, 62, 0
15, 397560, Note_on_c, 12, 65, 52
15, 397664, Note_on_c, 12, 65, 0
15, 397680, Note_on_c, 12, 60, 52
15, 397784, Note_on_c, 12, 60, 0
15, 397800, Note_on_c, 12, 60, 52
15, 397904, Note_on_c, 12, 60, 0
15, 397920, Note_on_c, 12, 64, 52
15, 398024, Note_on_c, 12, 64, 0
15, 398040, Note_on_c, 12, 59, 52
15, 398144, Note_on_c, 12, 59, 0
15, 398160, Note_on_c, 12, 59, 52
15, 398264, Note_on_c, 12, 59, 0
15, 398280, Note_on_c, 12, 62, 52
15, 398384, Note_on_c, 12, 62, 0
15, 398400, Note_on_c, 12, 60, 52
15, 398504, Note_on_c, 12, 60, 0
15, 398520, Note_on_c, 12, 60, 52
15, 398624, Note_on_c, 12, 60, 0
15, 398640, Note_on_c, 12, 64, 52
15, 398744, Note_on_c, 12, 64, 0
15, 398760, Note_on_c, 12, 62, 52
15, 398864, Note_on_c, 12, 62, 0
15, 398880, Note_on_c, 12, 62, 54
15, 398984, Note_on_c, 12, 62, 0
15, 399000, Note_on_c, 12, 65, 57
15, 399104, Note_on_c, 12, 65, 0
15, 399120, Note_on_c, 12, 60, 60
15, 399224, Note_on_c, 12, 60, 0
15, 399240, Note_on_c, 12, 64, 62
15, 399344, Note_on_c, 12, 64, 0
15, 399360, Note_on_c, 12, 64, 65
15, 399464, Note_on_c, 12, 64, 0
15, 399480, Note_on_c, 12, 62, 68
15, 399584, Note_on_c, 12, 62, 0
15, 399600, Note_on_c, 12, 62, 70
15, 399704, Note_on_c, 12, 62, 0
15, 399720, Note_on_c, 12, 65, 73
15, 399824, Note_on_c, 12, 65, 0
15, 399840, Note_on_c, 12, 60, 76
15, 399944, Note_on_c, 12, 60, 0
15, 399960, Note_on_c, 12, 60, 78
15, 400064, Note_on_c, 12, 60, 0
15, 400080, Note_on_c, 12, 64, 81
15, 400184, Note_on_c, 12, 64, 0
15, 400200, Note_on_c, 12, 58, 84
15, 400244, Note_on_c, 12, 58, 0
15, 400245, Note_on_c, 12, 60, 84
15, 400289, Note_on_c, 12, 60, 0
15, 400290, Note_on_c, 12, 58, 84
15, 400334, Note_on_c, 12, 58, 0
15, 400335, Note_on_c, 12, 60, 84
15, 400379, Note_on_c, 12, 60, 0
15, 400380, Note_on_c, 12, 58, 84
15, 400424, Note_on_c, 12, 58, 0
15, 400425, Note_on_c, 12, 60, 84
15, 400469, Note_on_c, 12, 60, 0
15, 400470, Note_on_c, 12, 57, 84
15, 400514, Note_on_c, 12, 57, 0
15, 400515, Note_on_c, 12, 58, 84
15, 400559, Note_on_c, 12, 58, 0
15, 400560, Note_on_c, 12, 57, 84
15, 400649, Note_on_c, 12, 57, 0
15, 400680, Note_on_c, 12, 60, 84
15, 400680, Note_on_c, 12, 57, 84
15, 400769, Note_on_c, 12, 60, 0
15, 400769, Note_on_c, 12, 57, 0
15, 400800, Note_on_c, 12, 57, 84
15, 400800, Note_on_c, 12, 53, 84
15, 400889, Note_on_c, 12, 57, 0
15, 400889, Note_on_c, 12, 53, 0
15, 400920, Note_on_c, 12, 55, 84
15, 400920, Note_on_c, 12, 58, 84
15, 400964, Note_on_c, 12, 55, 0
15, 400964, Note_on_c, 12, 58, 0
15, 400965, Note_on_c, 12, 60, 84
15, 400965, Note_on_c, 12, 57, 84
15, 401009, Note_on_c, 12, 60, 0
15, 401009, Note_on_c, 12, 57, 0
15, 401010, Note_on_c, 12, 58, 84
15, 401010, Note_on_c, 12, 55, 84
15, 401054, Note_on_c, 12, 58, 0
15, 401054, Note_on_c, 12, 55, 0
15, 401055, Note_on_c, 12, 57, 84
15, 401055, Note_on_c, 12, 60, 84
15, 401099, Note_on_c, 12, 57, 0
15, 401099, Note_on_c, 12, 60, 0
15, 401100, Note_on_c, 12, 58, 84
15, 401100, Note_on_c, 12, 55, 84
15, 401144, Note_on_c, 12, 58, 0
15, 401144, Note_on_c, 12, 55, 0
15, 401145, Note_on_c, 12, 57, 84
15, 401145, Note_on_c, 12, 60, 84
15, 401189, Note_on_c, 12, 57, 0
15, 401189, Note_on_c, 12, 60, 0
15, 401190, Note_on_c, 12, 57, 84
15, 401190, Note_on_c, 12, 53, 84
15, 401234, Note_on_c, 12, 57, 0
15, 401234, Note_on_c, 12, 53, 0
15, 401235, Note_on_c, 12, 58, 84
15, 401235, Note_on_c, 12, 55, 84
15, 401279, Note_on_c, 12, 58, 0
15, 401279, Note_on_c, 12, 55, 0
15, 401280, Note_on_c, 12, 53, 84
15, 401280, Note_on_c, 12, 57, 84
15, 401369, Note_on_c, 12, 53, 0
15, 401369, Note_on_c, 12, 57, 0
15, 401400, Note_on_c, 12, 57, 84
15, 401400, Note_on_c, 12, 60, 84
15, 401489, Note_on_c, 12, 57, 0
15, 401489, Note_on_c, 12, 60, 0
15, 401520, Note_on_c, 12, 53, 84
15, 401520, Note_on_c, 12, 57, 84
15, 401609, Note_on_c, 12, 53, 0
15, 401609, Note_on_c, 12, 57, 0
15, 401640, Note_on_c, 12, 58, 84
15, 401684, Note_on_c, 12, 58, 0
15, 401685, Note_on_c, 12, 60, 84
15, 401729, Note_on_c, 12, 60, 0
15, 401730, Note_on_c, 12, 58, 84
15, 401774, Note_on_c, 12, 58, 0
15, 401775, Note_on_c, 12, 60, 84
15, 401819, Note_on_c, 12, 60, 0
15, 401820, Note_on_c, 12, 58, 84
15, 401864, Note_on_c, 12, 58, 0
15, 401865, Note_on_c, 12, 60, 84
15, 401909, Note_on_c, 12, 60, 0
15, 401910, Note_on_c, 12, 57, 84
15, 401954, Note_on_c, 12, 57, 0
15, 401955, Note_on_c, 12, 58, 84
15, 401999, Note_on_c, 12, 58, 0
15, 402000, Note_on_c, 12, 57, 84
15, 402089, Note_on_c, 12, 57, 0
15, 402120, Note_on_c, 12, 57, 84
15, 402120, Note_on_c, 12, 60, 84
15, 402209, Note_on_c, 12, 57, 0
15, 402209, Note_on_c, 12, 60, 0
15, 402240, Note_on_c, 12, 57, 84
15, 402240, Note_on_c, 12, 53, 84
15, 402329, Note_on_c, 12, 57, 0
15, 402329, Note_on_c, 12, 53, 0
15, 402360, Note_on_c, 12, 58, 84
15, 402404, Note_on_c, 12, 58, 0
15, 402405, Note_on_c, 12, 60, 84
15, 402449, Note_on_c, 12, 60, 0
15, 402450, Note_on_c, 12, 58, 84
15, 402494, Note_on_c, 12, 58, 0
15, 402495, Note_on_c, 12, 60, 84
15, 402539, Note_on_c, 12, 60, 0
15, 402540, Note_on_c, 12, 58, 84
15, 402584, Note_on_c, 12, 58, 0
15, 402585, Note_on_c, 12, 60, 84
15, 402629, Note_on_c, 12, 60, 0
15, 402630, Note_on_c, 12, 57, 84
15, 402674, Note_on_c, 12, 57, 0
15, 402675, Note_on_c, 12, 58, 84
15, 402719, Note_on_c, 12, 58, 0
15, 402720, Note_on_c, 12, 57, 84
15, 402809, Note_on_c, 12, 57, 0
15, 402840, Note_on_c, 12, 57, 84
15, 402840, Note_on_c, 12, 60, 84
15, 402929, Note_on_c, 12, 57, 0
15, 402929, Note_on_c, 12, 60, 0
15, 402960, Note_on_c, 12, 57, 84
15, 402960, Note_on_c, 12, 53, 84
15, 403049, Note_on_c, 12, 57, 0
15, 403049, Note_on_c, 12, 53, 0
15, 403080, Note_on_c, 12, 58, 84
15, 403124, Note_on_c, 12, 58, 0
15, 403125, Note_on_c, 12, 60, 84
15, 403169, Note_on_c, 12, 60, 0
15, 403170, Note_on_c, 12, 58, 84
15, 403214, Note_on_c, 12, 58, 0
15, 403215, Note_on_c, 12, 60, 84
15, 403259, Note_on_c, 12, 60, 0
15, 403260, Note_on_c, 12, 58, 84
15, 403304, Note_on_c, 12, 58, 0
15, 403305, Note_on_c, 12, 60, 84
15, 403349, Note_on_c, 12, 60, 0
15, 403350, Note_on_c, 12, 57, 84
15, 403394, Note_on_c, 12, 57, 0
15, 403395, Note_on_c, 12, 58, 84
15, 403439, Note_on_c, 12, 58, 0
15, 403440, Note_on_c, 12, 57, 84
15, 403529, Note_on_c, 12, 57, 0
15, 403560, Note_on_c, 12, 72, 84
15, 403649, Note_on_c, 12, 72, 0
15, 403680, Note_on_c, 12, 69, 84
15, 403769, Note_on_c, 12, 69, 0
15, 403800, Note_on_c, 12, 65, 84
15, 403889, Note_on_c, 12, 65, 0
15, 403920, Note_on_c, 12, 60, 84
15, 404009, Note_on_c, 12, 60, 0
15, 404040, Note_on_c, 12, 57, 84
15, 404129, Note_on_c, 12, 57, 0
15, 404160, Note_on_c, 12, 53, 84
15, 404279, Note_on_c, 12, 53, 0
15, 404760, Note_on_c, 12, 53, 84
15, 404819, Note_on_c, 12, 53, 0
15, 404840, Note_on_c, 12, 53, 84
15, 404879, Note_on_c, 12, 53, 0
15, 404880, Note_on_c, 12, 57, 92
15, 404999, Note_on_c, 12, 57, 0
15, 405000, Note_on_c, 12, 53, 84
15, 405059, Note_on_c, 12, 53, 0
15, 405840, Note_on_c, 12, 53, 84
15, 405911, Note_on_c, 12, 53, 0
15, 405920, Note_on_c, 12, 53, 84
15, 405959, Note_on_c, 12, 53, 0
15, 405960, Note_on_c, 12, 57, 92
15, 406079, Note_on_c, 12, 57, 0
15, 406080, Note_on_c, 12, 53, 84
15, 406139, Note_on_c, 12, 53, 0
15, 406200, Note_on_c, 12, 53, 84
15, 406271, Note_on_c, 12, 53, 0
15, 406280, Note_on_c, 12, 53, 84
15, 406319, Note_on_c, 12, 53, 0
15, 406320, Note_on_c, 12, 57, 92
15, 406439, Note_on_c, 12, 57, 0
15, 406440, Note_on_c, 12, 53, 84
15, 406544, Note_on_c, 12, 53, 0
15, 406560, Note_on_c, 12, 53, 84
15, 406631, Note_on_c, 12, 53, 0
15, 406640, Note_on_c, 12, 53, 84
15, 406679, Note_on_c, 12, 53, 0
15, 406680, Note_on_c, 12, 57, 92
15, 406799, Note_on_c, 12, 57, 0
15, 406800, Note_on_c, 12, 53, 84
15, 406904, Note_on_c, 12, 53, 0
15, 406920, Note_on_c, 12, 53, 84
15, 406991, Note_on_c, 12, 53, 0
15, 407000, Note_on_c, 12, 53, 84
15, 407039, Note_on_c, 12, 53, 0
15, 407040, Note_on_c, 12, 57, 92
15, 407159, Note_on_c, 12, 57, 0
15, 407160, Note_on_c, 12, 53, 84
15, 407264, Note_on_c, 12, 53, 0
15, 407280, Note_on_c, 12, 53, 84
15, 407369, Note_on_c, 12, 53, 0
15, 407400, Note_on_c, 12, 57, 84
15, 407400, Control_c, 12, 11, 127
15, 407440, Control_c, 12, 11, 125
15, 407480, Control_c, 12, 11, 124
15, 407520, Control_c, 12, 11, 122
15, 407560, Control_c, 12, 11, 120
15, 407600, Control_c, 12, 11, 118
15, 407640, Control_c, 12, 11, 117
15, 407680, Control_c, 12, 11, 115
15, 407720, Control_c, 12, 11, 113
15, 407759, Note_on_c, 12, 57, 0
15, 407760, Control_c, 12, 11, 111
15, 407760, Note_on_c, 12, 57, 84
15, 407800, Control_c, 12, 11, 110
15, 407840, Control_c, 12, 11, 108
15, 407880, Control_c, 12, 11, 106
15, 407920, Control_c, 12, 11, 104
15, 407960, Control_c, 12, 11, 103
15, 408000, Control_c, 12, 11, 101
15, 408040, Control_c, 12, 11, 99
15, 408080, Control_c, 12, 11, 97
15, 408119, Note_on_c, 12, 57, 0
15, 408120, Note_on_c, 12, 57, 84
15, 408120, Control_c, 12, 11, 96
15, 408160, Control_c, 12, 11, 94
15, 408200, Control_c, 12, 11, 92
15, 408240, Control_c, 12, 11, 90
15, 408280, Control_c, 12, 11, 89
15, 408320, Control_c, 12, 11, 87
15, 408360, Control_c, 12, 11, 85
15, 408400, Control_c, 12, 11, 83
15, 408440, Control_c, 12, 11, 82
15, 408479, Note_on_c, 12, 57, 0
15, 408480, Control_c, 12, 11, 80
15, 408480, Note_on_c, 12, 57, 84
15, 408520, Control_c, 12, 11, 78
15, 408560, Control_c, 12, 11, 76
15, 408600, Control_c, 12, 11, 75
15, 408640, Control_c, 12, 11, 73
15, 408680, Control_c, 12, 11, 71
15, 408720, Control_c, 12, 11, 69
15, 408760, Control_c, 12, 11, 68
15, 408800, Control_c, 12, 11, 64
15, 408839, Note_on_c, 12, 57, 0
15, 408840, Note_on_c, 12, 57, 84
15, 409559, Note_on_c, 12, 57, 0
15, 409560, Note_on_c, 12, 57, 84
15, 410279, Note_on_c, 12, 57, 0
15, 410280, Note_on_c, 12, 57, 84
15, 410999, Note_on_c, 12, 57, 0
15, 411000, Note_on_c, 12, 57, 84
15, 411699, Note_on_c, 12, 57, 0
15, 411718, Control_c, 12, 11, 127
15, 411720, Note_on_c, 12, 58, 84
15, 411839, Note_on_c, 12, 58, 0
15, 412080, Note_on_c, 12, 59, 84
15, 412199, Note_on_c, 12, 59, 0
15, 412440, Note_on_c, 12, 60, 84
15, 412559, Note_on_c, 12, 60, 0
15, 412800, Note_on_c, 12, 64, 84
15, 412800, Note_on_c, 12, 55, 84
15, 412800, Note_on_c, 12, 48, 84
15, 412919, Note_on_c, 12, 64, 0
15, 412919, Note_on_c, 12, 55, 0
15, 412919, Note_on_c, 12, 48, 0
15, 413160, Note_on_c, 12, 65, 84
15, 413160, Note_on_c, 12, 57, 84
15, 413160, Note_on_c, 12, 48, 84
15, 413279, Note_on_c, 12, 65, 0
15, 413279, Note_on_c, 12, 57, 0
15, 413279, Note_on_c, 12, 48, 0
15, 413279, End_track
16, 0, Start_track
16, 0, Title_t, "Cello"
16, 0, MIDI_port, 0
16, 0, Control_c, 14, 7, 96
16, 0, Control_c, 14, 10, 94
16, 0, Program_c, 14, 48
16, 0, Control_c, 14, 11, 127
16, 0, Note_on_c, 14, 41, 76
16, 104, Note_on_c, 14, 41, 0
16, 120, Note_on_c, 14, 41, 76
16, 239, Note_on_c, 14, 41, 0
16, 360, Note_on_c, 14, 41, 76
16, 464, Note_on_c, 14, 41, 0
16, 480, Note_on_c, 14, 41, 76
16, 599, Note_on_c, 14, 41, 0
16, 720, Note_on_c, 14, 41, 76
16, 824, Note_on_c, 14, 41, 0
16, 840, Note_on_c, 14, 41, 52
16, 959, Note_on_c, 14, 41, 0
16, 1200, Note_on_c, 14, 53, 52
16, 1319, Note_on_c, 14, 53, 0
16, 1560, Note_on_c, 14, 53, 52
16, 1679, Note_on_c, 14, 53, 0
16, 1920, Note_on_c, 14, 48, 52
16, 2039, Note_on_c, 14, 48, 0
16, 2280, Note_on_c, 14, 48, 52
16, 2399, Note_on_c, 14, 48, 0
16, 2640, Note_on_c, 14, 48, 52
16, 2759, Note_on_c, 14, 48, 0
16, 3000, Note_on_c, 14, 48, 52
16, 3119, Note_on_c, 14, 48, 0
16, 3360, Note_on_c, 14, 53, 52
16, 3479, Note_on_c, 14, 53, 0
16, 3720, Note_on_c, 14, 58, 52
16, 3809, Note_on_c, 14, 58, 0
16, 3840, Note_on_c, 14, 58, 52
16, 3929, Note_on_c, 14, 58, 0
16, 3960, Note_on_c, 14, 57, 52
16, 4049, Note_on_c, 14, 57, 0
16, 4080, Note_on_c, 14, 55, 52
16, 4319, Note_on_c, 14, 55, 0
16, 4320, Note_on_c, 14, 53, 52
16, 4424, Note_on_c, 14, 53, 0
16, 4440, Note_on_c, 14, 58, 52
16, 4529, Note_on_c, 14, 58, 0
16, 4560, Note_on_c, 14, 58, 56
16, 4649, Note_on_c, 14, 58, 0
16, 4680, Note_on_c, 14, 57, 60
16, 4769, Note_on_c, 14, 57, 0
16, 4800, Note_on_c, 14, 55, 64
16, 5039, Note_on_c, 14, 55, 0
16, 5040, Note_on_c, 14, 53, 72
16, 5144, Note_on_c, 14, 53, 0
16, 5160, Note_on_c, 14, 58, 84
16, 5399, Note_on_c, 14, 58, 0
16, 5400, Note_on_c, 14, 57, 76
16, 5504, Note_on_c, 14, 57, 0
16, 5520, Note_on_c, 14, 62, 84
16, 5759, Note_on_c, 14, 62, 0
16, 5760, Note_on_c, 14, 61, 76
16, 5864, Note_on_c, 14, 61, 0
16, 5880, Note_on_c, 14, 52, 76
16, 5984, Note_on_c, 14, 52, 0
16, 6000, Note_on_c, 14, 64, 76
16, 6104, Note_on_c, 14, 64, 0
16, 6120, Note_on_c, 14, 64, 76
16, 6224, Note_on_c, 14, 64, 0
16, 6240, Note_on_c, 14, 57, 76
16, 6359, Note_on_c, 14, 57, 0
16, 6600, Note_on_c, 14, 52, 76
16, 6704, Note_on_c, 14, 52, 0
16, 6720, Note_on_c, 14, 64, 76
16, 6824, Note_on_c, 14, 64, 0
16, 6840, Note_on_c, 14, 64, 76
16, 6944, Note_on_c, 14, 64, 0
16, 6960, Note_on_c, 14, 57, 76
16, 7079, Note_on_c, 14, 57, 0
16, 7320, Note_on_c, 14, 52, 76
16, 7424, Note_on_c, 14, 52, 0
16, 7440, Note_on_c, 14, 64, 76
16, 7544, Note_on_c, 14, 64, 0
16, 7560, Note_on_c, 14, 64, 76
16, 7664, Note_on_c, 14, 64, 0
16, 7680, Note_on_c, 14, 57, 76
16, 7769, Note_on_c, 14, 57, 0
16, 7800, Note_on_c, 14, 64, 76
16, 7889, Note_on_c, 14, 64, 0
16, 7920, Note_on_c, 14, 61, 76
16, 8009, Note_on_c, 14, 61, 0
16, 8040, Note_on_c, 14, 57, 76
16, 8129, Note_on_c, 14, 57, 0
16, 8160, Note_on_c, 14, 52, 76
16, 8249, Note_on_c, 14, 52, 0
16, 8280, Note_on_c, 14, 49, 76
16, 8369, Note_on_c, 14, 49, 0
16, 8400, Note_on_c, 14, 45, 76
16, 8489, Note_on_c, 14, 45, 0
16, 8640, Note_on_c, 14, 41, 76
16, 8744, Note_on_c, 14, 41, 0
16, 8760, Note_on_c, 14, 41, 76
16, 8879, Note_on_c, 14, 41, 0
16, 9000, Note_on_c, 14, 41, 76
16, 9104, Note_on_c, 14, 41, 0
16, 9120, Note_on_c, 14, 41, 76
16, 9239, Note_on_c, 14, 41, 0
16, 9360, Note_on_c, 14, 41, 76
16, 9464, Note_on_c, 14, 41, 0
16, 9480, Note_on_c, 14, 41, 52
16, 9599, Note_on_c, 14, 41, 0
16, 9840, Note_on_c, 14, 53, 52
16, 9959, Note_on_c, 14, 53, 0
16, 10200, Note_on_c, 14, 53, 52
16, 10319, Note_on_c, 14, 53, 0
16, 10560, Note_on_c, 14, 48, 52
16, 10679, Note_on_c, 14, 48, 0
16, 10920, Note_on_c, 14, 48, 52
16, 11039, Note_on_c, 14, 48, 0
16, 11280, Note_on_c, 14, 48, 52
16, 11399, Note_on_c, 14, 48, 0
16, 11640, Note_on_c, 14, 48, 52
16, 11759, Note_on_c, 14, 48, 0
16, 12000, Note_on_c, 14, 53, 52
16, 12119, Note_on_c, 14, 53, 0
16, 12360, Note_on_c, 14, 58, 52
16, 12449, Note_on_c, 14, 58, 0
16, 12480, Note_on_c, 14, 58, 52
16, 12569, Note_on_c, 14, 58, 0
16, 12600, Note_on_c, 14, 57, 52
16, 12689, Note_on_c, 14, 57, 0
16, 12720, Note_on_c, 14, 55, 52
16, 12959, Note_on_c, 14, 55, 0
16, 12960, Note_on_c, 14, 53, 52
16, 13064, Note_on_c, 14, 53, 0
16, 13080, Note_on_c, 14, 58, 52
16, 13169, Note_on_c, 14, 58, 0
16, 13200, Note_on_c, 14, 58, 56
16, 13289, Note_on_c, 14, 58, 0
16, 13320, Note_on_c, 14, 57, 60
16, 13409, Note_on_c, 14, 57, 0
16, 13440, Note_on_c, 14, 55, 64
16, 13679, Note_on_c, 14, 55, 0
16, 13680, Note_on_c, 14, 53, 72
16, 13784, Note_on_c, 14, 53, 0
16, 13800, Note_on_c, 14, 58, 84
16, 14039, Note_on_c, 14, 58, 0
16, 14040, Note_on_c, 14, 57, 76
16, 14144, Note_on_c, 14, 57, 0
16, 14160, Note_on_c, 14, 62, 84
16, 14399, Note_on_c, 14, 62, 0
16, 14400, Note_on_c, 14, 61, 76
16, 14504, Note_on_c, 14, 61, 0
16, 14520, Note_on_c, 14, 52, 76
16, 14624, Note_on_c, 14, 52, 0
16, 14640, Note_on_c, 14, 64, 76
16, 14744, Note_on_c, 14, 64, 0
16, 14760, Note_on_c, 14, 64, 76
16, 14864, Note_on_c, 14, 64, 0
16, 14880, Note_on_c, 14, 57, 76
16, 14999, Note_on_c, 14, 57, 0
16, 15240, Note_on_c, 14, 52, 76
16, 15344, Note_on_c, 14, 52, 0
16, 15360, Note_on_c, 14, 64, 76
16, 15464, Note_on_c, 14, 64, 0
16, 15480, Note_on_c, 14, 64, 76
16, 15584, Note_on_c, 14, 64, 0
16, 15600, Note_on_c, 14, 57, 76
16, 15719, Note_on_c, 14, 57, 0
16, 15960, Note_on_c, 14, 52, 76
16, 16064, Note_on_c, 14, 52, 0
16, 16080, Note_on_c, 14, 64, 76
16, 16184, Note_on_c, 14, 64, 0
16, 16200, Note_on_c, 14, 64, 76
16, 16304, Note_on_c, 14, 64, 0
16, 16320, Note_on_c, 14, 57, 76
16, 16409, Note_on_c, 14, 57, 0
16, 16440, Note_on_c, 14, 64, 76
16, 16529, Note_on_c, 14, 64, 0
16, 16560, Note_on_c, 14, 61, 76
16, 16649, Note_on_c, 14, 61, 0
16, 16680, Note_on_c, 14, 57, 76
16, 16769, Note_on_c, 14, 57, 0
16, 16800, Note_on_c, 14, 52, 76
16, 16889, Note_on_c, 14, 52, 0
16, 16920, Note_on_c, 14, 49, 76
16, 17009, Note_on_c, 14, 49, 0
16, 17040, Note_on_c, 14, 45, 76
16, 17129, Note_on_c, 14, 45, 0
16, 17280, Note_on_c, 14, 45, 76
16, 17351, Note_on_c, 14, 45, 0
16, 17360, Note_on_c, 14, 45, 76
16, 17399, Note_on_c, 14, 45, 0
16, 17400, Note_on_c, 14, 49, 84
16, 17519, Note_on_c, 14, 49, 0
16, 17520, Note_on_c, 14, 45, 76
16, 17579, Note_on_c, 14, 45, 0
16, 23160, Note_on_c, 14, 44, 44
16, 23399, Note_on_c, 14, 44, 0
16, 23400, Note_on_c, 14, 43, 44
16, 23504, Note_on_c, 14, 43, 0
16, 23520, Note_on_c, 14, 44, 44
16, 23759, Note_on_c, 14, 44, 0
16, 23760, Note_on_c, 14, 43, 44
16, 23864, Note_on_c, 14, 43, 0
16, 23880, Note_on_c, 14, 44, 44
16, 24104, Note_on_c, 14, 44, 0
16, 24120, Note_on_c, 14, 43, 84
16, 24224, Note_on_c, 14, 43, 0
16, 24240, Note_on_c, 14, 43, 84
16, 24359, Note_on_c, 14, 43, 0
16, 28920, Note_on_c, 14, 42, 44
16, 29159, Note_on_c, 14, 42, 0
16, 29160, Note_on_c, 14, 41, 44
16, 29264, Note_on_c, 14, 41, 0
16, 29280, Note_on_c, 14, 42, 44
16, 29519, Note_on_c, 14, 42, 0
16, 29520, Note_on_c, 14, 41, 44
16, 29624, Note_on_c, 14, 41, 0
16, 29640, Note_on_c, 14, 42, 44
16, 29864, Note_on_c, 14, 42, 0
16, 29880, Note_on_c, 14, 41, 84
16, 29984, Note_on_c, 14, 41, 0
16, 30000, Note_on_c, 14, 41, 84
16, 30119, Note_on_c, 14, 41, 0
16, 31680, Program_c, 14, 45
16, 31800, Note_on_c, 14, 46, 44
16, 31919, Note_on_c, 14, 46, 0
16, 32160, Note_on_c, 14, 58, 44
16, 32279, Note_on_c, 14, 58, 0
16, 32520, Note_on_c, 14, 58, 44
16, 32639, Note_on_c, 14, 58, 0
16, 32880, Note_on_c, 14, 58, 44
16, 32999, Note_on_c, 14, 58, 0
16, 33240, Note_on_c, 14, 53, 44
16, 33359, Note_on_c, 14, 53, 0
16, 33600, Note_on_c, 14, 53, 44
16, 33719, Note_on_c, 14, 53, 0
16, 33960, Note_on_c, 14, 53, 44
16, 34079, Note_on_c, 14, 53, 0
16, 34320, Note_on_c, 14, 53, 44
16, 34439, Note_on_c, 14, 53, 0
16, 34680, Note_on_c, 14, 46, 44
16, 34799, Note_on_c, 14, 46, 0
16, 35040, Note_on_c, 14, 58, 44
16, 35159, Note_on_c, 14, 58, 0
16, 35400, Note_on_c, 14, 58, 45
16, 35519, Note_on_c, 14, 58, 0
16, 35760, Note_on_c, 14, 58, 47
16, 35879, Note_on_c, 14, 58, 0
16, 36120, Note_on_c, 14, 53, 48
16, 36239, Note_on_c, 14, 53, 0
16, 36480, Note_on_c, 14, 53, 50
16, 36599, Note_on_c, 14, 53, 0
16, 36840, Note_on_c, 14, 53, 52
16, 36959, Note_on_c, 14, 53, 0
16, 37200, Note_on_c, 14, 53, 53
16, 37319, Note_on_c, 14, 53, 0
16, 37560, Note_on_c, 14, 46, 55
16, 37679, Note_on_c, 14, 46, 0
16, 37800, Program_c, 14, 48
16, 37920, Note_on_c, 14, 65, 65
16, 38009, Note_on_c, 14, 65, 0
16, 38040, Note_on_c, 14, 65, 65
16, 38129, Note_on_c, 14, 65, 0
16, 38160, Note_on_c, 14, 64, 66
16, 38249, Note_on_c, 14, 64, 0
16, 38280, Note_on_c, 14, 62, 66
16, 38369, Note_on_c, 14, 62, 0
16, 38400, Note_on_c, 14, 62, 67
16, 38489, Note_on_c, 14, 62, 0
16, 38520, Note_on_c, 14, 60, 67
16, 38609, Note_on_c, 14, 60, 0
16, 38640, Note_on_c, 14, 58, 68
16, 38729, Note_on_c, 14, 58, 0
16, 38760, Note_on_c, 14, 58, 68
16, 38849, Note_on_c, 14, 58, 0
16, 38880, Note_on_c, 14, 57, 69
16, 38969, Note_on_c, 14, 57, 0
16, 39000, Note_on_c, 14, 55, 70
16, 39089, Note_on_c, 14, 55, 0
16, 39120, Note_on_c, 14, 55, 70
16, 39209, Note_on_c, 14, 55, 0
16, 39240, Note_on_c, 14, 53, 71
16, 39329, Note_on_c, 14, 53, 0
16, 39360, Note_on_c, 14, 52, 71
16, 39449, Note_on_c, 14, 52, 0
16, 39480, Note_on_c, 14, 52, 72
16, 39569, Note_on_c, 14, 52, 0
16, 39600, Note_on_c, 14, 50, 72
16, 39689, Note_on_c, 14, 50, 0
16, 39720, Note_on_c, 14, 48, 73
16, 39809, Note_on_c, 14, 48, 0
16, 39840, Note_on_c, 14, 48, 73
16, 39929, Note_on_c, 14, 48, 0
16, 39960, Note_on_c, 14, 46, 74
16, 40049, Note_on_c, 14, 46, 0
16, 40080, Note_on_c, 14, 45, 74
16, 40169, Note_on_c, 14, 45, 0
16, 40200, Note_on_c, 14, 43, 75
16, 40289, Note_on_c, 14, 43, 0
16, 40320, Note_on_c, 14, 41, 76
16, 40409, Note_on_c, 14, 41, 0
16, 40440, Note_on_c, 14, 41, 76
16, 40559, Note_on_c, 14, 41, 0
16, 40680, Note_on_c, 14, 41, 76
16, 40784, Note_on_c, 14, 41, 0
16, 40800, Note_on_c, 14, 41, 76
16, 40919, Note_on_c, 14, 41, 0
16, 41040, Note_on_c, 14, 41, 76
16, 41144, Note_on_c, 14, 41, 0
16, 41160, Note_on_c, 14, 41, 84
16, 41519, Note_on_c, 14, 41, 0
16, 41520, Note_on_c, 14, 41, 84
16, 41879, Note_on_c, 14, 41, 0
16, 41880, Note_on_c, 14, 41, 84
16, 42359, Note_on_c, 14, 41, 0
16, 42360, Note_on_c, 14, 40, 84
16, 42464, Note_on_c, 14, 40, 0
16, 42480, Note_on_c, 14, 40, 84
16, 42569, Note_on_c, 14, 40, 0
16, 42600, Note_on_c, 14, 40, 84
16, 42959, Note_on_c, 14, 40, 0
16, 42960, Note_on_c, 14, 40, 84
16, 43319, Note_on_c, 14, 40, 0
16, 43320, Note_on_c, 14, 40, 84
16, 43799, Note_on_c, 14, 40, 0
16, 43800, Note_on_c, 14, 41, 84
16, 43904, Note_on_c, 14, 41, 0
16, 43920, Note_on_c, 14, 41, 84
16, 44009, Note_on_c, 14, 41, 0
16, 44040, Note_on_c, 14, 53, 52
16, 44159, Note_on_c, 14, 53, 0
16, 44280, Program_c, 14, 45
16, 44400, Note_on_c, 14, 53, 44
16, 44519, Note_on_c, 14, 53, 0
16, 44760, Note_on_c, 14, 53, 44
16, 44879, Note_on_c, 14, 53, 0
16, 45120, Note_on_c, 14, 48, 44
16, 45239, Note_on_c, 14, 48, 0
16, 45360, Program_c, 14, 48
16, 45480, Note_on_c, 14, 55, 52
16, 45480, Note_on_c, 14, 48, 52
16, 45839, Note_on_c, 14, 55, 0
16, 45839, Note_on_c, 14, 48, 0
16, 45840, Note_on_c, 14, 55, 52
16, 45840, Note_on_c, 14, 48, 52
16, 46199, Note_on_c, 14, 55, 0
16, 46199, Note_on_c, 14, 48, 0
16, 46200, Note_on_c, 14, 55, 52
16, 46200, Note_on_c, 14, 48, 52
16, 46679, Note_on_c, 14, 55, 0
16, 46679, Note_on_c, 14, 48, 0
16, 46680, Note_on_c, 14, 57, 52
16, 46680, Note_on_c, 14, 53, 52
16, 46784, Note_on_c, 14, 57, 0
16, 46784, Note_on_c, 14, 53, 0
16, 46800, Note_on_c, 14, 53, 52
16, 46800, Note_on_c, 14, 57, 52
16, 46889, Note_on_c, 14, 53, 0
16, 46889, Note_on_c, 14, 57, 0
16, 46920, Note_on_c, 14, 58, 52
16, 47009, Note_on_c, 14, 58, 0
16, 47040, Note_on_c, 14, 58, 52
16, 47129, Note_on_c, 14, 58, 0
16, 47160, Note_on_c, 14, 57, 52
16, 47249, Note_on_c, 14, 57, 0
16, 47280, Note_on_c, 14, 55, 52
16, 47519, Note_on_c, 14, 55, 0
16, 47520, Note_on_c, 14, 53, 52
16, 47639, Note_on_c, 14, 53, 0
16, 48240, Control_c, 14, 11, 80
16, 48360, Note_on_c, 14, 58, 76
16, 48400, Control_c, 14, 11, 83
16, 48440, Control_c, 14, 11, 85
16, 48449, Note_on_c, 14, 58, 0
16, 48480, Note_on_c, 14, 58, 76
16, 48480, Control_c, 14, 11, 88
16, 48520, Control_c, 14, 11, 90
16, 48560, Control_c, 14, 11, 93
16, 48569, Note_on_c, 14, 58, 0
16, 48600, Control_c, 14, 11, 96
16, 48600, Note_on_c, 14, 57, 76
16, 48640, Control_c, 14, 11, 98
16, 48680, Control_c, 14, 11, 101
16, 48689, Note_on_c, 14, 57, 0
16, 48720, Note_on_c, 14, 55, 76
16, 48720, Control_c, 14, 11, 104
16, 48760, Control_c, 14, 11, 106
16, 48800, Control_c, 14, 11, 109
16, 48840, Control_c, 14, 11, 111
16, 48880, Control_c, 14, 11, 114
16, 48920, Control_c, 14, 11, 117
16, 48944, Note_on_c, 14, 55, 0
16, 48960, Note_on_c, 14, 53, 76
16, 48960, Control_c, 14, 11, 119
16, 49000, Control_c, 14, 11, 122
16, 49040, Control_c, 14, 11, 127
16, 49064, Note_on_c, 14, 53, 0
16, 49080, Note_on_c, 14, 58, 76
16, 49319, Note_on_c, 14, 58, 0
16, 49320, Note_on_c, 14, 57, 76
16, 49424, Note_on_c, 14, 57, 0
16, 49440, Note_on_c, 14, 62, 84
16, 49679, Note_on_c, 14, 62, 0
16, 49680, Note_on_c, 14, 60, 76
16, 49784, Note_on_c, 14, 60, 0
16, 49800, Note_on_c, 14, 65, 84
16, 50039, Note_on_c, 14, 65, 0
16, 50040, Note_on_c, 14, 64, 76
16, 50144, Note_on_c, 14, 64, 0
16, 50160, Note_on_c, 14, 62, 84
16, 50399, Note_on_c, 14, 62, 0
16, 50400, Note_on_c, 14, 60, 76
16, 50504, Note_on_c, 14, 60, 0
16, 50520, Note_on_c, 14, 55, 52
16, 50624, Note_on_c, 14, 55, 0
16, 50640, Note_on_c, 14, 67, 52
16, 50744, Note_on_c, 14, 67, 0
16, 50760, Note_on_c, 14, 67, 52
16, 50864, Note_on_c, 14, 67, 0
16, 50880, Note_on_c, 14, 60, 52
16, 50999, Note_on_c, 14, 60, 0
16, 51240, Note_on_c, 14, 55, 52
16, 51344, Note_on_c, 14, 55, 0
16, 51360, Note_on_c, 14, 67, 52
16, 51464, Note_on_c, 14, 67, 0
16, 51480, Note_on_c, 14, 67, 52
16, 51584, Note_on_c, 14, 67, 0
16, 51600, Note_on_c, 14, 60, 52
16, 51719, Note_on_c, 14, 60, 0
16, 51960, Note_on_c, 14, 55, 52
16, 52064, Note_on_c, 14, 55, 0
16, 52080, Note_on_c, 14, 55, 54
16, 52184, Note_on_c, 14, 55, 0
16, 52200, Note_on_c, 14, 67, 57
16, 52304, Note_on_c, 14, 67, 0
16, 52320, Note_on_c, 14, 60, 60
16, 52439, Note_on_c, 14, 60, 0
16, 52680, Note_on_c, 14, 55, 68
16, 52784, Note_on_c, 14, 55, 0
16, 52800, Note_on_c, 14, 67, 70
16, 52904, Note_on_c, 14, 67, 0
16, 52920, Note_on_c, 14, 67, 73
16, 53024, Note_on_c, 14, 67, 0
16, 53040, Note_on_c, 14, 60, 76
16, 53159, Note_on_c, 14, 60, 0
16, 53400, Note_on_c, 14, 48, 84
16, 53504, Note_on_c, 14, 48, 0
16, 53520, Note_on_c, 14, 60, 84
16, 53624, Note_on_c, 14, 60, 0
16, 53640, Note_on_c, 14, 60, 84
16, 53744, Note_on_c, 14, 60, 0
16, 53760, Note_on_c, 14, 41, 84
16, 53864, Note_on_c, 14, 41, 0
16, 53880, Note_on_c, 14, 53, 84
16, 53984, Note_on_c, 14, 53, 0
16, 54000, Note_on_c, 14, 53, 84
16, 54104, Note_on_c, 14, 53, 0
16, 54120, Note_on_c, 14, 48, 84
16, 54224, Note_on_c, 14, 48, 0
16, 54240, Note_on_c, 14, 60, 84
16, 54344, Note_on_c, 14, 60, 0
16, 54360, Note_on_c, 14, 60, 84
16, 54464, Note_on_c, 14, 60, 0
16, 54480, Note_on_c, 14, 41, 84
16, 54584, Note_on_c, 14, 41, 0
16, 54600, Note_on_c, 14, 53, 84
16, 54704, Note_on_c, 14, 53, 0
16, 54720, Note_on_c, 14, 53, 84
16, 54824, Note_on_c, 14, 53, 0
16, 54840, Note_on_c, 14, 48, 84
16, 54944, Note_on_c, 14, 48, 0
16, 54960, Note_on_c, 14, 60, 84
16, 55064, Note_on_c, 14, 60, 0
16, 55080, Note_on_c, 14, 60, 84
16, 55184, Note_on_c, 14, 60, 0
16, 55200, Note_on_c, 14, 41, 84
16, 55304, Note_on_c, 14, 41, 0
16, 55320, Note_on_c, 14, 53, 84
16, 55424, Note_on_c, 14, 53, 0
16, 55440, Note_on_c, 14, 53, 84
16, 55544, Note_on_c, 14, 53, 0
16, 55560, Note_on_c, 14, 48, 84
16, 55664, Note_on_c, 14, 48, 0
16, 55680, Note_on_c, 14, 60, 84
16, 55784, Note_on_c, 14, 60, 0
16, 55800, Note_on_c, 14, 60, 84
16, 55904, Note_on_c, 14, 60, 0
16, 55920, Note_on_c, 14, 41, 84
16, 56024, Note_on_c, 14, 41, 0
16, 56040, Note_on_c, 14, 53, 84
16, 56144, Note_on_c, 14, 53, 0
16, 56160, Note_on_c, 14, 53, 84
16, 56264, Note_on_c, 14, 53, 0
16, 56280, Note_on_c, 14, 48, 84
16, 56384, Note_on_c, 14, 48, 0
16, 56400, Note_on_c, 14, 60, 84
16, 56504, Note_on_c, 14, 60, 0
16, 56520, Note_on_c, 14, 60, 84
16, 56624, Note_on_c, 14, 60, 0
16, 56640, Note_on_c, 14, 53, 84
16, 56744, Note_on_c, 14, 53, 0
16, 56760, Note_on_c, 14, 60, 84
16, 56864, Note_on_c, 14, 60, 0
16, 56880, Note_on_c, 14, 57, 84
16, 56984, Note_on_c, 14, 57, 0
16, 57000, Note_on_c, 14, 53, 84
16, 57104, Note_on_c, 14, 53, 0
16, 57120, Note_on_c, 14, 60, 84
16, 57224, Note_on_c, 14, 60, 0
16, 57240, Note_on_c, 14, 57, 84
16, 57344, Note_on_c, 14, 57, 0
16, 57360, Note_on_c, 14, 53, 84
16, 57464, Note_on_c, 14, 53, 0
16, 57480, Note_on_c, 14, 48, 84
16, 57584, Note_on_c, 14, 48, 0
16, 57600, Note_on_c, 14, 41, 84
16, 57671, Note_on_c, 14, 41, 0
16, 57680, Note_on_c, 14, 41, 84
16, 57719, Note_on_c, 14, 41, 0
16, 57720, Note_on_c, 14, 45, 92
16, 57839, Note_on_c, 14, 45, 0
16, 57840, Note_on_c, 14, 41, 84
16, 57899, Note_on_c, 14, 41, 0
16, 59040, Note_on_c, 14, 41, 84
16, 59111, Note_on_c, 14, 41, 0
16, 59120, Note_on_c, 14, 41, 84
16, 59159, Note_on_c, 14, 41, 0
16, 59160, Note_on_c, 14, 45, 92
16, 59279, Note_on_c, 14, 45, 0
16, 59280, Note_on_c, 14, 41, 84
16, 59339, Note_on_c, 14, 41, 0
16, 59400, Note_on_c, 14, 41, 84
16, 59471, Note_on_c, 14, 41, 0
16, 59480, Note_on_c, 14, 41, 84
16, 59519, Note_on_c, 14, 41, 0
16, 59520, Note_on_c, 14, 45, 92
16, 59639, Note_on_c, 14, 45, 0
16, 59640, Note_on_c, 14, 41, 84
16, 59744, Note_on_c, 14, 41, 0
16, 59760, Note_on_c, 14, 41, 84
16, 59831, Note_on_c, 14, 41, 0
16, 59840, Note_on_c, 14, 41, 84
16, 59879, Note_on_c, 14, 41, 0
16, 59880, Note_on_c, 14, 45, 92
16, 59999, Note_on_c, 14, 45, 0
16, 60000, Note_on_c, 14, 41, 84
16, 60104, Note_on_c, 14, 41, 0
16, 60120, Note_on_c, 14, 41, 84
16, 60191, Note_on_c, 14, 41, 0
16, 60200, Note_on_c, 14, 41, 84
16, 60239, Note_on_c, 14, 41, 0
16, 60240, Note_on_c, 14, 45, 92
16, 60359, Note_on_c, 14, 45, 0
16, 60360, Note_on_c, 14, 41, 84
16, 60464, Note_on_c, 14, 41, 0
16, 60480, Note_on_c, 14, 41, 84
16, 60569, Note_on_c, 14, 41, 0
16, 60600, Note_on_c, 14, 45, 84
16, 60959, Note_on_c, 14, 45, 0
16, 60960, Note_on_c, 14, 45, 84
16, 61319, Note_on_c, 14, 45, 0
16, 61320, Note_on_c, 14, 45, 84
16, 61679, Note_on_c, 14, 45, 0
16, 61680, Note_on_c, 14, 45, 84
16, 61904, Note_on_c, 14, 45, 0
16, 61920, Note_on_c, 14, 45, 76
16, 61991, Note_on_c, 14, 45, 0
16, 62000, Note_on_c, 14, 45, 76
16, 62039, Note_on_c, 14, 45, 0
16, 62040, Note_on_c, 14, 49, 84
16, 62159, Note_on_c, 14, 49, 0
16, 62160, Note_on_c, 14, 45, 76
16, 62219, Note_on_c, 14, 45, 0
16, 67800, Note_on_c, 14, 44, 44
16, 68039, Note_on_c, 14, 44, 0
16, 68040, Note_on_c, 14, 43, 44
16, 68144, Note_on_c, 14, 43, 0
16, 68160, Note_on_c, 14, 44, 44
16, 68399, Note_on_c, 14, 44, 0
16, 68400, Note_on_c, 14, 43, 44
16, 68504, Note_on_c, 14, 43, 0
16, 68520, Note_on_c, 14, 44, 44
16, 68744, Note_on_c, 14, 44, 0
16, 68760, Note_on_c, 14, 43, 84
16, 68864, Note_on_c, 14, 43, 0
16, 68880, Note_on_c, 14, 43, 84
16, 68999, Note_on_c, 14, 43, 0
16, 73560, Note_on_c, 14, 42, 44
16, 73799, Note_on_c, 14, 42, 0
16, 73800, Note_on_c, 14, 41, 44
16, 73904, Note_on_c, 14, 41, 0
16, 73920, Note_on_c, 14, 42, 44
16, 74159, Note_on_c, 14, 42, 0
16, 74160, Note_on_c, 14, 41, 44
16, 74264, Note_on_c, 14, 41, 0
16, 74280, Note_on_c, 14, 42, 44
16, 74504, Note_on_c, 14, 42, 0
16, 74520, Note_on_c, 14, 41, 84
16, 74624, Note_on_c, 14, 41, 0
16, 74640, Note_on_c, 14, 41, 84
16, 74759, Note_on_c, 14, 41, 0
16, 76320, Program_c, 14, 45
16, 76440, Note_on_c, 14, 46, 44
16, 76559, Note_on_c, 14, 46, 0
16, 76800, Note_on_c, 14, 58, 44
16, 76919, Note_on_c, 14, 58, 0
16, 77160, Note_on_c, 14, 58, 44
16, 77279, Note_on_c, 14, 58, 0
16, 77520, Note_on_c, 14, 58, 44
16, 77639, Note_on_c, 14, 58, 0
16, 77880, Note_on_c, 14, 53, 44
16, 77999, Note_on_c, 14, 53, 0
16, 78240, Note_on_c, 14, 53, 44
16, 78359, Note_on_c, 14, 53, 0
16, 78600, Note_on_c, 14, 53, 44
16, 78719, Note_on_c, 14, 53, 0
16, 78960, Note_on_c, 14, 53, 44
16, 79079, Note_on_c, 14, 53, 0
16, 79320, Note_on_c, 14, 46, 44
16, 79439, Note_on_c, 14, 46, 0
16, 79680, Note_on_c, 14, 58, 44
16, 79799, Note_on_c, 14, 58, 0
16, 80040, Note_on_c, 14, 58, 45
16, 80159, Note_on_c, 14, 58, 0
16, 80400, Note_on_c, 14, 58, 47
16, 80519, Note_on_c, 14, 58, 0
16, 80760, Note_on_c, 14, 53, 48
16, 80879, Note_on_c, 14, 53, 0
16, 81120, Note_on_c, 14, 53, 50
16, 81239, Note_on_c, 14, 53, 0
16, 81480, Note_on_c, 14, 53, 52
16, 81599, Note_on_c, 14, 53, 0
16, 81840, Note_on_c, 14, 53, 53
16, 81959, Note_on_c, 14, 53, 0
16, 82200, Note_on_c, 14, 46, 55
16, 82319, Note_on_c, 14, 46, 0
16, 82440, Program_c, 14, 48
16, 82560, Note_on_c, 14, 65, 65
16, 82649, Note_on_c, 14, 65, 0
16, 82680, Note_on_c, 14, 65, 65
16, 82769, Note_on_c, 14, 65, 0
16, 82800, Note_on_c, 14, 64, 66
16, 82889, Note_on_c, 14, 64, 0
16, 82920, Note_on_c, 14, 62, 66
16, 83009, Note_on_c, 14, 62, 0
16, 83040, Note_on_c, 14, 62, 67
16, 83129, Note_on_c, 14, 62, 0
16, 83160, Note_on_c, 14, 60, 67
16, 83249, Note_on_c, 14, 60, 0
16, 83280, Note_on_c, 14, 58, 68
16, 83369, Note_on_c, 14, 58, 0
16, 83400, Note_on_c, 14, 58, 68
16, 83489, Note_on_c, 14, 58, 0
16, 83520, Note_on_c, 14, 57, 69
16, 83609, Note_on_c, 14, 57, 0
16, 83640, Note_on_c, 14, 55, 70
16, 83729, Note_on_c, 14, 55, 0
16, 83760, Note_on_c, 14, 55, 70
16, 83849, Note_on_c, 14, 55, 0
16, 83880, Note_on_c, 14, 53, 71
16, 83969, Note_on_c, 14, 53, 0
16, 84000, Note_on_c, 14, 52, 71
16, 84089, Note_on_c, 14, 52, 0
16, 84120, Note_on_c, 14, 52, 72
16, 84209, Note_on_c, 14, 52, 0
16, 84240, Note_on_c, 14, 50, 72
16, 84329, Note_on_c, 14, 50, 0
16, 84360, Note_on_c, 14, 48, 73
16, 84449, Note_on_c, 14, 48, 0
16, 84480, Note_on_c, 14, 48, 73
16, 84569, Note_on_c, 14, 48, 0
16, 84600, Note_on_c, 14, 46, 74
16, 84689, Note_on_c, 14, 46, 0
16, 84720, Note_on_c, 14, 45, 74
16, 84809, Note_on_c, 14, 45, 0
16, 84840, Note_on_c, 14, 43, 75
16, 84929, Note_on_c, 14, 43, 0
16, 84960, Note_on_c, 14, 41, 76
16, 85049, Note_on_c, 14, 41, 0
16, 85080, Note_on_c, 14, 41, 76
16, 85199, Note_on_c, 14, 41, 0
16, 85320, Note_on_c, 14, 41, 76
16, 85424, Note_on_c, 14, 41, 0
16, 85440, Note_on_c, 14, 41, 76
16, 85559, Note_on_c, 14, 41, 0
16, 85680, Note_on_c, 14, 41, 76
16, 85784, Note_on_c, 14, 41, 0
16, 85800, Note_on_c, 14, 41, 84
16, 86159, Note_on_c, 14, 41, 0
16, 86160, Note_on_c, 14, 41, 84
16, 86519, Note_on_c, 14, 41, 0
16, 86520, Note_on_c, 14, 41, 84
16, 86999, Note_on_c, 14, 41, 0
16, 87000, Note_on_c, 14, 40, 84
16, 87104, Note_on_c, 14, 40, 0
16, 87120, Note_on_c, 14, 40, 84
16, 87209, Note_on_c, 14, 40, 0
16, 87240, Note_on_c, 14, 40, 84
16, 87599, Note_on_c, 14, 40, 0
16, 87600, Note_on_c, 14, 40, 84
16, 87959, Note_on_c, 14, 40, 0
16, 87960, Note_on_c, 14, 40, 84
16, 88439, Note_on_c, 14, 40, 0
16, 88440, Note_on_c, 14, 41, 84
16, 88544, Note_on_c, 14, 41, 0
16, 88560, Note_on_c, 14, 41, 84
16, 88649, Note_on_c, 14, 41, 0
16, 88680, Note_on_c, 14, 53, 52
16, 88799, Note_on_c, 14, 53, 0
16, 88920, Program_c, 14, 45
16, 89040, Note_on_c, 14, 53, 44
16, 89159, Note_on_c, 14, 53, 0
16, 89400, Note_on_c, 14, 53, 44
16, 89519, Note_on_c, 14, 53, 0
16, 89760, Note_on_c, 14, 48, 44
16, 89879, Note_on_c, 14, 48, 0
16, 90000, Program_c, 14, 48
16, 90120, Note_on_c, 14, 48, 52
16, 90120, Note_on_c, 14, 55, 52
16, 90479, Note_on_c, 14, 48, 0
16, 90479, Note_on_c, 14, 55, 0
16, 90480, Note_on_c, 14, 48, 52
16, 90480, Note_on_c, 14, 55, 52
16, 90839, Note_on_c, 14, 48, 0
16, 90839, Note_on_c, 14, 55, 0
16, 90840, Note_on_c, 14, 55, 52
16, 90840, Note_on_c, 14, 48, 52
16, 91319, Note_on_c, 14, 55, 0
16, 91319, Note_on_c, 14, 48, 0
16, 91320, Note_on_c, 14, 57, 52
16, 91320, Note_on_c, 14, 53, 52
16, 91424, Note_on_c, 14, 57, 0
16, 91424, Note_on_c, 14, 53, 0
16, 91440, Note_on_c, 14, 57, 52
16, 91440, Note_on_c, 14, 53, 52
16, 91529, Note_on_c, 14, 57, 0
16, 91529, Note_on_c, 14, 53, 0
16, 91560, Note_on_c, 14, 58, 52
16, 91649, Note_on_c, 14, 58, 0
16, 91680, Note_on_c, 14, 58, 52
16, 91769, Note_on_c, 14, 58, 0
16, 91800, Note_on_c, 14, 57, 52
16, 91889, Note_on_c, 14, 57, 0
16, 91920, Note_on_c, 14, 55, 52
16, 92159, Note_on_c, 14, 55, 0
16, 92160, Note_on_c, 14, 53, 52
16, 92279, Note_on_c, 14, 53, 0
16, 92880, Control_c, 14, 11, 80
16, 93000, Note_on_c, 14, 58, 76
16, 93040, Control_c, 14, 11, 83
16, 93080, Control_c, 14, 11, 85
16, 93089, Note_on_c, 14, 58, 0
16, 93120, Control_c, 14, 11, 88
16, 93120, Note_on_c, 14, 58, 76
16, 93160, Control_c, 14, 11, 90
16, 93200, Control_c, 14, 11, 93
16, 93209, Note_on_c, 14, 58, 0
16, 93240, Control_c, 14, 11, 96
16, 93240, Note_on_c, 14, 57, 76
16, 93280, Control_c, 14, 11, 98
16, 93320, Control_c, 14, 11, 101
16, 93329, Note_on_c, 14, 57, 0
16, 93360, Control_c, 14, 11, 104
16, 93360, Note_on_c, 14, 55, 76
16, 93400, Control_c, 14, 11, 106
16, 93440, Control_c, 14, 11, 109
16, 93480, Control_c, 14, 11, 111
16, 93520, Control_c, 14, 11, 114
16, 93560, Control_c, 14, 11, 117
16, 93584, Note_on_c, 14, 55, 0
16, 93600, Control_c, 14, 11, 119
16, 93600, Note_on_c, 14, 53, 76
16, 93640, Control_c, 14, 11, 122
16, 93680, Control_c, 14, 11, 127
16, 93704, Note_on_c, 14, 53, 0
16, 93720, Note_on_c, 14, 58, 76
16, 93959, Note_on_c, 14, 58, 0
16, 93960, Note_on_c, 14, 57, 76
16, 94064, Note_on_c, 14, 57, 0
16, 94080, Note_on_c, 14, 62, 84
16, 94319, Note_on_c, 14, 62, 0
16, 94320, Note_on_c, 14, 60, 76
16, 94424, Note_on_c, 14, 60, 0
16, 94440, Note_on_c, 14, 65, 84
16, 94679, Note_on_c, 14, 65, 0
16, 94680, Note_on_c, 14, 64, 76
16, 94784, Note_on_c, 14, 64, 0
16, 94800, Note_on_c, 14, 62, 84
16, 95039, Note_on_c, 14, 62, 0
16, 95040, Note_on_c, 14, 60, 76
16, 95144, Note_on_c, 14, 60, 0
16, 95160, Note_on_c, 14, 55, 52
16, 95264, Note_on_c, 14, 55, 0
16, 95280, Note_on_c, 14, 67, 52
16, 95384, Note_on_c, 14, 67, 0
16, 95400, Note_on_c, 14, 67, 52
16, 95504, Note_on_c, 14, 67, 0
16, 95520, Note_on_c, 14, 60, 52
16, 95639, Note_on_c, 14, 60, 0
16, 95880, Note_on_c, 14, 55, 52
16, 95984, Note_on_c, 14, 55, 0
16, 96000, Note_on_c, 14, 67, 52
16, 96104, Note_on_c, 14, 67, 0
16, 96120, Note_on_c, 14, 67, 52
16, 96224, Note_on_c, 14, 67, 0
16, 96240, Note_on_c, 14, 60, 52
16, 96359, Note_on_c, 14, 60, 0
16, 96600, Note_on_c, 14, 55, 52
16, 96704, Note_on_c, 14, 55, 0
16, 96720, Note_on_c, 14, 55, 54
16, 96824, Note_on_c, 14, 55, 0
16, 96840, Note_on_c, 14, 67, 57
16, 96944, Note_on_c, 14, 67, 0
16, 96960, Note_on_c, 14, 60, 60
16, 97079, Note_on_c, 14, 60, 0
16, 97320, Note_on_c, 14, 55, 68
16, 97424, Note_on_c, 14, 55, 0
16, 97440, Note_on_c, 14, 67, 70
16, 97544, Note_on_c, 14, 67, 0
16, 97560, Note_on_c, 14, 67, 73
16, 97664, Note_on_c, 14, 67, 0
16, 97680, Note_on_c, 14, 60, 76
16, 97799, Note_on_c, 14, 60, 0
16, 98040, Note_on_c, 14, 48, 84
16, 98144, Note_on_c, 14, 48, 0
16, 98160, Note_on_c, 14, 60, 84
16, 98264, Note_on_c, 14, 60, 0
16, 98280, Note_on_c, 14, 60, 84
16, 98384, Note_on_c, 14, 60, 0
16, 98400, Note_on_c, 14, 41, 84
16, 98504, Note_on_c, 14, 41, 0
16, 98520, Note_on_c, 14, 53, 84
16, 98624, Note_on_c, 14, 53, 0
16, 98640, Note_on_c, 14, 53, 84
16, 98744, Note_on_c, 14, 53, 0
16, 98760, Note_on_c, 14, 48, 84
16, 98864, Note_on_c, 14, 48, 0
16, 98880, Note_on_c, 14, 60, 84
16, 98984, Note_on_c, 14, 60, 0
16, 99000, Note_on_c, 14, 60, 84
16, 99104, Note_on_c, 14, 60, 0
16, 99120, Note_on_c, 14, 41, 84
16, 99224, Note_on_c, 14, 41, 0
16, 99240, Note_on_c, 14, 53, 84
16, 99344, Note_on_c, 14, 53, 0
16, 99360, Note_on_c, 14, 53, 84
16, 99464, Note_on_c, 14, 53, 0
16, 99480, Note_on_c, 14, 48, 84
16, 99584, Note_on_c, 14, 48, 0
16, 99600, Note_on_c, 14, 60, 84
16, 99704, Note_on_c, 14, 60, 0
16, 99720, Note_on_c, 14, 60, 84
16, 99824, Note_on_c, 14, 60, 0
16, 99840, Note_on_c, 14, 41, 84
16, 99944, Note_on_c, 14, 41, 0
16, 99960, Note_on_c, 14, 53, 84
16, 100064, Note_on_c, 14, 53, 0
16, 100080, Note_on_c, 14, 53, 84
16, 100184, Note_on_c, 14, 53, 0
16, 100200, Note_on_c, 14, 48, 84
16, 100304, Note_on_c, 14, 48, 0
16, 100320, Note_on_c, 14, 60, 84
16, 100424, Note_on_c, 14, 60, 0
16, 100440, Note_on_c, 14, 60, 84
16, 100544, Note_on_c, 14, 60, 0
16, 100560, Note_on_c, 14, 41, 84
16, 100664, Note_on_c, 14, 41, 0
16, 100680, Note_on_c, 14, 53, 84
16, 100784, Note_on_c, 14, 53, 0
16, 100800, Note_on_c, 14, 53, 84
16, 100904, Note_on_c, 14, 53, 0
16, 100920, Note_on_c, 14, 48, 84
16, 101024, Note_on_c, 14, 48, 0
16, 101040, Note_on_c, 14, 60, 84
16, 101144, Note_on_c, 14, 60, 0
16, 101160, Note_on_c, 14, 60, 84
16, 101264, Note_on_c, 14, 60, 0
16, 101280, Note_on_c, 14, 53, 84
16, 101384, Note_on_c, 14, 53, 0
16, 101400, Note_on_c, 14, 60, 84
16, 101504, Note_on_c, 14, 60, 0
16, 101520, Note_on_c, 14, 57, 84
16, 101624, Note_on_c, 14, 57, 0
16, 101640, Note_on_c, 14, 53, 84
16, 101744, Note_on_c, 14, 53, 0
16, 101760, Note_on_c, 14, 60, 84
16, 101864, Note_on_c, 14, 60, 0
16, 101880, Note_on_c, 14, 57, 84
16, 101984, Note_on_c, 14, 57, 0
16, 102000, Note_on_c, 14, 53, 84
16, 102104, Note_on_c, 14, 53, 0
16, 102120, Note_on_c, 14, 48, 84
16, 102224, Note_on_c, 14, 48, 0
16, 102240, Note_on_c, 14, 41, 84
16, 102311, Note_on_c, 14, 41, 0
16, 102320, Note_on_c, 14, 41, 84
16, 102359, Note_on_c, 14, 41, 0
16, 102360, Note_on_c, 14, 45, 92
16, 102479, Note_on_c, 14, 45, 0
16, 102480, Note_on_c, 14, 41, 84
16, 102539, Note_on_c, 14, 41, 0
16, 103680, Note_on_c, 14, 41, 84
16, 103751, Note_on_c, 14, 41, 0
16, 103760, Note_on_c, 14, 41, 84
16, 103799, Note_on_c, 14, 41, 0
16, 103800, Note_on_c, 14, 45, 92
16, 103919, Note_on_c, 14, 45, 0
16, 103920, Note_on_c, 14, 41, 84
16, 103979, Note_on_c, 14, 41, 0
16, 104040, Note_on_c, 14, 41, 84
16, 104111, Note_on_c, 14, 41, 0
16, 104120, Note_on_c, 14, 41, 84
16, 104159, Note_on_c, 14, 41, 0
16, 104160, Note_on_c, 14, 45, 92
16, 104279, Note_on_c, 14, 45, 0
16, 104280, Note_on_c, 14, 41, 84
16, 104384, Note_on_c, 14, 41, 0
16, 104400, Note_on_c, 14, 41, 84
16, 104471, Note_on_c, 14, 41, 0
16, 104480, Note_on_c, 14, 41, 84
16, 104519, Note_on_c, 14, 41, 0
16, 104520, Note_on_c, 14, 45, 92
16, 104639, Note_on_c, 14, 45, 0
16, 104640, Note_on_c, 14, 41, 84
16, 104744, Note_on_c, 14, 41, 0
16, 104760, Note_on_c, 14, 41, 84
16, 104831, Note_on_c, 14, 41, 0
16, 104840, Note_on_c, 14, 41, 84
16, 104879, Note_on_c, 14, 41, 0
16, 104880, Note_on_c, 14, 45, 92
16, 104999, Note_on_c, 14, 45, 0
16, 105000, Note_on_c, 14, 41, 84
16, 105104, Note_on_c, 14, 41, 0
16, 105120, Note_on_c, 14, 41, 84
16, 105209, Note_on_c, 14, 41, 0
16, 105240, Note_on_c, 14, 45, 84
16, 105240, Control_c, 14, 11, 127
16, 105280, Control_c, 14, 11, 125
16, 105320, Control_c, 14, 11, 124
16, 105360, Control_c, 14, 11, 122
16, 105400, Control_c, 14, 11, 120
16, 105440, Control_c, 14, 11, 118
16, 105480, Control_c, 14, 11, 117
16, 105520, Control_c, 14, 11, 115
16, 105560, Control_c, 14, 11, 113
16, 105599, Note_on_c, 14, 45, 0
16, 105600, Control_c, 14, 11, 111
16, 105600, Note_on_c, 14, 45, 84
16, 105640, Control_c, 14, 11, 110
16, 105680, Control_c, 14, 11, 108
16, 105720, Control_c, 14, 11, 106
16, 105760, Control_c, 14, 11, 104
16, 105800, Control_c, 14, 11, 103
16, 105840, Control_c, 14, 11, 101
16, 105880, Control_c, 14, 11, 99
16, 105920, Control_c, 14, 11, 97
16, 105959, Note_on_c, 14, 45, 0
16, 105960, Control_c, 14, 11, 96
16, 105960, Note_on_c, 14, 45, 84
16, 106000, Control_c, 14, 11, 94
16, 106040, Control_c, 14, 11, 92
16, 106080, Control_c, 14, 11, 90
16, 106120, Control_c, 14, 11, 89
16, 106160, Control_c, 14, 11, 87
16, 106200, Control_c, 14, 11, 85
16, 106240, Control_c, 14, 11, 83
16, 106280, Control_c, 14, 11, 82
16, 106319, Note_on_c, 14, 45, 0
16, 106320, Control_c, 14, 11, 80
16, 106320, Note_on_c, 14, 45, 84
16, 106360, Control_c, 14, 11, 78
16, 106400, Control_c, 14, 11, 76
16, 106440, Control_c, 14, 11, 75
16, 106480, Control_c, 14, 11, 73
16, 106520, Control_c, 14, 11, 71
16, 106560, Control_c, 14, 11, 69
16, 106600, Control_c, 14, 11, 68
16, 106640, Control_c, 14, 11, 64
16, 106664, Note_on_c, 14, 45, 0
16, 106680, Note_on_c, 14, 50, 84
16, 106919, Note_on_c, 14, 50, 0
16, 107400, Control_c, 14, 11, 127
16, 147000, Control_c, 14, 11, 113
16, 147240, Note_on_c, 14, 45, 84
16, 147251, Control_c, 14, 11, 114
16, 147343, Control_c, 14, 11, 115
16, 147434, Control_c, 14, 11, 116
16, 147526, Control_c, 14, 11, 117
16, 147617, Control_c, 14, 11, 118
16, 147699, Note_on_c, 14, 45, 0
16, 147709, Control_c, 14, 11, 119
16, 147720, Note_on_c, 14, 45, 84
16, 147800, Control_c, 14, 11, 120
16, 147891, Control_c, 14, 11, 121
16, 147983, Control_c, 14, 11, 122
16, 148074, Control_c, 14, 11, 123
16, 148166, Control_c, 14, 11, 124
16, 148179, Note_on_c, 14, 45, 0
16, 148200, Note_on_c, 14, 45, 84
16, 148257, Control_c, 14, 11, 125
16, 148349, Control_c, 14, 11, 127
16, 148419, Note_on_c, 14, 45, 0
16, 148440, Note_on_c, 14, 50, 84
16, 149039, Note_on_c, 14, 50, 0
16, 149040, Note_on_c, 14, 45, 84
16, 149159, Note_on_c, 14, 45, 0
16, 149160, Note_on_c, 14, 50, 84
16, 149399, Note_on_c, 14, 50, 0
16, 149880, Note_on_c, 14, 50, 84
16, 150479, Note_on_c, 14, 50, 0
16, 150480, Note_on_c, 14, 45, 84
16, 150599, Note_on_c, 14, 45, 0
16, 150600, Note_on_c, 14, 50, 84
16, 150839, Note_on_c, 14, 50, 0
16, 151320, Note_on_c, 14, 50, 84
16, 151799, Note_on_c, 14, 50, 0
16, 151800, Note_on_c, 14, 45, 84
16, 152019, Note_on_c, 14, 45, 0
16, 152040, Note_on_c, 14, 50, 84
16, 152279, Note_on_c, 14, 50, 0
16, 152280, Note_on_c, 14, 45, 84
16, 152499, Note_on_c, 14, 45, 0
16, 152520, Note_on_c, 14, 50, 84
16, 152699, Note_on_c, 14, 50, 0
16, 152760, Note_on_c, 14, 45, 84
16, 152999, Note_on_c, 14, 45, 0
16, 154200, Note_on_c, 14, 45, 84
16, 154919, Note_on_c, 14, 45, 0
16, 154920, Note_on_c, 14, 45, 84
16, 155159, Note_on_c, 14, 45, 0
16, 155640, Note_on_c, 14, 45, 84
16, 156359, Note_on_c, 14, 45, 0
16, 156360, Note_on_c, 14, 45, 84
16, 156599, Note_on_c, 14, 45, 0
16, 157080, Note_on_c, 14, 45, 84
16, 157559, Note_on_c, 14, 45, 0
16, 157560, Note_on_c, 14, 50, 84
16, 157799, Note_on_c, 14, 50, 0
16, 157800, Note_on_c, 14, 45, 84
16, 158039, Note_on_c, 14, 45, 0
16, 158040, Note_on_c, 14, 57, 84
16, 158259, Note_on_c, 14, 57, 0
16, 158280, Note_on_c, 14, 45, 84
16, 158459, Note_on_c, 14, 45, 0
16, 158520, Note_on_c, 14, 50, 84
16, 158759, Note_on_c, 14, 50, 0
16, 177240, Control_c, 14, 11, 113
16, 177480, Note_on_c, 14, 45, 84
16, 177491, Control_c, 14, 11, 114
16, 177583, Control_c, 14, 11, 115
16, 177674, Control_c, 14, 11, 116
16, 177766, Control_c, 14, 11, 117
16, 177857, Control_c, 14, 11, 118
16, 177939, Note_on_c, 14, 45, 0
16, 177949, Control_c, 14, 11, 119
16, 177960, Note_on_c, 14, 45, 84
16, 178040, Control_c, 14, 11, 120
16, 178131, Control_c, 14, 11, 121
16, 178223, Control_c, 14, 11, 122
16, 178314, Control_c, 14, 11, 123
16, 178406, Control_c, 14, 11, 124
16, 178419, Note_on_c, 14, 45, 0
16, 178440, Note_on_c, 14, 45, 84
16, 178497, Control_c, 14, 11, 125
16, 178589, Control_c, 14, 11, 127
16, 178659, Note_on_c, 14, 45, 0
16, 178680, Note_on_c, 14, 50, 84
16, 179279, Note_on_c, 14, 50, 0
16, 179280, Note_on_c, 14, 45, 84
16, 179399, Note_on_c, 14, 45, 0
16, 179400, Note_on_c, 14, 50, 84
16, 179639, Note_on_c, 14, 50, 0
16, 180120, Note_on_c, 14, 50, 84
16, 180719, Note_on_c, 14, 50, 0
16, 180720, Note_on_c, 14, 45, 84
16, 180839, Note_on_c, 14, 45, 0
16, 180840, Note_on_c, 14, 50, 84
16, 181079, Note_on_c, 14, 50, 0
16, 181560, Note_on_c, 14, 50, 84
16, 182039, Note_on_c, 14, 50, 0
16, 182040, Note_on_c, 14, 45, 84
16, 182259, Note_on_c, 14, 45, 0
16, 182280, Note_on_c, 14, 50, 84
16, 182519, Note_on_c, 14, 50, 0
16, 182520, Note_on_c, 14, 45, 84
16, 182739, Note_on_c, 14, 45, 0
16, 182760, Note_on_c, 14, 50, 84
16, 182939, Note_on_c, 14, 50, 0
16, 183000, Note_on_c, 14, 45, 84
16, 183239, Note_on_c, 14, 45, 0
16, 184440, Note_on_c, 14, 45, 84
16, 185159, Note_on_c, 14, 45, 0
16, 185160, Note_on_c, 14, 45, 84
16, 185399, Note_on_c, 14, 45, 0
16, 185880, Note_on_c, 14, 45, 84
16, 186599, Note_on_c, 14, 45, 0
16, 186600, Note_on_c, 14, 45, 84
16, 186839, Note_on_c, 14, 45, 0
16, 187320, Note_on_c, 14, 45, 84
16, 187799, Note_on_c, 14, 45, 0
16, 187800, Note_on_c, 14, 50, 84
16, 188039, Note_on_c, 14, 50, 0
16, 188040, Note_on_c, 14, 45, 84
16, 188279, Note_on_c, 14, 45, 0
16, 188280, Note_on_c, 14, 57, 84
16, 188499, Note_on_c, 14, 57, 0
16, 188520, Note_on_c, 14, 45, 84
16, 188699, Note_on_c, 14, 45, 0
16, 188760, Note_on_c, 14, 50, 84
16, 188999, Note_on_c, 14, 50, 0
16, 190200, Note_on_c, 14, 50, 52
16, 190919, Note_on_c, 14, 50, 0
16, 190920, Note_on_c, 14, 50, 52
16, 191619, Note_on_c, 14, 50, 0
16, 191640, Note_on_c, 14, 49, 52
16, 191640, Control_c, 14, 11, 127
16, 191872, Control_c, 14, 11, 126
16, 192105, Control_c, 14, 11, 125
16, 192337, Control_c, 14, 11, 124
16, 192359, Note_on_c, 14, 49, 0
16, 192360, Note_on_c, 14, 49, 52
16, 192569, Control_c, 14, 11, 123
16, 192801, Control_c, 14, 11, 122
16, 193034, Control_c, 14, 11, 121
16, 193059, Note_on_c, 14, 49, 0
16, 193080, Note_on_c, 14, 50, 52
16, 193266, Control_c, 14, 11, 120
16, 193498, Control_c, 14, 11, 119
16, 193730, Control_c, 14, 11, 118
16, 193799, Note_on_c, 14, 50, 0
16, 193800, Note_on_c, 14, 50, 52
16, 193963, Control_c, 14, 11, 117
16, 194195, Control_c, 14, 11, 116
16, 194427, Control_c, 14, 11, 115
16, 194499, Note_on_c, 14, 50, 0
16, 194520, Note_on_c, 14, 45, 52
16, 194659, Control_c, 14, 11, 114
16, 194892, Control_c, 14, 11, 113
16, 195124, Control_c, 14, 11, 112
16, 195239, Note_on_c, 14, 45, 0
16, 195240, Note_on_c, 14, 45, 52
16, 195356, Control_c, 14, 11, 111
16, 195588, Control_c, 14, 11, 110
16, 195821, Control_c, 14, 11, 109
16, 195939, Note_on_c, 14, 45, 0
16, 195960, Note_on_c, 14, 50, 52
16, 196053, Control_c, 14, 11, 108
16, 196285, Control_c, 14, 11, 107
16, 196517, Control_c, 14, 11, 106
16, 196679, Note_on_c, 14, 50, 0
16, 196680, Note_on_c, 14, 50, 52
16, 196750, Control_c, 14, 11, 105
16, 196982, Control_c, 14, 11, 104
16, 197214, Control_c, 14, 11, 103
16, 197379, Note_on_c, 14, 50, 0
16, 197400, Note_on_c, 14, 49, 52
16, 197446, Control_c, 14, 11, 102
16, 197679, Control_c, 14, 11, 101
16, 197911, Control_c, 14, 11, 100
16, 198119, Note_on_c, 14, 49, 0
16, 198120, Note_on_c, 14, 49, 52
16, 198143, Control_c, 14, 11, 99
16, 198375, Control_c, 14, 11, 98
16, 198608, Control_c, 14, 11, 96
16, 198819, Note_on_c, 14, 49, 0
16, 198840, Note_on_c, 14, 48, 52
16, 199439, Note_on_c, 14, 48, 0
16, 199440, Note_on_c, 14, 47, 52
16, 199559, Note_on_c, 14, 47, 0
16, 199560, Note_on_c, 14, 48, 52
16, 199799, Note_on_c, 14, 48, 0
16, 200038, Control_c, 14, 11, 127
16, 200040, Note_on_c, 14, 41, 76
16, 200144, Note_on_c, 14, 41, 0
16, 200160, Note_on_c, 14, 41, 76
16, 200279, Note_on_c, 14, 41, 0
16, 200400, Note_on_c, 14, 41, 76
16, 200504, Note_on_c, 14, 41, 0
16, 200520, Note_on_c, 14, 41, 76
16, 200639, Note_on_c, 14, 41, 0
16, 200760, Note_on_c, 14, 41, 76
16, 200864, Note_on_c, 14, 41, 0
16, 200880, Note_on_c, 14, 41, 52
16, 200999, Note_on_c, 14, 41, 0
16, 201240, Note_on_c, 14, 53, 52
16, 201359, Note_on_c, 14, 53, 0
16, 201600, Note_on_c, 14, 53, 52
16, 201719, Note_on_c, 14, 53, 0
16, 201960, Note_on_c, 14, 48, 52
16, 202079, Note_on_c, 14, 48, 0
16, 202320, Note_on_c, 14, 48, 52
16, 202439, Note_on_c, 14, 48, 0
16, 202680, Note_on_c, 14, 48, 52
16, 202799, Note_on_c, 14, 48, 0
16, 203040, Note_on_c, 14, 48, 52
16, 203159, Note_on_c, 14, 48, 0
16, 203400, Note_on_c, 14, 53, 52
16, 203519, Note_on_c, 14, 53, 0
16, 203760, Note_on_c, 14, 58, 52
16, 203849, Note_on_c, 14, 58, 0
16, 203880, Note_on_c, 14, 58, 52
16, 203969, Note_on_c, 14, 58, 0
16, 204000, Note_on_c, 14, 57, 52
16, 204089, Note_on_c, 14, 57, 0
16, 204120, Note_on_c, 14, 55, 52
16, 204359, Note_on_c, 14, 55, 0
16, 204360, Note_on_c, 14, 53, 52
16, 204464, Note_on_c, 14, 53, 0
16, 204480, Note_on_c, 14, 58, 52
16, 204569, Note_on_c, 14, 58, 0
16, 204600, Note_on_c, 14, 58, 56
16, 204689, Note_on_c, 14, 58, 0
16, 204720, Note_on_c, 14, 57, 60
16, 204809, Note_on_c, 14, 57, 0
16, 204840, Note_on_c, 14, 55, 64
16, 205079, Note_on_c, 14, 55, 0
16, 205080, Note_on_c, 14, 53, 72
16, 205184, Note_on_c, 14, 53, 0
16, 205200, Note_on_c, 14, 58, 84
16, 205439, Note_on_c, 14, 58, 0
16, 205440, Note_on_c, 14, 57, 76
16, 205544, Note_on_c, 14, 57, 0
16, 205560, Note_on_c, 14, 62, 84
16, 205799, Note_on_c, 14, 62, 0
16, 205800, Note_on_c, 14, 61, 76
16, 205904, Note_on_c, 14, 61, 0
16, 205920, Note_on_c, 14, 52, 76
16, 206024, Note_on_c, 14, 52, 0
16, 206040, Note_on_c, 14, 64, 76
16, 206144, Note_on_c, 14, 64, 0
16, 206160, Note_on_c, 14, 64, 76
16, 206264, Note_on_c, 14, 64, 0
16, 206280, Note_on_c, 14, 57, 76
16, 206399, Note_on_c, 14, 57, 0
16, 206640, Note_on_c, 14, 52, 76
16, 206744, Note_on_c, 14, 52, 0
16, 206760, Note_on_c, 14, 64, 76
16, 206864, Note_on_c, 14, 64, 0
16, 206880, Note_on_c, 14, 64, 76
16, 206984, Note_on_c, 14, 64, 0
16, 207000, Note_on_c, 14, 57, 76
16, 207119, Note_on_c, 14, 57, 0
16, 207360, Note_on_c, 14, 52, 76
16, 207464, Note_on_c, 14, 52, 0
16, 207480, Note_on_c, 14, 64, 76
16, 207584, Note_on_c, 14, 64, 0
16, 207600, Note_on_c, 14, 64, 76
16, 207704, Note_on_c, 14, 64, 0
16, 207720, Note_on_c, 14, 57, 76
16, 207809, Note_on_c, 14, 57, 0
16, 207840, Note_on_c, 14, 64, 76
16, 207929, Note_on_c, 14, 64, 0
16, 207960, Note_on_c, 14, 61, 76
16, 208049, Note_on_c, 14, 61, 0
16, 208080, Note_on_c, 14, 57, 76
16, 208169, Note_on_c, 14, 57, 0
16, 208200, Note_on_c, 14, 52, 76
16, 208289, Note_on_c, 14, 52, 0
16, 208320, Note_on_c, 14, 49, 76
16, 208409, Note_on_c, 14, 49, 0
16, 208440, Note_on_c, 14, 45, 76
16, 208529, Note_on_c, 14, 45, 0
16, 208680, Note_on_c, 14, 41, 52
16, 208784, Note_on_c, 14, 41, 0
16, 208800, Note_on_c, 14, 41, 52
16, 208919, Note_on_c, 14, 41, 0
16, 209040, Note_on_c, 14, 41, 52
16, 209144, Note_on_c, 14, 41, 0
16, 209160, Note_on_c, 14, 41, 52
16, 209279, Note_on_c, 14, 41, 0
16, 209400, Note_on_c, 14, 41, 52
16, 209504, Note_on_c, 14, 41, 0
16, 209520, Note_on_c, 14, 41, 52
16, 209639, Note_on_c, 14, 41, 0
16, 209880, Note_on_c, 14, 53, 52
16, 209999, Note_on_c, 14, 53, 0
16, 210240, Note_on_c, 14, 53, 52
16, 210359, Note_on_c, 14, 53, 0
16, 210600, Note_on_c, 14, 48, 52
16, 210719, Note_on_c, 14, 48, 0
16, 210960, Note_on_c, 14, 48, 52
16, 211079, Note_on_c, 14, 48, 0
16, 211320, Note_on_c, 14, 48, 52
16, 211439, Note_on_c, 14, 48, 0
16, 211680, Note_on_c, 14, 48, 52
16, 211799, Note_on_c, 14, 48, 0
16, 212040, Note_on_c, 14, 53, 52
16, 212159, Note_on_c, 14, 53, 0
16, 212400, Note_on_c, 14, 58, 52
16, 212489, Note_on_c, 14, 58, 0
16, 212520, Note_on_c, 14, 58, 52
16, 212609, Note_on_c, 14, 58, 0
16, 212640, Note_on_c, 14, 57, 52
16, 212729, Note_on_c, 14, 57, 0
16, 212760, Note_on_c, 14, 55, 52
16, 212999, Note_on_c, 14, 55, 0
16, 213000, Note_on_c, 14, 53, 52
16, 213104, Note_on_c, 14, 53, 0
16, 213120, Note_on_c, 14, 58, 52
16, 213209, Note_on_c, 14, 58, 0
16, 213240, Note_on_c, 14, 58, 52
16, 213329, Note_on_c, 14, 58, 0
16, 213360, Note_on_c, 14, 57, 52
16, 213449, Note_on_c, 14, 57, 0
16, 213480, Note_on_c, 14, 55, 52
16, 213719, Note_on_c, 14, 55, 0
16, 213720, Note_on_c, 14, 53, 52
16, 213824, Note_on_c, 14, 53, 0
16, 213840, Note_on_c, 14, 58, 52
16, 214079, Note_on_c, 14, 58, 0
16, 214080, Note_on_c, 14, 57, 52
16, 214184, Note_on_c, 14, 57, 0
16, 214200, Note_on_c, 14, 62, 52
16, 214439, Note_on_c, 14, 62, 0
16, 214440, Note_on_c, 14, 61, 52
16, 214544, Note_on_c, 14, 61, 0
16, 214560, Note_on_c, 14, 52, 52
16, 214664, Note_on_c, 14, 52, 0
16, 214680, Note_on_c, 14, 64, 52
16, 214784, Note_on_c, 14, 64, 0
16, 214800, Note_on_c, 14, 64, 52
16, 214904, Note_on_c, 14, 64, 0
16, 214920, Note_on_c, 14, 57, 52
16, 215039, Note_on_c, 14, 57, 0
16, 215280, Note_on_c, 14, 52, 52
16, 215384, Note_on_c, 14, 52, 0
16, 215400, Note_on_c, 14, 64, 52
16, 215504, Note_on_c, 14, 64, 0
16, 215520, Note_on_c, 14, 64, 52
16, 215624, Note_on_c, 14, 64, 0
16, 215640, Note_on_c, 14, 57, 52
16, 215759, Note_on_c, 14, 57, 0
16, 216000, Note_on_c, 14, 52, 52
16, 216104, Note_on_c, 14, 52, 0
16, 216120, Note_on_c, 14, 64, 52
16, 216224, Note_on_c, 14, 64, 0
16, 216240, Note_on_c, 14, 64, 52
16, 216344, Note_on_c, 14, 64, 0
16, 216360, Note_on_c, 14, 57, 52
16, 216449, Note_on_c, 14, 57, 0
16, 216480, Note_on_c, 14, 64, 52
16, 216569, Note_on_c, 14, 64, 0
16, 216600, Note_on_c, 14, 61, 52
16, 216689, Note_on_c, 14, 61, 0
16, 216720, Note_on_c, 14, 57, 52
16, 216809, Note_on_c, 14, 57, 0
16, 216840, Note_on_c, 14, 52, 52
16, 216929, Note_on_c, 14, 52, 0
16, 216960, Note_on_c, 14, 49, 52
16, 217049, Note_on_c, 14, 49, 0
16, 217080, Note_on_c, 14, 45, 52
16, 217169, Note_on_c, 14, 45, 0
16, 217320, Note_on_c, 14, 45, 52
16, 217391, Note_on_c, 14, 45, 0
16, 217400, Note_on_c, 14, 45, 52
16, 217439, Note_on_c, 14, 45, 0
16, 217440, Note_on_c, 14, 49, 52
16, 217559, Note_on_c, 14, 49, 0
16, 217560, Note_on_c, 14, 45, 52
16, 217619, Note_on_c, 14, 45, 0
16, 223200, Note_on_c, 14, 44, 44
16, 223439, Note_on_c, 14, 44, 0
16, 223440, Note_on_c, 14, 43, 44
16, 223544, Note_on_c, 14, 43, 0
16, 223560, Note_on_c, 14, 44, 44
16, 223799, Note_on_c, 14, 44, 0
16, 223800, Note_on_c, 14, 43, 44
16, 223904, Note_on_c, 14, 43, 0
16, 223920, Note_on_c, 14, 44, 44
16, 224144, Note_on_c, 14, 44, 0
16, 224160, Note_on_c, 14, 43, 44
16, 224264, Note_on_c, 14, 43, 0
16, 224280, Note_on_c, 14, 43, 44
16, 224399, Note_on_c, 14, 43, 0
16, 228960, Note_on_c, 14, 42, 44
16, 229199, Note_on_c, 14, 42, 0
16, 229200, Note_on_c, 14, 41, 44
16, 229304, Note_on_c, 14, 41, 0
16, 229320, Note_on_c, 14, 42, 44
16, 229559, Note_on_c, 14, 42, 0
16, 229560, Note_on_c, 14, 41, 44
16, 229664, Note_on_c, 14, 41, 0
16, 229680, Note_on_c, 14, 42, 44
16, 229904, Note_on_c, 14, 42, 0
16, 229920, Note_on_c, 14, 41, 44
16, 230024, Note_on_c, 14, 41, 0
16, 230040, Note_on_c, 14, 41, 44
16, 230159, Note_on_c, 14, 41, 0
16, 231720, Program_c, 14, 45
16, 231840, Note_on_c, 14, 46, 40
16, 231959, Note_on_c, 14, 46, 0
16, 232200, Note_on_c, 14, 58, 40
16, 232319, Note_on_c, 14, 58, 0
16, 232560, Note_on_c, 14, 58, 40
16, 232679, Note_on_c, 14, 58, 0
16, 232920, Note_on_c, 14, 58, 40
16, 233039, Note_on_c, 14, 58, 0
16, 233280, Note_on_c, 14, 53, 40
16, 233399, Note_on_c, 14, 53, 0
16, 233640, Note_on_c, 14, 53, 40
16, 233759, Note_on_c, 14, 53, 0
16, 234000, Note_on_c, 14, 53, 40
16, 234119, Note_on_c, 14, 53, 0
16, 234360, Note_on_c, 14, 53, 40
16, 234479, Note_on_c, 14, 53, 0
16, 234720, Note_on_c, 14, 46, 40
16, 234839, Note_on_c, 14, 46, 0
16, 235080, Note_on_c, 14, 58, 40
16, 235199, Note_on_c, 14, 58, 0
16, 235440, Note_on_c, 14, 58, 42
16, 235559, Note_on_c, 14, 58, 0
16, 235800, Note_on_c, 14, 58, 44
16, 235919, Note_on_c, 14, 58, 0
16, 236160, Note_on_c, 14, 53, 46
16, 236279, Note_on_c, 14, 53, 0
16, 236520, Note_on_c, 14, 53, 48
16, 236639, Note_on_c, 14, 53, 0
16, 236880, Note_on_c, 14, 53, 50
16, 236999, Note_on_c, 14, 53, 0
16, 237240, Note_on_c, 14, 53, 53
16, 237359, Note_on_c, 14, 53, 0
16, 237600, Note_on_c, 14, 46, 55
16, 237719, Note_on_c, 14, 46, 0
16, 237840, Program_c, 14, 48
16, 237960, Note_on_c, 14, 65, 61
16, 238049, Note_on_c, 14, 65, 0
16, 238080, Note_on_c, 14, 65, 62
16, 238169, Note_on_c, 14, 65, 0
16, 238200, Note_on_c, 14, 64, 62
16, 238289, Note_on_c, 14, 64, 0
16, 238320, Note_on_c, 14, 62, 63
16, 238409, Note_on_c, 14, 62, 0
16, 238440, Note_on_c, 14, 62, 64
16, 238529, Note_on_c, 14, 62, 0
16, 238560, Note_on_c, 14, 60, 65
16, 238649, Note_on_c, 14, 60, 0
16, 238680, Note_on_c, 14, 58, 65
16, 238769, Note_on_c, 14, 58, 0
16, 238800, Note_on_c, 14, 58, 66
16, 238889, Note_on_c, 14, 58, 0
16, 238920, Note_on_c, 14, 57, 67
16, 239009, Note_on_c, 14, 57, 0
16, 239040, Note_on_c, 14, 55, 68
16, 239129, Note_on_c, 14, 55, 0
16, 239160, Note_on_c, 14, 55, 68
16, 239249, Note_on_c, 14, 55, 0
16, 239280, Note_on_c, 14, 53, 69
16, 239369, Note_on_c, 14, 53, 0
16, 239400, Note_on_c, 14, 52, 70
16, 239489, Note_on_c, 14, 52, 0
16, 239520, Note_on_c, 14, 52, 70
16, 239609, Note_on_c, 14, 52, 0
16, 239640, Note_on_c, 14, 50, 71
16, 239729, Note_on_c, 14, 50, 0
16, 239760, Note_on_c, 14, 48, 72
16, 239849, Note_on_c, 14, 48, 0
16, 239880, Note_on_c, 14, 48, 73
16, 239969, Note_on_c, 14, 48, 0
16, 240000, Note_on_c, 14, 46, 73
16, 240089, Note_on_c, 14, 46, 0
16, 240120, Note_on_c, 14, 45, 74
16, 240209, Note_on_c, 14, 45, 0
16, 240240, Note_on_c, 14, 43, 75
16, 240329, Note_on_c, 14, 43, 0
16, 240360, Note_on_c, 14, 41, 76
16, 240449, Note_on_c, 14, 41, 0
16, 240480, Note_on_c, 14, 41, 76
16, 240599, Note_on_c, 14, 41, 0
16, 240720, Note_on_c, 14, 41, 76
16, 240824, Note_on_c, 14, 41, 0
16, 240840, Note_on_c, 14, 41, 76
16, 240959, Note_on_c, 14, 41, 0
16, 241080, Note_on_c, 14, 41, 76
16, 241184, Note_on_c, 14, 41, 0
16, 241200, Note_on_c, 14, 41, 84
16, 241559, Note_on_c, 14, 41, 0
16, 241560, Note_on_c, 14, 41, 84
16, 241919, Note_on_c, 14, 41, 0
16, 241920, Note_on_c, 14, 41, 84
16, 242399, Note_on_c, 14, 41, 0
16, 242400, Note_on_c, 14, 40, 84
16, 242504, Note_on_c, 14, 40, 0
16, 242520, Note_on_c, 14, 40, 84
16, 242609, Note_on_c, 14, 40, 0
16, 242640, Note_on_c, 14, 40, 84
16, 242999, Note_on_c, 14, 40, 0
16, 243000, Note_on_c, 14, 40, 84
16, 243359, Note_on_c, 14, 40, 0
16, 243360, Note_on_c, 14, 40, 84
16, 243839, Note_on_c, 14, 40, 0
16, 243840, Note_on_c, 14, 41, 84
16, 243944, Note_on_c, 14, 41, 0
16, 243960, Note_on_c, 14, 41, 84
16, 244049, Note_on_c, 14, 41, 0
16, 244080, Note_on_c, 14, 53, 52
16, 244199, Note_on_c, 14, 53, 0
16, 244320, Program_c, 14, 45
16, 244440, Note_on_c, 14, 53, 44
16, 244559, Note_on_c, 14, 53, 0
16, 244800, Note_on_c, 14, 53, 44
16, 244919, Note_on_c, 14, 53, 0
16, 245160, Note_on_c, 14, 48, 44
16, 245279, Note_on_c, 14, 48, 0
16, 245400, Program_c, 14, 48
16, 245520, Note_on_c, 14, 55, 52
16, 245520, Note_on_c, 14, 48, 52
16, 245879, Note_on_c, 14, 55, 0
16, 245879, Note_on_c, 14, 48, 0
16, 245880, Note_on_c, 14, 55, 52
16, 245880, Note_on_c, 14, 48, 52
16, 246239, Note_on_c, 14, 55, 0
16, 246239, Note_on_c, 14, 48, 0
16, 246240, Note_on_c, 14, 48, 52
16, 246240, Note_on_c, 14, 55, 52
16, 246719, Note_on_c, 14, 48, 0
16, 246719, Note_on_c, 14, 55, 0
16, 246720, Note_on_c, 14, 53, 52
16, 246720, Note_on_c, 14, 57, 52
16, 246824, Note_on_c, 14, 53, 0
16, 246824, Note_on_c, 14, 57, 0
16, 246840, Note_on_c, 14, 57, 52
16, 246840, Note_on_c, 14, 53, 52
16, 246929, Note_on_c, 14, 57, 0
16, 246929, Note_on_c, 14, 53, 0
16, 246960, Note_on_c, 14, 58, 52
16, 247049, Note_on_c, 14, 58, 0
16, 247080, Note_on_c, 14, 58, 52
16, 247169, Note_on_c, 14, 58, 0
16, 247200, Note_on_c, 14, 57, 52
16, 247289, Note_on_c, 14, 57, 0
16, 247320, Note_on_c, 14, 55, 52
16, 247559, Note_on_c, 14, 55, 0
16, 247560, Note_on_c, 14, 53, 52
16, 247679, Note_on_c, 14, 53, 0
16, 248280, Control_c, 14, 11, 80
16, 248400, Note_on_c, 14, 58, 76
16, 248440, Control_c, 14, 11, 83
16, 248480, Control_c, 14, 11, 85
16, 248489, Note_on_c, 14, 58, 0
16, 248520, Note_on_c, 14, 58, 76
16, 248520, Control_c, 14, 11, 88
16, 248560, Control_c, 14, 11, 90
16, 248600, Control_c, 14, 11, 93
16, 248609, Note_on_c, 14, 58, 0
16, 248640, Note_on_c, 14, 57, 76
16, 248640, Control_c, 14, 11, 96
16, 248680, Control_c, 14, 11, 98
16, 248720, Control_c, 14, 11, 101
16, 248729, Note_on_c, 14, 57, 0
16, 248760, Note_on_c, 14, 55, 76
16, 248760, Control_c, 14, 11, 104
16, 248800, Control_c, 14, 11, 106
16, 248840, Control_c, 14, 11, 109
16, 248880, Control_c, 14, 11, 111
16, 248920, Control_c, 14, 11, 114
16, 248960, Control_c, 14, 11, 117
16, 248984, Note_on_c, 14, 55, 0
16, 249000, Control_c, 14, 11, 119
16, 249000, Note_on_c, 14, 53, 76
16, 249040, Control_c, 14, 11, 122
16, 249080, Control_c, 14, 11, 127
16, 249104, Note_on_c, 14, 53, 0
16, 249120, Note_on_c, 14, 58, 76
16, 249359, Note_on_c, 14, 58, 0
16, 249360, Note_on_c, 14, 57, 76
16, 249464, Note_on_c, 14, 57, 0
16, 249480, Note_on_c, 14, 62, 84
16, 249719, Note_on_c, 14, 62, 0
16, 249720, Note_on_c, 14, 60, 76
16, 249824, Note_on_c, 14, 60, 0
16, 249840, Note_on_c, 14, 65, 84
16, 250079, Note_on_c, 14, 65, 0
16, 250080, Note_on_c, 14, 64, 76
16, 250184, Note_on_c, 14, 64, 0
16, 250200, Note_on_c, 14, 62, 84
16, 250439, Note_on_c, 14, 62, 0
16, 250440, Note_on_c, 14, 60, 76
16, 250544, Note_on_c, 14, 60, 0
16, 250560, Note_on_c, 14, 55, 52
16, 250664, Note_on_c, 14, 55, 0
16, 250680, Note_on_c, 14, 67, 52
16, 250784, Note_on_c, 14, 67, 0
16, 250800, Note_on_c, 14, 67, 52
16, 250904, Note_on_c, 14, 67, 0
16, 250920, Note_on_c, 14, 60, 52
16, 251039, Note_on_c, 14, 60, 0
16, 251280, Note_on_c, 14, 55, 52
16, 251384, Note_on_c, 14, 55, 0
16, 251400, Note_on_c, 14, 67, 52
16, 251504, Note_on_c, 14, 67, 0
16, 251520, Note_on_c, 14, 67, 52
16, 251624, Note_on_c, 14, 67, 0
16, 251640, Note_on_c, 14, 60, 52
16, 251759, Note_on_c, 14, 60, 0
16, 252000, Note_on_c, 14, 55, 52
16, 252104, Note_on_c, 14, 55, 0
16, 252120, Note_on_c, 14, 55, 54
16, 252224, Note_on_c, 14, 55, 0
16, 252240, Note_on_c, 14, 67, 57
16, 252344, Note_on_c, 14, 67, 0
16, 252360, Note_on_c, 14, 60, 60
16, 252479, Note_on_c, 14, 60, 0
16, 252720, Note_on_c, 14, 55, 68
16, 252824, Note_on_c, 14, 55, 0
16, 252840, Note_on_c, 14, 67, 70
16, 252944, Note_on_c, 14, 67, 0
16, 252960, Note_on_c, 14, 67, 73
16, 253064, Note_on_c, 14, 67, 0
16, 253080, Note_on_c, 14, 60, 76
16, 253199, Note_on_c, 14, 60, 0
16, 253440, Note_on_c, 14, 48, 84
16, 253544, Note_on_c, 14, 48, 0
16, 253560, Note_on_c, 14, 60, 84
16, 253664, Note_on_c, 14, 60, 0
16, 253680, Note_on_c, 14, 60, 84
16, 253784, Note_on_c, 14, 60, 0
16, 253800, Note_on_c, 14, 41, 84
16, 253904, Note_on_c, 14, 41, 0
16, 253920, Note_on_c, 14, 53, 84
16, 254024, Note_on_c, 14, 53, 0
16, 254040, Note_on_c, 14, 53, 84
16, 254144, Note_on_c, 14, 53, 0
16, 254160, Note_on_c, 14, 48, 84
16, 254264, Note_on_c, 14, 48, 0
16, 254280, Note_on_c, 14, 60, 84
16, 254384, Note_on_c, 14, 60, 0
16, 254400, Note_on_c, 14, 60, 84
16, 254504, Note_on_c, 14, 60, 0
16, 254520, Note_on_c, 14, 41, 84
16, 254624, Note_on_c, 14, 41, 0
16, 254640, Note_on_c, 14, 53, 84
16, 254744, Note_on_c, 14, 53, 0
16, 254760, Note_on_c, 14, 53, 84
16, 254864, Note_on_c, 14, 53, 0
16, 254880, Note_on_c, 14, 48, 84
16, 254984, Note_on_c, 14, 48, 0
16, 255000, Note_on_c, 14, 60, 84
16, 255104, Note_on_c, 14, 60, 0
16, 255120, Note_on_c, 14, 60, 84
16, 255224, Note_on_c, 14, 60, 0
16, 255240, Note_on_c, 14, 41, 84
16, 255344, Note_on_c, 14, 41, 0
16, 255360, Note_on_c, 14, 53, 84
16, 255464, Note_on_c, 14, 53, 0
16, 255480, Note_on_c, 14, 53, 84
16, 255584, Note_on_c, 14, 53, 0
16, 255600, Note_on_c, 14, 48, 84
16, 255704, Note_on_c, 14, 48, 0
16, 255720, Note_on_c, 14, 60, 84
16, 255824, Note_on_c, 14, 60, 0
16, 255840, Note_on_c, 14, 60, 84
16, 255944, Note_on_c, 14, 60, 0
16, 255960, Note_on_c, 14, 41, 84
16, 256064, Note_on_c, 14, 41, 0
16, 256080, Note_on_c, 14, 53, 84
16, 256184, Note_on_c, 14, 53, 0
16, 256200, Note_on_c, 14, 53, 84
16, 256304, Note_on_c, 14, 53, 0
16, 256320, Note_on_c, 14, 48, 84
16, 256424, Note_on_c, 14, 48, 0
16, 256440, Note_on_c, 14, 60, 84
16, 256544, Note_on_c, 14, 60, 0
16, 256560, Note_on_c, 14, 60, 84
16, 256664, Note_on_c, 14, 60, 0
16, 256680, Note_on_c, 14, 53, 84
16, 256784, Note_on_c, 14, 53, 0
16, 256800, Note_on_c, 14, 60, 84
16, 256904, Note_on_c, 14, 60, 0
16, 256920, Note_on_c, 14, 57, 84
16, 257024, Note_on_c, 14, 57, 0
16, 257040, Note_on_c, 14, 53, 84
16, 257144, Note_on_c, 14, 53, 0
16, 257160, Note_on_c, 14, 60, 84
16, 257264, Note_on_c, 14, 60, 0
16, 257280, Note_on_c, 14, 57, 84
16, 257384, Note_on_c, 14, 57, 0
16, 257400, Note_on_c, 14, 53, 84
16, 257504, Note_on_c, 14, 53, 0
16, 257520, Note_on_c, 14, 48, 84
16, 257624, Note_on_c, 14, 48, 0
16, 257640, Note_on_c, 14, 41, 84
16, 257711, Note_on_c, 14, 41, 0
16, 257720, Note_on_c, 14, 41, 84
16, 257759, Note_on_c, 14, 41, 0
16, 257760, Note_on_c, 14, 45, 92
16, 257879, Note_on_c, 14, 45, 0
16, 257880, Note_on_c, 14, 41, 84
16, 257939, Note_on_c, 14, 41, 0
16, 259080, Note_on_c, 14, 41, 84
16, 259151, Note_on_c, 14, 41, 0
16, 259160, Note_on_c, 14, 41, 84
16, 259199, Note_on_c, 14, 41, 0
16, 259200, Note_on_c, 14, 45, 92
16, 259319, Note_on_c, 14, 45, 0
16, 259320, Note_on_c, 14, 41, 84
16, 259379, Note_on_c, 14, 41, 0
16, 259440, Note_on_c, 14, 41, 84
16, 259511, Note_on_c, 14, 41, 0
16, 259520, Note_on_c, 14, 41, 84
16, 259559, Note_on_c, 14, 41, 0
16, 259560, Note_on_c, 14, 45, 92
16, 259679, Note_on_c, 14, 45, 0
16, 259680, Note_on_c, 14, 41, 84
16, 259784, Note_on_c, 14, 41, 0
16, 259800, Note_on_c, 14, 41, 84
16, 259871, Note_on_c, 14, 41, 0
16, 259880, Note_on_c, 14, 41, 84
16, 259919, Note_on_c, 14, 41, 0
16, 259920, Note_on_c, 14, 45, 92
16, 260039, Note_on_c, 14, 45, 0
16, 260040, Note_on_c, 14, 41, 84
16, 260144, Note_on_c, 14, 41, 0
16, 260160, Note_on_c, 14, 41, 84
16, 260231, Note_on_c, 14, 41, 0
16, 260240, Note_on_c, 14, 41, 84
16, 260279, Note_on_c, 14, 41, 0
16, 260280, Note_on_c, 14, 45, 92
16, 260399, Note_on_c, 14, 45, 0
16, 260400, Note_on_c, 14, 41, 84
16, 260504, Note_on_c, 14, 41, 0
16, 260520, Note_on_c, 14, 41, 84
16, 260609, Note_on_c, 14, 41, 0
16, 260640, Control_c, 14, 11, 127
16, 260640, Note_on_c, 14, 45, 84
16, 260680, Control_c, 14, 11, 125
16, 260720, Control_c, 14, 11, 124
16, 260760, Control_c, 14, 11, 122
16, 260800, Control_c, 14, 11, 120
16, 260840, Control_c, 14, 11, 118
16, 260880, Control_c, 14, 11, 117
16, 260920, Control_c, 14, 11, 115
16, 260960, Control_c, 14, 11, 113
16, 260999, Note_on_c, 14, 45, 0
16, 261000, Note_on_c, 14, 45, 84
16, 261000, Control_c, 14, 11, 111
16, 261040, Control_c, 14, 11, 110
16, 261080, Control_c, 14, 11, 108
16, 261120, Control_c, 14, 11, 106
16, 261160, Control_c, 14, 11, 104
16, 261200, Control_c, 14, 11, 103
16, 261240, Control_c, 14, 11, 101
16, 261280, Control_c, 14, 11, 99
16, 261320, Control_c, 14, 11, 97
16, 261359, Note_on_c, 14, 45, 0
16, 261360, Control_c, 14, 11, 96
16, 261360, Note_on_c, 14, 45, 84
16, 261400, Control_c, 14, 11, 94
16, 261440, Control_c, 14, 11, 92
16, 261480, Control_c, 14, 11, 90
16, 261520, Control_c, 14, 11, 89
16, 261560, Control_c, 14, 11, 87
16, 261600, Control_c, 14, 11, 85
16, 261640, Control_c, 14, 11, 83
16, 261680, Control_c, 14, 11, 82
16, 261719, Note_on_c, 14, 45, 0
16, 261720, Control_c, 14, 11, 80
16, 261720, Note_on_c, 14, 45, 84
16, 261760, Control_c, 14, 11, 78
16, 261800, Control_c, 14, 11, 76
16, 261840, Control_c, 14, 11, 75
16, 261880, Control_c, 14, 11, 73
16, 261920, Control_c, 14, 11, 71
16, 261960, Control_c, 14, 11, 69
16, 262000, Control_c, 14, 11, 68
16, 262040, Control_c, 14, 11, 64
16, 262064, Note_on_c, 14, 45, 0
16, 262080, Note_on_c, 14, 50, 84
16, 262319, Note_on_c, 14, 50, 0
16, 262800, Control_c, 14, 11, 127
16, 302400, Control_c, 14, 11, 113
16, 302640, Note_on_c, 14, 45, 84
16, 302651, Control_c, 14, 11, 114
16, 302743, Control_c, 14, 11, 115
16, 302834, Control_c, 14, 11, 116
16, 302926, Control_c, 14, 11, 117
16, 303017, Control_c, 14, 11, 118
16, 303099, Note_on_c, 14, 45, 0
16, 303109, Control_c, 14, 11, 119
16, 303120, Note_on_c, 14, 45, 84
16, 303200, Control_c, 14, 11, 120
16, 303291, Control_c, 14, 11, 121
16, 303383, Control_c, 14, 11, 122
16, 303474, Control_c, 14, 11, 123
16, 303566, Control_c, 14, 11, 124
16, 303579, Note_on_c, 14, 45, 0
16, 303600, Note_on_c, 14, 45, 84
16, 303657, Control_c, 14, 11, 125
16, 303749, Control_c, 14, 11, 127
16, 303819, Note_on_c, 14, 45, 0
16, 303840, Note_on_c, 14, 50, 84
16, 304439, Note_on_c, 14, 50, 0
16, 304440, Note_on_c, 14, 45, 84
16, 304559, Note_on_c, 14, 45, 0
16, 304560, Note_on_c, 14, 50, 84
16, 304799, Note_on_c, 14, 50, 0
16, 305280, Note_on_c, 14, 50, 84
16, 305879, Note_on_c, 14, 50, 0
16, 305880, Note_on_c, 14, 45, 84
16, 305999, Note_on_c, 14, 45, 0
16, 306000, Note_on_c, 14, 50, 84
16, 306239, Note_on_c, 14, 50, 0
16, 306720, Note_on_c, 14, 50, 84
16, 307199, Note_on_c, 14, 50, 0
16, 307200, Note_on_c, 14, 45, 84
16, 307419, Note_on_c, 14, 45, 0
16, 307440, Note_on_c, 14, 50, 84
16, 307679, Note_on_c, 14, 50, 0
16, 307680, Note_on_c, 14, 45, 84
16, 307899, Note_on_c, 14, 45, 0
16, 307920, Note_on_c, 14, 50, 84
16, 308099, Note_on_c, 14, 50, 0
16, 308160, Note_on_c, 14, 45, 84
16, 308399, Note_on_c, 14, 45, 0
16, 309600, Note_on_c, 14, 45, 84
16, 310319, Note_on_c, 14, 45, 0
16, 310320, Note_on_c, 14, 45, 84
16, 310559, Note_on_c, 14, 45, 0
16, 311040, Note_on_c, 14, 45, 84
16, 311759, Note_on_c, 14, 45, 0
16, 311760, Note_on_c, 14, 45, 84
16, 311999, Note_on_c, 14, 45, 0
16, 312480, Note_on_c, 14, 45, 84
16, 312959, Note_on_c, 14, 45, 0
16, 312960, Note_on_c, 14, 50, 84
16, 313199, Note_on_c, 14, 50, 0
16, 313200, Note_on_c, 14, 45, 84
16, 313439, Note_on_c, 14, 45, 0
16, 313440, Note_on_c, 14, 57, 84
16, 313659, Note_on_c, 14, 57, 0
16, 313680, Note_on_c, 14, 45, 84
16, 313859, Note_on_c, 14, 45, 0
16, 313920, Note_on_c, 14, 50, 84
16, 314159, Note_on_c, 14, 50, 0
16, 332640, Control_c, 14, 11, 113
16, 332880, Note_on_c, 14, 45, 84
16, 332891, Control_c, 14, 11, 114
16, 332983, Control_c, 14, 11, 115
16, 333074, Control_c, 14, 11, 116
16, 333166, Control_c, 14, 11, 117
16, 333257, Control_c, 14, 11, 118
16, 333339, Note_on_c, 14, 45, 0
16, 333349, Control_c, 14, 11, 119
16, 333360, Note_on_c, 14, 45, 84
16, 333440, Control_c, 14, 11, 120
16, 333531, Control_c, 14, 11, 121
16, 333623, Control_c, 14, 11, 122
16, 333714, Control_c, 14, 11, 123
16, 333806, Control_c, 14, 11, 124
16, 333819, Note_on_c, 14, 45, 0
16, 333840, Note_on_c, 14, 45, 84
16, 333897, Control_c, 14, 11, 125
16, 333989, Control_c, 14, 11, 127
16, 334059, Note_on_c, 14, 45, 0
16, 334080, Note_on_c, 14, 50, 84
16, 334679, Note_on_c, 14, 50, 0
16, 334680, Note_on_c, 14, 45, 84
16, 334799, Note_on_c, 14, 45, 0
16, 334800, Note_on_c, 14, 50, 84
16, 335039, Note_on_c, 14, 50, 0
16, 335520, Note_on_c, 14, 50, 84
16, 336119, Note_on_c, 14, 50, 0
16, 336120, Note_on_c, 14, 45, 84
16, 336239, Note_on_c, 14, 45, 0
16, 336240, Note_on_c, 14, 50, 84
16, 336479, Note_on_c, 14, 50, 0
16, 336960, Note_on_c, 14, 50, 84
16, 337439, Note_on_c, 14, 50, 0
16, 337440, Note_on_c, 14, 45, 84
16, 337659, Note_on_c, 14, 45, 0
16, 337680, Note_on_c, 14, 50, 84
16, 337919, Note_on_c, 14, 50, 0
16, 337920, Note_on_c, 14, 45, 84
16, 338139, Note_on_c, 14, 45, 0
16, 338160, Note_on_c, 14, 50, 84
16, 338339, Note_on_c, 14, 50, 0
16, 338400, Note_on_c, 14, 45, 84
16, 338639, Note_on_c, 14, 45, 0
16, 339840, Note_on_c, 14, 45, 84
16, 340559, Note_on_c, 14, 45, 0
16, 340560, Note_on_c, 14, 45, 84
16, 340799, Note_on_c, 14, 45, 0
16, 341280, Note_on_c, 14, 45, 84
16, 341999, Note_on_c, 14, 45, 0
16, 342000, Note_on_c, 14, 45, 84
16, 342239, Note_on_c, 14, 45, 0
16, 342720, Note_on_c, 14, 45, 84
16, 343199, Note_on_c, 14, 45, 0
16, 343200, Note_on_c, 14, 50, 84
16, 343439, Note_on_c, 14, 50, 0
16, 343440, Note_on_c, 14, 45, 84
16, 343679, Note_on_c, 14, 45, 0
16, 343680, Note_on_c, 14, 57, 84
16, 343899, Note_on_c, 14, 57, 0
16, 343920, Note_on_c, 14, 45, 84
16, 344099, Note_on_c, 14, 45, 0
16, 344160, Note_on_c, 14, 50, 84
16, 344399, Note_on_c, 14, 50, 0
16, 345600, Note_on_c, 14, 50, 52
16, 346319, Note_on_c, 14, 50, 0
16, 346320, Note_on_c, 14, 50, 52
16, 347019, Note_on_c, 14, 50, 0
16, 347040, Control_c, 14, 11, 127
16, 347040, Note_on_c, 14, 49, 52
16, 347272, Control_c, 14, 11, 126
16, 347505, Control_c, 14, 11, 125
16, 347737, Control_c, 14, 11, 124
16, 347759, Note_on_c, 14, 49, 0
16, 347760, Note_on_c, 14, 49, 52
16, 347969, Control_c, 14, 11, 123
16, 348201, Control_c, 14, 11, 122
16, 348434, Control_c, 14, 11, 121
16, 348459, Note_on_c, 14, 49, 0
16, 348480, Note_on_c, 14, 50, 52
16, 348666, Control_c, 14, 11, 120
16, 348898, Control_c, 14, 11, 119
16, 349130, Control_c, 14, 11, 118
16, 349199, Note_on_c, 14, 50, 0
16, 349200, Note_on_c, 14, 50, 52
16, 349363, Control_c, 14, 11, 117
16, 349595, Control_c, 14, 11, 116
16, 349827, Control_c, 14, 11, 115
16, 349899, Note_on_c, 14, 50, 0
16, 349920, Note_on_c, 14, 45, 52
16, 350059, Control_c, 14, 11, 114
16, 350292, Control_c, 14, 11, 113
16, 350524, Control_c, 14, 11, 112
16, 350639, Note_on_c, 14, 45, 0
16, 350640, Note_on_c, 14, 45, 52
16, 350756, Control_c, 14, 11, 111
16, 350988, Control_c, 14, 11, 110
16, 351221, Control_c, 14, 11, 109
16, 351339, Note_on_c, 14, 45, 0
16, 351360, Note_on_c, 14, 50, 52
16, 351453, Control_c, 14, 11, 108
16, 351685, Control_c, 14, 11, 107
16, 351917, Control_c, 14, 11, 106
16, 352079, Note_on_c, 14, 50, 0
16, 352080, Note_on_c, 14, 50, 52
16, 352150, Control_c, 14, 11, 105
16, 352382, Control_c, 14, 11, 104
16, 352614, Control_c, 14, 11, 103
16, 352779, Note_on_c, 14, 50, 0
16, 352800, Note_on_c, 14, 49, 52
16, 352846, Control_c, 14, 11, 102
16, 353079, Control_c, 14, 11, 101
16, 353311, Control_c, 14, 11, 100
16, 353519, Note_on_c, 14, 49, 0
16, 353520, Note_on_c, 14, 49, 52
16, 353543, Control_c, 14, 11, 99
16, 353775, Control_c, 14, 11, 98
16, 354008, Control_c, 14, 11, 96
16, 354219, Note_on_c, 14, 49, 0
16, 354240, Note_on_c, 14, 48, 52
16, 354839, Note_on_c, 14, 48, 0
16, 354840, Note_on_c, 14, 47, 52
16, 354959, Note_on_c, 14, 47, 0
16, 354960, Note_on_c, 14, 48, 52
16, 355199, Note_on_c, 14, 48, 0
16, 355438, Control_c, 14, 11, 127
16, 355440, Note_on_c, 14, 41, 76
16, 355544, Note_on_c, 14, 41, 0
16, 355560, Note_on_c, 14, 41, 76
16, 355679, Note_on_c, 14, 41, 0
16, 355800, Note_on_c, 14, 41, 76
16, 355904, Note_on_c, 14, 41, 0
16, 355920, Note_on_c, 14, 41, 76
16, 356039, Note_on_c, 14, 41, 0
16, 356160, Note_on_c, 14, 41, 76
16, 356264, Note_on_c, 14, 41, 0
16, 356280, Note_on_c, 14, 41, 52
16, 356399, Note_on_c, 14, 41, 0
16, 356640, Note_on_c, 14, 53, 52
16, 356759, Note_on_c, 14, 53, 0
16, 357000, Note_on_c, 14, 53, 52
16, 357119, Note_on_c, 14, 53, 0
16, 357360, Note_on_c, 14, 48, 52
16, 357479, Note_on_c, 14, 48, 0
16, 357720, Note_on_c, 14, 48, 52
16, 357839, Note_on_c, 14, 48, 0
16, 358080, Note_on_c, 14, 48, 52
16, 358199, Note_on_c, 14, 48, 0
16, 358440, Note_on_c, 14, 48, 52
16, 358559, Note_on_c, 14, 48, 0
16, 358800, Note_on_c, 14, 53, 52
16, 358919, Note_on_c, 14, 53, 0
16, 359160, Note_on_c, 14, 58, 52
16, 359249, Note_on_c, 14, 58, 0
16, 359280, Note_on_c, 14, 58, 52
16, 359369, Note_on_c, 14, 58, 0
16, 359400, Note_on_c, 14, 57, 52
16, 359489, Note_on_c, 14, 57, 0
16, 359520, Note_on_c, 14, 55, 52
16, 359759, Note_on_c, 14, 55, 0
16, 359760, Note_on_c, 14, 53, 52
16, 359864, Note_on_c, 14, 53, 0
16, 359880, Note_on_c, 14, 58, 52
16, 359969, Note_on_c, 14, 58, 0
16, 360000, Note_on_c, 14, 58, 56
16, 360089, Note_on_c, 14, 58, 0
16, 360120, Note_on_c, 14, 57, 60
16, 360209, Note_on_c, 14, 57, 0
16, 360240, Note_on_c, 14, 55, 64
16, 360479, Note_on_c, 14, 55, 0
16, 360480, Note_on_c, 14, 53, 72
16, 360584, Note_on_c, 14, 53, 0
16, 360600, Note_on_c, 14, 58, 84
16, 360839, Note_on_c, 14, 58, 0
16, 360840, Note_on_c, 14, 57, 76
16, 360944, Note_on_c, 14, 57, 0
16, 360960, Note_on_c, 14, 62, 84
16, 361199, Note_on_c, 14, 62, 0
16, 361200, Note_on_c, 14, 61, 76
16, 361304, Note_on_c, 14, 61, 0
16, 361320, Note_on_c, 14, 52, 76
16, 361424, Note_on_c, 14, 52, 0
16, 361440, Note_on_c, 14, 64, 76
16, 361544, Note_on_c, 14, 64, 0
16, 361560, Note_on_c, 14, 64, 76
16, 361664, Note_on_c, 14, 64, 0
16, 361680, Note_on_c, 14, 57, 76
16, 361799, Note_on_c, 14, 57, 0
16, 362040, Note_on_c, 14, 52, 76
16, 362144, Note_on_c, 14, 52, 0
16, 362160, Note_on_c, 14, 64, 76
16, 362264, Note_on_c, 14, 64, 0
16, 362280, Note_on_c, 14, 64, 76
16, 362384, Note_on_c, 14, 64, 0
16, 362400, Note_on_c, 14, 57, 76
16, 362519, Note_on_c, 14, 57, 0
16, 362760, Note_on_c, 14, 52, 76
16, 362864, Note_on_c, 14, 52, 0
16, 362880, Note_on_c, 14, 64, 76
16, 362984, Note_on_c, 14, 64, 0
16, 363000, Note_on_c, 14, 64, 76
16, 363104, Note_on_c, 14, 64, 0
16, 363120, Note_on_c, 14, 57, 76
16, 363209, Note_on_c, 14, 57, 0
16, 363240, Note_on_c, 14, 64, 76
16, 363329, Note_on_c, 14, 64, 0
16, 363360, Note_on_c, 14, 61, 76
16, 363449, Note_on_c, 14, 61, 0
16, 363480, Note_on_c, 14, 57, 76
16, 363569, Note_on_c, 14, 57, 0
16, 363600, Note_on_c, 14, 52, 76
16, 363689, Note_on_c, 14, 52, 0
16, 363720, Note_on_c, 14, 49, 76
16, 363809, Note_on_c, 14, 49, 0
16, 363840, Note_on_c, 14, 45, 76
16, 363929, Note_on_c, 14, 45, 0
16, 364080, Note_on_c, 14, 45, 76
16, 364151, Note_on_c, 14, 45, 0
16, 364160, Note_on_c, 14, 45, 76
16, 364199, Note_on_c, 14, 45, 0
16, 364200, Note_on_c, 14, 49, 84
16, 364319, Note_on_c, 14, 49, 0
16, 364320, Note_on_c, 14, 45, 76
16, 364379, Note_on_c, 14, 45, 0
16, 369960, Note_on_c, 14, 44, 44
16, 370199, Note_on_c, 14, 44, 0
16, 370200, Note_on_c, 14, 43, 44
16, 370304, Note_on_c, 14, 43, 0
16, 370320, Note_on_c, 14, 44, 44
16, 370559, Note_on_c, 14, 44, 0
16, 370560, Note_on_c, 14, 43, 44
16, 370664, Note_on_c, 14, 43, 0
16, 370680, Note_on_c, 14, 44, 44
16, 370904, Note_on_c, 14, 44, 0
16, 370920, Note_on_c, 14, 43, 84
16, 371024, Note_on_c, 14, 43, 0
16, 371040, Note_on_c, 14, 43, 84
16, 371159, Note_on_c, 14, 43, 0
16, 375720, Note_on_c, 14, 42, 44
16, 375959, Note_on_c, 14, 42, 0
16, 375960, Note_on_c, 14, 41, 44
16, 376064, Note_on_c, 14, 41, 0
16, 376080, Note_on_c, 14, 42, 44
16, 376319, Note_on_c, 14, 42, 0
16, 376320, Note_on_c, 14, 41, 44
16, 376424, Note_on_c, 14, 41, 0
16, 376440, Note_on_c, 14, 42, 44
16, 376664, Note_on_c, 14, 42, 0
16, 376680, Note_on_c, 14, 41, 84
16, 376784, Note_on_c, 14, 41, 0
16, 376800, Note_on_c, 14, 41, 84
16, 376919, Note_on_c, 14, 41, 0
16, 378480, Program_c, 14, 45
16, 378600, Note_on_c, 14, 46, 44
16, 378719, Note_on_c, 14, 46, 0
16, 378960, Note_on_c, 14, 58, 44
16, 379079, Note_on_c, 14, 58, 0
16, 379320, Note_on_c, 14, 58, 44
16, 379439, Note_on_c, 14, 58, 0
16, 379680, Note_on_c, 14, 58, 44
16, 379799, Note_on_c, 14, 58, 0
16, 380040, Note_on_c, 14, 53, 44
16, 380159, Note_on_c, 14, 53, 0
16, 380400, Note_on_c, 14, 53, 44
16, 380519, Note_on_c, 14, 53, 0
16, 380760, Note_on_c, 14, 53, 44
16, 380879, Note_on_c, 14, 53, 0
16, 381120, Note_on_c, 14, 53, 44
16, 381239, Note_on_c, 14, 53, 0
16, 381480, Note_on_c, 14, 46, 44
16, 381599, Note_on_c, 14, 46, 0
16, 381840, Note_on_c, 14, 58, 44
16, 381959, Note_on_c, 14, 58, 0
16, 382200, Note_on_c, 14, 58, 45
16, 382319, Note_on_c, 14, 58, 0
16, 382560, Note_on_c, 14, 58, 47
16, 382679, Note_on_c, 14, 58, 0
16, 382920, Note_on_c, 14, 53, 48
16, 383039, Note_on_c, 14, 53, 0
16, 383280, Note_on_c, 14, 53, 50
16, 383399, Note_on_c, 14, 53, 0
16, 383640, Note_on_c, 14, 53, 52
16, 383759, Note_on_c, 14, 53, 0
16, 384000, Note_on_c, 14, 53, 53
16, 384119, Note_on_c, 14, 53, 0
16, 384360, Note_on_c, 14, 46, 55
16, 384479, Note_on_c, 14, 46, 0
16, 384600, Program_c, 14, 48
16, 384720, Note_on_c, 14, 65, 65
16, 384809, Note_on_c, 14, 65, 0
16, 384840, Note_on_c, 14, 65, 65
16, 384929, Note_on_c, 14, 65, 0
16, 384960, Note_on_c, 14, 64, 66
16, 385049, Note_on_c, 14, 64, 0
16, 385080, Note_on_c, 14, 62, 66
16, 385169, Note_on_c, 14, 62, 0
16, 385200, Note_on_c, 14, 62, 67
16, 385289, Note_on_c, 14, 62, 0
16, 385320, Note_on_c, 14, 60, 67
16, 385409, Note_on_c, 14, 60, 0
16, 385440, Note_on_c, 14, 58, 68
16, 385529, Note_on_c, 14, 58, 0
16, 385560, Note_on_c, 14, 58, 68
16, 385649, Note_on_c, 14, 58, 0
16, 385680, Note_on_c, 14, 57, 69
16, 385769, Note_on_c, 14, 57, 0
16, 385800, Note_on_c, 14, 55, 70
16, 385889, Note_on_c, 14, 55, 0
16, 385920, Note_on_c, 14, 55, 70
16, 386009, Note_on_c, 14, 55, 0
16, 386040, Note_on_c, 14, 53, 71
16, 386129, Note_on_c, 14, 53, 0
16, 386160, Note_on_c, 14, 52, 71
16, 386249, Note_on_c, 14, 52, 0
16, 386280, Note_on_c, 14, 52, 72
16, 386369, Note_on_c, 14, 52, 0
16, 386400, Note_on_c, 14, 50, 72
16, 386489, Note_on_c, 14, 50, 0
16, 386520, Note_on_c, 14, 48, 73
16, 386609, Note_on_c, 14, 48, 0
16, 386640, Note_on_c, 14, 48, 73
16, 386729, Note_on_c, 14, 48, 0
16, 386760, Note_on_c, 14, 46, 74
16, 386849, Note_on_c, 14, 46, 0
16, 386880, Note_on_c, 14, 45, 74
16, 386969, Note_on_c, 14, 45, 0
16, 387000, Note_on_c, 14, 43, 75
16, 387089, Note_on_c, 14, 43, 0
16, 387120, Note_on_c, 14, 41, 76
16, 387209, Note_on_c, 14, 41, 0
16, 387240, Note_on_c, 14, 41, 76
16, 387359, Note_on_c, 14, 41, 0
16, 387480, Note_on_c, 14, 41, 76
16, 387584, Note_on_c, 14, 41, 0
16, 387600, Note_on_c, 14, 41, 76
16, 387719, Note_on_c, 14, 41, 0
16, 387840, Note_on_c, 14, 41, 76
16, 387944, Note_on_c, 14, 41, 0
16, 387960, Note_on_c, 14, 41, 84
16, 388319, Note_on_c, 14, 41, 0
16, 388320, Note_on_c, 14, 41, 84
16, 388679, Note_on_c, 14, 41, 0
16, 388680, Note_on_c, 14, 41, 84
16, 389159, Note_on_c, 14, 41, 0
16, 389160, Note_on_c, 14, 40, 84
16, 389264, Note_on_c, 14, 40, 0
16, 389280, Note_on_c, 14, 40, 84
16, 389369, Note_on_c, 14, 40, 0
16, 389400, Note_on_c, 14, 40, 84
16, 389759, Note_on_c, 14, 40, 0
16, 389760, Note_on_c, 14, 40, 84
16, 390119, Note_on_c, 14, 40, 0
16, 390120, Note_on_c, 14, 40, 84
16, 390599, Note_on_c, 14, 40, 0
16, 390600, Note_on_c, 14, 41, 84
16, 390704, Note_on_c, 14, 41, 0
16, 390720, Note_on_c, 14, 41, 84
16, 390809, Note_on_c, 14, 41, 0
16, 390840, Note_on_c, 14, 53, 52
16, 390959, Note_on_c, 14, 53, 0
16, 391080, Program_c, 14, 45
16, 391200, Note_on_c, 14, 53, 44
16, 391319, Note_on_c, 14, 53, 0
16, 391560, Note_on_c, 14, 53, 44
16, 391679, Note_on_c, 14, 53, 0
16, 391920, Note_on_c, 14, 48, 44
16, 392039, Note_on_c, 14, 48, 0
16, 392160, Program_c, 14, 48
16, 392280, Note_on_c, 14, 48, 52
16, 392280, Note_on_c, 14, 55, 52
16, 392639, Note_on_c, 14, 48, 0
16, 392639, Note_on_c, 14, 55, 0
16, 392640, Note_on_c, 14, 48, 52
16, 392640, Note_on_c, 14, 55, 52
16, 392999, Note_on_c, 14, 48, 0
16, 392999, Note_on_c, 14, 55, 0
16, 393000, Note_on_c, 14, 55, 52
16, 393000, Note_on_c, 14, 48, 52
16, 393479, Note_on_c, 14, 55, 0
16, 393479, Note_on_c, 14, 48, 0
16, 393480, Note_on_c, 14, 53, 52
16, 393480, Note_on_c, 14, 57, 52
16, 393584, Note_on_c, 14, 53, 0
16, 393584, Note_on_c, 14, 57, 0
16, 393600, Note_on_c, 14, 57, 52
16, 393600, Note_on_c, 14, 53, 52
16, 393689, Note_on_c, 14, 57, 0
16, 393689, Note_on_c, 14, 53, 0
16, 393720, Note_on_c, 14, 58, 52
16, 393809, Note_on_c, 14, 58, 0
16, 393840, Note_on_c, 14, 58, 52
16, 393929, Note_on_c, 14, 58, 0
16, 393960, Note_on_c, 14, 57, 52
16, 394049, Note_on_c, 14, 57, 0
16, 394080, Note_on_c, 14, 55, 52
16, 394319, Note_on_c, 14, 55, 0
16, 394320, Note_on_c, 14, 53, 52
16, 394439, Note_on_c, 14, 53, 0
16, 395040, Control_c, 14, 11, 80
16, 395160, Note_on_c, 14, 58, 76
16, 395200, Control_c, 14, 11, 83
16, 395240, Control_c, 14, 11, 85
16, 395249, Note_on_c, 14, 58, 0
16, 395280, Note_on_c, 14, 58, 76
16, 395280, Control_c, 14, 11, 88
16, 395320, Control_c, 14, 11, 90
16, 395360, Control_c, 14, 11, 93
16, 395369, Note_on_c, 14, 58, 0
16, 395400, Control_c, 14, 11, 96
16, 395400, Note_on_c, 14, 57, 76
16, 395440, Control_c, 14, 11, 98
16, 395480, Control_c, 14, 11, 101
16, 395489, Note_on_c, 14, 57, 0
16, 395520, Note_on_c, 14, 55, 76
16, 395520, Control_c, 14, 11, 104
16, 395560, Control_c, 14, 11, 106
16, 395600, Control_c, 14, 11, 109
16, 395640, Control_c, 14, 11, 111
16, 395680, Control_c, 14, 11, 114
16, 395720, Control_c, 14, 11, 117
16, 395744, Note_on_c, 14, 55, 0
16, 395760, Control_c, 14, 11, 119
16, 395760, Note_on_c, 14, 53, 76
16, 395800, Control_c, 14, 11, 122
16, 395840, Control_c, 14, 11, 127
16, 395864, Note_on_c, 14, 53, 0
16, 395880, Note_on_c, 14, 58, 76
16, 396119, Note_on_c, 14, 58, 0
16, 396120, Note_on_c, 14, 57, 76
16, 396224, Note_on_c, 14, 57, 0
16, 396240, Note_on_c, 14, 62, 84
16, 396479, Note_on_c, 14, 62, 0
16, 396480, Note_on_c, 14, 60, 76
16, 396584, Note_on_c, 14, 60, 0
16, 396600, Note_on_c, 14, 65, 84
16, 396839, Note_on_c, 14, 65, 0
16, 396840, Note_on_c, 14, 64, 76
16, 396944, Note_on_c, 14, 64, 0
16, 396960, Note_on_c, 14, 62, 84
16, 397199, Note_on_c, 14, 62, 0
16, 397200, Note_on_c, 14, 60, 76
16, 397304, Note_on_c, 14, 60, 0
16, 397320, Note_on_c, 14, 55, 52
16, 397424, Note_on_c, 14, 55, 0
16, 397440, Note_on_c, 14, 67, 52
16, 397544, Note_on_c, 14, 67, 0
16, 397560, Note_on_c, 14, 67, 52
16, 397664, Note_on_c, 14, 67, 0
16, 397680, Note_on_c, 14, 60, 52
16, 397799, Note_on_c, 14, 60, 0
16, 398040, Note_on_c, 14, 55, 52
16, 398144, Note_on_c, 14, 55, 0
16, 398160, Note_on_c, 14, 67, 52
16, 398264, Note_on_c, 14, 67, 0
16, 398280, Note_on_c, 14, 67, 52
16, 398384, Note_on_c, 14, 67, 0
16, 398400, Note_on_c, 14, 60, 52
16, 398519, Note_on_c, 14, 60, 0
16, 398760, Note_on_c, 14, 55, 52
16, 398864, Note_on_c, 14, 55, 0
16, 398880, Note_on_c, 14, 55, 54
16, 398984, Note_on_c, 14, 55, 0
16, 399000, Note_on_c, 14, 67, 57
16, 399104, Note_on_c, 14, 67, 0
16, 399120, Note_on_c, 14, 60, 60
16, 399239, Note_on_c, 14, 60, 0
16, 399480, Note_on_c, 14, 55, 68
16, 399584, Note_on_c, 14, 55, 0
16, 399600, Note_on_c, 14, 67, 70
16, 399704, Note_on_c, 14, 67, 0
16, 399720, Note_on_c, 14, 67, 73
16, 399824, Note_on_c, 14, 67, 0
16, 399840, Note_on_c, 14, 60, 76
16, 399959, Note_on_c, 14, 60, 0
16, 400200, Note_on_c, 14, 48, 84
16, 400304, Note_on_c, 14, 48, 0
16, 400320, Note_on_c, 14, 60, 84
16, 400424, Note_on_c, 14, 60, 0
16, 400440, Note_on_c, 14, 60, 84
16, 400544, Note_on_c, 14, 60, 0
16, 400560, Note_on_c, 14, 41, 84
16, 400664, Note_on_c, 14, 41, 0
16, 400680, Note_on_c, 14, 53, 84
16, 400784, Note_on_c, 14, 53, 0
16, 400800, Note_on_c, 14, 53, 84
16, 400904, Note_on_c, 14, 53, 0
16, 400920, Note_on_c, 14, 48, 84
16, 401024, Note_on_c, 14, 48, 0
16, 401040, Note_on_c, 14, 60, 84
16, 401144, Note_on_c, 14, 60, 0
16, 401160, Note_on_c, 14, 60, 84
16, 401264, Note_on_c, 14, 60, 0
16, 401280, Note_on_c, 14, 41, 84
16, 401384, Note_on_c, 14, 41, 0
16, 401400, Note_on_c, 14, 53, 84
16, 401504, Note_on_c, 14, 53, 0
16, 401520, Note_on_c, 14, 53, 84
16, 401624, Note_on_c, 14, 53, 0
16, 401640, Note_on_c, 14, 48, 84
16, 401744, Note_on_c, 14, 48, 0
16, 401760, Note_on_c, 14, 60, 84
16, 401864, Note_on_c, 14, 60, 0
16, 401880, Note_on_c, 14, 60, 84
16, 401984, Note_on_c, 14, 60, 0
16, 402000, Note_on_c, 14, 41, 84
16, 402104, Note_on_c, 14, 41, 0
16, 402120, Note_on_c, 14, 53, 84
16, 402224, Note_on_c, 14, 53, 0
16, 402240, Note_on_c, 14, 53, 84
16, 402344, Note_on_c, 14, 53, 0
16, 402360, Note_on_c, 14, 48, 84
16, 402464, Note_on_c, 14, 48, 0
16, 402480, Note_on_c, 14, 60, 84
16, 402584, Note_on_c, 14, 60, 0
16, 402600, Note_on_c, 14, 60, 84
16, 402704, Note_on_c, 14, 60, 0
16, 402720, Note_on_c, 14, 41, 84
16, 402824, Note_on_c, 14, 41, 0
16, 402840, Note_on_c, 14, 53, 84
16, 402944, Note_on_c, 14, 53, 0
16, 402960, Note_on_c, 14, 53, 84
16, 403064, Note_on_c, 14, 53, 0
16, 403080, Note_on_c, 14, 48, 84
16, 403184, Note_on_c, 14, 48, 0
16, 403200, Note_on_c, 14, 60, 84
16, 403304, Note_on_c, 14, 60, 0
16, 403320, Note_on_c, 14, 60, 84
16, 403424, Note_on_c, 14, 60, 0
16, 403440, Note_on_c, 14, 53, 84
16, 403544, Note_on_c, 14, 53, 0
16, 403560, Note_on_c, 14, 60, 84
16, 403664, Note_on_c, 14, 60, 0
16, 403680, Note_on_c, 14, 57, 84
16, 403784, Note_on_c, 14, 57, 0
16, 403800, Note_on_c, 14, 53, 84
16, 403904, Note_on_c, 14, 53, 0
16, 403920, Note_on_c, 14, 60, 84
16, 404024, Note_on_c, 14, 60, 0
16, 404040, Note_on_c, 14, 57, 84
16, 404144, Note_on_c, 14, 57, 0
16, 404160, Note_on_c, 14, 53, 84
16, 404264, Note_on_c, 14, 53, 0
16, 404280, Note_on_c, 14, 48, 84
16, 404384, Note_on_c, 14, 48, 0
16, 404400, Note_on_c, 14, 41, 84
16, 404471, Note_on_c, 14, 41, 0
16, 404480, Note_on_c, 14, 41, 84
16, 404519, Note_on_c, 14, 41, 0
16, 404520, Note_on_c, 14, 45, 92
16, 404639, Note_on_c, 14, 45, 0
16, 404640, Note_on_c, 14, 41, 84
16, 404699, Note_on_c, 14, 41, 0
16, 405840, Note_on_c, 14, 41, 84
16, 405911, Note_on_c, 14, 41, 0
16, 405920, Note_on_c, 14, 41, 84
16, 405959, Note_on_c, 14, 41, 0
16, 405960, Note_on_c, 14, 45, 92
16, 406079, Note_on_c, 14, 45, 0
16, 406080, Note_on_c, 14, 41, 84
16, 406139, Note_on_c, 14, 41, 0
16, 406200, Note_on_c, 14, 41, 84
16, 406271, Note_on_c, 14, 41, 0
16, 406280, Note_on_c, 14, 41, 84
16, 406319, Note_on_c, 14, 41, 0
16, 406320, Note_on_c, 14, 45, 92
16, 406439, Note_on_c, 14, 45, 0
16, 406440, Note_on_c, 14, 41, 84
16, 406544, Note_on_c, 14, 41, 0
16, 406560, Note_on_c, 14, 41, 84
16, 406631, Note_on_c, 14, 41, 0
16, 406640, Note_on_c, 14, 41, 84
16, 406679, Note_on_c, 14, 41, 0
16, 406680, Note_on_c, 14, 45, 92
16, 406799, Note_on_c, 14, 45, 0
16, 406800, Note_on_c, 14, 41, 84
16, 406904, Note_on_c, 14, 41, 0
16, 406920, Note_on_c, 14, 41, 84
16, 406991, Note_on_c, 14, 41, 0
16, 407000, Note_on_c, 14, 41, 84
16, 407039, Note_on_c, 14, 41, 0
16, 407040, Note_on_c, 14, 45, 92
16, 407159, Note_on_c, 14, 45, 0
16, 407160, Note_on_c, 14, 41, 84
16, 407264, Note_on_c, 14, 41, 0
16, 407280, Note_on_c, 14, 41, 84
16, 407369, Note_on_c, 14, 41, 0
16, 407400, Note_on_c, 14, 45, 84
16, 407440, Control_c, 14, 11, 125
16, 407480, Control_c, 14, 11, 124
16, 407520, Control_c, 14, 11, 122
16, 407560, Control_c, 14, 11, 120
16, 407600, Control_c, 14, 11, 118
16, 407640, Control_c, 14, 11, 117
16, 407680, Control_c, 14, 11, 115
16, 407720, Control_c, 14, 11, 113
16, 407759, Note_on_c, 14, 45, 0
16, 407760, Control_c, 14, 11, 111
16, 407760, Note_on_c, 14, 45, 84
16, 407800, Control_c, 14, 11, 110
16, 407840, Control_c, 14, 11, 108
16, 407880, Control_c, 14, 11, 106
16, 407920, Control_c, 14, 11, 104
16, 407960, Control_c, 14, 11, 103
16, 408000, Control_c, 14, 11, 101
16, 408040, Control_c, 14, 11, 99
16, 408080, Control_c, 14, 11, 97
16, 408119, Note_on_c, 14, 45, 0
16, 408120, Note_on_c, 14, 45, 84
16, 408120, Control_c, 14, 11, 96
16, 408160, Control_c, 14, 11, 94
16, 408200, Control_c, 14, 11, 92
16, 408240, Control_c, 14, 11, 90
16, 408280, Control_c, 14, 11, 89
16, 408320, Control_c, 14, 11, 87
16, 408360, Control_c, 14, 11, 85
16, 408400, Control_c, 14, 11, 83
16, 408440, Control_c, 14, 11, 82
16, 408479, Note_on_c, 14, 45, 0
16, 408480, Note_on_c, 14, 45, 84
16, 408480, Control_c, 14, 11, 80
16, 408520, Control_c, 14, 11, 78
16, 408560, Control_c, 14, 11, 76
16, 408600, Control_c, 14, 11, 75
16, 408640, Control_c, 14, 11, 73
16, 408680, Control_c, 14, 11, 71
16, 408720, Control_c, 14, 11, 69
16, 408760, Control_c, 14, 11, 68
16, 408800, Control_c, 14, 11, 64
16, 408839, Note_on_c, 14, 45, 0
16, 408840, Note_on_c, 14, 45, 84
16, 409559, Note_on_c, 14, 45, 0
16, 409560, Note_on_c, 14, 45, 84
16, 410279, Note_on_c, 14, 45, 0
16, 410280, Note_on_c, 14, 45, 84
16, 410999, Note_on_c, 14, 45, 0
16, 411000, Note_on_c, 14, 45, 84
16, 411699, Note_on_c, 14, 45, 0
16, 411718, Control_c, 14, 11, 127
16, 411720, Note_on_c, 14, 46, 84
16, 411839, Note_on_c, 14, 46, 0
16, 412080, Note_on_c, 14, 47, 84
16, 412199, Note_on_c, 14, 47, 0
16, 412440, Note_on_c, 14, 48, 84
16, 412559, Note_on_c, 14, 48, 0
16, 412800, Note_on_c, 14, 48, 84
16, 412919, Note_on_c, 14, 48, 0
16, 413160, Note_on_c, 14, 41, 84
16, 413279, Note_on_c, 14, 41, 0
16, 413279, End_track
17, 0, Start_track
17, 0, Title_t, "Contrabass"
17, 0, MIDI_port, 0
17, 0, Control_c, 15, 7, 96
17, 0, Control_c, 15, 10, 100
17, 0, Program_c, 15, 48
17, 0, Control_c, 15, 11, 127
17, 0, Note_on_c, 15, 29, 76
17, 104, Note_on_c, 15, 29, 0
17, 120, Note_on_c, 15, 29, 76
17, 239, Note_on_c, 15, 29, 0
17, 360, Note_on_c, 15, 29, 76
17, 464, Note_on_c, 15, 29, 0
17, 480, Note_on_c, 15, 29, 76
17, 599, Note_on_c, 15, 29, 0
17, 720, Note_on_c, 15, 29, 76
17, 824, Note_on_c, 15, 29, 0
17, 840, Note_on_c, 15, 29, 52
17, 959, Note_on_c, 15, 29, 0
17, 1200, Note_on_c, 15, 41, 52
17, 1319, Note_on_c, 15, 41, 0
17, 1560, Note_on_c, 15, 41, 52
17, 1679, Note_on_c, 15, 41, 0
17, 1920, Note_on_c, 15, 36, 52
17, 2039, Note_on_c, 15, 36, 0
17, 2280, Note_on_c, 15, 36, 52
17, 2399, Note_on_c, 15, 36, 0
17, 2640, Note_on_c, 15, 36, 52
17, 2759, Note_on_c, 15, 36, 0
17, 3000, Note_on_c, 15, 36, 52
17, 3119, Note_on_c, 15, 36, 0
17, 3360, Note_on_c, 15, 41, 52
17, 3479, Note_on_c, 15, 41, 0
17, 4440, Note_on_c, 15, 46, 52
17, 4529, Note_on_c, 15, 46, 0
17, 4560, Note_on_c, 15, 46, 56
17, 4649, Note_on_c, 15, 46, 0
17, 4680, Note_on_c, 15, 45, 60
17, 4769, Note_on_c, 15, 45, 0
17, 4800, Note_on_c, 15, 43, 64
17, 5039, Note_on_c, 15, 43, 0
17, 5040, Note_on_c, 15, 41, 72
17, 5144, Note_on_c, 15, 41, 0
17, 5160, Note_on_c, 15, 46, 84
17, 5399, Note_on_c, 15, 46, 0
17, 5400, Note_on_c, 15, 45, 76
17, 5504, Note_on_c, 15, 45, 0
17, 5520, Note_on_c, 15, 50, 84
17, 5759, Note_on_c, 15, 50, 0
17, 5760, Note_on_c, 15, 49, 76
17, 5864, Note_on_c, 15, 49, 0
17, 5880, Note_on_c, 15, 40, 76
17, 5984, Note_on_c, 15, 40, 0
17, 6000, Note_on_c, 15, 52, 76
17, 6104, Note_on_c, 15, 52, 0
17, 6120, Note_on_c, 15, 52, 76
17, 6224, Note_on_c, 15, 52, 0
17, 6240, Note_on_c, 15, 45, 76
17, 6359, Note_on_c, 15, 45, 0
17, 6600, Note_on_c, 15, 40, 76
17, 6704, Note_on_c, 15, 40, 0
17, 6720, Note_on_c, 15, 52, 76
17, 6824, Note_on_c, 15, 52, 0
17, 6840, Note_on_c, 15, 52, 76
17, 6944, Note_on_c, 15, 52, 0
17, 6960, Note_on_c, 15, 45, 76
17, 7079, Note_on_c, 15, 45, 0
17, 7320, Note_on_c, 15, 40, 76
17, 7424, Note_on_c, 15, 40, 0
17, 7440, Note_on_c, 15, 52, 76
17, 7544, Note_on_c, 15, 52, 0
17, 7560, Note_on_c, 15, 52, 76
17, 7664, Note_on_c, 15, 52, 0
17, 7680, Note_on_c, 15, 45, 76
17, 7769, Note_on_c, 15, 45, 0
17, 7800, Note_on_c, 15, 52, 76
17, 7889, Note_on_c, 15, 52, 0
17, 7920, Note_on_c, 15, 49, 76
17, 8009, Note_on_c, 15, 49, 0
17, 8040, Note_on_c, 15, 45, 76
17, 8129, Note_on_c, 15, 45, 0
17, 8160, Note_on_c, 15, 40, 76
17, 8249, Note_on_c, 15, 40, 0
17, 8280, Note_on_c, 15, 37, 76
17, 8369, Note_on_c, 15, 37, 0
17, 8400, Note_on_c, 15, 33, 76
17, 8489, Note_on_c, 15, 33, 0
17, 8640, Note_on_c, 15, 29, 76
17, 8744, Note_on_c, 15, 29, 0
17, 8760, Note_on_c, 15, 29, 76
17, 8879, Note_on_c, 15, 29, 0
17, 9000, Note_on_c, 15, 29, 76
17, 9104, Note_on_c, 15, 29, 0
17, 9120, Note_on_c, 15, 29, 76
17, 9239, Note_on_c, 15, 29, 0
17, 9360, Note_on_c, 15, 29, 76
17, 9464, Note_on_c, 15, 29, 0
17, 9480, Note_on_c, 15, 29, 52
17, 9599, Note_on_c, 15, 29, 0
17, 9840, Note_on_c, 15, 41, 52
17, 9959, Note_on_c, 15, 41, 0
17, 10200, Note_on_c, 15, 41, 52
17, 10319, Note_on_c, 15, 41, 0
17, 10560, Note_on_c, 15, 36, 52
17, 10679, Note_on_c, 15, 36, 0
17, 10920, Note_on_c, 15, 36, 52
17, 11039, Note_on_c, 15, 36, 0
17, 11280, Note_on_c, 15, 36, 52
17, 11399, Note_on_c, 15, 36, 0
17, 11640, Note_on_c, 15, 36, 52
17, 11759, Note_on_c, 15, 36, 0
17, 12000, Note_on_c, 15, 41, 52
17, 12119, Note_on_c, 15, 41, 0
17, 13080, Note_on_c, 15, 46, 52
17, 13169, Note_on_c, 15, 46, 0
17, 13200, Note_on_c, 15, 46, 56
17, 13289, Note_on_c, 15, 46, 0
17, 13320, Note_on_c, 15, 45, 60
17, 13409, Note_on_c, 15, 45, 0
17, 13440, Note_on_c, 15, 43, 64
17, 13679, Note_on_c, 15, 43, 0
17, 13680, Note_on_c, 15, 41, 72
17, 13784, Note_on_c, 15, 41, 0
17, 13800, Note_on_c, 15, 46, 84
17, 14039, Note_on_c, 15, 46, 0
17, 14040, Note_on_c, 15, 45, 76
17, 14144, Note_on_c, 15, 45, 0
17, 14160, Note_on_c, 15, 50, 84
17, 14399, Note_on_c, 15, 50, 0
17, 14400, Note_on_c, 15, 49, 76
17, 14504, Note_on_c, 15, 49, 0
17, 14520, Note_on_c, 15, 40, 76
17, 14624, Note_on_c, 15, 40, 0
17, 14640, Note_on_c, 15, 52, 76
17, 14744, Note_on_c, 15, 52, 0
17, 14760, Note_on_c, 15, 52, 76
17, 14864, Note_on_c, 15, 52, 0
17, 14880, Note_on_c, 15, 45, 76
17, 14999, Note_on_c, 15, 45, 0
17, 15240, Note_on_c, 15, 40, 76
17, 15344, Note_on_c, 15, 40, 0
17, 15360, Note_on_c, 15, 52, 76
17, 15464, Note_on_c, 15, 52, 0
17, 15480, Note_on_c, 15, 52, 76
17, 15584, Note_on_c, 15, 52, 0
17, 15600, Note_on_c, 15, 45, 76
17, 15719, Note_on_c, 15, 45, 0
17, 15960, Note_on_c, 15, 40, 76
17, 16064, Note_on_c, 15, 40, 0
17, 16080, Note_on_c, 15, 52, 76
17, 16184, Note_on_c, 15, 52, 0
17, 16200, Note_on_c, 15, 52, 76
17, 16304, Note_on_c, 15, 52, 0
17, 16320, Note_on_c, 15, 45, 76
17, 16409, Note_on_c, 15, 45, 0
17, 16440, Note_on_c, 15, 52, 76
17, 16529, Note_on_c, 15, 52, 0
17, 16560, Note_on_c, 15, 49, 76
17, 16649, Note_on_c, 15, 49, 0
17, 16680, Note_on_c, 15, 45, 76
17, 16769, Note_on_c, 15, 45, 0
17, 16800, Note_on_c, 15, 40, 76
17, 16889, Note_on_c, 15, 40, 0
17, 16920, Note_on_c, 15, 37, 76
17, 17009, Note_on_c, 15, 37, 0
17, 17040, Note_on_c, 15, 33, 76
17, 17129, Note_on_c, 15, 33, 0
17, 17280, Note_on_c, 15, 33, 76
17, 17351, Note_on_c, 15, 33, 0
17, 17360, Note_on_c, 15, 33, 76
17, 17399, Note_on_c, 15, 33, 0
17, 17400, Note_on_c, 15, 37, 84
17, 17519, Note_on_c, 15, 37, 0
17, 17520, Note_on_c, 15, 33, 76
17, 17579, Note_on_c, 15, 33, 0
17, 23160, Note_on_c, 15, 32, 44
17, 23399, Note_on_c, 15, 32, 0
17, 23400, Note_on_c, 15, 31, 44
17, 23504, Note_on_c, 15, 31, 0
17, 23520, Note_on_c, 15, 32, 44
17, 23759, Note_on_c, 15, 32, 0
17, 23760, Note_on_c, 15, 31, 44
17, 23864, Note_on_c, 15, 31, 0
17, 23880, Note_on_c, 15, 32, 44
17, 24104, Note_on_c, 15, 32, 0
17, 24120, Note_on_c, 15, 31, 84
17, 24224, Note_on_c, 15, 31, 0
17, 24240, Note_on_c, 15, 31, 84
17, 24359, Note_on_c, 15, 31, 0
17, 28920, Note_on_c, 15, 30, 44
17, 29159, Note_on_c, 15, 30, 0
17, 29160, Note_on_c, 15, 29, 44
17, 29264, Note_on_c, 15, 29, 0
17, 29280, Note_on_c, 15, 30, 44
17, 29519, Note_on_c, 15, 30, 0
17, 29520, Note_on_c, 15, 29, 44
17, 29624, Note_on_c, 15, 29, 0
17, 29640, Note_on_c, 15, 30, 44
17, 29864, Note_on_c, 15, 30, 0
17, 29880, Note_on_c, 15, 29, 84
17, 29984, Note_on_c, 15, 29, 0
17, 30000, Note_on_c, 15, 29, 84
17, 30119, Note_on_c, 15, 29, 0
17, 31680, Program_c, 15, 45
17, 31800, Note_on_c, 15, 34, 44
17, 31919, Note_on_c, 15, 34, 0
17, 32160, Note_on_c, 15, 46, 44
17, 32279, Note_on_c, 15, 46, 0
17, 32520, Note_on_c, 15, 46, 44
17, 32639, Note_on_c, 15, 46, 0
17, 32880, Note_on_c, 15, 46, 44
17, 32999, Note_on_c, 15, 46, 0
17, 33240, Note_on_c, 15, 41, 44
17, 33359, Note_on_c, 15, 41, 0
17, 33600, Note_on_c, 15, 41, 44
17, 33719, Note_on_c, 15, 41, 0
17, 33960, Note_on_c, 15, 41, 44
17, 34079, Note_on_c, 15, 41, 0
17, 34320, Note_on_c, 15, 41, 44
17, 34439, Note_on_c, 15, 41, 0
17, 34680, Note_on_c, 15, 34, 44
17, 34799, Note_on_c, 15, 34, 0
17, 35040, Note_on_c, 15, 46, 44
17, 35159, Note_on_c, 15, 46, 0
17, 35400, Note_on_c, 15, 46, 45
17, 35519, Note_on_c, 15, 46, 0
17, 35760, Note_on_c, 15, 46, 47
17, 35879, Note_on_c, 15, 46, 0
17, 36120, Note_on_c, 15, 41, 48
17, 36239, Note_on_c, 15, 41, 0
17, 36480, Note_on_c, 15, 41, 50
17, 36599, Note_on_c, 15, 41, 0
17, 36840, Note_on_c, 15, 41, 52
17, 36959, Note_on_c, 15, 41, 0
17, 37200, Note_on_c, 15, 41, 53
17, 37319, Note_on_c, 15, 41, 0
17, 37560, Note_on_c, 15, 34, 55
17, 37679, Note_on_c, 15, 34, 0
17, 37800, Program_c, 15, 48
17, 37920, Note_on_c, 15, 53, 65
17, 38009, Note_on_c, 15, 53, 0
17, 38040, Note_on_c, 15, 53, 65
17, 38129, Note_on_c, 15, 53, 0
17, 38160, Note_on_c, 15, 52, 66
17, 38249, Note_on_c, 15, 52, 0
17, 38280, Note_on_c, 15, 50, 66
17, 38369, Note_on_c, 15, 50, 0
17, 38400, Note_on_c, 15, 50, 67
17, 38489, Note_on_c, 15, 50, 0
17, 38520, Note_on_c, 15, 48, 67
17, 38609, Note_on_c, 15, 48, 0
17, 38640, Note_on_c, 15, 46, 68
17, 38729, Note_on_c, 15, 46, 0
17, 38760, Note_on_c, 15, 46, 68
17, 38849, Note_on_c, 15, 46, 0
17, 38880, Note_on_c, 15, 45, 69
17, 38969, Note_on_c, 15, 45, 0
17, 39000, Note_on_c, 15, 43, 70
17, 39089, Note_on_c, 15, 43, 0
17, 39120, Note_on_c, 15, 43, 70
17, 39209, Note_on_c, 15, 43, 0
17, 39240, Note_on_c, 15, 41, 71
17, 39329, Note_on_c, 15, 41, 0
17, 39360, Note_on_c, 15, 40, 71
17, 39449, Note_on_c, 15, 40, 0
17, 39480, Note_on_c, 15, 40, 72
17, 39569, Note_on_c, 15, 40, 0
17, 39600, Note_on_c, 15, 38, 72
17, 39689, Note_on_c, 15, 38, 0
17, 39720, Note_on_c, 15, 36, 73
17, 39809, Note_on_c, 15, 36, 0
17, 39840, Note_on_c, 15, 36, 73
17, 39929, Note_on_c, 15, 36, 0
17, 39960, Note_on_c, 15, 34, 74
17, 40049, Note_on_c, 15, 34, 0
17, 40080, Note_on_c, 15, 33, 74
17, 40169, Note_on_c, 15, 33, 0
17, 40200, Note_on_c, 15, 31, 75
17, 40289, Note_on_c, 15, 31, 0
17, 40320, Note_on_c, 15, 29, 76
17, 40409, Note_on_c, 15, 29, 0
17, 40440, Note_on_c, 15, 29, 76
17, 40559, Note_on_c, 15, 29, 0
17, 40680, Note_on_c, 15, 29, 76
17, 40784, Note_on_c, 15, 29, 0
17, 40800, Note_on_c, 15, 29, 76
17, 40919, Note_on_c, 15, 29, 0
17, 41040, Note_on_c, 15, 29, 76
17, 41144, Note_on_c, 15, 29, 0
17, 41160, Note_on_c, 15, 29, 84
17, 41519, Note_on_c, 15, 29, 0
17, 41520, Note_on_c, 15, 29, 84
17, 41879, Note_on_c, 15, 29, 0
17, 41880, Note_on_c, 15, 29, 84
17, 42359, Note_on_c, 15, 29, 0
17, 42360, Note_on_c, 15, 28, 84
17, 42464, Note_on_c, 15, 28, 0
17, 42480, Note_on_c, 15, 28, 84
17, 42569, Note_on_c, 15, 28, 0
17, 42600, Note_on_c, 15, 28, 84
17, 42959, Note_on_c, 15, 28, 0
17, 42960, Note_on_c, 15, 28, 84
17, 43319, Note_on_c, 15, 28, 0
17, 43320, Note_on_c, 15, 28, 84
17, 43799, Note_on_c, 15, 28, 0
17, 43800, Note_on_c, 15, 29, 84
17, 43904, Note_on_c, 15, 29, 0
17, 43920, Note_on_c, 15, 29, 84
17, 44009, Note_on_c, 15, 29, 0
17, 44040, Note_on_c, 15, 41, 52
17, 44159, Note_on_c, 15, 41, 0
17, 44280, Program_c, 15, 45
17, 44400, Note_on_c, 15, 41, 44
17, 44519, Note_on_c, 15, 41, 0
17, 44760, Note_on_c, 15, 41, 44
17, 44879, Note_on_c, 15, 41, 0
17, 45120, Note_on_c, 15, 36, 44
17, 45239, Note_on_c, 15, 36, 0
17, 45480, Note_on_c, 15, 48, 44
17, 45599, Note_on_c, 15, 48, 0
17, 45840, Note_on_c, 15, 48, 44
17, 45959, Note_on_c, 15, 48, 0
17, 46200, Note_on_c, 15, 48, 44
17, 46319, Note_on_c, 15, 48, 0
17, 46560, Note_on_c, 15, 41, 44
17, 46679, Note_on_c, 15, 41, 0
17, 48240, Control_c, 15, 11, 80
17, 48240, Program_c, 15, 48
17, 48360, Note_on_c, 15, 46, 76
17, 48400, Control_c, 15, 11, 83
17, 48440, Control_c, 15, 11, 85
17, 48449, Note_on_c, 15, 46, 0
17, 48480, Control_c, 15, 11, 88
17, 48480, Note_on_c, 15, 46, 76
17, 48520, Control_c, 15, 11, 90
17, 48560, Control_c, 15, 11, 93
17, 48569, Note_on_c, 15, 46, 0
17, 48600, Note_on_c, 15, 45, 76
17, 48600, Control_c, 15, 11, 96
17, 48640, Control_c, 15, 11, 98
17, 48680, Control_c, 15, 11, 101
17, 48689, Note_on_c, 15, 45, 0
17, 48720, Control_c, 15, 11, 104
17, 48720, Note_on_c, 15, 43, 76
17, 48760, Control_c, 15, 11, 106
17, 48800, Control_c, 15, 11, 109
17, 48840, Control_c, 15, 11, 111
17, 48880, Control_c, 15, 11, 114
17, 48920, Control_c, 15, 11, 117
17, 48944, Note_on_c, 15, 43, 0
17, 48960, Control_c, 15, 11, 119
17, 48960, Note_on_c, 15, 41, 76
17, 49000, Control_c, 15, 11, 122
17, 49040, Control_c, 15, 11, 127
17, 49064, Note_on_c, 15, 41, 0
17, 49080, Note_on_c, 15, 46, 76
17, 49319, Note_on_c, 15, 46, 0
17, 49320, Note_on_c, 15, 45, 76
17, 49424, Note_on_c, 15, 45, 0
17, 49440, Note_on_c, 15, 50, 84
17, 49679, Note_on_c, 15, 50, 0
17, 49680, Note_on_c, 15, 48, 76
17, 49784, Note_on_c, 15, 48, 0
17, 49800, Note_on_c, 15, 53, 84
17, 50039, Note_on_c, 15, 53, 0
17, 50040, Note_on_c, 15, 52, 76
17, 50144, Note_on_c, 15, 52, 0
17, 50160, Note_on_c, 15, 50, 84
17, 50399, Note_on_c, 15, 50, 0
17, 50400, Note_on_c, 15, 48, 76
17, 50504, Note_on_c, 15, 48, 0
17, 50520, Note_on_c, 15, 43, 52
17, 50624, Note_on_c, 15, 43, 0
17, 50640, Note_on_c, 15, 55, 52
17, 50744, Note_on_c, 15, 55, 0
17, 50760, Note_on_c, 15, 55, 52
17, 50864, Note_on_c, 15, 55, 0
17, 50880, Note_on_c, 15, 48, 52
17, 50999, Note_on_c, 15, 48, 0
17, 51240, Note_on_c, 15, 43, 52
17, 51344, Note_on_c, 15, 43, 0
17, 51360, Note_on_c, 15, 55, 52
17, 51464, Note_on_c, 15, 55, 0
17, 51480, Note_on_c, 15, 55, 52
17, 51584, Note_on_c, 15, 55, 0
17, 51600, Note_on_c, 15, 48, 52
17, 51719, Note_on_c, 15, 48, 0
17, 51960, Note_on_c, 15, 43, 52
17, 52064, Note_on_c, 15, 43, 0
17, 52080, Note_on_c, 15, 43, 54
17, 52184, Note_on_c, 15, 43, 0
17, 52200, Note_on_c, 15, 55, 57
17, 52304, Note_on_c, 15, 55, 0
17, 52320, Note_on_c, 15, 48, 60
17, 52439, Note_on_c, 15, 48, 0
17, 52680, Note_on_c, 15, 43, 68
17, 52784, Note_on_c, 15, 43, 0
17, 52800, Note_on_c, 15, 55, 70
17, 52904, Note_on_c, 15, 55, 0
17, 52920, Note_on_c, 15, 55, 73
17, 53024, Note_on_c, 15, 55, 0
17, 53040, Note_on_c, 15, 48, 76
17, 53159, Note_on_c, 15, 48, 0
17, 53400, Note_on_c, 15, 36, 84
17, 53504, Note_on_c, 15, 36, 0
17, 53520, Note_on_c, 15, 48, 84
17, 53624, Note_on_c, 15, 48, 0
17, 53640, Note_on_c, 15, 48, 84
17, 53744, Note_on_c, 15, 48, 0
17, 53760, Note_on_c, 15, 29, 84
17, 53864, Note_on_c, 15, 29, 0
17, 53880, Note_on_c, 15, 41, 84
17, 53984, Note_on_c, 15, 41, 0
17, 54000, Note_on_c, 15, 41, 84
17, 54104, Note_on_c, 15, 41, 0
17, 54120, Note_on_c, 15, 36, 84
17, 54224, Note_on_c, 15, 36, 0
17, 54240, Note_on_c, 15, 48, 84
17, 54344, Note_on_c, 15, 48, 0
17, 54360, Note_on_c, 15, 48, 84
17, 54464, Note_on_c, 15, 48, 0
17, 54480, Note_on_c, 15, 29, 84
17, 54584, Note_on_c, 15, 29, 0
17, 54600, Note_on_c, 15, 41, 84
17, 54704, Note_on_c, 15, 41, 0
17, 54720, Note_on_c, 15, 41, 84
17, 54824, Note_on_c, 15, 41, 0
17, 54840, Note_on_c, 15, 36, 84
17, 54944, Note_on_c, 15, 36, 0
17, 54960, Note_on_c, 15, 48, 84
17, 55064, Note_on_c, 15, 48, 0
17, 55080, Note_on_c, 15, 48, 84
17, 55184, Note_on_c, 15, 48, 0
17, 55200, Note_on_c, 15, 29, 84
17, 55304, Note_on_c, 15, 29, 0
17, 55320, Note_on_c, 15, 41, 84
17, 55424, Note_on_c, 15, 41, 0
17, 55440, Note_on_c, 15, 41, 84
17, 55544, Note_on_c, 15, 41, 0
17, 55560, Note_on_c, 15, 36, 84
17, 55664, Note_on_c, 15, 36, 0
17, 55680, Note_on_c, 15, 48, 84
17, 55784, Note_on_c, 15, 48, 0
17, 55800, Note_on_c, 15, 48, 84
17, 55904, Note_on_c, 15, 48, 0
17, 55920, Note_on_c, 15, 29, 84
17, 56024, Note_on_c, 15, 29, 0
17, 56040, Note_on_c, 15, 41, 84
17, 56144, Note_on_c, 15, 41, 0
17, 56160, Note_on_c, 15, 41, 84
17, 56264, Note_on_c, 15, 41, 0
17, 56280, Note_on_c, 15, 36, 84
17, 56384, Note_on_c, 15, 36, 0
17, 56400, Note_on_c, 15, 48, 84
17, 56504, Note_on_c, 15, 48, 0
17, 56520, Note_on_c, 15, 48, 84
17, 56624, Note_on_c, 15, 48, 0
17, 56640, Note_on_c, 15, 41, 84
17, 56744, Note_on_c, 15, 41, 0
17, 56760, Note_on_c, 15, 48, 84
17, 56864, Note_on_c, 15, 48, 0
17, 56880, Note_on_c, 15, 45, 84
17, 56984, Note_on_c, 15, 45, 0
17, 57000, Note_on_c, 15, 41, 84
17, 57104, Note_on_c, 15, 41, 0
17, 57120, Note_on_c, 15, 48, 84
17, 57224, Note_on_c, 15, 48, 0
17, 57240, Note_on_c, 15, 45, 84
17, 57344, Note_on_c, 15, 45, 0
17, 57360, Note_on_c, 15, 41, 84
17, 57464, Note_on_c, 15, 41, 0
17, 57480, Note_on_c, 15, 36, 84
17, 57584, Note_on_c, 15, 36, 0
17, 57600, Note_on_c, 15, 29, 84
17, 57671, Note_on_c, 15, 29, 0
17, 57680, Note_on_c, 15, 29, 84
17, 57719, Note_on_c, 15, 29, 0
17, 57720, Note_on_c, 15, 33, 92
17, 57839, Note_on_c, 15, 33, 0
17, 57840, Note_on_c, 15, 29, 84
17, 57899, Note_on_c, 15, 29, 0
17, 59040, Note_on_c, 15, 29, 84
17, 59111, Note_on_c, 15, 29, 0
17, 59120, Note_on_c, 15, 29, 84
17, 59159, Note_on_c, 15, 29, 0
17, 59160, Note_on_c, 15, 33, 92
17, 59279, Note_on_c, 15, 33, 0
17, 59280, Note_on_c, 15, 29, 84
17, 59339, Note_on_c, 15, 29, 0
17, 59400, Note_on_c, 15, 29, 84
17, 59471, Note_on_c, 15, 29, 0
17, 59480, Note_on_c, 15, 29, 84
17, 59519, Note_on_c, 15, 29, 0
17, 59520, Note_on_c, 15, 33, 92
17, 59639, Note_on_c, 15, 33, 0
17, 59640, Note_on_c, 15, 29, 84
17, 59744, Note_on_c, 15, 29, 0
17, 59760, Note_on_c, 15, 29, 84
17, 59831, Note_on_c, 15, 29, 0
17, 59840, Note_on_c, 15, 29, 84
17, 59879, Note_on_c, 15, 29, 0
17, 59880, Note_on_c, 15, 33, 92
17, 59999, Note_on_c, 15, 33, 0
17, 60000, Note_on_c, 15, 29, 84
17, 60104, Note_on_c, 15, 29, 0
17, 60120, Note_on_c, 15, 29, 84
17, 60191, Note_on_c, 15, 29, 0
17, 60200, Note_on_c, 15, 29, 84
17, 60239, Note_on_c, 15, 29, 0
17, 60240, Note_on_c, 15, 33, 92
17, 60359, Note_on_c, 15, 33, 0
17, 60360, Note_on_c, 15, 29, 84
17, 60464, Note_on_c, 15, 29, 0
17, 60480, Note_on_c, 15, 29, 84
17, 60569, Note_on_c, 15, 29, 0
17, 60600, Note_on_c, 15, 33, 84
17, 60959, Note_on_c, 15, 33, 0
17, 60960, Note_on_c, 15, 33, 84
17, 61319, Note_on_c, 15, 33, 0
17, 61320, Note_on_c, 15, 33, 84
17, 61679, Note_on_c, 15, 33, 0
17, 61680, Note_on_c, 15, 33, 84
17, 61904, Note_on_c, 15, 33, 0
17, 61920, Note_on_c, 15, 33, 76
17, 61991, Note_on_c, 15, 33, 0
17, 62000, Note_on_c, 15, 33, 76
17, 62039, Note_on_c, 15, 33, 0
17, 62040, Note_on_c, 15, 37, 84
17, 62159, Note_on_c, 15, 37, 0
17, 62160, Note_on_c, 15, 33, 76
17, 62219, Note_on_c, 15, 33, 0
17, 67800, Note_on_c, 15, 32, 44
17, 68039, Note_on_c, 15, 32, 0
17, 68040, Note_on_c, 15, 31, 44
17, 68144, Note_on_c, 15, 31, 0
17, 68160, Note_on_c, 15, 32, 44
17, 68399, Note_on_c, 15, 32, 0
17, 68400, Note_on_c, 15, 31, 44
17, 68504, Note_on_c, 15, 31, 0
17, 68520, Note_on_c, 15, 32, 44
17, 68744, Note_on_c, 15, 32, 0
17, 68760, Note_on_c, 15, 31, 84
17, 68864, Note_on_c, 15, 31, 0
17, 68880, Note_on_c, 15, 31, 84
17, 68999, Note_on_c, 15, 31, 0
17, 73560, Note_on_c, 15, 30, 44
17, 73799, Note_on_c, 15, 30, 0
17, 73800, Note_on_c, 15, 29, 44
17, 73904, Note_on_c, 15, 29, 0
17, 73920, Note_on_c, 15, 30, 44
17, 74159, Note_on_c, 15, 30, 0
17, 74160, Note_on_c, 15, 29, 44
17, 74264, Note_on_c, 15, 29, 0
17, 74280, Note_on_c, 15, 30, 44
17, 74504, Note_on_c, 15, 30, 0
17, 74520, Note_on_c, 15, 29, 84
17, 74624, Note_on_c, 15, 29, 0
17, 74640, Note_on_c, 15, 29, 84
17, 74759, Note_on_c, 15, 29, 0
17, 76320, Program_c, 15, 45
17, 76440, Note_on_c, 15, 34, 44
17, 76559, Note_on_c, 15, 34, 0
17, 76800, Note_on_c, 15, 46, 44
17, 76919, Note_on_c, 15, 46, 0
17, 77160, Note_on_c, 15, 46, 44
17, 77279, Note_on_c, 15, 46, 0
17, 77520, Note_on_c, 15, 46, 44
17, 77639, Note_on_c, 15, 46, 0
17, 77880, Note_on_c, 15, 41, 44
17, 77999, Note_on_c, 15, 41, 0
17, 78240, Note_on_c, 15, 41, 44
17, 78359, Note_on_c, 15, 41, 0
17, 78600, Note_on_c, 15, 41, 44
17, 78719, Note_on_c, 15, 41, 0
17, 78960, Note_on_c, 15, 41, 44
17, 79079, Note_on_c, 15, 41, 0
17, 79320, Note_on_c, 15, 34, 44
17, 79439, Note_on_c, 15, 34, 0
17, 79680, Note_on_c, 15, 46, 44
17, 79799, Note_on_c, 15, 46, 0
17, 80040, Note_on_c, 15, 46, 45
17, 80159, Note_on_c, 15, 46, 0
17, 80400, Note_on_c, 15, 46, 47
17, 80519, Note_on_c, 15, 46, 0
17, 80760, Note_on_c, 15, 41, 48
17, 80879, Note_on_c, 15, 41, 0
17, 81120, Note_on_c, 15, 41, 50
17, 81239, Note_on_c, 15, 41, 0
17, 81480, Note_on_c, 15, 41, 52
17, 81599, Note_on_c, 15, 41, 0
17, 81840, Note_on_c, 15, 41, 53
17, 81959, Note_on_c, 15, 41, 0
17, 82200, Note_on_c, 15, 34, 55
17, 82319, Note_on_c, 15, 34, 0
17, 82440, Program_c, 15, 48
17, 82560, Note_on_c, 15, 53, 65
17, 82649, Note_on_c, 15, 53, 0
17, 82680, Note_on_c, 15, 53, 65
17, 82769, Note_on_c, 15, 53, 0
17, 82800, Note_on_c, 15, 52, 66
17, 82889, Note_on_c, 15, 52, 0
17, 82920, Note_on_c, 15, 50, 66
17, 83009, Note_on_c, 15, 50, 0
17, 83040, Note_on_c, 15, 50, 67
17, 83129, Note_on_c, 15, 50, 0
17, 83160, Note_on_c, 15, 48, 67
17, 83249, Note_on_c, 15, 48, 0
17, 83280, Note_on_c, 15, 46, 68
17, 83369, Note_on_c, 15, 46, 0
17, 83400, Note_on_c, 15, 46, 68
17, 83489, Note_on_c, 15, 46, 0
17, 83520, Note_on_c, 15, 45, 69
17, 83609, Note_on_c, 15, 45, 0
17, 83640, Note_on_c, 15, 43, 70
17, 83729, Note_on_c, 15, 43, 0
17, 83760, Note_on_c, 15, 43, 70
17, 83849, Note_on_c, 15, 43, 0
17, 83880, Note_on_c, 15, 41, 71
17, 83969, Note_on_c, 15, 41, 0
17, 84000, Note_on_c, 15, 40, 71
17, 84089, Note_on_c, 15, 40, 0
17, 84120, Note_on_c, 15, 40, 72
17, 84209, Note_on_c, 15, 40, 0
17, 84240, Note_on_c, 15, 38, 72
17, 84329, Note_on_c, 15, 38, 0
17, 84360, Note_on_c, 15, 36, 73
17, 84449, Note_on_c, 15, 36, 0
17, 84480, Note_on_c, 15, 36, 73
17, 84569, Note_on_c, 15, 36, 0
17, 84600, Note_on_c, 15, 34, 74
17, 84689, Note_on_c, 15, 34, 0
17, 84720, Note_on_c, 15, 33, 74
17, 84809, Note_on_c, 15, 33, 0
17, 84840, Note_on_c, 15, 31, 75
17, 84929, Note_on_c, 15, 31, 0
17, 84960, Note_on_c, 15, 29, 76
17, 85049, Note_on_c, 15, 29, 0
17, 85080, Note_on_c, 15, 29, 76
17, 85199, Note_on_c, 15, 29, 0
17, 85320, Note_on_c, 15, 29, 76
17, 85424, Note_on_c, 15, 29, 0
17, 85440, Note_on_c, 15, 29, 76
17, 85559, Note_on_c, 15, 29, 0
17, 85680, Note_on_c, 15, 29, 76
17, 85784, Note_on_c, 15, 29, 0
17, 85800, Note_on_c, 15, 29, 84
17, 86159, Note_on_c, 15, 29, 0
17, 86160, Note_on_c, 15, 29, 84
17, 86519, Note_on_c, 15, 29, 0
17, 86520, Note_on_c, 15, 29, 84
17, 86999, Note_on_c, 15, 29, 0
17, 87000, Note_on_c, 15, 28, 84
17, 87104, Note_on_c, 15, 28, 0
17, 87120, Note_on_c, 15, 28, 84
17, 87209, Note_on_c, 15, 28, 0
17, 87240, Note_on_c, 15, 28, 84
17, 87599, Note_on_c, 15, 28, 0
17, 87600, Note_on_c, 15, 28, 84
17, 87959, Note_on_c, 15, 28, 0
17, 87960, Note_on_c, 15, 28, 84
17, 88439, Note_on_c, 15, 28, 0
17, 88440, Note_on_c, 15, 29, 84
17, 88544, Note_on_c, 15, 29, 0
17, 88560, Note_on_c, 15, 29, 84
17, 88649, Note_on_c, 15, 29, 0
17, 88680, Note_on_c, 15, 41, 52
17, 88799, Note_on_c, 15, 41, 0
17, 88920, Program_c, 15, 45
17, 89040, Note_on_c, 15, 41, 44
17, 89159, Note_on_c, 15, 41, 0
17, 89400, Note_on_c, 15, 41, 44
17, 89519, Note_on_c, 15, 41, 0
17, 89760, Note_on_c, 15, 36, 44
17, 89879, Note_on_c, 15, 36, 0
17, 90120, Note_on_c, 15, 48, 44
17, 90239, Note_on_c, 15, 48, 0
17, 90480, Note_on_c, 15, 48, 44
17, 90599, Note_on_c, 15, 48, 0
17, 90840, Note_on_c, 15, 48, 44
17, 90959, Note_on_c, 15, 48, 0
17, 91200, Note_on_c, 15, 41, 44
17, 91319, Note_on_c, 15, 41, 0
17, 92880, Control_c, 15, 11, 80
17, 92880, Program_c, 15, 48
17, 93000, Note_on_c, 15, 46, 76
17, 93040, Control_c, 15, 11, 83
17, 93080, Control_c, 15, 11, 85
17, 93089, Note_on_c, 15, 46, 0
17, 93120, Control_c, 15, 11, 88
17, 93120, Note_on_c, 15, 46, 76
17, 93160, Control_c, 15, 11, 90
17, 93200, Control_c, 15, 11, 93
17, 93209, Note_on_c, 15, 46, 0
17, 93240, Control_c, 15, 11, 96
17, 93240, Note_on_c, 15, 45, 76
17, 93280, Control_c, 15, 11, 98
17, 93320, Control_c, 15, 11, 101
17, 93329, Note_on_c, 15, 45, 0
17, 93360, Note_on_c, 15, 43, 76
17, 93360, Control_c, 15, 11, 104
17, 93400, Control_c, 15, 11, 106
17, 93440, Control_c, 15, 11, 109
17, 93480, Control_c, 15, 11, 111
17, 93520, Control_c, 15, 11, 114
17, 93560, Control_c, 15, 11, 117
17, 93584, Note_on_c, 15, 43, 0
17, 93600, Note_on_c, 15, 41, 76
17, 93600, Control_c, 15, 11, 119
17, 93640, Control_c, 15, 11, 122
17, 93680, Control_c, 15, 11, 127
17, 93704, Note_on_c, 15, 41, 0
17, 93720, Note_on_c, 15, 46, 76
17, 93959, Note_on_c, 15, 46, 0
17, 93960, Note_on_c, 15, 45, 76
17, 94064, Note_on_c, 15, 45, 0
17, 94080, Note_on_c, 15, 50, 84
17, 94319, Note_on_c, 15, 50, 0
17, 94320, Note_on_c, 15, 48, 76
17, 94424, Note_on_c, 15, 48, 0
17, 94440, Note_on_c, 15, 53, 84
17, 94679, Note_on_c, 15, 53, 0
17, 94680, Note_on_c, 15, 52, 76
17, 94784, Note_on_c, 15, 52, 0
17, 94800, Note_on_c, 15, 50, 84
17, 95039, Note_on_c, 15, 50, 0
17, 95040, Note_on_c, 15, 48, 76
17, 95144, Note_on_c, 15, 48, 0
17, 95160, Note_on_c, 15, 43, 52
17, 95264, Note_on_c, 15, 43, 0
17, 95280, Note_on_c, 15, 55, 52
17, 95384, Note_on_c, 15, 55, 0
17, 95400, Note_on_c, 15, 55, 52
17, 95504, Note_on_c, 15, 55, 0
17, 95520, Note_on_c, 15, 48, 52
17, 95639, Note_on_c, 15, 48, 0
17, 95880, Note_on_c, 15, 43, 52
17, 95984, Note_on_c, 15, 43, 0
17, 96000, Note_on_c, 15, 55, 52
17, 96104, Note_on_c, 15, 55, 0
17, 96120, Note_on_c, 15, 55, 52
17, 96224, Note_on_c, 15, 55, 0
17, 96240, Note_on_c, 15, 48, 52
17, 96359, Note_on_c, 15, 48, 0
17, 96600, Note_on_c, 15, 43, 52
17, 96704, Note_on_c, 15, 43, 0
17, 96720, Note_on_c, 15, 43, 54
17, 96824, Note_on_c, 15, 43, 0
17, 96840, Note_on_c, 15, 55, 57
17, 96944, Note_on_c, 15, 55, 0
17, 96960, Note_on_c, 15, 48, 60
17, 97079, Note_on_c, 15, 48, 0
17, 97320, Note_on_c, 15, 43, 68
17, 97424, Note_on_c, 15, 43, 0
17, 97440, Note_on_c, 15, 55, 70
17, 97544, Note_on_c, 15, 55, 0
17, 97560, Note_on_c, 15, 55, 73
17, 97664, Note_on_c, 15, 55, 0
17, 97680, Note_on_c, 15, 48, 76
17, 97799, Note_on_c, 15, 48, 0
17, 98040, Note_on_c, 15, 36, 84
17, 98144, Note_on_c, 15, 36, 0
17, 98160, Note_on_c, 15, 48, 84
17, 98264, Note_on_c, 15, 48, 0
17, 98280, Note_on_c, 15, 48, 84
17, 98384, Note_on_c, 15, 48, 0
17, 98400, Note_on_c, 15, 29, 84
17, 98504, Note_on_c, 15, 29, 0
17, 98520, Note_on_c, 15, 41, 84
17, 98624, Note_on_c, 15, 41, 0
17, 98640, Note_on_c, 15, 41, 84
17, 98744, Note_on_c, 15, 41, 0
17, 98760, Note_on_c, 15, 36, 84
17, 98864, Note_on_c, 15, 36, 0
17, 98880, Note_on_c, 15, 48, 84
17, 98984, Note_on_c, 15, 48, 0
17, 99000, Note_on_c, 15, 48, 84
17, 99104, Note_on_c, 15, 48, 0
17, 99120, Note_on_c, 15, 29, 84
17, 99224, Note_on_c, 15, 29, 0
17, 99240, Note_on_c, 15, 41, 84
17, 99344, Note_on_c, 15, 41, 0
17, 99360, Note_on_c, 15, 41, 84
17, 99464, Note_on_c, 15, 41, 0
17, 99480, Note_on_c, 15, 36, 84
17, 99584, Note_on_c, 15, 36, 0
17, 99600, Note_on_c, 15, 48, 84
17, 99704, Note_on_c, 15, 48, 0
17, 99720, Note_on_c, 15, 48, 84
17, 99824, Note_on_c, 15, 48, 0
17, 99840, Note_on_c, 15, 29, 84
17, 99944, Note_on_c, 15, 29, 0
17, 99960, Note_on_c, 15, 41, 84
17, 100064, Note_on_c, 15, 41, 0
17, 100080, Note_on_c, 15, 41, 84
17, 100184, Note_on_c, 15, 41, 0
17, 100200, Note_on_c, 15, 36, 84
17, 100304, Note_on_c, 15, 36, 0
17, 100320, Note_on_c, 15, 48, 84
17, 100424, Note_on_c, 15, 48, 0
17, 100440, Note_on_c, 15, 48, 84
17, 100544, Note_on_c, 15, 48, 0
17, 100560, Note_on_c, 15, 29, 84
17, 100664, Note_on_c, 15, 29, 0
17, 100680, Note_on_c, 15, 41, 84
17, 100784, Note_on_c, 15, 41, 0
17, 100800, Note_on_c, 15, 41, 84
17, 100904, Note_on_c, 15, 41, 0
17, 100920, Note_on_c, 15, 36, 84
17, 101024, Note_on_c, 15, 36, 0
17, 101040, Note_on_c, 15, 48, 84
17, 101144, Note_on_c, 15, 48, 0
17, 101160, Note_on_c, 15, 48, 84
17, 101264, Note_on_c, 15, 48, 0
17, 101280, Note_on_c, 15, 41, 84
17, 101384, Note_on_c, 15, 41, 0
17, 101400, Note_on_c, 15, 48, 84
17, 101504, Note_on_c, 15, 48, 0
17, 101520, Note_on_c, 15, 45, 84
17, 101624, Note_on_c, 15, 45, 0
17, 101640, Note_on_c, 15, 41, 84
17, 101744, Note_on_c, 15, 41, 0
17, 101760, Note_on_c, 15, 48, 84
17, 101864, Note_on_c, 15, 48, 0
17, 101880, Note_on_c, 15, 45, 84
17, 101984, Note_on_c, 15, 45, 0
17, 102000, Note_on_c, 15, 41, 84
17, 102104, Note_on_c, 15, 41, 0
17, 102120, Note_on_c, 15, 36, 84
17, 102224, Note_on_c, 15, 36, 0
17, 102240, Note_on_c, 15, 29, 84
17, 102311, Note_on_c, 15, 29, 0
17, 102320, Note_on_c, 15, 29, 84
17, 102359, Note_on_c, 15, 29, 0
17, 102360, Note_on_c, 15, 33, 92
17, 102479, Note_on_c, 15, 33, 0
17, 102480, Note_on_c, 15, 29, 84
17, 102539, Note_on_c, 15, 29, 0
17, 103680, Note_on_c, 15, 29, 84
17, 103751, Note_on_c, 15, 29, 0
17, 103760, Note_on_c, 15, 29, 84
17, 103799, Note_on_c, 15, 29, 0
17, 103800, Note_on_c, 15, 33, 92
17, 103919, Note_on_c, 15, 33, 0
17, 103920, Note_on_c, 15, 29, 84
17, 103979, Note_on_c, 15, 29, 0
17, 104040, Note_on_c, 15, 29, 84
17, 104111, Note_on_c, 15, 29, 0
17, 104120, Note_on_c, 15, 29, 84
17, 104159, Note_on_c, 15, 29, 0
17, 104160, Note_on_c, 15, 33, 92
17, 104279, Note_on_c, 15, 33, 0
17, 104280, Note_on_c, 15, 29, 84
17, 104384, Note_on_c, 15, 29, 0
17, 104400, Note_on_c, 15, 29, 84
17, 104471, Note_on_c, 15, 29, 0
17, 104480, Note_on_c, 15, 29, 84
17, 104519, Note_on_c, 15, 29, 0
17, 104520, Note_on_c, 15, 33, 92
17, 104639, Note_on_c, 15, 33, 0
17, 104640, Note_on_c, 15, 29, 84
17, 104744, Note_on_c, 15, 29, 0
17, 104760, Note_on_c, 15, 29, 84
17, 104831, Note_on_c, 15, 29, 0
17, 104840, Note_on_c, 15, 29, 84
17, 104879, Note_on_c, 15, 29, 0
17, 104880, Note_on_c, 15, 33, 92
17, 104999, Note_on_c, 15, 33, 0
17, 105000, Note_on_c, 15, 29, 84
17, 105104, Note_on_c, 15, 29, 0
17, 105120, Note_on_c, 15, 29, 84
17, 105209, Note_on_c, 15, 29, 0
17, 105240, Note_on_c, 15, 33, 84
17, 105240, Control_c, 15, 11, 127
17, 105280, Control_c, 15, 11, 125
17, 105320, Control_c, 15, 11, 124
17, 105360, Control_c, 15, 11, 122
17, 105400, Control_c, 15, 11, 120
17, 105440, Control_c, 15, 11, 118
17, 105480, Control_c, 15, 11, 117
17, 105520, Control_c, 15, 11, 115
17, 105560, Control_c, 15, 11, 113
17, 105599, Note_on_c, 15, 33, 0
17, 105600, Control_c, 15, 11, 111
17, 105600, Note_on_c, 15, 33, 84
17, 105640, Control_c, 15, 11, 110
17, 105680, Control_c, 15, 11, 108
17, 105720, Control_c, 15, 11, 106
17, 105760, Control_c, 15, 11, 104
17, 105800, Control_c, 15, 11, 103
17, 105840, Control_c, 15, 11, 101
17, 105880, Control_c, 15, 11, 99
17, 105920, Control_c, 15, 11, 97
17, 105959, Note_on_c, 15, 33, 0
17, 105960, Control_c, 15, 11, 96
17, 105960, Note_on_c, 15, 33, 84
17, 106000, Control_c, 15, 11, 94
17, 106040, Control_c, 15, 11, 92
17, 106080, Control_c, 15, 11, 90
17, 106120, Control_c, 15, 11, 89
17, 106160, Control_c, 15, 11, 87
17, 106200, Control_c, 15, 11, 85
17, 106240, Control_c, 15, 11, 83
17, 106280, Control_c, 15, 11, 82
17, 106319, Note_on_c, 15, 33, 0
17, 106320, Control_c, 15, 11, 80
17, 106320, Note_on_c, 15, 33, 84
17, 106360, Control_c, 15, 11, 78
17, 106400, Control_c, 15, 11, 76
17, 106440, Control_c, 15, 11, 75
17, 106480, Control_c, 15, 11, 73
17, 106520, Control_c, 15, 11, 71
17, 106560, Control_c, 15, 11, 69
17, 106600, Control_c, 15, 11, 68
17, 106640, Control_c, 15, 11, 64
17, 106664, Note_on_c, 15, 33, 0
17, 106680, Note_on_c, 15, 38, 84
17, 106919, Note_on_c, 15, 38, 0
17, 107400, Control_c, 15, 11, 127
17, 147000, Control_c, 15, 11, 113
17, 147240, Note_on_c, 15, 33, 84
17, 147251, Control_c, 15, 11, 114
17, 147343, Control_c, 15, 11, 115
17, 147434, Control_c, 15, 11, 116
17, 147526, Control_c, 15, 11, 117
17, 147617, Control_c, 15, 11, 118
17, 147699, Note_on_c, 15, 33, 0
17, 147709, Control_c, 15, 11, 119
17, 147720, Note_on_c, 15, 33, 84
17, 147800, Control_c, 15, 11, 120
17, 147891, Control_c, 15, 11, 121
17, 147983, Control_c, 15, 11, 122
17, 148074, Control_c, 15, 11, 123
17, 148166, Control_c, 15, 11, 124
17, 148179, Note_on_c, 15, 33, 0
17, 148200, Note_on_c, 15, 33, 84
17, 148257, Control_c, 15, 11, 125
17, 148349, Control_c, 15, 11, 127
17, 148419, Note_on_c, 15, 33, 0
17, 148440, Note_on_c, 15, 38, 84
17, 149039, Note_on_c, 15, 38, 0
17, 149040, Note_on_c, 15, 33, 84
17, 149159, Note_on_c, 15, 33, 0
17, 149160, Note_on_c, 15, 38, 84
17, 149399, Note_on_c, 15, 38, 0
17, 149880, Note_on_c, 15, 38, 84
17, 150479, Note_on_c, 15, 38, 0
17, 150480, Note_on_c, 15, 33, 84
17, 150599, Note_on_c, 15, 33, 0
17, 150600, Note_on_c, 15, 38, 84
17, 150839, Note_on_c, 15, 38, 0
17, 151320, Note_on_c, 15, 38, 84
17, 151799, Note_on_c, 15, 38, 0
17, 151800, Note_on_c, 15, 33, 84
17, 152019, Note_on_c, 15, 33, 0
17, 152040, Note_on_c, 15, 38, 84
17, 152279, Note_on_c, 15, 38, 0
17, 152280, Note_on_c, 15, 33, 84
17, 152499, Note_on_c, 15, 33, 0
17, 152520, Note_on_c, 15, 38, 84
17, 152699, Note_on_c, 15, 38, 0
17, 152760, Note_on_c, 15, 33, 84
17, 152999, Note_on_c, 15, 33, 0
17, 154200, Note_on_c, 15, 33, 84
17, 154919, Note_on_c, 15, 33, 0
17, 154920, Note_on_c, 15, 33, 84
17, 155159, Note_on_c, 15, 33, 0
17, 155640, Note_on_c, 15, 33, 84
17, 156359, Note_on_c, 15, 33, 0
17, 156360, Note_on_c, 15, 33, 84
17, 156599, Note_on_c, 15, 33, 0
17, 157080, Note_on_c, 15, 33, 84
17, 157559, Note_on_c, 15, 33, 0
17, 157560, Note_on_c, 15, 38, 84
17, 157799, Note_on_c, 15, 38, 0
17, 157800, Note_on_c, 15, 33, 84
17, 158039, Note_on_c, 15, 33, 0
17, 158040, Note_on_c, 15, 45, 84
17, 158259, Note_on_c, 15, 45, 0
17, 158280, Note_on_c, 15, 33, 84
17, 158459, Note_on_c, 15, 33, 0
17, 158520, Note_on_c, 15, 38, 84
17, 158759, Note_on_c, 15, 38, 0
17, 177240, Control_c, 15, 11, 113
17, 177480, Note_on_c, 15, 33, 84
17, 177491, Control_c, 15, 11, 114
17, 177583, Control_c, 15, 11, 115
17, 177674, Control_c, 15, 11, 116
17, 177766, Control_c, 15, 11, 117
17, 177857, Control_c, 15, 11, 118
17, 177939, Note_on_c, 15, 33, 0
17, 177949, Control_c, 15, 11, 119
17, 177960, Note_on_c, 15, 33, 84
17, 178040, Control_c, 15, 11, 120
17, 178131, Control_c, 15, 11, 121
17, 178223, Control_c, 15, 11, 122
17, 178314, Control_c, 15, 11, 123
17, 178406, Control_c, 15, 11, 124
17, 178419, Note_on_c, 15, 33, 0
17, 178440, Note_on_c, 15, 33, 84
17, 178497, Control_c, 15, 11, 125
17, 178589, Control_c, 15, 11, 127
17, 178659, Note_on_c, 15, 33, 0
17, 178680, Note_on_c, 15, 38, 84
17, 179279, Note_on_c, 15, 38, 0
17, 179280, Note_on_c, 15, 33, 84
17, 179399, Note_on_c, 15, 33, 0
17, 179400, Note_on_c, 15, 38, 84
17, 179639, Note_on_c, 15, 38, 0
17, 180120, Note_on_c, 15, 38, 84
17, 180719, Note_on_c, 15, 38, 0
17, 180720, Note_on_c, 15, 33, 84
17, 180839, Note_on_c, 15, 33, 0
17, 180840, Note_on_c, 15, 38, 84
17, 181079, Note_on_c, 15, 38, 0
17, 181560, Note_on_c, 15, 38, 84
17, 182039, Note_on_c, 15, 38, 0
17, 182040, Note_on_c, 15, 33, 84
17, 182259, Note_on_c, 15, 33, 0
17, 182280, Note_on_c, 15, 38, 84
17, 182519, Note_on_c, 15, 38, 0
17, 182520, Note_on_c, 15, 33, 84
17, 182739, Note_on_c, 15, 33, 0
17, 182760, Note_on_c, 15, 38, 84
17, 182939, Note_on_c, 15, 38, 0
17, 183000, Note_on_c, 15, 33, 84
17, 183239, Note_on_c, 15, 33, 0
17, 184440, Note_on_c, 15, 33, 84
17, 185159, Note_on_c, 15, 33, 0
17, 185160, Note_on_c, 15, 33, 84
17, 185399, Note_on_c, 15, 33, 0
17, 185880, Note_on_c, 15, 33, 84
17, 186599, Note_on_c, 15, 33, 0
17, 186600, Note_on_c, 15, 33, 84
17, 186839, Note_on_c, 15, 33, 0
17, 187320, Note_on_c, 15, 33, 84
17, 187799, Note_on_c, 15, 33, 0
17, 187800, Note_on_c, 15, 38, 84
17, 188039, Note_on_c, 15, 38, 0
17, 188040, Note_on_c, 15, 33, 84
17, 188279, Note_on_c, 15, 33, 0
17, 188280, Note_on_c, 15, 45, 84
17, 188499, Note_on_c, 15, 45, 0
17, 188520, Note_on_c, 15, 33, 84
17, 188699, Note_on_c, 15, 33, 0
17, 188760, Note_on_c, 15, 38, 84
17, 188999, Note_on_c, 15, 38, 0
17, 190200, Note_on_c, 15, 38, 52
17, 190919, Note_on_c, 15, 38, 0
17, 190920, Note_on_c, 15, 38, 52
17, 191619, Note_on_c, 15, 38, 0
17, 191640, Control_c, 15, 11, 127
17, 191640, Note_on_c, 15, 37, 52
17, 191872, Control_c, 15, 11, 126
17, 192105, Control_c, 15, 11, 125
17, 192337, Control_c, 15, 11, 124
17, 192359, Note_on_c, 15, 37, 0
17, 192360, Note_on_c, 15, 37, 52
17, 192569, Control_c, 15, 11, 123
17, 192801, Control_c, 15, 11, 122
17, 193034, Control_c, 15, 11, 121
17, 193059, Note_on_c, 15, 37, 0
17, 193080, Note_on_c, 15, 38, 52
17, 193266, Control_c, 15, 11, 120
17, 193498, Control_c, 15, 11, 119
17, 193730, Control_c, 15, 11, 118
17, 193799, Note_on_c, 15, 38, 0
17, 193800, Note_on_c, 15, 38, 52
17, 193963, Control_c, 15, 11, 117
17, 194195, Control_c, 15, 11, 116
17, 194427, Control_c, 15, 11, 115
17, 194499, Note_on_c, 15, 38, 0
17, 194520, Note_on_c, 15, 33, 52
17, 194659, Control_c, 15, 11, 114
17, 194892, Control_c, 15, 11, 113
17, 195124, Control_c, 15, 11, 112
17, 195239, Note_on_c, 15, 33, 0
17, 195240, Note_on_c, 15, 33, 52
17, 195356, Control_c, 15, 11, 111
17, 195588, Control_c, 15, 11, 110
17, 195821, Control_c, 15, 11, 109
17, 195939, Note_on_c, 15, 33, 0
17, 195960, Note_on_c, 15, 38, 52
17, 196053, Control_c, 15, 11, 108
17, 196285, Control_c, 15, 11, 107
17, 196517, Control_c, 15, 11, 106
17, 196679, Note_on_c, 15, 38, 0
17, 196680, Note_on_c, 15, 38, 52
17, 196750, Control_c, 15, 11, 105
17, 196982, Control_c, 15, 11, 104
17, 197214, Control_c, 15, 11, 103
17, 197379, Note_on_c, 15, 38, 0
17, 197400, Note_on_c, 15, 37, 52
17, 197446, Control_c, 15, 11, 102
17, 197679, Control_c, 15, 11, 101
17, 197911, Control_c, 15, 11, 100
17, 198119, Note_on_c, 15, 37, 0
17, 198120, Note_on_c, 15, 37, 52
17, 198143, Control_c, 15, 11, 99
17, 198375, Control_c, 15, 11, 98
17, 198608, Control_c, 15, 11, 96
17, 198819, Note_on_c, 15, 37, 0
17, 198840, Note_on_c, 15, 36, 52
17, 199439, Note_on_c, 15, 36, 0
17, 199440, Note_on_c, 15, 35, 52
17, 199559, Note_on_c, 15, 35, 0
17, 199560, Note_on_c, 15, 36, 52
17, 199799, Note_on_c, 15, 36, 0
17, 200038, Control_c, 15, 11, 127
17, 200040, Note_on_c, 15, 29, 76
17, 200144, Note_on_c, 15, 29, 0
17, 200160, Note_on_c, 15, 29, 76
17, 200279, Note_on_c, 15, 29, 0
17, 200400, Note_on_c, 15, 29, 76
17, 200504, Note_on_c, 15, 29, 0
17, 200520, Note_on_c, 15, 29, 76
17, 200639, Note_on_c, 15, 29, 0
17, 200760, Note_on_c, 15, 29, 76
17, 200864, Note_on_c, 15, 29, 0
17, 200880, Note_on_c, 15, 29, 52
17, 200999, Note_on_c, 15, 29, 0
17, 201240, Note_on_c, 15, 41, 52
17, 201359, Note_on_c, 15, 41, 0
17, 201600, Note_on_c, 15, 41, 52
17, 201719, Note_on_c, 15, 41, 0
17, 201960, Note_on_c, 15, 36, 52
17, 202079, Note_on_c, 15, 36, 0
17, 202320, Note_on_c, 15, 36, 52
17, 202439, Note_on_c, 15, 36, 0
17, 202680, Note_on_c, 15, 36, 52
17, 202799, Note_on_c, 15, 36, 0
17, 203040, Note_on_c, 15, 36, 52
17, 203159, Note_on_c, 15, 36, 0
17, 203400, Note_on_c, 15, 41, 52
17, 203519, Note_on_c, 15, 41, 0
17, 204480, Note_on_c, 15, 46, 52
17, 204569, Note_on_c, 15, 46, 0
17, 204600, Note_on_c, 15, 46, 56
17, 204689, Note_on_c, 15, 46, 0
17, 204720, Note_on_c, 15, 45, 60
17, 204809, Note_on_c, 15, 45, 0
17, 204840, Note_on_c, 15, 43, 64
17, 205079, Note_on_c, 15, 43, 0
17, 205080, Note_on_c, 15, 41, 72
17, 205184, Note_on_c, 15, 41, 0
17, 205200, Note_on_c, 15, 46, 84
17, 205439, Note_on_c, 15, 46, 0
17, 205440, Note_on_c, 15, 45, 76
17, 205544, Note_on_c, 15, 45, 0
17, 205560, Note_on_c, 15, 50, 84
17, 205799, Note_on_c, 15, 50, 0
17, 205800, Note_on_c, 15, 49, 76
17, 205904, Note_on_c, 15, 49, 0
17, 205920, Note_on_c, 15, 40, 76
17, 206024, Note_on_c, 15, 40, 0
17, 206040, Note_on_c, 15, 52, 76
17, 206144, Note_on_c, 15, 52, 0
17, 206160, Note_on_c, 15, 52, 76
17, 206264, Note_on_c, 15, 52, 0
17, 206280, Note_on_c, 15, 45, 76
17, 206399, Note_on_c, 15, 45, 0
17, 206640, Note_on_c, 15, 40, 76
17, 206744, Note_on_c, 15, 40, 0
17, 206760, Note_on_c, 15, 52, 76
17, 206864, Note_on_c, 15, 52, 0
17, 206880, Note_on_c, 15, 52, 76
17, 206984, Note_on_c, 15, 52, 0
17, 207000, Note_on_c, 15, 45, 76
17, 207119, Note_on_c, 15, 45, 0
17, 207360, Note_on_c, 15, 40, 76
17, 207464, Note_on_c, 15, 40, 0
17, 207480, Note_on_c, 15, 52, 76
17, 207584, Note_on_c, 15, 52, 0
17, 207600, Note_on_c, 15, 52, 76
17, 207704, Note_on_c, 15, 52, 0
17, 207720, Note_on_c, 15, 45, 76
17, 207809, Note_on_c, 15, 45, 0
17, 207840, Note_on_c, 15, 52, 76
17, 207929, Note_on_c, 15, 52, 0
17, 207960, Note_on_c, 15, 49, 76
17, 208049, Note_on_c, 15, 49, 0
17, 208080, Note_on_c, 15, 45, 76
17, 208169, Note_on_c, 15, 45, 0
17, 208200, Note_on_c, 15, 40, 76
17, 208289, Note_on_c, 15, 40, 0
17, 208320, Note_on_c, 15, 37, 76
17, 208409, Note_on_c, 15, 37, 0
17, 208440, Note_on_c, 15, 33, 76
17, 208529, Note_on_c, 15, 33, 0
17, 208680, Note_on_c, 15, 29, 52
17, 208784, Note_on_c, 15, 29, 0
17, 208800, Note_on_c, 15, 29, 52
17, 208919, Note_on_c, 15, 29, 0
17, 209040, Note_on_c, 15, 29, 52
17, 209144, Note_on_c, 15, 29, 0
17, 209160, Note_on_c, 15, 29, 52
17, 209279, Note_on_c, 15, 29, 0
17, 209400, Note_on_c, 15, 29, 52
17, 209504, Note_on_c, 15, 29, 0
17, 209520, Note_on_c, 15, 29, 52
17, 209639, Note_on_c, 15, 29, 0
17, 209880, Note_on_c, 15, 41, 52
17, 209999, Note_on_c, 15, 41, 0
17, 210240, Note_on_c, 15, 41, 52
17, 210359, Note_on_c, 15, 41, 0
17, 210600, Note_on_c, 15, 36, 52
17, 210719, Note_on_c, 15, 36, 0
17, 210960, Note_on_c, 15, 36, 52
17, 211079, Note_on_c, 15, 36, 0
17, 211320, Note_on_c, 15, 36, 52
17, 211439, Note_on_c, 15, 36, 0
17, 211680, Note_on_c, 15, 36, 52
17, 211799, Note_on_c, 15, 36, 0
17, 212040, Note_on_c, 15, 41, 52
17, 212159, Note_on_c, 15, 41, 0
17, 213120, Note_on_c, 15, 46, 52
17, 213209, Note_on_c, 15, 46, 0
17, 213240, Note_on_c, 15, 46, 52
17, 213329, Note_on_c, 15, 46, 0
17, 213360, Note_on_c, 15, 45, 52
17, 213449, Note_on_c, 15, 45, 0
17, 213480, Note_on_c, 15, 43, 52
17, 213719, Note_on_c, 15, 43, 0
17, 213720, Note_on_c, 15, 41, 52
17, 213824, Note_on_c, 15, 41, 0
17, 213840, Note_on_c, 15, 46, 52
17, 214079, Note_on_c, 15, 46, 0
17, 214080, Note_on_c, 15, 45, 52
17, 214184, Note_on_c, 15, 45, 0
17, 214200, Note_on_c, 15, 50, 52
17, 214439, Note_on_c, 15, 50, 0
17, 214440, Note_on_c, 15, 49, 52
17, 214544, Note_on_c, 15, 49, 0
17, 214560, Note_on_c, 15, 40, 52
17, 214664, Note_on_c, 15, 40, 0
17, 214680, Note_on_c, 15, 52, 52
17, 214784, Note_on_c, 15, 52, 0
17, 214800, Note_on_c, 15, 52, 52
17, 214904, Note_on_c, 15, 52, 0
17, 214920, Note_on_c, 15, 45, 52
17, 215039, Note_on_c, 15, 45, 0
17, 215280, Note_on_c, 15, 40, 52
17, 215384, Note_on_c, 15, 40, 0
17, 215400, Note_on_c, 15, 52, 52
17, 215504, Note_on_c, 15, 52, 0
17, 215520, Note_on_c, 15, 52, 52
17, 215624, Note_on_c, 15, 52, 0
17, 215640, Note_on_c, 15, 45, 52
17, 215759, Note_on_c, 15, 45, 0
17, 216000, Note_on_c, 15, 40, 52
17, 216104, Note_on_c, 15, 40, 0
17, 216120, Note_on_c, 15, 52, 52
17, 216224, Note_on_c, 15, 52, 0
17, 216240, Note_on_c, 15, 52, 52
17, 216344, Note_on_c, 15, 52, 0
17, 216360, Note_on_c, 15, 45, 52
17, 216449, Note_on_c, 15, 45, 0
17, 216480, Note_on_c, 15, 52, 52
17, 216569, Note_on_c, 15, 52, 0
17, 216600, Note_on_c, 15, 49, 52
17, 216689, Note_on_c, 15, 49, 0
17, 216720, Note_on_c, 15, 45, 52
17, 216809, Note_on_c, 15, 45, 0
17, 216840, Note_on_c, 15, 40, 52
17, 216929, Note_on_c, 15, 40, 0
17, 216960, Note_on_c, 15, 37, 52
17, 217049, Note_on_c, 15, 37, 0
17, 217080, Note_on_c, 15, 33, 52
17, 217169, Note_on_c, 15, 33, 0
17, 217320, Note_on_c, 15, 33, 52
17, 217391, Note_on_c, 15, 33, 0
17, 217400, Note_on_c, 15, 33, 52
17, 217439, Note_on_c, 15, 33, 0
17, 217440, Note_on_c, 15, 37, 52
17, 217559, Note_on_c, 15, 37, 0
17, 217560, Note_on_c, 15, 33, 52
17, 217619, Note_on_c, 15, 33, 0
17, 223200, Note_on_c, 15, 32, 44
17, 223439, Note_on_c, 15, 32, 0
17, 223440, Note_on_c, 15, 31, 44
17, 223544, Note_on_c, 15, 31, 0
17, 223560, Note_on_c, 15, 32, 44
17, 223799, Note_on_c, 15, 32, 0
17, 223800, Note_on_c, 15, 31, 44
17, 223904, Note_on_c, 15, 31, 0
17, 223920, Note_on_c, 15, 32, 44
17, 224144, Note_on_c, 15, 32, 0
17, 224160, Note_on_c, 15, 31, 44
17, 224264, Note_on_c, 15, 31, 0
17, 224280, Note_on_c, 15, 31, 44
17, 224399, Note_on_c, 15, 31, 0
17, 228960, Note_on_c, 15, 30, 44
17, 229199, Note_on_c, 15, 30, 0
17, 229200, Note_on_c, 15, 29, 44
17, 229304, Note_on_c, 15, 29, 0
17, 229320, Note_on_c, 15, 30, 44
17, 229559, Note_on_c, 15, 30, 0
17, 229560, Note_on_c, 15, 29, 44
17, 229664, Note_on_c, 15, 29, 0
17, 229680, Note_on_c, 15, 30, 44
17, 229904, Note_on_c, 15, 30, 0
17, 229920, Note_on_c, 15, 29, 44
17, 230024, Note_on_c, 15, 29, 0
17, 230040, Note_on_c, 15, 29, 44
17, 230159, Note_on_c, 15, 29, 0
17, 231720, Program_c, 15, 45
17, 231840, Note_on_c, 15, 34, 40
17, 231959, Note_on_c, 15, 34, 0
17, 232200, Note_on_c, 15, 46, 40
17, 232319, Note_on_c, 15, 46, 0
17, 232560, Note_on_c, 15, 46, 40
17, 232679, Note_on_c, 15, 46, 0
17, 232920, Note_on_c, 15, 46, 40
17, 233039, Note_on_c, 15, 46, 0
17, 233280, Note_on_c, 15, 41, 40
17, 233399, Note_on_c, 15, 41, 0
17, 233640, Note_on_c, 15, 41, 40
17, 233759, Note_on_c, 15, 41, 0
17, 234000, Note_on_c, 15, 41, 40
17, 234119, Note_on_c, 15, 41, 0
17, 234360, Note_on_c, 15, 41, 40
17, 234479, Note_on_c, 15, 41, 0
17, 234720, Note_on_c, 15, 34, 40
17, 234839, Note_on_c, 15, 34, 0
17, 235080, Note_on_c, 15, 46, 40
17, 235199, Note_on_c, 15, 46, 0
17, 235440, Note_on_c, 15, 46, 42
17, 235559, Note_on_c, 15, 46, 0
17, 235800, Note_on_c, 15, 46, 44
17, 235919, Note_on_c, 15, 46, 0
17, 236160, Note_on_c, 15, 41, 46
17, 236279, Note_on_c, 15, 41, 0
17, 236520, Note_on_c, 15, 41, 48
17, 236639, Note_on_c, 15, 41, 0
17, 236880, Note_on_c, 15, 41, 50
17, 236999, Note_on_c, 15, 41, 0
17, 237240, Note_on_c, 15, 41, 53
17, 237359, Note_on_c, 15, 41, 0
17, 237600, Note_on_c, 15, 34, 55
17, 237719, Note_on_c, 15, 34, 0
17, 237840, Program_c, 15, 48
17, 237960, Note_on_c, 15, 53, 61
17, 238049, Note_on_c, 15, 53, 0
17, 238080, Note_on_c, 15, 53, 62
17, 238169, Note_on_c, 15, 53, 0
17, 238200, Note_on_c, 15, 52, 62
17, 238289, Note_on_c, 15, 52, 0
17, 238320, Note_on_c, 15, 50, 63
17, 238409, Note_on_c, 15, 50, 0
17, 238440, Note_on_c, 15, 50, 64
17, 238529, Note_on_c, 15, 50, 0
17, 238560, Note_on_c, 15, 48, 65
17, 238649, Note_on_c, 15, 48, 0
17, 238680, Note_on_c, 15, 46, 65
17, 238769, Note_on_c, 15, 46, 0
17, 238800, Note_on_c, 15, 46, 66
17, 238889, Note_on_c, 15, 46, 0
17, 238920, Note_on_c, 15, 45, 67
17, 239009, Note_on_c, 15, 45, 0
17, 239040, Note_on_c, 15, 43, 68
17, 239129, Note_on_c, 15, 43, 0
17, 239160, Note_on_c, 15, 43, 68
17, 239249, Note_on_c, 15, 43, 0
17, 239280, Note_on_c, 15, 41, 69
17, 239369, Note_on_c, 15, 41, 0
17, 239400, Note_on_c, 15, 40, 70
17, 239489, Note_on_c, 15, 40, 0
17, 239520, Note_on_c, 15, 40, 70
17, 239609, Note_on_c, 15, 40, 0
17, 239640, Note_on_c, 15, 38, 71
17, 239729, Note_on_c, 15, 38, 0
17, 239760, Note_on_c, 15, 36, 72
17, 239849, Note_on_c, 15, 36, 0
17, 239880, Note_on_c, 15, 36, 73
17, 239969, Note_on_c, 15, 36, 0
17, 240000, Note_on_c, 15, 34, 73
17, 240089, Note_on_c, 15, 34, 0
17, 240120, Note_on_c, 15, 33, 74
17, 240209, Note_on_c, 15, 33, 0
17, 240240, Note_on_c, 15, 31, 75
17, 240329, Note_on_c, 15, 31, 0
17, 240360, Note_on_c, 15, 29, 76
17, 240449, Note_on_c, 15, 29, 0
17, 240480, Note_on_c, 15, 29, 76
17, 240599, Note_on_c, 15, 29, 0
17, 240720, Note_on_c, 15, 29, 76
17, 240824, Note_on_c, 15, 29, 0
17, 240840, Note_on_c, 15, 29, 76
17, 240959, Note_on_c, 15, 29, 0
17, 241080, Note_on_c, 15, 29, 76
17, 241184, Note_on_c, 15, 29, 0
17, 241200, Note_on_c, 15, 29, 84
17, 241559, Note_on_c, 15, 29, 0
17, 241560, Note_on_c, 15, 29, 84
17, 241919, Note_on_c, 15, 29, 0
17, 241920, Note_on_c, 15, 29, 84
17, 242399, Note_on_c, 15, 29, 0
17, 242400, Note_on_c, 15, 28, 84
17, 242504, Note_on_c, 15, 28, 0
17, 242520, Note_on_c, 15, 28, 84
17, 242609, Note_on_c, 15, 28, 0
17, 242640, Note_on_c, 15, 28, 84
17, 242999, Note_on_c, 15, 28, 0
17, 243000, Note_on_c, 15, 28, 84
17, 243359, Note_on_c, 15, 28, 0
17, 243360, Note_on_c, 15, 28, 84
17, 243839, Note_on_c, 15, 28, 0
17, 243840, Note_on_c, 15, 29, 84
17, 243944, Note_on_c, 15, 29, 0
17, 243960, Note_on_c, 15, 29, 84
17, 244049, Note_on_c, 15, 29, 0
17, 244080, Note_on_c, 15, 41, 52
17, 244199, Note_on_c, 15, 41, 0
17, 244320, Program_c, 15, 45
17, 244440, Note_on_c, 15, 41, 44
17, 244559, Note_on_c, 15, 41, 0
17, 244800, Note_on_c, 15, 41, 44
17, 244919, Note_on_c, 15, 41, 0
17, 245160, Note_on_c, 15, 36, 44
17, 245279, Note_on_c, 15, 36, 0
17, 245520, Note_on_c, 15, 48, 44
17, 245639, Note_on_c, 15, 48, 0
17, 245880, Note_on_c, 15, 48, 44
17, 245999, Note_on_c, 15, 48, 0
17, 246240, Note_on_c, 15, 48, 44
17, 246359, Note_on_c, 15, 48, 0
17, 246600, Note_on_c, 15, 41, 44
17, 246719, Note_on_c, 15, 41, 0
17, 248280, Control_c, 15, 11, 80
17, 248280, Program_c, 15, 48
17, 248400, Note_on_c, 15, 46, 76
17, 248440, Control_c, 15, 11, 83
17, 248480, Control_c, 15, 11, 85
17, 248489, Note_on_c, 15, 46, 0
17, 248520, Control_c, 15, 11, 88
17, 248520, Note_on_c, 15, 46, 76
17, 248560, Control_c, 15, 11, 90
17, 248600, Control_c, 15, 11, 93
17, 248609, Note_on_c, 15, 46, 0
17, 248640, Control_c, 15, 11, 96
17, 248640, Note_on_c, 15, 45, 76
17, 248680, Control_c, 15, 11, 98
17, 248720, Control_c, 15, 11, 101
17, 248729, Note_on_c, 15, 45, 0
17, 248760, Note_on_c, 15, 43, 76
17, 248760, Control_c, 15, 11, 104
17, 248800, Control_c, 15, 11, 106
17, 248840, Control_c, 15, 11, 109
17, 248880, Control_c, 15, 11, 111
17, 248920, Control_c, 15, 11, 114
17, 248960, Control_c, 15, 11, 117
17, 248984, Note_on_c, 15, 43, 0
17, 249000, Note_on_c, 15, 41, 76
17, 249000, Control_c, 15, 11, 119
17, 249040, Control_c, 15, 11, 122
17, 249080, Control_c, 15, 11, 127
17, 249104, Note_on_c, 15, 41, 0
17, 249120, Note_on_c, 15, 46, 76
17, 249359, Note_on_c, 15, 46, 0
17, 249360, Note_on_c, 15, 45, 76
17, 249464, Note_on_c, 15, 45, 0
17, 249480, Note_on_c, 15, 50, 84
17, 249719, Note_on_c, 15, 50, 0
17, 249720, Note_on_c, 15, 48, 76
17, 249824, Note_on_c, 15, 48, 0
17, 249840, Note_on_c, 15, 53, 84
17, 250079, Note_on_c, 15, 53, 0
17, 250080, Note_on_c, 15, 52, 76
17, 250184, Note_on_c, 15, 52, 0
17, 250200, Note_on_c, 15, 50, 84
17, 250439, Note_on_c, 15, 50, 0
17, 250440, Note_on_c, 15, 48, 76
17, 250544, Note_on_c, 15, 48, 0
17, 250560, Note_on_c, 15, 43, 52
17, 250664, Note_on_c, 15, 43, 0
17, 250680, Note_on_c, 15, 55, 52
17, 250784, Note_on_c, 15, 55, 0
17, 250800, Note_on_c, 15, 55, 52
17, 250904, Note_on_c, 15, 55, 0
17, 250920, Note_on_c, 15, 48, 52
17, 251039, Note_on_c, 15, 48, 0
17, 251280, Note_on_c, 15, 43, 52
17, 251384, Note_on_c, 15, 43, 0
17, 251400, Note_on_c, 15, 55, 52
17, 251504, Note_on_c, 15, 55, 0
17, 251520, Note_on_c, 15, 55, 52
17, 251624, Note_on_c, 15, 55, 0
17, 251640, Note_on_c, 15, 48, 52
17, 251759, Note_on_c, 15, 48, 0
17, 252000, Note_on_c, 15, 43, 52
17, 252104, Note_on_c, 15, 43, 0
17, 252120, Note_on_c, 15, 43, 54
17, 252224, Note_on_c, 15, 43, 0
17, 252240, Note_on_c, 15, 55, 57
17, 252344, Note_on_c, 15, 55, 0
17, 252360, Note_on_c, 15, 48, 60
17, 252479, Note_on_c, 15, 48, 0
17, 252720, Note_on_c, 15, 43, 68
17, 252824, Note_on_c, 15, 43, 0
17, 252840, Note_on_c, 15, 55, 70
17, 252944, Note_on_c, 15, 55, 0
17, 252960, Note_on_c, 15, 55, 73
17, 253064, Note_on_c, 15, 55, 0
17, 253080, Note_on_c, 15, 48, 76
17, 253199, Note_on_c, 15, 48, 0
17, 253440, Note_on_c, 15, 36, 84
17, 253544, Note_on_c, 15, 36, 0
17, 253560, Note_on_c, 15, 48, 84
17, 253664, Note_on_c, 15, 48, 0
17, 253680, Note_on_c, 15, 48, 84
17, 253784, Note_on_c, 15, 48, 0
17, 253800, Note_on_c, 15, 29, 84
17, 253904, Note_on_c, 15, 29, 0
17, 253920, Note_on_c, 15, 41, 84
17, 254024, Note_on_c, 15, 41, 0
17, 254040, Note_on_c, 15, 41, 84
17, 254144, Note_on_c, 15, 41, 0
17, 254160, Note_on_c, 15, 36, 84
17, 254264, Note_on_c, 15, 36, 0
17, 254280, Note_on_c, 15, 48, 84
17, 254384, Note_on_c, 15, 48, 0
17, 254400, Note_on_c, 15, 48, 84
17, 254504, Note_on_c, 15, 48, 0
17, 254520, Note_on_c, 15, 29, 84
17, 254624, Note_on_c, 15, 29, 0
17, 254640, Note_on_c, 15, 41, 84
17, 254744, Note_on_c, 15, 41, 0
17, 254760, Note_on_c, 15, 41, 84
17, 254864, Note_on_c, 15, 41, 0
17, 254880, Note_on_c, 15, 36, 84
17, 254984, Note_on_c, 15, 36, 0
17, 255000, Note_on_c, 15, 48, 84
17, 255104, Note_on_c, 15, 48, 0
17, 255120, Note_on_c, 15, 48, 84
17, 255224, Note_on_c, 15, 48, 0
17, 255240, Note_on_c, 15, 29, 84
17, 255344, Note_on_c, 15, 29, 0
17, 255360, Note_on_c, 15, 41, 84
17, 255464, Note_on_c, 15, 41, 0
17, 255480, Note_on_c, 15, 41, 84
17, 255584, Note_on_c, 15, 41, 0
17, 255600, Note_on_c, 15, 36, 84
17, 255704, Note_on_c, 15, 36, 0
17, 255720, Note_on_c, 15, 48, 84
17, 255824, Note_on_c, 15, 48, 0
17, 255840, Note_on_c, 15, 48, 84
17, 255944, Note_on_c, 15, 48, 0
17, 255960, Note_on_c, 15, 29, 84
17, 256064, Note_on_c, 15, 29, 0
17, 256080, Note_on_c, 15, 41, 84
17, 256184, Note_on_c, 15, 41, 0
17, 256200, Note_on_c, 15, 41, 84
17, 256304, Note_on_c, 15, 41, 0
17, 256320, Note_on_c, 15, 36, 84
17, 256424, Note_on_c, 15, 36, 0
17, 256440, Note_on_c, 15, 48, 84
17, 256544, Note_on_c, 15, 48, 0
17, 256560, Note_on_c, 15, 48, 84
17, 256664, Note_on_c, 15, 48, 0
17, 256680, Note_on_c, 15, 41, 84
17, 256784, Note_on_c, 15, 41, 0
17, 256800, Note_on_c, 15, 48, 84
17, 256904, Note_on_c, 15, 48, 0
17, 256920, Note_on_c, 15, 45, 84
17, 257024, Note_on_c, 15, 45, 0
17, 257040, Note_on_c, 15, 41, 84
17, 257144, Note_on_c, 15, 41, 0
17, 257160, Note_on_c, 15, 48, 84
17, 257264, Note_on_c, 15, 48, 0
17, 257280, Note_on_c, 15, 45, 84
17, 257384, Note_on_c, 15, 45, 0
17, 257400, Note_on_c, 15, 41, 84
17, 257504, Note_on_c, 15, 41, 0
17, 257520, Note_on_c, 15, 36, 84
17, 257624, Note_on_c, 15, 36, 0
17, 257640, Note_on_c, 15, 29, 84
17, 257711, Note_on_c, 15, 29, 0
17, 257720, Note_on_c, 15, 29, 84
17, 257759, Note_on_c, 15, 29, 0
17, 257760, Note_on_c, 15, 33, 92
17, 257879, Note_on_c, 15, 33, 0
17, 257880, Note_on_c, 15, 29, 84
17, 257939, Note_on_c, 15, 29, 0
17, 259080, Note_on_c, 15, 29, 84
17, 259151, Note_on_c, 15, 29, 0
17, 259160, Note_on_c, 15, 29, 84
17, 259199, Note_on_c, 15, 29, 0
17, 259200, Note_on_c, 15, 33, 92
17, 259319, Note_on_c, 15, 33, 0
17, 259320, Note_on_c, 15, 29, 84
17, 259379, Note_on_c, 15, 29, 0
17, 259440, Note_on_c, 15, 29, 84
17, 259511, Note_on_c, 15, 29, 0
17, 259520, Note_on_c, 15, 29, 84
17, 259559, Note_on_c, 15, 29, 0
17, 259560, Note_on_c, 15, 33, 92
17, 259679, Note_on_c, 15, 33, 0
17, 259680, Note_on_c, 15, 29, 84
17, 259784, Note_on_c, 15, 29, 0
17, 259800, Note_on_c, 15, 29, 84
17, 259871, Note_on_c, 15, 29, 0
17, 259880, Note_on_c, 15, 29, 84
17, 259919, Note_on_c, 15, 29, 0
17, 259920, Note_on_c, 15, 33, 92
17, 260039, Note_on_c, 15, 33, 0
17, 260040, Note_on_c, 15, 29, 84
17, 260144, Note_on_c, 15, 29, 0
17, 260160, Note_on_c, 15, 29, 84
17, 260231, Note_on_c, 15, 29, 0
17, 260240, Note_on_c, 15, 29, 84
17, 260279, Note_on_c, 15, 29, 0
17, 260280, Note_on_c, 15, 33, 92
17, 260399, Note_on_c, 15, 33, 0
17, 260400, Note_on_c, 15, 29, 84
17, 260504, Note_on_c, 15, 29, 0
17, 260520, Note_on_c, 15, 29, 84
17, 260609, Note_on_c, 15, 29, 0
17, 260640, Note_on_c, 15, 33, 84
17, 260640, Control_c, 15, 11, 127
17, 260680, Control_c, 15, 11, 125
17, 260720, Control_c, 15, 11, 124
17, 260760, Control_c, 15, 11, 122
17, 260800, Control_c, 15, 11, 120
17, 260840, Control_c, 15, 11, 118
17, 260880, Control_c, 15, 11, 117
17, 260920, Control_c, 15, 11, 115
17, 260960, Control_c, 15, 11, 113
17, 260999, Note_on_c, 15, 33, 0
17, 261000, Control_c, 15, 11, 111
17, 261000, Note_on_c, 15, 33, 84
17, 261040, Control_c, 15, 11, 110
17, 261080, Control_c, 15, 11, 108
17, 261120, Control_c, 15, 11, 106
17, 261160, Control_c, 15, 11, 104
17, 261200, Control_c, 15, 11, 103
17, 261240, Control_c, 15, 11, 101
17, 261280, Control_c, 15, 11, 99
17, 261320, Control_c, 15, 11, 97
17, 261359, Note_on_c, 15, 33, 0
17, 261360, Control_c, 15, 11, 96
17, 261360, Note_on_c, 15, 33, 84
17, 261400, Control_c, 15, 11, 94
17, 261440, Control_c, 15, 11, 92
17, 261480, Control_c, 15, 11, 90
17, 261520, Control_c, 15, 11, 89
17, 261560, Control_c, 15, 11, 87
17, 261600, Control_c, 15, 11, 85
17, 261640, Control_c, 15, 11, 83
17, 261680, Control_c, 15, 11, 82
17, 261719, Note_on_c, 15, 33, 0
17, 261720, Note_on_c, 15, 33, 84
17, 261720, Control_c, 15, 11, 80
17, 261760, Control_c, 15, 11, 78
17, 261800, Control_c, 15, 11, 76
17, 261840, Control_c, 15, 11, 75
17, 261880, Control_c, 15, 11, 73
17, 261920, Control_c, 15, 11, 71
17, 261960, Control_c, 15, 11, 69
17, 262000, Control_c, 15, 11, 68
17, 262040, Control_c, 15, 11, 64
17, 262064, Note_on_c, 15, 33, 0
17, 262080, Note_on_c, 15, 38, 84
17, 262319, Note_on_c, 15, 38, 0
17, 262800, Control_c, 15, 11, 127
17, 302400, Control_c, 15, 11, 113
17, 302640, Note_on_c, 15, 33, 84
17, 302651, Control_c, 15, 11, 114
17, 302743, Control_c, 15, 11, 115
17, 302834, Control_c, 15, 11, 116
17, 302926, Control_c, 15, 11, 117
17, 303017, Control_c, 15, 11, 118
17, 303099, Note_on_c, 15, 33, 0
17, 303109, Control_c, 15, 11, 119
17, 303120, Note_on_c, 15, 33, 84
17, 303200, Control_c, 15, 11, 120
17, 303291, Control_c, 15, 11, 121
17, 303383, Control_c, 15, 11, 122
17, 303474, Control_c, 15, 11, 123
17, 303566, Control_c, 15, 11, 124
17, 303579, Note_on_c, 15, 33, 0
17, 303600, Note_on_c, 15, 33, 84
17, 303657, Control_c, 15, 11, 125
17, 303749, Control_c, 15, 11, 127
17, 303819, Note_on_c, 15, 33, 0
17, 303840, Note_on_c, 15, 38, 84
17, 304439, Note_on_c, 15, 38, 0
17, 304440, Note_on_c, 15, 33, 84
17, 304559, Note_on_c, 15, 33, 0
17, 304560, Note_on_c, 15, 38, 84
17, 304799, Note_on_c, 15, 38, 0
17, 305280, Note_on_c, 15, 38, 84
17, 305879, Note_on_c, 15, 38, 0
17, 305880, Note_on_c, 15, 33, 84
17, 305999, Note_on_c, 15, 33, 0
17, 306000, Note_on_c, 15, 38, 84
17, 306239, Note_on_c, 15, 38, 0
17, 306720, Note_on_c, 15, 38, 84
17, 307199, Note_on_c, 15, 38, 0
17, 307200, Note_on_c, 15, 33, 84
17, 307419, Note_on_c, 15, 33, 0
17, 307440, Note_on_c, 15, 38, 84
17, 307679, Note_on_c, 15, 38, 0
17, 307680, Note_on_c, 15, 33, 84
17, 307899, Note_on_c, 15, 33, 0
17, 307920, Note_on_c, 15, 38, 84
17, 308099, Note_on_c, 15, 38, 0
17, 308160, Note_on_c, 15, 33, 84
17, 308399, Note_on_c, 15, 33, 0
17, 309600, Note_on_c, 15, 33, 84
17, 310319, Note_on_c, 15, 33, 0
17, 310320, Note_on_c, 15, 33, 84
17, 310559, Note_on_c, 15, 33, 0
17, 311040, Note_on_c, 15, 33, 84
17, 311759, Note_on_c, 15, 33, 0
17, 311760, Note_on_c, 15, 33, 84
17, 311999, Note_on_c, 15, 33, 0
17, 312480, Note_on_c, 15, 33, 84
17, 312959, Note_on_c, 15, 33, 0
17, 312960, Note_on_c, 15, 38, 84
17, 313199, Note_on_c, 15, 38, 0
17, 313200, Note_on_c, 15, 33, 84
17, 313439, Note_on_c, 15, 33, 0
17, 313440, Note_on_c, 15, 45, 84
17, 313659, Note_on_c, 15, 45, 0
17, 313680, Note_on_c, 15, 33, 84
17, 313859, Note_on_c, 15, 33, 0
17, 313920, Note_on_c, 15, 38, 84
17, 314159, Note_on_c, 15, 38, 0
17, 332640, Control_c, 15, 11, 113
17, 332880, Note_on_c, 15, 33, 84
17, 332891, Control_c, 15, 11, 114
17, 332983, Control_c, 15, 11, 115
17, 333074, Control_c, 15, 11, 116
17, 333166, Control_c, 15, 11, 117
17, 333257, Control_c, 15, 11, 118
17, 333339, Note_on_c, 15, 33, 0
17, 333349, Control_c, 15, 11, 119
17, 333360, Note_on_c, 15, 33, 84
17, 333440, Control_c, 15, 11, 120
17, 333531, Control_c, 15, 11, 121
17, 333623, Control_c, 15, 11, 122
17, 333714, Control_c, 15, 11, 123
17, 333806, Control_c, 15, 11, 124
17, 333819, Note_on_c, 15, 33, 0
17, 333840, Note_on_c, 15, 33, 84
17, 333897, Control_c, 15, 11, 125
17, 333989, Control_c, 15, 11, 127
17, 334059, Note_on_c, 15, 33, 0
17, 334080, Note_on_c, 15, 38, 84
17, 334679, Note_on_c, 15, 38, 0
17, 334680, Note_on_c, 15, 33, 84
17, 334799, Note_on_c, 15, 33, 0
17, 334800, Note_on_c, 15, 38, 84
17, 335039, Note_on_c, 15, 38, 0
17, 335520, Note_on_c, 15, 38, 84
17, 336119, Note_on_c, 15, 38, 0
17, 336120, Note_on_c, 15, 33, 84
17, 336239, Note_on_c, 15, 33, 0
17, 336240, Note_on_c, 15, 38, 84
17, 336479, Note_on_c, 15, 38, 0
17, 336960, Note_on_c, 15, 38, 84
17, 337439, Note_on_c, 15, 38, 0
17, 337440, Note_on_c, 15, 33, 84
17, 337659, Note_on_c, 15, 33, 0
17, 337680, Note_on_c, 15, 38, 84
17, 337919, Note_on_c, 15, 38, 0
17, 337920, Note_on_c, 15, 33, 84
17, 338139, Note_on_c, 15, 33, 0
17, 338160, Note_on_c, 15, 38, 84
17, 338339, Note_on_c, 15, 38, 0
17, 338400, Note_on_c, 15, 33, 84
17, 338639, Note_on_c, 15, 33, 0
17, 339840, Note_on_c, 15, 33, 84
17, 340559, Note_on_c, 15, 33, 0
17, 340560, Note_on_c, 15, 33, 84
17, 340799, Note_on_c, 15, 33, 0
17, 341280, Note_on_c, 15, 33, 84
17, 341999, Note_on_c, 15, 33, 0
17, 342000, Note_on_c, 15, 33, 84
17, 342239, Note_on_c, 15, 33, 0
17, 342720, Note_on_c, 15, 33, 84
17, 343199, Note_on_c, 15, 33, 0
17, 343200, Note_on_c, 15, 38, 84
17, 343439, Note_on_c, 15, 38, 0
17, 343440, Note_on_c, 15, 33, 84
17, 343679, Note_on_c, 15, 33, 0
17, 343680, Note_on_c, 15, 45, 84
17, 343899, Note_on_c, 15, 45, 0
17, 343920, Note_on_c, 15, 33, 84
17, 344099, Note_on_c, 15, 33, 0
17, 344160, Note_on_c, 15, 38, 84
17, 344399, Note_on_c, 15, 38, 0
17, 345600, Note_on_c, 15, 38, 52
17, 346319, Note_on_c, 15, 38, 0
17, 346320, Note_on_c, 15, 38, 52
17, 347019, Note_on_c, 15, 38, 0
17, 347040, Note_on_c, 15, 37, 52
17, 347040, Control_c, 15, 11, 127
17, 347272, Control_c, 15, 11, 126
17, 347505, Control_c, 15, 11, 125
17, 347737, Control_c, 15, 11, 124
17, 347759, Note_on_c, 15, 37, 0
17, 347760, Note_on_c, 15, 37, 52
17, 347969, Control_c, 15, 11, 123
17, 348201, Control_c, 15, 11, 122
17, 348434, Control_c, 15, 11, 121
17, 348459, Note_on_c, 15, 37, 0
17, 348480, Note_on_c, 15, 38, 52
17, 348666, Control_c, 15, 11, 120
17, 348898, Control_c, 15, 11, 119
17, 349130, Control_c, 15, 11, 118
17, 349199, Note_on_c, 15, 38, 0
17, 349200, Note_on_c, 15, 38, 52
17, 349363, Control_c, 15, 11, 117
17, 349595, Control_c, 15, 11, 116
17, 349827, Control_c, 15, 11, 115
17, 349899, Note_on_c, 15, 38, 0
17, 349920, Note_on_c, 15, 33, 52
17, 350059, Control_c, 15, 11, 114
17, 350292, Control_c, 15, 11, 113
17, 350524, Control_c, 15, 11, 112
17, 350639, Note_on_c, 15, 33, 0
17, 350640, Note_on_c, 15, 33, 52
17, 350756, Control_c, 15, 11, 111
17, 350988, Control_c, 15, 11, 110
17, 351221, Control_c, 15, 11, 109
17, 351339, Note_on_c, 15, 33, 0
17, 351360, Note_on_c, 15, 38, 52
17, 351453, Control_c, 15, 11, 108
17, 351685, Control_c, 15, 11, 107
17, 351917, Control_c, 15, 11, 106
17, 352079, Note_on_c, 15, 38, 0
17, 352080, Note_on_c, 15, 38, 52
17, 352150, Control_c, 15, 11, 105
17, 352382, Control_c, 15, 11, 104
17, 352614, Control_c, 15, 11, 103
17, 352779, Note_on_c, 15, 38, 0
17, 352800, Note_on_c, 15, 37, 52
17, 352846, Control_c, 15, 11, 102
17, 353079, Control_c, 15, 11, 101
17, 353311, Control_c, 15, 11, 100
17, 353519, Note_on_c, 15, 37, 0
17, 353520, Note_on_c, 15, 37, 52
17, 353543, Control_c, 15, 11, 99
17, 353775, Control_c, 15, 11, 98
17, 354008, Control_c, 15, 11, 96
17, 354219, Note_on_c, 15, 37, 0
17, 354240, Note_on_c, 15, 36, 52
17, 354839, Note_on_c, 15, 36, 0
17, 354840, Note_on_c, 15, 35, 52
17, 354959, Note_on_c, 15, 35, 0
17, 354960, Note_on_c, 15, 36, 52
17, 355199, Note_on_c, 15, 36, 0
17, 355438, Control_c, 15, 11, 127
17, 355440, Note_on_c, 15, 29, 76
17, 355544, Note_on_c, 15, 29, 0
17, 355560, Note_on_c, 15, 29, 76
17, 355679, Note_on_c, 15, 29, 0
17, 355800, Note_on_c, 15, 29, 76
17, 355904, Note_on_c, 15, 29, 0
17, 355920, Note_on_c, 15, 29, 76
17, 356039, Note_on_c, 15, 29, 0
17, 356160, Note_on_c, 15, 29, 76
17, 356264, Note_on_c, 15, 29, 0
17, 356280, Note_on_c, 15, 29, 52
17, 356399, Note_on_c, 15, 29, 0
17, 356640, Note_on_c, 15, 41, 52
17, 356759, Note_on_c, 15, 41, 0
17, 357000, Note_on_c, 15, 41, 52
17, 357119, Note_on_c, 15, 41, 0
17, 357360, Note_on_c, 15, 36, 52
17, 357479, Note_on_c, 15, 36, 0
17, 357720, Note_on_c, 15, 36, 52
17, 357839, Note_on_c, 15, 36, 0
17, 358080, Note_on_c, 15, 36, 52
17, 358199, Note_on_c, 15, 36, 0
17, 358440, Note_on_c, 15, 36, 52
17, 358559, Note_on_c, 15, 36, 0
17, 358800, Note_on_c, 15, 41, 52
17, 358919, Note_on_c, 15, 41, 0
17, 359880, Note_on_c, 15, 46, 52
17, 359969, Note_on_c, 15, 46, 0
17, 360000, Note_on_c, 15, 46, 56
17, 360089, Note_on_c, 15, 46, 0
17, 360120, Note_on_c, 15, 45, 60
17, 360209, Note_on_c, 15, 45, 0
17, 360240, Note_on_c, 15, 43, 64
17, 360479, Note_on_c, 15, 43, 0
17, 360480, Note_on_c, 15, 41, 72
17, 360584, Note_on_c, 15, 41, 0
17, 360600, Note_on_c, 15, 46, 84
17, 360839, Note_on_c, 15, 46, 0
17, 360840, Note_on_c, 15, 45, 76
17, 360944, Note_on_c, 15, 45, 0
17, 360960, Note_on_c, 15, 50, 84
17, 361199, Note_on_c, 15, 50, 0
17, 361200, Note_on_c, 15, 49, 76
17, 361304, Note_on_c, 15, 49, 0
17, 361320, Note_on_c, 15, 40, 76
17, 361424, Note_on_c, 15, 40, 0
17, 361440, Note_on_c, 15, 52, 76
17, 361544, Note_on_c, 15, 52, 0
17, 361560, Note_on_c, 15, 52, 76
17, 361664, Note_on_c, 15, 52, 0
17, 361680, Note_on_c, 15, 45, 76
17, 361799, Note_on_c, 15, 45, 0
17, 362040, Note_on_c, 15, 40, 76
17, 362144, Note_on_c, 15, 40, 0
17, 362160, Note_on_c, 15, 52, 76
17, 362264, Note_on_c, 15, 52, 0
17, 362280, Note_on_c, 15, 52, 76
17, 362384, Note_on_c, 15, 52, 0
17, 362400, Note_on_c, 15, 45, 76
17, 362519, Note_on_c, 15, 45, 0
17, 362760, Note_on_c, 15, 40, 76
17, 362864, Note_on_c, 15, 40, 0
17, 362880, Note_on_c, 15, 52, 76
17, 362984, Note_on_c, 15, 52, 0
17, 363000, Note_on_c, 15, 52, 76
17, 363104, Note_on_c, 15, 52, 0
17, 363120, Note_on_c, 15, 45, 76
17, 363209, Note_on_c, 15, 45, 0
17, 363240, Note_on_c, 15, 52, 76
17, 363329, Note_on_c, 15, 52, 0
17, 363360, Note_on_c, 15, 49, 76
17, 363449, Note_on_c, 15, 49, 0
17, 363480, Note_on_c, 15, 45, 76
17, 363569, Note_on_c, 15, 45, 0
17, 363600, Note_on_c, 15, 40, 76
17, 363689, Note_on_c, 15, 40, 0
17, 363720, Note_on_c, 15, 37, 76
17, 363809, Note_on_c, 15, 37, 0
17, 363840, Note_on_c, 15, 33, 76
17, 363929, Note_on_c, 15, 33, 0
17, 364080, Note_on_c, 15, 33, 76
17, 364151, Note_on_c, 15, 33, 0
17, 364160, Note_on_c, 15, 33, 76
17, 364199, Note_on_c, 15, 33, 0
17, 364200, Note_on_c, 15, 37, 84
17, 364319, Note_on_c, 15, 37, 0
17, 364320, Note_on_c, 15, 33, 76
17, 364379, Note_on_c, 15, 33, 0
17, 369960, Note_on_c, 15, 32, 44
17, 370199, Note_on_c, 15, 32, 0
17, 370200, Note_on_c, 15, 31, 44
17, 370304, Note_on_c, 15, 31, 0
17, 370320, Note_on_c, 15, 32, 44
17, 370559, Note_on_c, 15, 32, 0
17, 370560, Note_on_c, 15, 31, 44
17, 370664, Note_on_c, 15, 31, 0
17, 370680, Note_on_c, 15, 32, 44
17, 370904, Note_on_c, 15, 32, 0
17, 370920, Note_on_c, 15, 31, 84
17, 371024, Note_on_c, 15, 31, 0
17, 371040, Note_on_c, 15, 31, 84
17, 371159, Note_on_c, 15, 31, 0
17, 375720, Note_on_c, 15, 30, 44
17, 375959, Note_on_c, 15, 30, 0
17, 375960, Note_on_c, 15, 29, 44
17, 376064, Note_on_c, 15, 29, 0
17, 376080, Note_on_c, 15, 30, 44
17, 376319, Note_on_c, 15, 30, 0
17, 376320, Note_on_c, 15, 29, 44
17, 376424, Note_on_c, 15, 29, 0
17, 376440, Note_on_c, 15, 30, 44
17, 376664, Note_on_c, 15, 30, 0
17, 376680, Note_on_c, 15, 29, 84
17, 376784, Note_on_c, 15, 29, 0
17, 376800, Note_on_c, 15, 29, 84
17, 376919, Note_on_c, 15, 29, 0
17, 378480, Program_c, 15, 45
17, 378600, Note_on_c, 15, 34, 44
17, 378719, Note_on_c, 15, 34, 0
17, 378960, Note_on_c, 15, 46, 44
17, 379079, Note_on_c, 15, 46, 0
17, 379320, Note_on_c, 15, 46, 44
17, 379439, Note_on_c, 15, 46, 0
17, 379680, Note_on_c, 15, 46, 44
17, 379799, Note_on_c, 15, 46, 0
17, 380040, Note_on_c, 15, 41, 44
17, 380159, Note_on_c, 15, 41, 0
17, 380400, Note_on_c, 15, 41, 44
17, 380519, Note_on_c, 15, 41, 0
17, 380760, Note_on_c, 15, 41, 44
17, 380879, Note_on_c, 15, 41, 0
17, 381120, Note_on_c, 15, 41, 44
17, 381239, Note_on_c, 15, 41, 0
17, 381480, Note_on_c, 15, 34, 44
17, 381599, Note_on_c, 15, 34, 0
17, 381840, Note_on_c, 15, 46, 44
17, 381959, Note_on_c, 15, 46, 0
17, 382200, Note_on_c, 15, 46, 45
17, 382319, Note_on_c, 15, 46, 0
17, 382560, Note_on_c, 15, 46, 47
17, 382679, Note_on_c, 15, 46, 0
17, 382920, Note_on_c, 15, 41, 48
17, 383039, Note_on_c, 15, 41, 0
17, 383280, Note_on_c, 15, 41, 50
17, 383399, Note_on_c, 15, 41, 0
17, 383640, Note_on_c, 15, 41, 52
17, 383759, Note_on_c, 15, 41, 0
17, 384000, Note_on_c, 15, 41, 53
17, 384119, Note_on_c, 15, 41, 0
17, 384360, Note_on_c, 15, 34, 55
17, 384479, Note_on_c, 15, 34, 0
17, 384600, Program_c, 15, 48
17, 384720, Note_on_c, 15, 53, 65
17, 384809, Note_on_c, 15, 53, 0
17, 384840, Note_on_c, 15, 53, 65
17, 384929, Note_on_c, 15, 53, 0
17, 384960, Note_on_c, 15, 52, 66
17, 385049, Note_on_c, 15, 52, 0
17, 385080, Note_on_c, 15, 50, 66
17, 385169, Note_on_c, 15, 50, 0
17, 385200, Note_on_c, 15, 50, 67
17, 385289, Note_on_c, 15, 50, 0
17, 385320, Note_on_c, 15, 48, 67
17, 385409, Note_on_c, 15, 48, 0
17, 385440, Note_on_c, 15, 46, 68
17, 385529, Note_on_c, 15, 46, 0
17, 385560, Note_on_c, 15, 46, 68
17, 385649, Note_on_c, 15, 46, 0
17, 385680, Note_on_c, 15, 45, 69
17, 385769, Note_on_c, 15, 45, 0
17, 385800, Note_on_c, 15, 43, 70
17, 385889, Note_on_c, 15, 43, 0
17, 385920, Note_on_c, 15, 43, 70
17, 386009, Note_on_c, 15, 43, 0
17, 386040, Note_on_c, 15, 41, 71
17, 386129, Note_on_c, 15, 41, 0
17, 386160, Note_on_c, 15, 40, 71
17, 386249, Note_on_c, 15, 40, 0
17, 386280, Note_on_c, 15, 40, 72
17, 386369, Note_on_c, 15, 40, 0
17, 386400, Note_on_c, 15, 38, 72
17, 386489, Note_on_c, 15, 38, 0
17, 386520, Note_on_c, 15, 36, 73
17, 386609, Note_on_c, 15, 36, 0
17, 386640, Note_on_c, 15, 36, 73
17, 386729, Note_on_c, 15, 36, 0
17, 386760, Note_on_c, 15, 34, 74
17, 386849, Note_on_c, 15, 34, 0
17, 386880, Note_on_c, 15, 33, 74
17, 386969, Note_on_c, 15, 33, 0
17, 387000, Note_on_c, 15, 31, 75
17, 387089, Note_on_c, 15, 31, 0
17, 387120, Note_on_c, 15, 29, 76
17, 387209, Note_on_c, 15, 29, 0
17, 387240, Note_on_c, 15, 29, 76
17, 387359, Note_on_c, 15, 29, 0
17, 387480, Note_on_c, 15, 29, 76
17, 387584, Note_on_c, 15, 29, 0
17, 387600, Note_on_c, 15, 29, 76
17, 387719, Note_on_c, 15, 29, 0
17, 387840, Note_on_c, 15, 29, 76
17, 387944, Note_on_c, 15, 29, 0
17, 387960, Note_on_c, 15, 29, 84
17, 388319, Note_on_c, 15, 29, 0
17, 388320, Note_on_c, 15, 29, 84
17, 388679, Note_on_c, 15, 29, 0
17, 388680, Note_on_c, 15, 29, 84
17, 389159, Note_on_c, 15, 29, 0
17, 389160, Note_on_c, 15, 28, 84
17, 389264, Note_on_c, 15, 28, 0
17, 389280, Note_on_c, 15, 28, 84
17, 389369, Note_on_c, 15, 28, 0
17, 389400, Note_on_c, 15, 28, 84
17, 389759, Note_on_c, 15, 28, 0
17, 389760, Note_on_c, 15, 28, 84
17, 390119, Note_on_c, 15, 28, 0
17, 390120, Note_on_c, 15, 28, 84
17, 390599, Note_on_c, 15, 28, 0
17, 390600, Note_on_c, 15, 29, 84
17, 390704, Note_on_c, 15, 29, 0
17, 390720, Note_on_c, 15, 29, 84
17, 390809, Note_on_c, 15, 29, 0
17, 390840, Note_on_c, 15, 41, 52
17, 390959, Note_on_c, 15, 41, 0
17, 391080, Program_c, 15, 45
17, 391200, Note_on_c, 15, 41, 44
17, 391319, Note_on_c, 15, 41, 0
17, 391560, Note_on_c, 15, 41, 44
17, 391679, Note_on_c, 15, 41, 0
17, 391920, Note_on_c, 15, 36, 44
17, 392039, Note_on_c, 15, 36, 0
17, 392280, Note_on_c, 15, 48, 44
17, 392399, Note_on_c, 15, 48, 0
17, 392640, Note_on_c, 15, 48, 44
17, 392759, Note_on_c, 15, 48, 0
17, 393000, Note_on_c, 15, 48, 44
17, 393119, Note_on_c, 15, 48, 0
17, 393360, Note_on_c, 15, 41, 44
17, 393479, Note_on_c, 15, 41, 0
17, 395040, Program_c, 15, 48
17, 395040, Control_c, 15, 11, 80
17, 395160, Note_on_c, 15, 46, 76
17, 395200, Control_c, 15, 11, 83
17, 395240, Control_c, 15, 11, 85
17, 395249, Note_on_c, 15, 46, 0
17, 395280, Note_on_c, 15, 46, 76
17, 395280, Control_c, 15, 11, 88
17, 395320, Control_c, 15, 11, 90
17, 395360, Control_c, 15, 11, 93
17, 395369, Note_on_c, 15, 46, 0
17, 395400, Control_c, 15, 11, 96
17, 395400, Note_on_c, 15, 45, 76
17, 395440, Control_c, 15, 11, 98
17, 395480, Control_c, 15, 11, 101
17, 395489, Note_on_c, 15, 45, 0
17, 395520, Control_c, 15, 11, 104
17, 395520, Note_on_c, 15, 43, 76
17, 395560, Control_c, 15, 11, 106
17, 395600, Control_c, 15, 11, 109
17, 395640, Control_c, 15, 11, 111
17, 395680, Control_c, 15, 11, 114
17, 395720, Control_c, 15, 11, 117
17, 395744, Note_on_c, 15, 43, 0
17, 395760, Note_on_c, 15, 41, 76
17, 395760, Control_c, 15, 11, 119
17, 395800, Control_c, 15, 11, 122
17, 395840, Control_c, 15, 11, 127
17, 395864, Note_on_c, 15, 41, 0
17, 395880, Note_on_c, 15, 46, 76
17, 396119, Note_on_c, 15, 46, 0
17, 396120, Note_on_c, 15, 45, 76
17, 396224, Note_on_c, 15, 45, 0
17, 396240, Note_on_c, 15, 50, 84
17, 396479, Note_on_c, 15, 50, 0
17, 396480, Note_on_c, 15, 48, 76
17, 396584, Note_on_c, 15, 48, 0
17, 396600, Note_on_c, 15, 53, 84
17, 396839, Note_on_c, 15, 53, 0
17, 396840, Note_on_c, 15, 52, 76
17, 396944, Note_on_c, 15, 52, 0
17, 396960, Note_on_c, 15, 50, 84
17, 397199, Note_on_c, 15, 50, 0
17, 397200, Note_on_c, 15, 48, 76
17, 397304, Note_on_c, 15, 48, 0
17, 397320, Note_on_c, 15, 43, 52
17, 397424, Note_on_c, 15, 43, 0
17, 397440, Note_on_c, 15, 55, 52
17, 397544, Note_on_c, 15, 55, 0
17, 397560, Note_on_c, 15, 55, 52
17, 397664, Note_on_c, 15, 55, 0
17, 397680, Note_on_c, 15, 48, 52
17, 397799, Note_on_c, 15, 48, 0
17, 398040, Note_on_c, 15, 43, 52
17, 398144, Note_on_c, 15, 43, 0
17, 398160, Note_on_c, 15, 55, 52
17, 398264, Note_on_c, 15, 55, 0
17, 398280, Note_on_c, 15, 55, 52
17, 398384, Note_on_c, 15, 55, 0
17, 398400, Note_on_c, 15, 48, 52
17, 398519, Note_on_c, 15, 48, 0
17, 398760, Note_on_c, 15, 43, 52
17, 398864, Note_on_c, 15, 43, 0
17, 398880, Note_on_c, 15, 43, 54
17, 398984, Note_on_c, 15, 43, 0
17, 399000, Note_on_c, 15, 55, 57
17, 399104, Note_on_c, 15, 55, 0
17, 399120, Note_on_c, 15, 48, 60
17, 399239, Note_on_c, 15, 48, 0
17, 399480, Note_on_c, 15, 43, 68
17, 399584, Note_on_c, 15, 43, 0
17, 399600, Note_on_c, 15, 55, 70
17, 399704, Note_on_c, 15, 55, 0
17, 399720, Note_on_c, 15, 55, 73
17, 399824, Note_on_c, 15, 55, 0
17, 399840, Note_on_c, 15, 48, 76
17, 399959, Note_on_c, 15, 48, 0
17, 400200, Note_on_c, 15, 36, 84
17, 400304, Note_on_c, 15, 36, 0
17, 400320, Note_on_c, 15, 48, 84
17, 400424, Note_on_c, 15, 48, 0
17, 400440, Note_on_c, 15, 48, 84
17, 400544, Note_on_c, 15, 48, 0
17, 400560, Note_on_c, 15, 29, 84
17, 400664, Note_on_c, 15, 29, 0
17, 400680, Note_on_c, 15, 41, 84
17, 400784, Note_on_c, 15, 41, 0
17, 400800, Note_on_c, 15, 41, 84
17, 400904, Note_on_c, 15, 41, 0
17, 400920, Note_on_c, 15, 36, 84
17, 401024, Note_on_c, 15, 36, 0
17, 401040, Note_on_c, 15, 48, 84
17, 401144, Note_on_c, 15, 48, 0
17, 401160, Note_on_c, 15, 48, 84
17, 401264, Note_on_c, 15, 48, 0
17, 401280, Note_on_c, 15, 29, 84
17, 401384, Note_on_c, 15, 29, 0
17, 401400, Note_on_c, 15, 41, 84
17, 401504, Note_on_c, 15, 41, 0
17, 401520, Note_on_c, 15, 41, 84
17, 401624, Note_on_c, 15, 41, 0
17, 401640, Note_on_c, 15, 36, 84
17, 401744, Note_on_c, 15, 36, 0
17, 401760, Note_on_c, 15, 48, 84
17, 401864, Note_on_c, 15, 48, 0
17, 401880, Note_on_c, 15, 48, 84
17, 401984, Note_on_c, 15, 48, 0
17, 402000, Note_on_c, 15, 29, 84
17, 402104, Note_on_c, 15, 29, 0
17, 402120, Note_on_c, 15, 41, 84
17, 402224, Note_on_c, 15, 41, 0
17, 402240, Note_on_c, 15, 41, 84
17, 402344, Note_on_c, 15, 41, 0
17, 402360, Note_on_c, 15, 36, 84
17, 402464, Note_on_c, 15, 36, 0
17, 402480, Note_on_c, 15, 48, 84
17, 402584, Note_on_c, 15, 48, 0
17, 402600, Note_on_c, 15, 48, 84
17, 402704, Note_on_c, 15, 48, 0
17, 402720, Note_on_c, 15, 29, 84
17, 402824, Note_on_c, 15, 29, 0
17, 402840, Note_on_c, 15, 41, 84
17, 402944, Note_on_c, 15, 41, 0
17, 402960, Note_on_c, 15, 41, 84
17, 403064, Note_on_c, 15, 41, 0
17, 403080, Note_on_c, 15, 36, 84
17, 403184, Note_on_c, 15, 36, 0
17, 403200, Note_on_c, 15, 48, 84
17, 403304, Note_on_c, 15, 48, 0
17, 403320, Note_on_c, 15, 48, 84
17, 403424, Note_on_c, 15, 48, 0
17, 403440, Note_on_c, 15, 41, 84
17, 403544, Note_on_c, 15, 41, 0
17, 403560, Note_on_c, 15, 48, 84
17, 403664, Note_on_c, 15, 48, 0
17, 403680, Note_on_c, 15, 45, 84
17, 403784, Note_on_c, 15, 45, 0
17, 403800, Note_on_c, 15, 41, 84
17, 403904, Note_on_c, 15, 41, 0
17, 403920, Note_on_c, 15, 48, 84
17, 404024, Note_on_c, 15, 48, 0
17, 404040, Note_on_c, 15, 45, 84
17, 404144, Note_on_c, 15, 45, 0
17, 404160, Note_on_c, 15, 41, 84
17, 404264, Note_on_c, 15, 41, 0
17, 404280, Note_on_c, 15, 36, 84
17, 404384, Note_on_c, 15, 36, 0
17, 404400, Note_on_c, 15, 29, 84
17, 404471, Note_on_c, 15, 29, 0
17, 404480, Note_on_c, 15, 29, 84
17, 404519, Note_on_c, 15, 29, 0
17, 404520, Note_on_c, 15, 33, 92
17, 404639, Note_on_c, 15, 33, 0
17, 404640, Note_on_c, 15, 29, 84
17, 404699, Note_on_c, 15, 29, 0
17, 405840, Note_on_c, 15, 29, 84
17, 405911, Note_on_c, 15, 29, 0
17, 405920, Note_on_c, 15, 29, 84
17, 405959, Note_on_c, 15, 29, 0
17, 405960, Note_on_c, 15, 33, 92
17, 406079, Note_on_c, 15, 33, 0
17, 406080, Note_on_c, 15, 29, 84
17, 406139, Note_on_c, 15, 29, 0
17, 406200, Note_on_c, 15, 29, 84
17, 406271, Note_on_c, 15, 29, 0
17, 406280, Note_on_c, 15, 29, 84
17, 406319, Note_on_c, 15, 29, 0
17, 406320, Note_on_c, 15, 33, 92
17, 406439, Note_on_c, 15, 33, 0
17, 406440, Note_on_c, 15, 29, 84
17, 406544, Note_on_c, 15, 29, 0
17, 406560, Note_on_c, 15, 29, 84
17, 406631, Note_on_c, 15, 29, 0
17, 406640, Note_on_c, 15, 29, 84
17, 406679, Note_on_c, 15, 29, 0
17, 406680, Note_on_c, 15, 33, 92
17, 406799, Note_on_c, 15, 33, 0
17, 406800, Note_on_c, 15, 29, 84
17, 406904, Note_on_c, 15, 29, 0
17, 406920, Note_on_c, 15, 29, 84
17, 406991, Note_on_c, 15, 29, 0
17, 407000, Note_on_c, 15, 29, 84
17, 407039, Note_on_c, 15, 29, 0
17, 407040, Note_on_c, 15, 33, 92
17, 407159, Note_on_c, 15, 33, 0
17, 407160, Note_on_c, 15, 29, 84
17, 407264, Note_on_c, 15, 29, 0
17, 407280, Note_on_c, 15, 29, 84
17, 407369, Note_on_c, 15, 29, 0
17, 407369, End_track
18, 0, Start_track
18, 0, Title_t, "Ludwig van Beethoven - Symphony No. 7 in A Major, Op.92 - 3. Presto"
18, 0, MIDI_port, 0
18, 0, End_track
0, 0, End_of_file
